G04 #@! TF.FileFunction,Paste,Bot*
%FSLAX46Y46*%
G04 Gerber Fmt 4.6, Leading zero omitted, Abs format (unit mm)*
G04 Created by KiCad (PCBNEW 4.0.4-stable) date 02/14/17 15:30:24*
%MOMM*%
%LPD*%
G01*
G04 APERTURE LIST*
%ADD10C,0.100000*%
%ADD11C,0.150000*%
%ADD12C,0.300000*%
%ADD13C,0.400000*%
%ADD14R,0.647600X0.597600*%
%ADD15R,2.847600X0.847600*%
%ADD16R,3.347600X1.047600*%
%ADD17R,1.097600X0.847600*%
%ADD18R,0.147600X0.197600*%
%ADD19R,1.397600X0.447600*%
%ADD20R,0.247600X0.447600*%
%ADD21R,0.447600X0.247600*%
%ADD22R,0.847600X1.097600*%
%ADD23R,0.147600X1.747600*%
%ADD24R,0.347600X0.747600*%
%ADD25R,0.747600X0.347600*%
%ADD26R,0.597600X0.647600*%
%ADD27R,0.847600X2.347600*%
%ADD28R,0.697600X1.047600*%
%ADD29R,0.347600X0.447600*%
%ADD30R,0.127600X0.277600*%
%ADD31R,0.447600X0.347600*%
%ADD32R,0.747600X0.647600*%
%ADD33R,0.847600X0.547600*%
%ADD34C,0.647600*%
%ADD35R,0.647600X0.447600*%
%ADD36R,1.546860X2.547620*%
%ADD37R,1.148080X2.547620*%
%ADD38R,0.647600X0.647600*%
%ADD39R,2.347600X0.847600*%
%ADD40R,0.197600X0.147600*%
%ADD41R,0.847600X1.447600*%
%ADD42R,2.547620X1.546860*%
%ADD43R,2.547620X1.148080*%
%ADD44C,0.097600*%
%ADD45O,0.697600X0.147600*%
%ADD46O,0.147600X0.697600*%
%ADD47R,0.852600X0.852600*%
G04 APERTURE END LIST*
D10*
D11*
X177002200Y-166007200D02*
X177002200Y-198007200D01*
X285002200Y-198007200D01*
X285002200Y-166007200D01*
X177002200Y-166007200D01*
D10*
D11*
X10000000Y-10000000D02*
X10000000Y-200007200D01*
X287002200Y-200007200D01*
X287002200Y-10000000D01*
X10000000Y-10000000D01*
D10*
D11*
X12000000Y-12000000D02*
X12000000Y-198007200D01*
X285002200Y-198007200D01*
X285002200Y-12000000D01*
X12000000Y-12000000D01*
D10*
D11*
X60000000Y-12000000D02*
X60000000Y-10000000D01*
D10*
D11*
X110000000Y-12000000D02*
X110000000Y-10000000D01*
D10*
D11*
X160000000Y-12000000D02*
X160000000Y-10000000D01*
D10*
D11*
X210000000Y-12000000D02*
X210000000Y-10000000D01*
D10*
D11*
X260000000Y-12000000D02*
X260000000Y-10000000D01*
D10*
D11*
X35990476Y-11588095D02*
X35247619Y-11588095D01*
X35619048Y-11588095D02*
X35619048Y-10288095D01*
X35495238Y-10473810D01*
X35371429Y-10597619D01*
X35247619Y-10659524D01*
D10*
D11*
X85247619Y-10411905D02*
X85309524Y-10350000D01*
X85433333Y-10288095D01*
X85742857Y-10288095D01*
X85866667Y-10350000D01*
X85928571Y-10411905D01*
X85990476Y-10535714D01*
X85990476Y-10659524D01*
X85928571Y-10845238D01*
X85185714Y-11588095D01*
X85990476Y-11588095D01*
D10*
D11*
X135185714Y-10288095D02*
X135990476Y-10288095D01*
X135557143Y-10783333D01*
X135742857Y-10783333D01*
X135866667Y-10845238D01*
X135928571Y-10907143D01*
X135990476Y-11030952D01*
X135990476Y-11340476D01*
X135928571Y-11464286D01*
X135866667Y-11526190D01*
X135742857Y-11588095D01*
X135371429Y-11588095D01*
X135247619Y-11526190D01*
X135185714Y-11464286D01*
D10*
D11*
X185866667Y-10721429D02*
X185866667Y-11588095D01*
X185557143Y-10226190D02*
X185247619Y-11154762D01*
X186052381Y-11154762D01*
D10*
D11*
X235928571Y-10288095D02*
X235309524Y-10288095D01*
X235247619Y-10907143D01*
X235309524Y-10845238D01*
X235433333Y-10783333D01*
X235742857Y-10783333D01*
X235866667Y-10845238D01*
X235928571Y-10907143D01*
X235990476Y-11030952D01*
X235990476Y-11340476D01*
X235928571Y-11464286D01*
X235866667Y-11526190D01*
X235742857Y-11588095D01*
X235433333Y-11588095D01*
X235309524Y-11526190D01*
X235247619Y-11464286D01*
D10*
D11*
X285866667Y-10288095D02*
X285619048Y-10288095D01*
X285495238Y-10350000D01*
X285433333Y-10411905D01*
X285309524Y-10597619D01*
X285247619Y-10845238D01*
X285247619Y-11340476D01*
X285309524Y-11464286D01*
X285371429Y-11526190D01*
X285495238Y-11588095D01*
X285742857Y-11588095D01*
X285866667Y-11526190D01*
X285928571Y-11464286D01*
X285990476Y-11340476D01*
X285990476Y-11030952D01*
X285928571Y-10907143D01*
X285866667Y-10845238D01*
X285742857Y-10783333D01*
X285495238Y-10783333D01*
X285371429Y-10845238D01*
X285309524Y-10907143D01*
X285247619Y-11030952D01*
D10*
D11*
X60000000Y-198007200D02*
X60000000Y-200007200D01*
D10*
D11*
X110000000Y-198007200D02*
X110000000Y-200007200D01*
D10*
D11*
X160000000Y-198007200D02*
X160000000Y-200007200D01*
D10*
D11*
X210000000Y-198007200D02*
X210000000Y-200007200D01*
D10*
D11*
X260000000Y-198007200D02*
X260000000Y-200007200D01*
D10*
D11*
X35990476Y-199595295D02*
X35247619Y-199595295D01*
X35619048Y-199595295D02*
X35619048Y-198295295D01*
X35495238Y-198481010D01*
X35371429Y-198604819D01*
X35247619Y-198666724D01*
D10*
D11*
X85247619Y-198419105D02*
X85309524Y-198357200D01*
X85433333Y-198295295D01*
X85742857Y-198295295D01*
X85866667Y-198357200D01*
X85928571Y-198419105D01*
X85990476Y-198542914D01*
X85990476Y-198666724D01*
X85928571Y-198852438D01*
X85185714Y-199595295D01*
X85990476Y-199595295D01*
D10*
D11*
X135185714Y-198295295D02*
X135990476Y-198295295D01*
X135557143Y-198790533D01*
X135742857Y-198790533D01*
X135866667Y-198852438D01*
X135928571Y-198914343D01*
X135990476Y-199038152D01*
X135990476Y-199347676D01*
X135928571Y-199471486D01*
X135866667Y-199533390D01*
X135742857Y-199595295D01*
X135371429Y-199595295D01*
X135247619Y-199533390D01*
X135185714Y-199471486D01*
D10*
D11*
X185866667Y-198728629D02*
X185866667Y-199595295D01*
X185557143Y-198233390D02*
X185247619Y-199161962D01*
X186052381Y-199161962D01*
D10*
D11*
X235928571Y-198295295D02*
X235309524Y-198295295D01*
X235247619Y-198914343D01*
X235309524Y-198852438D01*
X235433333Y-198790533D01*
X235742857Y-198790533D01*
X235866667Y-198852438D01*
X235928571Y-198914343D01*
X235990476Y-199038152D01*
X235990476Y-199347676D01*
X235928571Y-199471486D01*
X235866667Y-199533390D01*
X235742857Y-199595295D01*
X235433333Y-199595295D01*
X235309524Y-199533390D01*
X235247619Y-199471486D01*
D10*
D11*
X285866667Y-198295295D02*
X285619048Y-198295295D01*
X285495238Y-198357200D01*
X285433333Y-198419105D01*
X285309524Y-198604819D01*
X285247619Y-198852438D01*
X285247619Y-199347676D01*
X285309524Y-199471486D01*
X285371429Y-199533390D01*
X285495238Y-199595295D01*
X285742857Y-199595295D01*
X285866667Y-199533390D01*
X285928571Y-199471486D01*
X285990476Y-199347676D01*
X285990476Y-199038152D01*
X285928571Y-198914343D01*
X285866667Y-198852438D01*
X285742857Y-198790533D01*
X285495238Y-198790533D01*
X285371429Y-198852438D01*
X285309524Y-198914343D01*
X285247619Y-199038152D01*
D10*
D11*
X10000000Y-60000000D02*
X12000000Y-60000000D01*
D10*
D11*
X10000000Y-110000000D02*
X12000000Y-110000000D01*
D10*
D11*
X10000000Y-160000000D02*
X12000000Y-160000000D01*
D10*
D11*
X10690476Y-35216667D02*
X11309524Y-35216667D01*
X10566667Y-35588095D02*
X11000000Y-34288095D01*
X11433333Y-35588095D01*
D10*
D11*
X11092857Y-84907143D02*
X11278571Y-84969048D01*
X11340476Y-85030952D01*
X11402381Y-85154762D01*
X11402381Y-85340476D01*
X11340476Y-85464286D01*
X11278571Y-85526190D01*
X11154762Y-85588095D01*
X10659524Y-85588095D01*
X10659524Y-84288095D01*
X11092857Y-84288095D01*
X11216667Y-84350000D01*
X11278571Y-84411905D01*
X11340476Y-84535714D01*
X11340476Y-84659524D01*
X11278571Y-84783333D01*
X11216667Y-84845238D01*
X11092857Y-84907143D01*
X10659524Y-84907143D01*
D10*
D11*
X11402381Y-135464286D02*
X11340476Y-135526190D01*
X11154762Y-135588095D01*
X11030952Y-135588095D01*
X10845238Y-135526190D01*
X10721429Y-135402381D01*
X10659524Y-135278571D01*
X10597619Y-135030952D01*
X10597619Y-134845238D01*
X10659524Y-134597619D01*
X10721429Y-134473810D01*
X10845238Y-134350000D01*
X11030952Y-134288095D01*
X11154762Y-134288095D01*
X11340476Y-134350000D01*
X11402381Y-134411905D01*
D10*
D11*
X10659524Y-185588095D02*
X10659524Y-184288095D01*
X10969048Y-184288095D01*
X11154762Y-184350000D01*
X11278571Y-184473810D01*
X11340476Y-184597619D01*
X11402381Y-184845238D01*
X11402381Y-185030952D01*
X11340476Y-185278571D01*
X11278571Y-185402381D01*
X11154762Y-185526190D01*
X10969048Y-185588095D01*
X10659524Y-185588095D01*
D10*
D11*
X287002200Y-60000000D02*
X285002200Y-60000000D01*
D10*
D11*
X287002200Y-110000000D02*
X285002200Y-110000000D01*
D10*
D11*
X287002200Y-160000000D02*
X285002200Y-160000000D01*
D10*
D11*
X285692676Y-35216667D02*
X286311724Y-35216667D01*
X285568867Y-35588095D02*
X286002200Y-34288095D01*
X286435533Y-35588095D01*
D10*
D11*
X286095057Y-84907143D02*
X286280771Y-84969048D01*
X286342676Y-85030952D01*
X286404581Y-85154762D01*
X286404581Y-85340476D01*
X286342676Y-85464286D01*
X286280771Y-85526190D01*
X286156962Y-85588095D01*
X285661724Y-85588095D01*
X285661724Y-84288095D01*
X286095057Y-84288095D01*
X286218867Y-84350000D01*
X286280771Y-84411905D01*
X286342676Y-84535714D01*
X286342676Y-84659524D01*
X286280771Y-84783333D01*
X286218867Y-84845238D01*
X286095057Y-84907143D01*
X285661724Y-84907143D01*
D10*
D11*
X286404581Y-135464286D02*
X286342676Y-135526190D01*
X286156962Y-135588095D01*
X286033152Y-135588095D01*
X285847438Y-135526190D01*
X285723629Y-135402381D01*
X285661724Y-135278571D01*
X285599819Y-135030952D01*
X285599819Y-134845238D01*
X285661724Y-134597619D01*
X285723629Y-134473810D01*
X285847438Y-134350000D01*
X286033152Y-134288095D01*
X286156962Y-134288095D01*
X286342676Y-134350000D01*
X286404581Y-134411905D01*
D10*
D11*
X285661724Y-185588095D02*
X285661724Y-184288095D01*
X285971248Y-184288095D01*
X286156962Y-184350000D01*
X286280771Y-184473810D01*
X286342676Y-184597619D01*
X286404581Y-184845238D01*
X286404581Y-185030952D01*
X286342676Y-185278571D01*
X286280771Y-185402381D01*
X286156962Y-185526190D01*
X285971248Y-185588095D01*
X285661724Y-185588095D01*
D10*
D11*
X200359343Y-193785771D02*
X200359343Y-192285771D01*
X200716486Y-192285771D01*
X200930771Y-192357200D01*
X201073629Y-192500057D01*
X201145057Y-192642914D01*
X201216486Y-192928629D01*
X201216486Y-193142914D01*
X201145057Y-193428629D01*
X201073629Y-193571486D01*
X200930771Y-193714343D01*
X200716486Y-193785771D01*
X200359343Y-193785771D01*
X202502200Y-193785771D02*
X202502200Y-193000057D01*
X202430771Y-192857200D01*
X202287914Y-192785771D01*
X202002200Y-192785771D01*
X201859343Y-192857200D01*
X202502200Y-193714343D02*
X202359343Y-193785771D01*
X202002200Y-193785771D01*
X201859343Y-193714343D01*
X201787914Y-193571486D01*
X201787914Y-193428629D01*
X201859343Y-193285771D01*
X202002200Y-193214343D01*
X202359343Y-193214343D01*
X202502200Y-193142914D01*
X203002200Y-192785771D02*
X203573629Y-192785771D01*
X203216486Y-192285771D02*
X203216486Y-193571486D01*
X203287914Y-193714343D01*
X203430772Y-193785771D01*
X203573629Y-193785771D01*
X204645057Y-193714343D02*
X204502200Y-193785771D01*
X204216486Y-193785771D01*
X204073629Y-193714343D01*
X204002200Y-193571486D01*
X204002200Y-193000057D01*
X204073629Y-192857200D01*
X204216486Y-192785771D01*
X204502200Y-192785771D01*
X204645057Y-192857200D01*
X204716486Y-193000057D01*
X204716486Y-193142914D01*
X204002200Y-193285771D01*
X205359343Y-193642914D02*
X205430771Y-193714343D01*
X205359343Y-193785771D01*
X205287914Y-193714343D01*
X205359343Y-193642914D01*
X205359343Y-193785771D01*
X205359343Y-192857200D02*
X205430771Y-192928629D01*
X205359343Y-193000057D01*
X205287914Y-192928629D01*
X205359343Y-192857200D01*
X205359343Y-193000057D01*
D10*
D11*
X177002200Y-194507200D02*
X285002200Y-194507200D01*
D10*
D11*
X178359343Y-196585771D02*
X178359343Y-195085771D01*
X179216486Y-196585771D02*
X178573629Y-195728629D01*
X179216486Y-195085771D02*
X178359343Y-195942914D01*
X179859343Y-196585771D02*
X179859343Y-195585771D01*
X179859343Y-195085771D02*
X179787914Y-195157200D01*
X179859343Y-195228629D01*
X179930771Y-195157200D01*
X179859343Y-195085771D01*
X179859343Y-195228629D01*
X181430772Y-196442914D02*
X181359343Y-196514343D01*
X181145057Y-196585771D01*
X181002200Y-196585771D01*
X180787915Y-196514343D01*
X180645057Y-196371486D01*
X180573629Y-196228629D01*
X180502200Y-195942914D01*
X180502200Y-195728629D01*
X180573629Y-195442914D01*
X180645057Y-195300057D01*
X180787915Y-195157200D01*
X181002200Y-195085771D01*
X181145057Y-195085771D01*
X181359343Y-195157200D01*
X181430772Y-195228629D01*
X182716486Y-196585771D02*
X182716486Y-195800057D01*
X182645057Y-195657200D01*
X182502200Y-195585771D01*
X182216486Y-195585771D01*
X182073629Y-195657200D01*
X182716486Y-196514343D02*
X182573629Y-196585771D01*
X182216486Y-196585771D01*
X182073629Y-196514343D01*
X182002200Y-196371486D01*
X182002200Y-196228629D01*
X182073629Y-196085771D01*
X182216486Y-196014343D01*
X182573629Y-196014343D01*
X182716486Y-195942914D01*
X184073629Y-196585771D02*
X184073629Y-195085771D01*
X184073629Y-196514343D02*
X183930772Y-196585771D01*
X183645058Y-196585771D01*
X183502200Y-196514343D01*
X183430772Y-196442914D01*
X183359343Y-196300057D01*
X183359343Y-195871486D01*
X183430772Y-195728629D01*
X183502200Y-195657200D01*
X183645058Y-195585771D01*
X183930772Y-195585771D01*
X184073629Y-195657200D01*
X185930772Y-195800057D02*
X186430772Y-195800057D01*
X186645058Y-196585771D02*
X185930772Y-196585771D01*
X185930772Y-195085771D01*
X186645058Y-195085771D01*
X187287915Y-196442914D02*
X187359343Y-196514343D01*
X187287915Y-196585771D01*
X187216486Y-196514343D01*
X187287915Y-196442914D01*
X187287915Y-196585771D01*
X188002201Y-196585771D02*
X188002201Y-195085771D01*
X188359344Y-195085771D01*
X188573629Y-195157200D01*
X188716487Y-195300057D01*
X188787915Y-195442914D01*
X188859344Y-195728629D01*
X188859344Y-195942914D01*
X188787915Y-196228629D01*
X188716487Y-196371486D01*
X188573629Y-196514343D01*
X188359344Y-196585771D01*
X188002201Y-196585771D01*
X189502201Y-196442914D02*
X189573629Y-196514343D01*
X189502201Y-196585771D01*
X189430772Y-196514343D01*
X189502201Y-196442914D01*
X189502201Y-196585771D01*
X190145058Y-196157200D02*
X190859344Y-196157200D01*
X190002201Y-196585771D02*
X190502201Y-195085771D01*
X191002201Y-196585771D01*
X191502201Y-196442914D02*
X191573629Y-196514343D01*
X191502201Y-196585771D01*
X191430772Y-196514343D01*
X191502201Y-196442914D01*
X191502201Y-196585771D01*
X194502201Y-196585771D02*
X194502201Y-195085771D01*
X194645058Y-196014343D02*
X195073629Y-196585771D01*
X195073629Y-195585771D02*
X194502201Y-196157200D01*
X195716487Y-196585771D02*
X195716487Y-195585771D01*
X195716487Y-195085771D02*
X195645058Y-195157200D01*
X195716487Y-195228629D01*
X195787915Y-195157200D01*
X195716487Y-195085771D01*
X195716487Y-195228629D01*
X197073630Y-196514343D02*
X196930773Y-196585771D01*
X196645059Y-196585771D01*
X196502201Y-196514343D01*
X196430773Y-196442914D01*
X196359344Y-196300057D01*
X196359344Y-195871486D01*
X196430773Y-195728629D01*
X196502201Y-195657200D01*
X196645059Y-195585771D01*
X196930773Y-195585771D01*
X197073630Y-195657200D01*
X198359344Y-196585771D02*
X198359344Y-195800057D01*
X198287915Y-195657200D01*
X198145058Y-195585771D01*
X197859344Y-195585771D01*
X197716487Y-195657200D01*
X198359344Y-196514343D02*
X198216487Y-196585771D01*
X197859344Y-196585771D01*
X197716487Y-196514343D01*
X197645058Y-196371486D01*
X197645058Y-196228629D01*
X197716487Y-196085771D01*
X197859344Y-196014343D01*
X198216487Y-196014343D01*
X198359344Y-195942914D01*
X199716487Y-196585771D02*
X199716487Y-195085771D01*
X199716487Y-196514343D02*
X199573630Y-196585771D01*
X199287916Y-196585771D01*
X199145058Y-196514343D01*
X199073630Y-196442914D01*
X199002201Y-196300057D01*
X199002201Y-195871486D01*
X199073630Y-195728629D01*
X199145058Y-195657200D01*
X199287916Y-195585771D01*
X199573630Y-195585771D01*
X199716487Y-195657200D01*
X202216487Y-195585771D02*
X202216487Y-196585771D01*
X201859344Y-195014343D02*
X201502201Y-196085771D01*
X202430773Y-196085771D01*
X203002201Y-196442914D02*
X203073629Y-196514343D01*
X203002201Y-196585771D01*
X202930772Y-196514343D01*
X203002201Y-196442914D01*
X203002201Y-196585771D01*
X204002201Y-195085771D02*
X204145058Y-195085771D01*
X204287915Y-195157200D01*
X204359344Y-195228629D01*
X204430773Y-195371486D01*
X204502201Y-195657200D01*
X204502201Y-196014343D01*
X204430773Y-196300057D01*
X204359344Y-196442914D01*
X204287915Y-196514343D01*
X204145058Y-196585771D01*
X204002201Y-196585771D01*
X203859344Y-196514343D01*
X203787915Y-196442914D01*
X203716487Y-196300057D01*
X203645058Y-196014343D01*
X203645058Y-195657200D01*
X203716487Y-195371486D01*
X203787915Y-195228629D01*
X203859344Y-195157200D01*
X204002201Y-195085771D01*
X205145058Y-196442914D02*
X205216486Y-196514343D01*
X205145058Y-196585771D01*
X205073629Y-196514343D01*
X205145058Y-196442914D01*
X205145058Y-196585771D01*
X206502201Y-195585771D02*
X206502201Y-196585771D01*
X206145058Y-195014343D02*
X205787915Y-196085771D01*
X206716487Y-196085771D01*
X207287915Y-196014343D02*
X208430772Y-196014343D01*
X209073629Y-196514343D02*
X209216486Y-196585771D01*
X209502201Y-196585771D01*
X209645058Y-196514343D01*
X209716486Y-196371486D01*
X209716486Y-196300057D01*
X209645058Y-196157200D01*
X209502201Y-196085771D01*
X209287915Y-196085771D01*
X209145058Y-196014343D01*
X209073629Y-195871486D01*
X209073629Y-195800057D01*
X209145058Y-195657200D01*
X209287915Y-195585771D01*
X209502201Y-195585771D01*
X209645058Y-195657200D01*
X210145058Y-195585771D02*
X210716487Y-195585771D01*
X210359344Y-195085771D02*
X210359344Y-196371486D01*
X210430772Y-196514343D01*
X210573630Y-196585771D01*
X210716487Y-196585771D01*
X211859344Y-196585771D02*
X211859344Y-195800057D01*
X211787915Y-195657200D01*
X211645058Y-195585771D01*
X211359344Y-195585771D01*
X211216487Y-195657200D01*
X211859344Y-196514343D02*
X211716487Y-196585771D01*
X211359344Y-196585771D01*
X211216487Y-196514343D01*
X211145058Y-196371486D01*
X211145058Y-196228629D01*
X211216487Y-196085771D01*
X211359344Y-196014343D01*
X211716487Y-196014343D01*
X211859344Y-195942914D01*
X212573630Y-196585771D02*
X212573630Y-195085771D01*
X212573630Y-195657200D02*
X212716487Y-195585771D01*
X213002201Y-195585771D01*
X213145058Y-195657200D01*
X213216487Y-195728629D01*
X213287916Y-195871486D01*
X213287916Y-196300057D01*
X213216487Y-196442914D01*
X213145058Y-196514343D01*
X213002201Y-196585771D01*
X212716487Y-196585771D01*
X212573630Y-196514343D01*
X214145059Y-196585771D02*
X214002201Y-196514343D01*
X213930773Y-196371486D01*
X213930773Y-195085771D01*
X215287915Y-196514343D02*
X215145058Y-196585771D01*
X214859344Y-196585771D01*
X214716487Y-196514343D01*
X214645058Y-196371486D01*
X214645058Y-195800057D01*
X214716487Y-195657200D01*
X214859344Y-195585771D01*
X215145058Y-195585771D01*
X215287915Y-195657200D01*
X215359344Y-195800057D01*
X215359344Y-195942914D01*
X214645058Y-196085771D01*
D10*
D11*
X177002200Y-191507200D02*
X285002200Y-191507200D01*
D10*
D12*
X264216486Y-193785771D02*
X263716486Y-193071486D01*
X263359343Y-193785771D02*
X263359343Y-192285771D01*
X263930771Y-192285771D01*
X264073629Y-192357200D01*
X264145057Y-192428629D01*
X264216486Y-192571486D01*
X264216486Y-192785771D01*
X264145057Y-192928629D01*
X264073629Y-193000057D01*
X263930771Y-193071486D01*
X263359343Y-193071486D01*
X265430771Y-193714343D02*
X265287914Y-193785771D01*
X265002200Y-193785771D01*
X264859343Y-193714343D01*
X264787914Y-193571486D01*
X264787914Y-193000057D01*
X264859343Y-192857200D01*
X265002200Y-192785771D01*
X265287914Y-192785771D01*
X265430771Y-192857200D01*
X265502200Y-193000057D01*
X265502200Y-193142914D01*
X264787914Y-193285771D01*
X266002200Y-192785771D02*
X266359343Y-193785771D01*
X266716485Y-192785771D01*
X267287914Y-193642914D02*
X267359342Y-193714343D01*
X267287914Y-193785771D01*
X267216485Y-193714343D01*
X267287914Y-193642914D01*
X267287914Y-193785771D01*
X267287914Y-192857200D02*
X267359342Y-192928629D01*
X267287914Y-193000057D01*
X267216485Y-192928629D01*
X267287914Y-192857200D01*
X267287914Y-193000057D01*
D10*
D11*
X178287914Y-193714343D02*
X178502200Y-193785771D01*
X178859343Y-193785771D01*
X179002200Y-193714343D01*
X179073629Y-193642914D01*
X179145057Y-193500057D01*
X179145057Y-193357200D01*
X179073629Y-193214343D01*
X179002200Y-193142914D01*
X178859343Y-193071486D01*
X178573629Y-193000057D01*
X178430771Y-192928629D01*
X178359343Y-192857200D01*
X178287914Y-192714343D01*
X178287914Y-192571486D01*
X178359343Y-192428629D01*
X178430771Y-192357200D01*
X178573629Y-192285771D01*
X178930771Y-192285771D01*
X179145057Y-192357200D01*
X179787914Y-193785771D02*
X179787914Y-192785771D01*
X179787914Y-192285771D02*
X179716485Y-192357200D01*
X179787914Y-192428629D01*
X179859342Y-192357200D01*
X179787914Y-192285771D01*
X179787914Y-192428629D01*
X180359343Y-192785771D02*
X181145057Y-192785771D01*
X180359343Y-193785771D01*
X181145057Y-193785771D01*
X182287914Y-193714343D02*
X182145057Y-193785771D01*
X181859343Y-193785771D01*
X181716486Y-193714343D01*
X181645057Y-193571486D01*
X181645057Y-193000057D01*
X181716486Y-192857200D01*
X181859343Y-192785771D01*
X182145057Y-192785771D01*
X182287914Y-192857200D01*
X182359343Y-193000057D01*
X182359343Y-193142914D01*
X181645057Y-193285771D01*
X183002200Y-193642914D02*
X183073628Y-193714343D01*
X183002200Y-193785771D01*
X182930771Y-193714343D01*
X183002200Y-193642914D01*
X183002200Y-193785771D01*
X183002200Y-192857200D02*
X183073628Y-192928629D01*
X183002200Y-193000057D01*
X182930771Y-192928629D01*
X183002200Y-192857200D01*
X183002200Y-193000057D01*
X184787914Y-193357200D02*
X185502200Y-193357200D01*
X184645057Y-193785771D02*
X185145057Y-192285771D01*
X185645057Y-193785771D01*
X186787914Y-192785771D02*
X186787914Y-193785771D01*
X186430771Y-192214343D02*
X186073628Y-193285771D01*
X187002200Y-193285771D01*
D10*
D11*
X263359343Y-196585771D02*
X263359343Y-195085771D01*
X264716486Y-196585771D02*
X264716486Y-195085771D01*
X264716486Y-196514343D02*
X264573629Y-196585771D01*
X264287915Y-196585771D01*
X264145057Y-196514343D01*
X264073629Y-196442914D01*
X264002200Y-196300057D01*
X264002200Y-195871486D01*
X264073629Y-195728629D01*
X264145057Y-195657200D01*
X264287915Y-195585771D01*
X264573629Y-195585771D01*
X264716486Y-195657200D01*
X265430772Y-196442914D02*
X265502200Y-196514343D01*
X265430772Y-196585771D01*
X265359343Y-196514343D01*
X265430772Y-196442914D01*
X265430772Y-196585771D01*
X265430772Y-195657200D02*
X265502200Y-195728629D01*
X265430772Y-195800057D01*
X265359343Y-195728629D01*
X265430772Y-195657200D01*
X265430772Y-195800057D01*
X268073629Y-196585771D02*
X267216486Y-196585771D01*
X267645058Y-196585771D02*
X267645058Y-195085771D01*
X267502201Y-195300057D01*
X267359343Y-195442914D01*
X267216486Y-195514343D01*
X269787914Y-195014343D02*
X268502200Y-196942914D01*
X271073629Y-196585771D02*
X270216486Y-196585771D01*
X270645058Y-196585771D02*
X270645058Y-195085771D01*
X270502201Y-195300057D01*
X270359343Y-195442914D01*
X270216486Y-195514343D01*
D10*
D11*
X177002200Y-187507200D02*
X285002200Y-187507200D01*
D10*
D13*
X178454581Y-188211962D02*
X179597438Y-188211962D01*
X178776010Y-190211962D02*
X179026010Y-188211962D01*
X180014105Y-190211962D02*
X180180771Y-188878629D01*
X180264105Y-188211962D02*
X180156962Y-188307200D01*
X180240295Y-188402438D01*
X180347439Y-188307200D01*
X180264105Y-188211962D01*
X180240295Y-188402438D01*
X180847438Y-188878629D02*
X181609343Y-188878629D01*
X181216486Y-188211962D02*
X181002200Y-189926248D01*
X181073630Y-190116724D01*
X181252201Y-190211962D01*
X181442677Y-190211962D01*
X182395058Y-190211962D02*
X182216487Y-190116724D01*
X182145057Y-189926248D01*
X182359343Y-188211962D01*
X183930772Y-190116724D02*
X183728391Y-190211962D01*
X183347439Y-190211962D01*
X183168867Y-190116724D01*
X183097438Y-189926248D01*
X183192676Y-189164343D01*
X183311724Y-188973867D01*
X183514105Y-188878629D01*
X183895057Y-188878629D01*
X184073629Y-188973867D01*
X184145057Y-189164343D01*
X184121248Y-189354819D01*
X183145057Y-189545295D01*
X184895057Y-190021486D02*
X184978392Y-190116724D01*
X184871248Y-190211962D01*
X184787915Y-190116724D01*
X184895057Y-190021486D01*
X184871248Y-190211962D01*
X185026010Y-188973867D02*
X185109344Y-189069105D01*
X185002200Y-189164343D01*
X184918867Y-189069105D01*
X185026010Y-188973867D01*
X185002200Y-189164343D01*
D10*
D11*
X178859343Y-185600057D02*
X178359343Y-185600057D01*
X178359343Y-186385771D02*
X178359343Y-184885771D01*
X179073629Y-184885771D01*
X179645057Y-186385771D02*
X179645057Y-185385771D01*
X179645057Y-184885771D02*
X179573628Y-184957200D01*
X179645057Y-185028629D01*
X179716485Y-184957200D01*
X179645057Y-184885771D01*
X179645057Y-185028629D01*
X180573629Y-186385771D02*
X180430771Y-186314343D01*
X180359343Y-186171486D01*
X180359343Y-184885771D01*
X181716485Y-186314343D02*
X181573628Y-186385771D01*
X181287914Y-186385771D01*
X181145057Y-186314343D01*
X181073628Y-186171486D01*
X181073628Y-185600057D01*
X181145057Y-185457200D01*
X181287914Y-185385771D01*
X181573628Y-185385771D01*
X181716485Y-185457200D01*
X181787914Y-185600057D01*
X181787914Y-185742914D01*
X181073628Y-185885771D01*
X182430771Y-186242914D02*
X182502199Y-186314343D01*
X182430771Y-186385771D01*
X182359342Y-186314343D01*
X182430771Y-186242914D01*
X182430771Y-186385771D01*
X182430771Y-185457200D02*
X182502199Y-185528629D01*
X182430771Y-185600057D01*
X182359342Y-185528629D01*
X182430771Y-185457200D01*
X182430771Y-185600057D01*
X184287914Y-186385771D02*
X184287914Y-184885771D01*
X184645057Y-184885771D01*
X184859342Y-184957200D01*
X185002200Y-185100057D01*
X185073628Y-185242914D01*
X185145057Y-185528629D01*
X185145057Y-185742914D01*
X185073628Y-186028629D01*
X185002200Y-186171486D01*
X184859342Y-186314343D01*
X184645057Y-186385771D01*
X184287914Y-186385771D01*
X186287914Y-185600057D02*
X185787914Y-185600057D01*
X185787914Y-186385771D02*
X185787914Y-184885771D01*
X186502200Y-184885771D01*
X186859342Y-184885771D02*
X187716485Y-184885771D01*
X187287914Y-186385771D02*
X187287914Y-184885771D01*
X188716485Y-185600057D02*
X188930771Y-185671486D01*
X189002199Y-185742914D01*
X189073628Y-185885771D01*
X189073628Y-186100057D01*
X189002199Y-186242914D01*
X188930771Y-186314343D01*
X188787913Y-186385771D01*
X188216485Y-186385771D01*
X188216485Y-184885771D01*
X188716485Y-184885771D01*
X188859342Y-184957200D01*
X188930771Y-185028629D01*
X189002199Y-185171486D01*
X189002199Y-185314343D01*
X188930771Y-185457200D01*
X188859342Y-185528629D01*
X188716485Y-185600057D01*
X188216485Y-185600057D01*
X189930771Y-186385771D02*
X189787913Y-186314343D01*
X189716485Y-186242914D01*
X189645056Y-186100057D01*
X189645056Y-185671486D01*
X189716485Y-185528629D01*
X189787913Y-185457200D01*
X189930771Y-185385771D01*
X190145056Y-185385771D01*
X190287913Y-185457200D01*
X190359342Y-185528629D01*
X190430771Y-185671486D01*
X190430771Y-186100057D01*
X190359342Y-186242914D01*
X190287913Y-186314343D01*
X190145056Y-186385771D01*
X189930771Y-186385771D01*
X191716485Y-186385771D02*
X191716485Y-185600057D01*
X191645056Y-185457200D01*
X191502199Y-185385771D01*
X191216485Y-185385771D01*
X191073628Y-185457200D01*
X191716485Y-186314343D02*
X191573628Y-186385771D01*
X191216485Y-186385771D01*
X191073628Y-186314343D01*
X191002199Y-186171486D01*
X191002199Y-186028629D01*
X191073628Y-185885771D01*
X191216485Y-185814343D01*
X191573628Y-185814343D01*
X191716485Y-185742914D01*
X192430771Y-186385771D02*
X192430771Y-185385771D01*
X192430771Y-185671486D02*
X192502199Y-185528629D01*
X192573628Y-185457200D01*
X192716485Y-185385771D01*
X192859342Y-185385771D01*
X194002199Y-186385771D02*
X194002199Y-184885771D01*
X194002199Y-186314343D02*
X193859342Y-186385771D01*
X193573628Y-186385771D01*
X193430770Y-186314343D01*
X193359342Y-186242914D01*
X193287913Y-186100057D01*
X193287913Y-185671486D01*
X193359342Y-185528629D01*
X193430770Y-185457200D01*
X193573628Y-185385771D01*
X193859342Y-185385771D01*
X194002199Y-185457200D01*
X194716485Y-186242914D02*
X194787913Y-186314343D01*
X194716485Y-186385771D01*
X194645056Y-186314343D01*
X194716485Y-186242914D01*
X194716485Y-186385771D01*
X195430771Y-186385771D02*
X195430771Y-184885771D01*
X195573628Y-185814343D02*
X196002199Y-186385771D01*
X196002199Y-185385771D02*
X195430771Y-185957200D01*
X196645057Y-186385771D02*
X196645057Y-185385771D01*
X196645057Y-184885771D02*
X196573628Y-184957200D01*
X196645057Y-185028629D01*
X196716485Y-184957200D01*
X196645057Y-184885771D01*
X196645057Y-185028629D01*
X198002200Y-186314343D02*
X197859343Y-186385771D01*
X197573629Y-186385771D01*
X197430771Y-186314343D01*
X197359343Y-186242914D01*
X197287914Y-186100057D01*
X197287914Y-185671486D01*
X197359343Y-185528629D01*
X197430771Y-185457200D01*
X197573629Y-185385771D01*
X197859343Y-185385771D01*
X198002200Y-185457200D01*
X199287914Y-186385771D02*
X199287914Y-185600057D01*
X199216485Y-185457200D01*
X199073628Y-185385771D01*
X198787914Y-185385771D01*
X198645057Y-185457200D01*
X199287914Y-186314343D02*
X199145057Y-186385771D01*
X198787914Y-186385771D01*
X198645057Y-186314343D01*
X198573628Y-186171486D01*
X198573628Y-186028629D01*
X198645057Y-185885771D01*
X198787914Y-185814343D01*
X199145057Y-185814343D01*
X199287914Y-185742914D01*
X200645057Y-186385771D02*
X200645057Y-184885771D01*
X200645057Y-186314343D02*
X200502200Y-186385771D01*
X200216486Y-186385771D01*
X200073628Y-186314343D01*
X200002200Y-186242914D01*
X199930771Y-186100057D01*
X199930771Y-185671486D01*
X200002200Y-185528629D01*
X200073628Y-185457200D01*
X200216486Y-185385771D01*
X200502200Y-185385771D01*
X200645057Y-185457200D01*
X201002200Y-186528629D02*
X202145057Y-186528629D01*
X202502200Y-185385771D02*
X202502200Y-186885771D01*
X202502200Y-185457200D02*
X202645057Y-185385771D01*
X202930771Y-185385771D01*
X203073628Y-185457200D01*
X203145057Y-185528629D01*
X203216486Y-185671486D01*
X203216486Y-186100057D01*
X203145057Y-186242914D01*
X203073628Y-186314343D01*
X202930771Y-186385771D01*
X202645057Y-186385771D01*
X202502200Y-186314343D01*
X204502200Y-186314343D02*
X204359343Y-186385771D01*
X204073629Y-186385771D01*
X203930771Y-186314343D01*
X203859343Y-186242914D01*
X203787914Y-186100057D01*
X203787914Y-185671486D01*
X203859343Y-185528629D01*
X203930771Y-185457200D01*
X204073629Y-185385771D01*
X204359343Y-185385771D01*
X204502200Y-185457200D01*
X205145057Y-186385771D02*
X205145057Y-184885771D01*
X205145057Y-185457200D02*
X205287914Y-185385771D01*
X205573628Y-185385771D01*
X205716485Y-185457200D01*
X205787914Y-185528629D01*
X205859343Y-185671486D01*
X205859343Y-186100057D01*
X205787914Y-186242914D01*
X205716485Y-186314343D01*
X205573628Y-186385771D01*
X205287914Y-186385771D01*
X205145057Y-186314343D01*
D10*
D11*
X177002200Y-181507200D02*
X285002200Y-181507200D01*
D10*
D11*
X178287914Y-183614343D02*
X178502200Y-183685771D01*
X178859343Y-183685771D01*
X179002200Y-183614343D01*
X179073629Y-183542914D01*
X179145057Y-183400057D01*
X179145057Y-183257200D01*
X179073629Y-183114343D01*
X179002200Y-183042914D01*
X178859343Y-182971486D01*
X178573629Y-182900057D01*
X178430771Y-182828629D01*
X178359343Y-182757200D01*
X178287914Y-182614343D01*
X178287914Y-182471486D01*
X178359343Y-182328629D01*
X178430771Y-182257200D01*
X178573629Y-182185771D01*
X178930771Y-182185771D01*
X179145057Y-182257200D01*
X179787914Y-183685771D02*
X179787914Y-182185771D01*
X180430771Y-183685771D02*
X180430771Y-182900057D01*
X180359342Y-182757200D01*
X180216485Y-182685771D01*
X180002200Y-182685771D01*
X179859342Y-182757200D01*
X179787914Y-182828629D01*
X181716485Y-183614343D02*
X181573628Y-183685771D01*
X181287914Y-183685771D01*
X181145057Y-183614343D01*
X181073628Y-183471486D01*
X181073628Y-182900057D01*
X181145057Y-182757200D01*
X181287914Y-182685771D01*
X181573628Y-182685771D01*
X181716485Y-182757200D01*
X181787914Y-182900057D01*
X181787914Y-183042914D01*
X181073628Y-183185771D01*
X183002199Y-183614343D02*
X182859342Y-183685771D01*
X182573628Y-183685771D01*
X182430771Y-183614343D01*
X182359342Y-183471486D01*
X182359342Y-182900057D01*
X182430771Y-182757200D01*
X182573628Y-182685771D01*
X182859342Y-182685771D01*
X183002199Y-182757200D01*
X183073628Y-182900057D01*
X183073628Y-183042914D01*
X182359342Y-183185771D01*
X183502199Y-182685771D02*
X184073628Y-182685771D01*
X183716485Y-182185771D02*
X183716485Y-183471486D01*
X183787913Y-183614343D01*
X183930771Y-183685771D01*
X184073628Y-183685771D01*
X184573628Y-183542914D02*
X184645056Y-183614343D01*
X184573628Y-183685771D01*
X184502199Y-183614343D01*
X184573628Y-183542914D01*
X184573628Y-183685771D01*
X184573628Y-182757200D02*
X184645056Y-182828629D01*
X184573628Y-182900057D01*
X184502199Y-182828629D01*
X184573628Y-182757200D01*
X184573628Y-182900057D01*
D10*
D11*
X197002200Y-191507200D02*
X197002200Y-194507200D01*
D10*
D11*
X261002200Y-191507200D02*
X261002200Y-198007200D01*
D14*
X126800000Y-123400000D03*
X125300000Y-123400000D03*
D15*
X180750000Y-131750000D03*
X180750000Y-136350000D03*
D16*
X127050000Y-144500000D03*
X121550000Y-144500000D03*
D17*
X127550000Y-127300000D03*
X127550000Y-125300000D03*
D18*
X184455000Y-127250000D03*
X183905000Y-127250000D03*
D19*
X229700000Y-151470000D03*
X229700000Y-150200000D03*
X229700000Y-148930000D03*
X229700000Y-147660000D03*
X235100000Y-147660000D03*
X235100000Y-148930000D03*
X235100000Y-150200000D03*
X235100000Y-151470000D03*
D20*
X176850000Y-107250000D03*
X175950000Y-107250000D03*
X172050000Y-109650000D03*
X172950000Y-109650000D03*
D21*
X180400000Y-107400000D03*
X180400000Y-106500000D03*
X269200000Y-112200000D03*
X269200000Y-113100000D03*
X269150000Y-108150000D03*
X269150000Y-109050000D03*
D20*
X239150000Y-135200000D03*
X240050000Y-135200000D03*
X147475000Y-124100000D03*
X148375000Y-124100000D03*
D21*
X206900000Y-107500000D03*
X206900000Y-106600000D03*
D20*
X179500000Y-126550000D03*
X178600000Y-126550000D03*
D21*
X129000000Y-140150000D03*
X129000000Y-139250000D03*
X126100000Y-121050000D03*
X126100000Y-121950000D03*
D22*
X130450000Y-134750000D03*
X128450000Y-134750000D03*
X125250000Y-132550000D03*
X127250000Y-132550000D03*
D23*
X179450000Y-103550000D03*
X178950000Y-103550000D03*
X178450000Y-103550000D03*
X177950000Y-103550000D03*
X176950000Y-103550000D03*
X177450000Y-103550000D03*
X176450000Y-103550000D03*
X175950000Y-103550000D03*
X175450000Y-103550000D03*
X174950000Y-103550000D03*
X179950000Y-103550000D03*
X180450000Y-103550000D03*
X180950000Y-103550000D03*
X181450000Y-103550000D03*
X181950000Y-103550000D03*
X182450000Y-103550000D03*
X182950000Y-103550000D03*
X183450000Y-103550000D03*
X183950000Y-103550000D03*
D24*
X180250000Y-148350000D03*
X178750000Y-148350000D03*
D20*
X252750000Y-127200000D03*
X253650000Y-127200000D03*
D21*
X245900000Y-124000000D03*
X245900000Y-124900000D03*
X223000000Y-116050000D03*
X223000000Y-115150000D03*
X223000000Y-120000000D03*
X223000000Y-119100000D03*
D20*
X136890376Y-152564666D03*
X137790376Y-152564666D03*
D21*
X237250000Y-111400000D03*
X237250000Y-112300000D03*
D25*
X244300000Y-125300000D03*
X244300000Y-123800000D03*
X242400000Y-125300000D03*
X242400000Y-123800000D03*
X245600000Y-116800000D03*
X245600000Y-118300000D03*
D26*
X226800000Y-130450000D03*
X226800000Y-131950000D03*
D16*
X245500000Y-130100000D03*
X251000000Y-130100000D03*
D26*
X188600000Y-131100000D03*
X188600000Y-129600000D03*
D22*
X187650000Y-133150000D03*
X189650000Y-133150000D03*
D17*
X186200000Y-124000000D03*
X186200000Y-126000000D03*
D27*
X183700000Y-129600000D03*
X186700000Y-129600000D03*
D28*
X137775000Y-150700000D03*
X134725000Y-150700000D03*
X142500000Y-150700000D03*
X145550000Y-150700000D03*
D26*
X224550000Y-116315254D03*
X224550000Y-114815254D03*
X224550000Y-120315254D03*
X224550000Y-118815254D03*
X214300000Y-111650000D03*
X214300000Y-113150000D03*
X214300000Y-114850000D03*
X214300000Y-116350000D03*
X221450000Y-116315254D03*
X221450000Y-114815254D03*
X221450000Y-120315254D03*
X221450000Y-118815254D03*
D22*
X207400000Y-112400000D03*
X209400000Y-112400000D03*
D29*
X233800000Y-139350000D03*
X233800000Y-138250000D03*
D30*
X211440000Y-131800000D03*
X211950000Y-131800000D03*
X214090000Y-130000000D03*
X214600000Y-130000000D03*
X211440000Y-137600000D03*
X211950000Y-137600000D03*
X214140000Y-140050000D03*
X214650000Y-140050000D03*
X216740000Y-133800000D03*
X217250000Y-133800000D03*
D31*
X232000000Y-128600000D03*
X233100000Y-128600000D03*
D29*
X234600000Y-132950000D03*
X234600000Y-131850000D03*
D26*
X224200000Y-138350000D03*
X224200000Y-136850000D03*
X244400000Y-139000000D03*
X244400000Y-140500000D03*
D32*
X265550000Y-112950000D03*
X265550000Y-111050000D03*
X267550000Y-112000000D03*
D30*
X211450000Y-134600000D03*
X211960000Y-134600000D03*
X216795000Y-141050000D03*
X217305000Y-141050000D03*
X214095000Y-132800000D03*
X214605000Y-132800000D03*
X217390000Y-132400000D03*
X217900000Y-132400000D03*
X211445000Y-139050000D03*
X211955000Y-139050000D03*
X214095000Y-135600000D03*
X214605000Y-135600000D03*
D32*
X265550000Y-108900000D03*
X265550000Y-107000000D03*
X267550000Y-107950000D03*
D33*
X241800000Y-121900000D03*
X241800000Y-120950000D03*
X241800000Y-120000000D03*
X244200000Y-120000000D03*
X244200000Y-121900000D03*
D34*
X134550000Y-128600000D03*
X132850000Y-128600000D03*
X134550000Y-126140000D03*
X132850000Y-126140000D03*
D15*
X170050000Y-136950000D03*
X170050000Y-141550000D03*
X191600000Y-144750000D03*
X191600000Y-149350000D03*
X170050000Y-144100000D03*
X170050000Y-148700000D03*
D35*
X245950000Y-140600000D03*
X245950000Y-138900000D03*
X241300000Y-135050000D03*
X241300000Y-133350000D03*
D36*
X176325000Y-127300000D03*
D37*
X174348880Y-127300000D03*
D36*
X172372760Y-127300000D03*
X172372760Y-121798360D03*
D37*
X174348880Y-121798360D03*
D36*
X176325000Y-121798360D03*
D38*
X131050000Y-142950000D03*
X131050000Y-141350000D03*
D31*
X242100000Y-107500000D03*
X241000000Y-107500000D03*
D26*
X188750000Y-119850000D03*
X188750000Y-121350000D03*
D14*
X188700000Y-118250000D03*
X190200000Y-118250000D03*
X188650000Y-116500000D03*
X190150000Y-116500000D03*
D26*
X187150000Y-119800000D03*
X187150000Y-121300000D03*
D17*
X186750000Y-118100000D03*
X186750000Y-116100000D03*
X191750000Y-125100000D03*
X191750000Y-123100000D03*
D39*
X183950000Y-121200000D03*
X183950000Y-118200000D03*
D14*
X168250000Y-103425000D03*
X166750000Y-103425000D03*
D26*
X171650000Y-106650000D03*
X171650000Y-108150000D03*
D14*
X246350000Y-110200000D03*
X247850000Y-110200000D03*
D40*
X261600000Y-106025000D03*
X261600000Y-106575000D03*
X256100000Y-106000000D03*
X256100000Y-106550000D03*
D26*
X244200000Y-109950000D03*
X244200000Y-111450000D03*
D14*
X244250000Y-113000000D03*
X245750000Y-113000000D03*
X224150000Y-140950000D03*
X225650000Y-140950000D03*
D29*
X233800000Y-141750000D03*
X233800000Y-140650000D03*
D31*
X234450000Y-136800000D03*
X235550000Y-136800000D03*
D14*
X236150000Y-130050000D03*
X234650000Y-130050000D03*
X240950000Y-143850000D03*
X242450000Y-143850000D03*
D31*
X234450000Y-128600000D03*
X235550000Y-128600000D03*
D14*
X225100000Y-128800000D03*
X226600000Y-128800000D03*
D31*
X232050000Y-136800000D03*
X233150000Y-136800000D03*
D26*
X228600000Y-131950000D03*
X228600000Y-130450000D03*
D31*
X229650000Y-136800000D03*
X230750000Y-136800000D03*
D14*
X242600000Y-139200000D03*
X241100000Y-139200000D03*
D29*
X234600000Y-135350000D03*
X234600000Y-134250000D03*
D14*
X228450000Y-128800000D03*
X229950000Y-128800000D03*
X227300000Y-140950000D03*
X228800000Y-140950000D03*
X239350000Y-141800000D03*
X237850000Y-141800000D03*
X231150000Y-145600000D03*
X232650000Y-145600000D03*
D31*
X237950000Y-136800000D03*
X236850000Y-136800000D03*
D14*
X238400000Y-130100000D03*
X239900000Y-130100000D03*
D26*
X226000000Y-136850000D03*
X226000000Y-138350000D03*
X241000000Y-140750000D03*
X241000000Y-142250000D03*
X226800000Y-133600000D03*
X226800000Y-135100000D03*
D29*
X224800000Y-134200000D03*
X224800000Y-135300000D03*
D31*
X239400000Y-146800000D03*
X240500000Y-146800000D03*
X236050000Y-145500000D03*
X237150000Y-145500000D03*
D26*
X233750000Y-114025000D03*
X233750000Y-112525000D03*
D31*
X235100000Y-115200000D03*
X236200000Y-115200000D03*
D39*
X187150000Y-138100000D03*
X187150000Y-135100000D03*
D41*
X189700000Y-137550000D03*
X192700000Y-137550000D03*
D26*
X197750000Y-129850000D03*
X197750000Y-131350000D03*
D22*
X191800000Y-133150000D03*
X193800000Y-133150000D03*
X191800000Y-135250000D03*
X193800000Y-135250000D03*
X191800000Y-131000000D03*
X193800000Y-131000000D03*
D14*
X201000000Y-128100000D03*
X199500000Y-128100000D03*
D22*
X205750000Y-118700000D03*
X207750000Y-118700000D03*
D14*
X198000000Y-128100000D03*
X196500000Y-128100000D03*
D17*
X197849390Y-113649974D03*
X197849390Y-115649974D03*
D14*
X193500000Y-128100000D03*
X195000000Y-128100000D03*
D26*
X197750000Y-134350000D03*
X197750000Y-132850000D03*
D14*
X192000000Y-128100000D03*
X190500000Y-128100000D03*
D26*
X197750000Y-126350000D03*
X197750000Y-124850000D03*
D14*
X202500000Y-128100000D03*
X204000000Y-128100000D03*
D26*
X197750000Y-123350000D03*
X197750000Y-121850000D03*
X188150000Y-126150000D03*
X188150000Y-124650000D03*
X208600000Y-134700000D03*
X208600000Y-133200000D03*
D14*
X207000000Y-128103571D03*
X205500000Y-128103571D03*
D22*
X205750000Y-116500000D03*
X207750000Y-116500000D03*
X197650000Y-111700000D03*
X199650000Y-111700000D03*
D27*
X200700000Y-136850000D03*
X197700000Y-136850000D03*
X184950000Y-140700000D03*
X187950000Y-140700000D03*
D26*
X242750000Y-142250000D03*
X242750000Y-140750000D03*
X228000000Y-136900000D03*
X228000000Y-138400000D03*
D30*
X211450000Y-141850000D03*
X211960000Y-141850000D03*
X216795000Y-138250000D03*
X217305000Y-138250000D03*
D21*
X233524514Y-118016066D03*
X233524514Y-117116066D03*
D42*
X222498360Y-126550000D03*
D43*
X222498360Y-124573880D03*
D42*
X222498360Y-122597760D03*
X228000000Y-122597760D03*
D43*
X228000000Y-124573880D03*
D42*
X228000000Y-126550000D03*
D36*
X151573880Y-139300000D03*
D37*
X153550000Y-139300000D03*
D36*
X155526120Y-139300000D03*
X155526120Y-144801640D03*
D37*
X153550000Y-144801640D03*
D36*
X151573880Y-144801640D03*
D27*
X192700000Y-140550000D03*
X189700000Y-140550000D03*
D44*
X144400000Y-153200000D03*
X144400000Y-152700000D03*
X144900000Y-153200000D03*
X144900000Y-152700000D03*
X144400000Y-153700000D03*
X144900000Y-153700000D03*
D29*
X239500000Y-137200000D03*
X239500000Y-138300000D03*
D45*
X252800000Y-122600000D03*
X252800000Y-123100000D03*
X252800000Y-123600000D03*
X252800000Y-124100000D03*
X252800000Y-124600000D03*
X252800000Y-125100000D03*
X252800000Y-125600000D03*
D46*
X251850000Y-126550000D03*
X251350000Y-126550000D03*
X250850000Y-126550000D03*
X250350000Y-126550000D03*
X249850000Y-126550000D03*
X249350000Y-126550000D03*
X248850000Y-126550000D03*
D45*
X247900000Y-125600000D03*
X247900000Y-125100000D03*
X247900000Y-124600000D03*
X247900000Y-124100000D03*
X247900000Y-123600000D03*
X247900000Y-123100000D03*
X247900000Y-122600000D03*
D46*
X248850000Y-121650000D03*
X249350000Y-121650000D03*
X249850000Y-121650000D03*
X250350000Y-121650000D03*
X250850000Y-121650000D03*
X251350000Y-121650000D03*
X251850000Y-121650000D03*
D47*
X249512500Y-124937500D03*
X249512500Y-123262500D03*
X251187500Y-124937500D03*
X251187500Y-123262500D03*
D14*
X126650000Y-134550000D03*
X125150000Y-134550000D03*
D26*
X125200000Y-130000000D03*
X125200000Y-128500000D03*
D31*
X127550000Y-121950000D03*
X128650000Y-121950000D03*
D40*
X121600000Y-147950000D03*
X121600000Y-147400000D03*
X127050000Y-147400000D03*
X127050000Y-147950000D03*
D20*
X124900000Y-125450000D03*
X125800000Y-125450000D03*
M02*
