G04 #@! TF.FileFunction,Soldermask,Bot*
%FSLAX46Y46*%
G04 Gerber Fmt 4.6, Leading zero omitted, Abs format (unit mm)*
G04 Created by KiCad (PCBNEW 4.0.4-stable) date 02/21/17 13:40:32*
%MOMM*%
%LPD*%
G01*
G04 APERTURE LIST*
%ADD10C,0.125000*%
%ADD11C,2.000000*%
%ADD12R,0.700000X2.300000*%
%ADD13C,2.540000*%
%ADD14R,1.000000X0.800000*%
%ADD15R,1.300000X1.200000*%
%ADD16C,4.400000*%
%ADD17C,3.400000*%
%ADD18R,1.000000X0.900000*%
%ADD19R,1.400000X1.650000*%
%ADD20R,5.900000X2.400000*%
%ADD21C,1.700000*%
%ADD22C,2.600000*%
%ADD23C,3.900000*%
%ADD24C,1.900000*%
%ADD25C,2.200000*%
%ADD26R,3.400000X1.400000*%
%ADD27C,1.924000*%
%ADD28R,1.950000X1.000000*%
%ADD29R,0.800000X1.000000*%
%ADD30R,0.900000X1.300000*%
%ADD31R,1.300000X0.900000*%
%ADD32R,1.150000X1.200000*%
%ADD33R,1.650000X1.400000*%
%ADD34R,1.400000X2.900000*%
%ADD35R,0.900000X1.000000*%
%ADD36R,1.400000X1.100000*%
%ADD37C,1.200000*%
%ADD38R,1.200000X1.000000*%
%ADD39R,2.099260X3.100020*%
%ADD40R,1.700480X3.100020*%
%ADD41R,1.200000X1.200000*%
%ADD42R,1.200000X1.150000*%
%ADD43R,2.900000X1.400000*%
%ADD44R,1.400000X2.000000*%
%ADD45R,3.100020X2.099260*%
%ADD46R,3.100020X1.700480*%
%ADD47C,1.600000*%
%ADD48O,1.250000X0.700000*%
%ADD49O,0.700000X1.250000*%
%ADD50R,2.075000X2.075000*%
%ADD51C,3.816000*%
%ADD52C,1.708000*%
G04 APERTURE END LIST*
D10*
D11*
X188000000Y-96500000D03*
X187400000Y-101450000D03*
X172300000Y-96500000D03*
X172900000Y-101450000D03*
D12*
X180400000Y-102450000D03*
X179900000Y-102450000D03*
X179400000Y-102450000D03*
X178900000Y-102450000D03*
X177900000Y-102450000D03*
X178400000Y-102450000D03*
X177400000Y-102450000D03*
X176900000Y-102450000D03*
X176400000Y-102450000D03*
X175900000Y-102450000D03*
X180900000Y-102450000D03*
X181400000Y-102450000D03*
X181900000Y-102450000D03*
X182400000Y-102450000D03*
X182900000Y-102450000D03*
X183400000Y-102450000D03*
X183900000Y-102450000D03*
X184400000Y-102450000D03*
X184900000Y-102450000D03*
D13*
X128000000Y-110000000D03*
X254000000Y-111000000D03*
X156000000Y-143000000D03*
D14*
X268050000Y-112000000D03*
X268050000Y-111100000D03*
D15*
X264450000Y-113150000D03*
X264450000Y-111250000D03*
X266450000Y-112200000D03*
D16*
X157000000Y-109950000D03*
D17*
X152250000Y-97250000D03*
X152250000Y-104870000D03*
X152250000Y-115030000D03*
X162160000Y-115030000D03*
X162160000Y-104870000D03*
X162160000Y-97250000D03*
D16*
X138090000Y-109950000D03*
D17*
X133340000Y-97250000D03*
X133340000Y-104870000D03*
X133340000Y-115030000D03*
X143250000Y-115030000D03*
X143250000Y-104870000D03*
X143250000Y-97250000D03*
D18*
X184400000Y-127200000D03*
X183300000Y-127200000D03*
D19*
X120600000Y-138850000D03*
X122600000Y-138850000D03*
D20*
X257050000Y-107450000D03*
X266550000Y-107450000D03*
X244450000Y-130150000D03*
X253950000Y-130150000D03*
D17*
X260345000Y-130300000D03*
X266025000Y-130300000D03*
X266025000Y-117160000D03*
X260345000Y-117160000D03*
D21*
X263315000Y-124730000D03*
X260695000Y-127230000D03*
X263315000Y-127230000D03*
X263315000Y-122730000D03*
X263315000Y-120230000D03*
X260695000Y-124730000D03*
X260695000Y-122730000D03*
X260695000Y-120230000D03*
D22*
X107500000Y-152500000D03*
D16*
X115000000Y-126250000D03*
D17*
X102300000Y-131000000D03*
X109920000Y-131000000D03*
X120080000Y-131000000D03*
X120080000Y-121090000D03*
X109920000Y-121090000D03*
X102300000Y-121090000D03*
D22*
X267500000Y-152500000D03*
X272500000Y-107000000D03*
X102500000Y-97500000D03*
D23*
X259750000Y-100250000D03*
D24*
X262900000Y-101500000D03*
X267900000Y-101500000D03*
X267900000Y-99000000D03*
X262900000Y-99000000D03*
X265400000Y-99000000D03*
D23*
X271050000Y-100250000D03*
D25*
X144410000Y-126520000D03*
X146950000Y-126520000D03*
X144410000Y-129060000D03*
X146950000Y-129060000D03*
X144410000Y-131600000D03*
X146950000Y-131600000D03*
X144410000Y-134140000D03*
X146950000Y-134140000D03*
X144410000Y-136680000D03*
X146950000Y-136680000D03*
X144410000Y-139220000D03*
X146950000Y-139220000D03*
X144410000Y-141760000D03*
X144410000Y-144300000D03*
X146950000Y-141760000D03*
X146950000Y-144300000D03*
D26*
X180750000Y-133900000D03*
X180750000Y-138500000D03*
D27*
X225000000Y-150540000D03*
X225000000Y-148000000D03*
X222460000Y-148000000D03*
X222460000Y-150540000D03*
X217380000Y-150540000D03*
X214840000Y-150540000D03*
X214840000Y-148000000D03*
X217380000Y-148000000D03*
X219920000Y-148000000D03*
X219920000Y-150540000D03*
X209000000Y-150540000D03*
X209000000Y-148000000D03*
X206460000Y-148000000D03*
X206460000Y-150540000D03*
X201380000Y-150540000D03*
X198840000Y-150540000D03*
X198840000Y-148000000D03*
X201380000Y-148000000D03*
X203920000Y-148000000D03*
X203920000Y-150540000D03*
D23*
X225250000Y-100250000D03*
D24*
X228400000Y-101500000D03*
X233400000Y-101500000D03*
X233400000Y-99000000D03*
X228400000Y-99000000D03*
X230900000Y-99000000D03*
D23*
X236550000Y-100250000D03*
D16*
X115000000Y-108500000D03*
D17*
X102300000Y-113250000D03*
X109920000Y-113250000D03*
X120080000Y-113250000D03*
X120080000Y-103340000D03*
X109920000Y-103340000D03*
X102300000Y-103340000D03*
D28*
X229700000Y-151470000D03*
X229700000Y-150200000D03*
X229700000Y-148930000D03*
X229700000Y-147660000D03*
X235100000Y-147660000D03*
X235100000Y-148930000D03*
X235100000Y-150200000D03*
X235100000Y-151470000D03*
D29*
X176850000Y-107250000D03*
X175950000Y-107250000D03*
X172050000Y-109650000D03*
X172950000Y-109650000D03*
D14*
X181400000Y-105400000D03*
X181400000Y-104500000D03*
D29*
X239150000Y-135200000D03*
X240050000Y-135200000D03*
X147475000Y-124100000D03*
X148375000Y-124100000D03*
D14*
X206900000Y-107500000D03*
X206900000Y-106600000D03*
D29*
X179500000Y-126550000D03*
X178600000Y-126550000D03*
D14*
X129000000Y-140150000D03*
X129000000Y-139250000D03*
X131400000Y-125750000D03*
X131400000Y-124850000D03*
D19*
X125900000Y-141000000D03*
X123900000Y-141000000D03*
D30*
X180250000Y-148350000D03*
X178750000Y-148350000D03*
D23*
X207950000Y-100250000D03*
D24*
X211100000Y-101500000D03*
X216100000Y-101500000D03*
X216100000Y-99000000D03*
X211100000Y-99000000D03*
X213600000Y-99000000D03*
D23*
X219250000Y-100250000D03*
D14*
X245900000Y-124000000D03*
X245900000Y-124900000D03*
X223000000Y-116050000D03*
X223000000Y-115150000D03*
X223000000Y-120000000D03*
X223000000Y-119100000D03*
X107400000Y-139000000D03*
X107400000Y-139900000D03*
X237250000Y-111400000D03*
X237250000Y-112300000D03*
D31*
X244300000Y-125300000D03*
X244300000Y-123800000D03*
X242400000Y-125300000D03*
X242400000Y-123800000D03*
X245600000Y-116800000D03*
X245600000Y-118300000D03*
D32*
X226800000Y-130450000D03*
X226800000Y-131950000D03*
X200750000Y-130350000D03*
X200750000Y-128850000D03*
D19*
X196750000Y-128100000D03*
X198750000Y-128100000D03*
D33*
X188150000Y-126500000D03*
X188150000Y-124500000D03*
D34*
X185200000Y-129550000D03*
X188200000Y-129550000D03*
D32*
X224550000Y-116315254D03*
X224550000Y-114815254D03*
X224550000Y-120315254D03*
X224550000Y-118815254D03*
X214300000Y-111650000D03*
X214300000Y-113150000D03*
X214300000Y-114850000D03*
X214300000Y-116350000D03*
X221450000Y-116315254D03*
X221450000Y-114815254D03*
X221450000Y-120315254D03*
X221450000Y-118815254D03*
D19*
X207400000Y-112400000D03*
X209400000Y-112400000D03*
D27*
X243250000Y-150800000D03*
X245790000Y-150800000D03*
D35*
X233800000Y-139350000D03*
X233800000Y-138250000D03*
D18*
X232000000Y-128600000D03*
X233100000Y-128600000D03*
D35*
X234600000Y-132950000D03*
X234600000Y-131850000D03*
D32*
X224200000Y-138350000D03*
X224200000Y-136850000D03*
X244400000Y-139000000D03*
X244400000Y-140500000D03*
D15*
X257450000Y-113200000D03*
X257450000Y-111300000D03*
X259450000Y-112250000D03*
D36*
X241800000Y-121900000D03*
X241800000Y-120950000D03*
X241800000Y-120000000D03*
X244200000Y-120000000D03*
X244200000Y-121900000D03*
D37*
X128500000Y-130500000D03*
X130200000Y-130500000D03*
X128500000Y-132960000D03*
X130200000Y-132960000D03*
D26*
X170050000Y-142450000D03*
X170050000Y-147050000D03*
X191500000Y-143800000D03*
X191500000Y-148400000D03*
X170050000Y-134600000D03*
X170050000Y-139200000D03*
D27*
X229650000Y-112000000D03*
X227110000Y-112000000D03*
D38*
X246000000Y-143150000D03*
X246000000Y-141450000D03*
X241300000Y-135050000D03*
X241300000Y-133350000D03*
D39*
X176325000Y-127300000D03*
D40*
X174348880Y-127300000D03*
D39*
X172372760Y-127300000D03*
X172372760Y-121798360D03*
D40*
X174348880Y-121798360D03*
D39*
X176325000Y-121798360D03*
D41*
X131050000Y-142950000D03*
X131050000Y-141350000D03*
D18*
X242100000Y-107500000D03*
X241000000Y-107500000D03*
D32*
X188750000Y-119850000D03*
X188750000Y-121350000D03*
D42*
X188700000Y-118250000D03*
X190200000Y-118250000D03*
X188650000Y-116500000D03*
X190150000Y-116500000D03*
X192000000Y-121100000D03*
X190500000Y-121100000D03*
D33*
X186750000Y-118100000D03*
X186750000Y-116100000D03*
X191750000Y-125100000D03*
X191750000Y-123100000D03*
D34*
X186700000Y-121450000D03*
X183700000Y-121450000D03*
D42*
X168250000Y-103425000D03*
X166750000Y-103425000D03*
D32*
X171650000Y-106650000D03*
X171650000Y-108150000D03*
D42*
X246350000Y-110200000D03*
X247850000Y-110200000D03*
D32*
X244200000Y-109950000D03*
X244200000Y-111450000D03*
D42*
X244250000Y-113000000D03*
X245750000Y-113000000D03*
X224150000Y-140950000D03*
X225650000Y-140950000D03*
D35*
X233800000Y-141750000D03*
X233800000Y-140650000D03*
D18*
X234450000Y-136800000D03*
X235550000Y-136800000D03*
D32*
X243450000Y-145150000D03*
X243450000Y-143650000D03*
X228500000Y-135200000D03*
X228500000Y-133700000D03*
D18*
X234450000Y-128600000D03*
X235550000Y-128600000D03*
D42*
X225100000Y-128800000D03*
X226600000Y-128800000D03*
D18*
X232050000Y-136800000D03*
X233150000Y-136800000D03*
D32*
X228600000Y-131950000D03*
X228600000Y-130450000D03*
D18*
X229650000Y-136800000D03*
X230750000Y-136800000D03*
D42*
X242600000Y-139200000D03*
X241100000Y-139200000D03*
D35*
X223650000Y-129450000D03*
X223650000Y-128350000D03*
D42*
X228450000Y-128800000D03*
X229950000Y-128800000D03*
X227300000Y-140950000D03*
X228800000Y-140950000D03*
X237000000Y-141800000D03*
X238500000Y-141800000D03*
X231150000Y-145600000D03*
X232650000Y-145600000D03*
D18*
X237950000Y-136800000D03*
X236850000Y-136800000D03*
D42*
X238400000Y-130100000D03*
X239900000Y-130100000D03*
D32*
X226000000Y-136850000D03*
X226000000Y-138350000D03*
D42*
X224750000Y-143750000D03*
X226250000Y-143750000D03*
D32*
X226800000Y-133600000D03*
X226800000Y-135100000D03*
D35*
X234600000Y-135350000D03*
X234600000Y-134250000D03*
D18*
X238500000Y-143650000D03*
X239600000Y-143650000D03*
X236050000Y-145500000D03*
X237150000Y-145500000D03*
D32*
X233750000Y-114025000D03*
X233750000Y-112525000D03*
D18*
X235100000Y-115200000D03*
X236200000Y-115200000D03*
D19*
X127750000Y-128500000D03*
X129750000Y-128500000D03*
D43*
X187150000Y-138100000D03*
X187150000Y-135100000D03*
D44*
X189700000Y-137550000D03*
X192700000Y-137550000D03*
D32*
X197750000Y-129850000D03*
X197750000Y-131350000D03*
D19*
X191800000Y-133150000D03*
X193800000Y-133150000D03*
X191800000Y-135150000D03*
X193800000Y-135150000D03*
X191800000Y-131000000D03*
X193800000Y-131000000D03*
D32*
X199750000Y-123850000D03*
X199750000Y-125350000D03*
D19*
X205750000Y-118700000D03*
X207750000Y-118700000D03*
D32*
X195750000Y-124850000D03*
X195750000Y-126350000D03*
D33*
X197849390Y-113649974D03*
X197849390Y-115649974D03*
D42*
X193500000Y-128100000D03*
X195000000Y-128100000D03*
D32*
X199750000Y-132850000D03*
X199750000Y-134350000D03*
D42*
X192000000Y-128100000D03*
X190500000Y-128100000D03*
D32*
X197750000Y-126350000D03*
X197750000Y-124850000D03*
D42*
X202500000Y-128100000D03*
X204000000Y-128100000D03*
D32*
X197750000Y-123350000D03*
X197750000Y-121850000D03*
D42*
X195550000Y-134100000D03*
X197050000Y-134100000D03*
D32*
X208600000Y-134700000D03*
X208600000Y-133200000D03*
D42*
X207000000Y-128103571D03*
X205500000Y-128103571D03*
D19*
X205750000Y-116500000D03*
X207750000Y-116500000D03*
X200048810Y-141551092D03*
X198048810Y-141551092D03*
D34*
X200700000Y-136850000D03*
X197700000Y-136850000D03*
X184950000Y-140700000D03*
X187950000Y-140700000D03*
D42*
X227825669Y-143750000D03*
X229325669Y-143750000D03*
D32*
X228000000Y-136900000D03*
X228000000Y-138400000D03*
D14*
X233524514Y-118016066D03*
X233524514Y-117116066D03*
D45*
X222498360Y-126550000D03*
D46*
X222498360Y-124573880D03*
D45*
X222498360Y-122597760D03*
X228000000Y-122597760D03*
D46*
X228000000Y-124573880D03*
D45*
X228000000Y-126550000D03*
D39*
X161700000Y-134601640D03*
D40*
X159723880Y-134601640D03*
D39*
X157747760Y-134601640D03*
X157747760Y-129100000D03*
D40*
X159723880Y-129100000D03*
D39*
X161700000Y-129100000D03*
D34*
X192700000Y-140550000D03*
X189700000Y-140550000D03*
D47*
X195200000Y-96200000D03*
X201300000Y-96200000D03*
D24*
X196250000Y-100150000D03*
D25*
X198250000Y-99600000D03*
D24*
X200250000Y-100150000D03*
D35*
X239500000Y-137200000D03*
X239500000Y-138300000D03*
D23*
X242500000Y-100250000D03*
D24*
X245650000Y-101500000D03*
X250650000Y-101500000D03*
X250650000Y-99000000D03*
X245650000Y-99000000D03*
X248150000Y-99000000D03*
D23*
X253800000Y-100250000D03*
D48*
X252800000Y-122600000D03*
X252800000Y-123100000D03*
X252800000Y-123600000D03*
X252800000Y-124100000D03*
X252800000Y-124600000D03*
X252800000Y-125100000D03*
X252800000Y-125600000D03*
D49*
X251850000Y-126550000D03*
X251350000Y-126550000D03*
X250850000Y-126550000D03*
X250350000Y-126550000D03*
X249850000Y-126550000D03*
X249350000Y-126550000D03*
X248850000Y-126550000D03*
D48*
X247900000Y-125600000D03*
X247900000Y-125100000D03*
X247900000Y-124600000D03*
X247900000Y-124100000D03*
X247900000Y-123600000D03*
X247900000Y-123100000D03*
X247900000Y-122600000D03*
D49*
X248850000Y-121650000D03*
X249350000Y-121650000D03*
X249850000Y-121650000D03*
X250350000Y-121650000D03*
X250850000Y-121650000D03*
X251350000Y-121650000D03*
X251850000Y-121650000D03*
D50*
X249512500Y-124937500D03*
X249512500Y-123262500D03*
X251187500Y-124937500D03*
X251187500Y-123262500D03*
D42*
X122700000Y-136800000D03*
X121200000Y-136800000D03*
X125800000Y-138700000D03*
X124300000Y-138700000D03*
D35*
X131400000Y-127050000D03*
X131400000Y-128150000D03*
D51*
X272675000Y-136500000D03*
X272675000Y-148540000D03*
D52*
X267965000Y-143770000D03*
X267965000Y-141270000D03*
X269965000Y-141270000D03*
X269965000Y-143770000D03*
X265965000Y-138270000D03*
X265965000Y-140020000D03*
X265965000Y-142520000D03*
X265965000Y-145020000D03*
X265965000Y-146770000D03*
D51*
X102700000Y-149040000D03*
X102700000Y-137000000D03*
D52*
X107410000Y-141770000D03*
X107410000Y-144270000D03*
X105410000Y-144270000D03*
X105410000Y-141770000D03*
X109410000Y-147270000D03*
X109410000Y-145520000D03*
X109410000Y-143020000D03*
X109410000Y-140520000D03*
X109410000Y-138770000D03*
D27*
X241250000Y-127050000D03*
X238710000Y-127050000D03*
D29*
X216600000Y-139650000D03*
X217500000Y-139650000D03*
X213945000Y-138650000D03*
X214845000Y-138650000D03*
X213900000Y-135600000D03*
X214800000Y-135600000D03*
X213900000Y-132800000D03*
X214800000Y-132800000D03*
X211250000Y-140450000D03*
X212150000Y-140450000D03*
X211255000Y-134600000D03*
X212155000Y-134600000D03*
X216550000Y-131000000D03*
X217450000Y-131000000D03*
X216545000Y-133800000D03*
X217445000Y-133800000D03*
X213945000Y-141450000D03*
X214845000Y-141450000D03*
X211245000Y-137600000D03*
X212145000Y-137600000D03*
X213895000Y-130000000D03*
X214795000Y-130000000D03*
X211245000Y-131800000D03*
X212145000Y-131800000D03*
M02*
