M48
;DRILL file {KiCad 4.0.4-stable} date 02/16/17 12:58:35
;FORMAT={-:-/ absolute / metric / decimal}
FMAT,2
METRIC,TZ
T1C0.250
T2C0.500
T3C0.762
T4C0.800
T5C0.920
T6C1.000
T7C1.100
T8C1.200
T9C1.300
T10C1.400
T11C2.080
T12C2.300
T13C2.400
T14C3.000
T15C3.250
%
G90
G05
M71
T1
X107.4Y-139.
X110.5Y-133.85
X112.4Y-132.1
X113.3Y-135.1
X115.Y-125.9
X115.1Y-147.875
X115.8Y-109.
X115.8Y-110.5
X116.5Y-117.75
X116.8Y-107.2
X116.9Y-125.85
X119.8Y-119.25
X119.8Y-120.75
X119.9Y-111.55
X119.9Y-144.85
X120.25Y-108.9
X120.5Y-104.9
X120.5Y-106.9
X120.6Y-138.85
X121.2Y-136.8
X121.4Y-117.1
X121.75Y-128.15
X122.6Y-138.85
X122.7Y-136.8
X123.4Y-117.1
X123.8Y-134.85
X123.9Y-141.
X124.3Y-139.05
X125.8Y-139.05
X125.855Y-136.494
X125.893Y-118.432
X125.9Y-128.7
X125.9Y-130.
X125.9Y-130.65
X125.9Y-131.3
X125.9Y-131.95
X125.9Y-133.9
X125.9Y-134.55
X125.9Y-135.2
X125.9Y-135.85
X125.9Y-137.15
X125.9Y-141.
X126.2Y-123.95
X127.Y-145.5
X127.3Y-123.95
X127.55Y-126.35
X127.6Y-151.3
X128.5Y-132.96
X128.65Y-126.35
X128.95Y-118.5
X129.Y-140.15
X129.Y-142.25
X129.35Y-147.8
X130.Y-126.5
X130.2Y-132.96
X130.55Y-114.
X130.85Y-139.25
X131.Y-141.3
X131.05Y-144.15
X131.05Y-145.05
X131.4Y-124.85
X131.4Y-125.75
X132.375Y-105.125
X133.1Y-129.35
X133.1Y-130.
X133.1Y-130.65
X133.1Y-131.3
X133.1Y-131.95
X133.1Y-132.6
X133.1Y-133.9
X133.1Y-134.55
X133.1Y-135.2
X133.1Y-135.85
X133.1Y-137.15
X133.204Y-128.56
X133.6Y-114.
X133.8Y-144.8
X134.375Y-105.125
X134.7Y-121.9
X134.7Y-122.8
X134.75Y-124.5
X134.8Y-141.55
X135.35Y-130.9
X135.4Y-146.8
X135.4Y-147.4
X135.4Y-148.
X135.8Y-144.8
X136.Y-146.8
X136.Y-147.4
X136.Y-148.
X136.3Y-119.65
X136.551Y-121.797
X136.6Y-146.8
X136.6Y-147.4
X136.6Y-148.
X136.75Y-124.5
X136.89Y-152.565
X137.2Y-146.8
X137.2Y-147.4
X137.2Y-148.
X137.3Y-127.7
X137.3Y-129.7
X137.325Y-106.525
X137.325Y-107.425
X137.75Y-102.1
X137.75Y-103.6
X137.775Y-150.7
X138.051Y-121.797
X138.3Y-119.65
X138.9Y-146.8
X138.9Y-147.4
X138.9Y-148.
X139.4Y-136.45
X139.5Y-146.8
X139.5Y-147.4
X139.5Y-148.
X140.1Y-146.8
X140.1Y-147.4
X140.1Y-148.
X140.7Y-146.8
X140.7Y-147.4
X140.7Y-148.
X140.95Y-127.85
X141.7Y-98.65
X142.5Y-150.7
X142.8Y-146.8
X142.8Y-147.4
X143.Y-152.8
X143.4Y-146.8
X143.4Y-147.4
X143.4Y-148.
X143.4Y-153.2
X143.6Y-152.5
X143.9Y-114.775
X144.Y-146.8
X144.Y-147.4
X144.Y-148.
X144.6Y-146.8
X144.6Y-147.4
X144.6Y-148.
X144.65Y-117.075
X145.2Y-146.8
X145.2Y-147.4
X145.4Y-153.7
X145.6Y-153.
X148.375Y-124.1
X149.35Y-117.225
X150.45Y-114.625
X151.574Y-139.3
X151.574Y-144.802
X152.Y-124.05
X152.Y-125.95
X152.Y-131.2
X152.45Y-114.625
X153.55Y-139.3
X153.55Y-144.802
X153.6Y-131.2
X154.Y-125.
X155.526Y-139.3
X155.526Y-144.802
X158.35Y-119.8
X158.5Y-106.4
X159.95Y-124.85
X165.4Y-121.4
X165.4Y-126.15
X166.55Y-121.4
X166.75Y-103.425
X168.25Y-103.425
X168.875Y-112.025
X169.15Y-137.
X169.15Y-144.2
X169.7Y-107.49
X169.7Y-108.14
X169.7Y-108.79
X169.7Y-109.44
X169.775Y-112.025
X171.5Y-112.15
X171.65Y-106.65
X171.65Y-108.15
X172.05Y-109.65
X172.373Y-127.3
X172.4Y-112.15
X173.8Y-138.8
X173.95Y-99.1
X174.Y-97.6
X174.Y-107.49
X174.Y-109.44
X174.349Y-127.3
X174.35Y-132.85
X174.65Y-101.25
X175.55Y-101.25
X175.95Y-103.55
X176.325Y-127.3
X176.45Y-105.3
X176.65Y-131.1
X176.7Y-148.4
X176.7Y-149.4
X176.75Y-144.7
X176.95Y-100.05
X176.95Y-100.95
X176.95Y-105.65
X177.1Y-124.05
X177.45Y-105.
X177.609Y-147.883
X177.609Y-148.883
X177.65Y-107.25
X177.8Y-131.85
X177.8Y-132.8
X177.8Y-133.75
X177.85Y-121.4
X177.95Y-103.55
X178.05Y-146.95
X178.45Y-105.15
X178.5Y-128.45
X178.509Y-150.283
X178.6Y-126.55
X178.69Y-150.86
X178.7Y-145.4
X179.Y-101.2
X179.25Y-124.3
X179.5Y-106.05
X179.5Y-126.55
X179.5Y-145.5
X179.5Y-146.35
X179.509Y-148.383
X179.509Y-150.783
X179.95Y-103.55
X180.Y-131.85
X180.Y-133.75
X180.329Y-147.083
X180.329Y-149.683
X180.4Y-107.4
X180.75Y-124.3
X180.75Y-136.35
X180.809Y-149.203
X180.95Y-103.55
X181.55Y-147.883
X181.65Y-105.
X181.65Y-149.25
X181.95Y-133.05
X181.95Y-135.05
X182.25Y-151.7
X182.6Y-101.2
X182.9Y-104.95
X182.95Y-103.55
X183.382Y-127.205
X183.4Y-148.4
X183.45Y-145.75
X183.7Y-129.6
X183.75Y-151.7
X183.95Y-103.55
X183.95Y-107.
X183.95Y-118.2
X183.95Y-121.2
X184.161Y-133.111
X184.161Y-135.111
X184.376Y-127.205
X184.75Y-124.15
X184.95Y-140.7
X185.Y-144.1
X185.Y-145.8
X185.Y-147.4
X186.1Y-132.
X186.1Y-133.455
X186.2Y-124.
X186.2Y-126.
X186.35Y-136.75
X186.5Y-144.1
X186.5Y-145.8
X186.5Y-147.4
X186.7Y-129.6
X186.75Y-116.1
X186.75Y-118.1
X186.9Y-149.25
X186.95Y-121.15
X187.Y-105.85
X187.15Y-119.8
X187.15Y-135.1
X187.15Y-138.1
X187.65Y-133.15
X187.85Y-136.75
X187.9Y-122.2
X187.95Y-140.7
X188.139Y-126.195
X188.15Y-124.65
X188.6Y-129.6
X188.6Y-131.1
X188.65Y-116.5
X188.65Y-144.8
X188.65Y-145.75
X188.65Y-146.7
X188.7Y-118.25
X188.75Y-120.1
X188.8Y-121.4
X188.8Y-122.15
X188.9Y-149.25
X189.65Y-133.15
X189.7Y-137.55
X189.7Y-140.55
X189.75Y-120.1
X189.75Y-121.1
X189.75Y-122.1
X189.75Y-124.1
X189.75Y-125.1
X189.75Y-126.1
X189.75Y-127.1
X189.75Y-130.1
X189.75Y-131.1
X189.75Y-134.1
X189.75Y-135.1
X189.75Y-136.1
X190.036Y-116.445
X190.2Y-118.25
X190.4Y-151.95
X190.7Y-109.6
X190.75Y-120.1
X190.75Y-121.1
X190.75Y-122.1
X190.75Y-123.1
X190.75Y-124.1
X190.75Y-126.1
X190.75Y-127.1
X190.75Y-128.1
X190.75Y-129.1
X190.75Y-130.1
X190.75Y-131.1
X190.75Y-132.1
X190.75Y-134.1
X190.75Y-135.1
X190.75Y-136.1
X190.85Y-144.8
X190.85Y-146.7
X191.25Y-137.95
X191.25Y-139.45
X191.5Y-110.3
X191.6Y-149.35
X191.75Y-120.1
X191.75Y-121.1
X191.75Y-122.1
X191.75Y-123.1
X191.75Y-125.1
X191.75Y-126.1
X191.75Y-127.1
X191.75Y-128.1
X191.75Y-129.1
X191.75Y-131.1
X191.75Y-132.1
X191.75Y-133.1
X191.75Y-135.1
X192.4Y-151.95
X192.7Y-140.55
X192.75Y-120.1
X192.75Y-121.1
X192.75Y-122.1
X192.75Y-123.1
X192.75Y-124.1
X192.75Y-125.1
X192.75Y-126.1
X192.75Y-127.1
X192.75Y-129.1
X192.75Y-130.1
X192.75Y-131.1
X192.75Y-132.1
X192.75Y-133.1
X192.75Y-134.1
X192.75Y-135.1
X192.8Y-137.55
X192.8Y-146.1
X192.8Y-148.1
X193.25Y-100.65
X193.25Y-142.7
X193.7Y-128.1
X193.75Y-120.1
X193.75Y-121.1
X193.75Y-122.1
X193.75Y-123.1
X193.75Y-124.1
X193.75Y-125.1
X193.75Y-126.1
X193.75Y-127.1
X193.75Y-129.1
X193.75Y-131.1
X193.75Y-133.1
X193.75Y-134.1
X193.75Y-135.1
X193.75Y-136.195
X194.2Y-138.8
X194.2Y-139.85
X194.25Y-140.75
X194.75Y-120.1
X194.75Y-121.1
X194.75Y-122.1
X194.75Y-123.1
X194.75Y-124.1
X194.75Y-125.1
X194.75Y-126.1
X194.75Y-127.1
X194.75Y-128.1
X194.75Y-129.1
X194.75Y-130.1
X194.75Y-131.1
X194.75Y-132.1
X194.75Y-133.1
X194.75Y-134.1
X194.75Y-135.1
X194.75Y-136.1
X195.75Y-120.1
X195.75Y-121.1
X195.75Y-122.1
X195.75Y-123.1
X195.75Y-124.1
X195.75Y-125.1
X195.75Y-126.1
X195.75Y-127.1
X195.75Y-129.1
X195.75Y-130.1
X195.75Y-131.1
X195.75Y-132.1
X195.75Y-133.1
X195.75Y-134.1
X195.75Y-135.1
X196.Y-96.9
X196.7Y-128.1
X196.75Y-122.1
X196.75Y-123.1
X196.75Y-124.1
X196.75Y-125.1
X196.75Y-126.1
X196.75Y-127.1
X196.75Y-129.1
X196.75Y-130.1
X196.75Y-131.1
X196.75Y-132.1
X196.75Y-133.1
X196.75Y-134.1
X196.75Y-135.1
X197.3Y-144.3
X197.55Y-136.85
X197.65Y-111.7
X197.75Y-120.1
X197.75Y-121.1
X197.75Y-122.1
X197.75Y-123.1
X197.75Y-125.1
X197.75Y-126.1
X197.75Y-130.1
X197.75Y-131.1
X197.75Y-133.1
X197.75Y-134.1
X197.8Y-128.1
X197.8Y-139.5
X197.849Y-113.65
X197.849Y-115.65
X197.9Y-96.9
X198.75Y-120.1
X198.75Y-121.1
X198.75Y-122.1
X198.75Y-123.1
X198.75Y-124.1
X198.75Y-125.1
X198.75Y-126.1
X198.75Y-127.1
X198.75Y-129.1
X198.75Y-130.1
X198.75Y-131.1
X198.75Y-132.1
X198.75Y-133.1
X198.75Y-134.1
X198.75Y-135.1
X198.75Y-136.1
X199.3Y-139.5
X199.65Y-111.7
X199.75Y-120.1
X199.75Y-121.1
X199.75Y-122.1
X199.75Y-123.1
X199.75Y-124.1
X199.75Y-125.1
X199.75Y-126.1
X199.75Y-127.1
X199.75Y-128.1
X199.75Y-129.1
X199.75Y-130.1
X199.75Y-131.1
X199.75Y-132.1
X199.75Y-133.1
X199.75Y-134.1
X199.75Y-135.1
X199.75Y-136.1
X200.05Y-138.65
X200.75Y-120.1
X200.75Y-121.1
X200.75Y-122.1
X200.75Y-124.1
X200.75Y-125.1
X200.75Y-126.1
X200.75Y-128.1
X200.75Y-129.1
X200.75Y-130.1
X200.75Y-131.1
X200.75Y-132.1
X200.75Y-133.1
X200.75Y-134.1
X200.75Y-135.1
X200.75Y-136.1
X201.4Y-108.3
X201.75Y-120.1
X201.75Y-121.1
X201.75Y-122.1
X201.75Y-123.1
X201.75Y-124.1
X201.75Y-125.1
X201.75Y-126.1
X201.75Y-127.1
X201.75Y-129.1
X201.75Y-130.1
X201.75Y-131.1
X201.75Y-132.1
X201.75Y-133.1
X201.75Y-134.1
X201.75Y-135.1
X201.75Y-136.2
X201.8Y-137.95
X202.003Y-138.603
X202.4Y-106.9
X202.65Y-110.9
X202.75Y-120.1
X202.75Y-121.1
X202.75Y-122.1
X202.75Y-123.1
X202.75Y-124.1
X202.75Y-125.1
X202.75Y-126.1
X202.75Y-127.1
X202.75Y-128.1
X202.75Y-129.1
X202.75Y-130.1
X202.75Y-131.1
X202.75Y-132.1
X202.75Y-133.1
X202.75Y-134.1
X202.75Y-135.1
X202.75Y-140.45
X203.3Y-138.05
X203.4Y-108.3
X203.6Y-110.9
X203.75Y-120.1
X203.75Y-121.1
X203.75Y-122.1
X203.75Y-123.1
X203.75Y-124.1
X203.75Y-125.1
X203.75Y-126.1
X203.75Y-128.1
X203.75Y-129.1
X203.75Y-130.1
X203.75Y-131.1
X203.75Y-132.1
X203.75Y-133.1
X203.75Y-134.1
X203.75Y-135.1
X203.75Y-136.1
X204.749Y-126.1
X204.749Y-135.1
X204.75Y-120.1
X204.75Y-121.1
X204.75Y-122.1
X204.75Y-123.1
X204.75Y-124.1
X204.75Y-125.1
X204.75Y-127.1
X204.75Y-129.1
X204.75Y-130.1
X204.75Y-131.1
X204.75Y-132.1
X204.75Y-133.1
X204.75Y-134.1
X204.75Y-136.1
X205.3Y-107.5
X205.3Y-108.3
X205.3Y-109.1
X205.4Y-105.25
X205.4Y-106.15
X205.75Y-116.405
X205.75Y-118.7
X205.75Y-120.1
X205.75Y-123.1
X205.75Y-124.1
X205.75Y-125.1
X205.75Y-126.1
X205.75Y-127.1
X205.75Y-129.1
X205.75Y-130.1
X205.75Y-131.1
X205.75Y-132.1
X205.75Y-133.1
X205.75Y-134.1
X205.75Y-135.1
X205.75Y-136.1
X205.77Y-128.104
X206.1Y-109.1
X206.55Y-103.1
X206.75Y-128.1
X206.9Y-105.9
X206.9Y-107.5
X206.9Y-109.1
X207.4Y-112.4
X207.7Y-107.5
X207.7Y-109.1
X207.75Y-118.7
X207.779Y-116.405
X208.35Y-129.1
X208.5Y-107.5
X208.5Y-108.3
X208.5Y-109.1
X208.6Y-133.3
X208.6Y-134.6
X208.85Y-130.1
X209.242Y-103.155
X209.25Y-104.6
X209.4Y-112.4
X210.142Y-103.155
X210.25Y-108.3
X210.65Y-130.4
X210.65Y-131.8
X210.65Y-133.2
X210.65Y-134.6
X210.65Y-136.
X210.65Y-137.6
X210.65Y-139.05
X210.65Y-140.45
X210.65Y-141.85
X211.65Y-111.6
X211.65Y-112.4
X211.65Y-113.2
X211.65Y-114.
X211.65Y-114.8
X211.65Y-115.6
X211.65Y-118.8
X211.65Y-122.
X211.656Y-117.205
X211.668Y-116.405
X211.709Y-123.595
X211.75Y-108.3
X212.4Y-129.1
X212.45Y-112.4
X212.45Y-113.2
X212.45Y-114.
X212.45Y-115.6
X212.45Y-117.2
X212.45Y-119.6
X212.45Y-120.4
X212.45Y-121.2
X212.45Y-122.
X212.45Y-122.8
X212.45Y-123.6
X212.465Y-116.405
X212.75Y-130.4
X212.75Y-131.8
X212.75Y-133.2
X212.75Y-134.6
X212.75Y-136.
X212.75Y-137.6
X212.75Y-139.05
X212.75Y-140.45
X212.75Y-141.85
X212.8Y-103.3
X213.238Y-118.005
X213.25Y-111.6
X213.25Y-112.4
X213.25Y-113.2
X213.25Y-113.995
X213.25Y-114.8
X213.25Y-115.6
X213.25Y-118.8
X213.25Y-119.6
X213.25Y-120.4
X213.25Y-121.2
X213.25Y-122.
X213.25Y-122.8
X213.25Y-116.395
X213.259Y-117.195
X213.3Y-104.55
X213.3Y-130.
X213.3Y-131.4
X213.3Y-132.8
X213.3Y-134.2
X213.3Y-135.6
X213.3Y-137.
X213.35Y-138.65
X213.35Y-140.05
X213.35Y-141.45
X213.65Y-108.35
X214.3Y-103.3
X214.3Y-111.6
X214.3Y-113.2
X214.3Y-114.8
X214.3Y-116.4
X215.2Y-129.
X215.4Y-130.
X215.4Y-131.4
X215.4Y-132.8
X215.4Y-134.2
X215.4Y-135.6
X215.4Y-137.
X215.45Y-138.65
X215.45Y-140.05
X215.45Y-141.45
X215.9Y-105.35
X215.9Y-106.45
X215.95Y-129.6
X215.95Y-131.
X215.95Y-133.8
X215.95Y-135.2
X216.Y-138.25
X216.Y-139.65
X216.Y-141.05
X216.45Y-112.4
X216.45Y-114.8
X216.45Y-116.4
X216.45Y-118.
X216.45Y-119.6
X216.45Y-120.4
X216.45Y-121.2
X216.45Y-122.
X216.45Y-122.8
X216.6Y-132.4
X217.25Y-111.6
X217.25Y-112.4
X217.25Y-113.2
X217.25Y-114.
X217.25Y-114.8
X217.25Y-115.6
X217.25Y-116.4
X217.25Y-117.2
X217.25Y-118.
X217.25Y-118.8
X217.25Y-120.4
X217.25Y-121.2
X217.25Y-122.8
X217.5Y-108.75
X218.Y-129.6
X218.05Y-112.4
X218.05Y-113.2
X218.05Y-114.
X218.05Y-114.8
X218.05Y-115.6
X218.05Y-116.4
X218.05Y-117.2
X218.05Y-118.
X218.05Y-118.8
X218.05Y-120.4
X218.05Y-122.05
X218.05Y-131.
X218.05Y-133.8
X218.05Y-135.2
X218.1Y-138.25
X218.1Y-139.65
X218.1Y-141.05
X218.5Y-106.85
X218.6Y-125.2
X218.6Y-126.1
X218.7Y-132.4
X218.85Y-111.6
X218.85Y-113.2
X218.85Y-114.8
X218.85Y-116.4
X218.85Y-118.
X218.85Y-119.6
X218.85Y-120.4
X218.85Y-122.
X219.5Y-107.9
X220.009Y-143.745
X220.1Y-116.1
X220.55Y-124.65
X220.8Y-107.9
X220.915Y-143.745
X221.45Y-114.815
X221.45Y-116.315
X221.45Y-118.815
X221.45Y-120.35
X221.888Y-143.745
X223.Y-115.15
X223.Y-116.05
X223.Y-119.1
X223.Y-120.
X224.055Y-140.95
X224.2Y-136.8
X224.2Y-138.4
X224.55Y-114.815
X224.55Y-116.315
X224.55Y-118.815
X224.55Y-120.4
X224.781Y-135.205
X224.8Y-108.7
X224.8Y-134.4
X225.1Y-128.8
X225.2Y-131.9
X225.5Y-111.75
X225.5Y-116.7
X225.65Y-140.95
X225.8Y-111.
X226.Y-136.8
X226.Y-138.4
X226.1Y-119.
X226.2Y-114.05
X226.35Y-121.25
X226.6Y-128.8
X226.8Y-130.45
X226.8Y-131.95
X226.8Y-133.6
X226.8Y-135.2
X227.2Y-147.2
X227.25Y-140.95
X227.4Y-116.1
X228.Y-122.598
X228.Y-124.574
X228.Y-126.55
X228.Y-136.9
X228.Y-138.4
X228.4Y-103.4
X228.4Y-104.3
X228.55Y-96.95
X228.6Y-128.8
X228.6Y-130.45
X228.6Y-132.
X228.85Y-140.95
X228.9Y-109.9
X228.95Y-115.15
X229.55Y-115.5
X229.7Y-147.66
X229.797Y-132.005
X229.797Y-132.805
X229.797Y-133.605
X229.797Y-136.005
X229.797Y-139.205
X229.797Y-140.805
X229.8Y-128.8
X229.8Y-135.2
X229.8Y-136.8
X229.8Y-137.6
X229.8Y-140.
X230.1Y-107.5
X230.1Y-118.1
X230.25Y-113.45
X230.3Y-143.85
X230.55Y-122.6
X230.597Y-134.405
X230.597Y-137.605
X230.6Y-132.
X230.6Y-132.8
X230.6Y-133.6
X230.6Y-135.2
X230.6Y-136.
X230.6Y-136.8
X230.6Y-138.4
X230.6Y-139.2
X230.6Y-140.
X230.6Y-140.8
X230.7Y-121.9
X230.8Y-114.8
X230.9Y-117.6
X231.1Y-145.6
X231.35Y-140.85
X231.397Y-135.205
X231.4Y-132.
X231.4Y-132.8
X231.4Y-133.6
X231.4Y-134.4
X231.4Y-136.
X231.4Y-137.603
X231.4Y-138.4
X231.4Y-139.2
X231.4Y-140.
X231.55Y-143.35
X231.7Y-148.7
X231.7Y-150.2
X232.Y-111.235
X232.Y-112.505
X232.Y-113.775
X232.Y-115.07
X232.197Y-137.605
X232.197Y-139.205
X232.197Y-140.005
X232.197Y-140.805
X232.2Y-128.6
X232.2Y-132.
X232.2Y-132.8
X232.2Y-133.6
X232.2Y-134.4
X232.2Y-135.2
X232.2Y-136.8
X232.2Y-138.4
X232.467Y-141.728
X232.55Y-123.6
X232.55Y-124.5
X232.7Y-145.6
X232.997Y-132.005
X232.997Y-137.605
X232.997Y-138.405
X232.997Y-139.205
X232.997Y-140.005
X232.997Y-140.805
X233.Y-128.6
X233.Y-132.8
X233.Y-133.6
X233.Y-134.4
X233.Y-135.2
X233.Y-136.
X233.Y-136.8
X233.1Y-141.8
X233.1Y-147.2
X233.2Y-124.
X233.3Y-148.7
X233.3Y-149.8
X233.525Y-117.116
X233.525Y-118.016
X233.75Y-112.525
X233.75Y-114.025
X233.8Y-132.005
X233.8Y-122.15
X233.8Y-123.05
X233.8Y-132.8
X233.8Y-133.6
X233.8Y-134.4
X233.8Y-135.2
X233.8Y-136.
X233.8Y-138.4
X233.8Y-139.2
X233.8Y-140.8
X233.8Y-141.75
X233.9Y-103.2
X234.597Y-139.205
X234.6Y-128.6
X234.6Y-130.
X234.6Y-132.
X234.6Y-132.8
X234.6Y-134.4
X234.6Y-135.2
X234.6Y-136.8
X234.6Y-137.6
X234.6Y-138.4
X234.6Y-140.
X234.6Y-140.8
X234.8Y-103.2
X234.85Y-122.35
X234.85Y-145.7
X235.1Y-115.2
X235.1Y-151.47
X235.2Y-112.7
X235.245Y-147.686
X235.245Y-148.956
X235.245Y-150.226
X235.397Y-136.005
X235.397Y-136.8
X235.397Y-140.805
X235.4Y-128.6
X235.4Y-132.
X235.4Y-132.8
X235.4Y-133.6
X235.4Y-134.4
X235.4Y-135.2
X235.4Y-137.6
X235.4Y-138.4
X235.4Y-139.2
X235.4Y-140.
X235.5Y-124.25
X236.05Y-145.5
X236.1Y-126.35
X236.125Y-103.95
X236.15Y-121.15
X236.197Y-138.405
X236.197Y-139.205
X236.2Y-115.2
X236.2Y-130.
X236.2Y-131.2
X236.2Y-134.4
X236.2Y-135.2
X236.2Y-136.8
X236.2Y-140.
X236.6Y-120.5
X236.997Y-140.805
X237.Y-119.3
X237.Y-132.
X237.Y-132.8
X237.Y-133.6
X237.Y-135.2
X237.Y-136.8
X237.Y-137.6
X237.Y-138.4
X237.Y-140.
X237.15Y-145.5
X237.25Y-111.4
X237.25Y-112.3
X237.525Y-103.15
X237.797Y-132.005
X237.797Y-132.805
X237.797Y-134.405
X237.797Y-137.605
X237.797Y-138.405
X237.797Y-139.205
X237.8Y-133.6
X237.8Y-135.2
X237.8Y-136.
X237.8Y-136.805
X237.8Y-140.
X237.8Y-140.8
X237.8Y-141.8
X238.065Y-109.299
X238.3Y-143.65
X238.45Y-125.6
X238.5Y-130.1
X238.597Y-138.405
X238.6Y-133.6
X238.6Y-134.4
X238.625Y-103.15
X238.8Y-132.4
X238.965Y-109.299
X239.1Y-116.525
X239.3Y-111.26
X239.3Y-113.775
X239.3Y-141.8
X239.5Y-137.2
X239.5Y-138.3
X239.6Y-143.65
X239.65Y-107.35
X239.9Y-130.1
X240.05Y-135.2
X240.239Y-109.064
X240.5Y-120.
X240.5Y-120.95
X240.5Y-121.9
X240.9Y-145.4
X241.Y-107.5
X241.Y-140.75
X241.Y-142.4
X241.1Y-139.15
X241.15Y-143.85
X241.2Y-105.4
X241.2Y-115.7
X241.25Y-113.45
X241.3Y-112.5
X241.3Y-135.05
X241.3Y-138.15
X241.478Y-128.6
X241.525Y-114.65
X241.8Y-120.
X241.8Y-120.95
X241.8Y-121.9
X241.8Y-122.7
X241.8Y-145.4
X242.1Y-107.5
X242.364Y-110.95
X242.364Y-111.95
X242.364Y-112.95
X242.364Y-113.95
X242.4Y-125.3
X242.6Y-105.1
X242.65Y-139.05
X242.65Y-143.85
X242.75Y-140.75
X242.75Y-142.4
X243.Y-138.15
X243.15Y-111.45
X243.25Y-117.25
X244.1Y-104.45
X244.2Y-109.95
X244.2Y-111.45
X244.25Y-113.
X244.3Y-118.8
X244.3Y-123.8
X244.3Y-125.3
X244.4Y-138.15
X244.5Y-128.35
X244.509Y-140.6
X244.614Y-108.7
X245.3Y-121.9
X245.45Y-132.65
X245.6Y-105.3
X245.6Y-106.2
X245.6Y-116.8
X245.75Y-113.
X245.9Y-124.9
X245.9Y-138.15
X245.95Y-140.6
X246.114Y-115.7
X246.3Y-128.35
X246.3Y-129.45
X246.35Y-110.2
X246.5Y-125.85
X246.5Y-126.75
X246.55Y-96.95
X246.65Y-116.3
X246.9Y-132.4
X247.Y-120.5
X247.1Y-116.8
X247.114Y-108.7
X247.614Y-115.7
X247.75Y-103.75
X247.8Y-132.4
X247.85Y-110.2
X247.9Y-122.6
X247.9Y-124.1
X248.15Y-113.45
X248.3Y-102.6
X248.35Y-96.95
X248.65Y-108.7
X248.85Y-103.75
X248.85Y-121.65
X248.85Y-126.55
X249.364Y-110.95
X249.364Y-112.95
X249.364Y-113.95
X249.5Y-115.9
X249.512Y-123.262
X249.512Y-124.938
X249.65Y-117.25
X249.8Y-105.25
X249.8Y-106.75
X250.35Y-110.45
X251.Y-115.9
X251.Y-118.2
X251.1Y-103.55
X251.188Y-123.262
X251.188Y-124.938
X251.35Y-126.55
X251.85Y-121.65
X252.Y-105.25
X252.Y-106.75
X252.75Y-127.2
X252.8Y-124.6
X253.35Y-124.1
X253.375Y-125.1
X253.65Y-127.2
X253.825Y-124.575
X253.85Y-125.6
X253.875Y-123.6
X253.875Y-126.2
X254.4Y-122.
X254.8Y-130.9
X254.8Y-132.
X255.025Y-123.1
X255.8Y-122.
X259.05Y-103.2
X259.65Y-107.65
X259.95Y-103.2
X260.5Y-107.65
X261.95Y-102.95
X261.95Y-103.85
X263.95Y-105.75
X263.95Y-106.6
X270.95Y-106.75
X270.95Y-108.65
X270.95Y-110.8
X270.95Y-112.7
X272.95Y-107.7
X272.95Y-111.75
X274.55Y-107.9
X274.55Y-108.8
X274.6Y-111.95
X274.6Y-112.85
T2
X165.1Y-148.25
X166.95Y-137.
X166.95Y-137.95
X166.95Y-138.9
X166.95Y-144.2
X166.95Y-145.15
X166.95Y-146.1
X167.1Y-148.25
X169.15Y-138.9
X169.15Y-146.1
X170.05Y-141.55
X170.05Y-148.7
X171.1Y-138.25
X171.1Y-140.25
X171.1Y-145.45
X171.1Y-147.45
X172.02Y-124.05
X172.373Y-121.798
X173.25Y-119.85
X174.349Y-121.798
X176.025Y-119.85
X176.325Y-121.798
T3
X198.84Y-148.
X198.84Y-150.54
X201.38Y-148.
X201.38Y-150.54
X203.92Y-148.
X203.92Y-150.54
X206.46Y-148.
X206.46Y-150.54
X209.Y-148.
X209.Y-150.54
X214.84Y-148.
X214.84Y-150.54
X217.38Y-148.
X217.38Y-150.54
X219.92Y-148.
X219.92Y-150.54
X222.46Y-148.
X222.46Y-150.54
X225.Y-148.
X225.Y-150.54
X227.11Y-112.
X229.65Y-112.
X238.71Y-127.05
X241.25Y-127.05
X243.25Y-150.8
X245.79Y-150.8
T4
X105.41Y-141.77
X105.41Y-144.27
X107.41Y-141.77
X107.41Y-144.27
X109.41Y-138.77
X109.41Y-140.52
X109.41Y-143.02
X109.41Y-145.52
X109.41Y-147.27
X193.9Y-98.05
X200.Y-98.05
X265.965Y-138.27
X265.965Y-140.02
X265.965Y-142.52
X265.965Y-145.02
X265.965Y-146.77
X267.965Y-141.27
X267.965Y-143.77
X269.965Y-141.27
X269.965Y-143.77
T5
X260.695Y-120.23
X260.695Y-122.73
X260.695Y-124.73
X260.695Y-127.23
X263.315Y-120.23
X263.315Y-122.73
X263.315Y-124.73
X263.315Y-127.23
T6
X211.1Y-99.
X211.1Y-101.5
X213.6Y-99.
X216.1Y-99.
X216.1Y-101.5
X228.4Y-99.
X228.4Y-101.5
X230.9Y-99.
X233.4Y-99.
X233.4Y-101.5
X245.65Y-99.
X245.65Y-101.5
X248.15Y-99.
X250.65Y-99.
X250.65Y-101.5
X262.9Y-99.
X262.9Y-101.5
X265.4Y-99.
X267.9Y-99.
X267.9Y-101.5
T7
X194.95Y-102.
X198.95Y-102.
T8
X144.41Y-126.52
X144.41Y-129.06
X144.41Y-131.6
X144.41Y-134.14
X144.41Y-136.68
X144.41Y-139.22
X144.41Y-141.76
X144.41Y-144.3
X146.95Y-126.52
X146.95Y-129.06
X146.95Y-131.6
X146.95Y-134.14
X146.95Y-136.68
X146.95Y-139.22
X146.95Y-141.76
X146.95Y-144.3
T9
X171.35Y-97.6
X171.95Y-102.55
X186.45Y-102.55
X187.05Y-97.6
T10
X196.95Y-101.45
T11
X98.75Y-103.34
X98.75Y-113.25
X98.8Y-121.09
X98.8Y-131.
X106.37Y-103.34
X106.37Y-113.25
X106.42Y-121.09
X106.42Y-131.
X116.53Y-103.34
X116.53Y-113.25
X116.58Y-121.09
X116.58Y-131.
X132.99Y-102.
X132.99Y-109.62
X132.99Y-119.78
X142.9Y-102.
X142.9Y-109.62
X142.9Y-119.78
X152.35Y-102.
X152.35Y-109.62
X152.35Y-119.78
X162.26Y-102.
X162.26Y-109.62
X162.26Y-119.78
T12
X260.345Y-117.16
X260.345Y-130.3
X266.025Y-117.16
X266.025Y-130.3
T13
X102.7Y-137.
X102.7Y-149.04
X272.675Y-136.5
X272.675Y-148.54
T14
X207.95Y-100.25
X219.25Y-100.25
X225.25Y-100.25
X236.55Y-100.25
X242.5Y-100.25
X253.8Y-100.25
X259.75Y-100.25
X271.05Y-100.25
T15
X111.45Y-108.5
X111.5Y-126.25
X137.74Y-114.7
X157.1Y-114.7
T0
M30
