M48
;DRILL file {KiCad 4.0.7-e2-6376~58~ubuntu16.04.1} date Fri Mar 23 14:58:39 2018
;FORMAT={-:-/ absolute / inch / decimal}
FMAT,2
INCH,TZ
T1C0.008
T2C0.009
T3C0.016
T4C0.017
T5C0.031
T6C0.036
T7C0.043
T8C0.047
T9C0.055
T10C0.067
T11C0.082
T12C0.091
T13C0.094
T14C0.128
%
G90
G05
M72
T1
X4.9547Y-5.3681
X5.1545Y-5.5768
X5.2323Y-5.6535
X5.3031Y-5.3091
X5.311Y-5.5768
X5.3287Y-4.3465
X5.3484Y-4.5965
X5.4016Y-4.6752
X5.4035Y-4.5374
X5.4035Y-4.5768
X5.4035Y-4.6161
X5.4213Y-4.7559
X5.4596Y-5.0853
X5.4596Y-5.1444
X5.4665Y-4.0315
X5.4843Y-3.9134
X5.4843Y-4.4528
X5.5039Y-4.4744
X5.5039Y-4.7008
X5.5069Y-5.7411
X5.5236Y-4.2579
X5.5236Y-4.4528
X5.5424Y-4.883
X5.5433Y-4.4744
X5.563Y-4.4528
X5.563Y-4.7008
X5.5728Y-5.6614
X5.5728Y-5.7598
X5.5827Y-4.4744
X5.5827Y-4.7402
X5.6014Y-4.883
X5.6024Y-4.4498
X5.6024Y-4.7657
X5.6043Y-4.8346
X5.6197Y-5.25
X5.622Y-4.4744
X5.622Y-4.7874
X5.624Y-4.2717
X5.6457Y-5.7205
X5.6527Y-5.2799
X5.6634Y-5.0138
X5.6705Y-5.7008
X5.6791Y-4.7165
X5.685Y-5.1232
X5.685Y-5.2492
X5.689Y-4.6555
X5.6909Y-4.5965
X5.6929Y-5.0728
X5.6949Y-4.5571
X5.705Y-4.6358
X5.7057Y-4.2864
X5.7165Y-4.5374
X5.7165Y-4.5768
X5.7165Y-5.1547
X5.7165Y-5.1862
X5.7165Y-5.2177
X5.7185Y-4.9154
X5.7185Y-4.9508
X5.7253Y-4.609
X5.7307Y-5.7213
X5.7323Y-5.2902
X5.7598Y-4.0827
X5.7756Y-3.8346
X5.7756Y-4.2047
X5.7855Y-5.1692
X5.7855Y-5.2454
X5.7972Y-4.9961
X5.8681Y-5.0787
X5.8879Y-4.9888
X5.9154Y-3.8366
X5.9193Y-4.6732
X5.9291Y-5.1083
X5.9291Y-5.1437
X5.9665Y-5.0217
X5.9764Y-4.5699
X5.9923Y-4.7722
X6.0277Y-4.7722
X6.0945Y-4.9114
X6.1575Y-4.3661
X6.2067Y-5.3248
X6.2067Y-5.3642
X6.2283Y-4.5177
X6.2283Y-4.5571
X6.2283Y-4.5965
X6.2283Y-4.6358
X6.2283Y-4.6752
X6.2283Y-4.7146
X6.2283Y-4.7539
X6.2283Y-4.7933
X6.2283Y-4.8327
X6.2283Y-4.872
X6.2283Y-4.9114
X6.2283Y-4.9508
X6.2283Y-4.9902
X6.2283Y-5.0295
X6.2283Y-5.0689
X6.2283Y-5.1083
X6.2283Y-5.2264
X6.2283Y-5.3445
X6.2284Y-5.1476
X6.2421Y-4.4016
X6.2421Y-4.4488
X6.252Y-4.498
X6.252Y-4.5374
X6.252Y-4.5768
X6.252Y-4.6161
X6.252Y-4.6555
X6.252Y-4.6949
X6.252Y-4.7343
X6.252Y-4.7736
X6.252Y-4.813
X6.252Y-4.8524
X6.252Y-4.8917
X6.252Y-4.9311
X6.252Y-4.9705
X6.252Y-5.0098
X6.252Y-5.0492
X6.252Y-5.0886
X6.252Y-5.128
X6.3051Y-4.4016
X6.3051Y-4.4488
X6.3406Y-4.4272
X6.3406Y-4.4783
X6.376Y-4.4272
X6.376Y-4.4783
X6.3839Y-3.8799
X6.3839Y-3.9547
X6.4232Y-4.4823
X6.4232Y-4.5177
X6.4724Y-4.4626
X6.4724Y-4.498
X6.5217Y-4.5374
X6.5728Y-4.5571
X6.9055Y-4.7382
X6.9646Y-4.7382
X6.9803Y-4.3209
X7.0197Y-4.2657
X7.0197Y-4.3091
X7.0295Y-4.6594
X7.0295Y-4.6988
X7.0295Y-4.7382
X7.0295Y-4.7776
X7.0295Y-4.8169
X7.0295Y-4.8563
X7.0295Y-4.8957
X7.0295Y-4.935
X7.0295Y-5.0138
X7.0295Y-5.0531
X7.0295Y-5.0925
X7.0295Y-5.2106
X7.0295Y-5.2894
X7.0689Y-4.6594
X7.0689Y-4.6988
X7.0689Y-4.7382
X7.0689Y-4.7776
X7.0689Y-4.8169
X7.0689Y-4.8563
X7.0689Y-4.8957
X7.0689Y-4.935
X7.0689Y-4.9744
X7.0689Y-5.0138
X7.0689Y-5.0531
X7.0689Y-5.0925
X7.0689Y-5.1319
X7.0689Y-5.2106
X7.0689Y-5.25
X7.0689Y-5.2894
X7.0996Y-4.315
X7.0996Y-4.4055
X7.1063Y-4.2126
X7.1083Y-4.6594
X7.1083Y-4.6988
X7.1083Y-4.7382
X7.1083Y-4.7776
X7.1083Y-4.8169
X7.1083Y-4.8563
X7.1083Y-4.8957
X7.1083Y-4.935
X7.1083Y-5.0138
X7.1083Y-5.0531
X7.1083Y-5.0925
X7.1083Y-5.1319
X7.1476Y-4.6594
X7.1476Y-4.6988
X7.1476Y-4.7382
X7.1476Y-4.7776
X7.1476Y-4.8169
X7.1476Y-4.8563
X7.1476Y-4.8957
X7.1476Y-5.0138
X7.1476Y-5.0531
X7.1476Y-5.0925
X7.1476Y-5.1319
X7.1476Y-5.1713
X7.1476Y-5.2106
X7.1476Y-5.25
X7.187Y-4.6594
X7.187Y-4.7382
X7.187Y-4.7776
X7.187Y-5.0138
X7.187Y-5.1713
X7.187Y-5.2106
X7.187Y-5.2894
X7.1996Y-4.315
X7.1996Y-4.4055
X7.2244Y-4.2126
X7.2264Y-4.6594
X7.2264Y-4.6988
X7.2264Y-4.7382
X7.2264Y-4.7776
X7.2264Y-4.8169
X7.2264Y-4.8563
X7.2264Y-4.8957
X7.2264Y-4.935
X7.2264Y-4.9744
X7.2264Y-5.0138
X7.2264Y-5.0925
X7.2264Y-5.1319
X7.2264Y-5.1713
X7.2264Y-5.25
X7.2264Y-5.2894
X7.2657Y-4.6043
X7.2657Y-4.7776
X7.2657Y-4.8169
X7.2657Y-4.8563
X7.2657Y-4.8957
X7.2657Y-4.935
X7.2657Y-4.9744
X7.2657Y-5.0531
X7.2657Y-5.0925
X7.2657Y-5.1319
X7.2657Y-5.1713
X7.2657Y-5.2106
X7.2657Y-5.25
X7.2657Y-5.2894
X7.2795Y-4.3583
X7.3051Y-4.6594
X7.3051Y-4.6988
X7.3051Y-4.8169
X7.3051Y-4.8563
X7.3051Y-4.8957
X7.3051Y-4.9744
X7.3051Y-5.0531
X7.3051Y-5.0925
X7.3051Y-5.1319
X7.3051Y-5.1713
X7.3051Y-5.2894
X7.3238Y-4.6043
X7.3425Y-5.2913
X7.3445Y-4.6594
X7.3445Y-4.6988
X7.3445Y-4.7382
X7.3445Y-4.7776
X7.3445Y-4.8169
X7.3445Y-4.8563
X7.3445Y-4.8957
X7.3445Y-4.935
X7.3839Y-4.6594
X7.3839Y-4.6988
X7.3839Y-4.7382
X7.3839Y-4.8169
X7.3839Y-4.8563
X7.3839Y-4.935
X7.3839Y-5.0138
X7.3839Y-5.0531
X7.3839Y-5.0925
X7.3839Y-5.1319
X7.3839Y-5.1713
X7.3839Y-5.25
X7.4232Y-4.6988
X7.4232Y-4.7382
X7.4232Y-4.7776
X7.4232Y-4.8169
X7.4232Y-4.8563
X7.4232Y-4.8957
X7.4232Y-4.9744
X7.4232Y-5.0138
X7.4232Y-5.0531
X7.4232Y-5.1319
X7.4232Y-5.1713
X7.4232Y-5.2106
X7.4232Y-5.25
X7.4232Y-5.2894
X7.4237Y-5.0922
X7.4429Y-4.4862
X7.4626Y-4.6594
X7.4626Y-4.6988
X7.4626Y-4.7382
X7.4626Y-4.7776
X7.4626Y-4.8169
X7.4626Y-4.8563
X7.4626Y-4.8957
X7.4626Y-4.935
X7.4626Y-5.1319
X7.4626Y-5.2106
X7.4631Y-5.0134
X7.4631Y-5.0528
X7.4631Y-5.0922
X7.4646Y-5.2894
X7.4803Y-4.0197
X7.502Y-4.6594
X7.502Y-4.6988
X7.502Y-4.7382
X7.502Y-4.7776
X7.502Y-4.8169
X7.502Y-4.8563
X7.502Y-4.8957
X7.502Y-4.9744
X7.502Y-5.0531
X7.502Y-5.0925
X7.502Y-5.1319
X7.502Y-5.1713
X7.502Y-5.2106
X7.502Y-5.25
X7.5025Y-5.0134
X7.5107Y-4.2391
X7.5114Y-4.1458
X7.5118Y-3.9882
X7.5118Y-4.0197
X7.5118Y-4.0512
X7.5118Y-4.1772
X7.5354Y-4.374
X7.5413Y-4.6594
X7.5413Y-4.6988
X7.5413Y-4.7776
X7.5413Y-4.8169
X7.5413Y-4.8563
X7.5413Y-4.8957
X7.5413Y-4.935
X7.5413Y-4.9744
X7.5413Y-5.0138
X7.5413Y-5.0531
X7.5413Y-5.0925
X7.5413Y-5.1319
X7.5413Y-5.1713
X7.5413Y-5.2106
X7.5413Y-5.25
X7.543Y-4.1457
X7.543Y-4.1774
X7.5433Y-4.0197
X7.5433Y-4.0512
X7.5748Y-3.9882
X7.5748Y-4.0197
X7.5748Y-4.1457
X7.5748Y-4.1772
X7.5748Y-4.4567
X7.5751Y-4.2425
X7.5807Y-4.6594
X7.5807Y-4.6988
X7.5807Y-4.7382
X7.5807Y-4.7776
X7.5807Y-4.8169
X7.5807Y-4.8957
X7.5807Y-4.935
X7.5807Y-4.9744
X7.5807Y-5.0531
X7.5807Y-5.0925
X7.5807Y-5.1319
X7.5807Y-5.1713
X7.5807Y-5.25
X7.6043Y-4.0492
X7.6063Y-4.1772
X7.6201Y-4.6594
X7.6201Y-4.6988
X7.6201Y-4.7382
X7.6201Y-4.7776
X7.6201Y-4.8169
X7.6201Y-4.8563
X7.6201Y-4.935
X7.6201Y-4.9744
X7.6201Y-5.0925
X7.6201Y-5.1713
X7.6201Y-5.2106
X7.6299Y-4.248
X7.6378Y-4.0197
X7.6378Y-4.0512
X7.6378Y-4.1457
X7.6594Y-4.6594
X7.6594Y-4.6988
X7.6594Y-4.7382
X7.6594Y-4.7776
X7.6594Y-4.8169
X7.6594Y-4.8563
X7.6594Y-4.8957
X7.6594Y-4.935
X7.6594Y-4.9744
X7.6594Y-5.0925
X7.6594Y-5.2894
X7.6594Y-5.3622
X7.6673Y-4.4193
X7.6693Y-3.9882
X7.6693Y-4.0197
X7.6693Y-4.0512
X7.6693Y-4.1457
X7.6693Y-4.1772
X7.6693Y-4.2087
X7.6713Y-5.1693
X7.6713Y-5.2106
X7.6969Y-4.7165
X7.7008Y-3.9882
X7.7008Y-4.0197
X7.7008Y-4.0512
X7.7008Y-4.1457
X7.7008Y-4.1772
X7.7008Y-4.2087
X7.7008Y-4.2402
X7.7244Y-4.3661
X7.7323Y-3.9567
X7.7323Y-3.9882
X7.7323Y-4.0197
X7.7323Y-4.1772
X7.7323Y-4.2087
X7.7323Y-4.2402
X7.7323Y-4.2756
X7.7638Y-4.0197
X7.7638Y-4.0512
X7.7638Y-4.1457
X7.7638Y-4.1772
X7.7657Y-5.3468
X7.7736Y-4.6713
X7.7803Y-5.0452
X7.7815Y-5.128
X7.7854Y-4.9941
X7.7854Y-5.1713
X7.7854Y-5.2146
X7.7854Y-5.2579
X7.7854Y-5.3012
X7.7953Y-3.9882
X7.7953Y-4.0197
X7.7953Y-4.0512
X7.7953Y-4.1772
X7.8028Y-5.0161
X7.8035Y-5.0726
X7.8036Y-5.1321
X7.8061Y-5.2647
X7.8068Y-4.9775
X7.8071Y-5.0965
X7.8106Y-5.225
X7.8268Y-3.9882
X7.8268Y-4.0512
X7.8268Y-4.1457
X7.8268Y-4.1772
X7.8268Y-4.2717
X7.8271Y-4.2413
X7.8524Y-4.9508
X7.8583Y-3.9882
X7.8583Y-4.0197
X7.8583Y-4.0512
X7.8583Y-4.1457
X7.8583Y-4.1772
X7.8583Y-4.2087
X7.8858Y-4.919
X7.8898Y-3.9882
X7.8898Y-4.0197
X7.8898Y-4.0512
X7.8898Y-4.1457
X7.8898Y-4.1772
X7.8898Y-4.2087
X7.8898Y-4.2402
X7.8985Y-5.0472
X7.8993Y-5.0161
X7.8996Y-5.2205
X7.8996Y-5.2638
X7.9003Y-5.0692
X7.9016Y-4.9724
X7.9016Y-5.1335
X7.9017Y-5.1007
X7.9111Y-5.1676
X7.917Y-5.2005
X7.9173Y-5.2795
X7.9213Y-3.9882
X7.9213Y-4.0197
X7.9213Y-4.0512
X7.9213Y-4.1772
X7.9213Y-4.2087
X7.9216Y-4.2402
X7.9524Y-4.2542
X7.9528Y-3.9882
X7.9528Y-4.0512
X7.9528Y-4.1772
X7.9882Y-5.0807
X8.0036Y-4.9199
X8.0098Y-3.8268
X8.0118Y-5.1063
X8.0137Y-5.1375
X8.0138Y-5.1614
X8.0177Y-5.1988
X8.0197Y-4.0472
X8.0276Y-4.8681
X8.0295Y-5.0472
X8.0347Y-4.9354
X8.0423Y-3.8628
X8.0433Y-5.0039
X8.068Y-5.2806
X8.0719Y-3.8238
X8.1102Y-5.0563
X8.1142Y-5.1339
X8.1319Y-5.2972
X8.1378Y-5.2402
X8.1398Y-5.0039
X8.1802Y-5.1684
X8.1949Y-5.2441
X8.2067Y-3.9803
X8.2323Y-5.1732
X8.2361Y-5.1141
X8.2638Y-5.1339
X8.3189Y-4.9154
X8.3414Y-5.046
X8.4441Y-4.7224
X8.4508Y-4.6535
X8.5177Y-4.5748
X8.5177Y-4.6375
X8.5551Y-4.3091
X8.5621Y-4.8771
X8.5689Y-4.5748
X8.5779Y-4.7306
X8.5806Y-4.7975
X8.5965Y-4.6378
X8.5984Y-4.3091
X8.6122Y-4.5748
X8.6267Y-4.8999
X8.6516Y-5.1283
X8.6545Y-4.5118
X8.6555Y-4.5433
X8.6555Y-4.5748
X8.6555Y-4.6378
X8.6555Y-4.67
X8.6555Y-4.7953
X8.6555Y-4.8284
X8.6555Y-4.8593
X8.687Y-4.5118
X8.687Y-4.5433
X8.687Y-4.5748
X8.687Y-4.6063
X8.687Y-4.6378
X8.687Y-4.7008
X8.687Y-4.7323
X8.687Y-4.7638
X8.687Y-4.7953
X8.687Y-4.8284
X8.687Y-4.8593
X8.689Y-5.563
X8.689Y-5.6457
X8.689Y-5.6811
X8.6908Y-5.4488
X8.6909Y-4.3996
X8.7047Y-4.9882
X8.7165Y-5.3376
X8.7185Y-4.5118
X8.7185Y-4.5433
X8.7185Y-4.5748
X8.7185Y-4.6063
X8.7185Y-4.6378
X8.7185Y-4.6693
X8.7185Y-4.7008
X8.7185Y-4.7323
X8.7185Y-4.7638
X8.7185Y-4.7953
X8.7185Y-4.8268
X8.7185Y-4.8583
X8.7187Y-4.39
X8.7264Y-5.061
X8.7303Y-5.124
X8.75Y-4.5118
X8.75Y-4.5748
X8.75Y-4.6063
X8.75Y-4.6378
X8.75Y-4.6693
X8.75Y-4.7323
X8.75Y-4.7638
X8.75Y-4.7953
X8.75Y-4.8268
X8.75Y-4.8583
X8.752Y-5.1831
X8.7697Y-5.5984
X8.7736Y-5.124
X8.7776Y-4.4665
X8.7805Y-4.8268
X8.7815Y-4.5118
X8.7815Y-4.5433
X8.7815Y-4.6063
X8.7815Y-4.6378
X8.7815Y-4.6693
X8.7815Y-4.7008
X8.7815Y-4.7323
X8.7815Y-4.7638
X8.7815Y-4.7953
X8.7815Y-4.8583
X8.782Y-5.4308
X8.7854Y-5.061
X8.8051Y-5.4852
X8.8113Y-4.7638
X8.8113Y-4.7953
X8.8127Y-4.8265
X8.813Y-4.5118
X8.813Y-4.5433
X8.813Y-4.5748
X8.813Y-4.6063
X8.813Y-4.7008
X8.813Y-4.7323
X8.813Y-4.8583
X8.8346Y-5.563
X8.8346Y-5.6457
X8.8346Y-5.6811
X8.8445Y-4.5059
X8.8445Y-4.5433
X8.8445Y-4.6063
X8.8445Y-4.6378
X8.8445Y-4.6693
X8.8445Y-4.7008
X8.8445Y-4.7638
X8.8445Y-4.7953
X8.8622Y-5.0236
X8.8642Y-5.1283
X8.8642Y-5.1783
X8.8642Y-5.2783
X8.876Y-4.5118
X8.876Y-4.5433
X8.876Y-4.5748
X8.876Y-4.6378
X8.876Y-4.6693
X8.876Y-4.7008
X8.876Y-4.7323
X8.876Y-4.7638
X8.876Y-4.7953
X8.876Y-4.8583
X8.876Y-5.4872
X8.9055Y-5.0236
X8.9072Y-4.7012
X8.9075Y-4.5118
X8.9075Y-4.5433
X8.9075Y-4.5748
X8.9075Y-4.6063
X8.9075Y-4.6378
X8.9075Y-4.6693
X8.9075Y-4.7638
X8.9075Y-4.7953
X8.9075Y-4.8268
X8.9075Y-5.0709
X8.9114Y-5.6004
X8.9232Y-5.1193
X8.935Y-4.3701
X8.937Y-4.2598
X8.937Y-4.3091
X8.939Y-4.5118
X8.939Y-4.5748
X8.939Y-4.6063
X8.939Y-4.6378
X8.939Y-4.7008
X8.939Y-4.7323
X8.939Y-4.7638
X8.939Y-4.8268
X8.939Y-4.8583
X8.9429Y-5.0709
X8.9487Y-4.1861
X8.9488Y-5.2028
X8.9488Y-5.2776
X8.9488Y-5.3366
X8.9547Y-5.8346
X8.9705Y-4.3701
X8.9705Y-4.5118
X8.9705Y-4.5433
X8.9705Y-4.6063
X8.9705Y-4.6693
X8.9705Y-4.7008
X8.9705Y-4.7323
X8.9705Y-4.7638
X8.9705Y-4.7953
X8.9705Y-4.8268
X8.9705Y-4.8583
X8.9764Y-4.4646
X8.9803Y-5.563
X8.9803Y-5.6457
X8.9803Y-5.6811
X8.9906Y-4.9689
X8.9921Y-5.2028
X8.998Y-5.1358
X9.002Y-4.5118
X9.002Y-4.7638
X9.0059Y-4.3701
X9.0079Y-4.2598
X9.0079Y-4.3091
X9.0079Y-4.8898
X9.0176Y-4.1861
X9.0197Y-4.4646
X9.0236Y-5.4872
X9.0295Y-4.5433
X9.0394Y-4.2126
X9.0413Y-4.3701
X9.0433Y-4.2598
X9.0433Y-4.3091
X9.0508Y-5.0118
X9.0512Y-4.8898
X9.0579Y-4.5935
X9.0579Y-4.6191
X9.0591Y-5.6004
X9.1004Y-4.7205
X9.1004Y-4.9232
X9.1122Y-4.4331
X9.1225Y-5.495
X9.1319Y-4.2126
X9.1319Y-4.3476
X9.1319Y-4.5669
X9.1437Y-4.7205
X9.1445Y-5.515
X9.1604Y-4.4498
X9.1634Y-4.8563
X9.1634Y-4.9803
X9.1673Y-4.9232
X9.1732Y-4.2854
X9.188Y-5.3071
X9.1959Y-5.3287
X9.2067Y-4.751
X9.2195Y-5.3484
X9.2264Y-4.9252
X9.2303Y-4.5
X9.2421Y-4.5571
X9.2421Y-4.751
X9.2441Y-4.2835
X9.2795Y-4.2835
X9.2795Y-4.3681
X9.2874Y-5.2441
X9.3071Y-4.4409
X9.3425Y-5.2756
X9.3602Y-5.6654
X9.3622Y-5.3937
X9.3799Y-5.4173
X9.3819Y-5.2776
X9.4035Y-5.2754
X9.4488Y-4.9409
X9.4488Y-4.9606
X9.4488Y-4.9803
X9.4488Y-5.
X9.4488Y-5.1181
X9.4488Y-5.1378
X9.4488Y-5.1575
X9.4488Y-5.1772
X9.4685Y-4.9409
X9.4685Y-4.9606
X9.4685Y-4.9803
X9.4685Y-5.
X9.4685Y-5.1181
X9.4685Y-5.1378
X9.4685Y-5.1575
X9.4685Y-5.1772
X9.4705Y-5.5827
X9.4882Y-4.9409
X9.4882Y-4.9606
X9.4882Y-4.9803
X9.4882Y-5.
X9.4882Y-5.1181
X9.4882Y-5.1378
X9.4882Y-5.1575
X9.4882Y-5.1772
X9.5079Y-4.9409
X9.5079Y-4.9606
X9.5079Y-4.9803
X9.5079Y-5.
X9.5079Y-5.1181
X9.5079Y-5.1378
X9.5079Y-5.1575
X9.5079Y-5.1772
X9.5154Y-5.4374
X9.5276Y-4.9409
X9.5276Y-4.9606
X9.5276Y-4.9803
X9.5276Y-5.
X9.5276Y-5.1181
X9.5276Y-5.1378
X9.5276Y-5.1575
X9.5276Y-5.1772
X9.5276Y-5.3986
X9.5591Y-3.939
X9.5591Y-3.9823
X9.5591Y-4.0256
X9.5591Y-4.1122
X9.5591Y-4.1988
X9.5591Y-4.2421
X9.6083Y-5.2638
X9.622Y-5.8346
X9.8632Y-4.3002
X9.8888Y-3.8297
X9.9222Y-4.2874
X9.9843Y-3.8484
T2
X5.3287Y-4.4055
X5.9331Y-4.2756
X8.1211Y-4.2156
T3
X5.061Y-4.4488
X5.3189Y-4.8465
X5.3189Y-4.9252
X5.3248Y-4.6555
X5.3622Y-4.7559
X5.3878Y-4.8248
X5.4044Y-5.1188
X5.4469Y-4.8248
X5.4469Y-4.9665
X5.4469Y-5.0256
X5.5079Y-5.6378
X5.5079Y-5.6969
X5.5192Y-4.5723
X5.5192Y-4.6403
X5.5236Y-5.0531
X5.5236Y-5.1122
X5.5374Y-4.9315
X5.5846Y-5.3307
X5.5871Y-4.5723
X5.5871Y-4.6403
X5.5906Y-5.0039
X5.5906Y-5.0827
X5.5906Y-5.1496
X5.5906Y-5.2087
X5.6043Y-4.9315
X5.6437Y-5.3307
X5.6929Y-4.7598
X5.7028Y-5.3287
X5.7185Y-5.0335
X5.7441Y-4.4409
X5.7441Y-4.5
X5.7618Y-5.3287
X5.7972Y-5.6791
X5.811Y-4.4193
X5.811Y-4.4783
X5.811Y-4.5787
X5.8563Y-5.6791
X5.8819Y-3.9528
X5.9134Y-4.3406
X5.9134Y-4.3996
X5.9134Y-4.4843
X5.9134Y-4.5433
X5.9252Y-5.2205
X5.9252Y-5.2795
X6.0039Y-5.1004
X6.0039Y-5.1722
X6.0039Y-5.2303
X6.0079Y-4.876
X6.0807Y-4.7795
X6.0807Y-4.8386
X6.0827Y-5.0945
X6.0827Y-5.1535
X6.0906Y-4.9646
X6.0906Y-5.0236
X6.0906Y-5.2264
X6.0906Y-5.2854
X6.3268Y-5.2028
X6.3268Y-5.2618
X6.7849Y-5.551
X6.8484Y-5.2205
X6.8878Y-4.4193
X6.8937Y-5.1181
X6.9094Y-4.8169
X6.9528Y-5.1181
X6.9547Y-5.2421
X6.9646Y-4.9528
X6.9685Y-4.8169
X7.0059Y-4.4193
X7.0079Y-5.3504
X7.1762Y-4.5374
X7.2352Y-4.5374
X7.3366Y-5.4665
X7.3947Y-4.1555
X7.3947Y-4.2146
X7.4213Y-3.9567
X7.4213Y-4.0157
X7.4213Y-5.3622
X7.6555Y-5.5197
X7.6752Y-5.9528
X7.6771Y-5.7913
X7.6771Y-5.8779
X7.7145Y-5.8779
X7.752Y-5.8779
X7.7539Y-5.9528
X7.7638Y-5.4193
X7.7736Y-5.5197
X7.874Y-5.7421
X7.9075Y-5.4744
X7.9075Y-5.5531
X8.0177Y-4.2244
X8.0197Y-3.9882
X8.0197Y-4.1654
X8.0335Y-5.3602
X8.0768Y-4.2244
X8.1102Y-4.8445
X8.1122Y-5.3602
X8.122Y-3.9882
X8.122Y-4.1654
X8.189Y-4.8445
X8.2441Y-4.0492
X8.2441Y-4.1083
X8.2677Y-4.4862
X8.3445Y-4.1988
X8.3445Y-4.3169
X8.4469Y-4.2992
X8.4941Y-5.1181
X8.5059Y-4.2992
X8.5374Y-4.4508
X8.5374Y-4.5098
X8.5394Y-5.0512
X8.5531Y-5.1181
X8.5728Y-4.9961
X8.5886Y-4.3917
X8.5984Y-5.0512
X8.6083Y-4.4508
X8.6083Y-4.5098
X8.6319Y-4.9961
X8.6476Y-4.3917
X8.7067Y-5.5138
X8.7343Y-4.2894
X8.7933Y-4.2894
X8.811Y-5.1831
X8.8622Y-3.8799
X8.8622Y-3.9587
X8.8996Y-4.0787
X8.9528Y-3.878
X8.9902Y-3.878
X9.0276Y-3.878
X9.0433Y-4.8406
X9.0807Y-4.0787
X9.1299Y-5.3051
X9.1299Y-5.3642
X9.1417Y-5.6004
X9.1634Y-5.0374
X9.1959Y-4.4498
X9.2008Y-5.6004
X9.2224Y-5.0374
X9.2854Y-4.8622
X9.2854Y-4.9213
X9.3031Y-4.5
X9.3031Y-4.5591
X9.3031Y-5.4724
X9.3622Y-5.4724
X9.4724Y-5.2638
X9.4724Y-5.3228
X9.5236Y-5.5157
X9.5591Y-4.0689
X9.5591Y-4.1555
X9.564Y-3.8366
X9.564Y-4.2933
X9.689Y-5.1693
X9.7264Y-5.1693
X9.7638Y-5.1693
X9.7638Y-5.3323
X9.7642Y-5.6083
T4
X6.3071Y-5.874
X6.3071Y-5.9528
X6.3839Y-5.8524
X6.3839Y-5.8898
X6.3839Y-5.9272
X6.5217Y-4.4764
X6.5394Y-5.6496
X6.5394Y-5.7283
X6.5728Y-4.4764
X6.7554Y-5.8896
X6.7554Y-5.9644
X6.7928Y-5.8896
X6.8302Y-5.8896
X6.8341Y-5.9644
T5
X5.9823Y-3.9528
X6.2224Y-3.9528
X9.6591Y-4.5315
X9.6591Y-4.6004
X9.6591Y-4.6988
X9.6591Y-4.7972
X9.6591Y-4.8661
T6
X9.7378Y-4.6496
X9.7378Y-4.748
X9.8165Y-4.6496
X9.8165Y-4.748
T7
X6.0236Y-3.8366
X6.1811Y-3.8366
T8
X7.1051Y-5.7874
X7.1051Y-5.8874
X7.2051Y-5.7874
X7.2051Y-5.8874
X7.3051Y-5.7874
X7.3051Y-5.8874
X7.4051Y-5.7874
X7.4051Y-5.8874
X7.5051Y-5.7874
X7.5051Y-5.8874
X8.0736Y-5.7898
X8.0736Y-5.8898
X8.1736Y-5.7898
X8.1736Y-5.8898
X8.185Y-4.3508
X8.185Y-4.4508
X8.185Y-4.5492
X8.2736Y-5.7898
X8.2736Y-5.8898
X8.3736Y-5.7898
X8.3736Y-5.8898
X8.4736Y-5.7898
X8.4736Y-5.8898
T9
X6.1024Y-3.8583
T10
X5.6299Y-3.878
X5.6299Y-4.1614
T11
X4.5Y-3.9898
X4.5Y-4.3799
X4.5Y-4.6787
X4.5Y-5.0689
X4.5Y-5.3677
X4.5Y-5.7579
X4.8Y-3.9898
X4.8Y-4.3799
X4.8Y-4.6787
X4.8Y-5.0689
X4.8Y-5.3677
X4.8Y-5.7579
X5.2Y-3.9898
X5.2Y-4.3799
X5.2Y-4.6787
X5.2Y-5.0689
X5.2Y-5.3677
X5.2Y-5.7579
T12
X9.9232Y-4.4618
X9.9232Y-4.9358
T13
X9.9052Y-5.2118
X9.9052Y-5.7292
T14
X5.Y-4.1929
X5.Y-4.8819
X5.Y-5.5709
T0
M30
