M48
;DRILL file {KiCad 4.0.7} date 03/05/18 20:49:45
;FORMAT={-:-/ absolute / metric / decimal}
FMAT,2
METRIC,TZ
T1C0.200
T2C0.400
T3C0.440
T4C0.800
T5C0.920
T6C1.100
T7C1.200
T8C1.400
T9C1.700
T10C2.080
T11C2.300
T12C2.388
T13C3.250
%
G90
G05
M71
T1
X125.85Y-136.35
X130.925Y-141.65
X132.9Y-143.6
X134.7Y-134.85
X134.9Y-141.65
X135.35Y-110.4
X135.35Y-111.9
X135.85Y-116.75
X137.2Y-118.75
X137.25Y-115.25
X137.25Y-116.25
X137.25Y-117.25
X137.7Y-120.8
X138.673Y-129.168
X138.673Y-130.668
X138.85Y-102.4
X139.3Y-99.4
X139.3Y-113.1
X139.8Y-113.65
X139.8Y-119.4
X139.875Y-145.825
X140.3Y-108.15
X140.3Y-113.1
X140.776Y-124.028
X140.8Y-113.65
X141.3Y-113.1
X141.3Y-119.4
X141.55Y-143.8
X141.55Y-146.3
X141.8Y-113.65
X141.8Y-120.4
X142.276Y-124.028
X142.3Y-113.025
X142.3Y-121.05
X142.35Y-122.8
X142.74Y-133.35
X142.8Y-113.65
X142.8Y-121.6
X142.85Y-108.5
X143.4Y-145.3
X143.578Y-134.109
X143.85Y-127.35
X144.03Y-144.8
X144.25Y-119.8
X144.4Y-130.13
X144.4Y-133.33
X144.5Y-118.25
X144.55Y-116.75
X144.6Y-128.85
X144.65Y-115.75
X144.908Y-117.75
X144.925Y-108.875
X145.2Y-115.25
X145.2Y-116.25
X145.2Y-130.93
X145.2Y-131.73
X145.2Y-132.53
X145.25Y-124.85
X145.25Y-125.75
X145.423Y-117.069
X145.56Y-145.32
X145.6Y-134.37
X146.3Y-103.7
X146.7Y-97.4
X146.7Y-106.8
X146.951Y-131.297
X146.951Y-133.233
X147.25Y-126.9
X149.05Y-129.
X149.554Y-126.716
X150.25Y-97.45
X150.35Y-118.7
X150.6Y-129.75
X150.6Y-130.65
X151.55Y-127.55
X151.8Y-116.075
X152.204Y-121.215
X153.104Y-121.215
X154.8Y-124.75
X156.4Y-110.9
X157.65Y-135.25
X157.65Y-136.25
X157.9Y-107.6
X158.2Y-114.75
X158.2Y-115.75
X158.2Y-116.75
X158.2Y-117.75
X158.2Y-118.75
X158.2Y-119.75
X158.2Y-120.75
X158.2Y-121.75
X158.2Y-122.75
X158.2Y-123.75
X158.2Y-124.75
X158.2Y-125.75
X158.2Y-126.75
X158.2Y-127.75
X158.2Y-128.75
X158.2Y-129.75
X158.2Y-132.75
X158.2Y-135.75
X158.202Y-130.748
X158.55Y-111.8
X158.55Y-113.
X158.8Y-114.25
X158.8Y-115.25
X158.8Y-116.25
X158.8Y-117.25
X158.8Y-118.25
X158.8Y-119.25
X158.8Y-120.25
X158.8Y-121.25
X158.8Y-122.25
X158.8Y-123.25
X158.8Y-124.25
X158.8Y-125.25
X158.8Y-126.25
X158.8Y-127.25
X158.8Y-128.25
X158.8Y-129.25
X158.8Y-130.25
X160.15Y-111.8
X160.15Y-113.
X161.05Y-112.45
X161.05Y-113.75
X161.95Y-112.45
X161.95Y-113.75
X162.15Y-98.55
X162.15Y-100.45
X163.15Y-113.85
X163.15Y-114.75
X164.4Y-113.35
X164.4Y-114.25
X165.65Y-115.25
X166.95Y-115.75
X175.4Y-120.35
X176.9Y-120.35
X177.3Y-109.75
X178.3Y-108.35
X178.3Y-109.45
X178.55Y-118.35
X178.55Y-119.35
X178.55Y-120.35
X178.55Y-121.35
X178.55Y-122.35
X178.55Y-123.35
X178.55Y-124.35
X178.55Y-125.35
X178.55Y-127.35
X178.55Y-128.35
X178.55Y-129.35
X178.55Y-132.35
X178.55Y-134.35
X179.55Y-118.35
X179.55Y-119.35
X179.55Y-120.35
X179.55Y-121.35
X179.55Y-122.35
X179.55Y-123.35
X179.55Y-124.35
X179.55Y-125.35
X179.55Y-126.35
X179.55Y-127.35
X179.55Y-128.35
X179.55Y-129.35
X179.55Y-130.35
X179.55Y-132.35
X179.55Y-133.35
X179.55Y-134.35
X180.33Y-109.6
X180.33Y-111.9
X180.5Y-107.
X180.55Y-118.35
X180.55Y-119.35
X180.55Y-120.35
X180.55Y-121.35
X180.55Y-122.35
X180.55Y-123.35
X180.55Y-124.35
X180.55Y-125.35
X180.55Y-127.35
X180.55Y-128.35
X180.55Y-129.35
X180.55Y-130.35
X181.55Y-118.35
X181.55Y-119.35
X181.55Y-120.35
X181.55Y-121.35
X181.55Y-122.35
X181.55Y-123.35
X181.55Y-124.35
X181.55Y-127.35
X181.55Y-128.35
X181.55Y-129.35
X181.55Y-130.35
X181.55Y-131.35
X181.55Y-132.35
X181.55Y-133.35
X182.55Y-118.35
X182.55Y-120.35
X182.55Y-121.35
X182.55Y-127.35
X182.55Y-131.35
X182.55Y-132.35
X182.55Y-134.35
X182.87Y-109.6
X182.87Y-111.9
X183.5Y-107.
X183.55Y-118.35
X183.55Y-119.35
X183.55Y-120.35
X183.55Y-121.35
X183.55Y-122.35
X183.55Y-123.35
X183.55Y-124.35
X183.55Y-125.35
X183.55Y-126.35
X183.55Y-127.35
X183.55Y-129.35
X183.55Y-130.35
X183.55Y-131.35
X183.55Y-133.35
X183.55Y-134.35
X184.55Y-116.95
X184.55Y-121.35
X184.55Y-122.35
X184.55Y-123.35
X184.55Y-124.35
X184.55Y-125.35
X184.55Y-126.35
X184.55Y-128.35
X184.55Y-129.35
X184.55Y-130.35
X184.55Y-131.35
X184.55Y-132.35
X184.55Y-133.35
X184.55Y-134.35
X184.9Y-110.7
X185.55Y-118.35
X185.55Y-119.35
X185.55Y-122.35
X185.55Y-123.35
X185.55Y-124.35
X185.55Y-126.35
X185.55Y-128.35
X185.55Y-129.35
X185.55Y-130.35
X185.55Y-131.35
X185.55Y-134.35
X186.025Y-116.95
X186.5Y-134.4
X186.55Y-118.35
X186.55Y-119.35
X186.55Y-120.35
X186.55Y-121.35
X186.55Y-122.35
X186.55Y-123.35
X186.55Y-124.35
X186.55Y-125.35
X187.55Y-118.35
X187.55Y-119.35
X187.55Y-120.35
X187.55Y-122.35
X187.55Y-123.35
X187.55Y-125.35
X187.55Y-127.35
X187.55Y-128.35
X187.55Y-129.35
X187.55Y-130.35
X187.55Y-131.35
X187.55Y-133.35
X188.55Y-119.35
X188.55Y-120.35
X188.55Y-121.35
X188.55Y-122.35
X188.55Y-123.35
X188.55Y-124.35
X188.55Y-126.35
X188.55Y-127.35
X188.55Y-128.35
X188.55Y-130.35
X188.55Y-131.35
X188.55Y-132.35
X188.55Y-133.35
X188.55Y-134.35
X188.563Y-129.341
X189.05Y-113.95
X189.55Y-118.35
X189.55Y-119.35
X189.55Y-120.35
X189.55Y-121.35
X189.55Y-122.35
X189.55Y-123.35
X189.55Y-124.35
X189.55Y-125.35
X189.55Y-130.35
X189.55Y-132.35
X189.563Y-127.341
X189.563Y-128.341
X189.563Y-129.341
X189.6Y-134.35
X190.Y-102.1
X190.55Y-118.35
X190.55Y-119.35
X190.55Y-120.35
X190.55Y-121.35
X190.55Y-122.35
X190.55Y-123.35
X190.55Y-124.35
X190.55Y-126.35
X190.55Y-128.35
X190.55Y-129.35
X190.55Y-130.35
X190.55Y-131.35
X190.55Y-132.35
X190.55Y-133.35
X190.563Y-127.341
X190.773Y-107.673
X190.79Y-105.304
X190.8Y-101.3
X190.8Y-102.1
X190.8Y-102.9
X190.8Y-106.1
X191.4Y-111.1
X191.55Y-118.35
X191.55Y-119.35
X191.55Y-121.35
X191.55Y-122.35
X191.55Y-123.35
X191.55Y-124.35
X191.55Y-125.35
X191.55Y-126.35
X191.55Y-127.35
X191.55Y-128.35
X191.55Y-129.35
X191.55Y-130.35
X191.55Y-131.35
X191.55Y-132.35
X191.55Y-133.35
X191.592Y-105.3
X191.592Y-106.106
X191.6Y-102.1
X191.6Y-102.9
X192.4Y-101.3
X192.4Y-102.1
X192.4Y-105.3
X192.4Y-106.1
X192.4Y-113.2
X192.408Y-107.761
X192.55Y-118.35
X192.55Y-119.35
X192.55Y-120.35
X192.55Y-121.35
X192.55Y-122.35
X192.55Y-124.35
X192.55Y-125.35
X192.55Y-126.35
X192.55Y-128.35
X192.55Y-129.35
X192.55Y-130.35
X192.55Y-131.35
X192.55Y-133.35
X193.15Y-102.85
X193.2Y-106.1
X193.55Y-118.35
X193.55Y-119.35
X193.55Y-120.35
X193.55Y-121.35
X193.55Y-122.35
X193.55Y-123.35
X193.55Y-125.35
X193.55Y-126.35
X193.55Y-129.35
X193.55Y-131.35
X193.55Y-132.35
X193.8Y-107.9
X194.Y-102.1
X194.Y-102.9
X194.Y-105.3
X194.55Y-118.35
X194.55Y-119.35
X194.55Y-120.35
X194.55Y-121.35
X194.55Y-122.35
X194.55Y-123.35
X194.55Y-124.35
X194.55Y-125.35
X194.55Y-126.35
X194.55Y-129.35
X194.55Y-134.35
X194.55Y-136.2
X194.75Y-112.25
X194.8Y-101.3
X194.8Y-102.1
X194.8Y-102.9
X194.8Y-105.3
X194.8Y-106.1
X194.8Y-106.9
X194.85Y-131.3
X194.85Y-132.35
X195.5Y-119.8
X195.6Y-101.3
X195.6Y-102.1
X195.6Y-102.9
X195.6Y-105.3
X195.6Y-106.1
X195.6Y-106.9
X195.6Y-107.7
X196.2Y-110.9
X196.4Y-100.5
X196.4Y-101.3
X196.4Y-102.1
X196.4Y-106.1
X196.4Y-106.9
X196.4Y-107.7
X196.4Y-108.6
X197.2Y-102.1
X197.2Y-102.9
X197.2Y-105.3
X197.2Y-106.1
X197.25Y-135.808
X197.45Y-118.65
X197.618Y-128.147
X197.65Y-130.25
X197.75Y-126.85
X197.75Y-131.35
X197.75Y-132.45
X197.75Y-133.55
X197.75Y-134.65
X198.Y-101.3
X198.Y-102.1
X198.Y-102.9
X198.Y-106.1
X198.192Y-127.408
X198.209Y-128.844
X198.213Y-130.355
X198.274Y-133.724
X198.294Y-126.429
X198.3Y-129.45
X198.389Y-132.715
X198.8Y-101.3
X198.8Y-102.9
X198.8Y-105.3
X198.8Y-106.1
X198.8Y-108.5
X198.808Y-107.729
X199.45Y-125.75
X199.6Y-101.3
X199.6Y-102.1
X199.6Y-102.9
X199.6Y-105.3
X199.6Y-106.1
X199.6Y-106.9
X200.3Y-124.942
X200.4Y-101.3
X200.4Y-102.1
X200.4Y-102.9
X200.4Y-105.3
X200.4Y-106.1
X200.4Y-106.9
X200.4Y-107.7
X200.621Y-128.199
X200.642Y-127.408
X200.65Y-132.6
X200.65Y-133.7
X200.668Y-128.758
X200.7Y-126.3
X200.7Y-130.392
X200.703Y-129.558
X200.941Y-131.258
X201.093Y-132.092
X201.1Y-134.1
X201.2Y-101.3
X201.2Y-102.1
X201.2Y-102.9
X201.2Y-106.1
X201.2Y-106.9
X201.208Y-107.701
X201.992Y-108.055
X202.Y-101.3
X202.Y-102.9
X202.Y-106.1
X202.9Y-129.05
X203.292Y-124.966
X203.45Y-97.2
X203.5Y-129.7
X203.549Y-130.492
X203.55Y-131.1
X203.65Y-132.05
X203.7Y-102.8
X203.9Y-123.65
X203.95Y-128.2
X204.082Y-125.358
X204.275Y-98.114
X204.3Y-127.1
X204.927Y-134.127
X205.025Y-97.125
X206.Y-128.431
X206.1Y-130.4
X206.55Y-134.55
X206.7Y-133.1
X206.75Y-127.1
X207.777Y-131.277
X208.15Y-133.2
X208.45Y-101.1
X209.1Y-131.4
X209.198Y-129.898
X209.9Y-130.4
X211.3Y-124.85
X211.873Y-128.168
X214.481Y-119.95
X214.65Y-118.2
X216.35Y-116.2
X216.35Y-117.792
X217.3Y-109.45
X217.477Y-123.877
X217.65Y-116.2
X217.879Y-120.157
X217.947Y-121.857
X218.35Y-117.8
X218.4Y-109.45
X218.75Y-116.2
X219.119Y-124.458
X219.75Y-130.26
X219.824Y-114.6
X219.85Y-115.4
X219.85Y-116.2
X219.85Y-117.8
X219.85Y-118.617
X219.85Y-121.8
X219.85Y-122.642
X219.85Y-123.426
X220.65Y-114.6
X220.65Y-115.4
X220.65Y-116.2
X220.65Y-117.
X220.65Y-117.8
X220.65Y-119.4
X220.65Y-120.2
X220.65Y-121.
X220.65Y-121.8
X220.65Y-122.642
X220.65Y-123.426
X220.7Y-141.3
X220.7Y-143.4
X220.7Y-144.3
X220.746Y-138.4
X220.75Y-111.75
X221.1Y-126.7
X221.4Y-135.575
X221.45Y-114.6
X221.45Y-115.4
X221.45Y-116.2
X221.45Y-117.
X221.45Y-117.8
X221.45Y-118.6
X221.45Y-119.4
X221.45Y-120.2
X221.45Y-121.
X221.45Y-121.8
X221.45Y-122.6
X221.45Y-123.4
X221.456Y-111.506
X221.65Y-128.55
X221.75Y-130.15
X222.25Y-114.6
X222.25Y-116.2
X222.25Y-117.
X222.25Y-117.8
X222.25Y-118.6
X222.25Y-120.2
X222.25Y-121.
X222.25Y-121.8
X222.25Y-122.6
X222.25Y-123.4
X222.3Y-131.65
X222.75Y-142.2
X222.85Y-130.15
X222.95Y-113.45
X223.024Y-122.6
X223.05Y-114.6
X223.05Y-115.4
X223.05Y-117.
X223.05Y-117.8
X223.05Y-118.6
X223.05Y-119.4
X223.05Y-120.2
X223.05Y-121.
X223.05Y-121.8
X223.05Y-123.4
X223.062Y-137.942
X223.15Y-128.55
X223.65Y-139.325
X223.808Y-121.
X223.808Y-121.8
X223.842Y-122.592
X223.85Y-114.6
X223.85Y-115.4
X223.85Y-116.2
X223.85Y-117.
X223.85Y-119.4
X223.85Y-120.2
X223.85Y-123.4
X224.4Y-141.3
X224.4Y-143.4
X224.4Y-144.3
X224.65Y-114.45
X224.65Y-115.4
X224.65Y-117.
X224.65Y-117.8
X224.65Y-118.6
X224.65Y-119.4
X224.65Y-121.
X224.65Y-121.8
X225.1Y-127.6
X225.15Y-130.26
X225.15Y-131.53
X225.15Y-134.07
X225.45Y-114.6
X225.45Y-115.4
X225.45Y-116.2
X225.45Y-117.8
X225.45Y-118.6
X225.45Y-119.4
X225.45Y-120.2
X225.45Y-121.
X225.45Y-121.8
X225.45Y-123.4
X225.45Y-139.375
X226.2Y-127.6
X226.242Y-119.41
X226.25Y-114.6
X226.25Y-115.4
X226.25Y-116.2
X226.25Y-117.
X226.25Y-117.8
X226.25Y-118.6
X226.25Y-121.
X226.25Y-121.8
X226.25Y-122.6
X226.25Y-128.8
X226.35Y-142.25
X226.65Y-130.03
X226.95Y-111.
X227.Y-108.2
X227.Y-109.45
X227.05Y-114.6
X227.05Y-116.2
X227.05Y-117.
X227.05Y-117.8
X227.05Y-119.4
X227.05Y-120.2
X227.05Y-121.
X227.05Y-122.6
X227.05Y-123.4
X227.15Y-128.8
X227.297Y-106.328
X227.3Y-132.15
X227.3Y-134.05
X227.3Y-135.55
X227.45Y-148.2
X227.85Y-111.
X227.85Y-114.6
X227.85Y-115.4
X227.85Y-117.
X227.85Y-118.6
X227.85Y-119.4
X227.85Y-120.2
X227.85Y-121.
X227.85Y-121.8
X227.85Y-122.6
X227.85Y-123.4
X228.Y-113.4
X228.1Y-141.3
X228.1Y-143.4
X228.1Y-144.3
X228.36Y-126.21
X228.4Y-132.15
X228.55Y-130.45
X228.65Y-114.6
X228.65Y-121.
X228.75Y-111.
X228.8Y-108.2
X228.8Y-109.45
X228.8Y-124.2
X229.047Y-106.328
X229.1Y-113.4
X229.2Y-139.375
X229.35Y-115.4
X229.6Y-107.
X229.65Y-111.
X229.7Y-108.2
X229.7Y-109.45
X229.89Y-127.3
X229.9Y-124.2
X230.07Y-116.675
X230.07Y-117.325
X230.1Y-142.25
X231.15Y-119.9
X231.15Y-125.05
X231.45Y-112.6
X231.712Y-139.573
X231.95Y-107.
X231.95Y-110.428
X231.95Y-116.
X232.25Y-119.9
X232.269Y-140.081
X232.675Y-113.025
X232.75Y-123.35
X232.75Y-126.5
X232.85Y-125.05
X233.Y-108.85
X233.375Y-134.8
X233.575Y-135.35
X233.85Y-120.675
X234.175Y-135.85
X234.35Y-125.1
X234.45Y-114.3
X234.75Y-115.75
X234.75Y-120.675
X234.8Y-108.8
X235.7Y-108.8
X235.7Y-110.95
X235.9Y-133.2
X236.4Y-112.8
X237.3Y-134.
X237.75Y-143.9
X237.8Y-137.
X238.25Y-137.6
X238.3Y-134.05
X238.849Y-133.995
X240.Y-125.5
X240.Y-126.
X240.Y-126.5
X240.Y-127.
X240.Y-130.
X240.Y-130.5
X240.Y-131.
X240.Y-131.5
X240.5Y-125.5
X240.5Y-126.
X240.5Y-126.5
X240.5Y-127.
X240.5Y-130.
X240.5Y-130.5
X240.5Y-131.
X240.5Y-131.5
X240.55Y-141.8
X241.Y-125.5
X241.Y-126.
X241.Y-126.5
X241.Y-127.
X241.Y-130.
X241.Y-130.5
X241.Y-131.
X241.Y-131.5
X241.5Y-125.5
X241.5Y-126.
X241.5Y-126.5
X241.5Y-127.
X241.5Y-130.
X241.5Y-130.5
X241.5Y-131.
X241.5Y-131.5
X241.69Y-138.11
X242.Y-125.5
X242.Y-126.
X242.Y-126.5
X242.Y-127.
X242.Y-130.
X242.Y-130.5
X242.Y-131.
X242.Y-131.5
X242.Y-137.125
X242.8Y-100.05
X242.8Y-101.15
X242.8Y-102.25
X242.8Y-104.45
X242.8Y-106.65
X242.8Y-107.75
X244.05Y-133.7
X244.4Y-148.2
X250.525Y-109.225
X251.175Y-97.275
X252.025Y-108.9
X253.6Y-97.75
T2
X132.Y-117.25
X135.1Y-123.1
X135.1Y-125.1
X135.25Y-118.25
X136.2Y-120.8
X136.85Y-122.55
X137.273Y-130.018
X138.35Y-122.55
X138.35Y-126.15
X138.35Y-127.65
X139.9Y-143.2
X139.9Y-144.7
X140.188Y-116.137
X140.188Y-117.862
X140.3Y-128.35
X140.3Y-129.85
X140.65Y-125.26
X141.85Y-135.4
X141.912Y-116.137
X141.912Y-117.862
X142.Y-127.1
X142.Y-129.1
X142.Y-130.8
X142.Y-132.3
X142.35Y-125.26
X143.35Y-135.4
X144.6Y-120.9
X144.85Y-135.35
X145.25Y-127.85
X145.9Y-112.8
X145.9Y-114.3
X146.35Y-135.35
X147.25Y-144.25
X147.6Y-112.25
X147.6Y-113.75
X147.6Y-116.3
X148.75Y-144.25
X149.4Y-100.4
X150.2Y-110.25
X150.2Y-111.75
X150.2Y-113.9
X150.2Y-115.4
X150.5Y-132.6
X150.5Y-134.1
X152.5Y-129.55
X152.5Y-131.375
X152.5Y-132.85
X152.6Y-123.85
X154.45Y-121.4
X154.45Y-122.9
X154.5Y-129.4
X154.5Y-130.9
X154.7Y-126.1
X154.7Y-127.6
X154.7Y-132.75
X154.7Y-134.25
X160.7Y-132.15
X160.7Y-133.65
X172.337Y-140.997
X173.95Y-132.6
X174.95Y-112.25
X175.1Y-130.
X175.5Y-122.35
X176.6Y-130.
X176.65Y-133.15
X176.9Y-125.8
X177.Y-122.35
X177.95Y-112.25
X178.Y-135.9
X182.275Y-115.25
X183.775Y-115.25
X186.35Y-138.85
X187.825Y-105.55
X187.825Y-107.05
X188.5Y-100.5
X188.5Y-102.
X188.5Y-136.2
X194.45Y-140.2
X194.95Y-151.2
X195.Y-147.099
X195.Y-149.299
X195.95Y-149.299
X196.9Y-149.299
X196.95Y-151.2
X197.2Y-137.65
X197.45Y-140.2
X200.Y-145.85
X200.85Y-139.05
X200.85Y-141.05
X203.65Y-107.3
X203.7Y-101.3
X203.7Y-105.8
X204.05Y-136.15
X205.15Y-107.3
X206.Y-123.05
X206.05Y-136.15
X206.3Y-101.3
X206.3Y-105.8
X208.Y-123.05
X209.4Y-102.85
X209.4Y-104.35
X210.Y-113.95
X211.95Y-106.65
X211.95Y-109.65
X214.55Y-109.2
X215.75Y-130.
X216.05Y-109.2
X216.85Y-113.05
X216.85Y-114.55
X216.9Y-128.3
X217.25Y-130.
X217.75Y-126.9
X218.15Y-111.55
X218.4Y-128.3
X218.65Y-113.05
X218.65Y-114.55
X219.25Y-126.9
X219.65Y-111.55
X221.15Y-140.05
X221.85Y-108.95
X223.35Y-108.95
X223.8Y-131.65
X225.1Y-98.55
X225.1Y-100.55
X226.05Y-103.6
X227.4Y-98.5
X228.35Y-98.5
X229.3Y-98.5
X229.7Y-122.95
X230.65Y-103.6
X231.9Y-134.75
X231.9Y-136.25
X232.2Y-142.25
X232.75Y-127.95
X233.575Y-113.025
X233.7Y-142.25
X234.25Y-127.95
X235.85Y-123.5
X235.85Y-125.
X236.3Y-114.3
X236.3Y-115.8
X236.3Y-139.
X237.8Y-139.
X240.6Y-133.7
X240.6Y-135.2
X241.9Y-140.1
X242.8Y-103.35
X242.8Y-105.55
X242.925Y-97.45
X242.925Y-109.05
X246.1Y-131.3
X247.05Y-131.3
X248.Y-131.3
X248.Y-135.44
X248.01Y-142.45
T3
X160.2Y-149.2
X160.2Y-151.2
X162.15Y-148.65
X162.15Y-149.6
X162.15Y-150.55
X165.65Y-113.7
X166.1Y-143.5
X166.1Y-145.5
X166.95Y-113.7
X171.587Y-149.597
X171.587Y-151.497
X172.537Y-149.597
X173.487Y-149.597
X173.587Y-151.497
T4
X151.95Y-100.4
X158.05Y-100.4
X245.34Y-115.1
X245.34Y-116.85
X245.34Y-119.35
X245.34Y-121.85
X245.34Y-123.6
T5
X247.34Y-118.1
X247.34Y-120.6
X249.34Y-118.1
X249.34Y-120.6
T6
X153.Y-97.45
X157.Y-97.45
T7
X180.47Y-147.
X180.47Y-149.54
X183.01Y-147.
X183.01Y-149.54
X185.55Y-147.
X185.55Y-149.54
X188.09Y-147.
X188.09Y-149.54
X190.63Y-147.
X190.63Y-149.54
X205.07Y-147.06
X205.07Y-149.6
X207.61Y-147.06
X207.61Y-149.6
X207.9Y-110.51
X207.9Y-113.05
X207.9Y-115.55
X210.15Y-147.06
X210.15Y-149.6
X212.69Y-147.06
X212.69Y-149.6
X215.23Y-147.06
X215.23Y-149.6
T8
X155.Y-98.
T9
X143.Y-98.5
X143.Y-105.7
T10
X114.2Y-103.34
X114.2Y-113.25
X114.2Y-136.34
X114.2Y-146.25
X114.205Y-119.84
X114.205Y-129.75
X121.82Y-103.34
X121.82Y-113.25
X121.82Y-136.34
X121.82Y-146.25
X121.825Y-119.84
X121.825Y-129.75
X131.98Y-103.34
X131.98Y-113.25
X131.98Y-136.34
X131.98Y-146.25
X131.985Y-119.84
X131.985Y-129.75
T11
X252.05Y-113.33
X252.05Y-125.37
T12
X251.591Y-132.379
X251.591Y-145.521
T13
X126.9Y-108.5
X126.9Y-141.5
X126.905Y-125.
T0
M30
