G04 #@! TF.FileFunction,Copper,L6,Inr,Signal*
%FSLAX46Y46*%
G04 Gerber Fmt 4.6, Leading zero omitted, Abs format (unit mm)*
G04 Created by KiCad (PCBNEW 4.0.4-stable) date 02/10/17 12:58:49*
%MOMM*%
%LPD*%
G01*
G04 APERTURE LIST*
%ADD10C,0.100000*%
%ADD11C,0.150000*%
%ADD12C,0.300000*%
%ADD13C,0.400000*%
%ADD14C,3.000000*%
%ADD15C,1.300000*%
%ADD16C,4.000000*%
%ADD17C,3.500000*%
%ADD18C,1.500000*%
%ADD19C,1.800000*%
%ADD20C,1.524000*%
%ADD21C,1.600000*%
%ADD22C,1.200000*%
%ADD23C,3.416000*%
%ADD24C,1.308000*%
%ADD25C,0.750000*%
%ADD26C,0.480000*%
G04 APERTURE END LIST*
D10*
D11*
X177002200Y-166007200D02*
X177002200Y-198007200D01*
X285002200Y-198007200D01*
X285002200Y-166007200D01*
X177002200Y-166007200D01*
D10*
D11*
X10000000Y-10000000D02*
X10000000Y-200007200D01*
X287002200Y-200007200D01*
X287002200Y-10000000D01*
X10000000Y-10000000D01*
D10*
D11*
X12000000Y-12000000D02*
X12000000Y-198007200D01*
X285002200Y-198007200D01*
X285002200Y-12000000D01*
X12000000Y-12000000D01*
D10*
D11*
X60000000Y-12000000D02*
X60000000Y-10000000D01*
D10*
D11*
X110000000Y-12000000D02*
X110000000Y-10000000D01*
D10*
D11*
X160000000Y-12000000D02*
X160000000Y-10000000D01*
D10*
D11*
X210000000Y-12000000D02*
X210000000Y-10000000D01*
D10*
D11*
X260000000Y-12000000D02*
X260000000Y-10000000D01*
D10*
D11*
X35990476Y-11588095D02*
X35247619Y-11588095D01*
X35619048Y-11588095D02*
X35619048Y-10288095D01*
X35495238Y-10473810D01*
X35371429Y-10597619D01*
X35247619Y-10659524D01*
D10*
D11*
X85247619Y-10411905D02*
X85309524Y-10350000D01*
X85433333Y-10288095D01*
X85742857Y-10288095D01*
X85866667Y-10350000D01*
X85928571Y-10411905D01*
X85990476Y-10535714D01*
X85990476Y-10659524D01*
X85928571Y-10845238D01*
X85185714Y-11588095D01*
X85990476Y-11588095D01*
D10*
D11*
X135185714Y-10288095D02*
X135990476Y-10288095D01*
X135557143Y-10783333D01*
X135742857Y-10783333D01*
X135866667Y-10845238D01*
X135928571Y-10907143D01*
X135990476Y-11030952D01*
X135990476Y-11340476D01*
X135928571Y-11464286D01*
X135866667Y-11526190D01*
X135742857Y-11588095D01*
X135371429Y-11588095D01*
X135247619Y-11526190D01*
X135185714Y-11464286D01*
D10*
D11*
X185866667Y-10721429D02*
X185866667Y-11588095D01*
X185557143Y-10226190D02*
X185247619Y-11154762D01*
X186052381Y-11154762D01*
D10*
D11*
X235928571Y-10288095D02*
X235309524Y-10288095D01*
X235247619Y-10907143D01*
X235309524Y-10845238D01*
X235433333Y-10783333D01*
X235742857Y-10783333D01*
X235866667Y-10845238D01*
X235928571Y-10907143D01*
X235990476Y-11030952D01*
X235990476Y-11340476D01*
X235928571Y-11464286D01*
X235866667Y-11526190D01*
X235742857Y-11588095D01*
X235433333Y-11588095D01*
X235309524Y-11526190D01*
X235247619Y-11464286D01*
D10*
D11*
X285866667Y-10288095D02*
X285619048Y-10288095D01*
X285495238Y-10350000D01*
X285433333Y-10411905D01*
X285309524Y-10597619D01*
X285247619Y-10845238D01*
X285247619Y-11340476D01*
X285309524Y-11464286D01*
X285371429Y-11526190D01*
X285495238Y-11588095D01*
X285742857Y-11588095D01*
X285866667Y-11526190D01*
X285928571Y-11464286D01*
X285990476Y-11340476D01*
X285990476Y-11030952D01*
X285928571Y-10907143D01*
X285866667Y-10845238D01*
X285742857Y-10783333D01*
X285495238Y-10783333D01*
X285371429Y-10845238D01*
X285309524Y-10907143D01*
X285247619Y-11030952D01*
D10*
D11*
X60000000Y-198007200D02*
X60000000Y-200007200D01*
D10*
D11*
X110000000Y-198007200D02*
X110000000Y-200007200D01*
D10*
D11*
X160000000Y-198007200D02*
X160000000Y-200007200D01*
D10*
D11*
X210000000Y-198007200D02*
X210000000Y-200007200D01*
D10*
D11*
X260000000Y-198007200D02*
X260000000Y-200007200D01*
D10*
D11*
X35990476Y-199595295D02*
X35247619Y-199595295D01*
X35619048Y-199595295D02*
X35619048Y-198295295D01*
X35495238Y-198481010D01*
X35371429Y-198604819D01*
X35247619Y-198666724D01*
D10*
D11*
X85247619Y-198419105D02*
X85309524Y-198357200D01*
X85433333Y-198295295D01*
X85742857Y-198295295D01*
X85866667Y-198357200D01*
X85928571Y-198419105D01*
X85990476Y-198542914D01*
X85990476Y-198666724D01*
X85928571Y-198852438D01*
X85185714Y-199595295D01*
X85990476Y-199595295D01*
D10*
D11*
X135185714Y-198295295D02*
X135990476Y-198295295D01*
X135557143Y-198790533D01*
X135742857Y-198790533D01*
X135866667Y-198852438D01*
X135928571Y-198914343D01*
X135990476Y-199038152D01*
X135990476Y-199347676D01*
X135928571Y-199471486D01*
X135866667Y-199533390D01*
X135742857Y-199595295D01*
X135371429Y-199595295D01*
X135247619Y-199533390D01*
X135185714Y-199471486D01*
D10*
D11*
X185866667Y-198728629D02*
X185866667Y-199595295D01*
X185557143Y-198233390D02*
X185247619Y-199161962D01*
X186052381Y-199161962D01*
D10*
D11*
X235928571Y-198295295D02*
X235309524Y-198295295D01*
X235247619Y-198914343D01*
X235309524Y-198852438D01*
X235433333Y-198790533D01*
X235742857Y-198790533D01*
X235866667Y-198852438D01*
X235928571Y-198914343D01*
X235990476Y-199038152D01*
X235990476Y-199347676D01*
X235928571Y-199471486D01*
X235866667Y-199533390D01*
X235742857Y-199595295D01*
X235433333Y-199595295D01*
X235309524Y-199533390D01*
X235247619Y-199471486D01*
D10*
D11*
X285866667Y-198295295D02*
X285619048Y-198295295D01*
X285495238Y-198357200D01*
X285433333Y-198419105D01*
X285309524Y-198604819D01*
X285247619Y-198852438D01*
X285247619Y-199347676D01*
X285309524Y-199471486D01*
X285371429Y-199533390D01*
X285495238Y-199595295D01*
X285742857Y-199595295D01*
X285866667Y-199533390D01*
X285928571Y-199471486D01*
X285990476Y-199347676D01*
X285990476Y-199038152D01*
X285928571Y-198914343D01*
X285866667Y-198852438D01*
X285742857Y-198790533D01*
X285495238Y-198790533D01*
X285371429Y-198852438D01*
X285309524Y-198914343D01*
X285247619Y-199038152D01*
D10*
D11*
X10000000Y-60000000D02*
X12000000Y-60000000D01*
D10*
D11*
X10000000Y-110000000D02*
X12000000Y-110000000D01*
D10*
D11*
X10000000Y-160000000D02*
X12000000Y-160000000D01*
D10*
D11*
X10690476Y-35216667D02*
X11309524Y-35216667D01*
X10566667Y-35588095D02*
X11000000Y-34288095D01*
X11433333Y-35588095D01*
D10*
D11*
X11092857Y-84907143D02*
X11278571Y-84969048D01*
X11340476Y-85030952D01*
X11402381Y-85154762D01*
X11402381Y-85340476D01*
X11340476Y-85464286D01*
X11278571Y-85526190D01*
X11154762Y-85588095D01*
X10659524Y-85588095D01*
X10659524Y-84288095D01*
X11092857Y-84288095D01*
X11216667Y-84350000D01*
X11278571Y-84411905D01*
X11340476Y-84535714D01*
X11340476Y-84659524D01*
X11278571Y-84783333D01*
X11216667Y-84845238D01*
X11092857Y-84907143D01*
X10659524Y-84907143D01*
D10*
D11*
X11402381Y-135464286D02*
X11340476Y-135526190D01*
X11154762Y-135588095D01*
X11030952Y-135588095D01*
X10845238Y-135526190D01*
X10721429Y-135402381D01*
X10659524Y-135278571D01*
X10597619Y-135030952D01*
X10597619Y-134845238D01*
X10659524Y-134597619D01*
X10721429Y-134473810D01*
X10845238Y-134350000D01*
X11030952Y-134288095D01*
X11154762Y-134288095D01*
X11340476Y-134350000D01*
X11402381Y-134411905D01*
D10*
D11*
X10659524Y-185588095D02*
X10659524Y-184288095D01*
X10969048Y-184288095D01*
X11154762Y-184350000D01*
X11278571Y-184473810D01*
X11340476Y-184597619D01*
X11402381Y-184845238D01*
X11402381Y-185030952D01*
X11340476Y-185278571D01*
X11278571Y-185402381D01*
X11154762Y-185526190D01*
X10969048Y-185588095D01*
X10659524Y-185588095D01*
D10*
D11*
X287002200Y-60000000D02*
X285002200Y-60000000D01*
D10*
D11*
X287002200Y-110000000D02*
X285002200Y-110000000D01*
D10*
D11*
X287002200Y-160000000D02*
X285002200Y-160000000D01*
D10*
D11*
X285692676Y-35216667D02*
X286311724Y-35216667D01*
X285568867Y-35588095D02*
X286002200Y-34288095D01*
X286435533Y-35588095D01*
D10*
D11*
X286095057Y-84907143D02*
X286280771Y-84969048D01*
X286342676Y-85030952D01*
X286404581Y-85154762D01*
X286404581Y-85340476D01*
X286342676Y-85464286D01*
X286280771Y-85526190D01*
X286156962Y-85588095D01*
X285661724Y-85588095D01*
X285661724Y-84288095D01*
X286095057Y-84288095D01*
X286218867Y-84350000D01*
X286280771Y-84411905D01*
X286342676Y-84535714D01*
X286342676Y-84659524D01*
X286280771Y-84783333D01*
X286218867Y-84845238D01*
X286095057Y-84907143D01*
X285661724Y-84907143D01*
D10*
D11*
X286404581Y-135464286D02*
X286342676Y-135526190D01*
X286156962Y-135588095D01*
X286033152Y-135588095D01*
X285847438Y-135526190D01*
X285723629Y-135402381D01*
X285661724Y-135278571D01*
X285599819Y-135030952D01*
X285599819Y-134845238D01*
X285661724Y-134597619D01*
X285723629Y-134473810D01*
X285847438Y-134350000D01*
X286033152Y-134288095D01*
X286156962Y-134288095D01*
X286342676Y-134350000D01*
X286404581Y-134411905D01*
D10*
D11*
X285661724Y-185588095D02*
X285661724Y-184288095D01*
X285971248Y-184288095D01*
X286156962Y-184350000D01*
X286280771Y-184473810D01*
X286342676Y-184597619D01*
X286404581Y-184845238D01*
X286404581Y-185030952D01*
X286342676Y-185278571D01*
X286280771Y-185402381D01*
X286156962Y-185526190D01*
X285971248Y-185588095D01*
X285661724Y-185588095D01*
D10*
D11*
X200359343Y-193785771D02*
X200359343Y-192285771D01*
X200716486Y-192285771D01*
X200930771Y-192357200D01*
X201073629Y-192500057D01*
X201145057Y-192642914D01*
X201216486Y-192928629D01*
X201216486Y-193142914D01*
X201145057Y-193428629D01*
X201073629Y-193571486D01*
X200930771Y-193714343D01*
X200716486Y-193785771D01*
X200359343Y-193785771D01*
X202502200Y-193785771D02*
X202502200Y-193000057D01*
X202430771Y-192857200D01*
X202287914Y-192785771D01*
X202002200Y-192785771D01*
X201859343Y-192857200D01*
X202502200Y-193714343D02*
X202359343Y-193785771D01*
X202002200Y-193785771D01*
X201859343Y-193714343D01*
X201787914Y-193571486D01*
X201787914Y-193428629D01*
X201859343Y-193285771D01*
X202002200Y-193214343D01*
X202359343Y-193214343D01*
X202502200Y-193142914D01*
X203002200Y-192785771D02*
X203573629Y-192785771D01*
X203216486Y-192285771D02*
X203216486Y-193571486D01*
X203287914Y-193714343D01*
X203430772Y-193785771D01*
X203573629Y-193785771D01*
X204645057Y-193714343D02*
X204502200Y-193785771D01*
X204216486Y-193785771D01*
X204073629Y-193714343D01*
X204002200Y-193571486D01*
X204002200Y-193000057D01*
X204073629Y-192857200D01*
X204216486Y-192785771D01*
X204502200Y-192785771D01*
X204645057Y-192857200D01*
X204716486Y-193000057D01*
X204716486Y-193142914D01*
X204002200Y-193285771D01*
X205359343Y-193642914D02*
X205430771Y-193714343D01*
X205359343Y-193785771D01*
X205287914Y-193714343D01*
X205359343Y-193642914D01*
X205359343Y-193785771D01*
X205359343Y-192857200D02*
X205430771Y-192928629D01*
X205359343Y-193000057D01*
X205287914Y-192928629D01*
X205359343Y-192857200D01*
X205359343Y-193000057D01*
D10*
D11*
X177002200Y-194507200D02*
X285002200Y-194507200D01*
D10*
D11*
X178359343Y-196585771D02*
X178359343Y-195085771D01*
X179216486Y-196585771D02*
X178573629Y-195728629D01*
X179216486Y-195085771D02*
X178359343Y-195942914D01*
X179859343Y-196585771D02*
X179859343Y-195585771D01*
X179859343Y-195085771D02*
X179787914Y-195157200D01*
X179859343Y-195228629D01*
X179930771Y-195157200D01*
X179859343Y-195085771D01*
X179859343Y-195228629D01*
X181430772Y-196442914D02*
X181359343Y-196514343D01*
X181145057Y-196585771D01*
X181002200Y-196585771D01*
X180787915Y-196514343D01*
X180645057Y-196371486D01*
X180573629Y-196228629D01*
X180502200Y-195942914D01*
X180502200Y-195728629D01*
X180573629Y-195442914D01*
X180645057Y-195300057D01*
X180787915Y-195157200D01*
X181002200Y-195085771D01*
X181145057Y-195085771D01*
X181359343Y-195157200D01*
X181430772Y-195228629D01*
X182716486Y-196585771D02*
X182716486Y-195800057D01*
X182645057Y-195657200D01*
X182502200Y-195585771D01*
X182216486Y-195585771D01*
X182073629Y-195657200D01*
X182716486Y-196514343D02*
X182573629Y-196585771D01*
X182216486Y-196585771D01*
X182073629Y-196514343D01*
X182002200Y-196371486D01*
X182002200Y-196228629D01*
X182073629Y-196085771D01*
X182216486Y-196014343D01*
X182573629Y-196014343D01*
X182716486Y-195942914D01*
X184073629Y-196585771D02*
X184073629Y-195085771D01*
X184073629Y-196514343D02*
X183930772Y-196585771D01*
X183645058Y-196585771D01*
X183502200Y-196514343D01*
X183430772Y-196442914D01*
X183359343Y-196300057D01*
X183359343Y-195871486D01*
X183430772Y-195728629D01*
X183502200Y-195657200D01*
X183645058Y-195585771D01*
X183930772Y-195585771D01*
X184073629Y-195657200D01*
X185930772Y-195800057D02*
X186430772Y-195800057D01*
X186645058Y-196585771D02*
X185930772Y-196585771D01*
X185930772Y-195085771D01*
X186645058Y-195085771D01*
X187287915Y-196442914D02*
X187359343Y-196514343D01*
X187287915Y-196585771D01*
X187216486Y-196514343D01*
X187287915Y-196442914D01*
X187287915Y-196585771D01*
X188002201Y-196585771D02*
X188002201Y-195085771D01*
X188359344Y-195085771D01*
X188573629Y-195157200D01*
X188716487Y-195300057D01*
X188787915Y-195442914D01*
X188859344Y-195728629D01*
X188859344Y-195942914D01*
X188787915Y-196228629D01*
X188716487Y-196371486D01*
X188573629Y-196514343D01*
X188359344Y-196585771D01*
X188002201Y-196585771D01*
X189502201Y-196442914D02*
X189573629Y-196514343D01*
X189502201Y-196585771D01*
X189430772Y-196514343D01*
X189502201Y-196442914D01*
X189502201Y-196585771D01*
X190145058Y-196157200D02*
X190859344Y-196157200D01*
X190002201Y-196585771D02*
X190502201Y-195085771D01*
X191002201Y-196585771D01*
X191502201Y-196442914D02*
X191573629Y-196514343D01*
X191502201Y-196585771D01*
X191430772Y-196514343D01*
X191502201Y-196442914D01*
X191502201Y-196585771D01*
X194502201Y-196585771D02*
X194502201Y-195085771D01*
X194645058Y-196014343D02*
X195073629Y-196585771D01*
X195073629Y-195585771D02*
X194502201Y-196157200D01*
X195716487Y-196585771D02*
X195716487Y-195585771D01*
X195716487Y-195085771D02*
X195645058Y-195157200D01*
X195716487Y-195228629D01*
X195787915Y-195157200D01*
X195716487Y-195085771D01*
X195716487Y-195228629D01*
X197073630Y-196514343D02*
X196930773Y-196585771D01*
X196645059Y-196585771D01*
X196502201Y-196514343D01*
X196430773Y-196442914D01*
X196359344Y-196300057D01*
X196359344Y-195871486D01*
X196430773Y-195728629D01*
X196502201Y-195657200D01*
X196645059Y-195585771D01*
X196930773Y-195585771D01*
X197073630Y-195657200D01*
X198359344Y-196585771D02*
X198359344Y-195800057D01*
X198287915Y-195657200D01*
X198145058Y-195585771D01*
X197859344Y-195585771D01*
X197716487Y-195657200D01*
X198359344Y-196514343D02*
X198216487Y-196585771D01*
X197859344Y-196585771D01*
X197716487Y-196514343D01*
X197645058Y-196371486D01*
X197645058Y-196228629D01*
X197716487Y-196085771D01*
X197859344Y-196014343D01*
X198216487Y-196014343D01*
X198359344Y-195942914D01*
X199716487Y-196585771D02*
X199716487Y-195085771D01*
X199716487Y-196514343D02*
X199573630Y-196585771D01*
X199287916Y-196585771D01*
X199145058Y-196514343D01*
X199073630Y-196442914D01*
X199002201Y-196300057D01*
X199002201Y-195871486D01*
X199073630Y-195728629D01*
X199145058Y-195657200D01*
X199287916Y-195585771D01*
X199573630Y-195585771D01*
X199716487Y-195657200D01*
X202216487Y-195585771D02*
X202216487Y-196585771D01*
X201859344Y-195014343D02*
X201502201Y-196085771D01*
X202430773Y-196085771D01*
X203002201Y-196442914D02*
X203073629Y-196514343D01*
X203002201Y-196585771D01*
X202930772Y-196514343D01*
X203002201Y-196442914D01*
X203002201Y-196585771D01*
X204002201Y-195085771D02*
X204145058Y-195085771D01*
X204287915Y-195157200D01*
X204359344Y-195228629D01*
X204430773Y-195371486D01*
X204502201Y-195657200D01*
X204502201Y-196014343D01*
X204430773Y-196300057D01*
X204359344Y-196442914D01*
X204287915Y-196514343D01*
X204145058Y-196585771D01*
X204002201Y-196585771D01*
X203859344Y-196514343D01*
X203787915Y-196442914D01*
X203716487Y-196300057D01*
X203645058Y-196014343D01*
X203645058Y-195657200D01*
X203716487Y-195371486D01*
X203787915Y-195228629D01*
X203859344Y-195157200D01*
X204002201Y-195085771D01*
X205145058Y-196442914D02*
X205216486Y-196514343D01*
X205145058Y-196585771D01*
X205073629Y-196514343D01*
X205145058Y-196442914D01*
X205145058Y-196585771D01*
X206502201Y-195585771D02*
X206502201Y-196585771D01*
X206145058Y-195014343D02*
X205787915Y-196085771D01*
X206716487Y-196085771D01*
X207287915Y-196014343D02*
X208430772Y-196014343D01*
X209073629Y-196514343D02*
X209216486Y-196585771D01*
X209502201Y-196585771D01*
X209645058Y-196514343D01*
X209716486Y-196371486D01*
X209716486Y-196300057D01*
X209645058Y-196157200D01*
X209502201Y-196085771D01*
X209287915Y-196085771D01*
X209145058Y-196014343D01*
X209073629Y-195871486D01*
X209073629Y-195800057D01*
X209145058Y-195657200D01*
X209287915Y-195585771D01*
X209502201Y-195585771D01*
X209645058Y-195657200D01*
X210145058Y-195585771D02*
X210716487Y-195585771D01*
X210359344Y-195085771D02*
X210359344Y-196371486D01*
X210430772Y-196514343D01*
X210573630Y-196585771D01*
X210716487Y-196585771D01*
X211859344Y-196585771D02*
X211859344Y-195800057D01*
X211787915Y-195657200D01*
X211645058Y-195585771D01*
X211359344Y-195585771D01*
X211216487Y-195657200D01*
X211859344Y-196514343D02*
X211716487Y-196585771D01*
X211359344Y-196585771D01*
X211216487Y-196514343D01*
X211145058Y-196371486D01*
X211145058Y-196228629D01*
X211216487Y-196085771D01*
X211359344Y-196014343D01*
X211716487Y-196014343D01*
X211859344Y-195942914D01*
X212573630Y-196585771D02*
X212573630Y-195085771D01*
X212573630Y-195657200D02*
X212716487Y-195585771D01*
X213002201Y-195585771D01*
X213145058Y-195657200D01*
X213216487Y-195728629D01*
X213287916Y-195871486D01*
X213287916Y-196300057D01*
X213216487Y-196442914D01*
X213145058Y-196514343D01*
X213002201Y-196585771D01*
X212716487Y-196585771D01*
X212573630Y-196514343D01*
X214145059Y-196585771D02*
X214002201Y-196514343D01*
X213930773Y-196371486D01*
X213930773Y-195085771D01*
X215287915Y-196514343D02*
X215145058Y-196585771D01*
X214859344Y-196585771D01*
X214716487Y-196514343D01*
X214645058Y-196371486D01*
X214645058Y-195800057D01*
X214716487Y-195657200D01*
X214859344Y-195585771D01*
X215145058Y-195585771D01*
X215287915Y-195657200D01*
X215359344Y-195800057D01*
X215359344Y-195942914D01*
X214645058Y-196085771D01*
D10*
D11*
X177002200Y-191507200D02*
X285002200Y-191507200D01*
D10*
D12*
X264216486Y-193785771D02*
X263716486Y-193071486D01*
X263359343Y-193785771D02*
X263359343Y-192285771D01*
X263930771Y-192285771D01*
X264073629Y-192357200D01*
X264145057Y-192428629D01*
X264216486Y-192571486D01*
X264216486Y-192785771D01*
X264145057Y-192928629D01*
X264073629Y-193000057D01*
X263930771Y-193071486D01*
X263359343Y-193071486D01*
X265430771Y-193714343D02*
X265287914Y-193785771D01*
X265002200Y-193785771D01*
X264859343Y-193714343D01*
X264787914Y-193571486D01*
X264787914Y-193000057D01*
X264859343Y-192857200D01*
X265002200Y-192785771D01*
X265287914Y-192785771D01*
X265430771Y-192857200D01*
X265502200Y-193000057D01*
X265502200Y-193142914D01*
X264787914Y-193285771D01*
X266002200Y-192785771D02*
X266359343Y-193785771D01*
X266716485Y-192785771D01*
X267287914Y-193642914D02*
X267359342Y-193714343D01*
X267287914Y-193785771D01*
X267216485Y-193714343D01*
X267287914Y-193642914D01*
X267287914Y-193785771D01*
X267287914Y-192857200D02*
X267359342Y-192928629D01*
X267287914Y-193000057D01*
X267216485Y-192928629D01*
X267287914Y-192857200D01*
X267287914Y-193000057D01*
D10*
D11*
X178287914Y-193714343D02*
X178502200Y-193785771D01*
X178859343Y-193785771D01*
X179002200Y-193714343D01*
X179073629Y-193642914D01*
X179145057Y-193500057D01*
X179145057Y-193357200D01*
X179073629Y-193214343D01*
X179002200Y-193142914D01*
X178859343Y-193071486D01*
X178573629Y-193000057D01*
X178430771Y-192928629D01*
X178359343Y-192857200D01*
X178287914Y-192714343D01*
X178287914Y-192571486D01*
X178359343Y-192428629D01*
X178430771Y-192357200D01*
X178573629Y-192285771D01*
X178930771Y-192285771D01*
X179145057Y-192357200D01*
X179787914Y-193785771D02*
X179787914Y-192785771D01*
X179787914Y-192285771D02*
X179716485Y-192357200D01*
X179787914Y-192428629D01*
X179859342Y-192357200D01*
X179787914Y-192285771D01*
X179787914Y-192428629D01*
X180359343Y-192785771D02*
X181145057Y-192785771D01*
X180359343Y-193785771D01*
X181145057Y-193785771D01*
X182287914Y-193714343D02*
X182145057Y-193785771D01*
X181859343Y-193785771D01*
X181716486Y-193714343D01*
X181645057Y-193571486D01*
X181645057Y-193000057D01*
X181716486Y-192857200D01*
X181859343Y-192785771D01*
X182145057Y-192785771D01*
X182287914Y-192857200D01*
X182359343Y-193000057D01*
X182359343Y-193142914D01*
X181645057Y-193285771D01*
X183002200Y-193642914D02*
X183073628Y-193714343D01*
X183002200Y-193785771D01*
X182930771Y-193714343D01*
X183002200Y-193642914D01*
X183002200Y-193785771D01*
X183002200Y-192857200D02*
X183073628Y-192928629D01*
X183002200Y-193000057D01*
X182930771Y-192928629D01*
X183002200Y-192857200D01*
X183002200Y-193000057D01*
X184787914Y-193357200D02*
X185502200Y-193357200D01*
X184645057Y-193785771D02*
X185145057Y-192285771D01*
X185645057Y-193785771D01*
X186787914Y-192785771D02*
X186787914Y-193785771D01*
X186430771Y-192214343D02*
X186073628Y-193285771D01*
X187002200Y-193285771D01*
D10*
D11*
X263359343Y-196585771D02*
X263359343Y-195085771D01*
X264716486Y-196585771D02*
X264716486Y-195085771D01*
X264716486Y-196514343D02*
X264573629Y-196585771D01*
X264287915Y-196585771D01*
X264145057Y-196514343D01*
X264073629Y-196442914D01*
X264002200Y-196300057D01*
X264002200Y-195871486D01*
X264073629Y-195728629D01*
X264145057Y-195657200D01*
X264287915Y-195585771D01*
X264573629Y-195585771D01*
X264716486Y-195657200D01*
X265430772Y-196442914D02*
X265502200Y-196514343D01*
X265430772Y-196585771D01*
X265359343Y-196514343D01*
X265430772Y-196442914D01*
X265430772Y-196585771D01*
X265430772Y-195657200D02*
X265502200Y-195728629D01*
X265430772Y-195800057D01*
X265359343Y-195728629D01*
X265430772Y-195657200D01*
X265430772Y-195800057D01*
X268073629Y-196585771D02*
X267216486Y-196585771D01*
X267645058Y-196585771D02*
X267645058Y-195085771D01*
X267502201Y-195300057D01*
X267359343Y-195442914D01*
X267216486Y-195514343D01*
X269787914Y-195014343D02*
X268502200Y-196942914D01*
X271073629Y-196585771D02*
X270216486Y-196585771D01*
X270645058Y-196585771D02*
X270645058Y-195085771D01*
X270502201Y-195300057D01*
X270359343Y-195442914D01*
X270216486Y-195514343D01*
D10*
D11*
X177002200Y-187507200D02*
X285002200Y-187507200D01*
D10*
D13*
X178454581Y-188211962D02*
X179597438Y-188211962D01*
X178776010Y-190211962D02*
X179026010Y-188211962D01*
X180014105Y-190211962D02*
X180180771Y-188878629D01*
X180264105Y-188211962D02*
X180156962Y-188307200D01*
X180240295Y-188402438D01*
X180347439Y-188307200D01*
X180264105Y-188211962D01*
X180240295Y-188402438D01*
X180847438Y-188878629D02*
X181609343Y-188878629D01*
X181216486Y-188211962D02*
X181002200Y-189926248D01*
X181073630Y-190116724D01*
X181252201Y-190211962D01*
X181442677Y-190211962D01*
X182395058Y-190211962D02*
X182216487Y-190116724D01*
X182145057Y-189926248D01*
X182359343Y-188211962D01*
X183930772Y-190116724D02*
X183728391Y-190211962D01*
X183347439Y-190211962D01*
X183168867Y-190116724D01*
X183097438Y-189926248D01*
X183192676Y-189164343D01*
X183311724Y-188973867D01*
X183514105Y-188878629D01*
X183895057Y-188878629D01*
X184073629Y-188973867D01*
X184145057Y-189164343D01*
X184121248Y-189354819D01*
X183145057Y-189545295D01*
X184895057Y-190021486D02*
X184978392Y-190116724D01*
X184871248Y-190211962D01*
X184787915Y-190116724D01*
X184895057Y-190021486D01*
X184871248Y-190211962D01*
X185026010Y-188973867D02*
X185109344Y-189069105D01*
X185002200Y-189164343D01*
X184918867Y-189069105D01*
X185026010Y-188973867D01*
X185002200Y-189164343D01*
D10*
D11*
X178859343Y-185600057D02*
X178359343Y-185600057D01*
X178359343Y-186385771D02*
X178359343Y-184885771D01*
X179073629Y-184885771D01*
X179645057Y-186385771D02*
X179645057Y-185385771D01*
X179645057Y-184885771D02*
X179573628Y-184957200D01*
X179645057Y-185028629D01*
X179716485Y-184957200D01*
X179645057Y-184885771D01*
X179645057Y-185028629D01*
X180573629Y-186385771D02*
X180430771Y-186314343D01*
X180359343Y-186171486D01*
X180359343Y-184885771D01*
X181716485Y-186314343D02*
X181573628Y-186385771D01*
X181287914Y-186385771D01*
X181145057Y-186314343D01*
X181073628Y-186171486D01*
X181073628Y-185600057D01*
X181145057Y-185457200D01*
X181287914Y-185385771D01*
X181573628Y-185385771D01*
X181716485Y-185457200D01*
X181787914Y-185600057D01*
X181787914Y-185742914D01*
X181073628Y-185885771D01*
X182430771Y-186242914D02*
X182502199Y-186314343D01*
X182430771Y-186385771D01*
X182359342Y-186314343D01*
X182430771Y-186242914D01*
X182430771Y-186385771D01*
X182430771Y-185457200D02*
X182502199Y-185528629D01*
X182430771Y-185600057D01*
X182359342Y-185528629D01*
X182430771Y-185457200D01*
X182430771Y-185600057D01*
X184287914Y-186385771D02*
X184287914Y-184885771D01*
X184645057Y-184885771D01*
X184859342Y-184957200D01*
X185002200Y-185100057D01*
X185073628Y-185242914D01*
X185145057Y-185528629D01*
X185145057Y-185742914D01*
X185073628Y-186028629D01*
X185002200Y-186171486D01*
X184859342Y-186314343D01*
X184645057Y-186385771D01*
X184287914Y-186385771D01*
X186287914Y-185600057D02*
X185787914Y-185600057D01*
X185787914Y-186385771D02*
X185787914Y-184885771D01*
X186502200Y-184885771D01*
X186859342Y-184885771D02*
X187716485Y-184885771D01*
X187287914Y-186385771D02*
X187287914Y-184885771D01*
X188716485Y-185600057D02*
X188930771Y-185671486D01*
X189002199Y-185742914D01*
X189073628Y-185885771D01*
X189073628Y-186100057D01*
X189002199Y-186242914D01*
X188930771Y-186314343D01*
X188787913Y-186385771D01*
X188216485Y-186385771D01*
X188216485Y-184885771D01*
X188716485Y-184885771D01*
X188859342Y-184957200D01*
X188930771Y-185028629D01*
X189002199Y-185171486D01*
X189002199Y-185314343D01*
X188930771Y-185457200D01*
X188859342Y-185528629D01*
X188716485Y-185600057D01*
X188216485Y-185600057D01*
X189930771Y-186385771D02*
X189787913Y-186314343D01*
X189716485Y-186242914D01*
X189645056Y-186100057D01*
X189645056Y-185671486D01*
X189716485Y-185528629D01*
X189787913Y-185457200D01*
X189930771Y-185385771D01*
X190145056Y-185385771D01*
X190287913Y-185457200D01*
X190359342Y-185528629D01*
X190430771Y-185671486D01*
X190430771Y-186100057D01*
X190359342Y-186242914D01*
X190287913Y-186314343D01*
X190145056Y-186385771D01*
X189930771Y-186385771D01*
X191716485Y-186385771D02*
X191716485Y-185600057D01*
X191645056Y-185457200D01*
X191502199Y-185385771D01*
X191216485Y-185385771D01*
X191073628Y-185457200D01*
X191716485Y-186314343D02*
X191573628Y-186385771D01*
X191216485Y-186385771D01*
X191073628Y-186314343D01*
X191002199Y-186171486D01*
X191002199Y-186028629D01*
X191073628Y-185885771D01*
X191216485Y-185814343D01*
X191573628Y-185814343D01*
X191716485Y-185742914D01*
X192430771Y-186385771D02*
X192430771Y-185385771D01*
X192430771Y-185671486D02*
X192502199Y-185528629D01*
X192573628Y-185457200D01*
X192716485Y-185385771D01*
X192859342Y-185385771D01*
X194002199Y-186385771D02*
X194002199Y-184885771D01*
X194002199Y-186314343D02*
X193859342Y-186385771D01*
X193573628Y-186385771D01*
X193430770Y-186314343D01*
X193359342Y-186242914D01*
X193287913Y-186100057D01*
X193287913Y-185671486D01*
X193359342Y-185528629D01*
X193430770Y-185457200D01*
X193573628Y-185385771D01*
X193859342Y-185385771D01*
X194002199Y-185457200D01*
X194716485Y-186242914D02*
X194787913Y-186314343D01*
X194716485Y-186385771D01*
X194645056Y-186314343D01*
X194716485Y-186242914D01*
X194716485Y-186385771D01*
X195430771Y-186385771D02*
X195430771Y-184885771D01*
X195573628Y-185814343D02*
X196002199Y-186385771D01*
X196002199Y-185385771D02*
X195430771Y-185957200D01*
X196645057Y-186385771D02*
X196645057Y-185385771D01*
X196645057Y-184885771D02*
X196573628Y-184957200D01*
X196645057Y-185028629D01*
X196716485Y-184957200D01*
X196645057Y-184885771D01*
X196645057Y-185028629D01*
X198002200Y-186314343D02*
X197859343Y-186385771D01*
X197573629Y-186385771D01*
X197430771Y-186314343D01*
X197359343Y-186242914D01*
X197287914Y-186100057D01*
X197287914Y-185671486D01*
X197359343Y-185528629D01*
X197430771Y-185457200D01*
X197573629Y-185385771D01*
X197859343Y-185385771D01*
X198002200Y-185457200D01*
X199287914Y-186385771D02*
X199287914Y-185600057D01*
X199216485Y-185457200D01*
X199073628Y-185385771D01*
X198787914Y-185385771D01*
X198645057Y-185457200D01*
X199287914Y-186314343D02*
X199145057Y-186385771D01*
X198787914Y-186385771D01*
X198645057Y-186314343D01*
X198573628Y-186171486D01*
X198573628Y-186028629D01*
X198645057Y-185885771D01*
X198787914Y-185814343D01*
X199145057Y-185814343D01*
X199287914Y-185742914D01*
X200645057Y-186385771D02*
X200645057Y-184885771D01*
X200645057Y-186314343D02*
X200502200Y-186385771D01*
X200216486Y-186385771D01*
X200073628Y-186314343D01*
X200002200Y-186242914D01*
X199930771Y-186100057D01*
X199930771Y-185671486D01*
X200002200Y-185528629D01*
X200073628Y-185457200D01*
X200216486Y-185385771D01*
X200502200Y-185385771D01*
X200645057Y-185457200D01*
X201002200Y-186528629D02*
X202145057Y-186528629D01*
X202502200Y-185385771D02*
X202502200Y-186885771D01*
X202502200Y-185457200D02*
X202645057Y-185385771D01*
X202930771Y-185385771D01*
X203073628Y-185457200D01*
X203145057Y-185528629D01*
X203216486Y-185671486D01*
X203216486Y-186100057D01*
X203145057Y-186242914D01*
X203073628Y-186314343D01*
X202930771Y-186385771D01*
X202645057Y-186385771D01*
X202502200Y-186314343D01*
X204502200Y-186314343D02*
X204359343Y-186385771D01*
X204073629Y-186385771D01*
X203930771Y-186314343D01*
X203859343Y-186242914D01*
X203787914Y-186100057D01*
X203787914Y-185671486D01*
X203859343Y-185528629D01*
X203930771Y-185457200D01*
X204073629Y-185385771D01*
X204359343Y-185385771D01*
X204502200Y-185457200D01*
X205145057Y-186385771D02*
X205145057Y-184885771D01*
X205145057Y-185457200D02*
X205287914Y-185385771D01*
X205573628Y-185385771D01*
X205716485Y-185457200D01*
X205787914Y-185528629D01*
X205859343Y-185671486D01*
X205859343Y-186100057D01*
X205787914Y-186242914D01*
X205716485Y-186314343D01*
X205573628Y-186385771D01*
X205287914Y-186385771D01*
X205145057Y-186314343D01*
D10*
D11*
X177002200Y-181507200D02*
X285002200Y-181507200D01*
D10*
D11*
X178287914Y-183614343D02*
X178502200Y-183685771D01*
X178859343Y-183685771D01*
X179002200Y-183614343D01*
X179073629Y-183542914D01*
X179145057Y-183400057D01*
X179145057Y-183257200D01*
X179073629Y-183114343D01*
X179002200Y-183042914D01*
X178859343Y-182971486D01*
X178573629Y-182900057D01*
X178430771Y-182828629D01*
X178359343Y-182757200D01*
X178287914Y-182614343D01*
X178287914Y-182471486D01*
X178359343Y-182328629D01*
X178430771Y-182257200D01*
X178573629Y-182185771D01*
X178930771Y-182185771D01*
X179145057Y-182257200D01*
X179787914Y-183685771D02*
X179787914Y-182185771D01*
X180430771Y-183685771D02*
X180430771Y-182900057D01*
X180359342Y-182757200D01*
X180216485Y-182685771D01*
X180002200Y-182685771D01*
X179859342Y-182757200D01*
X179787914Y-182828629D01*
X181716485Y-183614343D02*
X181573628Y-183685771D01*
X181287914Y-183685771D01*
X181145057Y-183614343D01*
X181073628Y-183471486D01*
X181073628Y-182900057D01*
X181145057Y-182757200D01*
X181287914Y-182685771D01*
X181573628Y-182685771D01*
X181716485Y-182757200D01*
X181787914Y-182900057D01*
X181787914Y-183042914D01*
X181073628Y-183185771D01*
X183002199Y-183614343D02*
X182859342Y-183685771D01*
X182573628Y-183685771D01*
X182430771Y-183614343D01*
X182359342Y-183471486D01*
X182359342Y-182900057D01*
X182430771Y-182757200D01*
X182573628Y-182685771D01*
X182859342Y-182685771D01*
X183002199Y-182757200D01*
X183073628Y-182900057D01*
X183073628Y-183042914D01*
X182359342Y-183185771D01*
X183502199Y-182685771D02*
X184073628Y-182685771D01*
X183716485Y-182185771D02*
X183716485Y-183471486D01*
X183787913Y-183614343D01*
X183930771Y-183685771D01*
X184073628Y-183685771D01*
X184573628Y-183542914D02*
X184645056Y-183614343D01*
X184573628Y-183685771D01*
X184502199Y-183614343D01*
X184573628Y-183542914D01*
X184573628Y-183685771D01*
X184573628Y-182757200D02*
X184645056Y-182828629D01*
X184573628Y-182900057D01*
X184502199Y-182828629D01*
X184573628Y-182757200D01*
X184573628Y-182900057D01*
D10*
D11*
X197002200Y-191507200D02*
X197002200Y-194507200D01*
D10*
D11*
X261002200Y-191507200D02*
X261002200Y-198007200D01*
D14*
X260345000Y-130300000D03*
X266025000Y-130300000D03*
X266025000Y-117160000D03*
X260345000Y-117160000D03*
D15*
X263315000Y-124730000D03*
X260695000Y-127230000D03*
X263315000Y-127230000D03*
X263315000Y-122730000D03*
X263315000Y-120230000D03*
X260695000Y-124730000D03*
X260695000Y-122730000D03*
X260695000Y-120230000D03*
D16*
X111500000Y-126250000D03*
D14*
X98800000Y-131000000D03*
X106420000Y-131000000D03*
X116580000Y-131000000D03*
X116580000Y-121090000D03*
X106420000Y-121090000D03*
X98800000Y-121090000D03*
D17*
X259750000Y-100250000D03*
D18*
X262900000Y-101500000D03*
X267900000Y-101500000D03*
X267900000Y-99000000D03*
X262900000Y-99000000D03*
X265400000Y-99000000D03*
D17*
X271050000Y-100250000D03*
D19*
X144410000Y-126520000D03*
X146950000Y-126520000D03*
X144410000Y-129060000D03*
X146950000Y-129060000D03*
X144410000Y-131600000D03*
X146950000Y-131600000D03*
X144410000Y-134140000D03*
X146950000Y-134140000D03*
X144410000Y-136680000D03*
X146950000Y-136680000D03*
X144410000Y-139220000D03*
X146950000Y-139220000D03*
X144410000Y-141760000D03*
X144410000Y-144300000D03*
X146950000Y-141760000D03*
X146950000Y-144300000D03*
D20*
X225000000Y-150540000D03*
X225000000Y-148000000D03*
X222460000Y-148000000D03*
X222460000Y-150540000D03*
X217380000Y-150540000D03*
X214840000Y-150540000D03*
X214840000Y-148000000D03*
X217380000Y-148000000D03*
X219920000Y-148000000D03*
X219920000Y-150540000D03*
X209000000Y-150540000D03*
X209000000Y-148000000D03*
X206460000Y-148000000D03*
X206460000Y-150540000D03*
X201380000Y-150540000D03*
X198840000Y-150540000D03*
X198840000Y-148000000D03*
X201380000Y-148000000D03*
X203920000Y-148000000D03*
X203920000Y-150540000D03*
D16*
X157100000Y-114700000D03*
D14*
X152350000Y-102000000D03*
X152350000Y-109620000D03*
X152350000Y-119780000D03*
X162260000Y-119780000D03*
X162260000Y-109620000D03*
X162260000Y-102000000D03*
D16*
X137740000Y-114700000D03*
D14*
X132990000Y-102000000D03*
X132990000Y-109620000D03*
X132990000Y-119780000D03*
X142900000Y-119780000D03*
X142900000Y-109620000D03*
X142900000Y-102000000D03*
D17*
X225250000Y-100250000D03*
D18*
X228400000Y-101500000D03*
X233400000Y-101500000D03*
X233400000Y-99000000D03*
X228400000Y-99000000D03*
X230900000Y-99000000D03*
D17*
X236550000Y-100250000D03*
D16*
X111450000Y-108500000D03*
D14*
X98750000Y-113250000D03*
X106370000Y-113250000D03*
X116530000Y-113250000D03*
X116530000Y-103340000D03*
X106370000Y-103340000D03*
X98750000Y-103340000D03*
D21*
X187050000Y-97600000D03*
X186450000Y-102550000D03*
X171350000Y-97600000D03*
X171950000Y-102550000D03*
D17*
X207950000Y-100250000D03*
D18*
X211100000Y-101500000D03*
X216100000Y-101500000D03*
X216100000Y-99000000D03*
X211100000Y-99000000D03*
X213600000Y-99000000D03*
D17*
X219250000Y-100250000D03*
D20*
X243250000Y-150800000D03*
X245790000Y-150800000D03*
X229650000Y-112000000D03*
X227110000Y-112000000D03*
D22*
X193900000Y-98050000D03*
X200000000Y-98050000D03*
D18*
X194950000Y-102000000D03*
D19*
X196950000Y-101450000D03*
D18*
X198950000Y-102000000D03*
D17*
X242500000Y-100250000D03*
D18*
X245650000Y-101500000D03*
X250650000Y-101500000D03*
X250650000Y-99000000D03*
X245650000Y-99000000D03*
X248150000Y-99000000D03*
D17*
X253800000Y-100250000D03*
D23*
X272675000Y-136500000D03*
X272675000Y-148540000D03*
D24*
X267965000Y-143770000D03*
X267965000Y-141270000D03*
X269965000Y-141270000D03*
X269965000Y-143770000D03*
X265965000Y-138270000D03*
X265965000Y-140020000D03*
X265965000Y-142520000D03*
X265965000Y-145020000D03*
X265965000Y-146770000D03*
D23*
X102700000Y-149040000D03*
X102700000Y-137000000D03*
D24*
X107410000Y-141770000D03*
X107410000Y-144270000D03*
X105410000Y-144270000D03*
X105410000Y-141770000D03*
X109410000Y-147270000D03*
X109410000Y-145520000D03*
X109410000Y-143020000D03*
X109410000Y-140520000D03*
X109410000Y-138770000D03*
D25*
X169150000Y-138900000D03*
X171100000Y-140250000D03*
X170050000Y-141550000D03*
D26*
X242363633Y-110949939D03*
X199300000Y-139500000D03*
X207400000Y-112400000D03*
X239300000Y-111260000D03*
X211708855Y-123595010D03*
X218850000Y-119600000D03*
X200750000Y-136100000D03*
X237250000Y-111400000D03*
X238964904Y-109299118D03*
X138300000Y-119650000D03*
X234800000Y-103200000D03*
X235100000Y-151470000D03*
X194750000Y-131100000D03*
X234600000Y-136800000D03*
X186100000Y-133454990D03*
X188139257Y-126195010D03*
X241300000Y-135050000D03*
X248350000Y-96950000D03*
X202750000Y-140450000D03*
X261950000Y-103850000D03*
X259050000Y-103200000D03*
X228900000Y-109900000D03*
X246550000Y-96950000D03*
X251100000Y-103550000D03*
X205400000Y-105250000D03*
X206900000Y-105900000D03*
X218600000Y-125200000D03*
X233800000Y-122150000D03*
X228400000Y-104300000D03*
X149350000Y-117225000D03*
X226800000Y-130450000D03*
X183700000Y-129600000D03*
X244250000Y-113000000D03*
X244200000Y-109950000D03*
X233750000Y-114025000D03*
X235100000Y-115200000D03*
X233300000Y-149800000D03*
X231700000Y-150200000D03*
X233524514Y-118016066D03*
X223000000Y-120000000D03*
X239650000Y-107350000D03*
X244300000Y-118800000D03*
X245600000Y-105300000D03*
X205750000Y-116404990D03*
X211667743Y-116404990D03*
X213250229Y-116395010D03*
X211650000Y-118800000D03*
X211650000Y-114800000D03*
X211650000Y-113200000D03*
X211650000Y-111600000D03*
X187650000Y-133150000D03*
X186350000Y-136750004D03*
X188600000Y-131100000D03*
X214300000Y-111600000D03*
X224550000Y-120400000D03*
X221450000Y-120350000D03*
X213250000Y-113200000D03*
X217250000Y-113200000D03*
X217250000Y-116400000D03*
X218850000Y-111600000D03*
X218850000Y-113200000D03*
X218850000Y-114800000D03*
X218850000Y-116400000D03*
X218850000Y-118000000D03*
X218850000Y-120400000D03*
X191250000Y-137950000D03*
X206750000Y-128100000D03*
X208600000Y-134600000D03*
X197750000Y-126100000D03*
X197750000Y-123100000D03*
X184950000Y-140700000D03*
X197650000Y-111700000D03*
X197849390Y-113649974D03*
X205750000Y-118700000D03*
X229800000Y-136800000D03*
X232197376Y-140805088D03*
X237797376Y-132005088D03*
X236997376Y-140805088D03*
X205750000Y-131100000D03*
X195750000Y-134100000D03*
X198750000Y-132100000D03*
X199750000Y-131100000D03*
X200750000Y-130100000D03*
X199750000Y-129100000D03*
X202750000Y-132100000D03*
X199750000Y-132100000D03*
X199750000Y-133100000D03*
X200750000Y-132100000D03*
X203750000Y-135100000D03*
X201750000Y-129100000D03*
X199750000Y-122100000D03*
X205750000Y-120100000D03*
X202750000Y-121100000D03*
X203750000Y-124100000D03*
X204750000Y-127100000D03*
X233800000Y-139200000D03*
X231100000Y-145600000D03*
X234600000Y-128600000D03*
X225100000Y-128800000D03*
X229797376Y-139204990D03*
X224200000Y-138400000D03*
X196750000Y-126100000D03*
X235400000Y-133600000D03*
X228600000Y-132000000D03*
X199750000Y-126100000D03*
X197750000Y-134100000D03*
X192700000Y-140550000D03*
X214300000Y-114800000D03*
X186200000Y-124000000D03*
X197800000Y-128100000D03*
X198750000Y-125100000D03*
X200750000Y-125100000D03*
X198750000Y-127100000D03*
X194750000Y-126100000D03*
X195750000Y-125100000D03*
X199750000Y-124100000D03*
X180000000Y-133750000D03*
X196750000Y-131100000D03*
X198750000Y-130100000D03*
X194750000Y-129100000D03*
X180750000Y-136350000D03*
X181950000Y-135050000D03*
X191750000Y-135100000D03*
X191750000Y-133100000D03*
X191750000Y-131100000D03*
X197750000Y-130100000D03*
X202750000Y-128100000D03*
X191750000Y-128100000D03*
X193700000Y-128100000D03*
X187150000Y-138100000D03*
X189700000Y-137550000D03*
X200750000Y-128100000D03*
D25*
X172020000Y-124050000D03*
X176025000Y-119850000D03*
X170050000Y-148700000D03*
X171100000Y-147450000D03*
X169150000Y-146100000D03*
D26*
X246350000Y-110200000D03*
X135800000Y-144800000D03*
X208500000Y-109100000D03*
X208500000Y-107500000D03*
X249363633Y-110949939D03*
X136551406Y-121797434D03*
X119800000Y-120750000D03*
X116500000Y-117750000D03*
X130305879Y-121543141D03*
X130300000Y-125450000D03*
X130300000Y-130000000D03*
X123100000Y-129350000D03*
X125150000Y-134550000D03*
X125200000Y-130000000D03*
X128450000Y-134750000D03*
X180329302Y-147082824D03*
X171650000Y-106650000D03*
X169150000Y-107830000D03*
X187150000Y-119800000D03*
X184750000Y-124150000D03*
X168875000Y-112025000D03*
X172400000Y-112150000D03*
X182600000Y-101200000D03*
X210250000Y-108300000D03*
X201400000Y-108300000D03*
X179250000Y-124300000D03*
X121400000Y-117100000D03*
X137300000Y-127700000D03*
X125250000Y-132550000D03*
X185000000Y-144100000D03*
X185000000Y-147400000D03*
X246500000Y-126750000D03*
X251000000Y-115900000D03*
X113300000Y-135100000D03*
X131050000Y-145050000D03*
X137750000Y-102100000D03*
X212800000Y-103300000D03*
X209242409Y-103154529D03*
X214300000Y-103300000D03*
X251850000Y-121650000D03*
X248850000Y-121650000D03*
X247900000Y-122600000D03*
X248850000Y-126550000D03*
X251350000Y-126550000D03*
X252800000Y-124600000D03*
X192750000Y-124100000D03*
X189750000Y-125100000D03*
X190750000Y-129100000D03*
X191750000Y-121100000D03*
X194750000Y-120100000D03*
X195750000Y-123100000D03*
X228600000Y-128800000D03*
X232200000Y-128600000D03*
X233799998Y-132005088D03*
X191750000Y-125100000D03*
X183950000Y-121200000D03*
X186750000Y-118100000D03*
X188650000Y-116500000D03*
X188700000Y-118250000D03*
X188750000Y-120100000D03*
X231400000Y-132800000D03*
X217500000Y-108750000D03*
X152450000Y-114625000D03*
X115800000Y-109000000D03*
X226100000Y-119000000D03*
X228950000Y-115150000D03*
X230600000Y-132800000D03*
X127600000Y-151300000D03*
X231550000Y-143350000D03*
X233100000Y-141800000D03*
X231400000Y-134400000D03*
X112400000Y-132100000D03*
X230900000Y-117600000D03*
X230800000Y-114800000D03*
X230600000Y-132000000D03*
X141700000Y-98650000D03*
X137325000Y-106525000D03*
X134375000Y-105125000D03*
X130300000Y-122200000D03*
D25*
X176325000Y-121798360D03*
X174348880Y-121798360D03*
X172372760Y-121798360D03*
X166950000Y-138900000D03*
X166950000Y-137000000D03*
X166950000Y-144200000D03*
X166950000Y-146100000D03*
X165100000Y-148250000D03*
D26*
X242400000Y-125300000D03*
X143000000Y-152800000D03*
X148375000Y-124100000D03*
X143600000Y-152500000D03*
X143400000Y-153200000D03*
X193250000Y-100650000D03*
X176950000Y-100050000D03*
X174650000Y-101250000D03*
X172050000Y-109650000D03*
X269200000Y-113100000D03*
X269150000Y-109050000D03*
X155526120Y-144801640D03*
X153550000Y-144801640D03*
X151573880Y-144801640D03*
X186900000Y-149250000D03*
X190400000Y-151950000D03*
X184161446Y-135111304D03*
X185000000Y-145800000D03*
X182250000Y-151700000D03*
X188650000Y-144800000D03*
X188650000Y-146700000D03*
X177800000Y-131850000D03*
X177800000Y-133750000D03*
X228000000Y-126550000D03*
X228000000Y-124573880D03*
X228000000Y-122597760D03*
X244300000Y-125300000D03*
X241800000Y-122700000D03*
X240500000Y-120000000D03*
X241800000Y-121900000D03*
X235397376Y-140805088D03*
X236200000Y-130000000D03*
X243000000Y-138150000D03*
X234600000Y-140800000D03*
X229800000Y-135200000D03*
X231350000Y-140850000D03*
X229800000Y-137600000D03*
X232200000Y-136800000D03*
X235400000Y-139200000D03*
X237800000Y-140000000D03*
X232200000Y-132000000D03*
X234600000Y-132800000D03*
X237000000Y-133600000D03*
X190850000Y-146700000D03*
X233800000Y-141750000D03*
X192800000Y-148100000D03*
X191600000Y-149350000D03*
X245950000Y-140600000D03*
X241477926Y-129265268D03*
X234600000Y-135200000D03*
X224800000Y-134400000D03*
X226800000Y-133600000D03*
X241000000Y-140750000D03*
X226000000Y-136800000D03*
X224054990Y-140950000D03*
X242750000Y-142400000D03*
X239300000Y-141800000D03*
X227250000Y-140950000D03*
X240950000Y-143850000D03*
X228000000Y-136900000D03*
X237800000Y-136805088D03*
X237800000Y-136000000D03*
X238500000Y-130100000D03*
X240239181Y-109064181D03*
X237525000Y-103150000D03*
X242100000Y-107500000D03*
X244613633Y-108699939D03*
X247750000Y-103750000D03*
X248300000Y-102600000D03*
X215900000Y-105350000D03*
X232200000Y-132800000D03*
X230550000Y-122600000D03*
X209250000Y-104600000D03*
X215900000Y-106450000D03*
X231400000Y-132000000D03*
X154000000Y-125000000D03*
X135900000Y-131850000D03*
X130300000Y-127400000D03*
X193250000Y-142700000D03*
X203750000Y-134100000D03*
X203300000Y-138050000D03*
X202003456Y-138602880D03*
X174350000Y-132850000D03*
X130300000Y-128700000D03*
X194200000Y-138800000D03*
X200750000Y-133100000D03*
X130300000Y-126750000D03*
X201750000Y-136200000D03*
X201800000Y-137950000D03*
X194250000Y-140750000D03*
X140000000Y-131200000D03*
X140050000Y-128750000D03*
X130300000Y-128050000D03*
X200050000Y-138650000D03*
X194200000Y-139850000D03*
X127800000Y-130400000D03*
X207700000Y-107500000D03*
X165400000Y-121400000D03*
X123100000Y-127400000D03*
X173800000Y-138800000D03*
X165400000Y-126150000D03*
X235244746Y-148956050D03*
X205400000Y-106150000D03*
X183400000Y-148400000D03*
X236197376Y-139205088D03*
X132660001Y-134260001D03*
X123100000Y-126750000D03*
X233100000Y-147200000D03*
X227200000Y-147200000D03*
X176650000Y-131100000D03*
X177850000Y-121400000D03*
X181550000Y-147882824D03*
X235244746Y-147686050D03*
X176750000Y-144700000D03*
X202650000Y-110900000D03*
X206900000Y-107500000D03*
X236200000Y-140000000D03*
X242363633Y-111949939D03*
X179509300Y-150782824D03*
X232000000Y-111235000D03*
X236150000Y-121150000D03*
X237000000Y-132000000D03*
X218050000Y-120400000D03*
X203750000Y-129100000D03*
X230250000Y-113450000D03*
X247100000Y-116800000D03*
X232000000Y-112505000D03*
X236600000Y-120500000D03*
X237000000Y-132800000D03*
X246113633Y-115699939D03*
X196750000Y-124100000D03*
X235200000Y-112700000D03*
X203600000Y-110900000D03*
X239300000Y-113775000D03*
X236100000Y-126350000D03*
X236200000Y-134400000D03*
X241525000Y-114650000D03*
X247613633Y-115699939D03*
X236200000Y-135200000D03*
X238425000Y-122750000D03*
X239100000Y-116525000D03*
X249363633Y-113949939D03*
X236200000Y-131200000D03*
X235400000Y-132000000D03*
X246650000Y-116300000D03*
X235500000Y-124250000D03*
X235400000Y-134400000D03*
X248150000Y-113450000D03*
X235400000Y-135200000D03*
X205300000Y-107500000D03*
X230100000Y-107500000D03*
X237000000Y-119300000D03*
X233800000Y-135200000D03*
X233800000Y-123050000D03*
X212750000Y-141850000D03*
X234600000Y-137600000D03*
X212750000Y-140450000D03*
X234600000Y-138400000D03*
X218100000Y-141050000D03*
X234597376Y-139205088D03*
X215450000Y-141450000D03*
X234600000Y-140000000D03*
X233000000Y-135200000D03*
X232550000Y-124500000D03*
X212750000Y-130400000D03*
X233000000Y-136000000D03*
X215400000Y-131400000D03*
X232997376Y-137605088D03*
X212750000Y-139050000D03*
X232997376Y-138405088D03*
X215450000Y-140050000D03*
X232997474Y-139205088D03*
X218100000Y-139650000D03*
X232997474Y-140005088D03*
X218000000Y-129600000D03*
X232200000Y-135200000D03*
X218050000Y-131000000D03*
X232197376Y-137605088D03*
X218050000Y-133800000D03*
X232200000Y-138400000D03*
X215450000Y-138650000D03*
X232197376Y-139205088D03*
X218100000Y-138250000D03*
X232197376Y-140005088D03*
X210142409Y-103154529D03*
X231400000Y-133600000D03*
X215400000Y-130000000D03*
X231397376Y-135204990D03*
X218700000Y-132400000D03*
X231400000Y-136000000D03*
X231400000Y-137602722D03*
X215400000Y-132800000D03*
X212750000Y-133200000D03*
X231400000Y-138400000D03*
X218050000Y-135200000D03*
X231400000Y-139200000D03*
X212750000Y-137600000D03*
X231400000Y-140000000D03*
X130850000Y-139250000D03*
X230600000Y-135200000D03*
X199750000Y-127100000D03*
X228400000Y-103400000D03*
X213650000Y-108350000D03*
X215200000Y-129000000D03*
X230600000Y-136000000D03*
X230597376Y-137604990D03*
X212750000Y-131800000D03*
X215400000Y-134200000D03*
X230600000Y-138400000D03*
X212750000Y-134600000D03*
X230600000Y-139200000D03*
X212750000Y-136000000D03*
X230600000Y-140000000D03*
X215400000Y-137000000D03*
X230600000Y-140800000D03*
X215400000Y-135600000D03*
X229800000Y-140000000D03*
X241250000Y-113450000D03*
X208850000Y-130100000D03*
X218600000Y-126100000D03*
X212400000Y-129100000D03*
X179500000Y-126550000D03*
X199750000Y-130100000D03*
X205300000Y-109100000D03*
X241300000Y-112500000D03*
X238064904Y-109299118D03*
X169150000Y-109100000D03*
X193750000Y-126100000D03*
X171500000Y-112150000D03*
X169775000Y-112025000D03*
X169150000Y-110370000D03*
X192750000Y-126100000D03*
X261950000Y-102950000D03*
X247113633Y-108699939D03*
X245600000Y-106200000D03*
X184375899Y-127204990D03*
X177100000Y-124050000D03*
X192750000Y-123100000D03*
X242363633Y-113949939D03*
X226350000Y-121250000D03*
X220550000Y-124650000D03*
X208350000Y-129100000D03*
X198750000Y-131100000D03*
X242363633Y-112949939D03*
X235244746Y-150226050D03*
X187900000Y-122200000D03*
X178450000Y-105150000D03*
X189750000Y-124100000D03*
X179500000Y-106050000D03*
X188800000Y-122150000D03*
X190750000Y-124100000D03*
X195750000Y-120100000D03*
X181650000Y-105000000D03*
X195750000Y-121100000D03*
X182900000Y-104950000D03*
X191750000Y-120100000D03*
X179950000Y-103550000D03*
X192750000Y-121100000D03*
X180950000Y-103550000D03*
X193750000Y-121100000D03*
X182950000Y-103550000D03*
X194750000Y-121100000D03*
X183950000Y-103550000D03*
X195750000Y-131100000D03*
X196750000Y-133100000D03*
X195750000Y-133100000D03*
X197300000Y-144300000D03*
X195750000Y-132100000D03*
X230300000Y-143850000D03*
X232467152Y-141727702D03*
X233800000Y-136000000D03*
X237000000Y-140000000D03*
X235400000Y-137600000D03*
X237800000Y-140800000D03*
X235400000Y-138400000D03*
X233800000Y-132800000D03*
X228550000Y-96950000D03*
X166550000Y-121400000D03*
X219500000Y-107900000D03*
X227400000Y-116100000D03*
X234850000Y-122350000D03*
X233800000Y-133600000D03*
X225500000Y-111750000D03*
X225500000Y-116700000D03*
X230700000Y-121900000D03*
X218500000Y-106850000D03*
X233000000Y-133600000D03*
X224800000Y-108700000D03*
X233000000Y-132800000D03*
X226200000Y-114050000D03*
X152000000Y-131200000D03*
X190700000Y-109600000D03*
X202400000Y-106900000D03*
X220800000Y-107900000D03*
X233800000Y-134400000D03*
X220100000Y-116100000D03*
X191500000Y-110300000D03*
X153600000Y-131200000D03*
X225200000Y-131900000D03*
X232200000Y-133600000D03*
X193750000Y-136195002D03*
X197900000Y-96900000D03*
X202750000Y-135100000D03*
X210650000Y-133200000D03*
X202750000Y-131100000D03*
X213300000Y-137000000D03*
X205750000Y-134100000D03*
X201750000Y-130100000D03*
X215950000Y-129600000D03*
X210650000Y-141850000D03*
X201750000Y-135100000D03*
X210650000Y-136000000D03*
X201750000Y-132100000D03*
X210650000Y-137600000D03*
X204750000Y-134100000D03*
X210650000Y-139050000D03*
X202750000Y-134100000D03*
X210650000Y-140450000D03*
X204750000Y-136100000D03*
X213350000Y-141450000D03*
X200750000Y-134100000D03*
X210650000Y-134600000D03*
X203750000Y-132100000D03*
X205750000Y-133100000D03*
X215950000Y-135200000D03*
X213300000Y-130000000D03*
X202750000Y-129100000D03*
X203750000Y-136100000D03*
X216000000Y-139650000D03*
X216000000Y-141050000D03*
X200750000Y-135100000D03*
X213300000Y-135600000D03*
X202750000Y-133100000D03*
X204749260Y-135100000D03*
X213350000Y-138650000D03*
X205750000Y-135100000D03*
X216000000Y-138250000D03*
X201750000Y-131100000D03*
X213350000Y-140050000D03*
X204750000Y-130100000D03*
X213300000Y-131400000D03*
X203750000Y-133100000D03*
X216600000Y-132400000D03*
X210650000Y-130400000D03*
X205750000Y-130100000D03*
X203750000Y-131100000D03*
X213300000Y-132800000D03*
X205750000Y-132100000D03*
X215950000Y-133800000D03*
X204750000Y-131100000D03*
X215950000Y-131000000D03*
X204750000Y-132100000D03*
X213300000Y-134200000D03*
X202750000Y-130100000D03*
X210650000Y-131800000D03*
X236200000Y-136800000D03*
X236050000Y-145500000D03*
X237000000Y-137600000D03*
X238300000Y-143650000D03*
X237800000Y-133600000D03*
X242900000Y-131000000D03*
X240050000Y-135200000D03*
X237000000Y-135200000D03*
X237000000Y-138400000D03*
X240900000Y-145400000D03*
X237800000Y-135200000D03*
X242650000Y-139050000D03*
X241300000Y-138150000D03*
X244400000Y-138150000D03*
X239500000Y-137200000D03*
X194750000Y-122100000D03*
X179000000Y-101200000D03*
X177950000Y-103550000D03*
X177650000Y-107250000D03*
X183950000Y-107000000D03*
X195750000Y-122100000D03*
X238600000Y-133600098D03*
X238600000Y-134400000D03*
X254400000Y-122000000D03*
X255800000Y-122000000D03*
X135400000Y-146800000D03*
X134550000Y-126140000D03*
X132850000Y-126140000D03*
X119800000Y-122200000D03*
X127550000Y-127300000D03*
X126800000Y-123400000D03*
X126100000Y-121950000D03*
X123100000Y-121550000D03*
X130300000Y-123500000D03*
X126650000Y-134550000D03*
X125200000Y-128500000D03*
X115000000Y-125900000D03*
X135400000Y-148000000D03*
X135400000Y-147400000D03*
X136000000Y-148000000D03*
X136600000Y-148000000D03*
X137200000Y-148000000D03*
X137200000Y-146800000D03*
X137200000Y-147400000D03*
X136000000Y-146800000D03*
X136600000Y-146800000D03*
X136600000Y-147400000D03*
X136000000Y-147400000D03*
X150450000Y-114625000D03*
X137300000Y-129700000D03*
X127250000Y-132550000D03*
X144650000Y-117075000D03*
X143900000Y-114775000D03*
X134700000Y-121900000D03*
X120500000Y-104900000D03*
X119900000Y-111550000D03*
X136750000Y-124500000D03*
X123100000Y-122200000D03*
X168250000Y-103425000D03*
X173150000Y-107850000D03*
X174000000Y-97600000D03*
X131050000Y-144150000D03*
X131000000Y-141300000D03*
X179500000Y-146350000D03*
X221887816Y-143745010D03*
X220915006Y-143745010D03*
X179500000Y-145500000D03*
X220009075Y-143745010D03*
X178700000Y-145400000D03*
X176700000Y-149400000D03*
X151573880Y-139300000D03*
X178509300Y-150282824D03*
X153550000Y-139300000D03*
X178689999Y-150860001D03*
X155526120Y-139300000D03*
X176325000Y-127300000D03*
X178050000Y-146950000D03*
X174348880Y-127300000D03*
X176700000Y-148400000D03*
X172372760Y-127300000D03*
X177609300Y-148882824D03*
X134800000Y-141550000D03*
X180329302Y-149682824D03*
X233200000Y-124000000D03*
X233000000Y-134400000D03*
X230100000Y-118100000D03*
X232200000Y-134400000D03*
X137325000Y-107425000D03*
X137750000Y-103600000D03*
X174550000Y-110370000D03*
X176450000Y-105300000D03*
X175550000Y-101250000D03*
X176950000Y-100950000D03*
X176950000Y-105650000D03*
X169150000Y-144200000D03*
X180000000Y-131850000D03*
X190850000Y-144800000D03*
X169150000Y-137000000D03*
X129000000Y-140150000D03*
X178600000Y-126550000D03*
X225800000Y-111000000D03*
X152000000Y-124050000D03*
X159950000Y-124850000D03*
X229550000Y-115500000D03*
X232550000Y-123600000D03*
X245600000Y-116800000D03*
X140700000Y-148000000D03*
X140100000Y-148000000D03*
X139500000Y-148000000D03*
X138900000Y-148000000D03*
X139500000Y-147400000D03*
X138900000Y-147400000D03*
X138900000Y-146800000D03*
X139500000Y-146800000D03*
X140100000Y-146800000D03*
X140700000Y-146800000D03*
X140700000Y-147400000D03*
X140100000Y-147400000D03*
X255025000Y-123100000D03*
X253825000Y-124575000D03*
X253875000Y-126200000D03*
X195750000Y-130100000D03*
D25*
X173250000Y-119850000D03*
X166950000Y-137950000D03*
X171100000Y-138250000D03*
X166950000Y-145150000D03*
X171100000Y-145450000D03*
X167100000Y-148250000D03*
D26*
X238800000Y-132400000D03*
X241100000Y-139149990D03*
X244508849Y-140600010D03*
X183381716Y-127204990D03*
X239500000Y-138300000D03*
X133800000Y-144800000D03*
X248050000Y-129750000D03*
X208500000Y-108300000D03*
X205300000Y-108300000D03*
X206100000Y-109100000D03*
X206900000Y-109100000D03*
X207700000Y-109100000D03*
X249363633Y-112949939D03*
X243150000Y-111450000D03*
X138051406Y-121797434D03*
X119800000Y-119250000D03*
X245900000Y-138150000D03*
X197800000Y-139500000D03*
X209400000Y-112400000D03*
X115800000Y-110500000D03*
X110500000Y-133850000D03*
X125866957Y-125383043D03*
X123100000Y-130000000D03*
X232000000Y-115070000D03*
X180400000Y-107400000D03*
X237150000Y-145500000D03*
X193750000Y-120100000D03*
X195750000Y-126100000D03*
X127050000Y-147950000D03*
X121600000Y-147950000D03*
X196750000Y-130100000D03*
X192750000Y-131100000D03*
X193750000Y-129100000D03*
X192750000Y-129100000D03*
X191750000Y-129100000D03*
X192750000Y-127100000D03*
X198750000Y-133100000D03*
X193750000Y-127100000D03*
X190750000Y-122100000D03*
X189750000Y-122100000D03*
X191750000Y-122100000D03*
X194750000Y-124100000D03*
X196750000Y-135100000D03*
X195750000Y-135100000D03*
X196750000Y-134100000D03*
X198750000Y-134100000D03*
X194750000Y-133100000D03*
X194750000Y-132100000D03*
X198750000Y-136100000D03*
X201750000Y-133100000D03*
X199750000Y-134100000D03*
X199750000Y-135100000D03*
X192750000Y-132100000D03*
X192750000Y-133100000D03*
X200750000Y-126100000D03*
X190750000Y-131100000D03*
X190750000Y-132100000D03*
X192750000Y-134100000D03*
X193750000Y-134100000D03*
X199750000Y-136100000D03*
X190750000Y-136100000D03*
X190750000Y-135100000D03*
X189750000Y-134100000D03*
X189750000Y-135100000D03*
X194750000Y-135100000D03*
X194750000Y-134100000D03*
X189750000Y-130100000D03*
X190750000Y-130100000D03*
X191750000Y-127100000D03*
X190750000Y-127100000D03*
X189750000Y-127100000D03*
X189750000Y-126100000D03*
X190750000Y-126100000D03*
X192750000Y-122100000D03*
X192750000Y-125100000D03*
X193750000Y-125100000D03*
X193750000Y-124100000D03*
X194750000Y-123100000D03*
X193750000Y-123100000D03*
X189750000Y-121100000D03*
X189750000Y-120100000D03*
X190750000Y-120100000D03*
X190750000Y-121100000D03*
X136300000Y-119650000D03*
X238625000Y-103150000D03*
X166750000Y-103425000D03*
X180809300Y-149202826D03*
X169150000Y-106560000D03*
X186950000Y-121150000D03*
X188800000Y-121400000D03*
X229700000Y-147660000D03*
X145400000Y-153700000D03*
X145200000Y-147400000D03*
X145200000Y-146800000D03*
X142800000Y-146800000D03*
X142800000Y-147400000D03*
X144600000Y-148000000D03*
X144000000Y-148000000D03*
X143400000Y-148000000D03*
X144600000Y-146800000D03*
X144600000Y-147400000D03*
X144000000Y-147400000D03*
X144000000Y-146800000D03*
X143400000Y-146800000D03*
X195750000Y-129100000D03*
X196700000Y-128100000D03*
X188150000Y-124650000D03*
X179509300Y-148382824D03*
X190036448Y-116445077D03*
X233800000Y-140800000D03*
X237000000Y-136800000D03*
X143400000Y-147400000D03*
X229797376Y-132004990D03*
X196000000Y-96900000D03*
X173950000Y-99100000D03*
X248850000Y-103750000D03*
X187000000Y-105850000D03*
X171650000Y-108150000D03*
X211750000Y-108300000D03*
X203400000Y-108300000D03*
X180750000Y-124300000D03*
X242900000Y-130100000D03*
X152000000Y-125950000D03*
X265550000Y-111050000D03*
X265550000Y-107000000D03*
X178500000Y-128450000D03*
X186200000Y-126000000D03*
X241000000Y-107500000D03*
X136890376Y-152564666D03*
X123400000Y-117100000D03*
X107400000Y-139000000D03*
X188900000Y-149250000D03*
X192400000Y-151950000D03*
X184161446Y-133111304D03*
X130450000Y-134750000D03*
X226800000Y-131950000D03*
X186700000Y-129600000D03*
X186500000Y-144100000D03*
X186500000Y-147400000D03*
X186500000Y-145800000D03*
X183750000Y-151700000D03*
X249500000Y-115900000D03*
X245750000Y-113000000D03*
X247850000Y-110200000D03*
X244200000Y-111450000D03*
X233750000Y-112525000D03*
X236200000Y-115200000D03*
X233300000Y-148700000D03*
X231700000Y-148700000D03*
X240500000Y-146800000D03*
X132375000Y-105125000D03*
X129000000Y-142250000D03*
X241800000Y-145400000D03*
X192800000Y-146100000D03*
X188650000Y-145750000D03*
X181950000Y-133050000D03*
X177800000Y-132800000D03*
X183450000Y-145750000D03*
X175950000Y-103550000D03*
X197750000Y-121100000D03*
X244500000Y-128350000D03*
X245450000Y-132650000D03*
X206550000Y-103100000D03*
X213300000Y-104550000D03*
X253650000Y-127200000D03*
X193750000Y-131100000D03*
X224550000Y-114815254D03*
X221450000Y-114815254D03*
X223000000Y-115150000D03*
X177609300Y-147882824D03*
X242600000Y-105100000D03*
X249800000Y-105250000D03*
X249800000Y-106750000D03*
X261600000Y-105800000D03*
X256100000Y-105800000D03*
X240500000Y-121900000D03*
X240500000Y-120950000D03*
X249500000Y-131400000D03*
X245900000Y-124900000D03*
X241800000Y-120950000D03*
X241800000Y-120000000D03*
X249512500Y-124937500D03*
X251187500Y-124937500D03*
X251187500Y-123262500D03*
X249512500Y-123262500D03*
X247900000Y-124100000D03*
X208600000Y-133300000D03*
X229797376Y-136004990D03*
X232997474Y-140805088D03*
X212450000Y-117200000D03*
X207779315Y-116404990D03*
X212450000Y-115599991D03*
X213250000Y-114800000D03*
X199750000Y-128100000D03*
X213250000Y-118800000D03*
X217250000Y-111600000D03*
X189650000Y-133150000D03*
X186100000Y-132000000D03*
X187850000Y-136750004D03*
X188600000Y-129600000D03*
X214300000Y-116400000D03*
X214300000Y-113200000D03*
X213250000Y-111600000D03*
X212450000Y-112400000D03*
X217250000Y-118000000D03*
X218050000Y-117200000D03*
X217250000Y-114800000D03*
X218050000Y-115600000D03*
X218050000Y-112400000D03*
X218050000Y-114000000D03*
X218850000Y-122000000D03*
X211650000Y-122000000D03*
X228000000Y-138400098D03*
X212450000Y-114000000D03*
X187950000Y-140700000D03*
X199650000Y-111700000D03*
X197849390Y-115649974D03*
X207750000Y-118700000D03*
X191750000Y-123100000D03*
X190750000Y-128100000D03*
X194750000Y-128100000D03*
X183950000Y-118200000D03*
X186750000Y-116100000D03*
X190200000Y-118250000D03*
X205770181Y-128103571D03*
X191250000Y-139450000D03*
X197550000Y-136850000D03*
X187150000Y-135100000D03*
X189700000Y-140550000D03*
X192800000Y-137550000D03*
X193750000Y-135100000D03*
X197750000Y-122100000D03*
X197750000Y-125100000D03*
X197750000Y-133100000D03*
X197750000Y-131100000D03*
X203750000Y-128100000D03*
X232700000Y-145600000D03*
X224200000Y-136800000D03*
X229800000Y-128800000D03*
X234600000Y-130000000D03*
X233000000Y-128600000D03*
X235400000Y-128600000D03*
X230600000Y-136800000D03*
X233000000Y-136800000D03*
X224780888Y-135204990D03*
X241000000Y-142400000D03*
X226000000Y-138400000D03*
X237800000Y-141800000D03*
X228850000Y-140950000D03*
X242450000Y-143850000D03*
X225650000Y-140950000D03*
X234600000Y-132000000D03*
X234600000Y-134400000D03*
X235397376Y-136800000D03*
X193750000Y-122100000D03*
X205750000Y-125100000D03*
X237797376Y-134404990D03*
X194750000Y-125100000D03*
X237797376Y-137604990D03*
X189750000Y-131100000D03*
X190750000Y-123100000D03*
X194750000Y-136100000D03*
X229797376Y-140805088D03*
X195750000Y-124100000D03*
X237797376Y-132805088D03*
X238597376Y-138405088D03*
X237797376Y-138405088D03*
X237797376Y-139205088D03*
X200750000Y-120100000D03*
X189750000Y-136100000D03*
X191750000Y-126100000D03*
X203750000Y-130100000D03*
X200750000Y-129100000D03*
X198750000Y-129100000D03*
X196750000Y-132100000D03*
X192750000Y-135100000D03*
X190750000Y-134100000D03*
X193750000Y-133100000D03*
X191750000Y-132100000D03*
X192750000Y-130100000D03*
X194750000Y-130100000D03*
X196750000Y-129100000D03*
X194750000Y-127100000D03*
X195750000Y-127100000D03*
X196750000Y-127100000D03*
X198750000Y-126100000D03*
X198750000Y-124100000D03*
X201750000Y-123100000D03*
X204750000Y-122100000D03*
X198750000Y-135100000D03*
X201750000Y-134100000D03*
X200750000Y-131100000D03*
X205750000Y-136100000D03*
X202750000Y-126100000D03*
X239900000Y-130100000D03*
X232997376Y-132005088D03*
X230597376Y-134404990D03*
X229797376Y-132804990D03*
X235400000Y-132800000D03*
X236197376Y-138405088D03*
X242750000Y-140750000D03*
X230600000Y-133600000D03*
X229797376Y-133604990D03*
X196750000Y-125100000D03*
X226800000Y-135200000D03*
X226600000Y-128800000D03*
X228600000Y-130450000D03*
X233800000Y-138400000D03*
X235397376Y-136005088D03*
X199750000Y-125100000D03*
X204750000Y-133100000D03*
X257600000Y-107350000D03*
X248650000Y-108700000D03*
X256100000Y-106550000D03*
X260150000Y-108000000D03*
X250400000Y-110500000D03*
X261600000Y-106575000D03*
X145600000Y-153000000D03*
X142500000Y-150700000D03*
X137775000Y-150700000D03*
X245300000Y-121900000D03*
X253875000Y-123600000D03*
X253350000Y-124100000D03*
X247000000Y-120500000D03*
X253375000Y-125100000D03*
X253850000Y-125600000D03*
X244300000Y-123800000D03*
X216450000Y-112400000D03*
X196750000Y-122100000D03*
X198750000Y-122100000D03*
X217250000Y-112400000D03*
X213250000Y-115600000D03*
X200750000Y-121100000D03*
X216450000Y-118000000D03*
X204750000Y-121100000D03*
X218050000Y-116400000D03*
X201750000Y-124100000D03*
X211650000Y-115599991D03*
X200750000Y-122100000D03*
X216450000Y-114800000D03*
X200750000Y-124100000D03*
X199750000Y-120100000D03*
X211650000Y-114000000D03*
X213250000Y-113994946D03*
X199750000Y-123100000D03*
X217250000Y-114000000D03*
X198750000Y-121100000D03*
X203750000Y-120100000D03*
X213259169Y-117195010D03*
X202750000Y-120100000D03*
X217250000Y-117200000D03*
X212464694Y-116404990D03*
X201750000Y-122100000D03*
X197750000Y-120100000D03*
X213250000Y-112400000D03*
X201750000Y-121100000D03*
X216450000Y-116400000D03*
X201750000Y-120100000D03*
X217250000Y-115600000D03*
X204750000Y-120100000D03*
X218050000Y-118000000D03*
X211656186Y-117204990D03*
X203750000Y-121100000D03*
X198750000Y-123100000D03*
X218050000Y-113200000D03*
X216450000Y-121200000D03*
X203750000Y-126100000D03*
X196750000Y-123100000D03*
X211650000Y-112400000D03*
X217250000Y-118800000D03*
X202750000Y-122100000D03*
X198750000Y-120100000D03*
X212450000Y-113200000D03*
X213250000Y-122000000D03*
X202750000Y-125100000D03*
X202750000Y-123100000D03*
X218050000Y-118800000D03*
X218050000Y-122050000D03*
X205750000Y-129100000D03*
X217250000Y-122800000D03*
X204750000Y-129100000D03*
X199750000Y-121100000D03*
X218050000Y-114800000D03*
X205750000Y-127100000D03*
X217250000Y-121200000D03*
X216450000Y-122000000D03*
X201750000Y-127100000D03*
X203750000Y-123100000D03*
X212450000Y-119600000D03*
X217250000Y-120400000D03*
X204749220Y-126100000D03*
X212450000Y-121200000D03*
X205750000Y-124100000D03*
X216450000Y-122800000D03*
X202750000Y-127100000D03*
X203750000Y-122100000D03*
X216450000Y-119600000D03*
X213250000Y-122800000D03*
X201750000Y-126100000D03*
X204750000Y-125100000D03*
X212450000Y-122000000D03*
X204750000Y-124100000D03*
X213250000Y-121200000D03*
X212450000Y-122800000D03*
X201750000Y-125100000D03*
X205750000Y-126100000D03*
X212450000Y-123600000D03*
X202750000Y-124100000D03*
X213250000Y-120400000D03*
X203750000Y-125100000D03*
X212450000Y-120400000D03*
X205750000Y-123100000D03*
X216450000Y-120400000D03*
X204750000Y-123100000D03*
X213250000Y-119600000D03*
X249500000Y-130300000D03*
X246950000Y-129750000D03*
X246500000Y-125850000D03*
X224550000Y-118815254D03*
X224550000Y-116315254D03*
X223000000Y-116050000D03*
X223000000Y-119100000D03*
X221450000Y-118815254D03*
X221450000Y-116315254D03*
X213238213Y-118004990D03*
X244100000Y-104450000D03*
X241200000Y-105400000D03*
X236125000Y-103950000D03*
X233900000Y-103200000D03*
X232000000Y-113775000D03*
X233524514Y-117116066D03*
X237250000Y-112300000D03*
X259950000Y-103200000D03*
X252000000Y-106750000D03*
X252000000Y-105250000D03*
X235400000Y-140000000D03*
X234850000Y-145700000D03*
X136200000Y-134850000D03*
X132400000Y-123800000D03*
X181650000Y-149250000D03*
X177450000Y-105000000D03*
X192750000Y-120100000D03*
X132600000Y-129950000D03*
X123100000Y-123500000D03*
X134600000Y-129950000D03*
X120850000Y-125900000D03*
X126300000Y-126400000D03*
X134750000Y-124500000D03*
X158350000Y-119800000D03*
X134700000Y-122800000D03*
X120500000Y-106900000D03*
X158500000Y-106400000D03*
X120250000Y-108900000D03*
X123100000Y-124150000D03*
X130300000Y-124800000D03*
X125893159Y-118431586D03*
X128950000Y-118500000D03*
X128750000Y-122850000D03*
X116900000Y-125850000D03*
X130550000Y-114000000D03*
X130300000Y-124150000D03*
X133600000Y-114000000D03*
X126100000Y-121050000D03*
X116800000Y-107200000D03*
X123100000Y-128700000D03*
X121550000Y-144500000D03*
X123100000Y-128050000D03*
X127050000Y-144500000D03*
X134550000Y-128600000D03*
X131900000Y-126100000D03*
X124600000Y-124150000D03*
X123100000Y-125450000D03*
X269150000Y-108150000D03*
X267550000Y-107950000D03*
X269200000Y-112200000D03*
X267550000Y-112000000D03*
X251000000Y-118200000D03*
X241200000Y-115700000D03*
X265550000Y-108900000D03*
X249650000Y-117250000D03*
X265550000Y-112950000D03*
X243250000Y-117250000D03*
D11*
X217500000Y-108750000D02*
X209300000Y-108750000D01*
X198900000Y-108900000D02*
X189100000Y-99100000D01*
X209300000Y-108750000D02*
X209250000Y-108700000D01*
X209250000Y-108700000D02*
X204100000Y-108700000D01*
X204100000Y-108700000D02*
X203900000Y-108900000D01*
X203900000Y-108900000D02*
X198900000Y-108900000D01*
X189100000Y-99100000D02*
X175400000Y-99100000D01*
X173150000Y-101350000D02*
X166750000Y-101350000D01*
X175400000Y-99100000D02*
X173150000Y-101350000D01*
X166750000Y-101350000D02*
X153475000Y-114625000D01*
X153475000Y-114625000D02*
X152450000Y-114625000D01*
X226100000Y-119000000D02*
X228950000Y-116150000D01*
X228950000Y-116150000D02*
X228950000Y-115150000D01*
X233400000Y-135800000D02*
X233400000Y-141500000D01*
X233400000Y-141500000D02*
X233100000Y-141800000D01*
X233200000Y-135600000D02*
X233400000Y-135800000D01*
X232800000Y-135600000D02*
X233200000Y-135600000D01*
X232600000Y-135400000D02*
X232800000Y-135600000D01*
X232600000Y-135000000D02*
X232600000Y-135400000D01*
X232400000Y-134800000D02*
X232600000Y-135000000D01*
X232250000Y-134800000D02*
X232400000Y-134800000D01*
X231800000Y-134800000D02*
X232250000Y-134800000D01*
X231400000Y-134400000D02*
X231800000Y-134800000D01*
X141700000Y-98650000D02*
X140100000Y-100125000D01*
X140100000Y-103850000D02*
X140100000Y-103800000D01*
X137425000Y-106525000D02*
X140100000Y-103850000D01*
X137325000Y-106525000D02*
X137425000Y-106525000D01*
X140100000Y-100125000D02*
X140100000Y-103800000D01*
X137225000Y-106525000D02*
X135950000Y-105250000D01*
X137325000Y-106525000D02*
X137225000Y-106525000D01*
X134500000Y-105250000D02*
X134375000Y-105125000D01*
X135950000Y-105250000D02*
X134500000Y-105250000D01*
X230900000Y-117939411D02*
X230900000Y-117600000D01*
X230050000Y-121450000D02*
X230900000Y-120600000D01*
X230000000Y-123350000D02*
X230000000Y-121450000D01*
X230900000Y-120600000D02*
X230900000Y-117939411D01*
X230600000Y-123950000D02*
X230000000Y-123350000D01*
X230000000Y-121450000D02*
X230050000Y-121450000D01*
X230600000Y-132000000D02*
X230600000Y-123950000D01*
X240239181Y-109064181D02*
X237525000Y-106350000D01*
X237525000Y-106350000D02*
X237525000Y-103150000D01*
X244600000Y-108256508D02*
X244600000Y-107650000D01*
X244600000Y-107650000D02*
X244600000Y-105150000D01*
X244613633Y-108699939D02*
X244613633Y-107663633D01*
X244613633Y-107663633D02*
X244600000Y-107650000D01*
X248300000Y-102600000D02*
X248300000Y-103200000D01*
X248300000Y-103200000D02*
X247750000Y-103750000D01*
X244600000Y-105150000D02*
X246000000Y-103750000D01*
X246000000Y-103750000D02*
X247750000Y-103750000D01*
X244609811Y-108266319D02*
X244600000Y-108256508D01*
X154000000Y-125000000D02*
X151100000Y-125000000D01*
X151100000Y-125000000D02*
X148250000Y-127850000D01*
X148250000Y-127850000D02*
X145740000Y-127850000D01*
X145740000Y-127850000D02*
X144410000Y-126520000D01*
X201763457Y-138842879D02*
X202003456Y-138602880D01*
X197906336Y-142700000D02*
X201763457Y-138842879D01*
X193250000Y-142700000D02*
X197906336Y-142700000D01*
X200750000Y-133100000D02*
X200250000Y-133600000D01*
X200250000Y-133600000D02*
X200250000Y-136950000D01*
X199700000Y-137500000D02*
X195500000Y-137500000D01*
X200250000Y-136950000D02*
X199700000Y-137500000D01*
X195500000Y-137500000D02*
X194200000Y-138800000D01*
X194250000Y-140750000D02*
X198900000Y-140750000D01*
X198900000Y-140750000D02*
X201150000Y-138500000D01*
X201150000Y-138500000D02*
X201250000Y-138500000D01*
X201250000Y-138500000D02*
X201800000Y-137950000D01*
X130300000Y-128050000D02*
X134750000Y-128050000D01*
X134750000Y-128050000D02*
X135450000Y-128750000D01*
X135450000Y-128750000D02*
X140050000Y-128750000D01*
X194200000Y-139850000D02*
X195400000Y-138650000D01*
X195400000Y-138650000D02*
X200050000Y-138650000D01*
X128800000Y-130400000D02*
X127800000Y-130400000D01*
X206300000Y-106950000D02*
X207150000Y-106950000D01*
X207150000Y-106950000D02*
X207700000Y-107500000D01*
X205400000Y-106150000D02*
X205500000Y-106150000D01*
X205500000Y-106150000D02*
X206300000Y-106950000D01*
X146728598Y-130400000D02*
X128800000Y-130400000D01*
X165400000Y-130400000D02*
X146728598Y-130400000D01*
X165400000Y-130000000D02*
X165400000Y-126150000D01*
X173800000Y-138800000D02*
X165400000Y-130400000D01*
X165400000Y-130400000D02*
X165400000Y-130000000D01*
X233100000Y-147200000D02*
X234758696Y-147200000D01*
X234758696Y-147200000D02*
X235244746Y-147686050D01*
X176650000Y-131100000D02*
X176650000Y-144600000D01*
X176650000Y-144600000D02*
X176750000Y-144700000D01*
X247100000Y-117300000D02*
X247100000Y-116800000D01*
X236600000Y-122700000D02*
X236600000Y-120500000D01*
X236600000Y-122700000D02*
X239900000Y-119400000D01*
X240000000Y-119300000D02*
X245100000Y-119300000D01*
X239900000Y-119400000D02*
X240000000Y-119300000D01*
X245100000Y-119300000D02*
X247100000Y-117300000D01*
X236600000Y-123700000D02*
X236600000Y-122700000D01*
X236600000Y-132400000D02*
X236600000Y-123700000D01*
X237000000Y-132800000D02*
X236600000Y-132400000D01*
X196750000Y-124100000D02*
X197250000Y-123600000D01*
X201150000Y-111450000D02*
X203050000Y-111450000D01*
X196950000Y-121100000D02*
X196950000Y-115650000D01*
X197250000Y-121400000D02*
X196950000Y-121100000D01*
X203050000Y-111450000D02*
X203600000Y-110900000D01*
X196950000Y-115650000D02*
X201150000Y-111450000D01*
X197250000Y-123600000D02*
X197250000Y-121400000D01*
X236200000Y-135200000D02*
X237400000Y-134000000D01*
X237400000Y-134000000D02*
X237400000Y-132250000D01*
X237400000Y-123775000D02*
X238425000Y-122750000D01*
X237400000Y-132250000D02*
X237400000Y-123775000D01*
X235400000Y-132000000D02*
X236200000Y-131200000D01*
X230100000Y-107500000D02*
X209650000Y-107500000D01*
X209550000Y-107600000D02*
X209650000Y-107500000D01*
X209550000Y-107600000D02*
X209250000Y-107900000D01*
X209250000Y-107900000D02*
X205700000Y-107900000D01*
X205700000Y-107900000D02*
X205300000Y-107500000D01*
X233900000Y-123050000D02*
X233800000Y-123050000D01*
X234250000Y-122700000D02*
X233900000Y-123050000D01*
X234250000Y-122050000D02*
X234250000Y-122700000D01*
X237000000Y-119300000D02*
X234250000Y-122050000D01*
X234195001Y-141939601D02*
X233284602Y-142850000D01*
X234600000Y-140000000D02*
X234195001Y-140404999D01*
X233284602Y-142850000D02*
X216850000Y-142850000D01*
X234195001Y-140404999D02*
X234195001Y-141939601D01*
X216850000Y-142850000D02*
X215450000Y-141450000D01*
X232597376Y-139605186D02*
X232597376Y-141012876D01*
X220650000Y-142200000D02*
X218500000Y-140050000D01*
X232597376Y-141012876D02*
X231410252Y-142200000D01*
X232997474Y-139205088D02*
X232597376Y-139605186D01*
X231410252Y-142200000D02*
X220650000Y-142200000D01*
X218500000Y-140050000D02*
X215450000Y-140050000D01*
X226104999Y-138004999D02*
X219100000Y-131000000D01*
X219100000Y-131000000D02*
X218050000Y-131000000D01*
X231797465Y-138004999D02*
X226104999Y-138004999D01*
X232197376Y-137605088D02*
X231797465Y-138004999D01*
X232200000Y-138400000D02*
X231800000Y-138800000D01*
X223050000Y-138800000D02*
X218050000Y-133800000D01*
X231800000Y-138800000D02*
X223050000Y-138800000D01*
X232197376Y-139205088D02*
X231797376Y-139605088D01*
X231797376Y-139605088D02*
X231797376Y-141002624D01*
X231300000Y-141500000D02*
X221350000Y-141500000D01*
X231797376Y-141002624D02*
X231300000Y-141500000D01*
X221350000Y-141500000D02*
X218500000Y-138650000D01*
X218500000Y-138650000D02*
X215450000Y-138650000D01*
X221050000Y-130000000D02*
X215400000Y-130000000D01*
X231397376Y-135204990D02*
X230992386Y-134800000D01*
X230992386Y-134800000D02*
X225850000Y-134800000D01*
X225850000Y-134800000D02*
X221050000Y-130000000D01*
X222450000Y-139600000D02*
X218050000Y-135200000D01*
X231000000Y-139600000D02*
X222450000Y-139600000D01*
X231400000Y-139200000D02*
X231000000Y-139600000D01*
X230600000Y-140800000D02*
X230200000Y-140400000D01*
X230200000Y-140400000D02*
X221750000Y-140400000D01*
X221750000Y-140400000D02*
X218350000Y-137000000D01*
X218350000Y-137000000D02*
X215400000Y-137000000D01*
X241060001Y-113260001D02*
X241250000Y-113450000D01*
X218600000Y-126100000D02*
X220259602Y-126100000D01*
X220259602Y-126100000D02*
X232859602Y-113500000D01*
X232859602Y-113500000D02*
X232900000Y-113500000D01*
X232900000Y-113500000D02*
X233139999Y-113260001D01*
X233139999Y-113260001D02*
X241060001Y-113260001D01*
X215400000Y-126100000D02*
X218600000Y-126100000D01*
X212400000Y-129100000D02*
X215400000Y-126100000D01*
X205300000Y-109100000D02*
X205300000Y-109500000D01*
X205300000Y-109500000D02*
X205950000Y-110150000D01*
X205950000Y-110150000D02*
X211950000Y-110150000D01*
X211950000Y-110150000D02*
X212900000Y-109200000D01*
X212900000Y-109200000D02*
X236400000Y-109200000D01*
X239100000Y-111900000D02*
X240700000Y-111900000D01*
X240700000Y-111900000D02*
X241300000Y-112500000D01*
X236400000Y-109200000D02*
X236675000Y-109200000D01*
X239100000Y-111900000D02*
X236400000Y-109200000D01*
X238064904Y-109299118D02*
X237714904Y-109299118D01*
X237714904Y-109299118D02*
X237615786Y-109200000D01*
X237615786Y-109200000D02*
X236675000Y-109200000D01*
X189650000Y-125600000D02*
X185980889Y-125600000D01*
X178150000Y-124050000D02*
X179650000Y-125550000D01*
X179650000Y-125550000D02*
X182720909Y-125550000D01*
X182720909Y-125550000D02*
X184135900Y-126964991D01*
X184135900Y-126964991D02*
X184375899Y-127204990D01*
X184615898Y-126964991D02*
X184375899Y-127204990D01*
X185980889Y-125600000D02*
X184615898Y-126964991D01*
X177100000Y-124050000D02*
X178150000Y-124050000D01*
X190250000Y-125600000D02*
X192750000Y-123100000D01*
X189650000Y-125600000D02*
X190250000Y-125600000D01*
X238050000Y-116450000D02*
X240550061Y-113949939D01*
X240550061Y-113949939D02*
X242363633Y-113949939D01*
X231150000Y-116450000D02*
X238050000Y-116450000D01*
X226350000Y-121250000D02*
X231150000Y-116450000D01*
X216850000Y-125450000D02*
X217650000Y-124650000D01*
X217650000Y-124650000D02*
X220550000Y-124650000D01*
X215250000Y-125450000D02*
X216850000Y-125450000D01*
X211600000Y-129100000D02*
X215250000Y-125450000D01*
X208350000Y-129100000D02*
X211600000Y-129100000D01*
X181650000Y-105000000D02*
X182816672Y-106166672D01*
X182816672Y-106166672D02*
X183683328Y-106166672D01*
X183683328Y-106166672D02*
X195750000Y-118233344D01*
X195750000Y-118233344D02*
X195750000Y-118598266D01*
X195750000Y-118598266D02*
X195750000Y-120100000D01*
X182900000Y-104950000D02*
X183883328Y-105933328D01*
X183883328Y-105933328D02*
X183916672Y-105933328D01*
X183916672Y-105933328D02*
X196250000Y-118266656D01*
X196250000Y-118266656D02*
X196250000Y-120600000D01*
X196250000Y-120600000D02*
X195750000Y-121100000D01*
X237000000Y-140000000D02*
X237400000Y-140400000D01*
X226350000Y-149200000D02*
X223800000Y-149200000D01*
X237400000Y-140400000D02*
X237400000Y-144800000D01*
X237400000Y-144800000D02*
X238100000Y-145500000D01*
X238100000Y-145500000D02*
X238100000Y-146200000D01*
X229250000Y-146300000D02*
X226350000Y-149200000D01*
X238100000Y-146200000D02*
X237400000Y-146900000D01*
X237400000Y-146900000D02*
X236200000Y-146900000D01*
X223800000Y-149200000D02*
X223221999Y-149778001D01*
X236200000Y-146900000D02*
X235600000Y-146300000D01*
X235600000Y-146300000D02*
X229250000Y-146300000D01*
X223221999Y-149778001D02*
X222460000Y-150540000D01*
X236150000Y-152400000D02*
X220000000Y-152400000D01*
X218600000Y-149200000D02*
X218600000Y-151000000D01*
X218600000Y-151000000D02*
X220000000Y-152400000D01*
X218161999Y-148761999D02*
X218600000Y-149200000D01*
X217380000Y-148000000D02*
X218141999Y-148761999D01*
X218141999Y-148761999D02*
X218161999Y-148761999D01*
X237800000Y-140800000D02*
X238600000Y-141600000D01*
X238600000Y-141600000D02*
X238600000Y-142800000D01*
X239300000Y-143500000D02*
X239300000Y-149250000D01*
X238600000Y-142800000D02*
X239300000Y-143500000D01*
X239300000Y-149250000D02*
X236150000Y-152400000D01*
X221200000Y-147500000D02*
X221200000Y-149260000D01*
X221200000Y-149260000D02*
X219920000Y-150540000D01*
X224050000Y-144650000D02*
X221200000Y-147500000D01*
X233600000Y-144650000D02*
X224050000Y-144650000D01*
X235000000Y-143250000D02*
X233600000Y-144650000D01*
X235000000Y-143250000D02*
X235000000Y-138800000D01*
X235000000Y-138800000D02*
X235400000Y-138400000D01*
X150700000Y-126700000D02*
X150450000Y-126950000D01*
X150450000Y-126950000D02*
X148340000Y-129060000D01*
X166550000Y-121400000D02*
X161450000Y-126500000D01*
X161450000Y-126500000D02*
X150900000Y-126500000D01*
X150900000Y-126500000D02*
X150450000Y-126950000D01*
X148340000Y-129060000D02*
X146950000Y-129060000D01*
X234850000Y-122600000D02*
X234850000Y-122350000D01*
X234200000Y-123250000D02*
X234850000Y-122600000D01*
X234200000Y-124750000D02*
X234200000Y-123250000D01*
X234200000Y-133200000D02*
X234200000Y-124750000D01*
X233800000Y-133600000D02*
X234200000Y-133200000D01*
X225500000Y-116700000D02*
X225500000Y-111750000D01*
X231400000Y-122600000D02*
X230700000Y-121900000D01*
X231400000Y-124500000D02*
X231400000Y-122600000D01*
X232600000Y-125700000D02*
X231400000Y-124500000D01*
X232600000Y-133200000D02*
X232600000Y-125700000D01*
X233000000Y-133600000D02*
X232600000Y-133200000D01*
X145650000Y-137980000D02*
X144410000Y-139220000D01*
X147800000Y-135400000D02*
X146450000Y-135400000D01*
X152000000Y-131200000D02*
X147800000Y-135400000D01*
X146450000Y-135400000D02*
X145650000Y-136200000D01*
X145650000Y-136200000D02*
X145650000Y-137980000D01*
X217900000Y-109700000D02*
X214550000Y-109700000D01*
X204700000Y-110750000D02*
X213500000Y-110750000D01*
X213500000Y-110750000D02*
X214550000Y-109700000D01*
X204300000Y-110350000D02*
X204700000Y-110750000D01*
X204300000Y-110300000D02*
X191500000Y-110300000D01*
X204300000Y-110300000D02*
X204300000Y-110350000D01*
X153600000Y-131200000D02*
X153600000Y-134800000D01*
X153600000Y-134800000D02*
X147900000Y-140500000D01*
X147900000Y-140500000D02*
X145670000Y-140500000D01*
X145670000Y-140500000D02*
X144410000Y-141760000D01*
X220100000Y-116100000D02*
X220100000Y-111900000D01*
X220100000Y-111900000D02*
X217900000Y-109700000D01*
X226200000Y-133200000D02*
X226200000Y-132900000D01*
X226200000Y-132900000D02*
X225200000Y-131900000D01*
X231800000Y-133200000D02*
X226200000Y-133200000D01*
X232200000Y-133600000D02*
X231800000Y-133200000D01*
X209250000Y-137600000D02*
X210650000Y-137600000D01*
X206300000Y-134650000D02*
X209250000Y-137600000D01*
X206300000Y-134600000D02*
X206300000Y-134650000D01*
X205250000Y-134600000D02*
X206300000Y-134600000D01*
X204750000Y-134100000D02*
X205250000Y-134600000D01*
X206115398Y-141450000D02*
X213350000Y-141450000D01*
X200750000Y-134100000D02*
X201250000Y-134600000D01*
X201250000Y-136584602D02*
X206115398Y-141450000D01*
X201250000Y-134600000D02*
X201250000Y-136584602D01*
X202750000Y-129100000D02*
X203250000Y-129600000D01*
X203250000Y-129600000D02*
X212900000Y-129600000D01*
X212900000Y-129600000D02*
X213300000Y-130000000D01*
X202750000Y-133100000D02*
X203250000Y-133600000D01*
X203250000Y-133600000D02*
X206250000Y-133600000D01*
X206250000Y-133600000D02*
X207850000Y-135200000D01*
X207850000Y-135200000D02*
X212900000Y-135200000D01*
X212900000Y-135200000D02*
X213300000Y-135600000D01*
X205249260Y-135600000D02*
X206250000Y-135600000D01*
X208900000Y-138250000D02*
X212950000Y-138250000D01*
X212950000Y-138250000D02*
X213350000Y-138650000D01*
X206250000Y-135600000D02*
X208900000Y-138250000D01*
X204749260Y-135100000D02*
X205249260Y-135600000D01*
X202250000Y-131600000D02*
X202250000Y-135600000D01*
X206700000Y-140050000D02*
X213350000Y-140050000D01*
X202250000Y-135600000D02*
X206700000Y-140050000D01*
X201750000Y-131100000D02*
X202250000Y-131600000D01*
X204750000Y-130100000D02*
X205250000Y-130600000D01*
X212900000Y-131000000D02*
X213300000Y-131400000D01*
X205250000Y-130600000D02*
X206250000Y-130600000D01*
X206250000Y-130600000D02*
X206650000Y-131000000D01*
X206650000Y-131000000D02*
X212900000Y-131000000D01*
X203750000Y-131100000D02*
X204250000Y-131600000D01*
X204250000Y-131600000D02*
X205950000Y-131600000D01*
X205950000Y-131600000D02*
X206750000Y-132400000D01*
X206750000Y-132400000D02*
X212900000Y-132400000D01*
X212900000Y-132400000D02*
X213300000Y-132800000D01*
X204750000Y-132100000D02*
X205250000Y-132600000D01*
X205250000Y-132600000D02*
X206250000Y-132600000D01*
X206250000Y-132600000D02*
X207450000Y-133800000D01*
X207450000Y-133800000D02*
X212900000Y-133800000D01*
X212900000Y-133800000D02*
X213300000Y-134200000D01*
X236600000Y-137200000D02*
X236600000Y-144800000D01*
X236200000Y-136800000D02*
X236600000Y-137200000D01*
X236100000Y-145500000D02*
X236600000Y-145000000D01*
X236050000Y-145500000D02*
X236100000Y-145500000D01*
X236600000Y-145000000D02*
X236600000Y-144800000D01*
X237000000Y-135200000D02*
X237400000Y-135600000D01*
X237400000Y-135600000D02*
X239650000Y-135600000D01*
X239650000Y-135600000D02*
X240050000Y-135200000D01*
D12*
X242550000Y-137500000D02*
X243750000Y-137500000D01*
X243750000Y-137500000D02*
X244400000Y-138150000D01*
X241300000Y-138150000D02*
X241900000Y-138150000D01*
X241900000Y-138150000D02*
X242550000Y-137500000D01*
D11*
X177950000Y-103550000D02*
X177950000Y-101800000D01*
X177950000Y-101800000D02*
X178550000Y-101200000D01*
X178550000Y-101200000D02*
X179000000Y-101200000D01*
X194750000Y-122100000D02*
X194250000Y-121600000D01*
X194250000Y-121600000D02*
X194250000Y-118600000D01*
X179500000Y-104350000D02*
X179500000Y-102200000D01*
X194250000Y-118600000D02*
X182000000Y-106350000D01*
X182000000Y-106350000D02*
X181500000Y-106350000D01*
X181500000Y-106350000D02*
X179500000Y-104350000D01*
X179500000Y-102200000D02*
X179000000Y-101700000D01*
X179000000Y-101700000D02*
X179000000Y-101200000D01*
X195750000Y-122100000D02*
X195250000Y-121600000D01*
X195250000Y-121600000D02*
X195250000Y-118300000D01*
X195250000Y-118300000D02*
X183950000Y-107000000D01*
X172525000Y-105000000D02*
X169825000Y-105000000D01*
X169825000Y-105000000D02*
X168250000Y-103425000D01*
X173150000Y-107850000D02*
X173150000Y-105625000D01*
X173150000Y-105625000D02*
X172525000Y-105000000D01*
X179500000Y-146350000D02*
X179500000Y-147150000D01*
X219032826Y-146600000D02*
X221887816Y-143745010D01*
X179500000Y-147150000D02*
X181050000Y-148700000D01*
X181050000Y-148700000D02*
X182450000Y-148700000D01*
X182450000Y-148700000D02*
X186300000Y-152550000D01*
X186300000Y-152600000D02*
X208600000Y-152600000D01*
X186300000Y-152550000D02*
X186300000Y-152600000D01*
X214600000Y-146600000D02*
X219032826Y-146600000D01*
X208600000Y-152600000D02*
X214600000Y-146600000D01*
X179500000Y-145500000D02*
X181300000Y-145500000D01*
X181300000Y-145500000D02*
X187000000Y-151200000D01*
X187000000Y-151200000D02*
X196100000Y-151200000D01*
X220675007Y-143985009D02*
X220915006Y-143745010D01*
X196100000Y-151200000D02*
X198000000Y-149300000D01*
X198000000Y-149300000D02*
X209950000Y-149300000D01*
X209950000Y-149300000D02*
X213100000Y-146150000D01*
X213100000Y-146150000D02*
X218510016Y-146150000D01*
X218510016Y-146150000D02*
X220675007Y-143985009D01*
X178700000Y-145400000D02*
X180650000Y-143450000D01*
X180650000Y-143450000D02*
X219714065Y-143450000D01*
X219714065Y-143450000D02*
X220009075Y-143745010D01*
X156400000Y-137100000D02*
X160300000Y-137100000D01*
X160300000Y-137100000D02*
X164200000Y-141000000D01*
X164200000Y-141000000D02*
X168600000Y-141000000D01*
X174100000Y-146500000D02*
X174100000Y-147000000D01*
X168600000Y-141000000D02*
X174100000Y-146500000D01*
X174100000Y-147000000D02*
X176260001Y-149160001D01*
X176260001Y-149160001D02*
X176460001Y-149160001D01*
X176460001Y-149160001D02*
X176700000Y-149400000D01*
X156400000Y-137100000D02*
X153273500Y-137100000D01*
X153273500Y-137100000D02*
X151573880Y-138799620D01*
X151573880Y-138799620D02*
X151573880Y-139300000D01*
X156700000Y-137100000D02*
X156400000Y-137100000D01*
X163700000Y-143100000D02*
X158399990Y-137799990D01*
X171300000Y-144700000D02*
X168650000Y-144700000D01*
X163700000Y-143100000D02*
X167050000Y-143100000D01*
X167050000Y-143100000D02*
X168650000Y-144700000D01*
X153550000Y-138600230D02*
X153550000Y-139300000D01*
X154350240Y-137799990D02*
X153550000Y-138600230D01*
X174400000Y-147800000D02*
X171300000Y-144700000D01*
X158399990Y-137799990D02*
X154350240Y-137799990D01*
X174500000Y-147900000D02*
X174400000Y-147800000D01*
X174600000Y-148000000D02*
X174800000Y-148200000D01*
X174800000Y-148200000D02*
X176600000Y-150000000D01*
X174400000Y-147800000D02*
X174800000Y-148200000D01*
X177926476Y-150000000D02*
X178209300Y-150282824D01*
X176600000Y-150000000D02*
X177926476Y-150000000D01*
X178209300Y-150282824D02*
X178509300Y-150282824D01*
X165725000Y-146025000D02*
X166850000Y-147150000D01*
X170150000Y-148000000D02*
X172600000Y-148000000D01*
X166850000Y-147150000D02*
X169300000Y-147150000D01*
X169300000Y-147150000D02*
X170150000Y-148000000D01*
X155526120Y-139300000D02*
X156525750Y-139300000D01*
X156525750Y-139300000D02*
X163225750Y-146000000D01*
X163225750Y-146000000D02*
X165725000Y-146000000D01*
X165725000Y-146000000D02*
X165725000Y-146025000D01*
X172600000Y-148000000D02*
X173600000Y-149000000D01*
X173600000Y-149000000D02*
X175000000Y-149000000D01*
X175000000Y-149000000D02*
X176860001Y-150860001D01*
X176860001Y-150860001D02*
X178689999Y-150860001D01*
X178050000Y-146950000D02*
X175900000Y-144800000D01*
X175900000Y-144800000D02*
X175900000Y-127725000D01*
X175900000Y-127725000D02*
X176325000Y-127300000D01*
X175200000Y-128151120D02*
X174348880Y-127300000D01*
X176700000Y-148400000D02*
X175200000Y-146900000D01*
X175200000Y-146900000D02*
X175200000Y-128151120D01*
X174600000Y-135500000D02*
X172372760Y-133272760D01*
X177609300Y-148882824D02*
X176482824Y-148882824D01*
X176482824Y-148882824D02*
X174600000Y-147000000D01*
X174600000Y-147000000D02*
X174600000Y-135500000D01*
X172372760Y-133272760D02*
X172372760Y-127300000D01*
X232200000Y-134400000D02*
X231800000Y-134000000D01*
X231800000Y-134000000D02*
X226100000Y-134000000D01*
X221550000Y-129450000D02*
X221550000Y-127450000D01*
X221550000Y-127450000D02*
X230100000Y-118900000D01*
X226100000Y-134000000D02*
X221550000Y-129450000D01*
X230100000Y-118900000D02*
X230100000Y-118100000D01*
X226000000Y-110800000D02*
X225800000Y-111000000D01*
X227550000Y-110800000D02*
X226000000Y-110800000D01*
X228400000Y-111650000D02*
X227550000Y-110800000D01*
X228400000Y-112900000D02*
X228400000Y-111650000D01*
X229550000Y-114050000D02*
X228400000Y-112900000D01*
X229550000Y-115500000D02*
X229550000Y-114050000D01*
X155650000Y-124850000D02*
X154850000Y-124050000D01*
X154850000Y-124050000D02*
X152000000Y-124050000D01*
X159950000Y-124850000D02*
X155650000Y-124850000D01*
X142500000Y-150700000D02*
X140050000Y-150700000D01*
X140050000Y-150700000D02*
X137775000Y-150700000D01*
X142500000Y-150700000D02*
X142500000Y-150875000D01*
X142500000Y-150875000D02*
X143425000Y-151800000D01*
X143425000Y-151800000D02*
X144400000Y-151800000D01*
X144400000Y-151800000D02*
X145600000Y-153000000D01*
X201250000Y-120600000D02*
X201250000Y-119500000D01*
X201300000Y-119500000D02*
X204800000Y-116000000D01*
X204800000Y-116000000D02*
X212850000Y-116000000D01*
X201250000Y-119500000D02*
X201300000Y-119500000D01*
X200750000Y-121100000D02*
X201250000Y-120600000D01*
X212850000Y-116000000D02*
X213250000Y-115600000D01*
X200750000Y-124100000D02*
X200250000Y-123600000D01*
X200250000Y-123600000D02*
X200250000Y-119250000D01*
X200250000Y-119250000D02*
X205100000Y-114400000D01*
X205100000Y-114400000D02*
X216050000Y-114400000D01*
X216050000Y-114400000D02*
X216450000Y-114800000D01*
X199750000Y-123100000D02*
X199250000Y-122600000D01*
X199250000Y-122600000D02*
X199250000Y-118850000D01*
X204500000Y-113600000D02*
X212855054Y-113600000D01*
X199250000Y-118850000D02*
X204500000Y-113600000D01*
X212855054Y-113600000D02*
X213250000Y-113994946D01*
X201750000Y-122100000D02*
X202250000Y-121600000D01*
X212069684Y-116800000D02*
X212464694Y-116404990D01*
X202250000Y-121600000D02*
X202250000Y-119850000D01*
X202250000Y-119850000D02*
X205300000Y-116800000D01*
X205300000Y-116800000D02*
X212069684Y-116800000D01*
X197750000Y-118150000D02*
X203900000Y-112000000D01*
X197750000Y-120100000D02*
X197750000Y-118150000D01*
X203900000Y-112000000D02*
X212850000Y-112000000D01*
X212850000Y-112000000D02*
X213250000Y-112400000D01*
X206550000Y-120600000D02*
X209945010Y-117204990D01*
X203750000Y-121100000D02*
X204250000Y-120600000D01*
X211316775Y-117204990D02*
X211656186Y-117204990D01*
X209945010Y-117204990D02*
X211316775Y-117204990D01*
X204250000Y-120600000D02*
X206550000Y-120600000D01*
X204000000Y-112800000D02*
X217650000Y-112800000D01*
X198750000Y-123100000D02*
X198250000Y-122600000D01*
X198250000Y-122600000D02*
X198250000Y-118550000D01*
X217650000Y-112800000D02*
X218050000Y-113200000D01*
X198250000Y-118550000D02*
X204000000Y-112800000D01*
X218050000Y-122389411D02*
X218050000Y-122050000D01*
X218050000Y-122800000D02*
X218050000Y-122389411D01*
X217650000Y-123200000D02*
X218050000Y-122800000D01*
X216850000Y-123200000D02*
X217650000Y-123200000D01*
X206280011Y-128569989D02*
X211480011Y-128569989D01*
X211480011Y-128569989D02*
X216850000Y-123200000D01*
X205750000Y-129100000D02*
X206280011Y-128569989D01*
X216450000Y-122000000D02*
X210850000Y-127600000D01*
X210850000Y-127600000D02*
X202250000Y-127600000D01*
X202250000Y-127600000D02*
X201750000Y-127100000D01*
X208950000Y-119600000D02*
X209000000Y-119600000D01*
X209000000Y-119600000D02*
X209400000Y-119200000D01*
X209400000Y-119200000D02*
X212050000Y-119200000D01*
X212050000Y-119200000D02*
X212450000Y-119600000D01*
X208950000Y-119600000D02*
X205950000Y-122600000D01*
X205950000Y-122600000D02*
X204250000Y-122600000D01*
X204250000Y-122600000D02*
X203750000Y-123100000D01*
X217250000Y-120400000D02*
X216850000Y-120800000D01*
X216850000Y-120800000D02*
X215900000Y-120800000D01*
X215900000Y-120800000D02*
X215900000Y-120850000D01*
X215900000Y-120850000D02*
X210150000Y-126600000D01*
X210150000Y-126600000D02*
X205250000Y-126600000D01*
X205250000Y-126600000D02*
X204989999Y-126339999D01*
X204989999Y-126339999D02*
X204989219Y-126339999D01*
X204989219Y-126339999D02*
X204749220Y-126100000D01*
X201750000Y-125100000D02*
X202250000Y-125600000D01*
X202250000Y-125600000D02*
X206700000Y-125600000D01*
X206700000Y-125600000D02*
X209900000Y-122400000D01*
X209900000Y-122400000D02*
X212050000Y-122400000D01*
X212050000Y-122400000D02*
X212450000Y-122800000D01*
X213250000Y-120400000D02*
X212850000Y-120000000D01*
X212850000Y-120000000D02*
X209650000Y-120000000D01*
X209650000Y-120000000D02*
X206050000Y-123600000D01*
X206050000Y-123600000D02*
X203250000Y-123600000D01*
X203250000Y-123600000D02*
X202750000Y-124100000D01*
X212450000Y-120400000D02*
X212050000Y-120800000D01*
X212050000Y-120800000D02*
X209900000Y-120800000D01*
X209900000Y-120800000D02*
X206100000Y-124600000D01*
X206100000Y-124600000D02*
X204250000Y-124600000D01*
X204250000Y-124600000D02*
X203750000Y-125100000D01*
X222700000Y-118900000D02*
X222900000Y-119100000D01*
X221400000Y-117600000D02*
X222700000Y-118900000D01*
X222700000Y-118900000D02*
X222784746Y-118815254D01*
X222784746Y-118815254D02*
X224550000Y-118815254D01*
X221350000Y-117600000D02*
X222634746Y-116315254D01*
X222634746Y-116315254D02*
X224550000Y-116315254D01*
X221250000Y-117600000D02*
X221350000Y-117600000D01*
X221150000Y-117600000D02*
X221250000Y-117600000D01*
X221250000Y-117600000D02*
X221400000Y-117600000D01*
X222900000Y-119100000D02*
X223000000Y-119100000D01*
X221350000Y-117600000D02*
X222900000Y-116050000D01*
X222900000Y-116050000D02*
X223000000Y-116050000D01*
X221150000Y-117600000D02*
X221150000Y-118515254D01*
X221150000Y-118515254D02*
X221450000Y-118815254D01*
X221150000Y-117600000D02*
X221150000Y-116615254D01*
X221150000Y-116615254D02*
X221450000Y-116315254D01*
X213643203Y-117600000D02*
X221150000Y-117600000D01*
X213238213Y-118004990D02*
X213643203Y-117600000D01*
X244100000Y-104450000D02*
X244100000Y-101850000D01*
X244100000Y-101850000D02*
X244550000Y-101400000D01*
X244550000Y-100100000D02*
X245650000Y-99000000D01*
X244550000Y-101400000D02*
X244550000Y-100100000D01*
X236125000Y-103950000D02*
X234550000Y-103950000D01*
X234550000Y-103950000D02*
X233900000Y-103300000D01*
X233900000Y-103300000D02*
X233900000Y-103200000D01*
X232475000Y-103075000D02*
X232150000Y-102750000D01*
X233900000Y-103200000D02*
X232600000Y-103200000D01*
X232600000Y-103200000D02*
X232475000Y-103075000D01*
X232150000Y-102750000D02*
X232150000Y-100250000D01*
X232150000Y-100250000D02*
X233400000Y-99000000D01*
X252000000Y-105250000D02*
X261650000Y-105250000D01*
X261650000Y-105250000D02*
X267900000Y-99000000D01*
X144350000Y-149600000D02*
X136200000Y-141450000D01*
X136200000Y-141450000D02*
X136200000Y-134850000D01*
X181650000Y-149250000D02*
X182000000Y-149600000D01*
X182000000Y-149600000D02*
X182000000Y-150300000D01*
X182000000Y-150300000D02*
X180600000Y-151700000D01*
X180600000Y-151700000D02*
X176000000Y-151700000D01*
X176000000Y-151700000D02*
X173900000Y-149600000D01*
X173900000Y-149600000D02*
X144350000Y-149600000D01*
X183500000Y-108500000D02*
X183000000Y-108000000D01*
X183000000Y-108000000D02*
X180000000Y-108000000D01*
X180000000Y-108000000D02*
X177450000Y-105450000D01*
X177450000Y-105450000D02*
X177450000Y-105000000D01*
X183450000Y-108450000D02*
X183500000Y-108500000D01*
X183500000Y-108500000D02*
X192750000Y-117750000D01*
X192750000Y-117750000D02*
X192750000Y-120100000D01*
X123100000Y-123500000D02*
X124250000Y-124650000D01*
X124250000Y-124650000D02*
X124250000Y-125100000D01*
X124250000Y-125100000D02*
X128500000Y-129350000D01*
X132000000Y-129350000D02*
X132600000Y-129950000D01*
X128500000Y-129350000D02*
X132000000Y-129350000D01*
X131250000Y-126100000D02*
X126600000Y-126100000D01*
X126600000Y-126100000D02*
X126300000Y-126400000D01*
X132850000Y-124500000D02*
X131250000Y-126100000D01*
X134750000Y-124500000D02*
X132850000Y-124500000D01*
X158350000Y-119800000D02*
X158350000Y-119900000D01*
X132990000Y-119780000D02*
X134489999Y-118280001D01*
X134489999Y-118280001D02*
X141400001Y-118280001D01*
X141400001Y-118280001D02*
X142900000Y-119780000D01*
X131755000Y-119780000D02*
X132990000Y-119780000D01*
X128750000Y-122850000D02*
X121100000Y-122850000D01*
X121100000Y-122850000D02*
X118100000Y-125850000D01*
X116900000Y-125850000D02*
X118100000Y-125850000D01*
X129400000Y-120800000D02*
X130550000Y-119650000D01*
X130550000Y-119650000D02*
X130550000Y-114000000D01*
X129400000Y-123900000D02*
X129400000Y-120800000D01*
X130300000Y-124150000D02*
X129650000Y-124150000D01*
X129650000Y-124150000D02*
X129400000Y-123900000D01*
X133600000Y-114000000D02*
X134725000Y-114000000D01*
X134725000Y-114000000D02*
X139105000Y-109620000D01*
X139105000Y-109620000D02*
X140778680Y-109620000D01*
X140778680Y-109620000D02*
X142900000Y-109620000D01*
X123700000Y-141600000D02*
X123700000Y-129300000D01*
X123700000Y-129300000D02*
X123100000Y-128700000D01*
X121550000Y-144500000D02*
X121550000Y-143750000D01*
X121550000Y-143750000D02*
X123700000Y-141600000D01*
X124100000Y-140800000D02*
X124100000Y-129050000D01*
X124100000Y-129050000D02*
X123100000Y-128050000D01*
X127050000Y-144500000D02*
X127050000Y-143750000D01*
X127050000Y-143750000D02*
X124100000Y-140800000D01*
X251000000Y-118200000D02*
X252600000Y-118200000D01*
X252600000Y-118200000D02*
X256650000Y-114150000D01*
X256650000Y-114150000D02*
X265950000Y-114150000D01*
X265950000Y-114150000D02*
X266500000Y-113600000D01*
X266500000Y-113600000D02*
X266500000Y-109800000D01*
X266500000Y-109800000D02*
X265600000Y-108900000D01*
X265600000Y-108900000D02*
X265550000Y-108900000D01*
X249650000Y-117250000D02*
X251950000Y-117250000D01*
X251950000Y-117250000D02*
X256250000Y-112950000D01*
X256250000Y-112950000D02*
X265550000Y-112950000D01*
M02*
