G04 #@! TF.FileFunction,Legend,Bot*
%FSLAX46Y46*%
G04 Gerber Fmt 4.6, Leading zero omitted, Abs format (unit mm)*
G04 Created by KiCad (PCBNEW 4.0.4-stable) date 08/02/17 23:02:22*
%MOMM*%
%LPD*%
G01*
G04 APERTURE LIST*
%ADD10C,0.125000*%
%ADD11C,0.200000*%
%ADD12C,0.150000*%
%ADD13C,0.120000*%
%ADD14C,0.127000*%
%ADD15C,0.203200*%
%ADD16C,0.050000*%
%ADD17C,0.152400*%
G04 APERTURE END LIST*
D10*
D11*
X259650000Y-111650000D02*
X259650000Y-112700000D01*
X143525000Y-142725000D02*
X144675000Y-142725000D01*
X188900000Y-136550000D02*
X188900000Y-138450000D01*
X215000000Y-115000000D02*
X215000000Y-135000000D01*
X197200000Y-132900000D02*
X130000000Y-125000000D01*
X250000000Y-127100000D02*
X250000000Y-129300000D01*
X208450000Y-115850000D02*
X213600000Y-115200000D01*
X211150000Y-134600000D02*
X209200000Y-134400000D01*
X208100000Y-134200000D02*
X198500000Y-133100000D01*
X190900000Y-117800000D02*
X204950000Y-116200000D01*
X246000000Y-112400000D02*
X250000000Y-110000000D01*
X240400000Y-134300000D02*
X229500000Y-127700000D01*
X226400000Y-125900000D02*
X225000000Y-125000000D01*
X229641688Y-122214987D02*
X244000000Y-113600000D01*
X130000000Y-125000000D02*
X182000000Y-118800000D01*
X215000000Y-135000000D02*
X212300000Y-134750000D01*
X225000000Y-125000000D02*
X227100000Y-123600000D01*
X250000000Y-140000000D02*
X242000000Y-135200000D01*
X250000000Y-110000000D02*
X250000000Y-120950000D01*
D12*
X137360000Y-88970000D02*
X153360000Y-88970000D01*
X153360000Y-88970000D02*
X153360000Y-123060000D01*
X153360000Y-123060000D02*
X137360000Y-123060000D01*
X137360000Y-123060000D02*
X137360000Y-88970000D01*
D13*
X154480000Y-140400000D02*
X154480000Y-140900000D01*
X153420000Y-140900000D02*
X153420000Y-140400000D01*
D12*
X102470000Y-149900000D02*
X102470000Y-133900000D01*
X102470000Y-133900000D02*
X136560000Y-133900000D01*
X136560000Y-133900000D02*
X136560000Y-149900000D01*
X136560000Y-149900000D02*
X102470000Y-149900000D01*
D13*
X147710952Y-135860000D02*
X146780952Y-135860000D01*
X144550952Y-135860000D02*
X145480952Y-135860000D01*
X144550952Y-135860000D02*
X144550952Y-133700000D01*
X147710952Y-135860000D02*
X147710952Y-134400000D01*
D14*
X271200000Y-135220000D02*
X271200000Y-147820000D01*
X252850000Y-147820000D02*
X252850000Y-135220000D01*
X252900000Y-135220000D02*
X258900000Y-135220000D01*
X262900000Y-135220000D02*
X271200000Y-135220000D01*
X271200000Y-147820000D02*
X263000000Y-147820000D01*
X252900000Y-147820000D02*
X258900000Y-147820000D01*
D12*
X102475000Y-133150000D02*
X102475000Y-117150000D01*
X102475000Y-117150000D02*
X136565000Y-117150000D01*
X136565000Y-117150000D02*
X136565000Y-133150000D01*
X136565000Y-133150000D02*
X102475000Y-133150000D01*
X102470000Y-116400000D02*
X102470000Y-100400000D01*
X102470000Y-100400000D02*
X136560000Y-100400000D01*
X136560000Y-100400000D02*
X136560000Y-116400000D01*
X136560000Y-116400000D02*
X102470000Y-116400000D01*
X226540555Y-151790000D02*
G75*
G03X226540555Y-151790000I-360555J0D01*
G01*
X227540000Y-153080000D02*
X212300000Y-153080000D01*
X227540000Y-145460000D02*
X227540000Y-153080000D01*
X212300000Y-145460000D02*
X227540000Y-145460000D01*
X212300000Y-145460000D02*
X212300000Y-153080000D01*
X210540555Y-151790000D02*
G75*
G03X210540555Y-151790000I-360555J0D01*
G01*
X211540000Y-153080000D02*
X196300000Y-153080000D01*
X211540000Y-145460000D02*
X211540000Y-153080000D01*
X196300000Y-145460000D02*
X211540000Y-145460000D01*
X196300000Y-145460000D02*
X196300000Y-153080000D01*
D13*
X151070000Y-136350000D02*
X151070000Y-135850000D01*
X152130000Y-135850000D02*
X152130000Y-136350000D01*
X154050000Y-141670000D02*
X154550000Y-141670000D01*
X154550000Y-142730000D02*
X154050000Y-142730000D01*
X142710000Y-138670000D02*
X142710000Y-139600000D01*
X142710000Y-141830000D02*
X142710000Y-140900000D01*
X142710000Y-141830000D02*
X140550000Y-141830000D01*
X142710000Y-138670000D02*
X141250000Y-138670000D01*
X144520000Y-144590000D02*
X145450000Y-144590000D01*
X147680000Y-144590000D02*
X146750000Y-144590000D01*
X147680000Y-144590000D02*
X147680000Y-146750000D01*
X144520000Y-144590000D02*
X144520000Y-146050000D01*
D15*
X150120820Y-140223880D02*
G75*
G03X150120820Y-140223880I-1270000J0D01*
G01*
X144278820Y-142509880D02*
G75*
G03X144278820Y-142509880I-508000J0D01*
G01*
X146600380Y-142474320D02*
X151101260Y-142474320D01*
X151101260Y-142474320D02*
X151101260Y-137973440D01*
X151101260Y-137973440D02*
X146600380Y-137973440D01*
X146600380Y-137973440D02*
X146600380Y-142474320D01*
X226519180Y-124573880D02*
G75*
G03X226519180Y-124573880I-1270000J0D01*
G01*
X220677180Y-126859880D02*
G75*
G03X220677180Y-126859880I-508000J0D01*
G01*
X222998740Y-126824320D02*
X227499620Y-126824320D01*
X227499620Y-126824320D02*
X227499620Y-122323440D01*
X227499620Y-122323440D02*
X222998740Y-122323440D01*
X222998740Y-122323440D02*
X222998740Y-126824320D01*
D13*
X195600000Y-122500000D02*
X194900000Y-122500000D01*
X194900000Y-123700000D02*
X195600000Y-123700000D01*
X194600000Y-119500000D02*
X193900000Y-119500000D01*
X193900000Y-120700000D02*
X194600000Y-120700000D01*
X191600000Y-120500000D02*
X190900000Y-120500000D01*
X190900000Y-121700000D02*
X191600000Y-121700000D01*
X189850000Y-116900000D02*
X189850000Y-117900000D01*
X188150000Y-117900000D02*
X188150000Y-116900000D01*
X191850000Y-116900000D02*
X191850000Y-117900000D01*
X190150000Y-117900000D02*
X190150000Y-116900000D01*
X195400000Y-119080000D02*
X193400000Y-119080000D01*
X193400000Y-116120000D02*
X195400000Y-116120000D01*
X174750000Y-128470000D02*
X174250000Y-128470000D01*
X174250000Y-127530000D02*
X174750000Y-127530000D01*
X262580000Y-111300000D02*
X262580000Y-111800000D01*
X261520000Y-111800000D02*
X261520000Y-111300000D01*
X260210000Y-110620000D02*
X260210000Y-111550000D01*
X260210000Y-113780000D02*
X260210000Y-112850000D01*
X260210000Y-113780000D02*
X258050000Y-113780000D01*
X260210000Y-110620000D02*
X258750000Y-110620000D01*
X147050000Y-124480000D02*
X147550000Y-124480000D01*
X147550000Y-125420000D02*
X147050000Y-125420000D01*
X139675000Y-131475000D02*
X139675000Y-130475000D01*
X141375000Y-130475000D02*
X141375000Y-131475000D01*
D12*
X254460000Y-132570000D02*
X254460000Y-115570000D01*
X271460000Y-132570000D02*
X254460000Y-132570000D01*
X271460000Y-115570000D02*
X271460000Y-132570000D01*
X254460000Y-115570000D02*
X271460000Y-115570000D01*
D13*
X179020000Y-138000000D02*
X179020000Y-134400000D01*
X182480000Y-134400000D02*
X182480000Y-138000000D01*
D12*
X230325000Y-152140000D02*
X230325000Y-152090000D01*
X234475000Y-152140000D02*
X234475000Y-151995000D01*
X234475000Y-146990000D02*
X234475000Y-147135000D01*
X230325000Y-146990000D02*
X230325000Y-147135000D01*
X230325000Y-152140000D02*
X234475000Y-152140000D01*
X230325000Y-146990000D02*
X234475000Y-146990000D01*
X230325000Y-152090000D02*
X228925000Y-152090000D01*
D13*
X239850000Y-135730000D02*
X239350000Y-135730000D01*
X239350000Y-134670000D02*
X239850000Y-134670000D01*
X235230000Y-145700000D02*
X235230000Y-146200000D01*
X234170000Y-146200000D02*
X234170000Y-145700000D01*
X178800000Y-126020000D02*
X179300000Y-126020000D01*
X179300000Y-127080000D02*
X178800000Y-127080000D01*
X223270000Y-133400000D02*
X223270000Y-132900000D01*
X224330000Y-132900000D02*
X224330000Y-133400000D01*
X148625000Y-148475000D02*
X148625000Y-147475000D01*
X150325000Y-147475000D02*
X150325000Y-148475000D01*
X143300000Y-130500000D02*
X143300000Y-131500000D01*
X141600000Y-131500000D02*
X141600000Y-130500000D01*
X245370000Y-124700000D02*
X245370000Y-124200000D01*
X246430000Y-124200000D02*
X246430000Y-124700000D01*
X223530000Y-115350000D02*
X223530000Y-115850000D01*
X222470000Y-115850000D02*
X222470000Y-115350000D01*
X223530000Y-119300000D02*
X223530000Y-119800000D01*
X222470000Y-119800000D02*
X222470000Y-119300000D01*
X241720000Y-124050000D02*
X241720000Y-125050000D01*
X243080000Y-125050000D02*
X243080000Y-124050000D01*
X246280000Y-118050000D02*
X246280000Y-117050000D01*
X244920000Y-117050000D02*
X244920000Y-118050000D01*
X226200000Y-130850000D02*
X226200000Y-131550000D01*
X227400000Y-131550000D02*
X227400000Y-130850000D01*
X201350000Y-129950000D02*
X201350000Y-129250000D01*
X200150000Y-129250000D02*
X200150000Y-129950000D01*
X198250000Y-128950000D02*
X197250000Y-128950000D01*
X197250000Y-127250000D02*
X198250000Y-127250000D01*
X187700000Y-131030000D02*
X185700000Y-131030000D01*
X185700000Y-128070000D02*
X187700000Y-128070000D01*
X225150000Y-115915254D02*
X225150000Y-115215254D01*
X223950000Y-115215254D02*
X223950000Y-115915254D01*
X225150000Y-119915254D02*
X225150000Y-119215254D01*
X223950000Y-119215254D02*
X223950000Y-119915254D01*
X213700000Y-112050000D02*
X213700000Y-112750000D01*
X214900000Y-112750000D02*
X214900000Y-112050000D01*
X213700000Y-115250000D02*
X213700000Y-115950000D01*
X214900000Y-115950000D02*
X214900000Y-115250000D01*
X222050000Y-115915254D02*
X222050000Y-115215254D01*
X220850000Y-115215254D02*
X220850000Y-115915254D01*
X222050000Y-119915254D02*
X222050000Y-119215254D01*
X220850000Y-119215254D02*
X220850000Y-119915254D01*
X208900000Y-113250000D02*
X207900000Y-113250000D01*
X207900000Y-111550000D02*
X208900000Y-111550000D01*
X234270000Y-138550000D02*
X234270000Y-139050000D01*
X233330000Y-139050000D02*
X233330000Y-138550000D01*
X232800000Y-129070000D02*
X232300000Y-129070000D01*
X232300000Y-128130000D02*
X232800000Y-128130000D01*
X235070000Y-132150000D02*
X235070000Y-132650000D01*
X234130000Y-132650000D02*
X234130000Y-132150000D01*
X224800000Y-137950000D02*
X224800000Y-137250000D01*
X223600000Y-137250000D02*
X223600000Y-137950000D01*
X244800000Y-139750000D02*
X245500000Y-139750000D01*
X245500000Y-138550000D02*
X244800000Y-138550000D01*
X254060000Y-110670000D02*
X254060000Y-111600000D01*
X254060000Y-113830000D02*
X254060000Y-112900000D01*
X254060000Y-113830000D02*
X251900000Y-113830000D01*
X254060000Y-110670000D02*
X252600000Y-110670000D01*
X168320000Y-146550000D02*
X168320000Y-142950000D01*
X171780000Y-142950000D02*
X171780000Y-146550000D01*
X189770000Y-147900000D02*
X189770000Y-144300000D01*
X193230000Y-144300000D02*
X193230000Y-147900000D01*
X168320000Y-138700000D02*
X168320000Y-135100000D01*
X171780000Y-135100000D02*
X171780000Y-138700000D01*
X246550000Y-143600000D02*
X245450000Y-143600000D01*
X245450000Y-143600000D02*
X245450000Y-141500000D01*
X246550000Y-143600000D02*
X246550000Y-141500000D01*
X241850000Y-135500000D02*
X240750000Y-135500000D01*
X240750000Y-135500000D02*
X240750000Y-133400000D01*
X241850000Y-135500000D02*
X241850000Y-133400000D01*
X221650000Y-130600000D02*
X222650000Y-130600000D01*
X222650000Y-130600000D02*
X222650000Y-132700000D01*
X221650000Y-130600000D02*
X221650000Y-132700000D01*
X246750000Y-110800000D02*
X247450000Y-110800000D01*
X247450000Y-109600000D02*
X246750000Y-109600000D01*
X243650000Y-110550000D02*
X243650000Y-111250000D01*
X244850000Y-111250000D02*
X244850000Y-110550000D01*
X244650000Y-113700000D02*
X245350000Y-113700000D01*
X245350000Y-112500000D02*
X244650000Y-112500000D01*
X224550000Y-141550000D02*
X225250000Y-141550000D01*
X225250000Y-140350000D02*
X224550000Y-140350000D01*
X234270000Y-140950000D02*
X234270000Y-141450000D01*
X233330000Y-141450000D02*
X233330000Y-140950000D01*
X235250000Y-137270000D02*
X234750000Y-137270000D01*
X234750000Y-136330000D02*
X235250000Y-136330000D01*
X244050000Y-144750000D02*
X244050000Y-144050000D01*
X242850000Y-144050000D02*
X242850000Y-144750000D01*
X229100000Y-134800000D02*
X229100000Y-134100000D01*
X227900000Y-134100000D02*
X227900000Y-134800000D01*
X235250000Y-129070000D02*
X234750000Y-129070000D01*
X234750000Y-128130000D02*
X235250000Y-128130000D01*
X225500000Y-129400000D02*
X226200000Y-129400000D01*
X226200000Y-128200000D02*
X225500000Y-128200000D01*
X232850000Y-137270000D02*
X232350000Y-137270000D01*
X232350000Y-136330000D02*
X232850000Y-136330000D01*
X229200000Y-131550000D02*
X229200000Y-130850000D01*
X228000000Y-130850000D02*
X228000000Y-131550000D01*
X230450000Y-137270000D02*
X229950000Y-137270000D01*
X229950000Y-136330000D02*
X230450000Y-136330000D01*
X242200000Y-138600000D02*
X241500000Y-138600000D01*
X241500000Y-139800000D02*
X242200000Y-139800000D01*
X224120000Y-128650000D02*
X224120000Y-129150000D01*
X223180000Y-129150000D02*
X223180000Y-128650000D01*
X228850000Y-129400000D02*
X229550000Y-129400000D01*
X229550000Y-128200000D02*
X228850000Y-128200000D01*
X227700000Y-141550000D02*
X228400000Y-141550000D01*
X228400000Y-140350000D02*
X227700000Y-140350000D01*
X237400000Y-142400000D02*
X238100000Y-142400000D01*
X238100000Y-141200000D02*
X237400000Y-141200000D01*
X231550000Y-146200000D02*
X232250000Y-146200000D01*
X232250000Y-145000000D02*
X231550000Y-145000000D01*
X237150000Y-136330000D02*
X237650000Y-136330000D01*
X237650000Y-137270000D02*
X237150000Y-137270000D01*
X238800000Y-130700000D02*
X239500000Y-130700000D01*
X239500000Y-129500000D02*
X238800000Y-129500000D01*
X225400000Y-137250000D02*
X225400000Y-137950000D01*
X226600000Y-137950000D02*
X226600000Y-137250000D01*
X225150000Y-144350000D02*
X225850000Y-144350000D01*
X225850000Y-143150000D02*
X225150000Y-143150000D01*
X226200000Y-134000000D02*
X226200000Y-134700000D01*
X227400000Y-134700000D02*
X227400000Y-134000000D01*
X235070000Y-134550000D02*
X235070000Y-135050000D01*
X234130000Y-135050000D02*
X234130000Y-134550000D01*
X239300000Y-144120000D02*
X238800000Y-144120000D01*
X238800000Y-143180000D02*
X239300000Y-143180000D01*
X236850000Y-145970000D02*
X236350000Y-145970000D01*
X236350000Y-145030000D02*
X236850000Y-145030000D01*
X230200000Y-110125000D02*
X230200000Y-109425000D01*
X229000000Y-109425000D02*
X229000000Y-110125000D01*
X231750000Y-112170000D02*
X231250000Y-112170000D01*
X231250000Y-111230000D02*
X231750000Y-111230000D01*
X145126194Y-130740386D02*
X145126194Y-129740386D01*
X146826194Y-129740386D02*
X146826194Y-130740386D01*
X188630000Y-135600000D02*
X188630000Y-137600000D01*
X185670000Y-137600000D02*
X185670000Y-135600000D01*
X197150000Y-130250000D02*
X197150000Y-130950000D01*
X198350000Y-130950000D02*
X198350000Y-130250000D01*
X193300000Y-134000000D02*
X192300000Y-134000000D01*
X192300000Y-132300000D02*
X193300000Y-132300000D01*
X193300000Y-136000000D02*
X192300000Y-136000000D01*
X192300000Y-134300000D02*
X193300000Y-134300000D01*
X193300000Y-131850000D02*
X192300000Y-131850000D01*
X192300000Y-130150000D02*
X193300000Y-130150000D01*
X199150000Y-124250000D02*
X199150000Y-124950000D01*
X200350000Y-124950000D02*
X200350000Y-124250000D01*
X207250000Y-119550000D02*
X206250000Y-119550000D01*
X206250000Y-117850000D02*
X207250000Y-117850000D01*
X195150000Y-125250000D02*
X195150000Y-125950000D01*
X196350000Y-125950000D02*
X196350000Y-125250000D01*
X196999390Y-115149974D02*
X196999390Y-114149974D01*
X198699390Y-114149974D02*
X198699390Y-115149974D01*
X193900000Y-128700000D02*
X194600000Y-128700000D01*
X194600000Y-127500000D02*
X193900000Y-127500000D01*
X199150000Y-133250000D02*
X199150000Y-133950000D01*
X200350000Y-133950000D02*
X200350000Y-133250000D01*
X191600000Y-127500000D02*
X190900000Y-127500000D01*
X190900000Y-128700000D02*
X191600000Y-128700000D01*
X198350000Y-125950000D02*
X198350000Y-125250000D01*
X197150000Y-125250000D02*
X197150000Y-125950000D01*
X202900000Y-128700000D02*
X203600000Y-128700000D01*
X203600000Y-127500000D02*
X202900000Y-127500000D01*
X198350000Y-122950000D02*
X198350000Y-122250000D01*
X197150000Y-122250000D02*
X197150000Y-122950000D01*
X195950000Y-134700000D02*
X196650000Y-134700000D01*
X196650000Y-133500000D02*
X195950000Y-133500000D01*
X209200000Y-134300000D02*
X209200000Y-133600000D01*
X208000000Y-133600000D02*
X208000000Y-134300000D01*
X206600000Y-127503571D02*
X205900000Y-127503571D01*
X205900000Y-128703571D02*
X206600000Y-128703571D01*
X207250000Y-117350000D02*
X206250000Y-117350000D01*
X206250000Y-115650000D02*
X207250000Y-115650000D01*
X198548810Y-140701092D02*
X199548810Y-140701092D01*
X199548810Y-142401092D02*
X198548810Y-142401092D01*
X198200000Y-135370000D02*
X200200000Y-135370000D01*
X200200000Y-138330000D02*
X198200000Y-138330000D01*
X187450000Y-142180000D02*
X185450000Y-142180000D01*
X185450000Y-139220000D02*
X187450000Y-139220000D01*
X228225669Y-144350000D02*
X228925669Y-144350000D01*
X228925669Y-143150000D02*
X228225669Y-143150000D01*
X227400000Y-137300000D02*
X227400000Y-138000000D01*
X228600000Y-138000000D02*
X228600000Y-137300000D01*
X190200000Y-139070000D02*
X192200000Y-139070000D01*
X192200000Y-142030000D02*
X190200000Y-142030000D01*
D12*
X157000000Y-103450000D02*
X157000000Y-96800000D01*
X164700000Y-103450000D02*
X164700000Y-96800000D01*
X164700000Y-103450000D02*
X157000000Y-103450000D01*
X157000000Y-96800000D02*
X164700000Y-96800000D01*
D13*
X239030000Y-138000000D02*
X239030000Y-137500000D01*
X239970000Y-137500000D02*
X239970000Y-138000000D01*
D12*
X254000000Y-122600000D02*
G75*
G03X254000000Y-122600000I-150000J0D01*
G01*
X247725000Y-121475000D02*
X247725000Y-122225000D01*
X252975000Y-126725000D02*
X252975000Y-125975000D01*
X247725000Y-126725000D02*
X247725000Y-125975000D01*
X252975000Y-121475000D02*
X252225000Y-121475000D01*
X252975000Y-126725000D02*
X252225000Y-126725000D01*
X247725000Y-126725000D02*
X248475000Y-126725000D01*
X247725000Y-121475000D02*
X248475000Y-121475000D01*
D13*
X147125000Y-129556662D02*
X147125000Y-130256662D01*
X148325000Y-130256662D02*
X148325000Y-129556662D01*
X144725000Y-131675000D02*
X144725000Y-130975000D01*
X143525000Y-130975000D02*
X143525000Y-131675000D01*
X138150000Y-129950000D02*
X138150000Y-130650000D01*
X139350000Y-130650000D02*
X139350000Y-129950000D01*
X146276406Y-125577566D02*
X145576406Y-125577566D01*
X145576406Y-126777566D02*
X146276406Y-126777566D01*
X217300000Y-140180000D02*
X216800000Y-140180000D01*
X216800000Y-139120000D02*
X217300000Y-139120000D01*
X214645000Y-139180000D02*
X214145000Y-139180000D01*
X214145000Y-138120000D02*
X214645000Y-138120000D01*
X214600000Y-136130000D02*
X214100000Y-136130000D01*
X214100000Y-135070000D02*
X214600000Y-135070000D01*
X214600000Y-133330000D02*
X214100000Y-133330000D01*
X214100000Y-132270000D02*
X214600000Y-132270000D01*
X211950000Y-140980000D02*
X211450000Y-140980000D01*
X211450000Y-139920000D02*
X211950000Y-139920000D01*
X211955000Y-135130000D02*
X211455000Y-135130000D01*
X211455000Y-134070000D02*
X211955000Y-134070000D01*
X217250000Y-131530000D02*
X216750000Y-131530000D01*
X216750000Y-130470000D02*
X217250000Y-130470000D01*
X217245000Y-134330000D02*
X216745000Y-134330000D01*
X216745000Y-133270000D02*
X217245000Y-133270000D01*
X214645000Y-141980000D02*
X214145000Y-141980000D01*
X214145000Y-140920000D02*
X214645000Y-140920000D01*
X211945000Y-138130000D02*
X211445000Y-138130000D01*
X211445000Y-137070000D02*
X211945000Y-137070000D01*
X214595000Y-130530000D02*
X214095000Y-130530000D01*
X214095000Y-129470000D02*
X214595000Y-129470000D01*
X211945000Y-132330000D02*
X211445000Y-132330000D01*
X211445000Y-131270000D02*
X211945000Y-131270000D01*
X192250000Y-138570000D02*
X190250000Y-138570000D01*
X190250000Y-136530000D02*
X192250000Y-136530000D01*
D12*
X244212096Y-102568230D02*
X244212096Y-95068230D01*
X261212096Y-102568230D02*
X244212096Y-102568230D01*
X261212096Y-95068230D02*
X261212096Y-102568230D01*
X244212096Y-95068230D02*
X261212096Y-95068230D01*
X219712096Y-102568230D02*
X219712096Y-95068230D01*
X236712096Y-102568230D02*
X219712096Y-102568230D01*
X236712096Y-95068230D02*
X236712096Y-102568230D01*
X219712096Y-95068230D02*
X236712096Y-95068230D01*
X195212096Y-102568230D02*
X195212096Y-95068230D01*
X212212096Y-102568230D02*
X195212096Y-102568230D01*
X212212096Y-95068230D02*
X212212096Y-102568230D01*
X195212096Y-95068230D02*
X212212096Y-95068230D01*
X170412096Y-102568230D02*
X170412096Y-95068230D01*
X187412096Y-102568230D02*
X170412096Y-102568230D01*
X187412096Y-95068230D02*
X187412096Y-102568230D01*
X170412096Y-95068230D02*
X187412096Y-95068230D01*
X135412381Y-109916667D02*
X136126667Y-109916667D01*
X136269524Y-109869047D01*
X136364762Y-109773809D01*
X136412381Y-109630952D01*
X136412381Y-109535714D01*
X135507619Y-110345238D02*
X135460000Y-110392857D01*
X135412381Y-110488095D01*
X135412381Y-110726191D01*
X135460000Y-110821429D01*
X135507619Y-110869048D01*
X135602857Y-110916667D01*
X135698095Y-110916667D01*
X135840952Y-110869048D01*
X136412381Y-110297619D01*
X136412381Y-110916667D01*
X155752381Y-140007143D02*
X155276190Y-139673809D01*
X155752381Y-139435714D02*
X154752381Y-139435714D01*
X154752381Y-139816667D01*
X154800000Y-139911905D01*
X154847619Y-139959524D01*
X154942857Y-140007143D01*
X155085714Y-140007143D01*
X155180952Y-139959524D01*
X155228571Y-139911905D01*
X155276190Y-139816667D01*
X155276190Y-139435714D01*
X154752381Y-140340476D02*
X154752381Y-141007143D01*
X155752381Y-140578571D01*
X154847619Y-141340476D02*
X154800000Y-141388095D01*
X154752381Y-141483333D01*
X154752381Y-141721429D01*
X154800000Y-141816667D01*
X154847619Y-141864286D01*
X154942857Y-141911905D01*
X155038095Y-141911905D01*
X155180952Y-141864286D01*
X155752381Y-141292857D01*
X155752381Y-141911905D01*
X124083333Y-150752381D02*
X124083333Y-151466667D01*
X124130953Y-151609524D01*
X124226191Y-151704762D01*
X124369048Y-151752381D01*
X124464286Y-151752381D01*
X123083333Y-151752381D02*
X123654762Y-151752381D01*
X123369048Y-151752381D02*
X123369048Y-150752381D01*
X123464286Y-150895238D01*
X123559524Y-150990476D01*
X123654762Y-151038095D01*
X144178571Y-134528572D02*
X144130952Y-134433334D01*
X144035714Y-134338096D01*
X143892857Y-134195239D01*
X143845238Y-134100000D01*
X143845238Y-134004762D01*
X144083333Y-134052381D02*
X144035714Y-133957143D01*
X143940476Y-133861905D01*
X143750000Y-133814286D01*
X143416666Y-133814286D01*
X143226190Y-133861905D01*
X143130952Y-133957143D01*
X143083333Y-134052381D01*
X143083333Y-134242858D01*
X143130952Y-134338096D01*
X143226190Y-134433334D01*
X143416666Y-134480953D01*
X143750000Y-134480953D01*
X143940476Y-134433334D01*
X144035714Y-134338096D01*
X144083333Y-134242858D01*
X144083333Y-134052381D01*
X144083333Y-135433334D02*
X144083333Y-134861905D01*
X144083333Y-135147619D02*
X143083333Y-135147619D01*
X143226190Y-135052381D01*
X143321428Y-134957143D01*
X143369047Y-134861905D01*
X143416666Y-136290477D02*
X144083333Y-136290477D01*
X143035714Y-136052381D02*
X143750000Y-135814286D01*
X143750000Y-136433334D01*
D16*
X255493333Y-133237381D02*
X255493333Y-133951667D01*
X255540953Y-134094524D01*
X255636191Y-134189762D01*
X255779048Y-134237381D01*
X255874286Y-134237381D01*
X254540952Y-133237381D02*
X255017143Y-133237381D01*
X255064762Y-133713571D01*
X255017143Y-133665952D01*
X254921905Y-133618333D01*
X254683809Y-133618333D01*
X254588571Y-133665952D01*
X254540952Y-133713571D01*
X254493333Y-133808810D01*
X254493333Y-134046905D01*
X254540952Y-134142143D01*
X254588571Y-134189762D01*
X254683809Y-134237381D01*
X254921905Y-134237381D01*
X255017143Y-134189762D01*
X255064762Y-134142143D01*
X261001191Y-148537381D02*
X261001191Y-149346905D01*
X260953572Y-149442143D01*
X260905953Y-149489762D01*
X260810715Y-149537381D01*
X260620238Y-149537381D01*
X260525000Y-149489762D01*
X260477381Y-149442143D01*
X260429762Y-149346905D01*
X260429762Y-148537381D01*
X260001191Y-149489762D02*
X259858334Y-149537381D01*
X259620238Y-149537381D01*
X259525000Y-149489762D01*
X259477381Y-149442143D01*
X259429762Y-149346905D01*
X259429762Y-149251667D01*
X259477381Y-149156429D01*
X259525000Y-149108810D01*
X259620238Y-149061190D01*
X259810715Y-149013571D01*
X259905953Y-148965952D01*
X259953572Y-148918333D01*
X260001191Y-148823095D01*
X260001191Y-148727857D01*
X259953572Y-148632619D01*
X259905953Y-148585000D01*
X259810715Y-148537381D01*
X259572619Y-148537381D01*
X259429762Y-148585000D01*
X258667857Y-149013571D02*
X258525000Y-149061190D01*
X258477381Y-149108810D01*
X258429762Y-149204048D01*
X258429762Y-149346905D01*
X258477381Y-149442143D01*
X258525000Y-149489762D01*
X258620238Y-149537381D01*
X259001191Y-149537381D01*
X259001191Y-148537381D01*
X258667857Y-148537381D01*
X258572619Y-148585000D01*
X258525000Y-148632619D01*
X258477381Y-148727857D01*
X258477381Y-148823095D01*
X258525000Y-148918333D01*
X258572619Y-148965952D01*
X258667857Y-149013571D01*
X259001191Y-149013571D01*
X257334524Y-148537381D02*
X256715476Y-148537381D01*
X257048810Y-148918333D01*
X256905952Y-148918333D01*
X256810714Y-148965952D01*
X256763095Y-149013571D01*
X256715476Y-149108810D01*
X256715476Y-149346905D01*
X256763095Y-149442143D01*
X256810714Y-149489762D01*
X256905952Y-149537381D01*
X257191667Y-149537381D01*
X257286905Y-149489762D01*
X257334524Y-149442143D01*
X256286905Y-149442143D02*
X256239286Y-149489762D01*
X256286905Y-149537381D01*
X256334524Y-149489762D01*
X256286905Y-149442143D01*
X256286905Y-149537381D01*
X255620239Y-148537381D02*
X255525000Y-148537381D01*
X255429762Y-148585000D01*
X255382143Y-148632619D01*
X255334524Y-148727857D01*
X255286905Y-148918333D01*
X255286905Y-149156429D01*
X255334524Y-149346905D01*
X255382143Y-149442143D01*
X255429762Y-149489762D01*
X255525000Y-149537381D01*
X255620239Y-149537381D01*
X255715477Y-149489762D01*
X255763096Y-149442143D01*
X255810715Y-149346905D01*
X255858334Y-149156429D01*
X255858334Y-148918333D01*
X255810715Y-148727857D01*
X255763096Y-148632619D01*
X255715477Y-148585000D01*
X255620239Y-148537381D01*
X253525000Y-149537381D02*
X253858334Y-149061190D01*
X254096429Y-149537381D02*
X254096429Y-148537381D01*
X253715476Y-148537381D01*
X253620238Y-148585000D01*
X253572619Y-148632619D01*
X253525000Y-148727857D01*
X253525000Y-148870714D01*
X253572619Y-148965952D01*
X253620238Y-149013571D01*
X253715476Y-149061190D01*
X254096429Y-149061190D01*
X252715476Y-149489762D02*
X252810714Y-149537381D01*
X253001191Y-149537381D01*
X253096429Y-149489762D01*
X253144048Y-149394524D01*
X253144048Y-149013571D01*
X253096429Y-148918333D01*
X253001191Y-148870714D01*
X252810714Y-148870714D01*
X252715476Y-148918333D01*
X252667857Y-149013571D01*
X252667857Y-149108810D01*
X253144048Y-149204048D01*
X251810714Y-149489762D02*
X251905952Y-149537381D01*
X252096429Y-149537381D01*
X252191667Y-149489762D01*
X252239286Y-149442143D01*
X252286905Y-149346905D01*
X252286905Y-149061190D01*
X252239286Y-148965952D01*
X252191667Y-148918333D01*
X252096429Y-148870714D01*
X251905952Y-148870714D01*
X251810714Y-148918333D01*
X251001190Y-149489762D02*
X251096428Y-149537381D01*
X251286905Y-149537381D01*
X251382143Y-149489762D01*
X251429762Y-149394524D01*
X251429762Y-149013571D01*
X251382143Y-148918333D01*
X251286905Y-148870714D01*
X251096428Y-148870714D01*
X251001190Y-148918333D01*
X250953571Y-149013571D01*
X250953571Y-149108810D01*
X251429762Y-149204048D01*
X250525000Y-148870714D02*
X250525000Y-149870714D01*
X250525000Y-148918333D02*
X250429762Y-148870714D01*
X250239285Y-148870714D01*
X250144047Y-148918333D01*
X250096428Y-148965952D01*
X250048809Y-149061190D01*
X250048809Y-149346905D01*
X250096428Y-149442143D01*
X250144047Y-149489762D01*
X250239285Y-149537381D01*
X250429762Y-149537381D01*
X250525000Y-149489762D01*
X249763095Y-148870714D02*
X249382143Y-148870714D01*
X249620238Y-148537381D02*
X249620238Y-149394524D01*
X249572619Y-149489762D01*
X249477381Y-149537381D01*
X249382143Y-149537381D01*
X249048809Y-149442143D02*
X249001190Y-149489762D01*
X249048809Y-149537381D01*
X249096428Y-149489762D01*
X249048809Y-149442143D01*
X249048809Y-149537381D01*
D12*
X124088333Y-134002381D02*
X124088333Y-134716667D01*
X124135953Y-134859524D01*
X124231191Y-134954762D01*
X124374048Y-135002381D01*
X124469286Y-135002381D01*
X123183571Y-134335714D02*
X123183571Y-135002381D01*
X123421667Y-133954762D02*
X123659762Y-134669048D01*
X123040714Y-134669048D01*
X247226191Y-109776190D02*
X247226191Y-110252381D01*
X247559524Y-109252381D02*
X247226191Y-109776190D01*
X246892857Y-109252381D01*
X246607143Y-109347619D02*
X246559524Y-109300000D01*
X246464286Y-109252381D01*
X246226190Y-109252381D01*
X246130952Y-109300000D01*
X246083333Y-109347619D01*
X246035714Y-109442857D01*
X246035714Y-109538095D01*
X246083333Y-109680952D01*
X246654762Y-110252381D01*
X246035714Y-110252381D01*
X124083333Y-117252381D02*
X124083333Y-117966667D01*
X124130953Y-118109524D01*
X124226191Y-118204762D01*
X124369048Y-118252381D01*
X124464286Y-118252381D01*
X123702381Y-117252381D02*
X123083333Y-117252381D01*
X123416667Y-117633333D01*
X123273809Y-117633333D01*
X123178571Y-117680952D01*
X123130952Y-117728571D01*
X123083333Y-117823810D01*
X123083333Y-118061905D01*
X123130952Y-118157143D01*
X123178571Y-118204762D01*
X123273809Y-118252381D01*
X123559524Y-118252381D01*
X123654762Y-118204762D01*
X123702381Y-118157143D01*
X236076190Y-118773809D02*
X236552381Y-118773809D01*
X235552381Y-118440476D02*
X236076190Y-118773809D01*
X235552381Y-119107143D01*
X235552381Y-119345238D02*
X235552381Y-119964286D01*
X235933333Y-119630952D01*
X235933333Y-119773810D01*
X235980952Y-119869048D01*
X236028571Y-119916667D01*
X236123810Y-119964286D01*
X236361905Y-119964286D01*
X236457143Y-119916667D01*
X236504762Y-119869048D01*
X236552381Y-119773810D01*
X236552381Y-119488095D01*
X236504762Y-119392857D01*
X236457143Y-119345238D01*
X230945143Y-147801715D02*
X230992762Y-147754096D01*
X231040381Y-147611239D01*
X231040381Y-147516001D01*
X230992762Y-147373143D01*
X230897524Y-147277905D01*
X230802286Y-147230286D01*
X230611810Y-147182667D01*
X230468952Y-147182667D01*
X230278476Y-147230286D01*
X230183238Y-147277905D01*
X230088000Y-147373143D01*
X230040381Y-147516001D01*
X230040381Y-147611239D01*
X230088000Y-147754096D01*
X230135619Y-147801715D01*
X230040381Y-148420762D02*
X230040381Y-148611239D01*
X230088000Y-148706477D01*
X230183238Y-148801715D01*
X230373714Y-148849334D01*
X230707048Y-148849334D01*
X230897524Y-148801715D01*
X230992762Y-148706477D01*
X231040381Y-148611239D01*
X231040381Y-148420762D01*
X230992762Y-148325524D01*
X230897524Y-148230286D01*
X230707048Y-148182667D01*
X230373714Y-148182667D01*
X230183238Y-148230286D01*
X230088000Y-148325524D01*
X230040381Y-148420762D01*
X231040381Y-149277905D02*
X230040381Y-149277905D01*
X231040381Y-149849334D01*
X230040381Y-149849334D01*
X230135619Y-150277905D02*
X230088000Y-150325524D01*
X230040381Y-150420762D01*
X230040381Y-150658858D01*
X230088000Y-150754096D01*
X230135619Y-150801715D01*
X230230857Y-150849334D01*
X230326095Y-150849334D01*
X230468952Y-150801715D01*
X231040381Y-150230286D01*
X231040381Y-150849334D01*
X214945143Y-147801715D02*
X214992762Y-147754096D01*
X215040381Y-147611239D01*
X215040381Y-147516001D01*
X214992762Y-147373143D01*
X214897524Y-147277905D01*
X214802286Y-147230286D01*
X214611810Y-147182667D01*
X214468952Y-147182667D01*
X214278476Y-147230286D01*
X214183238Y-147277905D01*
X214088000Y-147373143D01*
X214040381Y-147516001D01*
X214040381Y-147611239D01*
X214088000Y-147754096D01*
X214135619Y-147801715D01*
X214040381Y-148420762D02*
X214040381Y-148611239D01*
X214088000Y-148706477D01*
X214183238Y-148801715D01*
X214373714Y-148849334D01*
X214707048Y-148849334D01*
X214897524Y-148801715D01*
X214992762Y-148706477D01*
X215040381Y-148611239D01*
X215040381Y-148420762D01*
X214992762Y-148325524D01*
X214897524Y-148230286D01*
X214707048Y-148182667D01*
X214373714Y-148182667D01*
X214183238Y-148230286D01*
X214088000Y-148325524D01*
X214040381Y-148420762D01*
X215040381Y-149277905D02*
X214040381Y-149277905D01*
X215040381Y-149849334D01*
X214040381Y-149849334D01*
X215040381Y-150849334D02*
X215040381Y-150277905D01*
X215040381Y-150563619D02*
X214040381Y-150563619D01*
X214183238Y-150468381D01*
X214278476Y-150373143D01*
X214326095Y-150277905D01*
X150702381Y-135457143D02*
X150226190Y-135123809D01*
X150702381Y-134885714D02*
X149702381Y-134885714D01*
X149702381Y-135266667D01*
X149750000Y-135361905D01*
X149797619Y-135409524D01*
X149892857Y-135457143D01*
X150035714Y-135457143D01*
X150130952Y-135409524D01*
X150178571Y-135361905D01*
X150226190Y-135266667D01*
X150226190Y-134885714D01*
X149702381Y-135790476D02*
X149702381Y-136457143D01*
X150702381Y-136028571D01*
X149702381Y-136742857D02*
X149702381Y-137361905D01*
X150083333Y-137028571D01*
X150083333Y-137171429D01*
X150130952Y-137266667D01*
X150178571Y-137314286D01*
X150273810Y-137361905D01*
X150511905Y-137361905D01*
X150607143Y-137314286D01*
X150654762Y-137266667D01*
X150702381Y-137171429D01*
X150702381Y-136885714D01*
X150654762Y-136790476D01*
X150607143Y-136742857D01*
X154942857Y-141302381D02*
X155276191Y-140826190D01*
X155514286Y-141302381D02*
X155514286Y-140302381D01*
X155133333Y-140302381D01*
X155038095Y-140350000D01*
X154990476Y-140397619D01*
X154942857Y-140492857D01*
X154942857Y-140635714D01*
X154990476Y-140730952D01*
X155038095Y-140778571D01*
X155133333Y-140826190D01*
X155514286Y-140826190D01*
X154085714Y-140302381D02*
X154276191Y-140302381D01*
X154371429Y-140350000D01*
X154419048Y-140397619D01*
X154514286Y-140540476D01*
X154561905Y-140730952D01*
X154561905Y-141111905D01*
X154514286Y-141207143D01*
X154466667Y-141254762D01*
X154371429Y-141302381D01*
X154180952Y-141302381D01*
X154085714Y-141254762D01*
X154038095Y-141207143D01*
X153990476Y-141111905D01*
X153990476Y-140873810D01*
X154038095Y-140778571D01*
X154085714Y-140730952D01*
X154180952Y-140683333D01*
X154371429Y-140683333D01*
X154466667Y-140730952D01*
X154514286Y-140778571D01*
X154561905Y-140873810D01*
X153514286Y-141302381D02*
X153323810Y-141302381D01*
X153228571Y-141254762D01*
X153180952Y-141207143D01*
X153085714Y-141064286D01*
X153038095Y-140873810D01*
X153038095Y-140492857D01*
X153085714Y-140397619D01*
X153133333Y-140350000D01*
X153228571Y-140302381D01*
X153419048Y-140302381D01*
X153514286Y-140350000D01*
X153561905Y-140397619D01*
X153609524Y-140492857D01*
X153609524Y-140730952D01*
X153561905Y-140826190D01*
X153514286Y-140873810D01*
X153419048Y-140921429D01*
X153228571Y-140921429D01*
X153133333Y-140873810D01*
X153085714Y-140826190D01*
X153038095Y-140730952D01*
X142521428Y-143297619D02*
X142616666Y-143250000D01*
X142711904Y-143154762D01*
X142854761Y-143011905D01*
X142950000Y-142964286D01*
X143045238Y-142964286D01*
X142997619Y-143202381D02*
X143092857Y-143154762D01*
X143188095Y-143059524D01*
X143235714Y-142869048D01*
X143235714Y-142535714D01*
X143188095Y-142345238D01*
X143092857Y-142250000D01*
X142997619Y-142202381D01*
X142807142Y-142202381D01*
X142711904Y-142250000D01*
X142616666Y-142345238D01*
X142569047Y-142535714D01*
X142569047Y-142869048D01*
X142616666Y-143059524D01*
X142711904Y-143154762D01*
X142807142Y-143202381D01*
X142997619Y-143202381D01*
X141616666Y-143202381D02*
X142188095Y-143202381D01*
X141902381Y-143202381D02*
X141902381Y-142202381D01*
X141997619Y-142345238D01*
X142092857Y-142440476D01*
X142188095Y-142488095D01*
X140664285Y-143202381D02*
X141235714Y-143202381D01*
X140950000Y-143202381D02*
X140950000Y-142202381D01*
X141045238Y-142345238D01*
X141140476Y-142440476D01*
X141235714Y-142488095D01*
X149147619Y-145254762D02*
X149100000Y-145159524D01*
X149004762Y-145064286D01*
X148861905Y-144921429D01*
X148814286Y-144826190D01*
X148814286Y-144730952D01*
X149052381Y-144778571D02*
X149004762Y-144683333D01*
X148909524Y-144588095D01*
X148719048Y-144540476D01*
X148385714Y-144540476D01*
X148195238Y-144588095D01*
X148100000Y-144683333D01*
X148052381Y-144778571D01*
X148052381Y-144969048D01*
X148100000Y-145064286D01*
X148195238Y-145159524D01*
X148385714Y-145207143D01*
X148719048Y-145207143D01*
X148909524Y-145159524D01*
X149004762Y-145064286D01*
X149052381Y-144969048D01*
X149052381Y-144778571D01*
X148480952Y-145778571D02*
X148433333Y-145683333D01*
X148385714Y-145635714D01*
X148290476Y-145588095D01*
X148242857Y-145588095D01*
X148147619Y-145635714D01*
X148100000Y-145683333D01*
X148052381Y-145778571D01*
X148052381Y-145969048D01*
X148100000Y-146064286D01*
X148147619Y-146111905D01*
X148242857Y-146159524D01*
X148290476Y-146159524D01*
X148385714Y-146111905D01*
X148433333Y-146064286D01*
X148480952Y-145969048D01*
X148480952Y-145778571D01*
X148528571Y-145683333D01*
X148576190Y-145635714D01*
X148671429Y-145588095D01*
X148861905Y-145588095D01*
X148957143Y-145635714D01*
X149004762Y-145683333D01*
X149052381Y-145778571D01*
X149052381Y-145969048D01*
X149004762Y-146064286D01*
X148957143Y-146111905D01*
X148861905Y-146159524D01*
X148671429Y-146159524D01*
X148576190Y-146111905D01*
X148528571Y-146064286D01*
X148480952Y-145969048D01*
D17*
X149413248Y-136758594D02*
X149413248Y-135996594D01*
X149231820Y-135996594D01*
X149122963Y-136032880D01*
X149050391Y-136105451D01*
X149014106Y-136178023D01*
X148977820Y-136323166D01*
X148977820Y-136432023D01*
X149014106Y-136577166D01*
X149050391Y-136649737D01*
X149122963Y-136722309D01*
X149231820Y-136758594D01*
X149413248Y-136758594D01*
X148324677Y-136250594D02*
X148324677Y-136758594D01*
X148506106Y-135960309D02*
X148687534Y-136504594D01*
X148215820Y-136504594D01*
X225811608Y-121108594D02*
X225811608Y-120346594D01*
X225630180Y-120346594D01*
X225521323Y-120382880D01*
X225448751Y-120455451D01*
X225412466Y-120528023D01*
X225376180Y-120673166D01*
X225376180Y-120782023D01*
X225412466Y-120927166D01*
X225448751Y-120999737D01*
X225521323Y-121072309D01*
X225630180Y-121108594D01*
X225811608Y-121108594D01*
X225122180Y-120346594D02*
X224650466Y-120346594D01*
X224904466Y-120636880D01*
X224795608Y-120636880D01*
X224723037Y-120673166D01*
X224686751Y-120709451D01*
X224650466Y-120782023D01*
X224650466Y-120963451D01*
X224686751Y-121036023D01*
X224723037Y-121072309D01*
X224795608Y-121108594D01*
X225013323Y-121108594D01*
X225085894Y-121072309D01*
X225122180Y-121036023D01*
D12*
X196369047Y-121957143D02*
X196416666Y-122004762D01*
X196559523Y-122052381D01*
X196654761Y-122052381D01*
X196797619Y-122004762D01*
X196892857Y-121909524D01*
X196940476Y-121814286D01*
X196988095Y-121623810D01*
X196988095Y-121480952D01*
X196940476Y-121290476D01*
X196892857Y-121195238D01*
X196797619Y-121100000D01*
X196654761Y-121052381D01*
X196559523Y-121052381D01*
X196416666Y-121100000D01*
X196369047Y-121147619D01*
X195416666Y-122052381D02*
X195988095Y-122052381D01*
X195702381Y-122052381D02*
X195702381Y-121052381D01*
X195797619Y-121195238D01*
X195892857Y-121290476D01*
X195988095Y-121338095D01*
X194797619Y-121052381D02*
X194702380Y-121052381D01*
X194607142Y-121100000D01*
X194559523Y-121147619D01*
X194511904Y-121242857D01*
X194464285Y-121433333D01*
X194464285Y-121671429D01*
X194511904Y-121861905D01*
X194559523Y-121957143D01*
X194607142Y-122004762D01*
X194702380Y-122052381D01*
X194797619Y-122052381D01*
X194892857Y-122004762D01*
X194940476Y-121957143D01*
X194988095Y-121861905D01*
X195035714Y-121671429D01*
X195035714Y-121433333D01*
X194988095Y-121242857D01*
X194940476Y-121147619D01*
X194892857Y-121100000D01*
X194797619Y-121052381D01*
X193988095Y-122052381D02*
X193797619Y-122052381D01*
X193702380Y-122004762D01*
X193654761Y-121957143D01*
X193559523Y-121814286D01*
X193511904Y-121623810D01*
X193511904Y-121242857D01*
X193559523Y-121147619D01*
X193607142Y-121100000D01*
X193702380Y-121052381D01*
X193892857Y-121052381D01*
X193988095Y-121100000D01*
X194035714Y-121147619D01*
X194083333Y-121242857D01*
X194083333Y-121480952D01*
X194035714Y-121576190D01*
X193988095Y-121623810D01*
X193892857Y-121671429D01*
X193702380Y-121671429D01*
X193607142Y-121623810D01*
X193559523Y-121576190D01*
X193511904Y-121480952D01*
X195369047Y-118957143D02*
X195416666Y-119004762D01*
X195559523Y-119052381D01*
X195654761Y-119052381D01*
X195797619Y-119004762D01*
X195892857Y-118909524D01*
X195940476Y-118814286D01*
X195988095Y-118623810D01*
X195988095Y-118480952D01*
X195940476Y-118290476D01*
X195892857Y-118195238D01*
X195797619Y-118100000D01*
X195654761Y-118052381D01*
X195559523Y-118052381D01*
X195416666Y-118100000D01*
X195369047Y-118147619D01*
X194416666Y-119052381D02*
X194988095Y-119052381D01*
X194702381Y-119052381D02*
X194702381Y-118052381D01*
X194797619Y-118195238D01*
X194892857Y-118290476D01*
X194988095Y-118338095D01*
X193797619Y-118052381D02*
X193702380Y-118052381D01*
X193607142Y-118100000D01*
X193559523Y-118147619D01*
X193511904Y-118242857D01*
X193464285Y-118433333D01*
X193464285Y-118671429D01*
X193511904Y-118861905D01*
X193559523Y-118957143D01*
X193607142Y-119004762D01*
X193702380Y-119052381D01*
X193797619Y-119052381D01*
X193892857Y-119004762D01*
X193940476Y-118957143D01*
X193988095Y-118861905D01*
X194035714Y-118671429D01*
X194035714Y-118433333D01*
X193988095Y-118242857D01*
X193940476Y-118147619D01*
X193892857Y-118100000D01*
X193797619Y-118052381D01*
X192892857Y-118480952D02*
X192988095Y-118433333D01*
X193035714Y-118385714D01*
X193083333Y-118290476D01*
X193083333Y-118242857D01*
X193035714Y-118147619D01*
X192988095Y-118100000D01*
X192892857Y-118052381D01*
X192702380Y-118052381D01*
X192607142Y-118100000D01*
X192559523Y-118147619D01*
X192511904Y-118242857D01*
X192511904Y-118290476D01*
X192559523Y-118385714D01*
X192607142Y-118433333D01*
X192702380Y-118480952D01*
X192892857Y-118480952D01*
X192988095Y-118528571D01*
X193035714Y-118576190D01*
X193083333Y-118671429D01*
X193083333Y-118861905D01*
X193035714Y-118957143D01*
X192988095Y-119004762D01*
X192892857Y-119052381D01*
X192702380Y-119052381D01*
X192607142Y-119004762D01*
X192559523Y-118957143D01*
X192511904Y-118861905D01*
X192511904Y-118671429D01*
X192559523Y-118576190D01*
X192607142Y-118528571D01*
X192702380Y-118480952D01*
X192369047Y-119957143D02*
X192416666Y-120004762D01*
X192559523Y-120052381D01*
X192654761Y-120052381D01*
X192797619Y-120004762D01*
X192892857Y-119909524D01*
X192940476Y-119814286D01*
X192988095Y-119623810D01*
X192988095Y-119480952D01*
X192940476Y-119290476D01*
X192892857Y-119195238D01*
X192797619Y-119100000D01*
X192654761Y-119052381D01*
X192559523Y-119052381D01*
X192416666Y-119100000D01*
X192369047Y-119147619D01*
X191416666Y-120052381D02*
X191988095Y-120052381D01*
X191702381Y-120052381D02*
X191702381Y-119052381D01*
X191797619Y-119195238D01*
X191892857Y-119290476D01*
X191988095Y-119338095D01*
X190797619Y-119052381D02*
X190702380Y-119052381D01*
X190607142Y-119100000D01*
X190559523Y-119147619D01*
X190511904Y-119242857D01*
X190464285Y-119433333D01*
X190464285Y-119671429D01*
X190511904Y-119861905D01*
X190559523Y-119957143D01*
X190607142Y-120004762D01*
X190702380Y-120052381D01*
X190797619Y-120052381D01*
X190892857Y-120004762D01*
X190940476Y-119957143D01*
X190988095Y-119861905D01*
X191035714Y-119671429D01*
X191035714Y-119433333D01*
X190988095Y-119242857D01*
X190940476Y-119147619D01*
X190892857Y-119100000D01*
X190797619Y-119052381D01*
X189607142Y-119052381D02*
X189797619Y-119052381D01*
X189892857Y-119100000D01*
X189940476Y-119147619D01*
X190035714Y-119290476D01*
X190083333Y-119480952D01*
X190083333Y-119861905D01*
X190035714Y-119957143D01*
X189988095Y-120004762D01*
X189892857Y-120052381D01*
X189702380Y-120052381D01*
X189607142Y-120004762D01*
X189559523Y-119957143D01*
X189511904Y-119861905D01*
X189511904Y-119623810D01*
X189559523Y-119528571D01*
X189607142Y-119480952D01*
X189702380Y-119433333D01*
X189892857Y-119433333D01*
X189988095Y-119480952D01*
X190035714Y-119528571D01*
X190083333Y-119623810D01*
X190857143Y-116757143D02*
X190904762Y-116709524D01*
X190952381Y-116566667D01*
X190952381Y-116471429D01*
X190904762Y-116328571D01*
X190809524Y-116233333D01*
X190714286Y-116185714D01*
X190523810Y-116138095D01*
X190380952Y-116138095D01*
X190190476Y-116185714D01*
X190095238Y-116233333D01*
X190000000Y-116328571D01*
X189952381Y-116471429D01*
X189952381Y-116566667D01*
X190000000Y-116709524D01*
X190047619Y-116757143D01*
X190285714Y-117614286D02*
X190952381Y-117614286D01*
X189904762Y-117376190D02*
X190619048Y-117138095D01*
X190619048Y-117757143D01*
X189952381Y-118614286D02*
X189952381Y-118138095D01*
X190428571Y-118090476D01*
X190380952Y-118138095D01*
X190333333Y-118233333D01*
X190333333Y-118471429D01*
X190380952Y-118566667D01*
X190428571Y-118614286D01*
X190523810Y-118661905D01*
X190761905Y-118661905D01*
X190857143Y-118614286D01*
X190904762Y-118566667D01*
X190952381Y-118471429D01*
X190952381Y-118233333D01*
X190904762Y-118138095D01*
X190857143Y-118090476D01*
X192857143Y-116757143D02*
X192904762Y-116709524D01*
X192952381Y-116566667D01*
X192952381Y-116471429D01*
X192904762Y-116328571D01*
X192809524Y-116233333D01*
X192714286Y-116185714D01*
X192523810Y-116138095D01*
X192380952Y-116138095D01*
X192190476Y-116185714D01*
X192095238Y-116233333D01*
X192000000Y-116328571D01*
X191952381Y-116471429D01*
X191952381Y-116566667D01*
X192000000Y-116709524D01*
X192047619Y-116757143D01*
X192285714Y-117614286D02*
X192952381Y-117614286D01*
X191904762Y-117376190D02*
X192619048Y-117138095D01*
X192619048Y-117757143D01*
X192285714Y-118566667D02*
X192952381Y-118566667D01*
X191904762Y-118328571D02*
X192619048Y-118090476D01*
X192619048Y-118709524D01*
X195042857Y-120207143D02*
X195090476Y-120254762D01*
X195233333Y-120302381D01*
X195328571Y-120302381D01*
X195471429Y-120254762D01*
X195566667Y-120159524D01*
X195614286Y-120064286D01*
X195661905Y-119873810D01*
X195661905Y-119730952D01*
X195614286Y-119540476D01*
X195566667Y-119445238D01*
X195471429Y-119350000D01*
X195328571Y-119302381D01*
X195233333Y-119302381D01*
X195090476Y-119350000D01*
X195042857Y-119397619D01*
X194185714Y-119635714D02*
X194185714Y-120302381D01*
X194423810Y-119254762D02*
X194661905Y-119969048D01*
X194042857Y-119969048D01*
X193757143Y-119302381D02*
X193138095Y-119302381D01*
X193471429Y-119683333D01*
X193328571Y-119683333D01*
X193233333Y-119730952D01*
X193185714Y-119778571D01*
X193138095Y-119873810D01*
X193138095Y-120111905D01*
X193185714Y-120207143D01*
X193233333Y-120254762D01*
X193328571Y-120302381D01*
X193614286Y-120302381D01*
X193709524Y-120254762D01*
X193757143Y-120207143D01*
X175142857Y-129627143D02*
X175190476Y-129674762D01*
X175333333Y-129722381D01*
X175428571Y-129722381D01*
X175571429Y-129674762D01*
X175666667Y-129579524D01*
X175714286Y-129484286D01*
X175761905Y-129293810D01*
X175761905Y-129150952D01*
X175714286Y-128960476D01*
X175666667Y-128865238D01*
X175571429Y-128770000D01*
X175428571Y-128722381D01*
X175333333Y-128722381D01*
X175190476Y-128770000D01*
X175142857Y-128817619D01*
X174285714Y-129055714D02*
X174285714Y-129722381D01*
X174523810Y-128674762D02*
X174761905Y-129389048D01*
X174142857Y-129389048D01*
X173238095Y-129722381D02*
X173809524Y-129722381D01*
X173523810Y-129722381D02*
X173523810Y-128722381D01*
X173619048Y-128865238D01*
X173714286Y-128960476D01*
X173809524Y-129008095D01*
X263852381Y-110907143D02*
X263376190Y-110573809D01*
X263852381Y-110335714D02*
X262852381Y-110335714D01*
X262852381Y-110716667D01*
X262900000Y-110811905D01*
X262947619Y-110859524D01*
X263042857Y-110907143D01*
X263185714Y-110907143D01*
X263280952Y-110859524D01*
X263328571Y-110811905D01*
X263376190Y-110716667D01*
X263376190Y-110335714D01*
X262852381Y-111764286D02*
X262852381Y-111573809D01*
X262900000Y-111478571D01*
X262947619Y-111430952D01*
X263090476Y-111335714D01*
X263280952Y-111288095D01*
X263661905Y-111288095D01*
X263757143Y-111335714D01*
X263804762Y-111383333D01*
X263852381Y-111478571D01*
X263852381Y-111669048D01*
X263804762Y-111764286D01*
X263757143Y-111811905D01*
X263661905Y-111859524D01*
X263423810Y-111859524D01*
X263328571Y-111811905D01*
X263280952Y-111764286D01*
X263233333Y-111669048D01*
X263233333Y-111478571D01*
X263280952Y-111383333D01*
X263328571Y-111335714D01*
X263423810Y-111288095D01*
X263852381Y-112811905D02*
X263852381Y-112240476D01*
X263852381Y-112526190D02*
X262852381Y-112526190D01*
X262995238Y-112430952D01*
X263090476Y-112335714D01*
X263138095Y-112240476D01*
X259545238Y-115247619D02*
X259640476Y-115200000D01*
X259735714Y-115104762D01*
X259878571Y-114961905D01*
X259973810Y-114914286D01*
X260069048Y-114914286D01*
X260021429Y-115152381D02*
X260116667Y-115104762D01*
X260211905Y-115009524D01*
X260259524Y-114819048D01*
X260259524Y-114485714D01*
X260211905Y-114295238D01*
X260116667Y-114200000D01*
X260021429Y-114152381D01*
X259830952Y-114152381D01*
X259735714Y-114200000D01*
X259640476Y-114295238D01*
X259592857Y-114485714D01*
X259592857Y-114819048D01*
X259640476Y-115009524D01*
X259735714Y-115104762D01*
X259830952Y-115152381D01*
X260021429Y-115152381D01*
X258688095Y-114152381D02*
X259164286Y-114152381D01*
X259211905Y-114628571D01*
X259164286Y-114580952D01*
X259069048Y-114533333D01*
X258830952Y-114533333D01*
X258735714Y-114580952D01*
X258688095Y-114628571D01*
X258640476Y-114723810D01*
X258640476Y-114961905D01*
X258688095Y-115057143D01*
X258735714Y-115104762D01*
X258830952Y-115152381D01*
X259069048Y-115152381D01*
X259164286Y-115104762D01*
X259211905Y-115057143D01*
X148369047Y-124037143D02*
X148416666Y-124084762D01*
X148559523Y-124132381D01*
X148654761Y-124132381D01*
X148797619Y-124084762D01*
X148892857Y-123989524D01*
X148940476Y-123894286D01*
X148988095Y-123703810D01*
X148988095Y-123560952D01*
X148940476Y-123370476D01*
X148892857Y-123275238D01*
X148797619Y-123180000D01*
X148654761Y-123132381D01*
X148559523Y-123132381D01*
X148416666Y-123180000D01*
X148369047Y-123227619D01*
X147416666Y-124132381D02*
X147988095Y-124132381D01*
X147702381Y-124132381D02*
X147702381Y-123132381D01*
X147797619Y-123275238D01*
X147892857Y-123370476D01*
X147988095Y-123418095D01*
X146511904Y-123132381D02*
X146988095Y-123132381D01*
X147035714Y-123608571D01*
X146988095Y-123560952D01*
X146892857Y-123513333D01*
X146654761Y-123513333D01*
X146559523Y-123560952D01*
X146511904Y-123608571D01*
X146464285Y-123703810D01*
X146464285Y-123941905D01*
X146511904Y-124037143D01*
X146559523Y-124084762D01*
X146654761Y-124132381D01*
X146892857Y-124132381D01*
X146988095Y-124084762D01*
X147035714Y-124037143D01*
X146083333Y-123227619D02*
X146035714Y-123180000D01*
X145940476Y-123132381D01*
X145702380Y-123132381D01*
X145607142Y-123180000D01*
X145559523Y-123227619D01*
X145511904Y-123322857D01*
X145511904Y-123418095D01*
X145559523Y-123560952D01*
X146130952Y-124132381D01*
X145511904Y-124132381D01*
X139382143Y-129855953D02*
X139429762Y-129808334D01*
X139477381Y-129665477D01*
X139477381Y-129570239D01*
X139429762Y-129427381D01*
X139334524Y-129332143D01*
X139239286Y-129284524D01*
X139048810Y-129236905D01*
X138905952Y-129236905D01*
X138715476Y-129284524D01*
X138620238Y-129332143D01*
X138525000Y-129427381D01*
X138477381Y-129570239D01*
X138477381Y-129665477D01*
X138525000Y-129808334D01*
X138572619Y-129855953D01*
X139477381Y-130808334D02*
X139477381Y-130236905D01*
X139477381Y-130522619D02*
X138477381Y-130522619D01*
X138620238Y-130427381D01*
X138715476Y-130332143D01*
X138763095Y-130236905D01*
X139477381Y-131760715D02*
X139477381Y-131189286D01*
X139477381Y-131475000D02*
X138477381Y-131475000D01*
X138620238Y-131379762D01*
X138715476Y-131284524D01*
X138763095Y-131189286D01*
X138477381Y-132617858D02*
X138477381Y-132427381D01*
X138525000Y-132332143D01*
X138572619Y-132284524D01*
X138715476Y-132189286D01*
X138905952Y-132141667D01*
X139286905Y-132141667D01*
X139382143Y-132189286D01*
X139429762Y-132236905D01*
X139477381Y-132332143D01*
X139477381Y-132522620D01*
X139429762Y-132617858D01*
X139382143Y-132665477D01*
X139286905Y-132713096D01*
X139048810Y-132713096D01*
X138953571Y-132665477D01*
X138905952Y-132617858D01*
X138858333Y-132522620D01*
X138858333Y-132332143D01*
X138905952Y-132236905D01*
X138953571Y-132189286D01*
X139048810Y-132141667D01*
X261412381Y-123736667D02*
X262126667Y-123736667D01*
X262269524Y-123689047D01*
X262364762Y-123593809D01*
X262412381Y-123450952D01*
X262412381Y-123355714D01*
X261412381Y-124641429D02*
X261412381Y-124450952D01*
X261460000Y-124355714D01*
X261507619Y-124308095D01*
X261650476Y-124212857D01*
X261840952Y-124165238D01*
X262221905Y-124165238D01*
X262317143Y-124212857D01*
X262364762Y-124260476D01*
X262412381Y-124355714D01*
X262412381Y-124546191D01*
X262364762Y-124641429D01*
X262317143Y-124689048D01*
X262221905Y-124736667D01*
X261983810Y-124736667D01*
X261888571Y-124689048D01*
X261840952Y-124641429D01*
X261793333Y-124546191D01*
X261793333Y-124355714D01*
X261840952Y-124260476D01*
X261888571Y-124212857D01*
X261983810Y-124165238D01*
X178452381Y-136033334D02*
X178452381Y-135557143D01*
X177452381Y-135557143D01*
X177547619Y-136319048D02*
X177500000Y-136366667D01*
X177452381Y-136461905D01*
X177452381Y-136700001D01*
X177500000Y-136795239D01*
X177547619Y-136842858D01*
X177642857Y-136890477D01*
X177738095Y-136890477D01*
X177880952Y-136842858D01*
X178452381Y-136271429D01*
X178452381Y-136890477D01*
X233161905Y-152517381D02*
X233161905Y-153326905D01*
X233114286Y-153422143D01*
X233066667Y-153469762D01*
X232971429Y-153517381D01*
X232780952Y-153517381D01*
X232685714Y-153469762D01*
X232638095Y-153422143D01*
X232590476Y-153326905D01*
X232590476Y-152517381D01*
X232161905Y-152612619D02*
X232114286Y-152565000D01*
X232019048Y-152517381D01*
X231780952Y-152517381D01*
X231685714Y-152565000D01*
X231638095Y-152612619D01*
X231590476Y-152707857D01*
X231590476Y-152803095D01*
X231638095Y-152945952D01*
X232209524Y-153517381D01*
X231590476Y-153517381D01*
X240242857Y-137002381D02*
X240576191Y-136526190D01*
X240814286Y-137002381D02*
X240814286Y-136002381D01*
X240433333Y-136002381D01*
X240338095Y-136050000D01*
X240290476Y-136097619D01*
X240242857Y-136192857D01*
X240242857Y-136335714D01*
X240290476Y-136430952D01*
X240338095Y-136478571D01*
X240433333Y-136526190D01*
X240814286Y-136526190D01*
X239338095Y-136002381D02*
X239814286Y-136002381D01*
X239861905Y-136478571D01*
X239814286Y-136430952D01*
X239719048Y-136383333D01*
X239480952Y-136383333D01*
X239385714Y-136430952D01*
X239338095Y-136478571D01*
X239290476Y-136573810D01*
X239290476Y-136811905D01*
X239338095Y-136907143D01*
X239385714Y-136954762D01*
X239480952Y-137002381D01*
X239719048Y-137002381D01*
X239814286Y-136954762D01*
X239861905Y-136907143D01*
X238338095Y-137002381D02*
X238909524Y-137002381D01*
X238623810Y-137002381D02*
X238623810Y-136002381D01*
X238719048Y-136145238D01*
X238814286Y-136240476D01*
X238909524Y-136288095D01*
X236502381Y-145307143D02*
X236026190Y-144973809D01*
X236502381Y-144735714D02*
X235502381Y-144735714D01*
X235502381Y-145116667D01*
X235550000Y-145211905D01*
X235597619Y-145259524D01*
X235692857Y-145307143D01*
X235835714Y-145307143D01*
X235930952Y-145259524D01*
X235978571Y-145211905D01*
X236026190Y-145116667D01*
X236026190Y-144735714D01*
X235835714Y-146164286D02*
X236502381Y-146164286D01*
X235454762Y-145926190D02*
X236169048Y-145688095D01*
X236169048Y-146307143D01*
X235502381Y-146592857D02*
X235502381Y-147259524D01*
X236502381Y-146830952D01*
X179216666Y-125652381D02*
X179550000Y-125176190D01*
X179788095Y-125652381D02*
X179788095Y-124652381D01*
X179407142Y-124652381D01*
X179311904Y-124700000D01*
X179264285Y-124747619D01*
X179216666Y-124842857D01*
X179216666Y-124985714D01*
X179264285Y-125080952D01*
X179311904Y-125128571D01*
X179407142Y-125176190D01*
X179788095Y-125176190D01*
X178359523Y-124985714D02*
X178359523Y-125652381D01*
X178597619Y-124604762D02*
X178835714Y-125319048D01*
X178216666Y-125319048D01*
X222902381Y-132983334D02*
X222426190Y-132650000D01*
X222902381Y-132411905D02*
X221902381Y-132411905D01*
X221902381Y-132792858D01*
X221950000Y-132888096D01*
X221997619Y-132935715D01*
X222092857Y-132983334D01*
X222235714Y-132983334D01*
X222330952Y-132935715D01*
X222378571Y-132888096D01*
X222426190Y-132792858D01*
X222426190Y-132411905D01*
X221997619Y-133364286D02*
X221950000Y-133411905D01*
X221902381Y-133507143D01*
X221902381Y-133745239D01*
X221950000Y-133840477D01*
X221997619Y-133888096D01*
X222092857Y-133935715D01*
X222188095Y-133935715D01*
X222330952Y-133888096D01*
X222902381Y-133316667D01*
X222902381Y-133935715D01*
X148332143Y-146855953D02*
X148379762Y-146808334D01*
X148427381Y-146665477D01*
X148427381Y-146570239D01*
X148379762Y-146427381D01*
X148284524Y-146332143D01*
X148189286Y-146284524D01*
X147998810Y-146236905D01*
X147855952Y-146236905D01*
X147665476Y-146284524D01*
X147570238Y-146332143D01*
X147475000Y-146427381D01*
X147427381Y-146570239D01*
X147427381Y-146665477D01*
X147475000Y-146808334D01*
X147522619Y-146855953D01*
X148427381Y-147808334D02*
X148427381Y-147236905D01*
X148427381Y-147522619D02*
X147427381Y-147522619D01*
X147570238Y-147427381D01*
X147665476Y-147332143D01*
X147713095Y-147236905D01*
X147760714Y-148665477D02*
X148427381Y-148665477D01*
X147379762Y-148427381D02*
X148094048Y-148189286D01*
X148094048Y-148808334D01*
X147427381Y-149665477D02*
X147427381Y-149189286D01*
X147903571Y-149141667D01*
X147855952Y-149189286D01*
X147808333Y-149284524D01*
X147808333Y-149522620D01*
X147855952Y-149617858D01*
X147903571Y-149665477D01*
X147998810Y-149713096D01*
X148236905Y-149713096D01*
X148332143Y-149665477D01*
X148379762Y-149617858D01*
X148427381Y-149522620D01*
X148427381Y-149284524D01*
X148379762Y-149189286D01*
X148332143Y-149141667D01*
X144307143Y-130357143D02*
X144354762Y-130309524D01*
X144402381Y-130166667D01*
X144402381Y-130071429D01*
X144354762Y-129928571D01*
X144259524Y-129833333D01*
X144164286Y-129785714D01*
X143973810Y-129738095D01*
X143830952Y-129738095D01*
X143640476Y-129785714D01*
X143545238Y-129833333D01*
X143450000Y-129928571D01*
X143402381Y-130071429D01*
X143402381Y-130166667D01*
X143450000Y-130309524D01*
X143497619Y-130357143D01*
X143402381Y-130690476D02*
X143402381Y-131309524D01*
X143783333Y-130976190D01*
X143783333Y-131119048D01*
X143830952Y-131214286D01*
X143878571Y-131261905D01*
X143973810Y-131309524D01*
X144211905Y-131309524D01*
X144307143Y-131261905D01*
X144354762Y-131214286D01*
X144402381Y-131119048D01*
X144402381Y-130833333D01*
X144354762Y-130738095D01*
X144307143Y-130690476D01*
X143402381Y-131642857D02*
X143402381Y-132309524D01*
X144402381Y-131880952D01*
X245002381Y-123330953D02*
X244526190Y-122997619D01*
X245002381Y-122759524D02*
X244002381Y-122759524D01*
X244002381Y-123140477D01*
X244050000Y-123235715D01*
X244097619Y-123283334D01*
X244192857Y-123330953D01*
X244335714Y-123330953D01*
X244430952Y-123283334D01*
X244478571Y-123235715D01*
X244526190Y-123140477D01*
X244526190Y-122759524D01*
X245002381Y-124283334D02*
X245002381Y-123711905D01*
X245002381Y-123997619D02*
X244002381Y-123997619D01*
X244145238Y-123902381D01*
X244240476Y-123807143D01*
X244288095Y-123711905D01*
X244002381Y-124902381D02*
X244002381Y-124997620D01*
X244050000Y-125092858D01*
X244097619Y-125140477D01*
X244192857Y-125188096D01*
X244383333Y-125235715D01*
X244621429Y-125235715D01*
X244811905Y-125188096D01*
X244907143Y-125140477D01*
X244954762Y-125092858D01*
X245002381Y-124997620D01*
X245002381Y-124902381D01*
X244954762Y-124807143D01*
X244907143Y-124759524D01*
X244811905Y-124711905D01*
X244621429Y-124664286D01*
X244383333Y-124664286D01*
X244192857Y-124711905D01*
X244097619Y-124759524D01*
X244050000Y-124807143D01*
X244002381Y-124902381D01*
X244002381Y-125854762D02*
X244002381Y-125950001D01*
X244050000Y-126045239D01*
X244097619Y-126092858D01*
X244192857Y-126140477D01*
X244383333Y-126188096D01*
X244621429Y-126188096D01*
X244811905Y-126140477D01*
X244907143Y-126092858D01*
X244954762Y-126045239D01*
X245002381Y-125950001D01*
X245002381Y-125854762D01*
X244954762Y-125759524D01*
X244907143Y-125711905D01*
X244811905Y-125664286D01*
X244621429Y-125616667D01*
X244383333Y-125616667D01*
X244192857Y-125664286D01*
X244097619Y-125711905D01*
X244050000Y-125759524D01*
X244002381Y-125854762D01*
X224802381Y-114957143D02*
X224326190Y-114623809D01*
X224802381Y-114385714D02*
X223802381Y-114385714D01*
X223802381Y-114766667D01*
X223850000Y-114861905D01*
X223897619Y-114909524D01*
X223992857Y-114957143D01*
X224135714Y-114957143D01*
X224230952Y-114909524D01*
X224278571Y-114861905D01*
X224326190Y-114766667D01*
X224326190Y-114385714D01*
X223802381Y-115861905D02*
X223802381Y-115385714D01*
X224278571Y-115338095D01*
X224230952Y-115385714D01*
X224183333Y-115480952D01*
X224183333Y-115719048D01*
X224230952Y-115814286D01*
X224278571Y-115861905D01*
X224373810Y-115909524D01*
X224611905Y-115909524D01*
X224707143Y-115861905D01*
X224754762Y-115814286D01*
X224802381Y-115719048D01*
X224802381Y-115480952D01*
X224754762Y-115385714D01*
X224707143Y-115338095D01*
X223802381Y-116242857D02*
X223802381Y-116909524D01*
X224802381Y-116480952D01*
X224802381Y-118907143D02*
X224326190Y-118573809D01*
X224802381Y-118335714D02*
X223802381Y-118335714D01*
X223802381Y-118716667D01*
X223850000Y-118811905D01*
X223897619Y-118859524D01*
X223992857Y-118907143D01*
X224135714Y-118907143D01*
X224230952Y-118859524D01*
X224278571Y-118811905D01*
X224326190Y-118716667D01*
X224326190Y-118335714D01*
X223802381Y-119811905D02*
X223802381Y-119335714D01*
X224278571Y-119288095D01*
X224230952Y-119335714D01*
X224183333Y-119430952D01*
X224183333Y-119669048D01*
X224230952Y-119764286D01*
X224278571Y-119811905D01*
X224373810Y-119859524D01*
X224611905Y-119859524D01*
X224707143Y-119811905D01*
X224754762Y-119764286D01*
X224802381Y-119669048D01*
X224802381Y-119430952D01*
X224754762Y-119335714D01*
X224707143Y-119288095D01*
X223802381Y-120716667D02*
X223802381Y-120526190D01*
X223850000Y-120430952D01*
X223897619Y-120383333D01*
X224040476Y-120288095D01*
X224230952Y-120240476D01*
X224611905Y-120240476D01*
X224707143Y-120288095D01*
X224754762Y-120335714D01*
X224802381Y-120430952D01*
X224802381Y-120621429D01*
X224754762Y-120716667D01*
X224707143Y-120764286D01*
X224611905Y-120811905D01*
X224373810Y-120811905D01*
X224278571Y-120764286D01*
X224230952Y-120716667D01*
X224183333Y-120621429D01*
X224183333Y-120430952D01*
X224230952Y-120335714D01*
X224278571Y-120288095D01*
X224373810Y-120240476D01*
X244302381Y-123907143D02*
X243826190Y-123573809D01*
X244302381Y-123335714D02*
X243302381Y-123335714D01*
X243302381Y-123716667D01*
X243350000Y-123811905D01*
X243397619Y-123859524D01*
X243492857Y-123907143D01*
X243635714Y-123907143D01*
X243730952Y-123859524D01*
X243778571Y-123811905D01*
X243826190Y-123716667D01*
X243826190Y-123335714D01*
X243302381Y-124764286D02*
X243302381Y-124573809D01*
X243350000Y-124478571D01*
X243397619Y-124430952D01*
X243540476Y-124335714D01*
X243730952Y-124288095D01*
X244111905Y-124288095D01*
X244207143Y-124335714D01*
X244254762Y-124383333D01*
X244302381Y-124478571D01*
X244302381Y-124669048D01*
X244254762Y-124764286D01*
X244207143Y-124811905D01*
X244111905Y-124859524D01*
X243873810Y-124859524D01*
X243778571Y-124811905D01*
X243730952Y-124764286D01*
X243683333Y-124669048D01*
X243683333Y-124478571D01*
X243730952Y-124383333D01*
X243778571Y-124335714D01*
X243873810Y-124288095D01*
X243302381Y-125192857D02*
X243302381Y-125859524D01*
X244302381Y-125430952D01*
X244602381Y-116907143D02*
X244126190Y-116573809D01*
X244602381Y-116335714D02*
X243602381Y-116335714D01*
X243602381Y-116716667D01*
X243650000Y-116811905D01*
X243697619Y-116859524D01*
X243792857Y-116907143D01*
X243935714Y-116907143D01*
X244030952Y-116859524D01*
X244078571Y-116811905D01*
X244126190Y-116716667D01*
X244126190Y-116335714D01*
X243602381Y-117764286D02*
X243602381Y-117573809D01*
X243650000Y-117478571D01*
X243697619Y-117430952D01*
X243840476Y-117335714D01*
X244030952Y-117288095D01*
X244411905Y-117288095D01*
X244507143Y-117335714D01*
X244554762Y-117383333D01*
X244602381Y-117478571D01*
X244602381Y-117669048D01*
X244554762Y-117764286D01*
X244507143Y-117811905D01*
X244411905Y-117859524D01*
X244173810Y-117859524D01*
X244078571Y-117811905D01*
X244030952Y-117764286D01*
X243983333Y-117669048D01*
X243983333Y-117478571D01*
X244030952Y-117383333D01*
X244078571Y-117335714D01*
X244173810Y-117288095D01*
X243935714Y-118716667D02*
X244602381Y-118716667D01*
X243554762Y-118478571D02*
X244269048Y-118240476D01*
X244269048Y-118859524D01*
X225657143Y-130557143D02*
X225704762Y-130509524D01*
X225752381Y-130366667D01*
X225752381Y-130271429D01*
X225704762Y-130128571D01*
X225609524Y-130033333D01*
X225514286Y-129985714D01*
X225323810Y-129938095D01*
X225180952Y-129938095D01*
X224990476Y-129985714D01*
X224895238Y-130033333D01*
X224800000Y-130128571D01*
X224752381Y-130271429D01*
X224752381Y-130366667D01*
X224800000Y-130509524D01*
X224847619Y-130557143D01*
X225180952Y-131128571D02*
X225133333Y-131033333D01*
X225085714Y-130985714D01*
X224990476Y-130938095D01*
X224942857Y-130938095D01*
X224847619Y-130985714D01*
X224800000Y-131033333D01*
X224752381Y-131128571D01*
X224752381Y-131319048D01*
X224800000Y-131414286D01*
X224847619Y-131461905D01*
X224942857Y-131509524D01*
X224990476Y-131509524D01*
X225085714Y-131461905D01*
X225133333Y-131414286D01*
X225180952Y-131319048D01*
X225180952Y-131128571D01*
X225228571Y-131033333D01*
X225276190Y-130985714D01*
X225371429Y-130938095D01*
X225561905Y-130938095D01*
X225657143Y-130985714D01*
X225704762Y-131033333D01*
X225752381Y-131128571D01*
X225752381Y-131319048D01*
X225704762Y-131414286D01*
X225657143Y-131461905D01*
X225561905Y-131509524D01*
X225371429Y-131509524D01*
X225276190Y-131461905D01*
X225228571Y-131414286D01*
X225180952Y-131319048D01*
X224752381Y-132414286D02*
X224752381Y-131938095D01*
X225228571Y-131890476D01*
X225180952Y-131938095D01*
X225133333Y-132033333D01*
X225133333Y-132271429D01*
X225180952Y-132366667D01*
X225228571Y-132414286D01*
X225323810Y-132461905D01*
X225561905Y-132461905D01*
X225657143Y-132414286D01*
X225704762Y-132366667D01*
X225752381Y-132271429D01*
X225752381Y-132033333D01*
X225704762Y-131938095D01*
X225657143Y-131890476D01*
X202607143Y-128480953D02*
X202654762Y-128433334D01*
X202702381Y-128290477D01*
X202702381Y-128195239D01*
X202654762Y-128052381D01*
X202559524Y-127957143D01*
X202464286Y-127909524D01*
X202273810Y-127861905D01*
X202130952Y-127861905D01*
X201940476Y-127909524D01*
X201845238Y-127957143D01*
X201750000Y-128052381D01*
X201702381Y-128195239D01*
X201702381Y-128290477D01*
X201750000Y-128433334D01*
X201797619Y-128480953D01*
X202702381Y-129433334D02*
X202702381Y-128861905D01*
X202702381Y-129147619D02*
X201702381Y-129147619D01*
X201845238Y-129052381D01*
X201940476Y-128957143D01*
X201988095Y-128861905D01*
X202035714Y-130290477D02*
X202702381Y-130290477D01*
X201654762Y-130052381D02*
X202369048Y-129814286D01*
X202369048Y-130433334D01*
X201797619Y-130766667D02*
X201750000Y-130814286D01*
X201702381Y-130909524D01*
X201702381Y-131147620D01*
X201750000Y-131242858D01*
X201797619Y-131290477D01*
X201892857Y-131338096D01*
X201988095Y-131338096D01*
X202130952Y-131290477D01*
X202702381Y-130719048D01*
X202702381Y-131338096D01*
X198869047Y-129957143D02*
X198916666Y-130004762D01*
X199059523Y-130052381D01*
X199154761Y-130052381D01*
X199297619Y-130004762D01*
X199392857Y-129909524D01*
X199440476Y-129814286D01*
X199488095Y-129623810D01*
X199488095Y-129480952D01*
X199440476Y-129290476D01*
X199392857Y-129195238D01*
X199297619Y-129100000D01*
X199154761Y-129052381D01*
X199059523Y-129052381D01*
X198916666Y-129100000D01*
X198869047Y-129147619D01*
X197916666Y-130052381D02*
X198488095Y-130052381D01*
X198202381Y-130052381D02*
X198202381Y-129052381D01*
X198297619Y-129195238D01*
X198392857Y-129290476D01*
X198488095Y-129338095D01*
X197583333Y-129052381D02*
X196964285Y-129052381D01*
X197297619Y-129433333D01*
X197154761Y-129433333D01*
X197059523Y-129480952D01*
X197011904Y-129528571D01*
X196964285Y-129623810D01*
X196964285Y-129861905D01*
X197011904Y-129957143D01*
X197059523Y-130004762D01*
X197154761Y-130052381D01*
X197440476Y-130052381D01*
X197535714Y-130004762D01*
X197583333Y-129957143D01*
X196392857Y-129480952D02*
X196488095Y-129433333D01*
X196535714Y-129385714D01*
X196583333Y-129290476D01*
X196583333Y-129242857D01*
X196535714Y-129147619D01*
X196488095Y-129100000D01*
X196392857Y-129052381D01*
X196202380Y-129052381D01*
X196107142Y-129100000D01*
X196059523Y-129147619D01*
X196011904Y-129242857D01*
X196011904Y-129290476D01*
X196059523Y-129385714D01*
X196107142Y-129433333D01*
X196202380Y-129480952D01*
X196392857Y-129480952D01*
X196488095Y-129528571D01*
X196535714Y-129576190D01*
X196583333Y-129671429D01*
X196583333Y-129861905D01*
X196535714Y-129957143D01*
X196488095Y-130004762D01*
X196392857Y-130052381D01*
X196202380Y-130052381D01*
X196107142Y-130004762D01*
X196059523Y-129957143D01*
X196011904Y-129861905D01*
X196011904Y-129671429D01*
X196059523Y-129576190D01*
X196107142Y-129528571D01*
X196202380Y-129480952D01*
X187819047Y-132157143D02*
X187866666Y-132204762D01*
X188009523Y-132252381D01*
X188104761Y-132252381D01*
X188247619Y-132204762D01*
X188342857Y-132109524D01*
X188390476Y-132014286D01*
X188438095Y-131823810D01*
X188438095Y-131680952D01*
X188390476Y-131490476D01*
X188342857Y-131395238D01*
X188247619Y-131300000D01*
X188104761Y-131252381D01*
X188009523Y-131252381D01*
X187866666Y-131300000D01*
X187819047Y-131347619D01*
X186866666Y-132252381D02*
X187438095Y-132252381D01*
X187152381Y-132252381D02*
X187152381Y-131252381D01*
X187247619Y-131395238D01*
X187342857Y-131490476D01*
X187438095Y-131538095D01*
X186533333Y-131252381D02*
X185914285Y-131252381D01*
X186247619Y-131633333D01*
X186104761Y-131633333D01*
X186009523Y-131680952D01*
X185961904Y-131728571D01*
X185914285Y-131823810D01*
X185914285Y-132061905D01*
X185961904Y-132157143D01*
X186009523Y-132204762D01*
X186104761Y-132252381D01*
X186390476Y-132252381D01*
X186485714Y-132204762D01*
X186533333Y-132157143D01*
X185057142Y-131252381D02*
X185247619Y-131252381D01*
X185342857Y-131300000D01*
X185390476Y-131347619D01*
X185485714Y-131490476D01*
X185533333Y-131680952D01*
X185533333Y-132061905D01*
X185485714Y-132157143D01*
X185438095Y-132204762D01*
X185342857Y-132252381D01*
X185152380Y-132252381D01*
X185057142Y-132204762D01*
X185009523Y-132157143D01*
X184961904Y-132061905D01*
X184961904Y-131823810D01*
X185009523Y-131728571D01*
X185057142Y-131680952D01*
X185152380Y-131633333D01*
X185342857Y-131633333D01*
X185438095Y-131680952D01*
X185485714Y-131728571D01*
X185533333Y-131823810D01*
X226407143Y-114446207D02*
X226454762Y-114398588D01*
X226502381Y-114255731D01*
X226502381Y-114160493D01*
X226454762Y-114017635D01*
X226359524Y-113922397D01*
X226264286Y-113874778D01*
X226073810Y-113827159D01*
X225930952Y-113827159D01*
X225740476Y-113874778D01*
X225645238Y-113922397D01*
X225550000Y-114017635D01*
X225502381Y-114160493D01*
X225502381Y-114255731D01*
X225550000Y-114398588D01*
X225597619Y-114446207D01*
X226502381Y-115398588D02*
X226502381Y-114827159D01*
X226502381Y-115112873D02*
X225502381Y-115112873D01*
X225645238Y-115017635D01*
X225740476Y-114922397D01*
X225788095Y-114827159D01*
X225502381Y-115731921D02*
X225502381Y-116350969D01*
X225883333Y-116017635D01*
X225883333Y-116160493D01*
X225930952Y-116255731D01*
X225978571Y-116303350D01*
X226073810Y-116350969D01*
X226311905Y-116350969D01*
X226407143Y-116303350D01*
X226454762Y-116255731D01*
X226502381Y-116160493D01*
X226502381Y-115874778D01*
X226454762Y-115779540D01*
X226407143Y-115731921D01*
X225502381Y-116684302D02*
X225502381Y-117303350D01*
X225883333Y-116970016D01*
X225883333Y-117112874D01*
X225930952Y-117208112D01*
X225978571Y-117255731D01*
X226073810Y-117303350D01*
X226311905Y-117303350D01*
X226407143Y-117255731D01*
X226454762Y-117208112D01*
X226502381Y-117112874D01*
X226502381Y-116827159D01*
X226454762Y-116731921D01*
X226407143Y-116684302D01*
X226407143Y-118446207D02*
X226454762Y-118398588D01*
X226502381Y-118255731D01*
X226502381Y-118160493D01*
X226454762Y-118017635D01*
X226359524Y-117922397D01*
X226264286Y-117874778D01*
X226073810Y-117827159D01*
X225930952Y-117827159D01*
X225740476Y-117874778D01*
X225645238Y-117922397D01*
X225550000Y-118017635D01*
X225502381Y-118160493D01*
X225502381Y-118255731D01*
X225550000Y-118398588D01*
X225597619Y-118446207D01*
X226502381Y-119398588D02*
X226502381Y-118827159D01*
X226502381Y-119112873D02*
X225502381Y-119112873D01*
X225645238Y-119017635D01*
X225740476Y-118922397D01*
X225788095Y-118827159D01*
X225502381Y-119731921D02*
X225502381Y-120350969D01*
X225883333Y-120017635D01*
X225883333Y-120160493D01*
X225930952Y-120255731D01*
X225978571Y-120303350D01*
X226073810Y-120350969D01*
X226311905Y-120350969D01*
X226407143Y-120303350D01*
X226454762Y-120255731D01*
X226502381Y-120160493D01*
X226502381Y-119874778D01*
X226454762Y-119779540D01*
X226407143Y-119731921D01*
X225597619Y-120731921D02*
X225550000Y-120779540D01*
X225502381Y-120874778D01*
X225502381Y-121112874D01*
X225550000Y-121208112D01*
X225597619Y-121255731D01*
X225692857Y-121303350D01*
X225788095Y-121303350D01*
X225930952Y-121255731D01*
X226502381Y-120684302D01*
X226502381Y-121303350D01*
X213157143Y-111280953D02*
X213204762Y-111233334D01*
X213252381Y-111090477D01*
X213252381Y-110995239D01*
X213204762Y-110852381D01*
X213109524Y-110757143D01*
X213014286Y-110709524D01*
X212823810Y-110661905D01*
X212680952Y-110661905D01*
X212490476Y-110709524D01*
X212395238Y-110757143D01*
X212300000Y-110852381D01*
X212252381Y-110995239D01*
X212252381Y-111090477D01*
X212300000Y-111233334D01*
X212347619Y-111280953D01*
X213252381Y-112233334D02*
X213252381Y-111661905D01*
X213252381Y-111947619D02*
X212252381Y-111947619D01*
X212395238Y-111852381D01*
X212490476Y-111757143D01*
X212538095Y-111661905D01*
X212252381Y-112566667D02*
X212252381Y-113185715D01*
X212633333Y-112852381D01*
X212633333Y-112995239D01*
X212680952Y-113090477D01*
X212728571Y-113138096D01*
X212823810Y-113185715D01*
X213061905Y-113185715D01*
X213157143Y-113138096D01*
X213204762Y-113090477D01*
X213252381Y-112995239D01*
X213252381Y-112709524D01*
X213204762Y-112614286D01*
X213157143Y-112566667D01*
X213252381Y-114138096D02*
X213252381Y-113566667D01*
X213252381Y-113852381D02*
X212252381Y-113852381D01*
X212395238Y-113757143D01*
X212490476Y-113661905D01*
X212538095Y-113566667D01*
X213157143Y-114480953D02*
X213204762Y-114433334D01*
X213252381Y-114290477D01*
X213252381Y-114195239D01*
X213204762Y-114052381D01*
X213109524Y-113957143D01*
X213014286Y-113909524D01*
X212823810Y-113861905D01*
X212680952Y-113861905D01*
X212490476Y-113909524D01*
X212395238Y-113957143D01*
X212300000Y-114052381D01*
X212252381Y-114195239D01*
X212252381Y-114290477D01*
X212300000Y-114433334D01*
X212347619Y-114480953D01*
X213252381Y-115433334D02*
X213252381Y-114861905D01*
X213252381Y-115147619D02*
X212252381Y-115147619D01*
X212395238Y-115052381D01*
X212490476Y-114957143D01*
X212538095Y-114861905D01*
X212252381Y-115766667D02*
X212252381Y-116385715D01*
X212633333Y-116052381D01*
X212633333Y-116195239D01*
X212680952Y-116290477D01*
X212728571Y-116338096D01*
X212823810Y-116385715D01*
X213061905Y-116385715D01*
X213157143Y-116338096D01*
X213204762Y-116290477D01*
X213252381Y-116195239D01*
X213252381Y-115909524D01*
X213204762Y-115814286D01*
X213157143Y-115766667D01*
X212252381Y-117004762D02*
X212252381Y-117100001D01*
X212300000Y-117195239D01*
X212347619Y-117242858D01*
X212442857Y-117290477D01*
X212633333Y-117338096D01*
X212871429Y-117338096D01*
X213061905Y-117290477D01*
X213157143Y-117242858D01*
X213204762Y-117195239D01*
X213252381Y-117100001D01*
X213252381Y-117004762D01*
X213204762Y-116909524D01*
X213157143Y-116861905D01*
X213061905Y-116814286D01*
X212871429Y-116766667D01*
X212633333Y-116766667D01*
X212442857Y-116814286D01*
X212347619Y-116861905D01*
X212300000Y-116909524D01*
X212252381Y-117004762D01*
X223307143Y-114446207D02*
X223354762Y-114398588D01*
X223402381Y-114255731D01*
X223402381Y-114160493D01*
X223354762Y-114017635D01*
X223259524Y-113922397D01*
X223164286Y-113874778D01*
X222973810Y-113827159D01*
X222830952Y-113827159D01*
X222640476Y-113874778D01*
X222545238Y-113922397D01*
X222450000Y-114017635D01*
X222402381Y-114160493D01*
X222402381Y-114255731D01*
X222450000Y-114398588D01*
X222497619Y-114446207D01*
X223402381Y-115398588D02*
X223402381Y-114827159D01*
X223402381Y-115112873D02*
X222402381Y-115112873D01*
X222545238Y-115017635D01*
X222640476Y-114922397D01*
X222688095Y-114827159D01*
X222497619Y-115779540D02*
X222450000Y-115827159D01*
X222402381Y-115922397D01*
X222402381Y-116160493D01*
X222450000Y-116255731D01*
X222497619Y-116303350D01*
X222592857Y-116350969D01*
X222688095Y-116350969D01*
X222830952Y-116303350D01*
X223402381Y-115731921D01*
X223402381Y-116350969D01*
X222830952Y-116922397D02*
X222783333Y-116827159D01*
X222735714Y-116779540D01*
X222640476Y-116731921D01*
X222592857Y-116731921D01*
X222497619Y-116779540D01*
X222450000Y-116827159D01*
X222402381Y-116922397D01*
X222402381Y-117112874D01*
X222450000Y-117208112D01*
X222497619Y-117255731D01*
X222592857Y-117303350D01*
X222640476Y-117303350D01*
X222735714Y-117255731D01*
X222783333Y-117208112D01*
X222830952Y-117112874D01*
X222830952Y-116922397D01*
X222878571Y-116827159D01*
X222926190Y-116779540D01*
X223021429Y-116731921D01*
X223211905Y-116731921D01*
X223307143Y-116779540D01*
X223354762Y-116827159D01*
X223402381Y-116922397D01*
X223402381Y-117112874D01*
X223354762Y-117208112D01*
X223307143Y-117255731D01*
X223211905Y-117303350D01*
X223021429Y-117303350D01*
X222926190Y-117255731D01*
X222878571Y-117208112D01*
X222830952Y-117112874D01*
X223307143Y-118446207D02*
X223354762Y-118398588D01*
X223402381Y-118255731D01*
X223402381Y-118160493D01*
X223354762Y-118017635D01*
X223259524Y-117922397D01*
X223164286Y-117874778D01*
X222973810Y-117827159D01*
X222830952Y-117827159D01*
X222640476Y-117874778D01*
X222545238Y-117922397D01*
X222450000Y-118017635D01*
X222402381Y-118160493D01*
X222402381Y-118255731D01*
X222450000Y-118398588D01*
X222497619Y-118446207D01*
X223402381Y-119398588D02*
X223402381Y-118827159D01*
X223402381Y-119112873D02*
X222402381Y-119112873D01*
X222545238Y-119017635D01*
X222640476Y-118922397D01*
X222688095Y-118827159D01*
X222497619Y-119779540D02*
X222450000Y-119827159D01*
X222402381Y-119922397D01*
X222402381Y-120160493D01*
X222450000Y-120255731D01*
X222497619Y-120303350D01*
X222592857Y-120350969D01*
X222688095Y-120350969D01*
X222830952Y-120303350D01*
X223402381Y-119731921D01*
X223402381Y-120350969D01*
X222402381Y-120684302D02*
X222402381Y-121350969D01*
X223402381Y-120922397D01*
X209519047Y-114257143D02*
X209566666Y-114304762D01*
X209709523Y-114352381D01*
X209804761Y-114352381D01*
X209947619Y-114304762D01*
X210042857Y-114209524D01*
X210090476Y-114114286D01*
X210138095Y-113923810D01*
X210138095Y-113780952D01*
X210090476Y-113590476D01*
X210042857Y-113495238D01*
X209947619Y-113400000D01*
X209804761Y-113352381D01*
X209709523Y-113352381D01*
X209566666Y-113400000D01*
X209519047Y-113447619D01*
X208566666Y-114352381D02*
X209138095Y-114352381D01*
X208852381Y-114352381D02*
X208852381Y-113352381D01*
X208947619Y-113495238D01*
X209042857Y-113590476D01*
X209138095Y-113638095D01*
X208185714Y-113447619D02*
X208138095Y-113400000D01*
X208042857Y-113352381D01*
X207804761Y-113352381D01*
X207709523Y-113400000D01*
X207661904Y-113447619D01*
X207614285Y-113542857D01*
X207614285Y-113638095D01*
X207661904Y-113780952D01*
X208233333Y-114352381D01*
X207614285Y-114352381D01*
X206757142Y-113352381D02*
X206947619Y-113352381D01*
X207042857Y-113400000D01*
X207090476Y-113447619D01*
X207185714Y-113590476D01*
X207233333Y-113780952D01*
X207233333Y-114161905D01*
X207185714Y-114257143D01*
X207138095Y-114304762D01*
X207042857Y-114352381D01*
X206852380Y-114352381D01*
X206757142Y-114304762D01*
X206709523Y-114257143D01*
X206661904Y-114161905D01*
X206661904Y-113923810D01*
X206709523Y-113828571D01*
X206757142Y-113780952D01*
X206852380Y-113733333D01*
X207042857Y-113733333D01*
X207138095Y-113780952D01*
X207185714Y-113828571D01*
X207233333Y-113923810D01*
X235427143Y-138157143D02*
X235474762Y-138109524D01*
X235522381Y-137966667D01*
X235522381Y-137871429D01*
X235474762Y-137728571D01*
X235379524Y-137633333D01*
X235284286Y-137585714D01*
X235093810Y-137538095D01*
X234950952Y-137538095D01*
X234760476Y-137585714D01*
X234665238Y-137633333D01*
X234570000Y-137728571D01*
X234522381Y-137871429D01*
X234522381Y-137966667D01*
X234570000Y-138109524D01*
X234617619Y-138157143D01*
X234522381Y-139014286D02*
X234522381Y-138823809D01*
X234570000Y-138728571D01*
X234617619Y-138680952D01*
X234760476Y-138585714D01*
X234950952Y-138538095D01*
X235331905Y-138538095D01*
X235427143Y-138585714D01*
X235474762Y-138633333D01*
X235522381Y-138728571D01*
X235522381Y-138919048D01*
X235474762Y-139014286D01*
X235427143Y-139061905D01*
X235331905Y-139109524D01*
X235093810Y-139109524D01*
X234998571Y-139061905D01*
X234950952Y-139014286D01*
X234903333Y-138919048D01*
X234903333Y-138728571D01*
X234950952Y-138633333D01*
X234998571Y-138585714D01*
X235093810Y-138538095D01*
X234522381Y-140014286D02*
X234522381Y-139538095D01*
X234998571Y-139490476D01*
X234950952Y-139538095D01*
X234903333Y-139633333D01*
X234903333Y-139871429D01*
X234950952Y-139966667D01*
X234998571Y-140014286D01*
X235093810Y-140061905D01*
X235331905Y-140061905D01*
X235427143Y-140014286D01*
X235474762Y-139966667D01*
X235522381Y-139871429D01*
X235522381Y-139633333D01*
X235474762Y-139538095D01*
X235427143Y-139490476D01*
X233192857Y-130227143D02*
X233240476Y-130274762D01*
X233383333Y-130322381D01*
X233478571Y-130322381D01*
X233621429Y-130274762D01*
X233716667Y-130179524D01*
X233764286Y-130084286D01*
X233811905Y-129893810D01*
X233811905Y-129750952D01*
X233764286Y-129560476D01*
X233716667Y-129465238D01*
X233621429Y-129370000D01*
X233478571Y-129322381D01*
X233383333Y-129322381D01*
X233240476Y-129370000D01*
X233192857Y-129417619D01*
X232859524Y-129322381D02*
X232192857Y-129322381D01*
X232621429Y-130322381D01*
X231907143Y-129322381D02*
X231288095Y-129322381D01*
X231621429Y-129703333D01*
X231478571Y-129703333D01*
X231383333Y-129750952D01*
X231335714Y-129798571D01*
X231288095Y-129893810D01*
X231288095Y-130131905D01*
X231335714Y-130227143D01*
X231383333Y-130274762D01*
X231478571Y-130322381D01*
X231764286Y-130322381D01*
X231859524Y-130274762D01*
X231907143Y-130227143D01*
X236227143Y-131757143D02*
X236274762Y-131709524D01*
X236322381Y-131566667D01*
X236322381Y-131471429D01*
X236274762Y-131328571D01*
X236179524Y-131233333D01*
X236084286Y-131185714D01*
X235893810Y-131138095D01*
X235750952Y-131138095D01*
X235560476Y-131185714D01*
X235465238Y-131233333D01*
X235370000Y-131328571D01*
X235322381Y-131471429D01*
X235322381Y-131566667D01*
X235370000Y-131709524D01*
X235417619Y-131757143D01*
X235322381Y-132090476D02*
X235322381Y-132757143D01*
X236322381Y-132328571D01*
X235417619Y-133090476D02*
X235370000Y-133138095D01*
X235322381Y-133233333D01*
X235322381Y-133471429D01*
X235370000Y-133566667D01*
X235417619Y-133614286D01*
X235512857Y-133661905D01*
X235608095Y-133661905D01*
X235750952Y-133614286D01*
X236322381Y-133042857D01*
X236322381Y-133661905D01*
X226057143Y-136957143D02*
X226104762Y-136909524D01*
X226152381Y-136766667D01*
X226152381Y-136671429D01*
X226104762Y-136528571D01*
X226009524Y-136433333D01*
X225914286Y-136385714D01*
X225723810Y-136338095D01*
X225580952Y-136338095D01*
X225390476Y-136385714D01*
X225295238Y-136433333D01*
X225200000Y-136528571D01*
X225152381Y-136671429D01*
X225152381Y-136766667D01*
X225200000Y-136909524D01*
X225247619Y-136957143D01*
X225152381Y-137290476D02*
X225152381Y-137957143D01*
X226152381Y-137528571D01*
X226152381Y-138861905D02*
X226152381Y-138290476D01*
X226152381Y-138576190D02*
X225152381Y-138576190D01*
X225295238Y-138480952D01*
X225390476Y-138385714D01*
X225438095Y-138290476D01*
X245792857Y-141007143D02*
X245840476Y-141054762D01*
X245983333Y-141102381D01*
X246078571Y-141102381D01*
X246221429Y-141054762D01*
X246316667Y-140959524D01*
X246364286Y-140864286D01*
X246411905Y-140673810D01*
X246411905Y-140530952D01*
X246364286Y-140340476D01*
X246316667Y-140245238D01*
X246221429Y-140150000D01*
X246078571Y-140102381D01*
X245983333Y-140102381D01*
X245840476Y-140150000D01*
X245792857Y-140197619D01*
X245459524Y-140102381D02*
X244792857Y-140102381D01*
X245221429Y-141102381D01*
X244221429Y-140102381D02*
X244126190Y-140102381D01*
X244030952Y-140150000D01*
X243983333Y-140197619D01*
X243935714Y-140292857D01*
X243888095Y-140483333D01*
X243888095Y-140721429D01*
X243935714Y-140911905D01*
X243983333Y-141007143D01*
X244030952Y-141054762D01*
X244126190Y-141102381D01*
X244221429Y-141102381D01*
X244316667Y-141054762D01*
X244364286Y-141007143D01*
X244411905Y-140911905D01*
X244459524Y-140721429D01*
X244459524Y-140483333D01*
X244411905Y-140292857D01*
X244364286Y-140197619D01*
X244316667Y-140150000D01*
X244221429Y-140102381D01*
X253395238Y-115297619D02*
X253490476Y-115250000D01*
X253585714Y-115154762D01*
X253728571Y-115011905D01*
X253823810Y-114964286D01*
X253919048Y-114964286D01*
X253871429Y-115202381D02*
X253966667Y-115154762D01*
X254061905Y-115059524D01*
X254109524Y-114869048D01*
X254109524Y-114535714D01*
X254061905Y-114345238D01*
X253966667Y-114250000D01*
X253871429Y-114202381D01*
X253680952Y-114202381D01*
X253585714Y-114250000D01*
X253490476Y-114345238D01*
X253442857Y-114535714D01*
X253442857Y-114869048D01*
X253490476Y-115059524D01*
X253585714Y-115154762D01*
X253680952Y-115202381D01*
X253871429Y-115202381D01*
X252585714Y-114202381D02*
X252776191Y-114202381D01*
X252871429Y-114250000D01*
X252919048Y-114297619D01*
X253014286Y-114440476D01*
X253061905Y-114630952D01*
X253061905Y-115011905D01*
X253014286Y-115107143D01*
X252966667Y-115154762D01*
X252871429Y-115202381D01*
X252680952Y-115202381D01*
X252585714Y-115154762D01*
X252538095Y-115107143D01*
X252490476Y-115011905D01*
X252490476Y-114773810D01*
X252538095Y-114678571D01*
X252585714Y-114630952D01*
X252680952Y-114583333D01*
X252871429Y-114583333D01*
X252966667Y-114630952D01*
X253014286Y-114678571D01*
X253061905Y-114773810D01*
X167752381Y-144583334D02*
X167752381Y-144107143D01*
X166752381Y-144107143D01*
X167085714Y-145345239D02*
X167752381Y-145345239D01*
X166704762Y-145107143D02*
X167419048Y-144869048D01*
X167419048Y-145488096D01*
X189202381Y-145933334D02*
X189202381Y-145457143D01*
X188202381Y-145457143D01*
X188202381Y-146171429D02*
X188202381Y-146790477D01*
X188583333Y-146457143D01*
X188583333Y-146600001D01*
X188630952Y-146695239D01*
X188678571Y-146742858D01*
X188773810Y-146790477D01*
X189011905Y-146790477D01*
X189107143Y-146742858D01*
X189154762Y-146695239D01*
X189202381Y-146600001D01*
X189202381Y-146314286D01*
X189154762Y-146219048D01*
X189107143Y-146171429D01*
X167752381Y-136733334D02*
X167752381Y-136257143D01*
X166752381Y-136257143D01*
X167752381Y-137590477D02*
X167752381Y-137019048D01*
X167752381Y-137304762D02*
X166752381Y-137304762D01*
X166895238Y-137209524D01*
X166990476Y-137114286D01*
X167038095Y-137019048D01*
X244428571Y-141466667D02*
X244428571Y-141133333D01*
X244952381Y-141133333D02*
X243952381Y-141133333D01*
X243952381Y-141609524D01*
X244428571Y-142323810D02*
X244476190Y-142466667D01*
X244523810Y-142514286D01*
X244619048Y-142561905D01*
X244761905Y-142561905D01*
X244857143Y-142514286D01*
X244904762Y-142466667D01*
X244952381Y-142371429D01*
X244952381Y-141990476D01*
X243952381Y-141990476D01*
X243952381Y-142323810D01*
X244000000Y-142419048D01*
X244047619Y-142466667D01*
X244142857Y-142514286D01*
X244238095Y-142514286D01*
X244333333Y-142466667D01*
X244380952Y-142419048D01*
X244428571Y-142323810D01*
X244428571Y-141990476D01*
X243952381Y-142895238D02*
X243952381Y-143514286D01*
X244333333Y-143180952D01*
X244333333Y-143323810D01*
X244380952Y-143419048D01*
X244428571Y-143466667D01*
X244523810Y-143514286D01*
X244761905Y-143514286D01*
X244857143Y-143466667D01*
X244904762Y-143419048D01*
X244952381Y-143323810D01*
X244952381Y-143038095D01*
X244904762Y-142942857D01*
X244857143Y-142895238D01*
X239728571Y-133366667D02*
X239728571Y-133033333D01*
X240252381Y-133033333D02*
X239252381Y-133033333D01*
X239252381Y-133509524D01*
X239728571Y-134223810D02*
X239776190Y-134366667D01*
X239823810Y-134414286D01*
X239919048Y-134461905D01*
X240061905Y-134461905D01*
X240157143Y-134414286D01*
X240204762Y-134366667D01*
X240252381Y-134271429D01*
X240252381Y-133890476D01*
X239252381Y-133890476D01*
X239252381Y-134223810D01*
X239300000Y-134319048D01*
X239347619Y-134366667D01*
X239442857Y-134414286D01*
X239538095Y-134414286D01*
X239633333Y-134366667D01*
X239680952Y-134319048D01*
X239728571Y-134223810D01*
X239728571Y-133890476D01*
X240252381Y-135414286D02*
X240252381Y-134842857D01*
X240252381Y-135128571D02*
X239252381Y-135128571D01*
X239395238Y-135033333D01*
X239490476Y-134938095D01*
X239538095Y-134842857D01*
X221352381Y-131161905D02*
X220352381Y-131161905D01*
X220352381Y-131400000D01*
X220400000Y-131542858D01*
X220495238Y-131638096D01*
X220590476Y-131685715D01*
X220780952Y-131733334D01*
X220923810Y-131733334D01*
X221114286Y-131685715D01*
X221209524Y-131638096D01*
X221304762Y-131542858D01*
X221352381Y-131400000D01*
X221352381Y-131161905D01*
X221352381Y-132685715D02*
X221352381Y-132114286D01*
X221352381Y-132400000D02*
X220352381Y-132400000D01*
X220495238Y-132304762D01*
X220590476Y-132209524D01*
X220638095Y-132114286D01*
X248219047Y-112057143D02*
X248266666Y-112104762D01*
X248409523Y-112152381D01*
X248504761Y-112152381D01*
X248647619Y-112104762D01*
X248742857Y-112009524D01*
X248790476Y-111914286D01*
X248838095Y-111723810D01*
X248838095Y-111580952D01*
X248790476Y-111390476D01*
X248742857Y-111295238D01*
X248647619Y-111200000D01*
X248504761Y-111152381D01*
X248409523Y-111152381D01*
X248266666Y-111200000D01*
X248219047Y-111247619D01*
X247266666Y-112152381D02*
X247838095Y-112152381D01*
X247552381Y-112152381D02*
X247552381Y-111152381D01*
X247647619Y-111295238D01*
X247742857Y-111390476D01*
X247838095Y-111438095D01*
X246647619Y-111152381D02*
X246552380Y-111152381D01*
X246457142Y-111200000D01*
X246409523Y-111247619D01*
X246361904Y-111342857D01*
X246314285Y-111533333D01*
X246314285Y-111771429D01*
X246361904Y-111961905D01*
X246409523Y-112057143D01*
X246457142Y-112104762D01*
X246552380Y-112152381D01*
X246647619Y-112152381D01*
X246742857Y-112104762D01*
X246790476Y-112057143D01*
X246838095Y-111961905D01*
X246885714Y-111771429D01*
X246885714Y-111533333D01*
X246838095Y-111342857D01*
X246790476Y-111247619D01*
X246742857Y-111200000D01*
X246647619Y-111152381D01*
X245457142Y-111485714D02*
X245457142Y-112152381D01*
X245695238Y-111104762D02*
X245933333Y-111819048D01*
X245314285Y-111819048D01*
X243107143Y-109780953D02*
X243154762Y-109733334D01*
X243202381Y-109590477D01*
X243202381Y-109495239D01*
X243154762Y-109352381D01*
X243059524Y-109257143D01*
X242964286Y-109209524D01*
X242773810Y-109161905D01*
X242630952Y-109161905D01*
X242440476Y-109209524D01*
X242345238Y-109257143D01*
X242250000Y-109352381D01*
X242202381Y-109495239D01*
X242202381Y-109590477D01*
X242250000Y-109733334D01*
X242297619Y-109780953D01*
X243202381Y-110733334D02*
X243202381Y-110161905D01*
X243202381Y-110447619D02*
X242202381Y-110447619D01*
X242345238Y-110352381D01*
X242440476Y-110257143D01*
X242488095Y-110161905D01*
X242202381Y-111352381D02*
X242202381Y-111447620D01*
X242250000Y-111542858D01*
X242297619Y-111590477D01*
X242392857Y-111638096D01*
X242583333Y-111685715D01*
X242821429Y-111685715D01*
X243011905Y-111638096D01*
X243107143Y-111590477D01*
X243154762Y-111542858D01*
X243202381Y-111447620D01*
X243202381Y-111352381D01*
X243154762Y-111257143D01*
X243107143Y-111209524D01*
X243011905Y-111161905D01*
X242821429Y-111114286D01*
X242583333Y-111114286D01*
X242392857Y-111161905D01*
X242297619Y-111209524D01*
X242250000Y-111257143D01*
X242202381Y-111352381D01*
X242202381Y-112304762D02*
X242202381Y-112400001D01*
X242250000Y-112495239D01*
X242297619Y-112542858D01*
X242392857Y-112590477D01*
X242583333Y-112638096D01*
X242821429Y-112638096D01*
X243011905Y-112590477D01*
X243107143Y-112542858D01*
X243154762Y-112495239D01*
X243202381Y-112400001D01*
X243202381Y-112304762D01*
X243154762Y-112209524D01*
X243107143Y-112161905D01*
X243011905Y-112114286D01*
X242821429Y-112066667D01*
X242583333Y-112066667D01*
X242392857Y-112114286D01*
X242297619Y-112161905D01*
X242250000Y-112209524D01*
X242202381Y-112304762D01*
X245642857Y-114957143D02*
X245690476Y-115004762D01*
X245833333Y-115052381D01*
X245928571Y-115052381D01*
X246071429Y-115004762D01*
X246166667Y-114909524D01*
X246214286Y-114814286D01*
X246261905Y-114623810D01*
X246261905Y-114480952D01*
X246214286Y-114290476D01*
X246166667Y-114195238D01*
X246071429Y-114100000D01*
X245928571Y-114052381D01*
X245833333Y-114052381D01*
X245690476Y-114100000D01*
X245642857Y-114147619D01*
X245166667Y-115052381D02*
X244976191Y-115052381D01*
X244880952Y-115004762D01*
X244833333Y-114957143D01*
X244738095Y-114814286D01*
X244690476Y-114623810D01*
X244690476Y-114242857D01*
X244738095Y-114147619D01*
X244785714Y-114100000D01*
X244880952Y-114052381D01*
X245071429Y-114052381D01*
X245166667Y-114100000D01*
X245214286Y-114147619D01*
X245261905Y-114242857D01*
X245261905Y-114480952D01*
X245214286Y-114576190D01*
X245166667Y-114623810D01*
X245071429Y-114671429D01*
X244880952Y-114671429D01*
X244785714Y-114623810D01*
X244738095Y-114576190D01*
X244690476Y-114480952D01*
X244214286Y-115052381D02*
X244023810Y-115052381D01*
X243928571Y-115004762D01*
X243880952Y-114957143D01*
X243785714Y-114814286D01*
X243738095Y-114623810D01*
X243738095Y-114242857D01*
X243785714Y-114147619D01*
X243833333Y-114100000D01*
X243928571Y-114052381D01*
X244119048Y-114052381D01*
X244214286Y-114100000D01*
X244261905Y-114147619D01*
X244309524Y-114242857D01*
X244309524Y-114480952D01*
X244261905Y-114576190D01*
X244214286Y-114623810D01*
X244119048Y-114671429D01*
X243928571Y-114671429D01*
X243833333Y-114623810D01*
X243785714Y-114576190D01*
X243738095Y-114480952D01*
X225542857Y-142807143D02*
X225590476Y-142854762D01*
X225733333Y-142902381D01*
X225828571Y-142902381D01*
X225971429Y-142854762D01*
X226066667Y-142759524D01*
X226114286Y-142664286D01*
X226161905Y-142473810D01*
X226161905Y-142330952D01*
X226114286Y-142140476D01*
X226066667Y-142045238D01*
X225971429Y-141950000D01*
X225828571Y-141902381D01*
X225733333Y-141902381D01*
X225590476Y-141950000D01*
X225542857Y-141997619D01*
X224971429Y-142330952D02*
X225066667Y-142283333D01*
X225114286Y-142235714D01*
X225161905Y-142140476D01*
X225161905Y-142092857D01*
X225114286Y-141997619D01*
X225066667Y-141950000D01*
X224971429Y-141902381D01*
X224780952Y-141902381D01*
X224685714Y-141950000D01*
X224638095Y-141997619D01*
X224590476Y-142092857D01*
X224590476Y-142140476D01*
X224638095Y-142235714D01*
X224685714Y-142283333D01*
X224780952Y-142330952D01*
X224971429Y-142330952D01*
X225066667Y-142378571D01*
X225114286Y-142426190D01*
X225161905Y-142521429D01*
X225161905Y-142711905D01*
X225114286Y-142807143D01*
X225066667Y-142854762D01*
X224971429Y-142902381D01*
X224780952Y-142902381D01*
X224685714Y-142854762D01*
X224638095Y-142807143D01*
X224590476Y-142711905D01*
X224590476Y-142521429D01*
X224638095Y-142426190D01*
X224685714Y-142378571D01*
X224780952Y-142330952D01*
X224019048Y-142330952D02*
X224114286Y-142283333D01*
X224161905Y-142235714D01*
X224209524Y-142140476D01*
X224209524Y-142092857D01*
X224161905Y-141997619D01*
X224114286Y-141950000D01*
X224019048Y-141902381D01*
X223828571Y-141902381D01*
X223733333Y-141950000D01*
X223685714Y-141997619D01*
X223638095Y-142092857D01*
X223638095Y-142140476D01*
X223685714Y-142235714D01*
X223733333Y-142283333D01*
X223828571Y-142330952D01*
X224019048Y-142330952D01*
X224114286Y-142378571D01*
X224161905Y-142426190D01*
X224209524Y-142521429D01*
X224209524Y-142711905D01*
X224161905Y-142807143D01*
X224114286Y-142854762D01*
X224019048Y-142902381D01*
X223828571Y-142902381D01*
X223733333Y-142854762D01*
X223685714Y-142807143D01*
X223638095Y-142711905D01*
X223638095Y-142521429D01*
X223685714Y-142426190D01*
X223733333Y-142378571D01*
X223828571Y-142330952D01*
X235427143Y-140557143D02*
X235474762Y-140509524D01*
X235522381Y-140366667D01*
X235522381Y-140271429D01*
X235474762Y-140128571D01*
X235379524Y-140033333D01*
X235284286Y-139985714D01*
X235093810Y-139938095D01*
X234950952Y-139938095D01*
X234760476Y-139985714D01*
X234665238Y-140033333D01*
X234570000Y-140128571D01*
X234522381Y-140271429D01*
X234522381Y-140366667D01*
X234570000Y-140509524D01*
X234617619Y-140557143D01*
X234950952Y-141128571D02*
X234903333Y-141033333D01*
X234855714Y-140985714D01*
X234760476Y-140938095D01*
X234712857Y-140938095D01*
X234617619Y-140985714D01*
X234570000Y-141033333D01*
X234522381Y-141128571D01*
X234522381Y-141319048D01*
X234570000Y-141414286D01*
X234617619Y-141461905D01*
X234712857Y-141509524D01*
X234760476Y-141509524D01*
X234855714Y-141461905D01*
X234903333Y-141414286D01*
X234950952Y-141319048D01*
X234950952Y-141128571D01*
X234998571Y-141033333D01*
X235046190Y-140985714D01*
X235141429Y-140938095D01*
X235331905Y-140938095D01*
X235427143Y-140985714D01*
X235474762Y-141033333D01*
X235522381Y-141128571D01*
X235522381Y-141319048D01*
X235474762Y-141414286D01*
X235427143Y-141461905D01*
X235331905Y-141509524D01*
X235141429Y-141509524D01*
X235046190Y-141461905D01*
X234998571Y-141414286D01*
X234950952Y-141319048D01*
X234522381Y-142366667D02*
X234522381Y-142176190D01*
X234570000Y-142080952D01*
X234617619Y-142033333D01*
X234760476Y-141938095D01*
X234950952Y-141890476D01*
X235331905Y-141890476D01*
X235427143Y-141938095D01*
X235474762Y-141985714D01*
X235522381Y-142080952D01*
X235522381Y-142271429D01*
X235474762Y-142366667D01*
X235427143Y-142414286D01*
X235331905Y-142461905D01*
X235093810Y-142461905D01*
X234998571Y-142414286D01*
X234950952Y-142366667D01*
X234903333Y-142271429D01*
X234903333Y-142080952D01*
X234950952Y-141985714D01*
X234998571Y-141938095D01*
X235093810Y-141890476D01*
X235642857Y-138427143D02*
X235690476Y-138474762D01*
X235833333Y-138522381D01*
X235928571Y-138522381D01*
X236071429Y-138474762D01*
X236166667Y-138379524D01*
X236214286Y-138284286D01*
X236261905Y-138093810D01*
X236261905Y-137950952D01*
X236214286Y-137760476D01*
X236166667Y-137665238D01*
X236071429Y-137570000D01*
X235928571Y-137522381D01*
X235833333Y-137522381D01*
X235690476Y-137570000D01*
X235642857Y-137617619D01*
X235071429Y-137950952D02*
X235166667Y-137903333D01*
X235214286Y-137855714D01*
X235261905Y-137760476D01*
X235261905Y-137712857D01*
X235214286Y-137617619D01*
X235166667Y-137570000D01*
X235071429Y-137522381D01*
X234880952Y-137522381D01*
X234785714Y-137570000D01*
X234738095Y-137617619D01*
X234690476Y-137712857D01*
X234690476Y-137760476D01*
X234738095Y-137855714D01*
X234785714Y-137903333D01*
X234880952Y-137950952D01*
X235071429Y-137950952D01*
X235166667Y-137998571D01*
X235214286Y-138046190D01*
X235261905Y-138141429D01*
X235261905Y-138331905D01*
X235214286Y-138427143D01*
X235166667Y-138474762D01*
X235071429Y-138522381D01*
X234880952Y-138522381D01*
X234785714Y-138474762D01*
X234738095Y-138427143D01*
X234690476Y-138331905D01*
X234690476Y-138141429D01*
X234738095Y-138046190D01*
X234785714Y-137998571D01*
X234880952Y-137950952D01*
X233833333Y-137855714D02*
X233833333Y-138522381D01*
X234071429Y-137474762D02*
X234309524Y-138189048D01*
X233690476Y-138189048D01*
X245307143Y-143757143D02*
X245354762Y-143709524D01*
X245402381Y-143566667D01*
X245402381Y-143471429D01*
X245354762Y-143328571D01*
X245259524Y-143233333D01*
X245164286Y-143185714D01*
X244973810Y-143138095D01*
X244830952Y-143138095D01*
X244640476Y-143185714D01*
X244545238Y-143233333D01*
X244450000Y-143328571D01*
X244402381Y-143471429D01*
X244402381Y-143566667D01*
X244450000Y-143709524D01*
X244497619Y-143757143D01*
X244830952Y-144328571D02*
X244783333Y-144233333D01*
X244735714Y-144185714D01*
X244640476Y-144138095D01*
X244592857Y-144138095D01*
X244497619Y-144185714D01*
X244450000Y-144233333D01*
X244402381Y-144328571D01*
X244402381Y-144519048D01*
X244450000Y-144614286D01*
X244497619Y-144661905D01*
X244592857Y-144709524D01*
X244640476Y-144709524D01*
X244735714Y-144661905D01*
X244783333Y-144614286D01*
X244830952Y-144519048D01*
X244830952Y-144328571D01*
X244878571Y-144233333D01*
X244926190Y-144185714D01*
X245021429Y-144138095D01*
X245211905Y-144138095D01*
X245307143Y-144185714D01*
X245354762Y-144233333D01*
X245402381Y-144328571D01*
X245402381Y-144519048D01*
X245354762Y-144614286D01*
X245307143Y-144661905D01*
X245211905Y-144709524D01*
X245021429Y-144709524D01*
X244926190Y-144661905D01*
X244878571Y-144614286D01*
X244830952Y-144519048D01*
X244402381Y-145042857D02*
X244402381Y-145661905D01*
X244783333Y-145328571D01*
X244783333Y-145471429D01*
X244830952Y-145566667D01*
X244878571Y-145614286D01*
X244973810Y-145661905D01*
X245211905Y-145661905D01*
X245307143Y-145614286D01*
X245354762Y-145566667D01*
X245402381Y-145471429D01*
X245402381Y-145185714D01*
X245354762Y-145090476D01*
X245307143Y-145042857D01*
X230357143Y-133807143D02*
X230404762Y-133759524D01*
X230452381Y-133616667D01*
X230452381Y-133521429D01*
X230404762Y-133378571D01*
X230309524Y-133283333D01*
X230214286Y-133235714D01*
X230023810Y-133188095D01*
X229880952Y-133188095D01*
X229690476Y-133235714D01*
X229595238Y-133283333D01*
X229500000Y-133378571D01*
X229452381Y-133521429D01*
X229452381Y-133616667D01*
X229500000Y-133759524D01*
X229547619Y-133807143D01*
X229880952Y-134378571D02*
X229833333Y-134283333D01*
X229785714Y-134235714D01*
X229690476Y-134188095D01*
X229642857Y-134188095D01*
X229547619Y-134235714D01*
X229500000Y-134283333D01*
X229452381Y-134378571D01*
X229452381Y-134569048D01*
X229500000Y-134664286D01*
X229547619Y-134711905D01*
X229642857Y-134759524D01*
X229690476Y-134759524D01*
X229785714Y-134711905D01*
X229833333Y-134664286D01*
X229880952Y-134569048D01*
X229880952Y-134378571D01*
X229928571Y-134283333D01*
X229976190Y-134235714D01*
X230071429Y-134188095D01*
X230261905Y-134188095D01*
X230357143Y-134235714D01*
X230404762Y-134283333D01*
X230452381Y-134378571D01*
X230452381Y-134569048D01*
X230404762Y-134664286D01*
X230357143Y-134711905D01*
X230261905Y-134759524D01*
X230071429Y-134759524D01*
X229976190Y-134711905D01*
X229928571Y-134664286D01*
X229880952Y-134569048D01*
X230452381Y-135711905D02*
X230452381Y-135140476D01*
X230452381Y-135426190D02*
X229452381Y-135426190D01*
X229595238Y-135330952D01*
X229690476Y-135235714D01*
X229738095Y-135140476D01*
X235642857Y-130227143D02*
X235690476Y-130274762D01*
X235833333Y-130322381D01*
X235928571Y-130322381D01*
X236071429Y-130274762D01*
X236166667Y-130179524D01*
X236214286Y-130084286D01*
X236261905Y-129893810D01*
X236261905Y-129750952D01*
X236214286Y-129560476D01*
X236166667Y-129465238D01*
X236071429Y-129370000D01*
X235928571Y-129322381D01*
X235833333Y-129322381D01*
X235690476Y-129370000D01*
X235642857Y-129417619D01*
X235071429Y-129750952D02*
X235166667Y-129703333D01*
X235214286Y-129655714D01*
X235261905Y-129560476D01*
X235261905Y-129512857D01*
X235214286Y-129417619D01*
X235166667Y-129370000D01*
X235071429Y-129322381D01*
X234880952Y-129322381D01*
X234785714Y-129370000D01*
X234738095Y-129417619D01*
X234690476Y-129512857D01*
X234690476Y-129560476D01*
X234738095Y-129655714D01*
X234785714Y-129703333D01*
X234880952Y-129750952D01*
X235071429Y-129750952D01*
X235166667Y-129798571D01*
X235214286Y-129846190D01*
X235261905Y-129941429D01*
X235261905Y-130131905D01*
X235214286Y-130227143D01*
X235166667Y-130274762D01*
X235071429Y-130322381D01*
X234880952Y-130322381D01*
X234785714Y-130274762D01*
X234738095Y-130227143D01*
X234690476Y-130131905D01*
X234690476Y-129941429D01*
X234738095Y-129846190D01*
X234785714Y-129798571D01*
X234880952Y-129750952D01*
X234071429Y-129322381D02*
X233976190Y-129322381D01*
X233880952Y-129370000D01*
X233833333Y-129417619D01*
X233785714Y-129512857D01*
X233738095Y-129703333D01*
X233738095Y-129941429D01*
X233785714Y-130131905D01*
X233833333Y-130227143D01*
X233880952Y-130274762D01*
X233976190Y-130322381D01*
X234071429Y-130322381D01*
X234166667Y-130274762D01*
X234214286Y-130227143D01*
X234261905Y-130131905D01*
X234309524Y-129941429D01*
X234309524Y-129703333D01*
X234261905Y-129512857D01*
X234214286Y-129417619D01*
X234166667Y-129370000D01*
X234071429Y-129322381D01*
X226492857Y-130657143D02*
X226540476Y-130704762D01*
X226683333Y-130752381D01*
X226778571Y-130752381D01*
X226921429Y-130704762D01*
X227016667Y-130609524D01*
X227064286Y-130514286D01*
X227111905Y-130323810D01*
X227111905Y-130180952D01*
X227064286Y-129990476D01*
X227016667Y-129895238D01*
X226921429Y-129800000D01*
X226778571Y-129752381D01*
X226683333Y-129752381D01*
X226540476Y-129800000D01*
X226492857Y-129847619D01*
X226159524Y-129752381D02*
X225492857Y-129752381D01*
X225921429Y-130752381D01*
X225064286Y-130752381D02*
X224873810Y-130752381D01*
X224778571Y-130704762D01*
X224730952Y-130657143D01*
X224635714Y-130514286D01*
X224588095Y-130323810D01*
X224588095Y-129942857D01*
X224635714Y-129847619D01*
X224683333Y-129800000D01*
X224778571Y-129752381D01*
X224969048Y-129752381D01*
X225064286Y-129800000D01*
X225111905Y-129847619D01*
X225159524Y-129942857D01*
X225159524Y-130180952D01*
X225111905Y-130276190D01*
X225064286Y-130323810D01*
X224969048Y-130371429D01*
X224778571Y-130371429D01*
X224683333Y-130323810D01*
X224635714Y-130276190D01*
X224588095Y-130180952D01*
X233242857Y-138427143D02*
X233290476Y-138474762D01*
X233433333Y-138522381D01*
X233528571Y-138522381D01*
X233671429Y-138474762D01*
X233766667Y-138379524D01*
X233814286Y-138284286D01*
X233861905Y-138093810D01*
X233861905Y-137950952D01*
X233814286Y-137760476D01*
X233766667Y-137665238D01*
X233671429Y-137570000D01*
X233528571Y-137522381D01*
X233433333Y-137522381D01*
X233290476Y-137570000D01*
X233242857Y-137617619D01*
X232909524Y-137522381D02*
X232242857Y-137522381D01*
X232671429Y-138522381D01*
X231719048Y-137950952D02*
X231814286Y-137903333D01*
X231861905Y-137855714D01*
X231909524Y-137760476D01*
X231909524Y-137712857D01*
X231861905Y-137617619D01*
X231814286Y-137570000D01*
X231719048Y-137522381D01*
X231528571Y-137522381D01*
X231433333Y-137570000D01*
X231385714Y-137617619D01*
X231338095Y-137712857D01*
X231338095Y-137760476D01*
X231385714Y-137855714D01*
X231433333Y-137903333D01*
X231528571Y-137950952D01*
X231719048Y-137950952D01*
X231814286Y-137998571D01*
X231861905Y-138046190D01*
X231909524Y-138141429D01*
X231909524Y-138331905D01*
X231861905Y-138427143D01*
X231814286Y-138474762D01*
X231719048Y-138522381D01*
X231528571Y-138522381D01*
X231433333Y-138474762D01*
X231385714Y-138427143D01*
X231338095Y-138331905D01*
X231338095Y-138141429D01*
X231385714Y-138046190D01*
X231433333Y-137998571D01*
X231528571Y-137950952D01*
X230457143Y-130557143D02*
X230504762Y-130509524D01*
X230552381Y-130366667D01*
X230552381Y-130271429D01*
X230504762Y-130128571D01*
X230409524Y-130033333D01*
X230314286Y-129985714D01*
X230123810Y-129938095D01*
X229980952Y-129938095D01*
X229790476Y-129985714D01*
X229695238Y-130033333D01*
X229600000Y-130128571D01*
X229552381Y-130271429D01*
X229552381Y-130366667D01*
X229600000Y-130509524D01*
X229647619Y-130557143D01*
X229552381Y-130890476D02*
X229552381Y-131557143D01*
X230552381Y-131128571D01*
X229552381Y-131842857D02*
X229552381Y-132509524D01*
X230552381Y-132080952D01*
X230842857Y-138427143D02*
X230890476Y-138474762D01*
X231033333Y-138522381D01*
X231128571Y-138522381D01*
X231271429Y-138474762D01*
X231366667Y-138379524D01*
X231414286Y-138284286D01*
X231461905Y-138093810D01*
X231461905Y-137950952D01*
X231414286Y-137760476D01*
X231366667Y-137665238D01*
X231271429Y-137570000D01*
X231128571Y-137522381D01*
X231033333Y-137522381D01*
X230890476Y-137570000D01*
X230842857Y-137617619D01*
X230509524Y-137522381D02*
X229842857Y-137522381D01*
X230271429Y-138522381D01*
X229033333Y-137522381D02*
X229223810Y-137522381D01*
X229319048Y-137570000D01*
X229366667Y-137617619D01*
X229461905Y-137760476D01*
X229509524Y-137950952D01*
X229509524Y-138331905D01*
X229461905Y-138427143D01*
X229414286Y-138474762D01*
X229319048Y-138522381D01*
X229128571Y-138522381D01*
X229033333Y-138474762D01*
X228985714Y-138427143D01*
X228938095Y-138331905D01*
X228938095Y-138093810D01*
X228985714Y-137998571D01*
X229033333Y-137950952D01*
X229128571Y-137903333D01*
X229319048Y-137903333D01*
X229414286Y-137950952D01*
X229461905Y-137998571D01*
X229509524Y-138093810D01*
X242492857Y-138057143D02*
X242540476Y-138104762D01*
X242683333Y-138152381D01*
X242778571Y-138152381D01*
X242921429Y-138104762D01*
X243016667Y-138009524D01*
X243064286Y-137914286D01*
X243111905Y-137723810D01*
X243111905Y-137580952D01*
X243064286Y-137390476D01*
X243016667Y-137295238D01*
X242921429Y-137200000D01*
X242778571Y-137152381D01*
X242683333Y-137152381D01*
X242540476Y-137200000D01*
X242492857Y-137247619D01*
X242159524Y-137152381D02*
X241492857Y-137152381D01*
X241921429Y-138152381D01*
X240635714Y-137152381D02*
X241111905Y-137152381D01*
X241159524Y-137628571D01*
X241111905Y-137580952D01*
X241016667Y-137533333D01*
X240778571Y-137533333D01*
X240683333Y-137580952D01*
X240635714Y-137628571D01*
X240588095Y-137723810D01*
X240588095Y-137961905D01*
X240635714Y-138057143D01*
X240683333Y-138104762D01*
X240778571Y-138152381D01*
X241016667Y-138152381D01*
X241111905Y-138104762D01*
X241159524Y-138057143D01*
X225277143Y-128257143D02*
X225324762Y-128209524D01*
X225372381Y-128066667D01*
X225372381Y-127971429D01*
X225324762Y-127828571D01*
X225229524Y-127733333D01*
X225134286Y-127685714D01*
X224943810Y-127638095D01*
X224800952Y-127638095D01*
X224610476Y-127685714D01*
X224515238Y-127733333D01*
X224420000Y-127828571D01*
X224372381Y-127971429D01*
X224372381Y-128066667D01*
X224420000Y-128209524D01*
X224467619Y-128257143D01*
X224372381Y-128590476D02*
X224372381Y-129257143D01*
X225372381Y-128828571D01*
X224705714Y-130066667D02*
X225372381Y-130066667D01*
X224324762Y-129828571D02*
X225039048Y-129590476D01*
X225039048Y-130209524D01*
X229842857Y-130657143D02*
X229890476Y-130704762D01*
X230033333Y-130752381D01*
X230128571Y-130752381D01*
X230271429Y-130704762D01*
X230366667Y-130609524D01*
X230414286Y-130514286D01*
X230461905Y-130323810D01*
X230461905Y-130180952D01*
X230414286Y-129990476D01*
X230366667Y-129895238D01*
X230271429Y-129800000D01*
X230128571Y-129752381D01*
X230033333Y-129752381D01*
X229890476Y-129800000D01*
X229842857Y-129847619D01*
X228985714Y-129752381D02*
X229176191Y-129752381D01*
X229271429Y-129800000D01*
X229319048Y-129847619D01*
X229414286Y-129990476D01*
X229461905Y-130180952D01*
X229461905Y-130561905D01*
X229414286Y-130657143D01*
X229366667Y-130704762D01*
X229271429Y-130752381D01*
X229080952Y-130752381D01*
X228985714Y-130704762D01*
X228938095Y-130657143D01*
X228890476Y-130561905D01*
X228890476Y-130323810D01*
X228938095Y-130228571D01*
X228985714Y-130180952D01*
X229080952Y-130133333D01*
X229271429Y-130133333D01*
X229366667Y-130180952D01*
X229414286Y-130228571D01*
X229461905Y-130323810D01*
X228414286Y-130752381D02*
X228223810Y-130752381D01*
X228128571Y-130704762D01*
X228080952Y-130657143D01*
X227985714Y-130514286D01*
X227938095Y-130323810D01*
X227938095Y-129942857D01*
X227985714Y-129847619D01*
X228033333Y-129800000D01*
X228128571Y-129752381D01*
X228319048Y-129752381D01*
X228414286Y-129800000D01*
X228461905Y-129847619D01*
X228509524Y-129942857D01*
X228509524Y-130180952D01*
X228461905Y-130276190D01*
X228414286Y-130323810D01*
X228319048Y-130371429D01*
X228128571Y-130371429D01*
X228033333Y-130323810D01*
X227985714Y-130276190D01*
X227938095Y-130180952D01*
X228692857Y-142807143D02*
X228740476Y-142854762D01*
X228883333Y-142902381D01*
X228978571Y-142902381D01*
X229121429Y-142854762D01*
X229216667Y-142759524D01*
X229264286Y-142664286D01*
X229311905Y-142473810D01*
X229311905Y-142330952D01*
X229264286Y-142140476D01*
X229216667Y-142045238D01*
X229121429Y-141950000D01*
X228978571Y-141902381D01*
X228883333Y-141902381D01*
X228740476Y-141950000D01*
X228692857Y-141997619D01*
X227835714Y-141902381D02*
X228026191Y-141902381D01*
X228121429Y-141950000D01*
X228169048Y-141997619D01*
X228264286Y-142140476D01*
X228311905Y-142330952D01*
X228311905Y-142711905D01*
X228264286Y-142807143D01*
X228216667Y-142854762D01*
X228121429Y-142902381D01*
X227930952Y-142902381D01*
X227835714Y-142854762D01*
X227788095Y-142807143D01*
X227740476Y-142711905D01*
X227740476Y-142473810D01*
X227788095Y-142378571D01*
X227835714Y-142330952D01*
X227930952Y-142283333D01*
X228121429Y-142283333D01*
X228216667Y-142330952D01*
X228264286Y-142378571D01*
X228311905Y-142473810D01*
X226883333Y-141902381D02*
X227073810Y-141902381D01*
X227169048Y-141950000D01*
X227216667Y-141997619D01*
X227311905Y-142140476D01*
X227359524Y-142330952D01*
X227359524Y-142711905D01*
X227311905Y-142807143D01*
X227264286Y-142854762D01*
X227169048Y-142902381D01*
X226978571Y-142902381D01*
X226883333Y-142854762D01*
X226835714Y-142807143D01*
X226788095Y-142711905D01*
X226788095Y-142473810D01*
X226835714Y-142378571D01*
X226883333Y-142330952D01*
X226978571Y-142283333D01*
X227169048Y-142283333D01*
X227264286Y-142330952D01*
X227311905Y-142378571D01*
X227359524Y-142473810D01*
X238392857Y-143657143D02*
X238440476Y-143704762D01*
X238583333Y-143752381D01*
X238678571Y-143752381D01*
X238821429Y-143704762D01*
X238916667Y-143609524D01*
X238964286Y-143514286D01*
X239011905Y-143323810D01*
X239011905Y-143180952D01*
X238964286Y-142990476D01*
X238916667Y-142895238D01*
X238821429Y-142800000D01*
X238678571Y-142752381D01*
X238583333Y-142752381D01*
X238440476Y-142800000D01*
X238392857Y-142847619D01*
X237535714Y-142752381D02*
X237726191Y-142752381D01*
X237821429Y-142800000D01*
X237869048Y-142847619D01*
X237964286Y-142990476D01*
X238011905Y-143180952D01*
X238011905Y-143561905D01*
X237964286Y-143657143D01*
X237916667Y-143704762D01*
X237821429Y-143752381D01*
X237630952Y-143752381D01*
X237535714Y-143704762D01*
X237488095Y-143657143D01*
X237440476Y-143561905D01*
X237440476Y-143323810D01*
X237488095Y-143228571D01*
X237535714Y-143180952D01*
X237630952Y-143133333D01*
X237821429Y-143133333D01*
X237916667Y-143180952D01*
X237964286Y-143228571D01*
X238011905Y-143323810D01*
X237107143Y-142752381D02*
X236488095Y-142752381D01*
X236821429Y-143133333D01*
X236678571Y-143133333D01*
X236583333Y-143180952D01*
X236535714Y-143228571D01*
X236488095Y-143323810D01*
X236488095Y-143561905D01*
X236535714Y-143657143D01*
X236583333Y-143704762D01*
X236678571Y-143752381D01*
X236964286Y-143752381D01*
X237059524Y-143704762D01*
X237107143Y-143657143D01*
X232542857Y-147457143D02*
X232590476Y-147504762D01*
X232733333Y-147552381D01*
X232828571Y-147552381D01*
X232971429Y-147504762D01*
X233066667Y-147409524D01*
X233114286Y-147314286D01*
X233161905Y-147123810D01*
X233161905Y-146980952D01*
X233114286Y-146790476D01*
X233066667Y-146695238D01*
X232971429Y-146600000D01*
X232828571Y-146552381D01*
X232733333Y-146552381D01*
X232590476Y-146600000D01*
X232542857Y-146647619D01*
X231685714Y-146552381D02*
X231876191Y-146552381D01*
X231971429Y-146600000D01*
X232019048Y-146647619D01*
X232114286Y-146790476D01*
X232161905Y-146980952D01*
X232161905Y-147361905D01*
X232114286Y-147457143D01*
X232066667Y-147504762D01*
X231971429Y-147552381D01*
X231780952Y-147552381D01*
X231685714Y-147504762D01*
X231638095Y-147457143D01*
X231590476Y-147361905D01*
X231590476Y-147123810D01*
X231638095Y-147028571D01*
X231685714Y-146980952D01*
X231780952Y-146933333D01*
X231971429Y-146933333D01*
X232066667Y-146980952D01*
X232114286Y-147028571D01*
X232161905Y-147123810D01*
X231209524Y-146647619D02*
X231161905Y-146600000D01*
X231066667Y-146552381D01*
X230828571Y-146552381D01*
X230733333Y-146600000D01*
X230685714Y-146647619D01*
X230638095Y-146742857D01*
X230638095Y-146838095D01*
X230685714Y-146980952D01*
X231257143Y-147552381D01*
X230638095Y-147552381D01*
X238042857Y-135887143D02*
X238090476Y-135934762D01*
X238233333Y-135982381D01*
X238328571Y-135982381D01*
X238471429Y-135934762D01*
X238566667Y-135839524D01*
X238614286Y-135744286D01*
X238661905Y-135553810D01*
X238661905Y-135410952D01*
X238614286Y-135220476D01*
X238566667Y-135125238D01*
X238471429Y-135030000D01*
X238328571Y-134982381D01*
X238233333Y-134982381D01*
X238090476Y-135030000D01*
X238042857Y-135077619D01*
X237138095Y-134982381D02*
X237614286Y-134982381D01*
X237661905Y-135458571D01*
X237614286Y-135410952D01*
X237519048Y-135363333D01*
X237280952Y-135363333D01*
X237185714Y-135410952D01*
X237138095Y-135458571D01*
X237090476Y-135553810D01*
X237090476Y-135791905D01*
X237138095Y-135887143D01*
X237185714Y-135934762D01*
X237280952Y-135982381D01*
X237519048Y-135982381D01*
X237614286Y-135934762D01*
X237661905Y-135887143D01*
X236614286Y-135982381D02*
X236423810Y-135982381D01*
X236328571Y-135934762D01*
X236280952Y-135887143D01*
X236185714Y-135744286D01*
X236138095Y-135553810D01*
X236138095Y-135172857D01*
X236185714Y-135077619D01*
X236233333Y-135030000D01*
X236328571Y-134982381D01*
X236519048Y-134982381D01*
X236614286Y-135030000D01*
X236661905Y-135077619D01*
X236709524Y-135172857D01*
X236709524Y-135410952D01*
X236661905Y-135506190D01*
X236614286Y-135553810D01*
X236519048Y-135601429D01*
X236328571Y-135601429D01*
X236233333Y-135553810D01*
X236185714Y-135506190D01*
X236138095Y-135410952D01*
X239792857Y-131957143D02*
X239840476Y-132004762D01*
X239983333Y-132052381D01*
X240078571Y-132052381D01*
X240221429Y-132004762D01*
X240316667Y-131909524D01*
X240364286Y-131814286D01*
X240411905Y-131623810D01*
X240411905Y-131480952D01*
X240364286Y-131290476D01*
X240316667Y-131195238D01*
X240221429Y-131100000D01*
X240078571Y-131052381D01*
X239983333Y-131052381D01*
X239840476Y-131100000D01*
X239792857Y-131147619D01*
X238888095Y-131052381D02*
X239364286Y-131052381D01*
X239411905Y-131528571D01*
X239364286Y-131480952D01*
X239269048Y-131433333D01*
X239030952Y-131433333D01*
X238935714Y-131480952D01*
X238888095Y-131528571D01*
X238840476Y-131623810D01*
X238840476Y-131861905D01*
X238888095Y-131957143D01*
X238935714Y-132004762D01*
X239030952Y-132052381D01*
X239269048Y-132052381D01*
X239364286Y-132004762D01*
X239411905Y-131957143D01*
X238507143Y-131052381D02*
X237840476Y-131052381D01*
X238269048Y-132052381D01*
X224857143Y-136957143D02*
X224904762Y-136909524D01*
X224952381Y-136766667D01*
X224952381Y-136671429D01*
X224904762Y-136528571D01*
X224809524Y-136433333D01*
X224714286Y-136385714D01*
X224523810Y-136338095D01*
X224380952Y-136338095D01*
X224190476Y-136385714D01*
X224095238Y-136433333D01*
X224000000Y-136528571D01*
X223952381Y-136671429D01*
X223952381Y-136766667D01*
X224000000Y-136909524D01*
X224047619Y-136957143D01*
X223952381Y-137861905D02*
X223952381Y-137385714D01*
X224428571Y-137338095D01*
X224380952Y-137385714D01*
X224333333Y-137480952D01*
X224333333Y-137719048D01*
X224380952Y-137814286D01*
X224428571Y-137861905D01*
X224523810Y-137909524D01*
X224761905Y-137909524D01*
X224857143Y-137861905D01*
X224904762Y-137814286D01*
X224952381Y-137719048D01*
X224952381Y-137480952D01*
X224904762Y-137385714D01*
X224857143Y-137338095D01*
X223952381Y-138766667D02*
X223952381Y-138576190D01*
X224000000Y-138480952D01*
X224047619Y-138433333D01*
X224190476Y-138338095D01*
X224380952Y-138290476D01*
X224761905Y-138290476D01*
X224857143Y-138338095D01*
X224904762Y-138385714D01*
X224952381Y-138480952D01*
X224952381Y-138671429D01*
X224904762Y-138766667D01*
X224857143Y-138814286D01*
X224761905Y-138861905D01*
X224523810Y-138861905D01*
X224428571Y-138814286D01*
X224380952Y-138766667D01*
X224333333Y-138671429D01*
X224333333Y-138480952D01*
X224380952Y-138385714D01*
X224428571Y-138338095D01*
X224523810Y-138290476D01*
X226142857Y-145607143D02*
X226190476Y-145654762D01*
X226333333Y-145702381D01*
X226428571Y-145702381D01*
X226571429Y-145654762D01*
X226666667Y-145559524D01*
X226714286Y-145464286D01*
X226761905Y-145273810D01*
X226761905Y-145130952D01*
X226714286Y-144940476D01*
X226666667Y-144845238D01*
X226571429Y-144750000D01*
X226428571Y-144702381D01*
X226333333Y-144702381D01*
X226190476Y-144750000D01*
X226142857Y-144797619D01*
X225238095Y-144702381D02*
X225714286Y-144702381D01*
X225761905Y-145178571D01*
X225714286Y-145130952D01*
X225619048Y-145083333D01*
X225380952Y-145083333D01*
X225285714Y-145130952D01*
X225238095Y-145178571D01*
X225190476Y-145273810D01*
X225190476Y-145511905D01*
X225238095Y-145607143D01*
X225285714Y-145654762D01*
X225380952Y-145702381D01*
X225619048Y-145702381D01*
X225714286Y-145654762D01*
X225761905Y-145607143D01*
X224285714Y-144702381D02*
X224761905Y-144702381D01*
X224809524Y-145178571D01*
X224761905Y-145130952D01*
X224666667Y-145083333D01*
X224428571Y-145083333D01*
X224333333Y-145130952D01*
X224285714Y-145178571D01*
X224238095Y-145273810D01*
X224238095Y-145511905D01*
X224285714Y-145607143D01*
X224333333Y-145654762D01*
X224428571Y-145702381D01*
X224666667Y-145702381D01*
X224761905Y-145654762D01*
X224809524Y-145607143D01*
X225657143Y-133707143D02*
X225704762Y-133659524D01*
X225752381Y-133516667D01*
X225752381Y-133421429D01*
X225704762Y-133278571D01*
X225609524Y-133183333D01*
X225514286Y-133135714D01*
X225323810Y-133088095D01*
X225180952Y-133088095D01*
X224990476Y-133135714D01*
X224895238Y-133183333D01*
X224800000Y-133278571D01*
X224752381Y-133421429D01*
X224752381Y-133516667D01*
X224800000Y-133659524D01*
X224847619Y-133707143D01*
X224752381Y-134611905D02*
X224752381Y-134135714D01*
X225228571Y-134088095D01*
X225180952Y-134135714D01*
X225133333Y-134230952D01*
X225133333Y-134469048D01*
X225180952Y-134564286D01*
X225228571Y-134611905D01*
X225323810Y-134659524D01*
X225561905Y-134659524D01*
X225657143Y-134611905D01*
X225704762Y-134564286D01*
X225752381Y-134469048D01*
X225752381Y-134230952D01*
X225704762Y-134135714D01*
X225657143Y-134088095D01*
X225085714Y-135516667D02*
X225752381Y-135516667D01*
X224704762Y-135278571D02*
X225419048Y-135040476D01*
X225419048Y-135659524D01*
X236227143Y-134157143D02*
X236274762Y-134109524D01*
X236322381Y-133966667D01*
X236322381Y-133871429D01*
X236274762Y-133728571D01*
X236179524Y-133633333D01*
X236084286Y-133585714D01*
X235893810Y-133538095D01*
X235750952Y-133538095D01*
X235560476Y-133585714D01*
X235465238Y-133633333D01*
X235370000Y-133728571D01*
X235322381Y-133871429D01*
X235322381Y-133966667D01*
X235370000Y-134109524D01*
X235417619Y-134157143D01*
X235322381Y-135061905D02*
X235322381Y-134585714D01*
X235798571Y-134538095D01*
X235750952Y-134585714D01*
X235703333Y-134680952D01*
X235703333Y-134919048D01*
X235750952Y-135014286D01*
X235798571Y-135061905D01*
X235893810Y-135109524D01*
X236131905Y-135109524D01*
X236227143Y-135061905D01*
X236274762Y-135014286D01*
X236322381Y-134919048D01*
X236322381Y-134680952D01*
X236274762Y-134585714D01*
X236227143Y-134538095D01*
X235322381Y-135442857D02*
X235322381Y-136061905D01*
X235703333Y-135728571D01*
X235703333Y-135871429D01*
X235750952Y-135966667D01*
X235798571Y-136014286D01*
X235893810Y-136061905D01*
X236131905Y-136061905D01*
X236227143Y-136014286D01*
X236274762Y-135966667D01*
X236322381Y-135871429D01*
X236322381Y-135585714D01*
X236274762Y-135490476D01*
X236227143Y-135442857D01*
X239692857Y-145277143D02*
X239740476Y-145324762D01*
X239883333Y-145372381D01*
X239978571Y-145372381D01*
X240121429Y-145324762D01*
X240216667Y-145229524D01*
X240264286Y-145134286D01*
X240311905Y-144943810D01*
X240311905Y-144800952D01*
X240264286Y-144610476D01*
X240216667Y-144515238D01*
X240121429Y-144420000D01*
X239978571Y-144372381D01*
X239883333Y-144372381D01*
X239740476Y-144420000D01*
X239692857Y-144467619D01*
X238788095Y-144372381D02*
X239264286Y-144372381D01*
X239311905Y-144848571D01*
X239264286Y-144800952D01*
X239169048Y-144753333D01*
X238930952Y-144753333D01*
X238835714Y-144800952D01*
X238788095Y-144848571D01*
X238740476Y-144943810D01*
X238740476Y-145181905D01*
X238788095Y-145277143D01*
X238835714Y-145324762D01*
X238930952Y-145372381D01*
X239169048Y-145372381D01*
X239264286Y-145324762D01*
X239311905Y-145277143D01*
X238359524Y-144467619D02*
X238311905Y-144420000D01*
X238216667Y-144372381D01*
X237978571Y-144372381D01*
X237883333Y-144420000D01*
X237835714Y-144467619D01*
X237788095Y-144562857D01*
X237788095Y-144658095D01*
X237835714Y-144800952D01*
X238407143Y-145372381D01*
X237788095Y-145372381D01*
X237242857Y-147127143D02*
X237290476Y-147174762D01*
X237433333Y-147222381D01*
X237528571Y-147222381D01*
X237671429Y-147174762D01*
X237766667Y-147079524D01*
X237814286Y-146984286D01*
X237861905Y-146793810D01*
X237861905Y-146650952D01*
X237814286Y-146460476D01*
X237766667Y-146365238D01*
X237671429Y-146270000D01*
X237528571Y-146222381D01*
X237433333Y-146222381D01*
X237290476Y-146270000D01*
X237242857Y-146317619D01*
X236338095Y-146222381D02*
X236814286Y-146222381D01*
X236861905Y-146698571D01*
X236814286Y-146650952D01*
X236719048Y-146603333D01*
X236480952Y-146603333D01*
X236385714Y-146650952D01*
X236338095Y-146698571D01*
X236290476Y-146793810D01*
X236290476Y-147031905D01*
X236338095Y-147127143D01*
X236385714Y-147174762D01*
X236480952Y-147222381D01*
X236719048Y-147222381D01*
X236814286Y-147174762D01*
X236861905Y-147127143D01*
X235338095Y-147222381D02*
X235909524Y-147222381D01*
X235623810Y-147222381D02*
X235623810Y-146222381D01*
X235719048Y-146365238D01*
X235814286Y-146460476D01*
X235909524Y-146508095D01*
X231457143Y-109132143D02*
X231504762Y-109084524D01*
X231552381Y-108941667D01*
X231552381Y-108846429D01*
X231504762Y-108703571D01*
X231409524Y-108608333D01*
X231314286Y-108560714D01*
X231123810Y-108513095D01*
X230980952Y-108513095D01*
X230790476Y-108560714D01*
X230695238Y-108608333D01*
X230600000Y-108703571D01*
X230552381Y-108846429D01*
X230552381Y-108941667D01*
X230600000Y-109084524D01*
X230647619Y-109132143D01*
X230552381Y-110036905D02*
X230552381Y-109560714D01*
X231028571Y-109513095D01*
X230980952Y-109560714D01*
X230933333Y-109655952D01*
X230933333Y-109894048D01*
X230980952Y-109989286D01*
X231028571Y-110036905D01*
X231123810Y-110084524D01*
X231361905Y-110084524D01*
X231457143Y-110036905D01*
X231504762Y-109989286D01*
X231552381Y-109894048D01*
X231552381Y-109655952D01*
X231504762Y-109560714D01*
X231457143Y-109513095D01*
X230552381Y-110703571D02*
X230552381Y-110798810D01*
X230600000Y-110894048D01*
X230647619Y-110941667D01*
X230742857Y-110989286D01*
X230933333Y-111036905D01*
X231171429Y-111036905D01*
X231361905Y-110989286D01*
X231457143Y-110941667D01*
X231504762Y-110894048D01*
X231552381Y-110798810D01*
X231552381Y-110703571D01*
X231504762Y-110608333D01*
X231457143Y-110560714D01*
X231361905Y-110513095D01*
X231171429Y-110465476D01*
X230933333Y-110465476D01*
X230742857Y-110513095D01*
X230647619Y-110560714D01*
X230600000Y-110608333D01*
X230552381Y-110703571D01*
X232142857Y-113327143D02*
X232190476Y-113374762D01*
X232333333Y-113422381D01*
X232428571Y-113422381D01*
X232571429Y-113374762D01*
X232666667Y-113279524D01*
X232714286Y-113184286D01*
X232761905Y-112993810D01*
X232761905Y-112850952D01*
X232714286Y-112660476D01*
X232666667Y-112565238D01*
X232571429Y-112470000D01*
X232428571Y-112422381D01*
X232333333Y-112422381D01*
X232190476Y-112470000D01*
X232142857Y-112517619D01*
X231285714Y-112755714D02*
X231285714Y-113422381D01*
X231523810Y-112374762D02*
X231761905Y-113089048D01*
X231142857Y-113089048D01*
X230714286Y-113422381D02*
X230523810Y-113422381D01*
X230428571Y-113374762D01*
X230380952Y-113327143D01*
X230285714Y-113184286D01*
X230238095Y-112993810D01*
X230238095Y-112612857D01*
X230285714Y-112517619D01*
X230333333Y-112470000D01*
X230428571Y-112422381D01*
X230619048Y-112422381D01*
X230714286Y-112470000D01*
X230761905Y-112517619D01*
X230809524Y-112612857D01*
X230809524Y-112850952D01*
X230761905Y-112946190D01*
X230714286Y-112993810D01*
X230619048Y-113041429D01*
X230428571Y-113041429D01*
X230333333Y-112993810D01*
X230285714Y-112946190D01*
X230238095Y-112850952D01*
X144833337Y-129597529D02*
X144880956Y-129549910D01*
X144928575Y-129407053D01*
X144928575Y-129311815D01*
X144880956Y-129168957D01*
X144785718Y-129073719D01*
X144690480Y-129026100D01*
X144500004Y-128978481D01*
X144357146Y-128978481D01*
X144166670Y-129026100D01*
X144071432Y-129073719D01*
X143976194Y-129168957D01*
X143928575Y-129311815D01*
X143928575Y-129407053D01*
X143976194Y-129549910D01*
X144023813Y-129597529D01*
X143928575Y-129930862D02*
X143928575Y-130549910D01*
X144309527Y-130216576D01*
X144309527Y-130359434D01*
X144357146Y-130454672D01*
X144404765Y-130502291D01*
X144500004Y-130549910D01*
X144738099Y-130549910D01*
X144833337Y-130502291D01*
X144880956Y-130454672D01*
X144928575Y-130359434D01*
X144928575Y-130073719D01*
X144880956Y-129978481D01*
X144833337Y-129930862D01*
X143928575Y-131454672D02*
X143928575Y-130978481D01*
X144404765Y-130930862D01*
X144357146Y-130978481D01*
X144309527Y-131073719D01*
X144309527Y-131311815D01*
X144357146Y-131407053D01*
X144404765Y-131454672D01*
X144500004Y-131502291D01*
X144738099Y-131502291D01*
X144833337Y-131454672D01*
X144880956Y-131407053D01*
X144928575Y-131311815D01*
X144928575Y-131073719D01*
X144880956Y-130978481D01*
X144833337Y-130930862D01*
X189757143Y-135957143D02*
X189804762Y-135909524D01*
X189852381Y-135766667D01*
X189852381Y-135671429D01*
X189804762Y-135528571D01*
X189709524Y-135433333D01*
X189614286Y-135385714D01*
X189423810Y-135338095D01*
X189280952Y-135338095D01*
X189090476Y-135385714D01*
X188995238Y-135433333D01*
X188900000Y-135528571D01*
X188852381Y-135671429D01*
X188852381Y-135766667D01*
X188900000Y-135909524D01*
X188947619Y-135957143D01*
X188947619Y-136338095D02*
X188900000Y-136385714D01*
X188852381Y-136480952D01*
X188852381Y-136719048D01*
X188900000Y-136814286D01*
X188947619Y-136861905D01*
X189042857Y-136909524D01*
X189138095Y-136909524D01*
X189280952Y-136861905D01*
X189852381Y-136290476D01*
X189852381Y-136909524D01*
X188852381Y-137814286D02*
X188852381Y-137338095D01*
X189328571Y-137290476D01*
X189280952Y-137338095D01*
X189233333Y-137433333D01*
X189233333Y-137671429D01*
X189280952Y-137766667D01*
X189328571Y-137814286D01*
X189423810Y-137861905D01*
X189661905Y-137861905D01*
X189757143Y-137814286D01*
X189804762Y-137766667D01*
X189852381Y-137671429D01*
X189852381Y-137433333D01*
X189804762Y-137338095D01*
X189757143Y-137290476D01*
X196607143Y-129957143D02*
X196654762Y-129909524D01*
X196702381Y-129766667D01*
X196702381Y-129671429D01*
X196654762Y-129528571D01*
X196559524Y-129433333D01*
X196464286Y-129385714D01*
X196273810Y-129338095D01*
X196130952Y-129338095D01*
X195940476Y-129385714D01*
X195845238Y-129433333D01*
X195750000Y-129528571D01*
X195702381Y-129671429D01*
X195702381Y-129766667D01*
X195750000Y-129909524D01*
X195797619Y-129957143D01*
X195797619Y-130338095D02*
X195750000Y-130385714D01*
X195702381Y-130480952D01*
X195702381Y-130719048D01*
X195750000Y-130814286D01*
X195797619Y-130861905D01*
X195892857Y-130909524D01*
X195988095Y-130909524D01*
X196130952Y-130861905D01*
X196702381Y-130290476D01*
X196702381Y-130909524D01*
X195702381Y-131242857D02*
X195702381Y-131861905D01*
X196083333Y-131528571D01*
X196083333Y-131671429D01*
X196130952Y-131766667D01*
X196178571Y-131814286D01*
X196273810Y-131861905D01*
X196511905Y-131861905D01*
X196607143Y-131814286D01*
X196654762Y-131766667D01*
X196702381Y-131671429D01*
X196702381Y-131385714D01*
X196654762Y-131290476D01*
X196607143Y-131242857D01*
X193442857Y-135007143D02*
X193490476Y-135054762D01*
X193633333Y-135102381D01*
X193728571Y-135102381D01*
X193871429Y-135054762D01*
X193966667Y-134959524D01*
X194014286Y-134864286D01*
X194061905Y-134673810D01*
X194061905Y-134530952D01*
X194014286Y-134340476D01*
X193966667Y-134245238D01*
X193871429Y-134150000D01*
X193728571Y-134102381D01*
X193633333Y-134102381D01*
X193490476Y-134150000D01*
X193442857Y-134197619D01*
X193061905Y-134197619D02*
X193014286Y-134150000D01*
X192919048Y-134102381D01*
X192680952Y-134102381D01*
X192585714Y-134150000D01*
X192538095Y-134197619D01*
X192490476Y-134292857D01*
X192490476Y-134388095D01*
X192538095Y-134530952D01*
X193109524Y-135102381D01*
X192490476Y-135102381D01*
X192109524Y-134197619D02*
X192061905Y-134150000D01*
X191966667Y-134102381D01*
X191728571Y-134102381D01*
X191633333Y-134150000D01*
X191585714Y-134197619D01*
X191538095Y-134292857D01*
X191538095Y-134388095D01*
X191585714Y-134530952D01*
X192157143Y-135102381D01*
X191538095Y-135102381D01*
X193442857Y-137007143D02*
X193490476Y-137054762D01*
X193633333Y-137102381D01*
X193728571Y-137102381D01*
X193871429Y-137054762D01*
X193966667Y-136959524D01*
X194014286Y-136864286D01*
X194061905Y-136673810D01*
X194061905Y-136530952D01*
X194014286Y-136340476D01*
X193966667Y-136245238D01*
X193871429Y-136150000D01*
X193728571Y-136102381D01*
X193633333Y-136102381D01*
X193490476Y-136150000D01*
X193442857Y-136197619D01*
X193061905Y-136197619D02*
X193014286Y-136150000D01*
X192919048Y-136102381D01*
X192680952Y-136102381D01*
X192585714Y-136150000D01*
X192538095Y-136197619D01*
X192490476Y-136292857D01*
X192490476Y-136388095D01*
X192538095Y-136530952D01*
X193109524Y-137102381D01*
X192490476Y-137102381D01*
X191538095Y-137102381D02*
X192109524Y-137102381D01*
X191823810Y-137102381D02*
X191823810Y-136102381D01*
X191919048Y-136245238D01*
X192014286Y-136340476D01*
X192109524Y-136388095D01*
X193442857Y-132857143D02*
X193490476Y-132904762D01*
X193633333Y-132952381D01*
X193728571Y-132952381D01*
X193871429Y-132904762D01*
X193966667Y-132809524D01*
X194014286Y-132714286D01*
X194061905Y-132523810D01*
X194061905Y-132380952D01*
X194014286Y-132190476D01*
X193966667Y-132095238D01*
X193871429Y-132000000D01*
X193728571Y-131952381D01*
X193633333Y-131952381D01*
X193490476Y-132000000D01*
X193442857Y-132047619D01*
X193061905Y-132047619D02*
X193014286Y-132000000D01*
X192919048Y-131952381D01*
X192680952Y-131952381D01*
X192585714Y-132000000D01*
X192538095Y-132047619D01*
X192490476Y-132142857D01*
X192490476Y-132238095D01*
X192538095Y-132380952D01*
X193109524Y-132952381D01*
X192490476Y-132952381D01*
X191871429Y-131952381D02*
X191776190Y-131952381D01*
X191680952Y-132000000D01*
X191633333Y-132047619D01*
X191585714Y-132142857D01*
X191538095Y-132333333D01*
X191538095Y-132571429D01*
X191585714Y-132761905D01*
X191633333Y-132857143D01*
X191680952Y-132904762D01*
X191776190Y-132952381D01*
X191871429Y-132952381D01*
X191966667Y-132904762D01*
X192014286Y-132857143D01*
X192061905Y-132761905D01*
X192109524Y-132571429D01*
X192109524Y-132333333D01*
X192061905Y-132142857D01*
X192014286Y-132047619D01*
X191966667Y-132000000D01*
X191871429Y-131952381D01*
X198607143Y-123957143D02*
X198654762Y-123909524D01*
X198702381Y-123766667D01*
X198702381Y-123671429D01*
X198654762Y-123528571D01*
X198559524Y-123433333D01*
X198464286Y-123385714D01*
X198273810Y-123338095D01*
X198130952Y-123338095D01*
X197940476Y-123385714D01*
X197845238Y-123433333D01*
X197750000Y-123528571D01*
X197702381Y-123671429D01*
X197702381Y-123766667D01*
X197750000Y-123909524D01*
X197797619Y-123957143D01*
X198702381Y-124909524D02*
X198702381Y-124338095D01*
X198702381Y-124623809D02*
X197702381Y-124623809D01*
X197845238Y-124528571D01*
X197940476Y-124433333D01*
X197988095Y-124338095D01*
X198130952Y-125480952D02*
X198083333Y-125385714D01*
X198035714Y-125338095D01*
X197940476Y-125290476D01*
X197892857Y-125290476D01*
X197797619Y-125338095D01*
X197750000Y-125385714D01*
X197702381Y-125480952D01*
X197702381Y-125671429D01*
X197750000Y-125766667D01*
X197797619Y-125814286D01*
X197892857Y-125861905D01*
X197940476Y-125861905D01*
X198035714Y-125814286D01*
X198083333Y-125766667D01*
X198130952Y-125671429D01*
X198130952Y-125480952D01*
X198178571Y-125385714D01*
X198226190Y-125338095D01*
X198321429Y-125290476D01*
X198511905Y-125290476D01*
X198607143Y-125338095D01*
X198654762Y-125385714D01*
X198702381Y-125480952D01*
X198702381Y-125671429D01*
X198654762Y-125766667D01*
X198607143Y-125814286D01*
X198511905Y-125861905D01*
X198321429Y-125861905D01*
X198226190Y-125814286D01*
X198178571Y-125766667D01*
X198130952Y-125671429D01*
X207392857Y-120557143D02*
X207440476Y-120604762D01*
X207583333Y-120652381D01*
X207678571Y-120652381D01*
X207821429Y-120604762D01*
X207916667Y-120509524D01*
X207964286Y-120414286D01*
X208011905Y-120223810D01*
X208011905Y-120080952D01*
X207964286Y-119890476D01*
X207916667Y-119795238D01*
X207821429Y-119700000D01*
X207678571Y-119652381D01*
X207583333Y-119652381D01*
X207440476Y-119700000D01*
X207392857Y-119747619D01*
X206440476Y-120652381D02*
X207011905Y-120652381D01*
X206726191Y-120652381D02*
X206726191Y-119652381D01*
X206821429Y-119795238D01*
X206916667Y-119890476D01*
X207011905Y-119938095D01*
X206107143Y-119652381D02*
X205440476Y-119652381D01*
X205869048Y-120652381D01*
X194607143Y-124957143D02*
X194654762Y-124909524D01*
X194702381Y-124766667D01*
X194702381Y-124671429D01*
X194654762Y-124528571D01*
X194559524Y-124433333D01*
X194464286Y-124385714D01*
X194273810Y-124338095D01*
X194130952Y-124338095D01*
X193940476Y-124385714D01*
X193845238Y-124433333D01*
X193750000Y-124528571D01*
X193702381Y-124671429D01*
X193702381Y-124766667D01*
X193750000Y-124909524D01*
X193797619Y-124957143D01*
X194702381Y-125909524D02*
X194702381Y-125338095D01*
X194702381Y-125623809D02*
X193702381Y-125623809D01*
X193845238Y-125528571D01*
X193940476Y-125433333D01*
X193988095Y-125338095D01*
X193702381Y-126766667D02*
X193702381Y-126576190D01*
X193750000Y-126480952D01*
X193797619Y-126433333D01*
X193940476Y-126338095D01*
X194130952Y-126290476D01*
X194511905Y-126290476D01*
X194607143Y-126338095D01*
X194654762Y-126385714D01*
X194702381Y-126480952D01*
X194702381Y-126671429D01*
X194654762Y-126766667D01*
X194607143Y-126814286D01*
X194511905Y-126861905D01*
X194273810Y-126861905D01*
X194178571Y-126814286D01*
X194130952Y-126766667D01*
X194083333Y-126671429D01*
X194083333Y-126480952D01*
X194130952Y-126385714D01*
X194178571Y-126338095D01*
X194273810Y-126290476D01*
X196706533Y-114007117D02*
X196754152Y-113959498D01*
X196801771Y-113816641D01*
X196801771Y-113721403D01*
X196754152Y-113578545D01*
X196658914Y-113483307D01*
X196563676Y-113435688D01*
X196373200Y-113388069D01*
X196230342Y-113388069D01*
X196039866Y-113435688D01*
X195944628Y-113483307D01*
X195849390Y-113578545D01*
X195801771Y-113721403D01*
X195801771Y-113816641D01*
X195849390Y-113959498D01*
X195897009Y-114007117D01*
X196801771Y-114959498D02*
X196801771Y-114388069D01*
X196801771Y-114673783D02*
X195801771Y-114673783D01*
X195944628Y-114578545D01*
X196039866Y-114483307D01*
X196087485Y-114388069D01*
X195801771Y-115864260D02*
X195801771Y-115388069D01*
X196277961Y-115340450D01*
X196230342Y-115388069D01*
X196182723Y-115483307D01*
X196182723Y-115721403D01*
X196230342Y-115816641D01*
X196277961Y-115864260D01*
X196373200Y-115911879D01*
X196611295Y-115911879D01*
X196706533Y-115864260D01*
X196754152Y-115816641D01*
X196801771Y-115721403D01*
X196801771Y-115483307D01*
X196754152Y-115388069D01*
X196706533Y-115340450D01*
X194892857Y-129957143D02*
X194940476Y-130004762D01*
X195083333Y-130052381D01*
X195178571Y-130052381D01*
X195321429Y-130004762D01*
X195416667Y-129909524D01*
X195464286Y-129814286D01*
X195511905Y-129623810D01*
X195511905Y-129480952D01*
X195464286Y-129290476D01*
X195416667Y-129195238D01*
X195321429Y-129100000D01*
X195178571Y-129052381D01*
X195083333Y-129052381D01*
X194940476Y-129100000D01*
X194892857Y-129147619D01*
X193940476Y-130052381D02*
X194511905Y-130052381D01*
X194226191Y-130052381D02*
X194226191Y-129052381D01*
X194321429Y-129195238D01*
X194416667Y-129290476D01*
X194511905Y-129338095D01*
X193083333Y-129385714D02*
X193083333Y-130052381D01*
X193321429Y-129004762D02*
X193559524Y-129719048D01*
X192940476Y-129719048D01*
X198607143Y-132957143D02*
X198654762Y-132909524D01*
X198702381Y-132766667D01*
X198702381Y-132671429D01*
X198654762Y-132528571D01*
X198559524Y-132433333D01*
X198464286Y-132385714D01*
X198273810Y-132338095D01*
X198130952Y-132338095D01*
X197940476Y-132385714D01*
X197845238Y-132433333D01*
X197750000Y-132528571D01*
X197702381Y-132671429D01*
X197702381Y-132766667D01*
X197750000Y-132909524D01*
X197797619Y-132957143D01*
X198702381Y-133909524D02*
X198702381Y-133338095D01*
X198702381Y-133623809D02*
X197702381Y-133623809D01*
X197845238Y-133528571D01*
X197940476Y-133433333D01*
X197988095Y-133338095D01*
X197702381Y-134242857D02*
X197702381Y-134861905D01*
X198083333Y-134528571D01*
X198083333Y-134671429D01*
X198130952Y-134766667D01*
X198178571Y-134814286D01*
X198273810Y-134861905D01*
X198511905Y-134861905D01*
X198607143Y-134814286D01*
X198654762Y-134766667D01*
X198702381Y-134671429D01*
X198702381Y-134385714D01*
X198654762Y-134290476D01*
X198607143Y-134242857D01*
X191892857Y-126957143D02*
X191940476Y-127004762D01*
X192083333Y-127052381D01*
X192178571Y-127052381D01*
X192321429Y-127004762D01*
X192416667Y-126909524D01*
X192464286Y-126814286D01*
X192511905Y-126623810D01*
X192511905Y-126480952D01*
X192464286Y-126290476D01*
X192416667Y-126195238D01*
X192321429Y-126100000D01*
X192178571Y-126052381D01*
X192083333Y-126052381D01*
X191940476Y-126100000D01*
X191892857Y-126147619D01*
X190940476Y-127052381D02*
X191511905Y-127052381D01*
X191226191Y-127052381D02*
X191226191Y-126052381D01*
X191321429Y-126195238D01*
X191416667Y-126290476D01*
X191511905Y-126338095D01*
X190559524Y-126147619D02*
X190511905Y-126100000D01*
X190416667Y-126052381D01*
X190178571Y-126052381D01*
X190083333Y-126100000D01*
X190035714Y-126147619D01*
X189988095Y-126242857D01*
X189988095Y-126338095D01*
X190035714Y-126480952D01*
X190607143Y-127052381D01*
X189988095Y-127052381D01*
X199607143Y-124957143D02*
X199654762Y-124909524D01*
X199702381Y-124766667D01*
X199702381Y-124671429D01*
X199654762Y-124528571D01*
X199559524Y-124433333D01*
X199464286Y-124385714D01*
X199273810Y-124338095D01*
X199130952Y-124338095D01*
X198940476Y-124385714D01*
X198845238Y-124433333D01*
X198750000Y-124528571D01*
X198702381Y-124671429D01*
X198702381Y-124766667D01*
X198750000Y-124909524D01*
X198797619Y-124957143D01*
X199702381Y-125909524D02*
X199702381Y-125338095D01*
X199702381Y-125623809D02*
X198702381Y-125623809D01*
X198845238Y-125528571D01*
X198940476Y-125433333D01*
X198988095Y-125338095D01*
X199702381Y-126861905D02*
X199702381Y-126290476D01*
X199702381Y-126576190D02*
X198702381Y-126576190D01*
X198845238Y-126480952D01*
X198940476Y-126385714D01*
X198988095Y-126290476D01*
X203892857Y-129957143D02*
X203940476Y-130004762D01*
X204083333Y-130052381D01*
X204178571Y-130052381D01*
X204321429Y-130004762D01*
X204416667Y-129909524D01*
X204464286Y-129814286D01*
X204511905Y-129623810D01*
X204511905Y-129480952D01*
X204464286Y-129290476D01*
X204416667Y-129195238D01*
X204321429Y-129100000D01*
X204178571Y-129052381D01*
X204083333Y-129052381D01*
X203940476Y-129100000D01*
X203892857Y-129147619D01*
X202940476Y-130052381D02*
X203511905Y-130052381D01*
X203226191Y-130052381D02*
X203226191Y-129052381D01*
X203321429Y-129195238D01*
X203416667Y-129290476D01*
X203511905Y-129338095D01*
X202321429Y-129052381D02*
X202226190Y-129052381D01*
X202130952Y-129100000D01*
X202083333Y-129147619D01*
X202035714Y-129242857D01*
X201988095Y-129433333D01*
X201988095Y-129671429D01*
X202035714Y-129861905D01*
X202083333Y-129957143D01*
X202130952Y-130004762D01*
X202226190Y-130052381D01*
X202321429Y-130052381D01*
X202416667Y-130004762D01*
X202464286Y-129957143D01*
X202511905Y-129861905D01*
X202559524Y-129671429D01*
X202559524Y-129433333D01*
X202511905Y-129242857D01*
X202464286Y-129147619D01*
X202416667Y-129100000D01*
X202321429Y-129052381D01*
X199607143Y-122433334D02*
X199654762Y-122385715D01*
X199702381Y-122242858D01*
X199702381Y-122147620D01*
X199654762Y-122004762D01*
X199559524Y-121909524D01*
X199464286Y-121861905D01*
X199273810Y-121814286D01*
X199130952Y-121814286D01*
X198940476Y-121861905D01*
X198845238Y-121909524D01*
X198750000Y-122004762D01*
X198702381Y-122147620D01*
X198702381Y-122242858D01*
X198750000Y-122385715D01*
X198797619Y-122433334D01*
X199702381Y-122909524D02*
X199702381Y-123100000D01*
X199654762Y-123195239D01*
X199607143Y-123242858D01*
X199464286Y-123338096D01*
X199273810Y-123385715D01*
X198892857Y-123385715D01*
X198797619Y-123338096D01*
X198750000Y-123290477D01*
X198702381Y-123195239D01*
X198702381Y-123004762D01*
X198750000Y-122909524D01*
X198797619Y-122861905D01*
X198892857Y-122814286D01*
X199130952Y-122814286D01*
X199226190Y-122861905D01*
X199273810Y-122909524D01*
X199321429Y-123004762D01*
X199321429Y-123195239D01*
X199273810Y-123290477D01*
X199226190Y-123338096D01*
X199130952Y-123385715D01*
X196466666Y-135957143D02*
X196514285Y-136004762D01*
X196657142Y-136052381D01*
X196752380Y-136052381D01*
X196895238Y-136004762D01*
X196990476Y-135909524D01*
X197038095Y-135814286D01*
X197085714Y-135623810D01*
X197085714Y-135480952D01*
X197038095Y-135290476D01*
X196990476Y-135195238D01*
X196895238Y-135100000D01*
X196752380Y-135052381D01*
X196657142Y-135052381D01*
X196514285Y-135100000D01*
X196466666Y-135147619D01*
X196133333Y-135052381D02*
X195466666Y-135052381D01*
X195895238Y-136052381D01*
X210457143Y-133783334D02*
X210504762Y-133735715D01*
X210552381Y-133592858D01*
X210552381Y-133497620D01*
X210504762Y-133354762D01*
X210409524Y-133259524D01*
X210314286Y-133211905D01*
X210123810Y-133164286D01*
X209980952Y-133164286D01*
X209790476Y-133211905D01*
X209695238Y-133259524D01*
X209600000Y-133354762D01*
X209552381Y-133497620D01*
X209552381Y-133592858D01*
X209600000Y-133735715D01*
X209647619Y-133783334D01*
X209552381Y-134640477D02*
X209552381Y-134450000D01*
X209600000Y-134354762D01*
X209647619Y-134307143D01*
X209790476Y-134211905D01*
X209980952Y-134164286D01*
X210361905Y-134164286D01*
X210457143Y-134211905D01*
X210504762Y-134259524D01*
X210552381Y-134354762D01*
X210552381Y-134545239D01*
X210504762Y-134640477D01*
X210457143Y-134688096D01*
X210361905Y-134735715D01*
X210123810Y-134735715D01*
X210028571Y-134688096D01*
X209980952Y-134640477D01*
X209933333Y-134545239D01*
X209933333Y-134354762D01*
X209980952Y-134259524D01*
X210028571Y-134211905D01*
X210123810Y-134164286D01*
X206416666Y-126960714D02*
X206464285Y-127008333D01*
X206607142Y-127055952D01*
X206702380Y-127055952D01*
X206845238Y-127008333D01*
X206940476Y-126913095D01*
X206988095Y-126817857D01*
X207035714Y-126627381D01*
X207035714Y-126484523D01*
X206988095Y-126294047D01*
X206940476Y-126198809D01*
X206845238Y-126103571D01*
X206702380Y-126055952D01*
X206607142Y-126055952D01*
X206464285Y-126103571D01*
X206416666Y-126151190D01*
X205511904Y-126055952D02*
X205988095Y-126055952D01*
X206035714Y-126532142D01*
X205988095Y-126484523D01*
X205892857Y-126436904D01*
X205654761Y-126436904D01*
X205559523Y-126484523D01*
X205511904Y-126532142D01*
X205464285Y-126627381D01*
X205464285Y-126865476D01*
X205511904Y-126960714D01*
X205559523Y-127008333D01*
X205654761Y-127055952D01*
X205892857Y-127055952D01*
X205988095Y-127008333D01*
X206035714Y-126960714D01*
X206916666Y-118357143D02*
X206964285Y-118404762D01*
X207107142Y-118452381D01*
X207202380Y-118452381D01*
X207345238Y-118404762D01*
X207440476Y-118309524D01*
X207488095Y-118214286D01*
X207535714Y-118023810D01*
X207535714Y-117880952D01*
X207488095Y-117690476D01*
X207440476Y-117595238D01*
X207345238Y-117500000D01*
X207202380Y-117452381D01*
X207107142Y-117452381D01*
X206964285Y-117500000D01*
X206916666Y-117547619D01*
X206059523Y-117785714D02*
X206059523Y-118452381D01*
X206297619Y-117404762D02*
X206535714Y-118119048D01*
X205916666Y-118119048D01*
X199215476Y-140408235D02*
X199263095Y-140455854D01*
X199405952Y-140503473D01*
X199501190Y-140503473D01*
X199644048Y-140455854D01*
X199739286Y-140360616D01*
X199786905Y-140265378D01*
X199834524Y-140074902D01*
X199834524Y-139932044D01*
X199786905Y-139741568D01*
X199739286Y-139646330D01*
X199644048Y-139551092D01*
X199501190Y-139503473D01*
X199405952Y-139503473D01*
X199263095Y-139551092D01*
X199215476Y-139598711D01*
X198882143Y-139503473D02*
X198263095Y-139503473D01*
X198596429Y-139884425D01*
X198453571Y-139884425D01*
X198358333Y-139932044D01*
X198310714Y-139979663D01*
X198263095Y-140074902D01*
X198263095Y-140312997D01*
X198310714Y-140408235D01*
X198358333Y-140455854D01*
X198453571Y-140503473D01*
X198739286Y-140503473D01*
X198834524Y-140455854D01*
X198882143Y-140408235D01*
X199366666Y-134957143D02*
X199414285Y-135004762D01*
X199557142Y-135052381D01*
X199652380Y-135052381D01*
X199795238Y-135004762D01*
X199890476Y-134909524D01*
X199938095Y-134814286D01*
X199985714Y-134623810D01*
X199985714Y-134480952D01*
X199938095Y-134290476D01*
X199890476Y-134195238D01*
X199795238Y-134100000D01*
X199652380Y-134052381D01*
X199557142Y-134052381D01*
X199414285Y-134100000D01*
X199366666Y-134147619D01*
X198985714Y-134147619D02*
X198938095Y-134100000D01*
X198842857Y-134052381D01*
X198604761Y-134052381D01*
X198509523Y-134100000D01*
X198461904Y-134147619D01*
X198414285Y-134242857D01*
X198414285Y-134338095D01*
X198461904Y-134480952D01*
X199033333Y-135052381D01*
X198414285Y-135052381D01*
X186616666Y-143307143D02*
X186664285Y-143354762D01*
X186807142Y-143402381D01*
X186902380Y-143402381D01*
X187045238Y-143354762D01*
X187140476Y-143259524D01*
X187188095Y-143164286D01*
X187235714Y-142973810D01*
X187235714Y-142830952D01*
X187188095Y-142640476D01*
X187140476Y-142545238D01*
X187045238Y-142450000D01*
X186902380Y-142402381D01*
X186807142Y-142402381D01*
X186664285Y-142450000D01*
X186616666Y-142497619D01*
X185664285Y-143402381D02*
X186235714Y-143402381D01*
X185950000Y-143402381D02*
X185950000Y-142402381D01*
X186045238Y-142545238D01*
X186140476Y-142640476D01*
X186235714Y-142688095D01*
X229218526Y-145607143D02*
X229266145Y-145654762D01*
X229409002Y-145702381D01*
X229504240Y-145702381D01*
X229647098Y-145654762D01*
X229742336Y-145559524D01*
X229789955Y-145464286D01*
X229837574Y-145273810D01*
X229837574Y-145130952D01*
X229789955Y-144940476D01*
X229742336Y-144845238D01*
X229647098Y-144750000D01*
X229504240Y-144702381D01*
X229409002Y-144702381D01*
X229266145Y-144750000D01*
X229218526Y-144797619D01*
X228361383Y-144702381D02*
X228551860Y-144702381D01*
X228647098Y-144750000D01*
X228694717Y-144797619D01*
X228789955Y-144940476D01*
X228837574Y-145130952D01*
X228837574Y-145511905D01*
X228789955Y-145607143D01*
X228742336Y-145654762D01*
X228647098Y-145702381D01*
X228456621Y-145702381D01*
X228361383Y-145654762D01*
X228313764Y-145607143D01*
X228266145Y-145511905D01*
X228266145Y-145273810D01*
X228313764Y-145178571D01*
X228361383Y-145130952D01*
X228456621Y-145083333D01*
X228647098Y-145083333D01*
X228742336Y-145130952D01*
X228789955Y-145178571D01*
X228837574Y-145273810D01*
X227647098Y-144702381D02*
X227551859Y-144702381D01*
X227456621Y-144750000D01*
X227409002Y-144797619D01*
X227361383Y-144892857D01*
X227313764Y-145083333D01*
X227313764Y-145321429D01*
X227361383Y-145511905D01*
X227409002Y-145607143D01*
X227456621Y-145654762D01*
X227551859Y-145702381D01*
X227647098Y-145702381D01*
X227742336Y-145654762D01*
X227789955Y-145607143D01*
X227837574Y-145511905D01*
X227885193Y-145321429D01*
X227885193Y-145083333D01*
X227837574Y-144892857D01*
X227789955Y-144797619D01*
X227742336Y-144750000D01*
X227647098Y-144702381D01*
X226857143Y-137007143D02*
X226904762Y-136959524D01*
X226952381Y-136816667D01*
X226952381Y-136721429D01*
X226904762Y-136578571D01*
X226809524Y-136483333D01*
X226714286Y-136435714D01*
X226523810Y-136388095D01*
X226380952Y-136388095D01*
X226190476Y-136435714D01*
X226095238Y-136483333D01*
X226000000Y-136578571D01*
X225952381Y-136721429D01*
X225952381Y-136816667D01*
X226000000Y-136959524D01*
X226047619Y-137007143D01*
X225952381Y-137911905D02*
X225952381Y-137435714D01*
X226428571Y-137388095D01*
X226380952Y-137435714D01*
X226333333Y-137530952D01*
X226333333Y-137769048D01*
X226380952Y-137864286D01*
X226428571Y-137911905D01*
X226523810Y-137959524D01*
X226761905Y-137959524D01*
X226857143Y-137911905D01*
X226904762Y-137864286D01*
X226952381Y-137769048D01*
X226952381Y-137530952D01*
X226904762Y-137435714D01*
X226857143Y-137388095D01*
X226380952Y-138530952D02*
X226333333Y-138435714D01*
X226285714Y-138388095D01*
X226190476Y-138340476D01*
X226142857Y-138340476D01*
X226047619Y-138388095D01*
X226000000Y-138435714D01*
X225952381Y-138530952D01*
X225952381Y-138721429D01*
X226000000Y-138816667D01*
X226047619Y-138864286D01*
X226142857Y-138911905D01*
X226190476Y-138911905D01*
X226285714Y-138864286D01*
X226333333Y-138816667D01*
X226380952Y-138721429D01*
X226380952Y-138530952D01*
X226428571Y-138435714D01*
X226476190Y-138388095D01*
X226571429Y-138340476D01*
X226761905Y-138340476D01*
X226857143Y-138388095D01*
X226904762Y-138435714D01*
X226952381Y-138530952D01*
X226952381Y-138721429D01*
X226904762Y-138816667D01*
X226857143Y-138864286D01*
X226761905Y-138911905D01*
X226571429Y-138911905D01*
X226476190Y-138864286D01*
X226428571Y-138816667D01*
X226380952Y-138721429D01*
X191842857Y-138657143D02*
X191890476Y-138704762D01*
X192033333Y-138752381D01*
X192128571Y-138752381D01*
X192271429Y-138704762D01*
X192366667Y-138609524D01*
X192414286Y-138514286D01*
X192461905Y-138323810D01*
X192461905Y-138180952D01*
X192414286Y-137990476D01*
X192366667Y-137895238D01*
X192271429Y-137800000D01*
X192128571Y-137752381D01*
X192033333Y-137752381D01*
X191890476Y-137800000D01*
X191842857Y-137847619D01*
X190890476Y-138752381D02*
X191461905Y-138752381D01*
X191176191Y-138752381D02*
X191176191Y-137752381D01*
X191271429Y-137895238D01*
X191366667Y-137990476D01*
X191461905Y-138038095D01*
X190414286Y-138752381D02*
X190223810Y-138752381D01*
X190128571Y-138704762D01*
X190080952Y-138657143D01*
X189985714Y-138514286D01*
X189938095Y-138323810D01*
X189938095Y-137942857D01*
X189985714Y-137847619D01*
X190033333Y-137800000D01*
X190128571Y-137752381D01*
X190319048Y-137752381D01*
X190414286Y-137800000D01*
X190461905Y-137847619D01*
X190509524Y-137942857D01*
X190509524Y-138180952D01*
X190461905Y-138276190D01*
X190414286Y-138323810D01*
X190319048Y-138371429D01*
X190128571Y-138371429D01*
X190033333Y-138323810D01*
X189985714Y-138276190D01*
X189938095Y-138180952D01*
X162171541Y-95804762D02*
X162028684Y-95852381D01*
X161790588Y-95852381D01*
X161695350Y-95804762D01*
X161647731Y-95757143D01*
X161600112Y-95661905D01*
X161600112Y-95566667D01*
X161647731Y-95471429D01*
X161695350Y-95423810D01*
X161790588Y-95376190D01*
X161981065Y-95328571D01*
X162076303Y-95280952D01*
X162123922Y-95233333D01*
X162171541Y-95138095D01*
X162171541Y-95042857D01*
X162123922Y-94947619D01*
X162076303Y-94900000D01*
X161981065Y-94852381D01*
X161742969Y-94852381D01*
X161600112Y-94900000D01*
X161266779Y-94852381D02*
X161028684Y-95852381D01*
X160838207Y-95138095D01*
X160647731Y-95852381D01*
X160409636Y-94852381D01*
X159504874Y-95852381D02*
X160076303Y-95852381D01*
X159790589Y-95852381D02*
X159790589Y-94852381D01*
X159885827Y-94995238D01*
X159981065Y-95090476D01*
X160076303Y-95138095D01*
X238587143Y-137107143D02*
X238634762Y-137059524D01*
X238682381Y-136916667D01*
X238682381Y-136821429D01*
X238634762Y-136678571D01*
X238539524Y-136583333D01*
X238444286Y-136535714D01*
X238253810Y-136488095D01*
X238110952Y-136488095D01*
X237920476Y-136535714D01*
X237825238Y-136583333D01*
X237730000Y-136678571D01*
X237682381Y-136821429D01*
X237682381Y-136916667D01*
X237730000Y-137059524D01*
X237777619Y-137107143D01*
X238110952Y-137678571D02*
X238063333Y-137583333D01*
X238015714Y-137535714D01*
X237920476Y-137488095D01*
X237872857Y-137488095D01*
X237777619Y-137535714D01*
X237730000Y-137583333D01*
X237682381Y-137678571D01*
X237682381Y-137869048D01*
X237730000Y-137964286D01*
X237777619Y-138011905D01*
X237872857Y-138059524D01*
X237920476Y-138059524D01*
X238015714Y-138011905D01*
X238063333Y-137964286D01*
X238110952Y-137869048D01*
X238110952Y-137678571D01*
X238158571Y-137583333D01*
X238206190Y-137535714D01*
X238301429Y-137488095D01*
X238491905Y-137488095D01*
X238587143Y-137535714D01*
X238634762Y-137583333D01*
X238682381Y-137678571D01*
X238682381Y-137869048D01*
X238634762Y-137964286D01*
X238587143Y-138011905D01*
X238491905Y-138059524D01*
X238301429Y-138059524D01*
X238206190Y-138011905D01*
X238158571Y-137964286D01*
X238110952Y-137869048D01*
X237682381Y-138392857D02*
X237682381Y-139059524D01*
X238682381Y-138630952D01*
X251588095Y-119352381D02*
X251588095Y-120161905D01*
X251540476Y-120257143D01*
X251492857Y-120304762D01*
X251397619Y-120352381D01*
X251207142Y-120352381D01*
X251111904Y-120304762D01*
X251064285Y-120257143D01*
X251016666Y-120161905D01*
X251016666Y-119352381D01*
X250016666Y-120352381D02*
X250588095Y-120352381D01*
X250302381Y-120352381D02*
X250302381Y-119352381D01*
X250397619Y-119495238D01*
X250492857Y-119590476D01*
X250588095Y-119638095D01*
X249111904Y-119352381D02*
X249588095Y-119352381D01*
X249635714Y-119828571D01*
X249588095Y-119780952D01*
X249492857Y-119733333D01*
X249254761Y-119733333D01*
X249159523Y-119780952D01*
X249111904Y-119828571D01*
X249064285Y-119923810D01*
X249064285Y-120161905D01*
X249111904Y-120257143D01*
X249159523Y-120304762D01*
X249254761Y-120352381D01*
X249492857Y-120352381D01*
X249588095Y-120304762D01*
X249635714Y-120257143D01*
X146582143Y-129263805D02*
X146629762Y-129216186D01*
X146677381Y-129073329D01*
X146677381Y-128978091D01*
X146629762Y-128835233D01*
X146534524Y-128739995D01*
X146439286Y-128692376D01*
X146248810Y-128644757D01*
X146105952Y-128644757D01*
X145915476Y-128692376D01*
X145820238Y-128739995D01*
X145725000Y-128835233D01*
X145677381Y-128978091D01*
X145677381Y-129073329D01*
X145725000Y-129216186D01*
X145772619Y-129263805D01*
X145677381Y-129597138D02*
X145677381Y-130216186D01*
X146058333Y-129882852D01*
X146058333Y-130025710D01*
X146105952Y-130120948D01*
X146153571Y-130168567D01*
X146248810Y-130216186D01*
X146486905Y-130216186D01*
X146582143Y-130168567D01*
X146629762Y-130120948D01*
X146677381Y-130025710D01*
X146677381Y-129739995D01*
X146629762Y-129644757D01*
X146582143Y-129597138D01*
X146010714Y-131073329D02*
X146677381Y-131073329D01*
X145629762Y-130835233D02*
X146344048Y-130597138D01*
X146344048Y-131216186D01*
X145982143Y-130682143D02*
X146029762Y-130634524D01*
X146077381Y-130491667D01*
X146077381Y-130396429D01*
X146029762Y-130253571D01*
X145934524Y-130158333D01*
X145839286Y-130110714D01*
X145648810Y-130063095D01*
X145505952Y-130063095D01*
X145315476Y-130110714D01*
X145220238Y-130158333D01*
X145125000Y-130253571D01*
X145077381Y-130396429D01*
X145077381Y-130491667D01*
X145125000Y-130634524D01*
X145172619Y-130682143D01*
X145077381Y-131015476D02*
X145077381Y-131634524D01*
X145458333Y-131301190D01*
X145458333Y-131444048D01*
X145505952Y-131539286D01*
X145553571Y-131586905D01*
X145648810Y-131634524D01*
X145886905Y-131634524D01*
X145982143Y-131586905D01*
X146029762Y-131539286D01*
X146077381Y-131444048D01*
X146077381Y-131158333D01*
X146029762Y-131063095D01*
X145982143Y-131015476D01*
X145077381Y-132491667D02*
X145077381Y-132301190D01*
X145125000Y-132205952D01*
X145172619Y-132158333D01*
X145315476Y-132063095D01*
X145505952Y-132015476D01*
X145886905Y-132015476D01*
X145982143Y-132063095D01*
X146029762Y-132110714D01*
X146077381Y-132205952D01*
X146077381Y-132396429D01*
X146029762Y-132491667D01*
X145982143Y-132539286D01*
X145886905Y-132586905D01*
X145648810Y-132586905D01*
X145553571Y-132539286D01*
X145505952Y-132491667D01*
X145458333Y-132396429D01*
X145458333Y-132205952D01*
X145505952Y-132110714D01*
X145553571Y-132063095D01*
X145648810Y-132015476D01*
X137607143Y-129180953D02*
X137654762Y-129133334D01*
X137702381Y-128990477D01*
X137702381Y-128895239D01*
X137654762Y-128752381D01*
X137559524Y-128657143D01*
X137464286Y-128609524D01*
X137273810Y-128561905D01*
X137130952Y-128561905D01*
X136940476Y-128609524D01*
X136845238Y-128657143D01*
X136750000Y-128752381D01*
X136702381Y-128895239D01*
X136702381Y-128990477D01*
X136750000Y-129133334D01*
X136797619Y-129180953D01*
X137702381Y-130133334D02*
X137702381Y-129561905D01*
X137702381Y-129847619D02*
X136702381Y-129847619D01*
X136845238Y-129752381D01*
X136940476Y-129657143D01*
X136988095Y-129561905D01*
X137702381Y-131085715D02*
X137702381Y-130514286D01*
X137702381Y-130800000D02*
X136702381Y-130800000D01*
X136845238Y-130704762D01*
X136940476Y-130609524D01*
X136988095Y-130514286D01*
X136702381Y-131419048D02*
X136702381Y-132085715D01*
X137702381Y-131657143D01*
X147045453Y-125034709D02*
X147093072Y-125082328D01*
X147235929Y-125129947D01*
X147331167Y-125129947D01*
X147474025Y-125082328D01*
X147569263Y-124987090D01*
X147616882Y-124891852D01*
X147664501Y-124701376D01*
X147664501Y-124558518D01*
X147616882Y-124368042D01*
X147569263Y-124272804D01*
X147474025Y-124177566D01*
X147331167Y-124129947D01*
X147235929Y-124129947D01*
X147093072Y-124177566D01*
X147045453Y-124225185D01*
X146093072Y-125129947D02*
X146664501Y-125129947D01*
X146378787Y-125129947D02*
X146378787Y-124129947D01*
X146474025Y-124272804D01*
X146569263Y-124368042D01*
X146664501Y-124415661D01*
X145235929Y-124463280D02*
X145235929Y-125129947D01*
X145474025Y-124082328D02*
X145712120Y-124796614D01*
X145093072Y-124796614D01*
X144807358Y-124129947D02*
X144188310Y-124129947D01*
X144521644Y-124510899D01*
X144378786Y-124510899D01*
X144283548Y-124558518D01*
X144235929Y-124606137D01*
X144188310Y-124701376D01*
X144188310Y-124939471D01*
X144235929Y-125034709D01*
X144283548Y-125082328D01*
X144378786Y-125129947D01*
X144664501Y-125129947D01*
X144759739Y-125082328D01*
X144807358Y-125034709D01*
X217216666Y-141452381D02*
X217550000Y-140976190D01*
X217788095Y-141452381D02*
X217788095Y-140452381D01*
X217407142Y-140452381D01*
X217311904Y-140500000D01*
X217264285Y-140547619D01*
X217216666Y-140642857D01*
X217216666Y-140785714D01*
X217264285Y-140880952D01*
X217311904Y-140928571D01*
X217407142Y-140976190D01*
X217788095Y-140976190D01*
X216359523Y-140452381D02*
X216550000Y-140452381D01*
X216645238Y-140500000D01*
X216692857Y-140547619D01*
X216788095Y-140690476D01*
X216835714Y-140880952D01*
X216835714Y-141261905D01*
X216788095Y-141357143D01*
X216740476Y-141404762D01*
X216645238Y-141452381D01*
X216454761Y-141452381D01*
X216359523Y-141404762D01*
X216311904Y-141357143D01*
X216264285Y-141261905D01*
X216264285Y-141023810D01*
X216311904Y-140928571D01*
X216359523Y-140880952D01*
X216454761Y-140833333D01*
X216645238Y-140833333D01*
X216740476Y-140880952D01*
X216788095Y-140928571D01*
X216835714Y-141023810D01*
X214561666Y-140452381D02*
X214895000Y-139976190D01*
X215133095Y-140452381D02*
X215133095Y-139452381D01*
X214752142Y-139452381D01*
X214656904Y-139500000D01*
X214609285Y-139547619D01*
X214561666Y-139642857D01*
X214561666Y-139785714D01*
X214609285Y-139880952D01*
X214656904Y-139928571D01*
X214752142Y-139976190D01*
X215133095Y-139976190D01*
X214228333Y-139452381D02*
X213561666Y-139452381D01*
X213990238Y-140452381D01*
X214516666Y-137402381D02*
X214850000Y-136926190D01*
X215088095Y-137402381D02*
X215088095Y-136402381D01*
X214707142Y-136402381D01*
X214611904Y-136450000D01*
X214564285Y-136497619D01*
X214516666Y-136592857D01*
X214516666Y-136735714D01*
X214564285Y-136830952D01*
X214611904Y-136878571D01*
X214707142Y-136926190D01*
X215088095Y-136926190D01*
X213945238Y-136830952D02*
X214040476Y-136783333D01*
X214088095Y-136735714D01*
X214135714Y-136640476D01*
X214135714Y-136592857D01*
X214088095Y-136497619D01*
X214040476Y-136450000D01*
X213945238Y-136402381D01*
X213754761Y-136402381D01*
X213659523Y-136450000D01*
X213611904Y-136497619D01*
X213564285Y-136592857D01*
X213564285Y-136640476D01*
X213611904Y-136735714D01*
X213659523Y-136783333D01*
X213754761Y-136830952D01*
X213945238Y-136830952D01*
X214040476Y-136878571D01*
X214088095Y-136926190D01*
X214135714Y-137021429D01*
X214135714Y-137211905D01*
X214088095Y-137307143D01*
X214040476Y-137354762D01*
X213945238Y-137402381D01*
X213754761Y-137402381D01*
X213659523Y-137354762D01*
X213611904Y-137307143D01*
X213564285Y-137211905D01*
X213564285Y-137021429D01*
X213611904Y-136926190D01*
X213659523Y-136878571D01*
X213754761Y-136830952D01*
X214992857Y-134602381D02*
X215326191Y-134126190D01*
X215564286Y-134602381D02*
X215564286Y-133602381D01*
X215183333Y-133602381D01*
X215088095Y-133650000D01*
X215040476Y-133697619D01*
X214992857Y-133792857D01*
X214992857Y-133935714D01*
X215040476Y-134030952D01*
X215088095Y-134078571D01*
X215183333Y-134126190D01*
X215564286Y-134126190D01*
X214040476Y-134602381D02*
X214611905Y-134602381D01*
X214326191Y-134602381D02*
X214326191Y-133602381D01*
X214421429Y-133745238D01*
X214516667Y-133840476D01*
X214611905Y-133888095D01*
X213183333Y-133602381D02*
X213373810Y-133602381D01*
X213469048Y-133650000D01*
X213516667Y-133697619D01*
X213611905Y-133840476D01*
X213659524Y-134030952D01*
X213659524Y-134411905D01*
X213611905Y-134507143D01*
X213564286Y-134554762D01*
X213469048Y-134602381D01*
X213278571Y-134602381D01*
X213183333Y-134554762D01*
X213135714Y-134507143D01*
X213088095Y-134411905D01*
X213088095Y-134173810D01*
X213135714Y-134078571D01*
X213183333Y-134030952D01*
X213278571Y-133983333D01*
X213469048Y-133983333D01*
X213564286Y-134030952D01*
X213611905Y-134078571D01*
X213659524Y-134173810D01*
X212342857Y-142252381D02*
X212676191Y-141776190D01*
X212914286Y-142252381D02*
X212914286Y-141252381D01*
X212533333Y-141252381D01*
X212438095Y-141300000D01*
X212390476Y-141347619D01*
X212342857Y-141442857D01*
X212342857Y-141585714D01*
X212390476Y-141680952D01*
X212438095Y-141728571D01*
X212533333Y-141776190D01*
X212914286Y-141776190D01*
X211390476Y-142252381D02*
X211961905Y-142252381D01*
X211676191Y-142252381D02*
X211676191Y-141252381D01*
X211771429Y-141395238D01*
X211866667Y-141490476D01*
X211961905Y-141538095D01*
X210914286Y-142252381D02*
X210723810Y-142252381D01*
X210628571Y-142204762D01*
X210580952Y-142157143D01*
X210485714Y-142014286D01*
X210438095Y-141823810D01*
X210438095Y-141442857D01*
X210485714Y-141347619D01*
X210533333Y-141300000D01*
X210628571Y-141252381D01*
X210819048Y-141252381D01*
X210914286Y-141300000D01*
X210961905Y-141347619D01*
X211009524Y-141442857D01*
X211009524Y-141680952D01*
X210961905Y-141776190D01*
X210914286Y-141823810D01*
X210819048Y-141871429D01*
X210628571Y-141871429D01*
X210533333Y-141823810D01*
X210485714Y-141776190D01*
X210438095Y-141680952D01*
X212347857Y-136402381D02*
X212681191Y-135926190D01*
X212919286Y-136402381D02*
X212919286Y-135402381D01*
X212538333Y-135402381D01*
X212443095Y-135450000D01*
X212395476Y-135497619D01*
X212347857Y-135592857D01*
X212347857Y-135735714D01*
X212395476Y-135830952D01*
X212443095Y-135878571D01*
X212538333Y-135926190D01*
X212919286Y-135926190D01*
X211966905Y-135497619D02*
X211919286Y-135450000D01*
X211824048Y-135402381D01*
X211585952Y-135402381D01*
X211490714Y-135450000D01*
X211443095Y-135497619D01*
X211395476Y-135592857D01*
X211395476Y-135688095D01*
X211443095Y-135830952D01*
X212014524Y-136402381D01*
X211395476Y-136402381D01*
X210443095Y-136402381D02*
X211014524Y-136402381D01*
X210728810Y-136402381D02*
X210728810Y-135402381D01*
X210824048Y-135545238D01*
X210919286Y-135640476D01*
X211014524Y-135688095D01*
X217642857Y-132802381D02*
X217976191Y-132326190D01*
X218214286Y-132802381D02*
X218214286Y-131802381D01*
X217833333Y-131802381D01*
X217738095Y-131850000D01*
X217690476Y-131897619D01*
X217642857Y-131992857D01*
X217642857Y-132135714D01*
X217690476Y-132230952D01*
X217738095Y-132278571D01*
X217833333Y-132326190D01*
X218214286Y-132326190D01*
X217261905Y-131897619D02*
X217214286Y-131850000D01*
X217119048Y-131802381D01*
X216880952Y-131802381D01*
X216785714Y-131850000D01*
X216738095Y-131897619D01*
X216690476Y-131992857D01*
X216690476Y-132088095D01*
X216738095Y-132230952D01*
X217309524Y-132802381D01*
X216690476Y-132802381D01*
X216357143Y-131802381D02*
X215738095Y-131802381D01*
X216071429Y-132183333D01*
X215928571Y-132183333D01*
X215833333Y-132230952D01*
X215785714Y-132278571D01*
X215738095Y-132373810D01*
X215738095Y-132611905D01*
X215785714Y-132707143D01*
X215833333Y-132754762D01*
X215928571Y-132802381D01*
X216214286Y-132802381D01*
X216309524Y-132754762D01*
X216357143Y-132707143D01*
X217637857Y-135602381D02*
X217971191Y-135126190D01*
X218209286Y-135602381D02*
X218209286Y-134602381D01*
X217828333Y-134602381D01*
X217733095Y-134650000D01*
X217685476Y-134697619D01*
X217637857Y-134792857D01*
X217637857Y-134935714D01*
X217685476Y-135030952D01*
X217733095Y-135078571D01*
X217828333Y-135126190D01*
X218209286Y-135126190D01*
X217256905Y-134697619D02*
X217209286Y-134650000D01*
X217114048Y-134602381D01*
X216875952Y-134602381D01*
X216780714Y-134650000D01*
X216733095Y-134697619D01*
X216685476Y-134792857D01*
X216685476Y-134888095D01*
X216733095Y-135030952D01*
X217304524Y-135602381D01*
X216685476Y-135602381D01*
X215828333Y-134935714D02*
X215828333Y-135602381D01*
X216066429Y-134554762D02*
X216304524Y-135269048D01*
X215685476Y-135269048D01*
X215037857Y-143252381D02*
X215371191Y-142776190D01*
X215609286Y-143252381D02*
X215609286Y-142252381D01*
X215228333Y-142252381D01*
X215133095Y-142300000D01*
X215085476Y-142347619D01*
X215037857Y-142442857D01*
X215037857Y-142585714D01*
X215085476Y-142680952D01*
X215133095Y-142728571D01*
X215228333Y-142776190D01*
X215609286Y-142776190D01*
X214656905Y-142347619D02*
X214609286Y-142300000D01*
X214514048Y-142252381D01*
X214275952Y-142252381D01*
X214180714Y-142300000D01*
X214133095Y-142347619D01*
X214085476Y-142442857D01*
X214085476Y-142538095D01*
X214133095Y-142680952D01*
X214704524Y-143252381D01*
X214085476Y-143252381D01*
X213180714Y-142252381D02*
X213656905Y-142252381D01*
X213704524Y-142728571D01*
X213656905Y-142680952D01*
X213561667Y-142633333D01*
X213323571Y-142633333D01*
X213228333Y-142680952D01*
X213180714Y-142728571D01*
X213133095Y-142823810D01*
X213133095Y-143061905D01*
X213180714Y-143157143D01*
X213228333Y-143204762D01*
X213323571Y-143252381D01*
X213561667Y-143252381D01*
X213656905Y-143204762D01*
X213704524Y-143157143D01*
X212337857Y-139402381D02*
X212671191Y-138926190D01*
X212909286Y-139402381D02*
X212909286Y-138402381D01*
X212528333Y-138402381D01*
X212433095Y-138450000D01*
X212385476Y-138497619D01*
X212337857Y-138592857D01*
X212337857Y-138735714D01*
X212385476Y-138830952D01*
X212433095Y-138878571D01*
X212528333Y-138926190D01*
X212909286Y-138926190D01*
X211956905Y-138497619D02*
X211909286Y-138450000D01*
X211814048Y-138402381D01*
X211575952Y-138402381D01*
X211480714Y-138450000D01*
X211433095Y-138497619D01*
X211385476Y-138592857D01*
X211385476Y-138688095D01*
X211433095Y-138830952D01*
X212004524Y-139402381D01*
X211385476Y-139402381D01*
X211052143Y-138402381D02*
X210385476Y-138402381D01*
X210814048Y-139402381D01*
X214987857Y-131802381D02*
X215321191Y-131326190D01*
X215559286Y-131802381D02*
X215559286Y-130802381D01*
X215178333Y-130802381D01*
X215083095Y-130850000D01*
X215035476Y-130897619D01*
X214987857Y-130992857D01*
X214987857Y-131135714D01*
X215035476Y-131230952D01*
X215083095Y-131278571D01*
X215178333Y-131326190D01*
X215559286Y-131326190D01*
X214606905Y-130897619D02*
X214559286Y-130850000D01*
X214464048Y-130802381D01*
X214225952Y-130802381D01*
X214130714Y-130850000D01*
X214083095Y-130897619D01*
X214035476Y-130992857D01*
X214035476Y-131088095D01*
X214083095Y-131230952D01*
X214654524Y-131802381D01*
X214035476Y-131802381D01*
X213559286Y-131802381D02*
X213368810Y-131802381D01*
X213273571Y-131754762D01*
X213225952Y-131707143D01*
X213130714Y-131564286D01*
X213083095Y-131373810D01*
X213083095Y-130992857D01*
X213130714Y-130897619D01*
X213178333Y-130850000D01*
X213273571Y-130802381D01*
X213464048Y-130802381D01*
X213559286Y-130850000D01*
X213606905Y-130897619D01*
X213654524Y-130992857D01*
X213654524Y-131230952D01*
X213606905Y-131326190D01*
X213559286Y-131373810D01*
X213464048Y-131421429D01*
X213273571Y-131421429D01*
X213178333Y-131373810D01*
X213130714Y-131326190D01*
X213083095Y-131230952D01*
X212337857Y-133602381D02*
X212671191Y-133126190D01*
X212909286Y-133602381D02*
X212909286Y-132602381D01*
X212528333Y-132602381D01*
X212433095Y-132650000D01*
X212385476Y-132697619D01*
X212337857Y-132792857D01*
X212337857Y-132935714D01*
X212385476Y-133030952D01*
X212433095Y-133078571D01*
X212528333Y-133126190D01*
X212909286Y-133126190D01*
X212004524Y-132602381D02*
X211385476Y-132602381D01*
X211718810Y-132983333D01*
X211575952Y-132983333D01*
X211480714Y-133030952D01*
X211433095Y-133078571D01*
X211385476Y-133173810D01*
X211385476Y-133411905D01*
X211433095Y-133507143D01*
X211480714Y-133554762D01*
X211575952Y-133602381D01*
X211861667Y-133602381D01*
X211956905Y-133554762D01*
X212004524Y-133507143D01*
X210766429Y-132602381D02*
X210671190Y-132602381D01*
X210575952Y-132650000D01*
X210528333Y-132697619D01*
X210480714Y-132792857D01*
X210433095Y-132983333D01*
X210433095Y-133221429D01*
X210480714Y-133411905D01*
X210528333Y-133507143D01*
X210575952Y-133554762D01*
X210671190Y-133602381D01*
X210766429Y-133602381D01*
X210861667Y-133554762D01*
X210909286Y-133507143D01*
X210956905Y-133411905D01*
X211004524Y-133221429D01*
X211004524Y-132983333D01*
X210956905Y-132792857D01*
X210909286Y-132697619D01*
X210861667Y-132650000D01*
X210766429Y-132602381D01*
X191892857Y-139657143D02*
X191940476Y-139704762D01*
X192083333Y-139752381D01*
X192178571Y-139752381D01*
X192321429Y-139704762D01*
X192416667Y-139609524D01*
X192464286Y-139514286D01*
X192511905Y-139323810D01*
X192511905Y-139180952D01*
X192464286Y-138990476D01*
X192416667Y-138895238D01*
X192321429Y-138800000D01*
X192178571Y-138752381D01*
X192083333Y-138752381D01*
X191940476Y-138800000D01*
X191892857Y-138847619D01*
X191511905Y-138847619D02*
X191464286Y-138800000D01*
X191369048Y-138752381D01*
X191130952Y-138752381D01*
X191035714Y-138800000D01*
X190988095Y-138847619D01*
X190940476Y-138942857D01*
X190940476Y-139038095D01*
X190988095Y-139180952D01*
X191559524Y-139752381D01*
X190940476Y-139752381D01*
X190083333Y-139085714D02*
X190083333Y-139752381D01*
X190321429Y-138704762D02*
X190559524Y-139419048D01*
X189940476Y-139419048D01*
X253721428Y-96912381D02*
X254054762Y-96436190D01*
X254292857Y-96912381D02*
X254292857Y-95912381D01*
X253911904Y-95912381D01*
X253816666Y-95960000D01*
X253769047Y-96007619D01*
X253721428Y-96102857D01*
X253721428Y-96245714D01*
X253769047Y-96340952D01*
X253816666Y-96388571D01*
X253911904Y-96436190D01*
X254292857Y-96436190D01*
X253102381Y-95912381D02*
X252911904Y-95912381D01*
X252816666Y-95960000D01*
X252721428Y-96055238D01*
X252673809Y-96245714D01*
X252673809Y-96579048D01*
X252721428Y-96769524D01*
X252816666Y-96864762D01*
X252911904Y-96912381D01*
X253102381Y-96912381D01*
X253197619Y-96864762D01*
X253292857Y-96769524D01*
X253340476Y-96579048D01*
X253340476Y-96245714D01*
X253292857Y-96055238D01*
X253197619Y-95960000D01*
X253102381Y-95912381D01*
X252388095Y-95912381D02*
X251816666Y-95912381D01*
X252102381Y-96912381D02*
X252102381Y-95912381D01*
X251292857Y-95912381D02*
X251197618Y-95912381D01*
X251102380Y-95960000D01*
X251054761Y-96007619D01*
X251007142Y-96102857D01*
X250959523Y-96293333D01*
X250959523Y-96531429D01*
X251007142Y-96721905D01*
X251054761Y-96817143D01*
X251102380Y-96864762D01*
X251197618Y-96912381D01*
X251292857Y-96912381D01*
X251388095Y-96864762D01*
X251435714Y-96817143D01*
X251483333Y-96721905D01*
X251530952Y-96531429D01*
X251530952Y-96293333D01*
X251483333Y-96102857D01*
X251435714Y-96007619D01*
X251388095Y-95960000D01*
X251292857Y-95912381D01*
X229221428Y-96912381D02*
X229554762Y-96436190D01*
X229792857Y-96912381D02*
X229792857Y-95912381D01*
X229411904Y-95912381D01*
X229316666Y-95960000D01*
X229269047Y-96007619D01*
X229221428Y-96102857D01*
X229221428Y-96245714D01*
X229269047Y-96340952D01*
X229316666Y-96388571D01*
X229411904Y-96436190D01*
X229792857Y-96436190D01*
X228602381Y-95912381D02*
X228411904Y-95912381D01*
X228316666Y-95960000D01*
X228221428Y-96055238D01*
X228173809Y-96245714D01*
X228173809Y-96579048D01*
X228221428Y-96769524D01*
X228316666Y-96864762D01*
X228411904Y-96912381D01*
X228602381Y-96912381D01*
X228697619Y-96864762D01*
X228792857Y-96769524D01*
X228840476Y-96579048D01*
X228840476Y-96245714D01*
X228792857Y-96055238D01*
X228697619Y-95960000D01*
X228602381Y-95912381D01*
X227888095Y-95912381D02*
X227316666Y-95912381D01*
X227602381Y-96912381D02*
X227602381Y-95912381D01*
X226459523Y-96912381D02*
X227030952Y-96912381D01*
X226745238Y-96912381D02*
X226745238Y-95912381D01*
X226840476Y-96055238D01*
X226935714Y-96150476D01*
X227030952Y-96198095D01*
X204721428Y-96912381D02*
X205054762Y-96436190D01*
X205292857Y-96912381D02*
X205292857Y-95912381D01*
X204911904Y-95912381D01*
X204816666Y-95960000D01*
X204769047Y-96007619D01*
X204721428Y-96102857D01*
X204721428Y-96245714D01*
X204769047Y-96340952D01*
X204816666Y-96388571D01*
X204911904Y-96436190D01*
X205292857Y-96436190D01*
X204102381Y-95912381D02*
X203911904Y-95912381D01*
X203816666Y-95960000D01*
X203721428Y-96055238D01*
X203673809Y-96245714D01*
X203673809Y-96579048D01*
X203721428Y-96769524D01*
X203816666Y-96864762D01*
X203911904Y-96912381D01*
X204102381Y-96912381D01*
X204197619Y-96864762D01*
X204292857Y-96769524D01*
X204340476Y-96579048D01*
X204340476Y-96245714D01*
X204292857Y-96055238D01*
X204197619Y-95960000D01*
X204102381Y-95912381D01*
X203388095Y-95912381D02*
X202816666Y-95912381D01*
X203102381Y-96912381D02*
X203102381Y-95912381D01*
X202530952Y-96007619D02*
X202483333Y-95960000D01*
X202388095Y-95912381D01*
X202149999Y-95912381D01*
X202054761Y-95960000D01*
X202007142Y-96007619D01*
X201959523Y-96102857D01*
X201959523Y-96198095D01*
X202007142Y-96340952D01*
X202578571Y-96912381D01*
X201959523Y-96912381D01*
X179921428Y-96912381D02*
X180254762Y-96436190D01*
X180492857Y-96912381D02*
X180492857Y-95912381D01*
X180111904Y-95912381D01*
X180016666Y-95960000D01*
X179969047Y-96007619D01*
X179921428Y-96102857D01*
X179921428Y-96245714D01*
X179969047Y-96340952D01*
X180016666Y-96388571D01*
X180111904Y-96436190D01*
X180492857Y-96436190D01*
X179302381Y-95912381D02*
X179111904Y-95912381D01*
X179016666Y-95960000D01*
X178921428Y-96055238D01*
X178873809Y-96245714D01*
X178873809Y-96579048D01*
X178921428Y-96769524D01*
X179016666Y-96864762D01*
X179111904Y-96912381D01*
X179302381Y-96912381D01*
X179397619Y-96864762D01*
X179492857Y-96769524D01*
X179540476Y-96579048D01*
X179540476Y-96245714D01*
X179492857Y-96055238D01*
X179397619Y-95960000D01*
X179302381Y-95912381D01*
X178588095Y-95912381D02*
X178016666Y-95912381D01*
X178302381Y-96912381D02*
X178302381Y-95912381D01*
X177254761Y-96245714D02*
X177254761Y-96912381D01*
X177492857Y-95864762D02*
X177730952Y-96579048D01*
X177111904Y-96579048D01*
M02*
