G04 #@! TF.FileFunction,Soldermask,Top*
%FSLAX46Y46*%
G04 Gerber Fmt 4.6, Leading zero omitted, Abs format (unit mm)*
G04 Created by KiCad (PCBNEW 4.0.4-stable) date 01/31/17 14:25:07*
%MOMM*%
%LPD*%
G01*
G04 APERTURE LIST*
%ADD10C,0.100000*%
%ADD11C,0.150000*%
%ADD12C,0.300000*%
%ADD13C,0.400000*%
%ADD14C,3.400000*%
%ADD15C,1.700000*%
%ADD16C,2.200000*%
%ADD17C,3.900000*%
%ADD18C,1.900000*%
%ADD19C,1.600000*%
%ADD20C,4.400000*%
%ADD21R,0.800000X1.000000*%
%ADD22C,0.900380*%
%ADD23R,0.700000X1.100000*%
%ADD24R,1.100000X0.700000*%
%ADD25R,2.850000X2.850000*%
%ADD26R,1.200000X1.150000*%
%ADD27R,1.543000X0.654000*%
%ADD28R,0.654000X1.543000*%
%ADD29R,0.908000X1.543000*%
%ADD30C,0.460000*%
%ADD31C,1.924000*%
%ADD32C,3.816000*%
%ADD33C,1.708000*%
%ADD34C,0.450000*%
%ADD35R,0.680000X0.830000*%
%ADD36R,1.150000X1.200000*%
%ADD37R,1.400000X1.650000*%
%ADD38R,1.650000X1.400000*%
%ADD39R,1.000000X0.900000*%
%ADD40R,0.900000X1.000000*%
%ADD41R,1.200000X1.200000*%
%ADD42R,1.200000X1.000000*%
%ADD43R,1.000000X1.200000*%
%ADD44R,1.300000X1.200000*%
%ADD45R,1.200000X1.300000*%
%ADD46R,2.000000X1.900000*%
%ADD47R,1.600000X1.600000*%
%ADD48R,1.460000X1.050000*%
%ADD49R,2.599640X1.197560*%
%ADD50R,1.700000X1.450000*%
%ADD51R,1.400000X1.100000*%
%ADD52R,1.000000X1.100000*%
%ADD53R,3.900000X1.600000*%
%ADD54R,1.000000X0.800000*%
%ADD55R,0.900000X1.300000*%
%ADD56R,1.300000X0.900000*%
%ADD57C,2.000000*%
%ADD58R,2.350000X2.900000*%
%ADD59R,2.150000X0.850000*%
%ADD60R,0.900000X0.900000*%
G04 APERTURE END LIST*
D10*
D11*
X177002200Y-166007200D02*
X177002200Y-198007200D01*
X285002200Y-198007200D01*
X285002200Y-166007200D01*
X177002200Y-166007200D01*
D10*
D11*
X10000000Y-10000000D02*
X10000000Y-200007200D01*
X287002200Y-200007200D01*
X287002200Y-10000000D01*
X10000000Y-10000000D01*
D10*
D11*
X12000000Y-12000000D02*
X12000000Y-198007200D01*
X285002200Y-198007200D01*
X285002200Y-12000000D01*
X12000000Y-12000000D01*
D10*
D11*
X60000000Y-12000000D02*
X60000000Y-10000000D01*
D10*
D11*
X110000000Y-12000000D02*
X110000000Y-10000000D01*
D10*
D11*
X160000000Y-12000000D02*
X160000000Y-10000000D01*
D10*
D11*
X210000000Y-12000000D02*
X210000000Y-10000000D01*
D10*
D11*
X260000000Y-12000000D02*
X260000000Y-10000000D01*
D10*
D11*
X35990476Y-11588095D02*
X35247619Y-11588095D01*
X35619048Y-11588095D02*
X35619048Y-10288095D01*
X35495238Y-10473810D01*
X35371429Y-10597619D01*
X35247619Y-10659524D01*
D10*
D11*
X85247619Y-10411905D02*
X85309524Y-10350000D01*
X85433333Y-10288095D01*
X85742857Y-10288095D01*
X85866667Y-10350000D01*
X85928571Y-10411905D01*
X85990476Y-10535714D01*
X85990476Y-10659524D01*
X85928571Y-10845238D01*
X85185714Y-11588095D01*
X85990476Y-11588095D01*
D10*
D11*
X135185714Y-10288095D02*
X135990476Y-10288095D01*
X135557143Y-10783333D01*
X135742857Y-10783333D01*
X135866667Y-10845238D01*
X135928571Y-10907143D01*
X135990476Y-11030952D01*
X135990476Y-11340476D01*
X135928571Y-11464286D01*
X135866667Y-11526190D01*
X135742857Y-11588095D01*
X135371429Y-11588095D01*
X135247619Y-11526190D01*
X135185714Y-11464286D01*
D10*
D11*
X185866667Y-10721429D02*
X185866667Y-11588095D01*
X185557143Y-10226190D02*
X185247619Y-11154762D01*
X186052381Y-11154762D01*
D10*
D11*
X235928571Y-10288095D02*
X235309524Y-10288095D01*
X235247619Y-10907143D01*
X235309524Y-10845238D01*
X235433333Y-10783333D01*
X235742857Y-10783333D01*
X235866667Y-10845238D01*
X235928571Y-10907143D01*
X235990476Y-11030952D01*
X235990476Y-11340476D01*
X235928571Y-11464286D01*
X235866667Y-11526190D01*
X235742857Y-11588095D01*
X235433333Y-11588095D01*
X235309524Y-11526190D01*
X235247619Y-11464286D01*
D10*
D11*
X285866667Y-10288095D02*
X285619048Y-10288095D01*
X285495238Y-10350000D01*
X285433333Y-10411905D01*
X285309524Y-10597619D01*
X285247619Y-10845238D01*
X285247619Y-11340476D01*
X285309524Y-11464286D01*
X285371429Y-11526190D01*
X285495238Y-11588095D01*
X285742857Y-11588095D01*
X285866667Y-11526190D01*
X285928571Y-11464286D01*
X285990476Y-11340476D01*
X285990476Y-11030952D01*
X285928571Y-10907143D01*
X285866667Y-10845238D01*
X285742857Y-10783333D01*
X285495238Y-10783333D01*
X285371429Y-10845238D01*
X285309524Y-10907143D01*
X285247619Y-11030952D01*
D10*
D11*
X60000000Y-198007200D02*
X60000000Y-200007200D01*
D10*
D11*
X110000000Y-198007200D02*
X110000000Y-200007200D01*
D10*
D11*
X160000000Y-198007200D02*
X160000000Y-200007200D01*
D10*
D11*
X210000000Y-198007200D02*
X210000000Y-200007200D01*
D10*
D11*
X260000000Y-198007200D02*
X260000000Y-200007200D01*
D10*
D11*
X35990476Y-199595295D02*
X35247619Y-199595295D01*
X35619048Y-199595295D02*
X35619048Y-198295295D01*
X35495238Y-198481010D01*
X35371429Y-198604819D01*
X35247619Y-198666724D01*
D10*
D11*
X85247619Y-198419105D02*
X85309524Y-198357200D01*
X85433333Y-198295295D01*
X85742857Y-198295295D01*
X85866667Y-198357200D01*
X85928571Y-198419105D01*
X85990476Y-198542914D01*
X85990476Y-198666724D01*
X85928571Y-198852438D01*
X85185714Y-199595295D01*
X85990476Y-199595295D01*
D10*
D11*
X135185714Y-198295295D02*
X135990476Y-198295295D01*
X135557143Y-198790533D01*
X135742857Y-198790533D01*
X135866667Y-198852438D01*
X135928571Y-198914343D01*
X135990476Y-199038152D01*
X135990476Y-199347676D01*
X135928571Y-199471486D01*
X135866667Y-199533390D01*
X135742857Y-199595295D01*
X135371429Y-199595295D01*
X135247619Y-199533390D01*
X135185714Y-199471486D01*
D10*
D11*
X185866667Y-198728629D02*
X185866667Y-199595295D01*
X185557143Y-198233390D02*
X185247619Y-199161962D01*
X186052381Y-199161962D01*
D10*
D11*
X235928571Y-198295295D02*
X235309524Y-198295295D01*
X235247619Y-198914343D01*
X235309524Y-198852438D01*
X235433333Y-198790533D01*
X235742857Y-198790533D01*
X235866667Y-198852438D01*
X235928571Y-198914343D01*
X235990476Y-199038152D01*
X235990476Y-199347676D01*
X235928571Y-199471486D01*
X235866667Y-199533390D01*
X235742857Y-199595295D01*
X235433333Y-199595295D01*
X235309524Y-199533390D01*
X235247619Y-199471486D01*
D10*
D11*
X285866667Y-198295295D02*
X285619048Y-198295295D01*
X285495238Y-198357200D01*
X285433333Y-198419105D01*
X285309524Y-198604819D01*
X285247619Y-198852438D01*
X285247619Y-199347676D01*
X285309524Y-199471486D01*
X285371429Y-199533390D01*
X285495238Y-199595295D01*
X285742857Y-199595295D01*
X285866667Y-199533390D01*
X285928571Y-199471486D01*
X285990476Y-199347676D01*
X285990476Y-199038152D01*
X285928571Y-198914343D01*
X285866667Y-198852438D01*
X285742857Y-198790533D01*
X285495238Y-198790533D01*
X285371429Y-198852438D01*
X285309524Y-198914343D01*
X285247619Y-199038152D01*
D10*
D11*
X10000000Y-60000000D02*
X12000000Y-60000000D01*
D10*
D11*
X10000000Y-110000000D02*
X12000000Y-110000000D01*
D10*
D11*
X10000000Y-160000000D02*
X12000000Y-160000000D01*
D10*
D11*
X10690476Y-35216667D02*
X11309524Y-35216667D01*
X10566667Y-35588095D02*
X11000000Y-34288095D01*
X11433333Y-35588095D01*
D10*
D11*
X11092857Y-84907143D02*
X11278571Y-84969048D01*
X11340476Y-85030952D01*
X11402381Y-85154762D01*
X11402381Y-85340476D01*
X11340476Y-85464286D01*
X11278571Y-85526190D01*
X11154762Y-85588095D01*
X10659524Y-85588095D01*
X10659524Y-84288095D01*
X11092857Y-84288095D01*
X11216667Y-84350000D01*
X11278571Y-84411905D01*
X11340476Y-84535714D01*
X11340476Y-84659524D01*
X11278571Y-84783333D01*
X11216667Y-84845238D01*
X11092857Y-84907143D01*
X10659524Y-84907143D01*
D10*
D11*
X11402381Y-135464286D02*
X11340476Y-135526190D01*
X11154762Y-135588095D01*
X11030952Y-135588095D01*
X10845238Y-135526190D01*
X10721429Y-135402381D01*
X10659524Y-135278571D01*
X10597619Y-135030952D01*
X10597619Y-134845238D01*
X10659524Y-134597619D01*
X10721429Y-134473810D01*
X10845238Y-134350000D01*
X11030952Y-134288095D01*
X11154762Y-134288095D01*
X11340476Y-134350000D01*
X11402381Y-134411905D01*
D10*
D11*
X10659524Y-185588095D02*
X10659524Y-184288095D01*
X10969048Y-184288095D01*
X11154762Y-184350000D01*
X11278571Y-184473810D01*
X11340476Y-184597619D01*
X11402381Y-184845238D01*
X11402381Y-185030952D01*
X11340476Y-185278571D01*
X11278571Y-185402381D01*
X11154762Y-185526190D01*
X10969048Y-185588095D01*
X10659524Y-185588095D01*
D10*
D11*
X287002200Y-60000000D02*
X285002200Y-60000000D01*
D10*
D11*
X287002200Y-110000000D02*
X285002200Y-110000000D01*
D10*
D11*
X287002200Y-160000000D02*
X285002200Y-160000000D01*
D10*
D11*
X285692676Y-35216667D02*
X286311724Y-35216667D01*
X285568867Y-35588095D02*
X286002200Y-34288095D01*
X286435533Y-35588095D01*
D10*
D11*
X286095057Y-84907143D02*
X286280771Y-84969048D01*
X286342676Y-85030952D01*
X286404581Y-85154762D01*
X286404581Y-85340476D01*
X286342676Y-85464286D01*
X286280771Y-85526190D01*
X286156962Y-85588095D01*
X285661724Y-85588095D01*
X285661724Y-84288095D01*
X286095057Y-84288095D01*
X286218867Y-84350000D01*
X286280771Y-84411905D01*
X286342676Y-84535714D01*
X286342676Y-84659524D01*
X286280771Y-84783333D01*
X286218867Y-84845238D01*
X286095057Y-84907143D01*
X285661724Y-84907143D01*
D10*
D11*
X286404581Y-135464286D02*
X286342676Y-135526190D01*
X286156962Y-135588095D01*
X286033152Y-135588095D01*
X285847438Y-135526190D01*
X285723629Y-135402381D01*
X285661724Y-135278571D01*
X285599819Y-135030952D01*
X285599819Y-134845238D01*
X285661724Y-134597619D01*
X285723629Y-134473810D01*
X285847438Y-134350000D01*
X286033152Y-134288095D01*
X286156962Y-134288095D01*
X286342676Y-134350000D01*
X286404581Y-134411905D01*
D10*
D11*
X285661724Y-185588095D02*
X285661724Y-184288095D01*
X285971248Y-184288095D01*
X286156962Y-184350000D01*
X286280771Y-184473810D01*
X286342676Y-184597619D01*
X286404581Y-184845238D01*
X286404581Y-185030952D01*
X286342676Y-185278571D01*
X286280771Y-185402381D01*
X286156962Y-185526190D01*
X285971248Y-185588095D01*
X285661724Y-185588095D01*
D10*
D11*
X200359343Y-193785771D02*
X200359343Y-192285771D01*
X200716486Y-192285771D01*
X200930771Y-192357200D01*
X201073629Y-192500057D01*
X201145057Y-192642914D01*
X201216486Y-192928629D01*
X201216486Y-193142914D01*
X201145057Y-193428629D01*
X201073629Y-193571486D01*
X200930771Y-193714343D01*
X200716486Y-193785771D01*
X200359343Y-193785771D01*
X202502200Y-193785771D02*
X202502200Y-193000057D01*
X202430771Y-192857200D01*
X202287914Y-192785771D01*
X202002200Y-192785771D01*
X201859343Y-192857200D01*
X202502200Y-193714343D02*
X202359343Y-193785771D01*
X202002200Y-193785771D01*
X201859343Y-193714343D01*
X201787914Y-193571486D01*
X201787914Y-193428629D01*
X201859343Y-193285771D01*
X202002200Y-193214343D01*
X202359343Y-193214343D01*
X202502200Y-193142914D01*
X203002200Y-192785771D02*
X203573629Y-192785771D01*
X203216486Y-192285771D02*
X203216486Y-193571486D01*
X203287914Y-193714343D01*
X203430772Y-193785771D01*
X203573629Y-193785771D01*
X204645057Y-193714343D02*
X204502200Y-193785771D01*
X204216486Y-193785771D01*
X204073629Y-193714343D01*
X204002200Y-193571486D01*
X204002200Y-193000057D01*
X204073629Y-192857200D01*
X204216486Y-192785771D01*
X204502200Y-192785771D01*
X204645057Y-192857200D01*
X204716486Y-193000057D01*
X204716486Y-193142914D01*
X204002200Y-193285771D01*
X205359343Y-193642914D02*
X205430771Y-193714343D01*
X205359343Y-193785771D01*
X205287914Y-193714343D01*
X205359343Y-193642914D01*
X205359343Y-193785771D01*
X205359343Y-192857200D02*
X205430771Y-192928629D01*
X205359343Y-193000057D01*
X205287914Y-192928629D01*
X205359343Y-192857200D01*
X205359343Y-193000057D01*
D10*
D11*
X177002200Y-194507200D02*
X285002200Y-194507200D01*
D10*
D11*
X178359343Y-196585771D02*
X178359343Y-195085771D01*
X179216486Y-196585771D02*
X178573629Y-195728629D01*
X179216486Y-195085771D02*
X178359343Y-195942914D01*
X179859343Y-196585771D02*
X179859343Y-195585771D01*
X179859343Y-195085771D02*
X179787914Y-195157200D01*
X179859343Y-195228629D01*
X179930771Y-195157200D01*
X179859343Y-195085771D01*
X179859343Y-195228629D01*
X181430772Y-196442914D02*
X181359343Y-196514343D01*
X181145057Y-196585771D01*
X181002200Y-196585771D01*
X180787915Y-196514343D01*
X180645057Y-196371486D01*
X180573629Y-196228629D01*
X180502200Y-195942914D01*
X180502200Y-195728629D01*
X180573629Y-195442914D01*
X180645057Y-195300057D01*
X180787915Y-195157200D01*
X181002200Y-195085771D01*
X181145057Y-195085771D01*
X181359343Y-195157200D01*
X181430772Y-195228629D01*
X182716486Y-196585771D02*
X182716486Y-195800057D01*
X182645057Y-195657200D01*
X182502200Y-195585771D01*
X182216486Y-195585771D01*
X182073629Y-195657200D01*
X182716486Y-196514343D02*
X182573629Y-196585771D01*
X182216486Y-196585771D01*
X182073629Y-196514343D01*
X182002200Y-196371486D01*
X182002200Y-196228629D01*
X182073629Y-196085771D01*
X182216486Y-196014343D01*
X182573629Y-196014343D01*
X182716486Y-195942914D01*
X184073629Y-196585771D02*
X184073629Y-195085771D01*
X184073629Y-196514343D02*
X183930772Y-196585771D01*
X183645058Y-196585771D01*
X183502200Y-196514343D01*
X183430772Y-196442914D01*
X183359343Y-196300057D01*
X183359343Y-195871486D01*
X183430772Y-195728629D01*
X183502200Y-195657200D01*
X183645058Y-195585771D01*
X183930772Y-195585771D01*
X184073629Y-195657200D01*
X185930772Y-195800057D02*
X186430772Y-195800057D01*
X186645058Y-196585771D02*
X185930772Y-196585771D01*
X185930772Y-195085771D01*
X186645058Y-195085771D01*
X187287915Y-196442914D02*
X187359343Y-196514343D01*
X187287915Y-196585771D01*
X187216486Y-196514343D01*
X187287915Y-196442914D01*
X187287915Y-196585771D01*
X188002201Y-196585771D02*
X188002201Y-195085771D01*
X188359344Y-195085771D01*
X188573629Y-195157200D01*
X188716487Y-195300057D01*
X188787915Y-195442914D01*
X188859344Y-195728629D01*
X188859344Y-195942914D01*
X188787915Y-196228629D01*
X188716487Y-196371486D01*
X188573629Y-196514343D01*
X188359344Y-196585771D01*
X188002201Y-196585771D01*
X189502201Y-196442914D02*
X189573629Y-196514343D01*
X189502201Y-196585771D01*
X189430772Y-196514343D01*
X189502201Y-196442914D01*
X189502201Y-196585771D01*
X190145058Y-196157200D02*
X190859344Y-196157200D01*
X190002201Y-196585771D02*
X190502201Y-195085771D01*
X191002201Y-196585771D01*
X191502201Y-196442914D02*
X191573629Y-196514343D01*
X191502201Y-196585771D01*
X191430772Y-196514343D01*
X191502201Y-196442914D01*
X191502201Y-196585771D01*
X194502201Y-196585771D02*
X194502201Y-195085771D01*
X194645058Y-196014343D02*
X195073629Y-196585771D01*
X195073629Y-195585771D02*
X194502201Y-196157200D01*
X195716487Y-196585771D02*
X195716487Y-195585771D01*
X195716487Y-195085771D02*
X195645058Y-195157200D01*
X195716487Y-195228629D01*
X195787915Y-195157200D01*
X195716487Y-195085771D01*
X195716487Y-195228629D01*
X197073630Y-196514343D02*
X196930773Y-196585771D01*
X196645059Y-196585771D01*
X196502201Y-196514343D01*
X196430773Y-196442914D01*
X196359344Y-196300057D01*
X196359344Y-195871486D01*
X196430773Y-195728629D01*
X196502201Y-195657200D01*
X196645059Y-195585771D01*
X196930773Y-195585771D01*
X197073630Y-195657200D01*
X198359344Y-196585771D02*
X198359344Y-195800057D01*
X198287915Y-195657200D01*
X198145058Y-195585771D01*
X197859344Y-195585771D01*
X197716487Y-195657200D01*
X198359344Y-196514343D02*
X198216487Y-196585771D01*
X197859344Y-196585771D01*
X197716487Y-196514343D01*
X197645058Y-196371486D01*
X197645058Y-196228629D01*
X197716487Y-196085771D01*
X197859344Y-196014343D01*
X198216487Y-196014343D01*
X198359344Y-195942914D01*
X199716487Y-196585771D02*
X199716487Y-195085771D01*
X199716487Y-196514343D02*
X199573630Y-196585771D01*
X199287916Y-196585771D01*
X199145058Y-196514343D01*
X199073630Y-196442914D01*
X199002201Y-196300057D01*
X199002201Y-195871486D01*
X199073630Y-195728629D01*
X199145058Y-195657200D01*
X199287916Y-195585771D01*
X199573630Y-195585771D01*
X199716487Y-195657200D01*
X202216487Y-195585771D02*
X202216487Y-196585771D01*
X201859344Y-195014343D02*
X201502201Y-196085771D01*
X202430773Y-196085771D01*
X203002201Y-196442914D02*
X203073629Y-196514343D01*
X203002201Y-196585771D01*
X202930772Y-196514343D01*
X203002201Y-196442914D01*
X203002201Y-196585771D01*
X204002201Y-195085771D02*
X204145058Y-195085771D01*
X204287915Y-195157200D01*
X204359344Y-195228629D01*
X204430773Y-195371486D01*
X204502201Y-195657200D01*
X204502201Y-196014343D01*
X204430773Y-196300057D01*
X204359344Y-196442914D01*
X204287915Y-196514343D01*
X204145058Y-196585771D01*
X204002201Y-196585771D01*
X203859344Y-196514343D01*
X203787915Y-196442914D01*
X203716487Y-196300057D01*
X203645058Y-196014343D01*
X203645058Y-195657200D01*
X203716487Y-195371486D01*
X203787915Y-195228629D01*
X203859344Y-195157200D01*
X204002201Y-195085771D01*
X205145058Y-196442914D02*
X205216486Y-196514343D01*
X205145058Y-196585771D01*
X205073629Y-196514343D01*
X205145058Y-196442914D01*
X205145058Y-196585771D01*
X206502201Y-195585771D02*
X206502201Y-196585771D01*
X206145058Y-195014343D02*
X205787915Y-196085771D01*
X206716487Y-196085771D01*
X207287915Y-196014343D02*
X208430772Y-196014343D01*
X209073629Y-196514343D02*
X209216486Y-196585771D01*
X209502201Y-196585771D01*
X209645058Y-196514343D01*
X209716486Y-196371486D01*
X209716486Y-196300057D01*
X209645058Y-196157200D01*
X209502201Y-196085771D01*
X209287915Y-196085771D01*
X209145058Y-196014343D01*
X209073629Y-195871486D01*
X209073629Y-195800057D01*
X209145058Y-195657200D01*
X209287915Y-195585771D01*
X209502201Y-195585771D01*
X209645058Y-195657200D01*
X210145058Y-195585771D02*
X210716487Y-195585771D01*
X210359344Y-195085771D02*
X210359344Y-196371486D01*
X210430772Y-196514343D01*
X210573630Y-196585771D01*
X210716487Y-196585771D01*
X211859344Y-196585771D02*
X211859344Y-195800057D01*
X211787915Y-195657200D01*
X211645058Y-195585771D01*
X211359344Y-195585771D01*
X211216487Y-195657200D01*
X211859344Y-196514343D02*
X211716487Y-196585771D01*
X211359344Y-196585771D01*
X211216487Y-196514343D01*
X211145058Y-196371486D01*
X211145058Y-196228629D01*
X211216487Y-196085771D01*
X211359344Y-196014343D01*
X211716487Y-196014343D01*
X211859344Y-195942914D01*
X212573630Y-196585771D02*
X212573630Y-195085771D01*
X212573630Y-195657200D02*
X212716487Y-195585771D01*
X213002201Y-195585771D01*
X213145058Y-195657200D01*
X213216487Y-195728629D01*
X213287916Y-195871486D01*
X213287916Y-196300057D01*
X213216487Y-196442914D01*
X213145058Y-196514343D01*
X213002201Y-196585771D01*
X212716487Y-196585771D01*
X212573630Y-196514343D01*
X214145059Y-196585771D02*
X214002201Y-196514343D01*
X213930773Y-196371486D01*
X213930773Y-195085771D01*
X215287915Y-196514343D02*
X215145058Y-196585771D01*
X214859344Y-196585771D01*
X214716487Y-196514343D01*
X214645058Y-196371486D01*
X214645058Y-195800057D01*
X214716487Y-195657200D01*
X214859344Y-195585771D01*
X215145058Y-195585771D01*
X215287915Y-195657200D01*
X215359344Y-195800057D01*
X215359344Y-195942914D01*
X214645058Y-196085771D01*
D10*
D11*
X177002200Y-191507200D02*
X285002200Y-191507200D01*
D10*
D12*
X264216486Y-193785771D02*
X263716486Y-193071486D01*
X263359343Y-193785771D02*
X263359343Y-192285771D01*
X263930771Y-192285771D01*
X264073629Y-192357200D01*
X264145057Y-192428629D01*
X264216486Y-192571486D01*
X264216486Y-192785771D01*
X264145057Y-192928629D01*
X264073629Y-193000057D01*
X263930771Y-193071486D01*
X263359343Y-193071486D01*
X265430771Y-193714343D02*
X265287914Y-193785771D01*
X265002200Y-193785771D01*
X264859343Y-193714343D01*
X264787914Y-193571486D01*
X264787914Y-193000057D01*
X264859343Y-192857200D01*
X265002200Y-192785771D01*
X265287914Y-192785771D01*
X265430771Y-192857200D01*
X265502200Y-193000057D01*
X265502200Y-193142914D01*
X264787914Y-193285771D01*
X266002200Y-192785771D02*
X266359343Y-193785771D01*
X266716485Y-192785771D01*
X267287914Y-193642914D02*
X267359342Y-193714343D01*
X267287914Y-193785771D01*
X267216485Y-193714343D01*
X267287914Y-193642914D01*
X267287914Y-193785771D01*
X267287914Y-192857200D02*
X267359342Y-192928629D01*
X267287914Y-193000057D01*
X267216485Y-192928629D01*
X267287914Y-192857200D01*
X267287914Y-193000057D01*
D10*
D11*
X178287914Y-193714343D02*
X178502200Y-193785771D01*
X178859343Y-193785771D01*
X179002200Y-193714343D01*
X179073629Y-193642914D01*
X179145057Y-193500057D01*
X179145057Y-193357200D01*
X179073629Y-193214343D01*
X179002200Y-193142914D01*
X178859343Y-193071486D01*
X178573629Y-193000057D01*
X178430771Y-192928629D01*
X178359343Y-192857200D01*
X178287914Y-192714343D01*
X178287914Y-192571486D01*
X178359343Y-192428629D01*
X178430771Y-192357200D01*
X178573629Y-192285771D01*
X178930771Y-192285771D01*
X179145057Y-192357200D01*
X179787914Y-193785771D02*
X179787914Y-192785771D01*
X179787914Y-192285771D02*
X179716485Y-192357200D01*
X179787914Y-192428629D01*
X179859342Y-192357200D01*
X179787914Y-192285771D01*
X179787914Y-192428629D01*
X180359343Y-192785771D02*
X181145057Y-192785771D01*
X180359343Y-193785771D01*
X181145057Y-193785771D01*
X182287914Y-193714343D02*
X182145057Y-193785771D01*
X181859343Y-193785771D01*
X181716486Y-193714343D01*
X181645057Y-193571486D01*
X181645057Y-193000057D01*
X181716486Y-192857200D01*
X181859343Y-192785771D01*
X182145057Y-192785771D01*
X182287914Y-192857200D01*
X182359343Y-193000057D01*
X182359343Y-193142914D01*
X181645057Y-193285771D01*
X183002200Y-193642914D02*
X183073628Y-193714343D01*
X183002200Y-193785771D01*
X182930771Y-193714343D01*
X183002200Y-193642914D01*
X183002200Y-193785771D01*
X183002200Y-192857200D02*
X183073628Y-192928629D01*
X183002200Y-193000057D01*
X182930771Y-192928629D01*
X183002200Y-192857200D01*
X183002200Y-193000057D01*
X184787914Y-193357200D02*
X185502200Y-193357200D01*
X184645057Y-193785771D02*
X185145057Y-192285771D01*
X185645057Y-193785771D01*
X186787914Y-192785771D02*
X186787914Y-193785771D01*
X186430771Y-192214343D02*
X186073628Y-193285771D01*
X187002200Y-193285771D01*
D10*
D11*
X263359343Y-196585771D02*
X263359343Y-195085771D01*
X264716486Y-196585771D02*
X264716486Y-195085771D01*
X264716486Y-196514343D02*
X264573629Y-196585771D01*
X264287915Y-196585771D01*
X264145057Y-196514343D01*
X264073629Y-196442914D01*
X264002200Y-196300057D01*
X264002200Y-195871486D01*
X264073629Y-195728629D01*
X264145057Y-195657200D01*
X264287915Y-195585771D01*
X264573629Y-195585771D01*
X264716486Y-195657200D01*
X265430772Y-196442914D02*
X265502200Y-196514343D01*
X265430772Y-196585771D01*
X265359343Y-196514343D01*
X265430772Y-196442914D01*
X265430772Y-196585771D01*
X265430772Y-195657200D02*
X265502200Y-195728629D01*
X265430772Y-195800057D01*
X265359343Y-195728629D01*
X265430772Y-195657200D01*
X265430772Y-195800057D01*
X268073629Y-196585771D02*
X267216486Y-196585771D01*
X267645058Y-196585771D02*
X267645058Y-195085771D01*
X267502201Y-195300057D01*
X267359343Y-195442914D01*
X267216486Y-195514343D01*
X269787914Y-195014343D02*
X268502200Y-196942914D01*
X271073629Y-196585771D02*
X270216486Y-196585771D01*
X270645058Y-196585771D02*
X270645058Y-195085771D01*
X270502201Y-195300057D01*
X270359343Y-195442914D01*
X270216486Y-195514343D01*
D10*
D11*
X177002200Y-187507200D02*
X285002200Y-187507200D01*
D10*
D13*
X178454581Y-188211962D02*
X179597438Y-188211962D01*
X178776010Y-190211962D02*
X179026010Y-188211962D01*
X180014105Y-190211962D02*
X180180771Y-188878629D01*
X180264105Y-188211962D02*
X180156962Y-188307200D01*
X180240295Y-188402438D01*
X180347439Y-188307200D01*
X180264105Y-188211962D01*
X180240295Y-188402438D01*
X180847438Y-188878629D02*
X181609343Y-188878629D01*
X181216486Y-188211962D02*
X181002200Y-189926248D01*
X181073630Y-190116724D01*
X181252201Y-190211962D01*
X181442677Y-190211962D01*
X182395058Y-190211962D02*
X182216487Y-190116724D01*
X182145057Y-189926248D01*
X182359343Y-188211962D01*
X183930772Y-190116724D02*
X183728391Y-190211962D01*
X183347439Y-190211962D01*
X183168867Y-190116724D01*
X183097438Y-189926248D01*
X183192676Y-189164343D01*
X183311724Y-188973867D01*
X183514105Y-188878629D01*
X183895057Y-188878629D01*
X184073629Y-188973867D01*
X184145057Y-189164343D01*
X184121248Y-189354819D01*
X183145057Y-189545295D01*
X184895057Y-190021486D02*
X184978392Y-190116724D01*
X184871248Y-190211962D01*
X184787915Y-190116724D01*
X184895057Y-190021486D01*
X184871248Y-190211962D01*
X185026010Y-188973867D02*
X185109344Y-189069105D01*
X185002200Y-189164343D01*
X184918867Y-189069105D01*
X185026010Y-188973867D01*
X185002200Y-189164343D01*
D10*
D11*
X178859343Y-185600057D02*
X178359343Y-185600057D01*
X178359343Y-186385771D02*
X178359343Y-184885771D01*
X179073629Y-184885771D01*
X179645057Y-186385771D02*
X179645057Y-185385771D01*
X179645057Y-184885771D02*
X179573628Y-184957200D01*
X179645057Y-185028629D01*
X179716485Y-184957200D01*
X179645057Y-184885771D01*
X179645057Y-185028629D01*
X180573629Y-186385771D02*
X180430771Y-186314343D01*
X180359343Y-186171486D01*
X180359343Y-184885771D01*
X181716485Y-186314343D02*
X181573628Y-186385771D01*
X181287914Y-186385771D01*
X181145057Y-186314343D01*
X181073628Y-186171486D01*
X181073628Y-185600057D01*
X181145057Y-185457200D01*
X181287914Y-185385771D01*
X181573628Y-185385771D01*
X181716485Y-185457200D01*
X181787914Y-185600057D01*
X181787914Y-185742914D01*
X181073628Y-185885771D01*
X182430771Y-186242914D02*
X182502199Y-186314343D01*
X182430771Y-186385771D01*
X182359342Y-186314343D01*
X182430771Y-186242914D01*
X182430771Y-186385771D01*
X182430771Y-185457200D02*
X182502199Y-185528629D01*
X182430771Y-185600057D01*
X182359342Y-185528629D01*
X182430771Y-185457200D01*
X182430771Y-185600057D01*
X184287914Y-186385771D02*
X184287914Y-184885771D01*
X184645057Y-184885771D01*
X184859342Y-184957200D01*
X185002200Y-185100057D01*
X185073628Y-185242914D01*
X185145057Y-185528629D01*
X185145057Y-185742914D01*
X185073628Y-186028629D01*
X185002200Y-186171486D01*
X184859342Y-186314343D01*
X184645057Y-186385771D01*
X184287914Y-186385771D01*
X186287914Y-185600057D02*
X185787914Y-185600057D01*
X185787914Y-186385771D02*
X185787914Y-184885771D01*
X186502200Y-184885771D01*
X186859342Y-184885771D02*
X187716485Y-184885771D01*
X187287914Y-186385771D02*
X187287914Y-184885771D01*
X188716485Y-185600057D02*
X188930771Y-185671486D01*
X189002199Y-185742914D01*
X189073628Y-185885771D01*
X189073628Y-186100057D01*
X189002199Y-186242914D01*
X188930771Y-186314343D01*
X188787913Y-186385771D01*
X188216485Y-186385771D01*
X188216485Y-184885771D01*
X188716485Y-184885771D01*
X188859342Y-184957200D01*
X188930771Y-185028629D01*
X189002199Y-185171486D01*
X189002199Y-185314343D01*
X188930771Y-185457200D01*
X188859342Y-185528629D01*
X188716485Y-185600057D01*
X188216485Y-185600057D01*
X189930771Y-186385771D02*
X189787913Y-186314343D01*
X189716485Y-186242914D01*
X189645056Y-186100057D01*
X189645056Y-185671486D01*
X189716485Y-185528629D01*
X189787913Y-185457200D01*
X189930771Y-185385771D01*
X190145056Y-185385771D01*
X190287913Y-185457200D01*
X190359342Y-185528629D01*
X190430771Y-185671486D01*
X190430771Y-186100057D01*
X190359342Y-186242914D01*
X190287913Y-186314343D01*
X190145056Y-186385771D01*
X189930771Y-186385771D01*
X191716485Y-186385771D02*
X191716485Y-185600057D01*
X191645056Y-185457200D01*
X191502199Y-185385771D01*
X191216485Y-185385771D01*
X191073628Y-185457200D01*
X191716485Y-186314343D02*
X191573628Y-186385771D01*
X191216485Y-186385771D01*
X191073628Y-186314343D01*
X191002199Y-186171486D01*
X191002199Y-186028629D01*
X191073628Y-185885771D01*
X191216485Y-185814343D01*
X191573628Y-185814343D01*
X191716485Y-185742914D01*
X192430771Y-186385771D02*
X192430771Y-185385771D01*
X192430771Y-185671486D02*
X192502199Y-185528629D01*
X192573628Y-185457200D01*
X192716485Y-185385771D01*
X192859342Y-185385771D01*
X194002199Y-186385771D02*
X194002199Y-184885771D01*
X194002199Y-186314343D02*
X193859342Y-186385771D01*
X193573628Y-186385771D01*
X193430770Y-186314343D01*
X193359342Y-186242914D01*
X193287913Y-186100057D01*
X193287913Y-185671486D01*
X193359342Y-185528629D01*
X193430770Y-185457200D01*
X193573628Y-185385771D01*
X193859342Y-185385771D01*
X194002199Y-185457200D01*
X194716485Y-186242914D02*
X194787913Y-186314343D01*
X194716485Y-186385771D01*
X194645056Y-186314343D01*
X194716485Y-186242914D01*
X194716485Y-186385771D01*
X195430771Y-186385771D02*
X195430771Y-184885771D01*
X195573628Y-185814343D02*
X196002199Y-186385771D01*
X196002199Y-185385771D02*
X195430771Y-185957200D01*
X196645057Y-186385771D02*
X196645057Y-185385771D01*
X196645057Y-184885771D02*
X196573628Y-184957200D01*
X196645057Y-185028629D01*
X196716485Y-184957200D01*
X196645057Y-184885771D01*
X196645057Y-185028629D01*
X198002200Y-186314343D02*
X197859343Y-186385771D01*
X197573629Y-186385771D01*
X197430771Y-186314343D01*
X197359343Y-186242914D01*
X197287914Y-186100057D01*
X197287914Y-185671486D01*
X197359343Y-185528629D01*
X197430771Y-185457200D01*
X197573629Y-185385771D01*
X197859343Y-185385771D01*
X198002200Y-185457200D01*
X199287914Y-186385771D02*
X199287914Y-185600057D01*
X199216485Y-185457200D01*
X199073628Y-185385771D01*
X198787914Y-185385771D01*
X198645057Y-185457200D01*
X199287914Y-186314343D02*
X199145057Y-186385771D01*
X198787914Y-186385771D01*
X198645057Y-186314343D01*
X198573628Y-186171486D01*
X198573628Y-186028629D01*
X198645057Y-185885771D01*
X198787914Y-185814343D01*
X199145057Y-185814343D01*
X199287914Y-185742914D01*
X200645057Y-186385771D02*
X200645057Y-184885771D01*
X200645057Y-186314343D02*
X200502200Y-186385771D01*
X200216486Y-186385771D01*
X200073628Y-186314343D01*
X200002200Y-186242914D01*
X199930771Y-186100057D01*
X199930771Y-185671486D01*
X200002200Y-185528629D01*
X200073628Y-185457200D01*
X200216486Y-185385771D01*
X200502200Y-185385771D01*
X200645057Y-185457200D01*
X201002200Y-186528629D02*
X202145057Y-186528629D01*
X202502200Y-185385771D02*
X202502200Y-186885771D01*
X202502200Y-185457200D02*
X202645057Y-185385771D01*
X202930771Y-185385771D01*
X203073628Y-185457200D01*
X203145057Y-185528629D01*
X203216486Y-185671486D01*
X203216486Y-186100057D01*
X203145057Y-186242914D01*
X203073628Y-186314343D01*
X202930771Y-186385771D01*
X202645057Y-186385771D01*
X202502200Y-186314343D01*
X204502200Y-186314343D02*
X204359343Y-186385771D01*
X204073629Y-186385771D01*
X203930771Y-186314343D01*
X203859343Y-186242914D01*
X203787914Y-186100057D01*
X203787914Y-185671486D01*
X203859343Y-185528629D01*
X203930771Y-185457200D01*
X204073629Y-185385771D01*
X204359343Y-185385771D01*
X204502200Y-185457200D01*
X205145057Y-186385771D02*
X205145057Y-184885771D01*
X205145057Y-185457200D02*
X205287914Y-185385771D01*
X205573628Y-185385771D01*
X205716485Y-185457200D01*
X205787914Y-185528629D01*
X205859343Y-185671486D01*
X205859343Y-186100057D01*
X205787914Y-186242914D01*
X205716485Y-186314343D01*
X205573628Y-186385771D01*
X205287914Y-186385771D01*
X205145057Y-186314343D01*
D10*
D11*
X177002200Y-181507200D02*
X285002200Y-181507200D01*
D10*
D11*
X178287914Y-183614343D02*
X178502200Y-183685771D01*
X178859343Y-183685771D01*
X179002200Y-183614343D01*
X179073629Y-183542914D01*
X179145057Y-183400057D01*
X179145057Y-183257200D01*
X179073629Y-183114343D01*
X179002200Y-183042914D01*
X178859343Y-182971486D01*
X178573629Y-182900057D01*
X178430771Y-182828629D01*
X178359343Y-182757200D01*
X178287914Y-182614343D01*
X178287914Y-182471486D01*
X178359343Y-182328629D01*
X178430771Y-182257200D01*
X178573629Y-182185771D01*
X178930771Y-182185771D01*
X179145057Y-182257200D01*
X179787914Y-183685771D02*
X179787914Y-182185771D01*
X180430771Y-183685771D02*
X180430771Y-182900057D01*
X180359342Y-182757200D01*
X180216485Y-182685771D01*
X180002200Y-182685771D01*
X179859342Y-182757200D01*
X179787914Y-182828629D01*
X181716485Y-183614343D02*
X181573628Y-183685771D01*
X181287914Y-183685771D01*
X181145057Y-183614343D01*
X181073628Y-183471486D01*
X181073628Y-182900057D01*
X181145057Y-182757200D01*
X181287914Y-182685771D01*
X181573628Y-182685771D01*
X181716485Y-182757200D01*
X181787914Y-182900057D01*
X181787914Y-183042914D01*
X181073628Y-183185771D01*
X183002199Y-183614343D02*
X182859342Y-183685771D01*
X182573628Y-183685771D01*
X182430771Y-183614343D01*
X182359342Y-183471486D01*
X182359342Y-182900057D01*
X182430771Y-182757200D01*
X182573628Y-182685771D01*
X182859342Y-182685771D01*
X183002199Y-182757200D01*
X183073628Y-182900057D01*
X183073628Y-183042914D01*
X182359342Y-183185771D01*
X183502199Y-182685771D02*
X184073628Y-182685771D01*
X183716485Y-182185771D02*
X183716485Y-183471486D01*
X183787913Y-183614343D01*
X183930771Y-183685771D01*
X184073628Y-183685771D01*
X184573628Y-183542914D02*
X184645056Y-183614343D01*
X184573628Y-183685771D01*
X184502199Y-183614343D01*
X184573628Y-183542914D01*
X184573628Y-183685771D01*
X184573628Y-182757200D02*
X184645056Y-182828629D01*
X184573628Y-182900057D01*
X184502199Y-182828629D01*
X184573628Y-182757200D01*
X184573628Y-182900057D01*
D10*
D11*
X197002200Y-191507200D02*
X197002200Y-194507200D01*
D10*
D11*
X261002200Y-191507200D02*
X261002200Y-198007200D01*
D14*
X257370000Y-130400000D03*
X263050000Y-130400000D03*
X263050000Y-117260000D03*
X257370000Y-117260000D03*
D15*
X260340000Y-124830000D03*
X257720000Y-127330000D03*
X260340000Y-127330000D03*
X260340000Y-122830000D03*
X260340000Y-120330000D03*
X257720000Y-124830000D03*
X257720000Y-122830000D03*
X257720000Y-120330000D03*
D16*
X141960000Y-124790000D03*
X144500000Y-124790000D03*
X141960000Y-127330000D03*
X144500000Y-127330000D03*
X141960000Y-129870000D03*
X144500000Y-129870000D03*
X141960000Y-132410000D03*
X144500000Y-132410000D03*
X141960000Y-134950000D03*
X144500000Y-134950000D03*
X141960000Y-137490000D03*
X144500000Y-137490000D03*
X141960000Y-140030000D03*
X141960000Y-142570000D03*
X144500000Y-140030000D03*
X144500000Y-142570000D03*
D17*
X242500000Y-100250000D03*
D18*
X245650000Y-101500000D03*
X250650000Y-101500000D03*
X250650000Y-99000000D03*
X245650000Y-99000000D03*
X248150000Y-99000000D03*
D17*
X253800000Y-100250000D03*
D19*
X193900000Y-98050000D03*
X200000000Y-98050000D03*
D18*
X194950000Y-102000000D03*
D16*
X196950000Y-101450000D03*
D18*
X198950000Y-102000000D03*
D17*
X225250000Y-100250000D03*
D18*
X228400000Y-101500000D03*
X233400000Y-101500000D03*
X233400000Y-99000000D03*
X228400000Y-99000000D03*
X230900000Y-99000000D03*
D17*
X236550000Y-100250000D03*
D20*
X157100000Y-111530000D03*
D14*
X152350000Y-98830000D03*
X152350000Y-106450000D03*
X152350000Y-116610000D03*
X162260000Y-116610000D03*
X162260000Y-106450000D03*
X162260000Y-98830000D03*
D20*
X137740000Y-111550000D03*
D14*
X132990000Y-98850000D03*
X132990000Y-106470000D03*
X132990000Y-116630000D03*
X142900000Y-116630000D03*
X142900000Y-106470000D03*
X142900000Y-98850000D03*
D20*
X108450000Y-108500000D03*
D14*
X95750000Y-113250000D03*
X103370000Y-113250000D03*
X113530000Y-113250000D03*
X113530000Y-103340000D03*
X103370000Y-103340000D03*
X95750000Y-103340000D03*
D21*
X159400000Y-106400000D03*
X158500000Y-106400000D03*
D22*
X190249260Y-120600000D03*
X191250020Y-120600000D03*
X192250780Y-120600000D03*
X193249000Y-120600000D03*
X194249760Y-120600000D03*
X195250520Y-120600000D03*
X196248740Y-120600000D03*
X197249500Y-120600000D03*
X198250260Y-120600000D03*
X199251020Y-120600000D03*
X200249240Y-120600000D03*
X201250000Y-120600000D03*
X202250760Y-120600000D03*
X203248980Y-120600000D03*
X204249740Y-120600000D03*
X205250500Y-120600000D03*
X190249260Y-121600760D03*
X190249260Y-122601520D03*
X190249260Y-123599740D03*
X190249260Y-124600500D03*
X190249260Y-125601260D03*
X190249260Y-126599480D03*
X190249260Y-127600240D03*
X190249260Y-128601000D03*
X205250500Y-121600760D03*
X204249740Y-121600760D03*
X203248980Y-121600760D03*
X202250760Y-121600760D03*
X201250000Y-121600760D03*
X200249240Y-121600760D03*
X199251020Y-121600760D03*
X198250260Y-121600760D03*
X197249500Y-121600760D03*
X196248740Y-121600760D03*
X195250520Y-121600760D03*
X194249760Y-121600760D03*
X191250020Y-121600760D03*
X192250780Y-121600760D03*
X193249000Y-121600760D03*
X191250020Y-122601520D03*
X192250780Y-122601520D03*
X193249000Y-122601520D03*
X194249760Y-122601520D03*
X195250520Y-122601520D03*
X196248740Y-122601520D03*
X197249500Y-122601520D03*
X198250260Y-122601520D03*
X191250020Y-123599740D03*
X192250780Y-123599740D03*
X193249000Y-123599740D03*
X194249760Y-123599740D03*
X195250520Y-123599740D03*
X196248740Y-123599740D03*
X197249500Y-123599740D03*
X198250260Y-123599740D03*
X191250020Y-124600500D03*
X192250780Y-124600500D03*
X193249000Y-124600500D03*
X199251020Y-122601520D03*
X199251020Y-123599740D03*
X200249240Y-122601520D03*
X200249240Y-123599740D03*
X201250000Y-123599740D03*
X201250000Y-122601520D03*
X202250760Y-122601520D03*
X203248980Y-122601520D03*
X203248980Y-123599740D03*
X202250760Y-123599740D03*
X204249740Y-122601520D03*
X204249740Y-123599740D03*
X205250500Y-123599740D03*
X205250500Y-122601520D03*
X202250760Y-124600500D03*
X202250760Y-125601260D03*
X202250760Y-126599480D03*
X203248980Y-126599480D03*
X203248980Y-125601260D03*
X203248980Y-124600500D03*
X204249740Y-124600500D03*
X204249740Y-125601260D03*
X204249740Y-126599480D03*
X205250500Y-126599480D03*
X205250500Y-125601260D03*
X205250500Y-124600500D03*
X191250020Y-125601260D03*
X192250780Y-125601260D03*
X193249000Y-125601260D03*
X193249000Y-126599480D03*
X192250780Y-126599480D03*
X191250020Y-126599480D03*
X191250020Y-127600240D03*
X192250780Y-127600240D03*
X193249000Y-127600240D03*
X193249000Y-128601000D03*
X192250780Y-128601000D03*
X191250020Y-128601000D03*
X190249260Y-129601760D03*
X191250020Y-129601760D03*
X192250780Y-129601760D03*
X193249000Y-129601760D03*
X193249000Y-130599980D03*
X192250780Y-130599980D03*
X191250020Y-130599980D03*
X190249260Y-130599980D03*
X190249260Y-131600740D03*
X191250020Y-131600740D03*
X192250780Y-131600740D03*
X193249000Y-131600740D03*
X193249000Y-132601500D03*
X193249000Y-133599720D03*
X193249000Y-134600480D03*
X192250780Y-134600480D03*
X192250780Y-133599720D03*
X192250780Y-132601500D03*
X191250020Y-132601500D03*
X191250020Y-133599720D03*
X191250020Y-134600480D03*
X190249260Y-132601500D03*
X190249260Y-133599720D03*
X190249260Y-134600480D03*
X190249260Y-135601240D03*
X191250020Y-135601240D03*
X192250780Y-135601240D03*
X193249000Y-135601240D03*
X197249500Y-124600500D03*
X196248740Y-124600500D03*
X195250520Y-124600500D03*
X194249760Y-124600500D03*
X194249760Y-125601260D03*
X195250520Y-125601260D03*
X196248740Y-125601260D03*
X197249500Y-125601260D03*
X194249760Y-126599480D03*
X195250520Y-126599480D03*
X196248740Y-126599480D03*
X197249500Y-126599480D03*
X194249760Y-127600240D03*
X195250520Y-127600240D03*
X196248740Y-127600240D03*
X197249500Y-127600240D03*
X194249760Y-128601000D03*
X195250520Y-128601000D03*
X196248740Y-128601000D03*
X197249500Y-128601000D03*
X194249760Y-129601760D03*
X195250520Y-129601760D03*
X196248740Y-129601760D03*
X197249500Y-129601760D03*
X194249760Y-130599980D03*
X195250520Y-130599980D03*
X196248740Y-130599980D03*
X197249500Y-130599980D03*
X194249760Y-131600740D03*
X195250520Y-131600740D03*
X196248740Y-131600740D03*
X194249760Y-133599720D03*
X195250520Y-133599720D03*
X194249760Y-134600480D03*
X195250520Y-134600480D03*
X194249760Y-135601240D03*
X195250520Y-135601240D03*
X197249500Y-131600740D03*
X194249760Y-132601500D03*
X195250520Y-132601500D03*
X196248740Y-132601500D03*
X200249240Y-133599720D03*
X199251020Y-133599720D03*
X198250260Y-133599720D03*
X197249500Y-133599720D03*
X196248740Y-133599720D03*
X196248740Y-134600480D03*
X197249500Y-134600480D03*
X198250260Y-134600480D03*
X199251020Y-134600480D03*
X200249240Y-134600480D03*
X196248740Y-135601240D03*
X197249500Y-135601240D03*
X198250260Y-135601240D03*
X199251020Y-135601240D03*
X200249240Y-135601240D03*
X197249500Y-132601500D03*
X198250260Y-124600500D03*
X199251020Y-124600500D03*
X200249240Y-124600500D03*
X201250000Y-124600500D03*
X201250000Y-133599720D03*
X198250260Y-125601260D03*
X199251020Y-125601260D03*
X200249240Y-125601260D03*
X201250000Y-125601260D03*
X198250260Y-128601000D03*
X201250000Y-126599480D03*
X200249240Y-126599480D03*
X199251020Y-126599480D03*
X198250260Y-126599480D03*
X201250000Y-134600480D03*
X201250000Y-135601240D03*
X198250260Y-127600240D03*
X199251020Y-127600240D03*
X200249240Y-127600240D03*
X201250000Y-127600240D03*
X199251020Y-128601000D03*
X200249240Y-128601000D03*
X201250000Y-128601000D03*
X202250760Y-127600240D03*
X202250760Y-128601000D03*
X202250760Y-129601760D03*
X202250760Y-130599980D03*
X202250760Y-131600740D03*
X202250760Y-132601500D03*
X202250760Y-133599720D03*
X202250760Y-134600480D03*
X202250760Y-135601240D03*
X198250260Y-132601500D03*
X198250260Y-131600740D03*
X198250260Y-130599980D03*
X198250260Y-129601760D03*
X199251020Y-129601760D03*
X199251020Y-130599980D03*
X199251020Y-131600740D03*
X199251020Y-132601500D03*
X203248980Y-135601240D03*
X203248980Y-134600480D03*
X203248980Y-133599720D03*
X203248980Y-132601500D03*
X203248980Y-131600740D03*
X203248980Y-130599980D03*
X203248980Y-129601760D03*
X203248980Y-128601000D03*
X203248980Y-127600240D03*
X204249740Y-127600240D03*
X204249740Y-128601000D03*
X204249740Y-129601760D03*
X204249740Y-130599980D03*
X204249740Y-131600740D03*
X204249740Y-132601500D03*
X204249740Y-133599720D03*
X204249740Y-134600480D03*
X204249740Y-135601240D03*
X200249240Y-132601500D03*
X200249240Y-131600740D03*
X200249240Y-130599980D03*
X200249240Y-129601760D03*
X201250000Y-129601760D03*
X201250000Y-130599980D03*
X201250000Y-131600740D03*
X201250000Y-132601500D03*
X205250500Y-135601240D03*
X205250500Y-134600480D03*
X205250500Y-133599720D03*
X205250500Y-132601500D03*
X205250500Y-131600740D03*
X205250500Y-130599980D03*
X205250500Y-129601760D03*
X205250500Y-128601000D03*
X205250500Y-127600240D03*
D23*
X179509300Y-146482824D03*
X180009300Y-146482824D03*
X180509300Y-146482824D03*
X179009300Y-146482824D03*
X178509300Y-146482824D03*
D24*
X177609300Y-147382824D03*
X177609300Y-147882824D03*
X177609300Y-148382824D03*
X177609300Y-148882824D03*
X177609300Y-149382824D03*
D23*
X178509300Y-150282824D03*
X179009300Y-150282824D03*
X179509300Y-150282824D03*
X180009300Y-150282824D03*
X180509300Y-150282824D03*
D24*
X181409300Y-149382824D03*
X181409300Y-148882824D03*
X181409300Y-148382824D03*
X181409300Y-147882824D03*
X181409300Y-147382824D03*
D25*
X179509300Y-148382824D03*
D26*
X243000000Y-128350000D03*
X244500000Y-128350000D03*
D27*
X242359811Y-110460819D03*
X242359811Y-110960819D03*
X242359811Y-111460819D03*
X242359811Y-111960819D03*
X242359811Y-112460819D03*
X242359811Y-112960819D03*
X242359811Y-113460819D03*
X242359811Y-113960819D03*
D28*
X244109811Y-115710819D03*
X244609811Y-115710819D03*
X245109811Y-115710819D03*
X245609811Y-115710819D03*
X246109811Y-115710819D03*
X246609811Y-115710819D03*
X247109811Y-115710819D03*
X247609811Y-115710819D03*
D27*
X249359811Y-113960819D03*
X249359811Y-113460819D03*
X249359811Y-112960819D03*
X249359811Y-112460819D03*
X249359811Y-111960819D03*
X249359811Y-111460819D03*
X249359811Y-110960819D03*
X249359811Y-110460819D03*
D28*
X247609811Y-108710819D03*
X247109811Y-108710819D03*
X246609811Y-108710819D03*
X246109811Y-108710819D03*
X245609811Y-108710819D03*
X245109811Y-108710819D03*
X244609811Y-108710819D03*
X244109811Y-108710819D03*
D29*
X232245000Y-112625000D03*
X233515000Y-112625000D03*
X234785000Y-112625000D03*
X236055000Y-112625000D03*
X236055000Y-118975000D03*
X234785000Y-118975000D03*
X233515000Y-118975000D03*
X232245000Y-118975000D03*
D30*
X238197376Y-132405088D03*
X238197376Y-133205088D03*
X238197376Y-134005088D03*
X238197376Y-134805088D03*
X238197376Y-135605088D03*
X238197376Y-136405088D03*
X238197376Y-137205088D03*
X238197376Y-138005088D03*
X238197376Y-138805088D03*
X238197376Y-139605088D03*
X238197376Y-140405088D03*
X237397376Y-132405088D03*
X237397376Y-133205088D03*
X237397376Y-134005088D03*
X237397376Y-134805088D03*
X237397376Y-135605088D03*
X237397376Y-136405088D03*
X237397376Y-137205088D03*
X237397376Y-138005088D03*
X237397376Y-138805088D03*
X237397376Y-139605088D03*
X237397376Y-140405088D03*
X236597376Y-132405088D03*
X236597376Y-133205088D03*
X236597376Y-134005088D03*
X236597376Y-134805088D03*
X236597376Y-135605088D03*
X236597376Y-136405088D03*
X236597376Y-137205088D03*
X236597376Y-138005088D03*
X236597376Y-138805088D03*
X236597376Y-139605088D03*
X236597376Y-140405088D03*
X235797376Y-132405088D03*
X235797376Y-133205088D03*
X235797376Y-134005088D03*
X235797376Y-134805088D03*
X235797376Y-135605088D03*
X235797376Y-136405088D03*
X235797376Y-137205088D03*
X235797376Y-138005088D03*
X235797376Y-138805088D03*
X235797376Y-139605088D03*
X235797376Y-140405088D03*
X234997376Y-132405088D03*
X234997376Y-133205088D03*
X234997376Y-134005088D03*
X234997376Y-134805088D03*
X234997376Y-135605088D03*
X234997376Y-136405088D03*
X234997376Y-137205088D03*
X234997376Y-138005088D03*
X234997376Y-138805088D03*
X234997376Y-139605088D03*
X234997376Y-140405088D03*
X234197376Y-132405088D03*
X234197376Y-133205088D03*
X234197376Y-134005088D03*
X234197376Y-134805088D03*
X234197376Y-135605088D03*
X234197376Y-136405088D03*
X234197376Y-137205088D03*
X234197376Y-138005088D03*
X234197376Y-138805088D03*
X234197376Y-139605088D03*
X234197376Y-140405088D03*
X233397376Y-132405088D03*
X233397376Y-133205088D03*
X233397376Y-134005088D03*
X233397376Y-134805088D03*
X233397376Y-135605088D03*
X233397376Y-136405088D03*
X233397376Y-137205088D03*
X233397376Y-138005088D03*
X233397376Y-138805088D03*
X233397376Y-139605088D03*
X233397376Y-140405088D03*
X232597376Y-132405088D03*
X232597376Y-133205088D03*
X232597376Y-134005088D03*
X232597376Y-134805088D03*
X232597376Y-135605088D03*
X232597376Y-136405088D03*
X232597376Y-137205088D03*
X232597376Y-138005088D03*
X232597376Y-138805088D03*
X232597376Y-139605088D03*
X232597376Y-140405088D03*
X231797376Y-132405088D03*
X231797376Y-133205088D03*
X231797376Y-134005088D03*
X231797376Y-134805088D03*
X231797376Y-135605088D03*
X231797376Y-136405088D03*
X231797376Y-137205088D03*
X231797376Y-138005088D03*
X231797376Y-138805088D03*
X231797376Y-139605088D03*
X231797376Y-140405088D03*
X230997376Y-132405088D03*
X230997376Y-133205088D03*
X230997376Y-134005088D03*
X230997376Y-134805088D03*
X230997376Y-135605088D03*
X230997376Y-136405088D03*
X230997376Y-137205088D03*
X230997376Y-138005088D03*
X230997376Y-138805088D03*
X230997376Y-139605088D03*
X230997376Y-140405088D03*
X230197376Y-132405088D03*
X230197376Y-133205088D03*
X230197376Y-134005088D03*
X230197376Y-134805088D03*
X230197376Y-135605088D03*
X230197376Y-136405088D03*
X230197376Y-137205088D03*
X230197376Y-138005088D03*
X230197376Y-138805088D03*
X230197376Y-139605088D03*
X230197376Y-140405088D03*
D31*
X222650000Y-147810000D03*
X222650000Y-150350000D03*
X220110000Y-150350000D03*
X220110000Y-147810000D03*
X215030000Y-147810000D03*
X212490000Y-147810000D03*
X212490000Y-150350000D03*
X215030000Y-150350000D03*
X217570000Y-150350000D03*
X217570000Y-147810000D03*
D17*
X259750000Y-100250000D03*
D18*
X262900000Y-101500000D03*
X267900000Y-101500000D03*
X267900000Y-99000000D03*
X262900000Y-99000000D03*
X265400000Y-99000000D03*
D17*
X271050000Y-100250000D03*
D32*
X269350000Y-137480000D03*
X269350000Y-149520000D03*
D33*
X264640000Y-144750000D03*
X264640000Y-142250000D03*
X266640000Y-142250000D03*
X266640000Y-144750000D03*
X262640000Y-139250000D03*
X262640000Y-141000000D03*
X262640000Y-143500000D03*
X262640000Y-146000000D03*
X262640000Y-147750000D03*
D34*
X218450000Y-112000000D03*
X217650000Y-112000000D03*
X216850000Y-112000000D03*
X213650000Y-112000000D03*
X212850000Y-112000000D03*
X212050000Y-112000000D03*
X218450000Y-112800000D03*
X217650000Y-112800000D03*
X216850000Y-112800000D03*
X213650000Y-112800000D03*
X212850000Y-112800000D03*
X212050000Y-112800000D03*
X218450000Y-113600000D03*
X217650000Y-113600000D03*
X216850000Y-113600000D03*
X213650000Y-113600000D03*
X212850000Y-113600000D03*
X212050000Y-113600000D03*
X218450000Y-114400000D03*
X217650000Y-114400000D03*
X216850000Y-114400000D03*
X213650000Y-114400000D03*
X212850000Y-114400000D03*
X212050000Y-114400000D03*
X218450000Y-115200000D03*
X217650000Y-115200000D03*
X216850000Y-115200000D03*
X213650000Y-115200000D03*
X212850000Y-115200000D03*
X212050000Y-115200000D03*
X218450000Y-116000000D03*
X217650000Y-116000000D03*
X216850000Y-116000000D03*
X213650000Y-116000000D03*
X212850000Y-116000000D03*
X212050000Y-116000000D03*
X218450000Y-116800000D03*
X217650000Y-116800000D03*
X216850000Y-116800000D03*
X213650000Y-116800000D03*
X212850000Y-116800000D03*
X212050000Y-116800000D03*
X218450000Y-117600000D03*
X217650000Y-117600000D03*
X216850000Y-117600000D03*
X213650000Y-117600000D03*
X212850000Y-117600000D03*
X212050000Y-117600000D03*
X218450000Y-118400000D03*
X217650000Y-118400000D03*
X216850000Y-118400000D03*
X213650000Y-118400000D03*
X212850000Y-118400000D03*
X217650000Y-119200000D03*
X216850000Y-119200000D03*
X213650000Y-119200000D03*
X212850000Y-119200000D03*
X217650000Y-120000000D03*
X216850000Y-120000000D03*
X213650000Y-120000000D03*
X212850000Y-120000000D03*
X217650000Y-120800000D03*
X216850000Y-120800000D03*
X213650000Y-120800000D03*
X212850000Y-120800000D03*
X217650000Y-121600000D03*
X216850000Y-121600000D03*
X213650000Y-121600000D03*
X212850000Y-121600000D03*
X217650000Y-122400000D03*
X216850000Y-122400000D03*
X213650000Y-122400000D03*
X212850000Y-122400000D03*
X217650000Y-123200000D03*
X216850000Y-123200000D03*
X213650000Y-123200000D03*
X212850000Y-123200000D03*
X212050000Y-123200000D03*
X212050000Y-121600000D03*
X212050000Y-120000000D03*
X212050000Y-118400000D03*
X218450000Y-119200000D03*
X218450000Y-120800000D03*
X218450000Y-122400000D03*
D26*
X242000000Y-139800000D03*
X243500000Y-139800000D03*
D35*
X216795000Y-139650000D03*
X217305000Y-139650000D03*
D36*
X191250000Y-137950000D03*
X191250000Y-139450000D03*
D37*
X132700000Y-128900000D03*
X134700000Y-128900000D03*
X136750000Y-124500000D03*
X134750000Y-124500000D03*
D38*
X117500000Y-104900000D03*
X117500000Y-106900000D03*
D37*
X117700000Y-108900000D03*
X115700000Y-108900000D03*
X150400000Y-111400000D03*
X152400000Y-111400000D03*
X132750000Y-126750000D03*
X134750000Y-126750000D03*
D38*
X119600000Y-122400000D03*
X119600000Y-120400000D03*
D37*
X121400000Y-117100000D03*
X123400000Y-117100000D03*
D38*
X109900000Y-114900000D03*
X109900000Y-116900000D03*
X108100000Y-131500000D03*
X108100000Y-133500000D03*
D37*
X134200000Y-109600000D03*
X132200000Y-109600000D03*
D39*
X117350000Y-131250000D03*
X118450000Y-131250000D03*
D26*
X185000000Y-144100000D03*
X186500000Y-144100000D03*
X185000000Y-147400000D03*
X186500000Y-147400000D03*
X181950000Y-145750000D03*
X183450000Y-145750000D03*
X185000000Y-145800000D03*
X186500000Y-145800000D03*
X182250000Y-151700000D03*
X183750000Y-151700000D03*
D40*
X233300000Y-149800000D03*
X233300000Y-148700000D03*
D36*
X231700000Y-150200000D03*
X231700000Y-148700000D03*
D26*
X243950000Y-132650000D03*
X245450000Y-132650000D03*
X248034245Y-135600000D03*
X246534245Y-135600000D03*
D37*
X157900000Y-148600000D03*
X159900000Y-148600000D03*
X161900000Y-152400000D03*
X163900000Y-152400000D03*
D38*
X163900000Y-147800000D03*
X163900000Y-145800000D03*
X171050000Y-140650000D03*
X171050000Y-138650000D03*
D37*
X158000000Y-152400000D03*
X160000000Y-152400000D03*
D38*
X173261446Y-140711304D03*
X173261446Y-138711304D03*
X171000000Y-147800000D03*
X171000000Y-145800000D03*
X163900000Y-140600000D03*
X163900000Y-138600000D03*
D26*
X210250000Y-108300000D03*
X211750000Y-108300000D03*
D37*
X201400000Y-108300000D03*
X203400000Y-108300000D03*
D26*
X251000000Y-115900000D03*
X249500000Y-115900000D03*
X172500000Y-105000000D03*
X171000000Y-105000000D03*
D36*
X173950000Y-99100000D03*
X173950000Y-97600000D03*
D26*
X179250000Y-124300000D03*
X180750000Y-124300000D03*
D39*
X248700000Y-105250000D03*
X249800000Y-105250000D03*
X240300000Y-109050000D03*
X241400000Y-109050000D03*
X248700000Y-106750000D03*
X249800000Y-106750000D03*
X247750000Y-103750000D03*
X248850000Y-103750000D03*
X214400000Y-104550000D03*
X213300000Y-104550000D03*
D40*
X242600000Y-106200000D03*
X242600000Y-105100000D03*
D39*
X207650000Y-103100000D03*
X206550000Y-103100000D03*
D41*
X183850000Y-125700000D03*
X182250000Y-125700000D03*
D42*
X241477926Y-129265268D03*
X241477926Y-130965268D03*
D43*
X242700000Y-137900000D03*
X241000000Y-137900000D03*
D20*
X108500000Y-126750000D03*
D14*
X95800000Y-131500000D03*
X103420000Y-131500000D03*
X113580000Y-131500000D03*
X113580000Y-121590000D03*
X103420000Y-121590000D03*
X95800000Y-121590000D03*
D31*
X229700000Y-112800000D03*
X227160000Y-112800000D03*
D44*
X178500000Y-126550000D03*
X178500000Y-128450000D03*
X180500000Y-127500000D03*
D45*
X197900000Y-96900000D03*
X196000000Y-96900000D03*
X196950000Y-98900000D03*
D44*
X152000000Y-124050000D03*
X152000000Y-125950000D03*
X154000000Y-125000000D03*
D46*
X134800000Y-141550000D03*
D47*
X133800000Y-144800000D03*
X135800000Y-144800000D03*
D48*
X159750000Y-144550000D03*
X159750000Y-145500000D03*
X159750000Y-146450000D03*
X161950000Y-146450000D03*
X161950000Y-144550000D03*
X166900000Y-137450000D03*
X166900000Y-138400000D03*
X166900000Y-139350000D03*
X169100000Y-139350000D03*
X169100000Y-137450000D03*
X166850000Y-144500000D03*
X166850000Y-145450000D03*
X166850000Y-146400000D03*
X169050000Y-146400000D03*
X169050000Y-144500000D03*
X159750000Y-137350000D03*
X159750000Y-138300000D03*
X159750000Y-139250000D03*
X161950000Y-139250000D03*
X161950000Y-137350000D03*
D49*
X169164680Y-106600000D03*
X169164680Y-107870000D03*
X169164680Y-109134920D03*
X169164680Y-110404920D03*
X174900000Y-110404920D03*
X174900000Y-109134920D03*
X174900000Y-107870000D03*
X174900000Y-106600000D03*
D50*
X236800000Y-145700000D03*
X236800000Y-143850000D03*
X239100000Y-143850000D03*
X239100000Y-145700000D03*
D35*
X214140000Y-138650000D03*
X214650000Y-138650000D03*
X214100000Y-131400000D03*
X214610000Y-131400000D03*
X214095000Y-137000000D03*
X214605000Y-137000000D03*
X211445000Y-133200000D03*
X211955000Y-133200000D03*
X211440000Y-130400000D03*
X211950000Y-130400000D03*
X211445000Y-140450000D03*
X211955000Y-140450000D03*
X216740000Y-135200000D03*
X217250000Y-135200000D03*
X216740000Y-129600000D03*
X217250000Y-129600000D03*
X216745000Y-131000000D03*
X217255000Y-131000000D03*
X214140000Y-141450000D03*
X214650000Y-141450000D03*
X211440000Y-136000000D03*
X211950000Y-136000000D03*
X214100000Y-134200000D03*
X214610000Y-134200000D03*
D26*
X245034245Y-136400000D03*
X243534245Y-136400000D03*
D41*
X269200000Y-107950000D03*
X267600000Y-107950000D03*
X269200000Y-112000000D03*
X267600000Y-112000000D03*
D32*
X102700000Y-150000000D03*
X102700000Y-137960000D03*
D33*
X107410000Y-142730000D03*
X107410000Y-145230000D03*
X105410000Y-145230000D03*
X105410000Y-142730000D03*
X109410000Y-148230000D03*
X109410000Y-146480000D03*
X109410000Y-143980000D03*
X109410000Y-141480000D03*
X109410000Y-139730000D03*
D31*
X243250000Y-150800000D03*
X245790000Y-150800000D03*
D51*
X240500000Y-120000000D03*
X240500000Y-120950000D03*
X240500000Y-121900000D03*
X242900000Y-121900000D03*
X242900000Y-120000000D03*
D37*
X137300000Y-119100000D03*
X135300000Y-119100000D03*
D40*
X249500000Y-131400000D03*
X249500000Y-130300000D03*
D39*
X246951230Y-130433278D03*
X248051230Y-130433278D03*
D52*
X180400000Y-101200000D03*
X179000000Y-101200000D03*
D36*
X186100000Y-133500000D03*
X186100000Y-132000000D03*
X199050000Y-138300000D03*
X199050000Y-136800000D03*
D26*
X186350000Y-136750004D03*
X187850000Y-136750004D03*
D53*
X260700000Y-111300000D03*
X255200000Y-111300000D03*
D54*
X255800000Y-122000000D03*
X255800000Y-121100000D03*
X254400000Y-122000000D03*
X254400000Y-121100000D03*
X202750000Y-140450000D03*
X202750000Y-139550000D03*
X107400000Y-140000000D03*
X107400000Y-140900000D03*
D21*
X239300000Y-111900000D03*
X240200000Y-111900000D03*
D54*
X233800000Y-122150000D03*
X233800000Y-123050000D03*
X228400000Y-104300000D03*
X228400000Y-103400000D03*
X239650000Y-107350000D03*
X239650000Y-106450000D03*
D21*
X251100000Y-103550000D03*
X252000000Y-103550000D03*
D54*
X237900000Y-110650000D03*
X237900000Y-109750000D03*
D21*
X251100000Y-106750000D03*
X252000000Y-106750000D03*
X251100000Y-105250000D03*
X252000000Y-105250000D03*
D54*
X241200000Y-106300000D03*
X241200000Y-105400000D03*
D21*
X240200000Y-110500000D03*
X239300000Y-110500000D03*
D54*
X245600000Y-105300000D03*
X245600000Y-106200000D03*
D21*
X209242409Y-103154529D03*
X210142409Y-103154529D03*
X246550000Y-96950000D03*
X245650000Y-96950000D03*
D54*
X212800000Y-103300000D03*
X212800000Y-102400000D03*
D21*
X248350000Y-96950000D03*
X249250000Y-96950000D03*
D54*
X214300000Y-103300000D03*
X214300000Y-102400000D03*
X244100000Y-106200000D03*
X244100000Y-105300000D03*
X248300000Y-102600000D03*
X248300000Y-101700000D03*
D21*
X209250000Y-104600000D03*
X210150000Y-104600000D03*
D54*
X215900000Y-104500000D03*
X215900000Y-103600000D03*
X246500000Y-125850000D03*
X246500000Y-126750000D03*
D17*
X207950000Y-100250000D03*
D18*
X211100000Y-101500000D03*
X216100000Y-101500000D03*
X216100000Y-99000000D03*
X211100000Y-99000000D03*
X213600000Y-99000000D03*
D17*
X219250000Y-100250000D03*
D55*
X149300000Y-114000000D03*
X150800000Y-114000000D03*
D56*
X113500000Y-115800000D03*
X113500000Y-117300000D03*
X110900000Y-133000000D03*
X110900000Y-134500000D03*
X137750000Y-103600000D03*
X137750000Y-102100000D03*
D55*
X185500000Y-105850000D03*
X187000000Y-105850000D03*
D57*
X187050000Y-97600000D03*
X186450000Y-102550000D03*
X171350000Y-97600000D03*
X171950000Y-102550000D03*
D38*
X137300000Y-129700000D03*
X137300000Y-127700000D03*
X132800000Y-123600000D03*
X132800000Y-121600000D03*
D58*
X125950000Y-116750000D03*
X129000000Y-116750000D03*
D37*
X114550000Y-126550000D03*
X116550000Y-126550000D03*
D58*
X125950000Y-113000000D03*
X129000000Y-113000000D03*
D38*
X118550000Y-127700000D03*
X118550000Y-129700000D03*
D44*
X129000000Y-140350000D03*
X129000000Y-142250000D03*
X131000000Y-141300000D03*
D54*
X113800000Y-106300000D03*
X113800000Y-107200000D03*
X115000000Y-123850000D03*
X115000000Y-124750000D03*
D59*
X123100000Y-121550000D03*
X123100000Y-122200000D03*
X123100000Y-122850000D03*
X123100000Y-123500000D03*
X123100000Y-124150000D03*
X123100000Y-124800000D03*
X123100000Y-125450000D03*
X123100000Y-126100000D03*
X123100000Y-126750000D03*
X123100000Y-127400000D03*
X123100000Y-128050000D03*
X123100000Y-128700000D03*
X123100000Y-129350000D03*
X123100000Y-130000000D03*
X130300000Y-130000000D03*
X130300000Y-129350000D03*
X130300000Y-128700000D03*
X130300000Y-128050000D03*
X130300000Y-127400000D03*
X130300000Y-126750000D03*
X130300000Y-126100000D03*
X130300000Y-125450000D03*
X130300000Y-124800000D03*
X130300000Y-124150000D03*
X130300000Y-123500000D03*
X130300000Y-122850000D03*
X130300000Y-122200000D03*
X130300000Y-121550000D03*
D54*
X152400000Y-113100000D03*
X152400000Y-114000000D03*
D21*
X110100000Y-113200000D03*
X111000000Y-113200000D03*
X110000000Y-131500000D03*
X110900000Y-131500000D03*
X136650000Y-106500000D03*
X135750000Y-106500000D03*
X120300000Y-128100000D03*
X121200000Y-128100000D03*
D54*
X112900000Y-126600000D03*
X112900000Y-127500000D03*
D21*
X145500000Y-116600000D03*
X146400000Y-116600000D03*
D54*
X142900000Y-113900000D03*
X142900000Y-113000000D03*
X131050000Y-144150000D03*
X131050000Y-145050000D03*
D21*
X183850000Y-124150000D03*
X184750000Y-124150000D03*
D54*
X218600000Y-126100000D03*
X218600000Y-125200000D03*
X205400000Y-106150000D03*
X205400000Y-105250000D03*
D21*
X228900000Y-109900000D03*
X228000000Y-109900000D03*
D54*
X232550000Y-123600000D03*
X232550000Y-124500000D03*
D21*
X240900000Y-145400000D03*
X241800000Y-145400000D03*
D54*
X242900000Y-131000000D03*
X242900000Y-130100000D03*
D21*
X241200000Y-115700000D03*
X242100000Y-115700000D03*
X243250000Y-117250000D03*
X244150000Y-117250000D03*
X172400000Y-112150000D03*
X171500000Y-112150000D03*
X168300000Y-111850000D03*
X169200000Y-111850000D03*
X159450000Y-116600000D03*
X158550000Y-116600000D03*
D54*
X134700000Y-121900000D03*
X134700000Y-122800000D03*
D21*
X181700000Y-101200000D03*
X182600000Y-101200000D03*
D54*
X176950000Y-100050000D03*
X176950000Y-100950000D03*
D21*
X174650000Y-101250000D03*
X175550000Y-101250000D03*
D54*
X116900000Y-111550000D03*
X116900000Y-110650000D03*
X193250000Y-100650000D03*
X193250000Y-99750000D03*
D60*
X205300000Y-109100000D03*
X206100000Y-109100000D03*
X206900000Y-109100000D03*
X207700000Y-109100000D03*
X208500000Y-109100000D03*
X208500000Y-108300000D03*
X208500000Y-107500000D03*
X207700000Y-107500000D03*
X206900000Y-107500000D03*
X206100000Y-107500000D03*
X205300000Y-107500000D03*
X205300000Y-108300000D03*
D31*
X199550000Y-147810000D03*
X199550000Y-150350000D03*
X197010000Y-150350000D03*
X197010000Y-147810000D03*
X191930000Y-147810000D03*
X189390000Y-147810000D03*
X189390000Y-150350000D03*
X191930000Y-150350000D03*
X194470000Y-150350000D03*
X194470000Y-147810000D03*
M02*
