G04 #@! TF.FileFunction,Paste,Top*
%FSLAX46Y46*%
G04 Gerber Fmt 4.6, Leading zero omitted, Abs format (unit mm)*
G04 Created by KiCad (PCBNEW 4.0.4-stable) date 03/28/17 10:50:41*
%MOMM*%
%LPD*%
G01*
G04 APERTURE LIST*
%ADD10C,0.125000*%
%ADD11R,0.647600X0.597600*%
%ADD12R,0.647600X0.647600*%
%ADD13R,0.597600X0.647600*%
%ADD14R,0.747600X0.347600*%
%ADD15R,0.247600X0.447600*%
%ADD16R,0.447600X0.347600*%
%ADD17R,5.347600X1.847600*%
%ADD18R,0.847600X1.097600*%
%ADD19R,1.597600X0.297600*%
%ADD20R,0.990600X0.101600*%
%ADD21R,0.101600X0.990600*%
%ADD22R,1.647600X1.847600*%
%ADD23R,1.097600X0.847600*%
%ADD24C,0.347980*%
%ADD25R,0.647600X0.447600*%
%ADD26C,0.200000*%
%ADD27R,0.347600X0.347600*%
%ADD28R,0.447600X0.247600*%
%ADD29R,0.747600X0.647600*%
%ADD30R,0.347600X0.747600*%
%ADD31R,0.547600X0.447600*%
%ADD32R,0.347600X0.447600*%
%ADD33R,0.847600X0.547600*%
%ADD34R,0.907600X0.497600*%
%ADD35R,0.497600X0.907600*%
%ADD36R,1.447600X1.347600*%
%ADD37R,1.047600X1.047600*%
%ADD38C,0.197600*%
%ADD39R,0.047600X0.247600*%
%ADD40R,1.547600X1.547600*%
%ADD41R,0.247600X0.047600*%
%ADD42R,1.547600X0.497600*%
%ADD43R,0.947600X0.247600*%
%ADD44R,0.847600X0.847600*%
%ADD45C,0.110000*%
%ADD46R,1.797600X2.347600*%
G04 APERTURE END LIST*
D10*
D11*
X177900000Y-143500000D03*
X179400000Y-143500000D03*
D12*
X268100000Y-112200000D03*
X266500000Y-112200000D03*
D13*
X114000000Y-132350000D03*
X114000000Y-133850000D03*
D14*
X116800000Y-133600000D03*
X116800000Y-135100000D03*
D15*
X115900000Y-132100000D03*
X116800000Y-132100000D03*
D16*
X128650000Y-126350000D03*
X127550000Y-126350000D03*
D17*
X117500000Y-145500000D03*
X127000000Y-145500000D03*
D18*
X164900000Y-138750000D03*
X166900000Y-138750000D03*
D19*
X133100000Y-137150000D03*
X133100000Y-136500000D03*
X133100000Y-135850000D03*
X133100000Y-135200000D03*
X133100000Y-134550000D03*
X133100000Y-133900000D03*
X133100000Y-133250000D03*
X133100000Y-132600000D03*
X133100000Y-131950000D03*
X133100000Y-131300000D03*
X133100000Y-130650000D03*
X133100000Y-130000000D03*
X133100000Y-129350000D03*
X133100000Y-128700000D03*
X125900000Y-128700000D03*
X125900000Y-129350000D03*
X125900000Y-130000000D03*
X125900000Y-130650000D03*
X125900000Y-131300000D03*
X125900000Y-131950000D03*
X125900000Y-132600000D03*
X125900000Y-133250000D03*
X125900000Y-133900000D03*
X125900000Y-134550000D03*
X125900000Y-135200000D03*
X125900000Y-135850000D03*
X125900000Y-136500000D03*
X125900000Y-137150000D03*
D20*
X242363633Y-110449939D03*
X242363633Y-110949939D03*
X242363633Y-111449939D03*
X242363633Y-111949939D03*
X242363633Y-112449939D03*
X242363633Y-112949939D03*
X242363633Y-113449939D03*
X242363633Y-113949939D03*
D21*
X244113633Y-115699939D03*
X244613633Y-115699939D03*
X245113633Y-115699939D03*
X245613633Y-115699939D03*
X246113633Y-115699939D03*
X246613633Y-115699939D03*
X247113633Y-115699939D03*
X247613633Y-115699939D03*
D20*
X249363633Y-113949939D03*
X249363633Y-113449939D03*
X249363633Y-112949939D03*
X249363633Y-112449939D03*
X249363633Y-111949939D03*
X249363633Y-111449939D03*
X249363633Y-110949939D03*
X249363633Y-110449939D03*
D21*
X247613633Y-108699939D03*
X247113633Y-108699939D03*
X246613633Y-108699939D03*
X246113633Y-108699939D03*
X245613633Y-108699939D03*
X245113633Y-108699939D03*
X244613633Y-108699939D03*
X244113633Y-108699939D03*
D22*
X177100000Y-119850000D03*
X177100000Y-124050000D03*
X172020000Y-119850000D03*
X172020000Y-124050000D03*
D11*
X244400000Y-138100000D03*
X245900000Y-138100000D03*
X121750000Y-128150000D03*
X123250000Y-128150000D03*
D23*
X123200000Y-132200000D03*
X123200000Y-130200000D03*
D24*
X190249260Y-120600000D03*
X191250020Y-120600000D03*
X192250780Y-120600000D03*
X193249000Y-120600000D03*
X194249760Y-120600000D03*
X195250520Y-120600000D03*
X196248740Y-120600000D03*
X197249500Y-120600000D03*
X198250260Y-120600000D03*
X199251020Y-120600000D03*
X200249240Y-120600000D03*
X201250000Y-120600000D03*
X202250760Y-120600000D03*
X203248980Y-120600000D03*
X204249740Y-120600000D03*
X205250500Y-120600000D03*
X190249260Y-121600760D03*
X190249260Y-122601520D03*
X190249260Y-123599740D03*
X190249260Y-124600500D03*
X190249260Y-125601260D03*
X190249260Y-126599480D03*
X190249260Y-127600240D03*
X190249260Y-128601000D03*
X205250500Y-121600760D03*
X204249740Y-121600760D03*
X203248980Y-121600760D03*
X202250760Y-121600760D03*
X201250000Y-121600760D03*
X200249240Y-121600760D03*
X199251020Y-121600760D03*
X198250260Y-121600760D03*
X197249500Y-121600760D03*
X196248740Y-121600760D03*
X195250520Y-121600760D03*
X194249760Y-121600760D03*
X191250020Y-121600760D03*
X192250780Y-121600760D03*
X193249000Y-121600760D03*
X191250020Y-122601520D03*
X192250780Y-122601520D03*
X193249000Y-122601520D03*
X194249760Y-122601520D03*
X195250520Y-122601520D03*
X196248740Y-122601520D03*
X197249500Y-122601520D03*
X198250260Y-122601520D03*
X191250020Y-123599740D03*
X192250780Y-123599740D03*
X193249000Y-123599740D03*
X194249760Y-123599740D03*
X195250520Y-123599740D03*
X196248740Y-123599740D03*
X197249500Y-123599740D03*
X198250260Y-123599740D03*
X191250020Y-124600500D03*
X192250780Y-124600500D03*
X193249000Y-124600500D03*
X199251020Y-122601520D03*
X199251020Y-123599740D03*
X200249240Y-122601520D03*
X200249240Y-123599740D03*
X201250000Y-123599740D03*
X201250000Y-122601520D03*
X202250760Y-122601520D03*
X203248980Y-122601520D03*
X203248980Y-123599740D03*
X202250760Y-123599740D03*
X204249740Y-122601520D03*
X204249740Y-123599740D03*
X205250500Y-123599740D03*
X205250500Y-122601520D03*
X202250760Y-124600500D03*
X202250760Y-125601260D03*
X202250760Y-126599480D03*
X203248980Y-126599480D03*
X203248980Y-125601260D03*
X203248980Y-124600500D03*
X204249740Y-124600500D03*
X204249740Y-125601260D03*
X204249740Y-126599480D03*
X205250500Y-126599480D03*
X205250500Y-125601260D03*
X205250500Y-124600500D03*
X191250020Y-125601260D03*
X192250780Y-125601260D03*
X193249000Y-125601260D03*
X193249000Y-126599480D03*
X192250780Y-126599480D03*
X191250020Y-126599480D03*
X191250020Y-127600240D03*
X192250780Y-127600240D03*
X193249000Y-127600240D03*
X193249000Y-128601000D03*
X192250780Y-128601000D03*
X191250020Y-128601000D03*
X190249260Y-129601760D03*
X191250020Y-129601760D03*
X192250780Y-129601760D03*
X193249000Y-129601760D03*
X193249000Y-130599980D03*
X192250780Y-130599980D03*
X191250020Y-130599980D03*
X190249260Y-130599980D03*
X190249260Y-131600740D03*
X191250020Y-131600740D03*
X192250780Y-131600740D03*
X193249000Y-131600740D03*
X193249000Y-132601500D03*
X193249000Y-133599720D03*
X193249000Y-134600480D03*
X192250780Y-134600480D03*
X192250780Y-133599720D03*
X192250780Y-132601500D03*
X191250020Y-132601500D03*
X191250020Y-133599720D03*
X191250020Y-134600480D03*
X190249260Y-132601500D03*
X190249260Y-133599720D03*
X190249260Y-134600480D03*
X190249260Y-135601240D03*
X191250020Y-135601240D03*
X192250780Y-135601240D03*
X193249000Y-135601240D03*
X197249500Y-124600500D03*
X196248740Y-124600500D03*
X195250520Y-124600500D03*
X194249760Y-124600500D03*
X194249760Y-125601260D03*
X195250520Y-125601260D03*
X196248740Y-125601260D03*
X197249500Y-125601260D03*
X194249760Y-126599480D03*
X195250520Y-126599480D03*
X196248740Y-126599480D03*
X197249500Y-126599480D03*
X194249760Y-127600240D03*
X195250520Y-127600240D03*
X196248740Y-127600240D03*
X197249500Y-127600240D03*
X194249760Y-128601000D03*
X195250520Y-128601000D03*
X196248740Y-128601000D03*
X197249500Y-128601000D03*
X194249760Y-129601760D03*
X195250520Y-129601760D03*
X196248740Y-129601760D03*
X197249500Y-129601760D03*
X194249760Y-130599980D03*
X195250520Y-130599980D03*
X196248740Y-130599980D03*
X197249500Y-130599980D03*
X194249760Y-131600740D03*
X195250520Y-131600740D03*
X196248740Y-131600740D03*
X194249760Y-133599720D03*
X195250520Y-133599720D03*
X194249760Y-134600480D03*
X195250520Y-134600480D03*
X194249760Y-135601240D03*
X195250520Y-135601240D03*
X197249500Y-131600740D03*
X194249760Y-132601500D03*
X195250520Y-132601500D03*
X196248740Y-132601500D03*
X200249240Y-133599720D03*
X199251020Y-133599720D03*
X198250260Y-133599720D03*
X197249500Y-133599720D03*
X196248740Y-133599720D03*
X196248740Y-134600480D03*
X197249500Y-134600480D03*
X198250260Y-134600480D03*
X199251020Y-134600480D03*
X200249240Y-134600480D03*
X196248740Y-135601240D03*
X197249500Y-135601240D03*
X198250260Y-135601240D03*
X199251020Y-135601240D03*
X200249240Y-135601240D03*
X197249500Y-132601500D03*
X198250260Y-124600500D03*
X199251020Y-124600500D03*
X200249240Y-124600500D03*
X201250000Y-124600500D03*
X201250000Y-133599720D03*
X198250260Y-125601260D03*
X199251020Y-125601260D03*
X200249240Y-125601260D03*
X201250000Y-125601260D03*
X198250260Y-128601000D03*
X201250000Y-126599480D03*
X200249240Y-126599480D03*
X199251020Y-126599480D03*
X198250260Y-126599480D03*
X201250000Y-134600480D03*
X201250000Y-135601240D03*
X198250260Y-127600240D03*
X199251020Y-127600240D03*
X200249240Y-127600240D03*
X201250000Y-127600240D03*
X199251020Y-128601000D03*
X200249240Y-128601000D03*
X201250000Y-128601000D03*
X202250760Y-127600240D03*
X202250760Y-128601000D03*
X202250760Y-129601760D03*
X202250760Y-130599980D03*
X202250760Y-131600740D03*
X202250760Y-132601500D03*
X202250760Y-133599720D03*
X202250760Y-134600480D03*
X202250760Y-135601240D03*
X198250260Y-132601500D03*
X198250260Y-131600740D03*
X198250260Y-130599980D03*
X198250260Y-129601760D03*
X199251020Y-129601760D03*
X199251020Y-130599980D03*
X199251020Y-131600740D03*
X199251020Y-132601500D03*
X203248980Y-135601240D03*
X203248980Y-134600480D03*
X203248980Y-133599720D03*
X203248980Y-132601500D03*
X203248980Y-131600740D03*
X203248980Y-130599980D03*
X203248980Y-129601760D03*
X203248980Y-128601000D03*
X203248980Y-127600240D03*
X204249740Y-127600240D03*
X204249740Y-128601000D03*
X204249740Y-129601760D03*
X204249740Y-130599980D03*
X204249740Y-131600740D03*
X204249740Y-132601500D03*
X204249740Y-133599720D03*
X204249740Y-134600480D03*
X204249740Y-135601240D03*
X200249240Y-132601500D03*
X200249240Y-131600740D03*
X200249240Y-130599980D03*
X200249240Y-129601760D03*
X201250000Y-129601760D03*
X201250000Y-130599980D03*
X201250000Y-131600740D03*
X201250000Y-132601500D03*
X205250500Y-135601240D03*
X205250500Y-134600480D03*
X205250500Y-133599720D03*
X205250500Y-132601500D03*
X205250500Y-131600740D03*
X205250500Y-130599980D03*
X205250500Y-129601760D03*
X205250500Y-128601000D03*
X205250500Y-127600240D03*
D25*
X241477926Y-128600000D03*
X241477926Y-130300000D03*
D26*
X238197376Y-132405088D03*
X238197376Y-133205088D03*
X238197376Y-134005088D03*
X238197376Y-134805088D03*
X238197376Y-135605088D03*
X238197376Y-136405088D03*
X238197376Y-137205088D03*
X238197376Y-138005088D03*
X238197376Y-138805088D03*
X238197376Y-139605088D03*
X238197376Y-140405088D03*
X237397376Y-132405088D03*
X237397376Y-133205088D03*
X237397376Y-134005088D03*
X237397376Y-134805088D03*
X237397376Y-135605088D03*
X237397376Y-136405088D03*
X237397376Y-137205088D03*
X237397376Y-138005088D03*
X237397376Y-138805088D03*
X237397376Y-139605088D03*
X237397376Y-140405088D03*
X236597376Y-132405088D03*
X236597376Y-133205088D03*
X236597376Y-134005088D03*
X236597376Y-134805088D03*
X236597376Y-135605088D03*
X236597376Y-136405088D03*
X236597376Y-137205088D03*
X236597376Y-138005088D03*
X236597376Y-138805088D03*
X236597376Y-139605088D03*
X236597376Y-140405088D03*
X235797376Y-132405088D03*
X235797376Y-133205088D03*
X235797376Y-134005088D03*
X235797376Y-134805088D03*
X235797376Y-135605088D03*
X235797376Y-136405088D03*
X235797376Y-137205088D03*
X235797376Y-138005088D03*
X235797376Y-138805088D03*
X235797376Y-139605088D03*
X235797376Y-140405088D03*
X234997376Y-132405088D03*
X234997376Y-133205088D03*
X234997376Y-134005088D03*
X234997376Y-134805088D03*
X234997376Y-135605088D03*
X234997376Y-136405088D03*
X234997376Y-137205088D03*
X234997376Y-138005088D03*
X234997376Y-138805088D03*
X234997376Y-139605088D03*
X234997376Y-140405088D03*
X234197376Y-132405088D03*
X234197376Y-133205088D03*
X234197376Y-134005088D03*
X234197376Y-134805088D03*
X234197376Y-135605088D03*
X234197376Y-136405088D03*
X234197376Y-137205088D03*
X234197376Y-138005088D03*
X234197376Y-138805088D03*
X234197376Y-139605088D03*
X234197376Y-140405088D03*
X233397376Y-132405088D03*
X233397376Y-133205088D03*
X233397376Y-134005088D03*
X233397376Y-134805088D03*
X233397376Y-135605088D03*
X233397376Y-136405088D03*
X233397376Y-137205088D03*
X233397376Y-138005088D03*
X233397376Y-138805088D03*
X233397376Y-139605088D03*
X233397376Y-140405088D03*
X232597376Y-132405088D03*
X232597376Y-133205088D03*
X232597376Y-134005088D03*
X232597376Y-134805088D03*
X232597376Y-135605088D03*
X232597376Y-136405088D03*
X232597376Y-137205088D03*
X232597376Y-138005088D03*
X232597376Y-138805088D03*
X232597376Y-139605088D03*
X232597376Y-140405088D03*
X231797376Y-132405088D03*
X231797376Y-133205088D03*
X231797376Y-134005088D03*
X231797376Y-134805088D03*
X231797376Y-135605088D03*
X231797376Y-136405088D03*
X231797376Y-137205088D03*
X231797376Y-138005088D03*
X231797376Y-138805088D03*
X231797376Y-139605088D03*
X231797376Y-140405088D03*
X230997376Y-132405088D03*
X230997376Y-133205088D03*
X230997376Y-134005088D03*
X230997376Y-134805088D03*
X230997376Y-135605088D03*
X230997376Y-136405088D03*
X230997376Y-137205088D03*
X230997376Y-138005088D03*
X230997376Y-138805088D03*
X230997376Y-139605088D03*
X230997376Y-140405088D03*
X230197376Y-132405088D03*
X230197376Y-133205088D03*
X230197376Y-134005088D03*
X230197376Y-134805088D03*
X230197376Y-135605088D03*
X230197376Y-136405088D03*
X230197376Y-137205088D03*
X230197376Y-138005088D03*
X230197376Y-138805088D03*
X230197376Y-139605088D03*
X230197376Y-140405088D03*
D27*
X205300000Y-109100000D03*
X206100000Y-109100000D03*
X206900000Y-109100000D03*
X207700000Y-109100000D03*
X208500000Y-109100000D03*
X208500000Y-108300000D03*
X208500000Y-107500000D03*
X207700000Y-107500000D03*
X206900000Y-107500000D03*
X206100000Y-107500000D03*
X205300000Y-107500000D03*
X205300000Y-108300000D03*
D15*
X192350000Y-96500000D03*
X193250000Y-96500000D03*
D28*
X123100000Y-111450000D03*
X123100000Y-110550000D03*
D15*
X174650000Y-101100000D03*
X175550000Y-101100000D03*
D28*
X177900000Y-99900000D03*
X177900000Y-100800000D03*
X178600000Y-107800000D03*
X178600000Y-108700000D03*
X134700000Y-121900000D03*
X134700000Y-122800000D03*
D15*
X159250000Y-119800000D03*
X158350000Y-119800000D03*
X168875000Y-112025000D03*
X169775000Y-112025000D03*
X172400000Y-111850000D03*
X171500000Y-111850000D03*
D28*
X262100000Y-109950000D03*
X262100000Y-109050000D03*
D15*
X243250000Y-117250000D03*
X244150000Y-117250000D03*
X241200000Y-115700000D03*
X242100000Y-115700000D03*
X246900000Y-132400000D03*
X247800000Y-132400000D03*
X240900000Y-145400000D03*
X241800000Y-145400000D03*
D28*
X232550000Y-123600000D03*
X232550000Y-124500000D03*
D15*
X228900000Y-109900000D03*
X228000000Y-109900000D03*
D28*
X205400000Y-106150000D03*
X205400000Y-105250000D03*
X218600000Y-126100000D03*
X218600000Y-125200000D03*
D15*
X183850000Y-124150000D03*
X184750000Y-124150000D03*
D28*
X131050000Y-144150000D03*
X131050000Y-145050000D03*
D15*
X136250000Y-115000000D03*
X137150000Y-115000000D03*
X140450000Y-115000000D03*
X139550000Y-115000000D03*
D28*
X118500000Y-125000000D03*
X118500000Y-125900000D03*
X138000000Y-105300000D03*
X138000000Y-106200000D03*
X117050000Y-110950000D03*
X117050000Y-111850000D03*
X156300000Y-113900000D03*
X156300000Y-114800000D03*
X117500000Y-122550000D03*
X117500000Y-123450000D03*
X120000000Y-106200000D03*
X120000000Y-107100000D03*
D29*
X129000000Y-140350000D03*
X129000000Y-142250000D03*
X131000000Y-141300000D03*
D18*
X137431561Y-127927129D03*
X135431561Y-127927129D03*
D14*
X182550000Y-106000000D03*
X182550000Y-104500000D03*
D30*
X139500000Y-106750000D03*
X141000000Y-106750000D03*
D14*
X119700000Y-116150000D03*
X119700000Y-117650000D03*
X152200000Y-119850000D03*
X152200000Y-118350000D03*
D15*
X252750000Y-127200000D03*
X253650000Y-127200000D03*
D28*
X246500000Y-125850000D03*
X246500000Y-126750000D03*
X215900000Y-104500000D03*
X215900000Y-103600000D03*
D15*
X209250000Y-104600000D03*
X210150000Y-104600000D03*
D28*
X248300000Y-102600000D03*
X248300000Y-101700000D03*
X244100000Y-106200000D03*
X244100000Y-105300000D03*
X214300000Y-103300000D03*
X214300000Y-102400000D03*
D15*
X248350000Y-96950000D03*
X249250000Y-96950000D03*
D28*
X212800000Y-103300000D03*
X212800000Y-102400000D03*
D15*
X246550000Y-96950000D03*
X245650000Y-96950000D03*
X215000000Y-106000000D03*
X214100000Y-106000000D03*
D28*
X245600000Y-105300000D03*
X245600000Y-106200000D03*
X236125000Y-103050000D03*
X236125000Y-103950000D03*
X241200000Y-106300000D03*
X241200000Y-105400000D03*
D15*
X251100000Y-105250000D03*
X252000000Y-105250000D03*
X251100000Y-106750000D03*
X252000000Y-106750000D03*
X234800000Y-103200000D03*
X233900000Y-103200000D03*
X251100000Y-103550000D03*
X252000000Y-103550000D03*
D28*
X239650000Y-107350000D03*
X239650000Y-106450000D03*
D15*
X259050000Y-103200000D03*
X259950000Y-103200000D03*
D28*
X228400000Y-104300000D03*
X228400000Y-103400000D03*
X261950000Y-103850000D03*
X261950000Y-102950000D03*
X233800000Y-122150000D03*
X233800000Y-123050000D03*
D15*
X238964904Y-109299118D03*
X238064904Y-109299118D03*
D28*
X107400000Y-139000000D03*
X107400000Y-139900000D03*
X202750000Y-140450000D03*
X202750000Y-139550000D03*
X254400000Y-122000000D03*
X254400000Y-121100000D03*
X255800000Y-122000000D03*
X255800000Y-121100000D03*
D13*
X187928849Y-133511389D03*
X187928849Y-132011389D03*
D11*
X199300000Y-139500000D03*
X197800000Y-139500000D03*
D13*
X186100000Y-133500000D03*
X186100000Y-132000000D03*
D31*
X178600000Y-106300000D03*
X178600000Y-104900000D03*
D32*
X246300000Y-129450000D03*
X246300000Y-128350000D03*
X254800000Y-132000000D03*
X254800000Y-130900000D03*
D18*
X208900000Y-114950000D03*
X206900000Y-114950000D03*
D33*
X240500000Y-120000000D03*
X240500000Y-120950000D03*
X240500000Y-121900000D03*
X242900000Y-121900000D03*
X242900000Y-120000000D03*
D12*
X261100000Y-112250000D03*
X259500000Y-112250000D03*
D11*
X245050000Y-136600000D03*
X243550000Y-136600000D03*
D34*
X166950000Y-142500000D03*
X166950000Y-143450000D03*
X166950000Y-144400000D03*
X169150000Y-144400000D03*
X169150000Y-142500000D03*
X188650000Y-144800000D03*
X188650000Y-145750000D03*
X188650000Y-146700000D03*
X190850000Y-146700000D03*
X190850000Y-144800000D03*
D35*
X179850000Y-131700000D03*
X178900000Y-131700000D03*
X177950000Y-131700000D03*
X177950000Y-133900000D03*
X179850000Y-133900000D03*
D34*
X166950000Y-134700000D03*
X166950000Y-135650000D03*
X166950000Y-136600000D03*
X169150000Y-136600000D03*
X169150000Y-134700000D03*
D36*
X139000000Y-143700000D03*
D37*
X140000000Y-140450000D03*
X138000000Y-140450000D03*
D29*
X152000000Y-124050000D03*
X152000000Y-125950000D03*
X154000000Y-125000000D03*
X204200000Y-99600000D03*
X204200000Y-97700000D03*
X202200000Y-98650000D03*
X178500000Y-126550000D03*
X178500000Y-128450000D03*
X180500000Y-127500000D03*
D25*
X241750000Y-143800000D03*
X241750000Y-142100000D03*
D12*
X183850000Y-125700000D03*
X182250000Y-125700000D03*
D16*
X207650000Y-103100000D03*
X206550000Y-103100000D03*
D32*
X242600000Y-106200000D03*
X242600000Y-105100000D03*
D16*
X214400000Y-104550000D03*
X213300000Y-104550000D03*
X247750000Y-103750000D03*
X248850000Y-103750000D03*
X248700000Y-106750000D03*
X249800000Y-106750000D03*
X237525000Y-103150000D03*
X238625000Y-103150000D03*
X248700000Y-105250000D03*
X249800000Y-105250000D03*
D11*
X175500000Y-97900000D03*
X174000000Y-97900000D03*
X251000000Y-115900000D03*
X249500000Y-115900000D03*
D18*
X201400000Y-108300000D03*
X203400000Y-108300000D03*
D11*
X210250000Y-108300000D03*
X211750000Y-108300000D03*
D23*
X171100000Y-145750000D03*
X171100000Y-143750000D03*
X192800000Y-148100000D03*
X192800000Y-146100000D03*
X184161446Y-131800000D03*
X184161446Y-133800000D03*
D18*
X186900000Y-149250000D03*
X188900000Y-149250000D03*
D23*
X184150000Y-138050000D03*
X184150000Y-136050000D03*
X171100000Y-137950000D03*
X171100000Y-135950000D03*
D18*
X190400000Y-151950000D03*
X192400000Y-151950000D03*
D11*
X245050000Y-135000000D03*
X243550000Y-135000000D03*
X243950000Y-132650000D03*
X245450000Y-132650000D03*
D13*
X231700000Y-150200000D03*
X231700000Y-148700000D03*
D32*
X233300000Y-149800000D03*
X233300000Y-148700000D03*
D11*
X182250000Y-151700000D03*
X183750000Y-151700000D03*
D13*
X186797637Y-147349757D03*
X186797637Y-145849757D03*
D11*
X181950000Y-145750000D03*
X183450000Y-145750000D03*
X181500000Y-144100000D03*
X183000000Y-144100000D03*
D32*
X135350000Y-130900000D03*
X135350000Y-129800000D03*
D18*
X136200000Y-137900000D03*
X138200000Y-137900000D03*
D23*
X123700000Y-104800000D03*
X123700000Y-106800000D03*
D18*
X136750000Y-124500000D03*
X134750000Y-124500000D03*
D13*
X191250000Y-137950000D03*
X191250000Y-139450000D03*
D38*
X218450000Y-112000000D03*
X217650000Y-112000000D03*
X216850000Y-112000000D03*
X213650000Y-112000000D03*
X212850000Y-112000000D03*
X212050000Y-112000000D03*
X218450000Y-112800000D03*
X217650000Y-112800000D03*
X216850000Y-112800000D03*
X213650000Y-112800000D03*
X212850000Y-112800000D03*
X212050000Y-112800000D03*
X218450000Y-113600000D03*
X217650000Y-113600000D03*
X216850000Y-113600000D03*
X213650000Y-113600000D03*
X212850000Y-113600000D03*
X212050000Y-113600000D03*
X218450000Y-114400000D03*
X217650000Y-114400000D03*
X216850000Y-114400000D03*
X213650000Y-114400000D03*
X212850000Y-114400000D03*
X212050000Y-114400000D03*
X218450000Y-115200000D03*
X217650000Y-115200000D03*
X216850000Y-115200000D03*
X213650000Y-115200000D03*
X212850000Y-115200000D03*
X212050000Y-115200000D03*
X218450000Y-116000000D03*
X217650000Y-116000000D03*
X216850000Y-116000000D03*
X213650000Y-116000000D03*
X212850000Y-116000000D03*
X212050000Y-116000000D03*
X218450000Y-116800000D03*
X217650000Y-116800000D03*
X216850000Y-116800000D03*
X213650000Y-116800000D03*
X212850000Y-116800000D03*
X212050000Y-116800000D03*
X218450000Y-117600000D03*
X217650000Y-117600000D03*
X216850000Y-117600000D03*
X213650000Y-117600000D03*
X212850000Y-117600000D03*
X212050000Y-117600000D03*
X218450000Y-118400000D03*
X217650000Y-118400000D03*
X216850000Y-118400000D03*
X213650000Y-118400000D03*
X212850000Y-118400000D03*
X217650000Y-119200000D03*
X216850000Y-119200000D03*
X213650000Y-119200000D03*
X212850000Y-119200000D03*
X217650000Y-120000000D03*
X216850000Y-120000000D03*
X213650000Y-120000000D03*
X212850000Y-120000000D03*
X217650000Y-120800000D03*
X216850000Y-120800000D03*
X213650000Y-120800000D03*
X212850000Y-120800000D03*
X217650000Y-121600000D03*
X216850000Y-121600000D03*
X213650000Y-121600000D03*
X212850000Y-121600000D03*
X217650000Y-122400000D03*
X216850000Y-122400000D03*
X213650000Y-122400000D03*
X212850000Y-122400000D03*
X217650000Y-123200000D03*
X216850000Y-123200000D03*
X213650000Y-123200000D03*
X212850000Y-123200000D03*
X212050000Y-123200000D03*
X212050000Y-121600000D03*
X212050000Y-120000000D03*
X212050000Y-118400000D03*
X218450000Y-119200000D03*
X218450000Y-120800000D03*
X218450000Y-122400000D03*
D11*
X243000000Y-128350000D03*
X244500000Y-128350000D03*
D15*
X159400000Y-106400000D03*
X158500000Y-106400000D03*
D39*
X179909300Y-147082824D03*
D40*
X179509300Y-148382824D03*
D39*
X180309300Y-147082824D03*
X179509300Y-147082824D03*
X179109300Y-147082824D03*
X178709300Y-147082824D03*
D41*
X180809300Y-147582824D03*
X180809300Y-147982824D03*
X180809300Y-148382824D03*
X180809300Y-148782824D03*
X180809300Y-149182824D03*
X178209300Y-147582824D03*
X178209300Y-147982824D03*
X178209300Y-148382824D03*
X178209300Y-148782824D03*
X178209300Y-149182824D03*
D39*
X179909300Y-149682824D03*
X178709300Y-149682824D03*
X179109300Y-149682824D03*
X179509300Y-149682824D03*
X180309300Y-149682824D03*
D16*
X123450000Y-108800000D03*
X122350000Y-108800000D03*
D13*
X158100000Y-115400000D03*
X158100000Y-113900000D03*
D16*
X126200000Y-123950000D03*
X127300000Y-123950000D03*
D13*
X136800000Y-134750000D03*
X136800000Y-133250000D03*
X119000000Y-108900000D03*
X119000000Y-110400000D03*
D11*
X137800000Y-103700000D03*
X136300000Y-103700000D03*
X138051406Y-121797434D03*
X136551406Y-121797434D03*
D32*
X120400000Y-124750000D03*
X120400000Y-125850000D03*
D28*
X123800000Y-133950000D03*
X123800000Y-134850000D03*
D42*
X232000000Y-111260000D03*
X232000000Y-112530000D03*
X232000000Y-113800000D03*
X232000000Y-115070000D03*
X239300000Y-115070000D03*
X239300000Y-113800000D03*
X239300000Y-112530000D03*
X239300000Y-111260000D03*
D43*
X169700000Y-107490000D03*
X169700000Y-108140000D03*
X169700000Y-108790000D03*
X169700000Y-109440000D03*
X174000000Y-109440000D03*
X174000000Y-108790000D03*
X174000000Y-108140000D03*
X174000000Y-107490000D03*
D44*
X238150000Y-143925000D03*
X236250000Y-143925000D03*
X238150000Y-145225000D03*
X236250000Y-145225000D03*
D32*
X129250000Y-148600000D03*
X129250000Y-147500000D03*
X115250000Y-147500000D03*
X115250000Y-148600000D03*
D15*
X211250000Y-139050000D03*
X212150000Y-139050000D03*
X216550000Y-132400000D03*
X217450000Y-132400000D03*
X213905000Y-131400000D03*
X214805000Y-131400000D03*
X211255000Y-141850000D03*
X212155000Y-141850000D03*
X216600000Y-138250000D03*
X217500000Y-138250000D03*
X213900000Y-137000000D03*
X214800000Y-137000000D03*
X211250000Y-133200000D03*
X212150000Y-133200000D03*
X211245000Y-130400000D03*
X212145000Y-130400000D03*
X216600000Y-141050000D03*
X217500000Y-141050000D03*
X216545000Y-135200000D03*
X217445000Y-135200000D03*
X216545000Y-129600000D03*
X217445000Y-129600000D03*
X213945000Y-140050000D03*
X214845000Y-140050000D03*
X211245000Y-136000000D03*
X212145000Y-136000000D03*
X213905000Y-134200000D03*
X214805000Y-134200000D03*
D18*
X257400000Y-141600000D03*
X255400000Y-141600000D03*
X118500000Y-139500000D03*
X116500000Y-139500000D03*
D23*
X262750000Y-148000000D03*
X262750000Y-150000000D03*
X111500000Y-139000000D03*
X111500000Y-137000000D03*
D45*
X262250000Y-143500000D03*
X262250000Y-143000000D03*
X262250000Y-144000000D03*
X261750000Y-143000000D03*
X261750000Y-143500000D03*
X261750000Y-144000000D03*
X112250000Y-141250000D03*
X112250000Y-141750000D03*
X112250000Y-140750000D03*
X112750000Y-141750000D03*
X112750000Y-141250000D03*
X112750000Y-140750000D03*
D15*
X149350000Y-121250000D03*
X150250000Y-121250000D03*
D32*
X263950000Y-105775000D03*
X263950000Y-106875000D03*
D16*
X260475000Y-107650000D03*
X259375000Y-107650000D03*
X179450000Y-124300000D03*
X180550000Y-124300000D03*
D46*
X126100000Y-118400000D03*
X129150000Y-118400000D03*
X143150000Y-110000000D03*
X146200000Y-110000000D03*
M02*
