M48
;DRILL file {KiCad 4.0.4-stable} date 08/02/17 23:00:33
;FORMAT={-:-/ absolute / metric / decimal}
FMAT,2
METRIC,TZ
T1C0.220
T2C0.500
T3C0.800
T4C0.920
T5C1.000
T6C1.100
T7C1.200
T8C1.400
T9C2.080
T10C2.300
T11C3.000
T12C3.250
%
G90
G05
M71
T1
X125.65Y-136.9
X126.9Y-130.05
X133.25Y-134.75
X134.35Y-134.75
X135.Y-142.
X135.4Y-112.9
X137.05Y-125.25
X137.1Y-126.25
X138.75Y-129.55
X139.25Y-123.1
X139.75Y-127.9
X140.25Y-128.5
X140.75Y-127.8
X140.95Y-141.2
X141.25Y-123.1
X141.25Y-128.05
X141.75Y-122.65
X141.75Y-128.35
X142.25Y-123.1
X142.25Y-127.9
X142.9Y-123.75
X142.9Y-124.75
X142.9Y-125.75
X142.9Y-126.75
X143.7Y-121.4
X143.7Y-125.05
X143.85Y-124.25
X143.85Y-126.25
X143.9Y-108.35
X144.125Y-132.075
X145.181Y-134.1
X145.45Y-118.05
X145.976Y-131.24
X146.75Y-124.95
X147.05Y-146.35
X147.725Y-130.657
X148.95Y-131.7
X149.15Y-120.95
X149.475Y-146.975
X149.475Y-148.975
X150.35Y-112.125
X153.5Y-129.75
X155.95Y-104.95
X157.15Y-132.1
X157.25Y-124.95
X160.2Y-101.8
X165.8Y-124.3
X167.05Y-134.925
X167.35Y-99.5
X167.35Y-101.4
X167.8Y-123.75
X170.05Y-142.45
X172.05Y-120.95
X172.65Y-110.5
X173.Y-109.2
X173.1Y-129.7
X174.589Y-139.25
X174.65Y-132.1
X176.24Y-126.
X176.75Y-144.7
X177.448Y-108.798
X177.95Y-131.7
X177.95Y-133.9
X178.05Y-102.8
X178.5Y-128.45
X178.6Y-126.55
X178.9Y-131.7
X179.25Y-106.05
X179.5Y-126.55
X179.6Y-102.8
X179.85Y-131.7
X179.85Y-133.9
X180.Y-135.55
X180.75Y-138.5
X181.85Y-104.25
X183.4Y-148.4
X184.1Y-133.8
X184.15Y-136.05
X184.15Y-138.05
X184.161Y-131.8
X184.4Y-127.2
X184.75Y-124.15
X184.95Y-140.7
X185.15Y-135.
X185.2Y-129.55
X185.4Y-116.75
X186.1Y-132.
X186.1Y-133.455
X186.9Y-149.25
X187.15Y-135.1
X187.15Y-138.1
X187.929Y-132.011
X187.929Y-133.511
X187.95Y-140.7
X188.2Y-129.55
X188.65Y-144.8
X188.65Y-145.75
X188.65Y-146.7
X188.9Y-149.25
X189.7Y-137.55
X189.7Y-140.55
X189.75Y-120.1
X189.75Y-121.1
X189.75Y-122.1
X189.75Y-125.1
X189.75Y-126.1
X189.75Y-130.1
X189.75Y-131.1
X189.75Y-134.1
X189.75Y-135.1
X189.75Y-136.1
X190.4Y-151.95
X190.75Y-120.1
X190.75Y-121.1
X190.75Y-122.1
X190.75Y-123.1
X190.75Y-126.1
X190.75Y-127.1
X190.75Y-128.1
X190.75Y-129.1
X190.75Y-130.1
X190.75Y-131.1
X190.75Y-132.1
X190.75Y-134.1
X190.75Y-135.1
X190.75Y-136.1
X191.25Y-137.95
X191.25Y-139.45
X191.5Y-143.8
X191.75Y-121.1
X191.75Y-122.1
X191.75Y-126.1
X191.75Y-127.1
X191.75Y-128.1
X191.75Y-129.1
X191.75Y-131.1
X191.75Y-132.1
X191.75Y-133.1
X191.75Y-135.1
X192.4Y-151.95
X192.7Y-140.55
X192.75Y-122.1
X192.75Y-123.1
X192.75Y-124.1
X192.75Y-125.1
X192.75Y-127.1
X192.75Y-129.1
X192.75Y-130.1
X192.75Y-131.1
X192.75Y-132.1
X192.75Y-133.1
X192.75Y-134.1
X192.75Y-135.1
X192.8Y-137.55
X192.8Y-146.1
X193.5Y-142.5
X193.7Y-128.1
X193.75Y-120.1
X193.75Y-122.1
X193.75Y-123.1
X193.75Y-124.1
X193.75Y-125.1
X193.75Y-126.1
X193.75Y-127.1
X193.75Y-129.1
X193.75Y-131.1
X193.75Y-133.1
X193.75Y-134.1
X193.75Y-135.1
X193.75Y-136.195
X194.2Y-139.85
X194.75Y-120.1
X194.75Y-123.1
X194.75Y-124.1
X194.75Y-125.1
X194.75Y-126.1
X194.75Y-127.1
X194.75Y-128.1
X194.75Y-129.1
X194.75Y-130.1
X194.75Y-131.1
X194.75Y-132.1
X194.75Y-133.1
X194.75Y-134.1
X194.75Y-135.1
X194.75Y-136.1
X195.658Y-142.2
X195.75Y-123.1
X195.75Y-124.1
X195.75Y-125.1
X195.75Y-126.1
X195.75Y-127.1
X195.75Y-129.1
X195.75Y-130.1
X195.75Y-131.1
X195.75Y-132.1
X195.75Y-133.1
X195.75Y-134.1
X195.75Y-135.1
X195.75Y-136.3
X196.75Y-122.1
X196.75Y-123.1
X196.75Y-124.1
X196.75Y-125.1
X196.75Y-126.1
X196.75Y-127.1
X196.75Y-128.1
X196.75Y-129.1
X196.75Y-130.1
X196.75Y-131.1
X196.75Y-132.1
X196.75Y-133.1
X196.75Y-134.1
X196.75Y-135.1
X197.55Y-136.85
X197.75Y-120.1
X197.75Y-121.1
X197.75Y-122.1
X197.75Y-123.1
X197.75Y-125.1
X197.75Y-126.1
X197.75Y-130.1
X197.75Y-131.1
X197.8Y-139.5
X197.849Y-115.65
X198.049Y-141.551
X198.75Y-120.1
X198.75Y-121.1
X198.75Y-122.1
X198.75Y-123.1
X198.75Y-124.1
X198.75Y-125.1
X198.75Y-126.1
X198.75Y-127.1
X198.75Y-128.1
X198.75Y-129.1
X198.75Y-130.1
X198.75Y-131.1
X198.75Y-132.1
X198.75Y-133.1
X198.75Y-134.1
X198.75Y-135.1
X198.75Y-136.1
X198.75Y-142.7
X199.3Y-139.5
X199.6Y-111.
X199.75Y-120.1
X199.75Y-121.1
X199.75Y-122.1
X199.75Y-123.1
X199.75Y-124.1
X199.75Y-125.1
X199.75Y-126.1
X199.75Y-127.1
X199.75Y-129.1
X199.75Y-130.1
X199.75Y-131.1
X199.75Y-132.1
X199.75Y-133.1
X199.75Y-134.1
X199.75Y-135.1
X199.75Y-136.1
X199.95Y-107.85
X200.049Y-141.551
X200.05Y-138.65
X200.25Y-143.5
X200.75Y-120.1
X200.75Y-121.1
X200.75Y-122.1
X200.75Y-124.1
X200.75Y-125.1
X200.75Y-126.1
X200.75Y-129.1
X200.75Y-130.1
X200.75Y-131.1
X200.75Y-132.1
X200.75Y-133.1
X200.75Y-134.1
X200.75Y-135.1
X200.75Y-136.1
X201.15Y-103.3
X201.4Y-108.3
X201.75Y-120.1
X201.75Y-121.1
X201.75Y-122.1
X201.75Y-123.1
X201.75Y-124.1
X201.75Y-125.1
X201.75Y-126.1
X201.75Y-127.1
X201.75Y-129.1
X201.75Y-130.1
X201.75Y-131.1
X201.75Y-132.1
X201.75Y-133.1
X201.75Y-134.1
X201.75Y-135.1
X201.75Y-136.1
X202.25Y-144.45
X202.75Y-120.1
X202.75Y-121.1
X202.75Y-122.1
X202.75Y-123.1
X202.75Y-124.1
X202.75Y-125.1
X202.75Y-126.1
X202.75Y-127.1
X202.75Y-128.1
X202.75Y-129.1
X202.75Y-130.1
X202.75Y-131.1
X202.75Y-132.1
X202.75Y-133.1
X202.75Y-134.1
X202.75Y-135.1
X202.75Y-139.55
X202.75Y-140.45
X203.Y-102.4
X203.Y-103.5
X203.4Y-108.3
X203.6Y-110.9
X203.75Y-120.1
X203.75Y-121.1
X203.75Y-122.1
X203.75Y-123.1
X203.75Y-124.1
X203.75Y-125.1
X203.75Y-126.1
X203.75Y-128.1
X203.75Y-129.1
X203.75Y-130.1
X203.75Y-131.1
X203.75Y-132.1
X203.75Y-133.1
X203.75Y-134.1
X203.75Y-135.1
X203.75Y-136.1
X203.9Y-143.5
X204.45Y-102.4
X204.45Y-103.5
X204.749Y-126.1
X204.749Y-135.1
X204.75Y-120.1
X204.75Y-121.1
X204.75Y-122.1
X204.75Y-123.1
X204.75Y-124.1
X204.75Y-125.1
X204.75Y-127.1
X204.75Y-129.1
X204.75Y-130.1
X204.75Y-131.1
X204.75Y-132.1
X204.75Y-133.1
X204.75Y-134.1
X204.75Y-136.1
X205.3Y-107.534
X205.3Y-108.3
X205.3Y-109.1
X205.75Y-116.405
X205.75Y-118.7
X205.75Y-120.1
X205.75Y-123.1
X205.75Y-124.1
X205.75Y-125.1
X205.75Y-126.1
X205.75Y-127.1
X205.75Y-129.1
X205.75Y-130.1
X205.75Y-131.1
X205.75Y-132.1
X205.75Y-133.1
X205.75Y-134.1
X205.75Y-135.1
X205.75Y-136.1
X205.77Y-128.104
X205.9Y-144.45
X206.1Y-109.1
X206.75Y-128.1
X206.9Y-107.5
X206.9Y-109.1
X206.9Y-114.95
X207.4Y-112.4
X207.7Y-107.5
X207.7Y-109.1
X207.75Y-118.7
X207.779Y-116.405
X208.05Y-144.
X208.35Y-129.1
X208.5Y-107.5
X208.5Y-108.3
X208.5Y-109.1
X208.6Y-133.3
X208.6Y-134.6
X208.85Y-130.1
X208.9Y-114.95
X209.4Y-112.4
X209.5Y-144.45
X210.65Y-130.4
X210.65Y-131.8
X210.65Y-133.2
X210.65Y-134.6
X210.65Y-136.
X210.65Y-137.6
X210.65Y-139.05
X210.65Y-140.45
X210.65Y-141.85
X211.55Y-103.9
X211.65Y-111.6
X211.65Y-112.4
X211.65Y-113.2
X211.65Y-114.
X211.65Y-114.8
X211.65Y-115.6
X211.65Y-118.8
X211.65Y-122.
X211.656Y-117.205
X211.668Y-116.405
X211.709Y-123.595
X211.75Y-108.3
X212.4Y-129.1
X212.45Y-112.4
X212.45Y-113.2
X212.45Y-114.
X212.45Y-115.6
X212.45Y-117.2
X212.45Y-119.6
X212.45Y-120.4
X212.45Y-121.2
X212.45Y-122.
X212.45Y-122.8
X212.45Y-123.6
X212.465Y-116.405
X212.75Y-130.4
X212.75Y-131.8
X212.75Y-133.2
X212.75Y-134.6
X212.75Y-136.
X212.75Y-137.6
X212.75Y-139.05
X212.75Y-140.45
X212.75Y-141.85
X213.1Y-104.742
X213.238Y-118.005
X213.25Y-111.6
X213.25Y-112.4
X213.25Y-113.2
X213.25Y-113.995
X213.25Y-114.8
X213.25Y-115.6
X213.25Y-118.8
X213.25Y-119.6
X213.25Y-120.4
X213.25Y-121.2
X213.25Y-122.
X213.25Y-122.8
X213.25Y-116.395
X213.259Y-117.195
X213.3Y-130.
X213.3Y-131.4
X213.3Y-132.8
X213.3Y-134.2
X213.3Y-135.6
X213.3Y-137.
X213.35Y-138.65
X213.35Y-140.05
X213.35Y-141.45
X214.3Y-111.6
X214.3Y-113.2
X214.3Y-114.8
X214.3Y-116.4
X215.2Y-106.1
X215.2Y-129.
X215.4Y-130.
X215.4Y-131.4
X215.4Y-132.8
X215.4Y-134.2
X215.4Y-135.6
X215.4Y-137.
X215.45Y-138.65
X215.45Y-140.05
X215.45Y-141.45
X215.847Y-105.308
X215.95Y-129.6
X215.95Y-131.
X215.95Y-133.8
X215.95Y-135.2
X216.Y-132.4
X216.Y-138.25
X216.Y-139.65
X216.Y-141.05
X216.45Y-112.4
X216.45Y-114.8
X216.45Y-116.4
X216.45Y-118.
X216.45Y-119.6
X216.45Y-120.4
X216.45Y-121.2
X216.45Y-122.
X216.45Y-122.8
X217.25Y-111.6
X217.25Y-112.4
X217.25Y-113.2
X217.25Y-114.
X217.25Y-114.8
X217.25Y-115.6
X217.25Y-116.4
X217.25Y-117.2
X217.25Y-118.
X217.25Y-118.8
X217.25Y-120.4
X217.25Y-121.2
X217.25Y-122.8
X217.8Y-128.6
X218.Y-129.6
X218.05Y-112.4
X218.05Y-113.2
X218.05Y-114.
X218.05Y-114.8
X218.05Y-115.6
X218.05Y-116.4
X218.05Y-117.2
X218.05Y-118.
X218.05Y-118.8
X218.05Y-120.4
X218.05Y-122.05
X218.05Y-131.
X218.05Y-133.8
X218.05Y-135.2
X218.1Y-138.25
X218.1Y-139.65
X218.1Y-141.05
X218.6Y-132.4
X218.85Y-111.6
X218.85Y-113.2
X218.85Y-114.8
X218.85Y-116.4
X218.85Y-118.
X218.85Y-119.6
X218.85Y-120.4
X218.85Y-122.
X219.Y-105.7
X219.25Y-105.1
X219.669Y-143.405
X220.55Y-124.65
X220.915Y-143.745
X221.45Y-114.815
X221.45Y-116.315
X221.45Y-118.815
X221.45Y-120.35
X221.888Y-143.745
X222.1Y-131.85
X222.9Y-117.8
X223.Y-115.15
X223.Y-116.05
X223.Y-119.1
X223.Y-120.
X224.055Y-140.95
X224.2Y-136.8
X224.2Y-138.4
X224.55Y-114.815
X224.55Y-116.315
X224.55Y-118.815
X224.55Y-120.4
X224.75Y-143.75
X225.1Y-128.8
X225.65Y-140.95
X226.Y-136.8
X226.Y-138.4
X226.25Y-143.75
X226.35Y-121.25
X226.5Y-119.9
X226.6Y-128.8
X226.8Y-130.45
X226.8Y-131.95
X226.8Y-133.6
X226.8Y-135.2
X226.9Y-122.6
X226.9Y-124.5
X226.9Y-126.5
X227.2Y-147.2
X227.25Y-140.95
X227.5Y-101.9
X227.826Y-143.75
X227.85Y-107.892
X227.85Y-109.005
X227.85Y-111.57
X228.Y-136.9
X228.Y-138.4
X228.458Y-115.056
X228.5Y-133.7
X228.5Y-135.2
X228.6Y-128.8
X228.6Y-130.45
X228.6Y-132.
X228.75Y-113.675
X228.85Y-114.6
X228.85Y-140.95
X229.Y-103.
X229.326Y-143.75
X229.6Y-109.092
X229.6Y-110.525
X229.7Y-147.66
X229.742Y-116.65
X229.797Y-132.005
X229.797Y-132.805
X229.797Y-133.605
X229.797Y-136.005
X229.797Y-139.205
X229.797Y-140.805
X229.8Y-128.8
X229.8Y-135.2
X229.8Y-136.8
X229.8Y-137.6
X229.8Y-140.
X230.166Y-107.434
X230.3Y-143.85
X230.597Y-134.405
X230.597Y-137.605
X230.6Y-132.
X230.6Y-132.8
X230.6Y-133.6
X230.6Y-135.2
X230.6Y-136.
X230.6Y-136.8
X230.6Y-138.4
X230.6Y-139.2
X230.6Y-140.
X230.6Y-140.8
X230.76Y-122.206
X230.95Y-111.7
X231.1Y-145.6
X231.35Y-140.85
X231.397Y-135.205
X231.4Y-132.
X231.4Y-132.8
X231.4Y-133.6
X231.4Y-134.4
X231.4Y-136.
X231.4Y-137.603
X231.4Y-138.4
X231.4Y-139.2
X231.4Y-140.
X231.55Y-120.2
X231.55Y-143.35
X231.7Y-148.7
X231.7Y-150.2
X232.05Y-111.7
X232.197Y-137.605
X232.197Y-139.205
X232.197Y-140.005
X232.197Y-140.805
X232.2Y-128.6
X232.2Y-132.
X232.2Y-132.8
X232.2Y-135.2
X232.2Y-136.8
X232.2Y-138.4
X232.467Y-141.728
X232.7Y-145.6
X232.997Y-132.005
X232.997Y-137.605
X232.997Y-138.405
X232.997Y-139.205
X232.997Y-140.005
X232.997Y-140.805
X233.Y-128.6
X233.Y-134.4
X233.Y-135.2
X233.Y-136.
X233.Y-136.8
X233.1Y-141.8
X233.1Y-147.2
X233.3Y-148.7
X233.3Y-149.8
X233.8Y-132.005
X233.8Y-122.15
X233.8Y-123.05
X233.8Y-135.2
X233.8Y-136.
X233.8Y-138.4
X233.8Y-139.2
X233.8Y-140.8
X233.8Y-141.75
X234.597Y-139.205
X234.6Y-120.218
X234.6Y-128.6
X234.6Y-132.
X234.6Y-132.8
X234.6Y-134.4
X234.6Y-135.2
X234.6Y-136.8
X234.6Y-137.6
X234.6Y-138.4
X234.6Y-140.
X234.6Y-140.8
X235.1Y-151.47
X235.15Y-107.76
X235.15Y-110.275
X235.245Y-147.686
X235.245Y-148.956
X235.397Y-136.005
X235.397Y-136.8
X235.4Y-128.6
X235.4Y-132.
X235.4Y-132.8
X235.4Y-133.6
X235.4Y-134.4
X235.4Y-135.2
X235.4Y-137.6
X235.4Y-138.4
X235.4Y-139.2
X235.4Y-140.8
X235.5Y-124.25
X235.55Y-125.4
X235.95Y-121.7
X236.05Y-145.5
X236.1Y-126.35
X236.15Y-121.15
X236.197Y-138.405
X236.197Y-139.205
X236.2Y-131.2
X236.2Y-132.
X236.2Y-132.8
X236.2Y-133.6
X236.2Y-134.4
X236.2Y-135.2
X236.2Y-136.8
X236.2Y-140.
X236.35Y-111.545
X236.6Y-120.5
X236.997Y-140.805
X237.Y-119.3
X237.Y-132.
X237.Y-132.8
X237.Y-133.6
X237.Y-135.2
X237.Y-136.8
X237.Y-137.6
X237.Y-138.4
X237.Y-139.2
X237.Y-140.
X237.Y-141.75
X237.15Y-145.5
X237.375Y-111.15
X237.4Y-112.55
X237.797Y-132.005
X237.797Y-132.805
X237.797Y-134.405
X237.797Y-137.605
X237.797Y-138.405
X237.797Y-139.205
X237.8Y-123.15
X237.8Y-133.6
X237.8Y-135.2
X237.8Y-136.
X237.8Y-136.805
X237.8Y-140.8
X238.3Y-143.65
X238.5Y-130.1
X238.5Y-141.8
X238.597Y-138.405
X238.6Y-132.
X238.6Y-133.6
X238.6Y-134.4
X239.3Y-126.4
X239.3Y-127.5
X239.5Y-137.2
X239.5Y-138.3
X239.6Y-143.65
X239.75Y-116.75
X239.9Y-130.1
X240.05Y-135.2
X240.222Y-109.898
X240.222Y-110.798
X240.6Y-106.05
X240.85Y-116.75
X240.9Y-145.4
X241.1Y-139.15
X241.2Y-115.7
X241.3Y-135.05
X241.4Y-109.9
X241.478Y-128.6
X241.75Y-142.1
X241.75Y-143.8
X241.8Y-145.4
X242.364Y-110.95
X242.364Y-113.95
X242.4Y-125.3
X242.65Y-139.05
X242.85Y-131.35
X243.15Y-111.45
X243.2Y-108.7
X243.25Y-117.25
X243.45Y-143.65
X243.45Y-145.15
X243.75Y-131.35
X243.85Y-105.25
X244.3Y-118.8
X244.4Y-138.15
X244.498Y-128.367
X244.614Y-108.7
X245.45Y-132.65
X245.6Y-106.2
X245.6Y-116.8
X245.9Y-124.9
X245.9Y-138.15
X245.95Y-121.
X246.Y-143.15
X246.114Y-115.7
X246.5Y-107.25
X246.5Y-125.85
X246.5Y-126.75
X246.65Y-116.3
X247.1Y-116.8
X247.114Y-108.7
X247.25Y-106.7
X247.45Y-121.
X247.6Y-107.65
X247.614Y-115.7
X247.9Y-122.6
X247.9Y-124.1
X248.15Y-113.45
X248.85Y-126.55
X249.35Y-127.9
X249.364Y-110.95
X249.364Y-112.95
X249.364Y-113.95
X249.5Y-115.9
X249.512Y-123.262
X249.512Y-124.938
X249.95Y-129.5
X250.3Y-115.15
X250.35Y-110.45
X250.35Y-121.65
X250.45Y-127.65
X251.Y-115.9
X251.188Y-123.262
X251.188Y-124.938
X251.35Y-126.55
X251.5Y-106.75
X251.8Y-102.7
X251.85Y-121.65
X252.05Y-120.4
X252.3Y-111.3
X252.75Y-127.2
X252.8Y-124.6
X253.25Y-120.4
X253.35Y-124.1
X253.4Y-103.2
X253.5Y-100.6
X253.5Y-129.5
X253.65Y-127.2
X253.8Y-123.6
X253.8Y-125.6
X253.95Y-106.
X254.2Y-125.1
X254.3Y-112.25
X258.45Y-111.25
X258.45Y-113.15
X260.45Y-112.2
X262.05Y-111.1
X262.05Y-112.
T2
X125.4Y-130.05
X129.512Y-132.934
X132.Y-117.4
X132.05Y-133.8
X133.5Y-143.95
X135.Y-143.5
X136.275Y-132.375
X137.35Y-115.85
X138.3Y-112.9
X138.75Y-131.05
X140.525Y-129.975
X140.525Y-131.975
X140.95Y-139.3
X142.45Y-132.
X145.05Y-127.41
X145.15Y-146.35
X145.176Y-126.178
X145.45Y-116.55
X145.976Y-129.24
X146.676Y-126.178
X146.75Y-127.41
X147.081Y-134.1
X147.725Y-129.157
X147.85Y-124.95
X151.6Y-135.65
X153.2Y-125.25
X153.2Y-126.75
X153.95Y-141.1
X154.75Y-142.2
X164.85Y-134.858
X164.85Y-135.942
X164.85Y-136.825
X164.9Y-138.75
X164.9Y-142.55
X164.9Y-143.5
X164.9Y-144.45
X166.9Y-138.75
X167.05Y-136.825
X167.1Y-144.45
X170.05Y-147.05
X171.16Y-126.
X171.16Y-130.2
X172.925Y-136.8
X172.925Y-138.8
X173.Y-143.65
X173.Y-145.65
X174.25Y-97.7
X175.05Y-128.
X175.5Y-104.4
X176.24Y-130.2
X178.05Y-103.9
X179.6Y-103.9
X183.3Y-127.2
X183.5Y-97.6
X186.7Y-128.45
X186.7Y-130.45
X189.Y-116.4
X189.Y-118.4
X190.85Y-146.7
X191.Y-116.4
X191.Y-118.4
X192.8Y-148.1
X192.9Y-117.6
X194.4Y-115.25
X194.4Y-116.75
X195.9Y-117.6
X197.849Y-113.65
X199.Y-97.65
X199.95Y-108.75
X202.05Y-103.3
X202.25Y-142.55
X205.9Y-142.55
X208.1Y-97.45
X209.5Y-142.55
X210.25Y-108.3
X219.Y-126.6
X220.6Y-112.25
X223.55Y-97.65
X223.65Y-128.35
X223.65Y-129.45
X223.8Y-133.6
X223.9Y-103.25
X224.5Y-130.5
X224.85Y-122.25
X224.85Y-123.75
X226.Y-122.6
X226.Y-124.5
X226.Y-126.5
X226.5Y-119.
X227.5Y-104.1
X227.85Y-110.3
X229.Y-104.1
X232.8Y-97.65
X234.4Y-125.25
X234.7Y-145.5
X235.15Y-109.03
X240.6Y-104.95
X244.25Y-110.15
X244.25Y-111.65
X244.25Y-113.1
X245.75Y-113.1
X245.9Y-139.15
X246.35Y-110.2
X247.85Y-110.2
X248.05Y-129.5
X248.05Y-131.9
X248.2Y-97.3
X249.Y-131.9
X249.4Y-149.8
X249.95Y-131.9
X250.15Y-104.1
X251.6Y-129.5
X251.6Y-131.9
X251.8Y-103.8
X252.55Y-131.9
X253.5Y-97.4
X253.5Y-131.9
X254.5Y-103.2
X255.05Y-106.
X257.25Y-112.95
T3
X157.8Y-101.8
X163.9Y-101.8
X254.19Y-137.27
X254.19Y-139.02
X254.19Y-141.52
X254.19Y-144.02
X254.19Y-145.77
T4
X256.19Y-140.27
X256.19Y-142.77
X256.63Y-120.57
X256.63Y-123.07
X256.63Y-125.07
X256.63Y-127.57
X258.19Y-140.27
X258.19Y-142.77
X259.25Y-120.57
X259.25Y-123.07
X259.25Y-125.07
X259.25Y-127.57
T5
X176.35Y-99.
X176.35Y-101.5
X178.85Y-99.
X181.35Y-99.
X181.35Y-101.5
X201.15Y-99.
X201.15Y-101.5
X203.65Y-99.
X206.15Y-99.
X206.15Y-101.5
X225.65Y-99.
X225.65Y-101.5
X228.15Y-99.
X230.65Y-99.
X230.65Y-101.5
X250.15Y-99.
X250.15Y-101.5
X252.65Y-99.
X255.15Y-99.
X255.15Y-101.5
T6
X158.85Y-98.85
X162.85Y-98.85
T7
X198.84Y-148.
X198.84Y-150.54
X201.38Y-148.
X201.38Y-150.54
X203.92Y-148.
X203.92Y-150.54
X206.46Y-148.
X206.46Y-150.54
X209.Y-148.
X209.Y-150.54
X214.84Y-148.
X214.84Y-150.54
X217.38Y-148.
X217.38Y-150.54
X219.92Y-148.
X219.92Y-150.54
X222.46Y-148.
X222.46Y-150.54
X225.Y-148.
X225.Y-150.54
X232.45Y-121.41
X232.45Y-123.95
X232.45Y-126.45
T8
X160.85Y-99.4
T9
X114.2Y-103.4
X114.2Y-113.31
X114.2Y-136.9
X114.2Y-146.81
X114.205Y-120.15
X114.205Y-130.06
X121.82Y-103.4
X121.82Y-113.31
X121.82Y-136.9
X121.82Y-146.81
X121.825Y-120.15
X121.825Y-130.06
X131.98Y-103.4
X131.98Y-113.31
X131.98Y-136.9
X131.98Y-146.81
X131.985Y-120.15
X131.985Y-130.06
X140.45Y-100.7
X140.45Y-108.32
X140.45Y-118.48
X150.36Y-100.7
X150.36Y-108.32
X150.36Y-118.48
T10
X256.28Y-117.5
X256.28Y-130.64
X260.9Y-135.5
X260.9Y-147.54
X261.96Y-117.5
X261.96Y-130.64
T11
X173.2Y-100.25
X184.5Y-100.25
X198.Y-100.25
X209.3Y-100.25
X222.5Y-100.25
X233.8Y-100.25
X247.Y-100.25
X258.3Y-100.25
T12
X126.9Y-108.56
X126.9Y-142.06
X126.905Y-125.31
X145.2Y-113.4
T0
M30
