G04 #@! TF.FileFunction,Legend,Top*
%FSLAX46Y46*%
G04 Gerber Fmt 4.6, Leading zero omitted, Abs format (unit mm)*
G04 Created by KiCad (PCBNEW 4.0.4-stable) date 02/17/17 14:19:35*
%MOMM*%
%LPD*%
G01*
G04 APERTURE LIST*
%ADD10C,0.100000*%
%ADD11C,0.150000*%
%ADD12C,0.300000*%
%ADD13C,0.400000*%
%ADD14C,0.200000*%
%ADD15C,0.375000*%
%ADD16C,0.120000*%
%ADD17C,0.254000*%
%ADD18C,0.381000*%
%ADD19C,0.127000*%
%ADD20C,0.304800*%
G04 APERTURE END LIST*
D10*
D11*
X177002200Y-166007200D02*
X177002200Y-198007200D01*
X285002200Y-198007200D01*
X285002200Y-166007200D01*
X177002200Y-166007200D01*
D10*
D11*
X10000000Y-10000000D02*
X10000000Y-200007200D01*
X287002200Y-200007200D01*
X287002200Y-10000000D01*
X10000000Y-10000000D01*
D10*
D11*
X12000000Y-12000000D02*
X12000000Y-198007200D01*
X285002200Y-198007200D01*
X285002200Y-12000000D01*
X12000000Y-12000000D01*
D10*
D11*
X60000000Y-12000000D02*
X60000000Y-10000000D01*
D10*
D11*
X110000000Y-12000000D02*
X110000000Y-10000000D01*
D10*
D11*
X160000000Y-12000000D02*
X160000000Y-10000000D01*
D10*
D11*
X210000000Y-12000000D02*
X210000000Y-10000000D01*
D10*
D11*
X260000000Y-12000000D02*
X260000000Y-10000000D01*
D10*
D11*
X35990476Y-11588095D02*
X35247619Y-11588095D01*
X35619048Y-11588095D02*
X35619048Y-10288095D01*
X35495238Y-10473810D01*
X35371429Y-10597619D01*
X35247619Y-10659524D01*
D10*
D11*
X85247619Y-10411905D02*
X85309524Y-10350000D01*
X85433333Y-10288095D01*
X85742857Y-10288095D01*
X85866667Y-10350000D01*
X85928571Y-10411905D01*
X85990476Y-10535714D01*
X85990476Y-10659524D01*
X85928571Y-10845238D01*
X85185714Y-11588095D01*
X85990476Y-11588095D01*
D10*
D11*
X135185714Y-10288095D02*
X135990476Y-10288095D01*
X135557143Y-10783333D01*
X135742857Y-10783333D01*
X135866667Y-10845238D01*
X135928571Y-10907143D01*
X135990476Y-11030952D01*
X135990476Y-11340476D01*
X135928571Y-11464286D01*
X135866667Y-11526190D01*
X135742857Y-11588095D01*
X135371429Y-11588095D01*
X135247619Y-11526190D01*
X135185714Y-11464286D01*
D10*
D11*
X185866667Y-10721429D02*
X185866667Y-11588095D01*
X185557143Y-10226190D02*
X185247619Y-11154762D01*
X186052381Y-11154762D01*
D10*
D11*
X235928571Y-10288095D02*
X235309524Y-10288095D01*
X235247619Y-10907143D01*
X235309524Y-10845238D01*
X235433333Y-10783333D01*
X235742857Y-10783333D01*
X235866667Y-10845238D01*
X235928571Y-10907143D01*
X235990476Y-11030952D01*
X235990476Y-11340476D01*
X235928571Y-11464286D01*
X235866667Y-11526190D01*
X235742857Y-11588095D01*
X235433333Y-11588095D01*
X235309524Y-11526190D01*
X235247619Y-11464286D01*
D10*
D11*
X285866667Y-10288095D02*
X285619048Y-10288095D01*
X285495238Y-10350000D01*
X285433333Y-10411905D01*
X285309524Y-10597619D01*
X285247619Y-10845238D01*
X285247619Y-11340476D01*
X285309524Y-11464286D01*
X285371429Y-11526190D01*
X285495238Y-11588095D01*
X285742857Y-11588095D01*
X285866667Y-11526190D01*
X285928571Y-11464286D01*
X285990476Y-11340476D01*
X285990476Y-11030952D01*
X285928571Y-10907143D01*
X285866667Y-10845238D01*
X285742857Y-10783333D01*
X285495238Y-10783333D01*
X285371429Y-10845238D01*
X285309524Y-10907143D01*
X285247619Y-11030952D01*
D10*
D11*
X60000000Y-198007200D02*
X60000000Y-200007200D01*
D10*
D11*
X110000000Y-198007200D02*
X110000000Y-200007200D01*
D10*
D11*
X160000000Y-198007200D02*
X160000000Y-200007200D01*
D10*
D11*
X210000000Y-198007200D02*
X210000000Y-200007200D01*
D10*
D11*
X260000000Y-198007200D02*
X260000000Y-200007200D01*
D10*
D11*
X35990476Y-199595295D02*
X35247619Y-199595295D01*
X35619048Y-199595295D02*
X35619048Y-198295295D01*
X35495238Y-198481010D01*
X35371429Y-198604819D01*
X35247619Y-198666724D01*
D10*
D11*
X85247619Y-198419105D02*
X85309524Y-198357200D01*
X85433333Y-198295295D01*
X85742857Y-198295295D01*
X85866667Y-198357200D01*
X85928571Y-198419105D01*
X85990476Y-198542914D01*
X85990476Y-198666724D01*
X85928571Y-198852438D01*
X85185714Y-199595295D01*
X85990476Y-199595295D01*
D10*
D11*
X135185714Y-198295295D02*
X135990476Y-198295295D01*
X135557143Y-198790533D01*
X135742857Y-198790533D01*
X135866667Y-198852438D01*
X135928571Y-198914343D01*
X135990476Y-199038152D01*
X135990476Y-199347676D01*
X135928571Y-199471486D01*
X135866667Y-199533390D01*
X135742857Y-199595295D01*
X135371429Y-199595295D01*
X135247619Y-199533390D01*
X135185714Y-199471486D01*
D10*
D11*
X185866667Y-198728629D02*
X185866667Y-199595295D01*
X185557143Y-198233390D02*
X185247619Y-199161962D01*
X186052381Y-199161962D01*
D10*
D11*
X235928571Y-198295295D02*
X235309524Y-198295295D01*
X235247619Y-198914343D01*
X235309524Y-198852438D01*
X235433333Y-198790533D01*
X235742857Y-198790533D01*
X235866667Y-198852438D01*
X235928571Y-198914343D01*
X235990476Y-199038152D01*
X235990476Y-199347676D01*
X235928571Y-199471486D01*
X235866667Y-199533390D01*
X235742857Y-199595295D01*
X235433333Y-199595295D01*
X235309524Y-199533390D01*
X235247619Y-199471486D01*
D10*
D11*
X285866667Y-198295295D02*
X285619048Y-198295295D01*
X285495238Y-198357200D01*
X285433333Y-198419105D01*
X285309524Y-198604819D01*
X285247619Y-198852438D01*
X285247619Y-199347676D01*
X285309524Y-199471486D01*
X285371429Y-199533390D01*
X285495238Y-199595295D01*
X285742857Y-199595295D01*
X285866667Y-199533390D01*
X285928571Y-199471486D01*
X285990476Y-199347676D01*
X285990476Y-199038152D01*
X285928571Y-198914343D01*
X285866667Y-198852438D01*
X285742857Y-198790533D01*
X285495238Y-198790533D01*
X285371429Y-198852438D01*
X285309524Y-198914343D01*
X285247619Y-199038152D01*
D10*
D11*
X10000000Y-60000000D02*
X12000000Y-60000000D01*
D10*
D11*
X10000000Y-110000000D02*
X12000000Y-110000000D01*
D10*
D11*
X10000000Y-160000000D02*
X12000000Y-160000000D01*
D10*
D11*
X10690476Y-35216667D02*
X11309524Y-35216667D01*
X10566667Y-35588095D02*
X11000000Y-34288095D01*
X11433333Y-35588095D01*
D10*
D11*
X11092857Y-84907143D02*
X11278571Y-84969048D01*
X11340476Y-85030952D01*
X11402381Y-85154762D01*
X11402381Y-85340476D01*
X11340476Y-85464286D01*
X11278571Y-85526190D01*
X11154762Y-85588095D01*
X10659524Y-85588095D01*
X10659524Y-84288095D01*
X11092857Y-84288095D01*
X11216667Y-84350000D01*
X11278571Y-84411905D01*
X11340476Y-84535714D01*
X11340476Y-84659524D01*
X11278571Y-84783333D01*
X11216667Y-84845238D01*
X11092857Y-84907143D01*
X10659524Y-84907143D01*
D10*
D11*
X11402381Y-135464286D02*
X11340476Y-135526190D01*
X11154762Y-135588095D01*
X11030952Y-135588095D01*
X10845238Y-135526190D01*
X10721429Y-135402381D01*
X10659524Y-135278571D01*
X10597619Y-135030952D01*
X10597619Y-134845238D01*
X10659524Y-134597619D01*
X10721429Y-134473810D01*
X10845238Y-134350000D01*
X11030952Y-134288095D01*
X11154762Y-134288095D01*
X11340476Y-134350000D01*
X11402381Y-134411905D01*
D10*
D11*
X10659524Y-185588095D02*
X10659524Y-184288095D01*
X10969048Y-184288095D01*
X11154762Y-184350000D01*
X11278571Y-184473810D01*
X11340476Y-184597619D01*
X11402381Y-184845238D01*
X11402381Y-185030952D01*
X11340476Y-185278571D01*
X11278571Y-185402381D01*
X11154762Y-185526190D01*
X10969048Y-185588095D01*
X10659524Y-185588095D01*
D10*
D11*
X287002200Y-60000000D02*
X285002200Y-60000000D01*
D10*
D11*
X287002200Y-110000000D02*
X285002200Y-110000000D01*
D10*
D11*
X287002200Y-160000000D02*
X285002200Y-160000000D01*
D10*
D11*
X285692676Y-35216667D02*
X286311724Y-35216667D01*
X285568867Y-35588095D02*
X286002200Y-34288095D01*
X286435533Y-35588095D01*
D10*
D11*
X286095057Y-84907143D02*
X286280771Y-84969048D01*
X286342676Y-85030952D01*
X286404581Y-85154762D01*
X286404581Y-85340476D01*
X286342676Y-85464286D01*
X286280771Y-85526190D01*
X286156962Y-85588095D01*
X285661724Y-85588095D01*
X285661724Y-84288095D01*
X286095057Y-84288095D01*
X286218867Y-84350000D01*
X286280771Y-84411905D01*
X286342676Y-84535714D01*
X286342676Y-84659524D01*
X286280771Y-84783333D01*
X286218867Y-84845238D01*
X286095057Y-84907143D01*
X285661724Y-84907143D01*
D10*
D11*
X286404581Y-135464286D02*
X286342676Y-135526190D01*
X286156962Y-135588095D01*
X286033152Y-135588095D01*
X285847438Y-135526190D01*
X285723629Y-135402381D01*
X285661724Y-135278571D01*
X285599819Y-135030952D01*
X285599819Y-134845238D01*
X285661724Y-134597619D01*
X285723629Y-134473810D01*
X285847438Y-134350000D01*
X286033152Y-134288095D01*
X286156962Y-134288095D01*
X286342676Y-134350000D01*
X286404581Y-134411905D01*
D10*
D11*
X285661724Y-185588095D02*
X285661724Y-184288095D01*
X285971248Y-184288095D01*
X286156962Y-184350000D01*
X286280771Y-184473810D01*
X286342676Y-184597619D01*
X286404581Y-184845238D01*
X286404581Y-185030952D01*
X286342676Y-185278571D01*
X286280771Y-185402381D01*
X286156962Y-185526190D01*
X285971248Y-185588095D01*
X285661724Y-185588095D01*
D10*
D11*
X200359343Y-193785771D02*
X200359343Y-192285771D01*
X200716486Y-192285771D01*
X200930771Y-192357200D01*
X201073629Y-192500057D01*
X201145057Y-192642914D01*
X201216486Y-192928629D01*
X201216486Y-193142914D01*
X201145057Y-193428629D01*
X201073629Y-193571486D01*
X200930771Y-193714343D01*
X200716486Y-193785771D01*
X200359343Y-193785771D01*
X202502200Y-193785771D02*
X202502200Y-193000057D01*
X202430771Y-192857200D01*
X202287914Y-192785771D01*
X202002200Y-192785771D01*
X201859343Y-192857200D01*
X202502200Y-193714343D02*
X202359343Y-193785771D01*
X202002200Y-193785771D01*
X201859343Y-193714343D01*
X201787914Y-193571486D01*
X201787914Y-193428629D01*
X201859343Y-193285771D01*
X202002200Y-193214343D01*
X202359343Y-193214343D01*
X202502200Y-193142914D01*
X203002200Y-192785771D02*
X203573629Y-192785771D01*
X203216486Y-192285771D02*
X203216486Y-193571486D01*
X203287914Y-193714343D01*
X203430772Y-193785771D01*
X203573629Y-193785771D01*
X204645057Y-193714343D02*
X204502200Y-193785771D01*
X204216486Y-193785771D01*
X204073629Y-193714343D01*
X204002200Y-193571486D01*
X204002200Y-193000057D01*
X204073629Y-192857200D01*
X204216486Y-192785771D01*
X204502200Y-192785771D01*
X204645057Y-192857200D01*
X204716486Y-193000057D01*
X204716486Y-193142914D01*
X204002200Y-193285771D01*
X205359343Y-193642914D02*
X205430771Y-193714343D01*
X205359343Y-193785771D01*
X205287914Y-193714343D01*
X205359343Y-193642914D01*
X205359343Y-193785771D01*
X205359343Y-192857200D02*
X205430771Y-192928629D01*
X205359343Y-193000057D01*
X205287914Y-192928629D01*
X205359343Y-192857200D01*
X205359343Y-193000057D01*
D10*
D11*
X177002200Y-194507200D02*
X285002200Y-194507200D01*
D10*
D11*
X178359343Y-196585771D02*
X178359343Y-195085771D01*
X179216486Y-196585771D02*
X178573629Y-195728629D01*
X179216486Y-195085771D02*
X178359343Y-195942914D01*
X179859343Y-196585771D02*
X179859343Y-195585771D01*
X179859343Y-195085771D02*
X179787914Y-195157200D01*
X179859343Y-195228629D01*
X179930771Y-195157200D01*
X179859343Y-195085771D01*
X179859343Y-195228629D01*
X181430772Y-196442914D02*
X181359343Y-196514343D01*
X181145057Y-196585771D01*
X181002200Y-196585771D01*
X180787915Y-196514343D01*
X180645057Y-196371486D01*
X180573629Y-196228629D01*
X180502200Y-195942914D01*
X180502200Y-195728629D01*
X180573629Y-195442914D01*
X180645057Y-195300057D01*
X180787915Y-195157200D01*
X181002200Y-195085771D01*
X181145057Y-195085771D01*
X181359343Y-195157200D01*
X181430772Y-195228629D01*
X182716486Y-196585771D02*
X182716486Y-195800057D01*
X182645057Y-195657200D01*
X182502200Y-195585771D01*
X182216486Y-195585771D01*
X182073629Y-195657200D01*
X182716486Y-196514343D02*
X182573629Y-196585771D01*
X182216486Y-196585771D01*
X182073629Y-196514343D01*
X182002200Y-196371486D01*
X182002200Y-196228629D01*
X182073629Y-196085771D01*
X182216486Y-196014343D01*
X182573629Y-196014343D01*
X182716486Y-195942914D01*
X184073629Y-196585771D02*
X184073629Y-195085771D01*
X184073629Y-196514343D02*
X183930772Y-196585771D01*
X183645058Y-196585771D01*
X183502200Y-196514343D01*
X183430772Y-196442914D01*
X183359343Y-196300057D01*
X183359343Y-195871486D01*
X183430772Y-195728629D01*
X183502200Y-195657200D01*
X183645058Y-195585771D01*
X183930772Y-195585771D01*
X184073629Y-195657200D01*
X185930772Y-195800057D02*
X186430772Y-195800057D01*
X186645058Y-196585771D02*
X185930772Y-196585771D01*
X185930772Y-195085771D01*
X186645058Y-195085771D01*
X187287915Y-196442914D02*
X187359343Y-196514343D01*
X187287915Y-196585771D01*
X187216486Y-196514343D01*
X187287915Y-196442914D01*
X187287915Y-196585771D01*
X188002201Y-196585771D02*
X188002201Y-195085771D01*
X188359344Y-195085771D01*
X188573629Y-195157200D01*
X188716487Y-195300057D01*
X188787915Y-195442914D01*
X188859344Y-195728629D01*
X188859344Y-195942914D01*
X188787915Y-196228629D01*
X188716487Y-196371486D01*
X188573629Y-196514343D01*
X188359344Y-196585771D01*
X188002201Y-196585771D01*
X189502201Y-196442914D02*
X189573629Y-196514343D01*
X189502201Y-196585771D01*
X189430772Y-196514343D01*
X189502201Y-196442914D01*
X189502201Y-196585771D01*
X190145058Y-196157200D02*
X190859344Y-196157200D01*
X190002201Y-196585771D02*
X190502201Y-195085771D01*
X191002201Y-196585771D01*
X191502201Y-196442914D02*
X191573629Y-196514343D01*
X191502201Y-196585771D01*
X191430772Y-196514343D01*
X191502201Y-196442914D01*
X191502201Y-196585771D01*
X194502201Y-196585771D02*
X194502201Y-195085771D01*
X194645058Y-196014343D02*
X195073629Y-196585771D01*
X195073629Y-195585771D02*
X194502201Y-196157200D01*
X195716487Y-196585771D02*
X195716487Y-195585771D01*
X195716487Y-195085771D02*
X195645058Y-195157200D01*
X195716487Y-195228629D01*
X195787915Y-195157200D01*
X195716487Y-195085771D01*
X195716487Y-195228629D01*
X197073630Y-196514343D02*
X196930773Y-196585771D01*
X196645059Y-196585771D01*
X196502201Y-196514343D01*
X196430773Y-196442914D01*
X196359344Y-196300057D01*
X196359344Y-195871486D01*
X196430773Y-195728629D01*
X196502201Y-195657200D01*
X196645059Y-195585771D01*
X196930773Y-195585771D01*
X197073630Y-195657200D01*
X198359344Y-196585771D02*
X198359344Y-195800057D01*
X198287915Y-195657200D01*
X198145058Y-195585771D01*
X197859344Y-195585771D01*
X197716487Y-195657200D01*
X198359344Y-196514343D02*
X198216487Y-196585771D01*
X197859344Y-196585771D01*
X197716487Y-196514343D01*
X197645058Y-196371486D01*
X197645058Y-196228629D01*
X197716487Y-196085771D01*
X197859344Y-196014343D01*
X198216487Y-196014343D01*
X198359344Y-195942914D01*
X199716487Y-196585771D02*
X199716487Y-195085771D01*
X199716487Y-196514343D02*
X199573630Y-196585771D01*
X199287916Y-196585771D01*
X199145058Y-196514343D01*
X199073630Y-196442914D01*
X199002201Y-196300057D01*
X199002201Y-195871486D01*
X199073630Y-195728629D01*
X199145058Y-195657200D01*
X199287916Y-195585771D01*
X199573630Y-195585771D01*
X199716487Y-195657200D01*
X202216487Y-195585771D02*
X202216487Y-196585771D01*
X201859344Y-195014343D02*
X201502201Y-196085771D01*
X202430773Y-196085771D01*
X203002201Y-196442914D02*
X203073629Y-196514343D01*
X203002201Y-196585771D01*
X202930772Y-196514343D01*
X203002201Y-196442914D01*
X203002201Y-196585771D01*
X204002201Y-195085771D02*
X204145058Y-195085771D01*
X204287915Y-195157200D01*
X204359344Y-195228629D01*
X204430773Y-195371486D01*
X204502201Y-195657200D01*
X204502201Y-196014343D01*
X204430773Y-196300057D01*
X204359344Y-196442914D01*
X204287915Y-196514343D01*
X204145058Y-196585771D01*
X204002201Y-196585771D01*
X203859344Y-196514343D01*
X203787915Y-196442914D01*
X203716487Y-196300057D01*
X203645058Y-196014343D01*
X203645058Y-195657200D01*
X203716487Y-195371486D01*
X203787915Y-195228629D01*
X203859344Y-195157200D01*
X204002201Y-195085771D01*
X205145058Y-196442914D02*
X205216486Y-196514343D01*
X205145058Y-196585771D01*
X205073629Y-196514343D01*
X205145058Y-196442914D01*
X205145058Y-196585771D01*
X206502201Y-195585771D02*
X206502201Y-196585771D01*
X206145058Y-195014343D02*
X205787915Y-196085771D01*
X206716487Y-196085771D01*
X207287915Y-196014343D02*
X208430772Y-196014343D01*
X209073629Y-196514343D02*
X209216486Y-196585771D01*
X209502201Y-196585771D01*
X209645058Y-196514343D01*
X209716486Y-196371486D01*
X209716486Y-196300057D01*
X209645058Y-196157200D01*
X209502201Y-196085771D01*
X209287915Y-196085771D01*
X209145058Y-196014343D01*
X209073629Y-195871486D01*
X209073629Y-195800057D01*
X209145058Y-195657200D01*
X209287915Y-195585771D01*
X209502201Y-195585771D01*
X209645058Y-195657200D01*
X210145058Y-195585771D02*
X210716487Y-195585771D01*
X210359344Y-195085771D02*
X210359344Y-196371486D01*
X210430772Y-196514343D01*
X210573630Y-196585771D01*
X210716487Y-196585771D01*
X211859344Y-196585771D02*
X211859344Y-195800057D01*
X211787915Y-195657200D01*
X211645058Y-195585771D01*
X211359344Y-195585771D01*
X211216487Y-195657200D01*
X211859344Y-196514343D02*
X211716487Y-196585771D01*
X211359344Y-196585771D01*
X211216487Y-196514343D01*
X211145058Y-196371486D01*
X211145058Y-196228629D01*
X211216487Y-196085771D01*
X211359344Y-196014343D01*
X211716487Y-196014343D01*
X211859344Y-195942914D01*
X212573630Y-196585771D02*
X212573630Y-195085771D01*
X212573630Y-195657200D02*
X212716487Y-195585771D01*
X213002201Y-195585771D01*
X213145058Y-195657200D01*
X213216487Y-195728629D01*
X213287916Y-195871486D01*
X213287916Y-196300057D01*
X213216487Y-196442914D01*
X213145058Y-196514343D01*
X213002201Y-196585771D01*
X212716487Y-196585771D01*
X212573630Y-196514343D01*
X214145059Y-196585771D02*
X214002201Y-196514343D01*
X213930773Y-196371486D01*
X213930773Y-195085771D01*
X215287915Y-196514343D02*
X215145058Y-196585771D01*
X214859344Y-196585771D01*
X214716487Y-196514343D01*
X214645058Y-196371486D01*
X214645058Y-195800057D01*
X214716487Y-195657200D01*
X214859344Y-195585771D01*
X215145058Y-195585771D01*
X215287915Y-195657200D01*
X215359344Y-195800057D01*
X215359344Y-195942914D01*
X214645058Y-196085771D01*
D10*
D11*
X177002200Y-191507200D02*
X285002200Y-191507200D01*
D10*
D12*
X264216486Y-193785771D02*
X263716486Y-193071486D01*
X263359343Y-193785771D02*
X263359343Y-192285771D01*
X263930771Y-192285771D01*
X264073629Y-192357200D01*
X264145057Y-192428629D01*
X264216486Y-192571486D01*
X264216486Y-192785771D01*
X264145057Y-192928629D01*
X264073629Y-193000057D01*
X263930771Y-193071486D01*
X263359343Y-193071486D01*
X265430771Y-193714343D02*
X265287914Y-193785771D01*
X265002200Y-193785771D01*
X264859343Y-193714343D01*
X264787914Y-193571486D01*
X264787914Y-193000057D01*
X264859343Y-192857200D01*
X265002200Y-192785771D01*
X265287914Y-192785771D01*
X265430771Y-192857200D01*
X265502200Y-193000057D01*
X265502200Y-193142914D01*
X264787914Y-193285771D01*
X266002200Y-192785771D02*
X266359343Y-193785771D01*
X266716485Y-192785771D01*
X267287914Y-193642914D02*
X267359342Y-193714343D01*
X267287914Y-193785771D01*
X267216485Y-193714343D01*
X267287914Y-193642914D01*
X267287914Y-193785771D01*
X267287914Y-192857200D02*
X267359342Y-192928629D01*
X267287914Y-193000057D01*
X267216485Y-192928629D01*
X267287914Y-192857200D01*
X267287914Y-193000057D01*
D10*
D11*
X178287914Y-193714343D02*
X178502200Y-193785771D01*
X178859343Y-193785771D01*
X179002200Y-193714343D01*
X179073629Y-193642914D01*
X179145057Y-193500057D01*
X179145057Y-193357200D01*
X179073629Y-193214343D01*
X179002200Y-193142914D01*
X178859343Y-193071486D01*
X178573629Y-193000057D01*
X178430771Y-192928629D01*
X178359343Y-192857200D01*
X178287914Y-192714343D01*
X178287914Y-192571486D01*
X178359343Y-192428629D01*
X178430771Y-192357200D01*
X178573629Y-192285771D01*
X178930771Y-192285771D01*
X179145057Y-192357200D01*
X179787914Y-193785771D02*
X179787914Y-192785771D01*
X179787914Y-192285771D02*
X179716485Y-192357200D01*
X179787914Y-192428629D01*
X179859342Y-192357200D01*
X179787914Y-192285771D01*
X179787914Y-192428629D01*
X180359343Y-192785771D02*
X181145057Y-192785771D01*
X180359343Y-193785771D01*
X181145057Y-193785771D01*
X182287914Y-193714343D02*
X182145057Y-193785771D01*
X181859343Y-193785771D01*
X181716486Y-193714343D01*
X181645057Y-193571486D01*
X181645057Y-193000057D01*
X181716486Y-192857200D01*
X181859343Y-192785771D01*
X182145057Y-192785771D01*
X182287914Y-192857200D01*
X182359343Y-193000057D01*
X182359343Y-193142914D01*
X181645057Y-193285771D01*
X183002200Y-193642914D02*
X183073628Y-193714343D01*
X183002200Y-193785771D01*
X182930771Y-193714343D01*
X183002200Y-193642914D01*
X183002200Y-193785771D01*
X183002200Y-192857200D02*
X183073628Y-192928629D01*
X183002200Y-193000057D01*
X182930771Y-192928629D01*
X183002200Y-192857200D01*
X183002200Y-193000057D01*
X184787914Y-193357200D02*
X185502200Y-193357200D01*
X184645057Y-193785771D02*
X185145057Y-192285771D01*
X185645057Y-193785771D01*
X186787914Y-192785771D02*
X186787914Y-193785771D01*
X186430771Y-192214343D02*
X186073628Y-193285771D01*
X187002200Y-193285771D01*
D10*
D11*
X263359343Y-196585771D02*
X263359343Y-195085771D01*
X264716486Y-196585771D02*
X264716486Y-195085771D01*
X264716486Y-196514343D02*
X264573629Y-196585771D01*
X264287915Y-196585771D01*
X264145057Y-196514343D01*
X264073629Y-196442914D01*
X264002200Y-196300057D01*
X264002200Y-195871486D01*
X264073629Y-195728629D01*
X264145057Y-195657200D01*
X264287915Y-195585771D01*
X264573629Y-195585771D01*
X264716486Y-195657200D01*
X265430772Y-196442914D02*
X265502200Y-196514343D01*
X265430772Y-196585771D01*
X265359343Y-196514343D01*
X265430772Y-196442914D01*
X265430772Y-196585771D01*
X265430772Y-195657200D02*
X265502200Y-195728629D01*
X265430772Y-195800057D01*
X265359343Y-195728629D01*
X265430772Y-195657200D01*
X265430772Y-195800057D01*
X268073629Y-196585771D02*
X267216486Y-196585771D01*
X267645058Y-196585771D02*
X267645058Y-195085771D01*
X267502201Y-195300057D01*
X267359343Y-195442914D01*
X267216486Y-195514343D01*
X269787914Y-195014343D02*
X268502200Y-196942914D01*
X271073629Y-196585771D02*
X270216486Y-196585771D01*
X270645058Y-196585771D02*
X270645058Y-195085771D01*
X270502201Y-195300057D01*
X270359343Y-195442914D01*
X270216486Y-195514343D01*
D10*
D11*
X177002200Y-187507200D02*
X285002200Y-187507200D01*
D10*
D13*
X178454581Y-188211962D02*
X179597438Y-188211962D01*
X178776010Y-190211962D02*
X179026010Y-188211962D01*
X180014105Y-190211962D02*
X180180771Y-188878629D01*
X180264105Y-188211962D02*
X180156962Y-188307200D01*
X180240295Y-188402438D01*
X180347439Y-188307200D01*
X180264105Y-188211962D01*
X180240295Y-188402438D01*
X180847438Y-188878629D02*
X181609343Y-188878629D01*
X181216486Y-188211962D02*
X181002200Y-189926248D01*
X181073630Y-190116724D01*
X181252201Y-190211962D01*
X181442677Y-190211962D01*
X182395058Y-190211962D02*
X182216487Y-190116724D01*
X182145057Y-189926248D01*
X182359343Y-188211962D01*
X183930772Y-190116724D02*
X183728391Y-190211962D01*
X183347439Y-190211962D01*
X183168867Y-190116724D01*
X183097438Y-189926248D01*
X183192676Y-189164343D01*
X183311724Y-188973867D01*
X183514105Y-188878629D01*
X183895057Y-188878629D01*
X184073629Y-188973867D01*
X184145057Y-189164343D01*
X184121248Y-189354819D01*
X183145057Y-189545295D01*
X184895057Y-190021486D02*
X184978392Y-190116724D01*
X184871248Y-190211962D01*
X184787915Y-190116724D01*
X184895057Y-190021486D01*
X184871248Y-190211962D01*
X185026010Y-188973867D02*
X185109344Y-189069105D01*
X185002200Y-189164343D01*
X184918867Y-189069105D01*
X185026010Y-188973867D01*
X185002200Y-189164343D01*
D10*
D11*
X178859343Y-185600057D02*
X178359343Y-185600057D01*
X178359343Y-186385771D02*
X178359343Y-184885771D01*
X179073629Y-184885771D01*
X179645057Y-186385771D02*
X179645057Y-185385771D01*
X179645057Y-184885771D02*
X179573628Y-184957200D01*
X179645057Y-185028629D01*
X179716485Y-184957200D01*
X179645057Y-184885771D01*
X179645057Y-185028629D01*
X180573629Y-186385771D02*
X180430771Y-186314343D01*
X180359343Y-186171486D01*
X180359343Y-184885771D01*
X181716485Y-186314343D02*
X181573628Y-186385771D01*
X181287914Y-186385771D01*
X181145057Y-186314343D01*
X181073628Y-186171486D01*
X181073628Y-185600057D01*
X181145057Y-185457200D01*
X181287914Y-185385771D01*
X181573628Y-185385771D01*
X181716485Y-185457200D01*
X181787914Y-185600057D01*
X181787914Y-185742914D01*
X181073628Y-185885771D01*
X182430771Y-186242914D02*
X182502199Y-186314343D01*
X182430771Y-186385771D01*
X182359342Y-186314343D01*
X182430771Y-186242914D01*
X182430771Y-186385771D01*
X182430771Y-185457200D02*
X182502199Y-185528629D01*
X182430771Y-185600057D01*
X182359342Y-185528629D01*
X182430771Y-185457200D01*
X182430771Y-185600057D01*
X184287914Y-186385771D02*
X184287914Y-184885771D01*
X184645057Y-184885771D01*
X184859342Y-184957200D01*
X185002200Y-185100057D01*
X185073628Y-185242914D01*
X185145057Y-185528629D01*
X185145057Y-185742914D01*
X185073628Y-186028629D01*
X185002200Y-186171486D01*
X184859342Y-186314343D01*
X184645057Y-186385771D01*
X184287914Y-186385771D01*
X186287914Y-185600057D02*
X185787914Y-185600057D01*
X185787914Y-186385771D02*
X185787914Y-184885771D01*
X186502200Y-184885771D01*
X186859342Y-184885771D02*
X187716485Y-184885771D01*
X187287914Y-186385771D02*
X187287914Y-184885771D01*
X188716485Y-185600057D02*
X188930771Y-185671486D01*
X189002199Y-185742914D01*
X189073628Y-185885771D01*
X189073628Y-186100057D01*
X189002199Y-186242914D01*
X188930771Y-186314343D01*
X188787913Y-186385771D01*
X188216485Y-186385771D01*
X188216485Y-184885771D01*
X188716485Y-184885771D01*
X188859342Y-184957200D01*
X188930771Y-185028629D01*
X189002199Y-185171486D01*
X189002199Y-185314343D01*
X188930771Y-185457200D01*
X188859342Y-185528629D01*
X188716485Y-185600057D01*
X188216485Y-185600057D01*
X189930771Y-186385771D02*
X189787913Y-186314343D01*
X189716485Y-186242914D01*
X189645056Y-186100057D01*
X189645056Y-185671486D01*
X189716485Y-185528629D01*
X189787913Y-185457200D01*
X189930771Y-185385771D01*
X190145056Y-185385771D01*
X190287913Y-185457200D01*
X190359342Y-185528629D01*
X190430771Y-185671486D01*
X190430771Y-186100057D01*
X190359342Y-186242914D01*
X190287913Y-186314343D01*
X190145056Y-186385771D01*
X189930771Y-186385771D01*
X191716485Y-186385771D02*
X191716485Y-185600057D01*
X191645056Y-185457200D01*
X191502199Y-185385771D01*
X191216485Y-185385771D01*
X191073628Y-185457200D01*
X191716485Y-186314343D02*
X191573628Y-186385771D01*
X191216485Y-186385771D01*
X191073628Y-186314343D01*
X191002199Y-186171486D01*
X191002199Y-186028629D01*
X191073628Y-185885771D01*
X191216485Y-185814343D01*
X191573628Y-185814343D01*
X191716485Y-185742914D01*
X192430771Y-186385771D02*
X192430771Y-185385771D01*
X192430771Y-185671486D02*
X192502199Y-185528629D01*
X192573628Y-185457200D01*
X192716485Y-185385771D01*
X192859342Y-185385771D01*
X194002199Y-186385771D02*
X194002199Y-184885771D01*
X194002199Y-186314343D02*
X193859342Y-186385771D01*
X193573628Y-186385771D01*
X193430770Y-186314343D01*
X193359342Y-186242914D01*
X193287913Y-186100057D01*
X193287913Y-185671486D01*
X193359342Y-185528629D01*
X193430770Y-185457200D01*
X193573628Y-185385771D01*
X193859342Y-185385771D01*
X194002199Y-185457200D01*
X194716485Y-186242914D02*
X194787913Y-186314343D01*
X194716485Y-186385771D01*
X194645056Y-186314343D01*
X194716485Y-186242914D01*
X194716485Y-186385771D01*
X195430771Y-186385771D02*
X195430771Y-184885771D01*
X195573628Y-185814343D02*
X196002199Y-186385771D01*
X196002199Y-185385771D02*
X195430771Y-185957200D01*
X196645057Y-186385771D02*
X196645057Y-185385771D01*
X196645057Y-184885771D02*
X196573628Y-184957200D01*
X196645057Y-185028629D01*
X196716485Y-184957200D01*
X196645057Y-184885771D01*
X196645057Y-185028629D01*
X198002200Y-186314343D02*
X197859343Y-186385771D01*
X197573629Y-186385771D01*
X197430771Y-186314343D01*
X197359343Y-186242914D01*
X197287914Y-186100057D01*
X197287914Y-185671486D01*
X197359343Y-185528629D01*
X197430771Y-185457200D01*
X197573629Y-185385771D01*
X197859343Y-185385771D01*
X198002200Y-185457200D01*
X199287914Y-186385771D02*
X199287914Y-185600057D01*
X199216485Y-185457200D01*
X199073628Y-185385771D01*
X198787914Y-185385771D01*
X198645057Y-185457200D01*
X199287914Y-186314343D02*
X199145057Y-186385771D01*
X198787914Y-186385771D01*
X198645057Y-186314343D01*
X198573628Y-186171486D01*
X198573628Y-186028629D01*
X198645057Y-185885771D01*
X198787914Y-185814343D01*
X199145057Y-185814343D01*
X199287914Y-185742914D01*
X200645057Y-186385771D02*
X200645057Y-184885771D01*
X200645057Y-186314343D02*
X200502200Y-186385771D01*
X200216486Y-186385771D01*
X200073628Y-186314343D01*
X200002200Y-186242914D01*
X199930771Y-186100057D01*
X199930771Y-185671486D01*
X200002200Y-185528629D01*
X200073628Y-185457200D01*
X200216486Y-185385771D01*
X200502200Y-185385771D01*
X200645057Y-185457200D01*
X201002200Y-186528629D02*
X202145057Y-186528629D01*
X202502200Y-185385771D02*
X202502200Y-186885771D01*
X202502200Y-185457200D02*
X202645057Y-185385771D01*
X202930771Y-185385771D01*
X203073628Y-185457200D01*
X203145057Y-185528629D01*
X203216486Y-185671486D01*
X203216486Y-186100057D01*
X203145057Y-186242914D01*
X203073628Y-186314343D01*
X202930771Y-186385771D01*
X202645057Y-186385771D01*
X202502200Y-186314343D01*
X204502200Y-186314343D02*
X204359343Y-186385771D01*
X204073629Y-186385771D01*
X203930771Y-186314343D01*
X203859343Y-186242914D01*
X203787914Y-186100057D01*
X203787914Y-185671486D01*
X203859343Y-185528629D01*
X203930771Y-185457200D01*
X204073629Y-185385771D01*
X204359343Y-185385771D01*
X204502200Y-185457200D01*
X205145057Y-186385771D02*
X205145057Y-184885771D01*
X205145057Y-185457200D02*
X205287914Y-185385771D01*
X205573628Y-185385771D01*
X205716485Y-185457200D01*
X205787914Y-185528629D01*
X205859343Y-185671486D01*
X205859343Y-186100057D01*
X205787914Y-186242914D01*
X205716485Y-186314343D01*
X205573628Y-186385771D01*
X205287914Y-186385771D01*
X205145057Y-186314343D01*
D10*
D11*
X177002200Y-181507200D02*
X285002200Y-181507200D01*
D10*
D11*
X178287914Y-183614343D02*
X178502200Y-183685771D01*
X178859343Y-183685771D01*
X179002200Y-183614343D01*
X179073629Y-183542914D01*
X179145057Y-183400057D01*
X179145057Y-183257200D01*
X179073629Y-183114343D01*
X179002200Y-183042914D01*
X178859343Y-182971486D01*
X178573629Y-182900057D01*
X178430771Y-182828629D01*
X178359343Y-182757200D01*
X178287914Y-182614343D01*
X178287914Y-182471486D01*
X178359343Y-182328629D01*
X178430771Y-182257200D01*
X178573629Y-182185771D01*
X178930771Y-182185771D01*
X179145057Y-182257200D01*
X179787914Y-183685771D02*
X179787914Y-182185771D01*
X180430771Y-183685771D02*
X180430771Y-182900057D01*
X180359342Y-182757200D01*
X180216485Y-182685771D01*
X180002200Y-182685771D01*
X179859342Y-182757200D01*
X179787914Y-182828629D01*
X181716485Y-183614343D02*
X181573628Y-183685771D01*
X181287914Y-183685771D01*
X181145057Y-183614343D01*
X181073628Y-183471486D01*
X181073628Y-182900057D01*
X181145057Y-182757200D01*
X181287914Y-182685771D01*
X181573628Y-182685771D01*
X181716485Y-182757200D01*
X181787914Y-182900057D01*
X181787914Y-183042914D01*
X181073628Y-183185771D01*
X183002199Y-183614343D02*
X182859342Y-183685771D01*
X182573628Y-183685771D01*
X182430771Y-183614343D01*
X182359342Y-183471486D01*
X182359342Y-182900057D01*
X182430771Y-182757200D01*
X182573628Y-182685771D01*
X182859342Y-182685771D01*
X183002199Y-182757200D01*
X183073628Y-182900057D01*
X183073628Y-183042914D01*
X182359342Y-183185771D01*
X183502199Y-182685771D02*
X184073628Y-182685771D01*
X183716485Y-182185771D02*
X183716485Y-183471486D01*
X183787913Y-183614343D01*
X183930771Y-183685771D01*
X184073628Y-183685771D01*
X184573628Y-183542914D02*
X184645056Y-183614343D01*
X184573628Y-183685771D01*
X184502199Y-183614343D01*
X184573628Y-183542914D01*
X184573628Y-183685771D01*
X184573628Y-182757200D02*
X184645056Y-182828629D01*
X184573628Y-182900057D01*
X184502199Y-182828629D01*
X184573628Y-182757200D01*
X184573628Y-182900057D01*
D10*
D11*
X197002200Y-191507200D02*
X197002200Y-194507200D01*
D10*
D11*
X261002200Y-191507200D02*
X261002200Y-198007200D01*
D14*
X248750000Y-142250000D02*
X254500000Y-139250000D01*
X248250000Y-140500000D02*
X248750000Y-142250000D01*
X254500000Y-139250000D02*
X248250000Y-140500000D01*
X248250000Y-137500000D02*
X248250000Y-139500000D01*
X254500000Y-138500000D02*
X248250000Y-139500000D01*
X254500000Y-138500000D02*
X248250000Y-137500000D01*
X264250000Y-142250000D02*
X258500000Y-139250000D01*
X264750000Y-140500000D02*
X264250000Y-142250000D01*
X258500000Y-139250000D02*
X264750000Y-140500000D01*
X264750000Y-139500000D02*
X258500000Y-138500000D01*
X264750000Y-137500000D02*
X264750000Y-139500000D01*
X258500000Y-138500000D02*
X264750000Y-137500000D01*
X255500000Y-138500000D02*
X256500000Y-152500000D01*
X257500000Y-138500000D02*
X256500000Y-152500000D01*
X255500000Y-138500000D02*
X257500000Y-138500000D01*
X256500000Y-137000000D02*
X255000000Y-135000000D01*
X258000000Y-135000000D02*
X256500000Y-137000000D01*
X255000000Y-135000000D02*
X258000000Y-135000000D01*
D15*
X151642857Y-133678571D02*
X151642857Y-132178571D01*
X152000000Y-132178571D01*
X152214285Y-132250000D01*
X152357143Y-132392857D01*
X152428571Y-132535714D01*
X152500000Y-132821429D01*
X152500000Y-133035714D01*
X152428571Y-133321429D01*
X152357143Y-133464286D01*
X152214285Y-133607143D01*
X152000000Y-133678571D01*
X151642857Y-133678571D01*
X154000000Y-133678571D02*
X153500000Y-132964286D01*
X153142857Y-133678571D02*
X153142857Y-132178571D01*
X153714285Y-132178571D01*
X153857143Y-132250000D01*
X153928571Y-132321429D01*
X154000000Y-132464286D01*
X154000000Y-132678571D01*
X153928571Y-132821429D01*
X153857143Y-132892857D01*
X153714285Y-132964286D01*
X153142857Y-132964286D01*
X154571428Y-133250000D02*
X155285714Y-133250000D01*
X154428571Y-133678571D02*
X154928571Y-132178571D01*
X155428571Y-133678571D01*
X156714285Y-132250000D02*
X156571428Y-132178571D01*
X156357142Y-132178571D01*
X156142857Y-132250000D01*
X155999999Y-132392857D01*
X155928571Y-132535714D01*
X155857142Y-132821429D01*
X155857142Y-133035714D01*
X155928571Y-133321429D01*
X155999999Y-133464286D01*
X156142857Y-133607143D01*
X156357142Y-133678571D01*
X156499999Y-133678571D01*
X156714285Y-133607143D01*
X156785714Y-133535714D01*
X156785714Y-133035714D01*
X156499999Y-133035714D01*
X157714285Y-132178571D02*
X157999999Y-132178571D01*
X158142857Y-132250000D01*
X158285714Y-132392857D01*
X158357142Y-132678571D01*
X158357142Y-133178571D01*
X158285714Y-133464286D01*
X158142857Y-133607143D01*
X157999999Y-133678571D01*
X157714285Y-133678571D01*
X157571428Y-133607143D01*
X157428571Y-133464286D01*
X157357142Y-133178571D01*
X157357142Y-132678571D01*
X157428571Y-132392857D01*
X157571428Y-132250000D01*
X157714285Y-132178571D01*
X159000000Y-133678571D02*
X159000000Y-132178571D01*
X159857143Y-133678571D01*
X159857143Y-132178571D01*
X161071429Y-132892857D02*
X160571429Y-132892857D01*
X160571429Y-133678571D02*
X160571429Y-132178571D01*
X161285715Y-132178571D01*
X162571429Y-133678571D02*
X161857143Y-133678571D01*
X161857143Y-132178571D01*
X163357143Y-132964286D02*
X163357143Y-133678571D01*
X162857143Y-132178571D02*
X163357143Y-132964286D01*
X163857143Y-132178571D01*
X165285714Y-132178571D02*
X166142857Y-132178571D01*
X165714286Y-133678571D02*
X165714286Y-132178571D01*
X166642857Y-132892857D02*
X167142857Y-132892857D01*
X167357143Y-133678571D02*
X166642857Y-133678571D01*
X166642857Y-132178571D01*
X167357143Y-132178571D01*
X168857143Y-133535714D02*
X168785714Y-133607143D01*
X168571428Y-133678571D01*
X168428571Y-133678571D01*
X168214286Y-133607143D01*
X168071428Y-133464286D01*
X168000000Y-133321429D01*
X167928571Y-133035714D01*
X167928571Y-132821429D01*
X168000000Y-132535714D01*
X168071428Y-132392857D01*
X168214286Y-132250000D01*
X168428571Y-132178571D01*
X168571428Y-132178571D01*
X168785714Y-132250000D01*
X168857143Y-132321429D01*
X169500000Y-133678571D02*
X169500000Y-132178571D01*
X169500000Y-132892857D02*
X170357143Y-132892857D01*
X170357143Y-133678571D02*
X170357143Y-132178571D01*
D16*
X266000000Y-111700000D02*
X266000000Y-112700000D01*
X266000000Y-112700000D02*
X268100000Y-112700000D01*
X266000000Y-111700000D02*
X268100000Y-111700000D01*
X114600000Y-132750000D02*
X114600000Y-133450000D01*
X113400000Y-133450000D02*
X113400000Y-132750000D01*
D11*
X116125000Y-134850000D02*
X116125000Y-133850000D01*
X117475000Y-133850000D02*
X117475000Y-134850000D01*
X116600000Y-131575000D02*
X116100000Y-131575000D01*
X116100000Y-132625000D02*
X116600000Y-132625000D01*
D16*
X127850000Y-126825000D02*
X128350000Y-126825000D01*
X128350000Y-125875000D02*
X127850000Y-125875000D01*
X166600000Y-147400000D02*
X165600000Y-147400000D01*
X165600000Y-149100000D02*
X166600000Y-149100000D01*
D11*
X132375000Y-138250000D02*
X132375000Y-137675000D01*
X126625000Y-138250000D02*
X126625000Y-137600000D01*
X126625000Y-127600000D02*
X126625000Y-128250000D01*
X132375000Y-127600000D02*
X132375000Y-128250000D01*
X132375000Y-138250000D02*
X126625000Y-138250000D01*
X132375000Y-127600000D02*
X126625000Y-127600000D01*
X132375000Y-137675000D02*
X133975000Y-137675000D01*
D17*
X243363633Y-114699939D02*
X248363633Y-114699939D01*
X248363633Y-114699939D02*
X248363633Y-109699939D01*
X248363633Y-109699939D02*
X243363633Y-109699939D01*
X243363633Y-109699939D02*
X243363633Y-114699939D01*
X244863633Y-110699939D02*
G75*
G03X244863633Y-110699939I-500000J0D01*
G01*
D18*
X178770160Y-118150000D02*
X178760000Y-118150000D01*
D16*
X244800000Y-137500000D02*
X245500000Y-137500000D01*
X245500000Y-138700000D02*
X244800000Y-138700000D01*
X122150000Y-127550000D02*
X122850000Y-127550000D01*
X122850000Y-128750000D02*
X122150000Y-128750000D01*
D11*
X149140512Y-145600000D02*
G75*
G03X149140512Y-145600000I-390512J0D01*
G01*
X149490000Y-123980000D02*
X141870000Y-123980000D01*
X141870000Y-123980000D02*
X141870000Y-146840000D01*
X141870000Y-146840000D02*
X149490000Y-146840000D01*
X149490000Y-146840000D02*
X149490000Y-123980000D01*
D16*
X141925000Y-108325000D02*
X146475000Y-108325000D01*
X141925000Y-111625000D02*
X146475000Y-111625000D01*
X141925000Y-108325000D02*
X141925000Y-111625000D01*
X124575000Y-116400000D02*
X129125000Y-116400000D01*
X124575000Y-119700000D02*
X129125000Y-119700000D01*
X124575000Y-116400000D02*
X124575000Y-119700000D01*
X122350000Y-130700000D02*
X122350000Y-131700000D01*
X124050000Y-131700000D02*
X124050000Y-130700000D01*
D11*
X189113880Y-120607620D02*
X190256880Y-119464620D01*
X189113880Y-120226620D02*
X189875880Y-119464620D01*
X206385880Y-119464620D02*
X206385880Y-136736620D01*
X206385880Y-136736620D02*
X189113880Y-136736620D01*
X189113880Y-136736620D02*
X189113880Y-119464620D01*
X189113880Y-119464620D02*
X206385880Y-119464620D01*
X192250780Y-120600000D02*
X192260940Y-120600000D01*
D16*
X242027926Y-128150000D02*
X240927926Y-128150000D01*
X240927926Y-128150000D02*
X240927926Y-130250000D01*
X242027926Y-128150000D02*
X242027926Y-130250000D01*
D19*
X239197376Y-131405088D02*
X239197376Y-141405088D01*
X239197376Y-141405088D02*
X229197376Y-141405088D01*
X229197376Y-141405088D02*
X229197376Y-131405088D01*
X229197376Y-131405088D02*
X239197376Y-131405088D01*
G36*
X238297376Y-131405088D02*
X239197376Y-132305088D01*
X239197376Y-131405088D01*
X238297376Y-131405088D01*
G37*
X238297376Y-131405088D02*
X239197376Y-132305088D01*
X239197376Y-131405088D01*
X238297376Y-131405088D01*
D20*
X238347376Y-130805088D02*
G75*
G03X238347376Y-130805088I-150000J0D01*
G01*
D11*
X209300000Y-110050000D02*
G75*
G03X209300000Y-110050000I-100000J0D01*
G01*
X193050000Y-95975000D02*
X192550000Y-95975000D01*
X192550000Y-97025000D02*
X193050000Y-97025000D01*
X122575000Y-110750000D02*
X122575000Y-111250000D01*
X123625000Y-111250000D02*
X123625000Y-110750000D01*
X175350000Y-100575000D02*
X174850000Y-100575000D01*
X174850000Y-101625000D02*
X175350000Y-101625000D01*
X178425000Y-100600000D02*
X178425000Y-100100000D01*
X177375000Y-100100000D02*
X177375000Y-100600000D01*
X183800000Y-99775000D02*
X183300000Y-99775000D01*
X183300000Y-100825000D02*
X183800000Y-100825000D01*
X135225000Y-122600000D02*
X135225000Y-122100000D01*
X134175000Y-122100000D02*
X134175000Y-122600000D01*
X158550000Y-120325000D02*
X159050000Y-120325000D01*
X159050000Y-119275000D02*
X158550000Y-119275000D01*
X169575000Y-111500000D02*
X169075000Y-111500000D01*
X169075000Y-112550000D02*
X169575000Y-112550000D01*
X171700000Y-112675000D02*
X172200000Y-112675000D01*
X172200000Y-111625000D02*
X171700000Y-111625000D01*
X243950000Y-116725000D02*
X243450000Y-116725000D01*
X243450000Y-117775000D02*
X243950000Y-117775000D01*
X241900000Y-115175000D02*
X241400000Y-115175000D01*
X241400000Y-116225000D02*
X241900000Y-116225000D01*
X247600000Y-131875000D02*
X247100000Y-131875000D01*
X247100000Y-132925000D02*
X247600000Y-132925000D01*
X241600000Y-144875000D02*
X241100000Y-144875000D01*
X241100000Y-145925000D02*
X241600000Y-145925000D01*
X233075000Y-124300000D02*
X233075000Y-123800000D01*
X232025000Y-123800000D02*
X232025000Y-124300000D01*
X228200000Y-110425000D02*
X228700000Y-110425000D01*
X228700000Y-109375000D02*
X228200000Y-109375000D01*
X204875000Y-105450000D02*
X204875000Y-105950000D01*
X205925000Y-105950000D02*
X205925000Y-105450000D01*
X218075000Y-125400000D02*
X218075000Y-125900000D01*
X219125000Y-125900000D02*
X219125000Y-125400000D01*
X184550000Y-123625000D02*
X184050000Y-123625000D01*
X184050000Y-124675000D02*
X184550000Y-124675000D01*
X131575000Y-144850000D02*
X131575000Y-144350000D01*
X130525000Y-144350000D02*
X130525000Y-144850000D01*
X136950000Y-114475000D02*
X136450000Y-114475000D01*
X136450000Y-115525000D02*
X136950000Y-115525000D01*
X139750000Y-115525000D02*
X140250000Y-115525000D01*
X140250000Y-114475000D02*
X139750000Y-114475000D01*
X119025000Y-125700000D02*
X119025000Y-125200000D01*
X117975000Y-125200000D02*
X117975000Y-125700000D01*
X138525000Y-106000000D02*
X138525000Y-105500000D01*
X137475000Y-105500000D02*
X137475000Y-106000000D01*
X117575000Y-111650000D02*
X117575000Y-111150000D01*
X116525000Y-111150000D02*
X116525000Y-111650000D01*
X156825000Y-114600000D02*
X156825000Y-114100000D01*
X155775000Y-114100000D02*
X155775000Y-114600000D01*
X118025000Y-123250000D02*
X118025000Y-122750000D01*
X116975000Y-122750000D02*
X116975000Y-123250000D01*
X120525000Y-106900000D02*
X120525000Y-106400000D01*
X119475000Y-106400000D02*
X119475000Y-106900000D01*
D16*
X130760000Y-142880000D02*
X130760000Y-141950000D01*
X130760000Y-139720000D02*
X130760000Y-140650000D01*
X130760000Y-139720000D02*
X128600000Y-139720000D01*
X130760000Y-142880000D02*
X129300000Y-142880000D01*
X136450000Y-128200000D02*
X136450000Y-129200000D01*
X138150000Y-129200000D02*
X138150000Y-128200000D01*
D11*
X183225000Y-104750000D02*
X183225000Y-105750000D01*
X181875000Y-105750000D02*
X181875000Y-104750000D01*
X140750000Y-107425000D02*
X139750000Y-107425000D01*
X139750000Y-106075000D02*
X140750000Y-106075000D01*
X119025000Y-117400000D02*
X119025000Y-116400000D01*
X120375000Y-116400000D02*
X120375000Y-117400000D01*
X152875000Y-118600000D02*
X152875000Y-119600000D01*
X151525000Y-119600000D02*
X151525000Y-118600000D01*
X253450000Y-126675000D02*
X252950000Y-126675000D01*
X252950000Y-127725000D02*
X253450000Y-127725000D01*
X247025000Y-126550000D02*
X247025000Y-126050000D01*
X245975000Y-126050000D02*
X245975000Y-126550000D01*
X215375000Y-103800000D02*
X215375000Y-104300000D01*
X216425000Y-104300000D02*
X216425000Y-103800000D01*
X209950000Y-104075000D02*
X209450000Y-104075000D01*
X209450000Y-105125000D02*
X209950000Y-105125000D01*
X247775000Y-101900000D02*
X247775000Y-102400000D01*
X248825000Y-102400000D02*
X248825000Y-101900000D01*
X243575000Y-105500000D02*
X243575000Y-106000000D01*
X244625000Y-106000000D02*
X244625000Y-105500000D01*
X213775000Y-102600000D02*
X213775000Y-103100000D01*
X214825000Y-103100000D02*
X214825000Y-102600000D01*
X249050000Y-96425000D02*
X248550000Y-96425000D01*
X248550000Y-97475000D02*
X249050000Y-97475000D01*
X212275000Y-102600000D02*
X212275000Y-103100000D01*
X213325000Y-103100000D02*
X213325000Y-102600000D01*
X245850000Y-97475000D02*
X246350000Y-97475000D01*
X246350000Y-96425000D02*
X245850000Y-96425000D01*
X209942409Y-102629529D02*
X209442409Y-102629529D01*
X209442409Y-103679529D02*
X209942409Y-103679529D01*
X246125000Y-106000000D02*
X246125000Y-105500000D01*
X245075000Y-105500000D02*
X245075000Y-106000000D01*
X236650000Y-103750000D02*
X236650000Y-103250000D01*
X235600000Y-103250000D02*
X235600000Y-103750000D01*
X240675000Y-105600000D02*
X240675000Y-106100000D01*
X241725000Y-106100000D02*
X241725000Y-105600000D01*
X251800000Y-104725000D02*
X251300000Y-104725000D01*
X251300000Y-105775000D02*
X251800000Y-105775000D01*
X251800000Y-106225000D02*
X251300000Y-106225000D01*
X251300000Y-107275000D02*
X251800000Y-107275000D01*
X234100000Y-103725000D02*
X234600000Y-103725000D01*
X234600000Y-102675000D02*
X234100000Y-102675000D01*
X251800000Y-103025000D02*
X251300000Y-103025000D01*
X251300000Y-104075000D02*
X251800000Y-104075000D01*
X239125000Y-106650000D02*
X239125000Y-107150000D01*
X240175000Y-107150000D02*
X240175000Y-106650000D01*
X259750000Y-102675000D02*
X259250000Y-102675000D01*
X259250000Y-103725000D02*
X259750000Y-103725000D01*
X227875000Y-103600000D02*
X227875000Y-104100000D01*
X228925000Y-104100000D02*
X228925000Y-103600000D01*
X261425000Y-103150000D02*
X261425000Y-103650000D01*
X262475000Y-103650000D02*
X262475000Y-103150000D01*
X234325000Y-122850000D02*
X234325000Y-122350000D01*
X233275000Y-122350000D02*
X233275000Y-122850000D01*
X238264904Y-109824118D02*
X238764904Y-109824118D01*
X238764904Y-108774118D02*
X238264904Y-108774118D01*
X107925000Y-139700000D02*
X107925000Y-139200000D01*
X106875000Y-139200000D02*
X106875000Y-139700000D01*
X202225000Y-139750000D02*
X202225000Y-140250000D01*
X203275000Y-140250000D02*
X203275000Y-139750000D01*
X253875000Y-121300000D02*
X253875000Y-121800000D01*
X254925000Y-121800000D02*
X254925000Y-121300000D01*
X255275000Y-121300000D02*
X255275000Y-121800000D01*
X256325000Y-121800000D02*
X256325000Y-121300000D01*
D16*
X186750000Y-136150004D02*
X187450000Y-136150004D01*
X187450000Y-137350004D02*
X186750000Y-137350004D01*
X198900000Y-140100000D02*
X198200000Y-140100000D01*
X198200000Y-138900000D02*
X198900000Y-138900000D01*
X185500000Y-133100000D02*
X185500000Y-132400000D01*
X186700000Y-132400000D02*
X186700000Y-133100000D01*
X179750000Y-99700000D02*
X179750000Y-100900000D01*
X181600000Y-99700000D02*
X179750000Y-99700000D01*
X181600000Y-100900000D02*
X179750000Y-100900000D01*
X245825000Y-128650000D02*
X245825000Y-129150000D01*
X246775000Y-129150000D02*
X246775000Y-128650000D01*
X254325000Y-131200000D02*
X254325000Y-131700000D01*
X255275000Y-131700000D02*
X255275000Y-131200000D01*
X130300000Y-123500000D02*
X131300000Y-123500000D01*
X131300000Y-121800000D02*
X130300000Y-121800000D01*
X259000000Y-111750000D02*
X259000000Y-112750000D01*
X259000000Y-112750000D02*
X261100000Y-112750000D01*
X259000000Y-111750000D02*
X261100000Y-111750000D01*
X244650000Y-137200000D02*
X243950000Y-137200000D01*
X243950000Y-136000000D02*
X244650000Y-136000000D01*
X167150000Y-139560000D02*
X168950000Y-139560000D01*
X168950000Y-136340000D02*
X166500000Y-136340000D01*
X188850000Y-147360000D02*
X190650000Y-147360000D01*
X190650000Y-144140000D02*
X188200000Y-144140000D01*
X178000000Y-134410000D02*
X179800000Y-134410000D01*
X179800000Y-131190000D02*
X177350000Y-131190000D01*
X167150000Y-146760000D02*
X168950000Y-146760000D01*
X168950000Y-143540000D02*
X166500000Y-143540000D01*
D11*
X136700000Y-140500000D02*
X136700000Y-145676000D01*
X132900000Y-145700000D02*
X136700000Y-145700000D01*
X132900000Y-140500000D02*
X132900000Y-145700000D01*
X136700000Y-140500000D02*
X132900000Y-140500000D01*
D16*
X153760000Y-126580000D02*
X153760000Y-125650000D01*
X153760000Y-123420000D02*
X153760000Y-124350000D01*
X153760000Y-123420000D02*
X151600000Y-123420000D01*
X153760000Y-126580000D02*
X152300000Y-126580000D01*
X202440000Y-97070000D02*
X202440000Y-98000000D01*
X202440000Y-100230000D02*
X202440000Y-99300000D01*
X202440000Y-100230000D02*
X204600000Y-100230000D01*
X202440000Y-97070000D02*
X203900000Y-97070000D01*
X180260000Y-129080000D02*
X180260000Y-128150000D01*
X180260000Y-125920000D02*
X180260000Y-126850000D01*
X180260000Y-125920000D02*
X178100000Y-125920000D01*
X180260000Y-129080000D02*
X178800000Y-129080000D01*
X243450000Y-138700000D02*
X243450000Y-137600000D01*
X243450000Y-137600000D02*
X241350000Y-137600000D01*
X243450000Y-138700000D02*
X241350000Y-138700000D01*
X181750000Y-125200000D02*
X181750000Y-126200000D01*
X181750000Y-126200000D02*
X183850000Y-126200000D01*
X181750000Y-125200000D02*
X183850000Y-125200000D01*
X206850000Y-103575000D02*
X207350000Y-103575000D01*
X207350000Y-102625000D02*
X206850000Y-102625000D01*
X242125000Y-105400000D02*
X242125000Y-105900000D01*
X243075000Y-105900000D02*
X243075000Y-105400000D01*
X213600000Y-105025000D02*
X214100000Y-105025000D01*
X214100000Y-104075000D02*
X213600000Y-104075000D01*
X248550000Y-103275000D02*
X248050000Y-103275000D01*
X248050000Y-104225000D02*
X248550000Y-104225000D01*
X249500000Y-106275000D02*
X249000000Y-106275000D01*
X249000000Y-107225000D02*
X249500000Y-107225000D01*
X238325000Y-102675000D02*
X237825000Y-102675000D01*
X237825000Y-103625000D02*
X238325000Y-103625000D01*
X249500000Y-104775000D02*
X249000000Y-104775000D01*
X249000000Y-105725000D02*
X249500000Y-105725000D01*
X179650000Y-123700000D02*
X180350000Y-123700000D01*
X180350000Y-124900000D02*
X179650000Y-124900000D01*
X175100000Y-98500000D02*
X174400000Y-98500000D01*
X174400000Y-97300000D02*
X175100000Y-97300000D01*
X250600000Y-116500000D02*
X249900000Y-116500000D01*
X249900000Y-115300000D02*
X250600000Y-115300000D01*
X259675000Y-107250000D02*
X260175000Y-107250000D01*
X260175000Y-108050000D02*
X259675000Y-108050000D01*
X263550000Y-106575000D02*
X263550000Y-106075000D01*
X264350000Y-106075000D02*
X264350000Y-106575000D01*
X202900000Y-107450000D02*
X201900000Y-107450000D01*
X201900000Y-109150000D02*
X202900000Y-109150000D01*
X210650000Y-107700000D02*
X211350000Y-107700000D01*
X211350000Y-108900000D02*
X210650000Y-108900000D01*
X170250000Y-138750000D02*
X170250000Y-139750000D01*
X171950000Y-139750000D02*
X171950000Y-138750000D01*
X191950000Y-146600000D02*
X191950000Y-147600000D01*
X193650000Y-147600000D02*
X193650000Y-146600000D01*
X183311446Y-133611304D02*
X183311446Y-134611304D01*
X185011446Y-134611304D02*
X185011446Y-133611304D01*
X188400000Y-148400000D02*
X187400000Y-148400000D01*
X187400000Y-150100000D02*
X188400000Y-150100000D01*
X181100000Y-133550000D02*
X181100000Y-134550000D01*
X182800000Y-134550000D02*
X182800000Y-133550000D01*
X170250000Y-145950000D02*
X170250000Y-146950000D01*
X171950000Y-146950000D02*
X171950000Y-145950000D01*
X191900000Y-151100000D02*
X190900000Y-151100000D01*
X190900000Y-152800000D02*
X191900000Y-152800000D01*
X244650000Y-135600000D02*
X243950000Y-135600000D01*
X243950000Y-134400000D02*
X244650000Y-134400000D01*
X244350000Y-132050000D02*
X245050000Y-132050000D01*
X245050000Y-133250000D02*
X244350000Y-133250000D01*
X231100000Y-149800000D02*
X231100000Y-149100000D01*
X232300000Y-149100000D02*
X232300000Y-149800000D01*
X232825000Y-149000000D02*
X232825000Y-149500000D01*
X233775000Y-149500000D02*
X233775000Y-149000000D01*
X182650000Y-151100000D02*
X183350000Y-151100000D01*
X183350000Y-152300000D02*
X182650000Y-152300000D01*
X185400000Y-145200000D02*
X186100000Y-145200000D01*
X186100000Y-146400000D02*
X185400000Y-146400000D01*
X182350000Y-145150000D02*
X183050000Y-145150000D01*
X183050000Y-146350000D02*
X182350000Y-146350000D01*
X185400000Y-146800000D02*
X186100000Y-146800000D01*
X186100000Y-148000000D02*
X185400000Y-148000000D01*
X185400000Y-143500000D02*
X186100000Y-143500000D01*
X186100000Y-144700000D02*
X185400000Y-144700000D01*
X134875000Y-130100000D02*
X134875000Y-130600000D01*
X135825000Y-130600000D02*
X135825000Y-130100000D01*
X137700000Y-137050000D02*
X136700000Y-137050000D01*
X136700000Y-138750000D02*
X137700000Y-138750000D01*
X124550000Y-106300000D02*
X124550000Y-105300000D01*
X122850000Y-105300000D02*
X122850000Y-106300000D01*
X135250000Y-125350000D02*
X136250000Y-125350000D01*
X136250000Y-123650000D02*
X135250000Y-123650000D01*
X191850000Y-138350000D02*
X191850000Y-139050000D01*
X190650000Y-139050000D02*
X190650000Y-138350000D01*
D11*
X211650000Y-111000000D02*
X210850000Y-111000000D01*
X210850000Y-111000000D02*
X210850000Y-111800000D01*
X211050000Y-111200000D02*
X219450000Y-111200000D01*
X219450000Y-111200000D02*
X219450000Y-124000000D01*
X219450000Y-124000000D02*
X211050000Y-124000000D01*
X211050000Y-124000000D02*
X211050000Y-111200000D01*
D16*
X243400000Y-127750000D02*
X244100000Y-127750000D01*
X244100000Y-128950000D02*
X243400000Y-128950000D01*
D11*
X158700000Y-106925000D02*
X159200000Y-106925000D01*
X159200000Y-105875000D02*
X158700000Y-105875000D01*
X180409300Y-146382824D02*
G75*
G03X180409300Y-146382824I-100000J0D01*
G01*
D10*
X181959300Y-146132824D02*
G75*
G03X181959300Y-146132824I-200000J0D01*
G01*
D16*
X122650000Y-109275000D02*
X123150000Y-109275000D01*
X123150000Y-108325000D02*
X122650000Y-108325000D01*
X157500000Y-115000000D02*
X157500000Y-114300000D01*
X158700000Y-114300000D02*
X158700000Y-115000000D01*
X127000000Y-123475000D02*
X126500000Y-123475000D01*
X126500000Y-124425000D02*
X127000000Y-124425000D01*
X136200000Y-134350000D02*
X136200000Y-133650000D01*
X137400000Y-133650000D02*
X137400000Y-134350000D01*
X119600000Y-109300000D02*
X119600000Y-110000000D01*
X118400000Y-110000000D02*
X118400000Y-109300000D01*
X137400000Y-104300000D02*
X136700000Y-104300000D01*
X136700000Y-103100000D02*
X137400000Y-103100000D01*
X137651406Y-122397434D02*
X136951406Y-122397434D01*
X136951406Y-121197434D02*
X137651406Y-121197434D01*
X120875000Y-125550000D02*
X120875000Y-125050000D01*
X119925000Y-125050000D02*
X119925000Y-125550000D01*
D11*
X124325000Y-134650000D02*
X124325000Y-134150000D01*
X123275000Y-134150000D02*
X123275000Y-134650000D01*
X232900000Y-110410000D02*
X232900000Y-110615000D01*
X238400000Y-110410000D02*
X238400000Y-110710000D01*
X238400000Y-115920000D02*
X238400000Y-115620000D01*
X232900000Y-115920000D02*
X232900000Y-115620000D01*
X232900000Y-110410000D02*
X238400000Y-110410000D01*
X232900000Y-115920000D02*
X238400000Y-115920000D01*
X232900000Y-110615000D02*
X231150000Y-110615000D01*
X170225000Y-106840000D02*
X170225000Y-106965000D01*
X173475000Y-106840000D02*
X173475000Y-107065000D01*
X173475000Y-110090000D02*
X173475000Y-109865000D01*
X170225000Y-110090000D02*
X170225000Y-109865000D01*
X170225000Y-106840000D02*
X173475000Y-106840000D01*
X170225000Y-110090000D02*
X173475000Y-110090000D01*
X170225000Y-106965000D02*
X169150000Y-106965000D01*
X217300000Y-139125000D02*
X216800000Y-139125000D01*
X216800000Y-140175000D02*
X217300000Y-140175000D01*
X214645000Y-138125000D02*
X214145000Y-138125000D01*
X214145000Y-139175000D02*
X214645000Y-139175000D01*
X217250000Y-131875000D02*
X216750000Y-131875000D01*
X216750000Y-132925000D02*
X217250000Y-132925000D01*
X214605000Y-130875000D02*
X214105000Y-130875000D01*
X214105000Y-131925000D02*
X214605000Y-131925000D01*
X214600000Y-136475000D02*
X214100000Y-136475000D01*
X214100000Y-137525000D02*
X214600000Y-137525000D01*
X211950000Y-132675000D02*
X211450000Y-132675000D01*
X211450000Y-133725000D02*
X211950000Y-133725000D01*
X211945000Y-129875000D02*
X211445000Y-129875000D01*
X211445000Y-130925000D02*
X211945000Y-130925000D01*
X211950000Y-139925000D02*
X211450000Y-139925000D01*
X211450000Y-140975000D02*
X211950000Y-140975000D01*
X217245000Y-134675000D02*
X216745000Y-134675000D01*
X216745000Y-135725000D02*
X217245000Y-135725000D01*
X217245000Y-129075000D02*
X216745000Y-129075000D01*
X216745000Y-130125000D02*
X217245000Y-130125000D01*
X214645000Y-140925000D02*
X214145000Y-140925000D01*
X214145000Y-141975000D02*
X214645000Y-141975000D01*
X211945000Y-135475000D02*
X211445000Y-135475000D01*
X211445000Y-136525000D02*
X211945000Y-136525000D01*
X214605000Y-133675000D02*
X214105000Y-133675000D01*
X214105000Y-134725000D02*
X214605000Y-134725000D01*
M02*
