M48
;DRILL file {KiCad 4.0.4-stable} date 01/31/17 14:43:52
;FORMAT={-:-/ absolute / metric / decimal}
FMAT,2
METRIC,TZ
T1C0.250
T2C0.762
T3C0.800
T4C0.920
T5C1.000
T6C1.100
T7C1.200
T8C1.300
T9C1.400
T10C2.080
T11C2.300
T12C2.400
T13C3.000
T14C3.250
%
G90
G05
M71
T1
X107.4Y-140.
X108.1Y-133.5
X109.9Y-114.9
X109.9Y-116.9
X110.Y-131.5
X110.9Y-134.5
X112.9Y-127.5
X113.5Y-117.3
X113.8Y-107.2
X116.9Y-111.55
X117.35Y-131.25
X117.5Y-104.9
X117.5Y-106.9
X117.7Y-108.9
X118.55Y-127.7
X119.6Y-120.4
X119.6Y-122.4
X120.85Y-134.45
X120.85Y-136.45
X121.1Y-132.4
X121.2Y-128.1
X121.4Y-117.1
X122.9Y-134.6
X122.9Y-136.8
X123.1Y-121.55
X123.1Y-122.85
X123.1Y-124.8
X123.1Y-125.45
X123.1Y-126.1
X123.1Y-126.75
X123.1Y-127.4
X123.1Y-128.05
X123.1Y-130.
X123.1Y-132.4
X123.4Y-117.1
X123.8Y-114.2
X124.9Y-134.6
X124.9Y-136.8
X125.943Y-116.682
X125.95Y-113.
X126.25Y-129.5
X126.6Y-120.65
X126.6Y-126.15
X127.Y-135.3
X127.3Y-123.5
X127.75Y-129.5
X129.Y-113.
X129.Y-134.6
X129.Y-140.15
X129.Y-142.25
X130.3Y-121.55
X130.3Y-122.2
X130.3Y-122.85
X130.3Y-123.5
X130.3Y-124.15
X130.3Y-124.8
X130.3Y-126.1
X130.3Y-127.4
X130.3Y-129.35
X130.3Y-130.
X130.4Y-131.1
X130.85Y-139.25
X131.Y-134.6
X131.Y-141.3
X131.05Y-144.15
X131.05Y-145.05
X132.2Y-109.6
X132.35Y-124.75
X132.6Y-130.1
X132.6Y-131.1
X132.8Y-121.6
X132.8Y-123.6
X133.8Y-144.8
X134.7Y-121.9
X134.7Y-122.8
X134.8Y-141.55
X135.3Y-119.1
X135.4Y-146.8
X135.4Y-147.4
X135.4Y-148.
X135.7Y-129.75
X135.7Y-133.6
X135.75Y-106.5
X135.8Y-144.8
X136.Y-146.8
X136.Y-147.4
X136.Y-148.
X136.6Y-146.8
X136.6Y-147.4
X136.6Y-148.
X136.65Y-106.5
X136.75Y-124.5
X136.89Y-152.565
X137.2Y-146.8
X137.2Y-147.4
X137.2Y-148.
X137.3Y-119.1
X137.3Y-127.7
X137.3Y-129.7
X137.75Y-102.1
X137.75Y-103.6
X137.775Y-150.7
X140.Y-131.2
X140.1Y-100.25
X142.5Y-150.7
X142.8Y-146.8
X142.8Y-147.4
X142.9Y-113.
X143.4Y-146.8
X143.4Y-147.4
X143.4Y-148.
X143.4Y-153.2
X143.6Y-152.5
X143.8Y-153.7
X144.Y-146.8
X144.Y-147.4
X144.Y-148.
X144.6Y-146.8
X144.6Y-147.4
X144.6Y-148.
X145.2Y-146.8
X145.2Y-147.4
X145.4Y-153.7
X145.6Y-153.
X146.4Y-116.6
X146.4Y-126.45
X146.5Y-127.45
X146.9Y-125.2
X148.3Y-126.5
X149.3Y-114.
X150.4Y-111.4
X150.75Y-125.05
X151.574Y-139.3
X151.574Y-144.802
X152.Y-124.05
X152.Y-125.95
X152.4Y-111.4
X153.55Y-139.3
X153.55Y-144.802
X153.9Y-128.095
X154.Y-125.
X155.055Y-128.095
X155.526Y-139.3
X155.526Y-144.802
X157.9Y-148.6
X158.Y-152.4
X158.5Y-106.4
X158.55Y-116.6
X159.75Y-137.35
X159.75Y-138.3
X159.75Y-139.25
X159.75Y-144.55
X159.75Y-145.5
X159.75Y-146.45
X159.9Y-148.6
X159.95Y-124.85
X160.Y-152.4
X160.79Y-127.7
X160.79Y-129.4
X161.9Y-152.4
X161.95Y-137.35
X161.95Y-139.25
X161.95Y-144.55
X161.95Y-146.45
X162.85Y-141.9
X162.85Y-149.05
X163.25Y-127.7
X163.25Y-129.4
X163.9Y-138.6
X163.9Y-140.6
X163.9Y-145.8
X163.9Y-147.8
X163.9Y-152.4
X166.85Y-144.5
X166.85Y-145.45
X166.85Y-146.4
X166.9Y-137.45
X166.9Y-138.4
X166.9Y-139.35
X168.3Y-111.85
X168.6Y-129.9
X169.Y-117.8
X169.05Y-144.5
X169.05Y-146.4
X169.1Y-137.45
X169.1Y-139.35
X169.165Y-106.6
X169.165Y-107.87
X169.165Y-109.135
X169.165Y-110.405
X169.2Y-111.85
X169.8Y-149.05
X169.85Y-141.95
X170.05Y-117.75
X171.Y-105.
X171.Y-145.8
X171.Y-147.8
X171.05Y-138.65
X171.05Y-140.65
X171.5Y-112.15
X171.65Y-106.65
X171.65Y-108.15
X171.948Y-127.302
X171.974Y-121.749
X172.05Y-109.65
X172.4Y-112.15
X172.5Y-105.
X172.7Y-129.9
X173.15Y-107.85
X173.261Y-138.711
X173.261Y-140.711
X173.924Y-127.302
X173.95Y-99.1
X173.95Y-121.749
X174.Y-97.6
X174.1Y-151.55
X174.65Y-101.25
X174.9Y-110.405
X175.55Y-101.25
X175.9Y-127.302
X175.926Y-121.749
X175.95Y-103.55
X176.45Y-105.3
X176.7Y-148.4
X176.7Y-149.4
X176.75Y-144.7
X176.95Y-100.05
X176.95Y-100.95
X176.95Y-105.65
X177.4Y-120.8
X177.4Y-151.1
X177.45Y-105.
X177.6Y-146.5
X177.609Y-147.883
X177.609Y-148.883
X177.65Y-107.25
X177.95Y-103.55
X178.45Y-105.15
X178.5Y-128.45
X178.509Y-150.283
X178.6Y-126.55
X178.7Y-145.4
X178.971Y-120.096
X179.Y-101.2
X179.Y-122.6
X179.25Y-124.3
X179.5Y-106.05
X179.5Y-126.55
X179.5Y-145.5
X179.509Y-146.483
X179.509Y-148.383
X179.509Y-150.283
X179.95Y-103.55
X180.509Y-146.483
X180.509Y-150.283
X180.6Y-139.2
X180.75Y-124.3
X180.95Y-103.55
X181.071Y-120.096
X181.409Y-147.883
X181.409Y-148.883
X181.409Y-149.443
X181.6Y-105.8
X181.65Y-105.
X182.25Y-151.7
X182.6Y-101.2
X182.65Y-122.6
X182.9Y-104.95
X182.95Y-103.55
X183.4Y-148.4
X183.45Y-145.75
X183.7Y-129.6
X183.75Y-151.7
X183.95Y-103.55
X183.95Y-107.
X183.95Y-118.2
X183.95Y-121.2
X184.75Y-124.15
X184.95Y-140.7
X185.Y-144.1
X185.Y-145.8
X185.Y-147.4
X186.1Y-132.
X186.1Y-133.455
X186.15Y-121.15
X186.2Y-124.
X186.2Y-126.
X186.35Y-136.75
X186.5Y-144.1
X186.5Y-145.8
X186.5Y-147.4
X186.7Y-129.6
X186.75Y-116.1
X186.75Y-118.1
X186.95Y-121.15
X187.Y-105.85
X187.15Y-119.8
X187.15Y-135.1
X187.15Y-138.1
X187.65Y-133.15
X187.85Y-136.75
X187.95Y-140.7
X188.139Y-126.195
X188.15Y-124.65
X188.6Y-129.6
X188.6Y-131.1
X188.65Y-116.5
X188.7Y-118.25
X188.75Y-120.1
X188.8Y-121.4
X188.8Y-122.15
X189.65Y-133.15
X189.7Y-137.55
X189.7Y-140.55
X189.75Y-120.1
X189.75Y-124.1
X189.75Y-125.1
X189.75Y-131.1
X189.75Y-136.1
X190.036Y-116.445
X190.2Y-118.25
X190.75Y-123.1
X190.75Y-124.1
X190.75Y-128.1
X190.75Y-129.1
X190.75Y-134.1
X191.25Y-137.95
X191.25Y-139.45
X191.75Y-120.1
X191.75Y-121.1
X191.75Y-123.1
X191.75Y-125.1
X191.75Y-126.1
X191.75Y-128.1
X191.75Y-131.1
X191.75Y-132.1
X191.75Y-133.1
X191.75Y-135.1
X192.7Y-140.55
X192.75Y-120.1
X192.75Y-121.1
X192.75Y-123.1
X192.75Y-124.1
X192.75Y-126.1
X192.75Y-130.1
X192.75Y-135.1
X192.8Y-137.55
X193.25Y-100.65
X193.25Y-142.7
X193.7Y-128.1
X193.75Y-121.1
X193.75Y-122.1
X193.75Y-126.1
X193.75Y-131.1
X193.75Y-133.1
X193.75Y-135.1
X193.75Y-136.195
X194.2Y-138.8
X194.2Y-139.85
X194.25Y-140.75
X194.75Y-120.1
X194.75Y-121.1
X194.75Y-122.1
X194.75Y-125.1
X194.75Y-126.1
X194.75Y-127.1
X194.75Y-128.1
X194.75Y-129.1
X194.75Y-130.1
X194.75Y-131.1
X194.75Y-133.1
X194.75Y-136.1
X195.75Y-120.1
X195.75Y-121.1
X195.75Y-122.1
X195.75Y-123.1
X195.75Y-124.1
X195.75Y-125.1
X195.75Y-126.1
X195.75Y-127.1
X195.75Y-129.1
X195.75Y-130.1
X195.75Y-131.1
X195.75Y-132.1
X195.75Y-133.1
X195.75Y-134.1
X196.Y-96.9
X196.7Y-128.1
X196.73Y-136.15
X196.75Y-122.1
X196.75Y-123.1
X196.75Y-124.1
X196.75Y-125.1
X196.75Y-126.1
X196.75Y-127.1
X196.75Y-129.1
X196.75Y-130.1
X196.75Y-131.1
X196.75Y-132.1
X196.75Y-133.1
X196.85Y-144.2
X197.55Y-136.85
X197.65Y-111.7
X197.75Y-120.1
X197.75Y-121.1
X197.75Y-122.1
X197.75Y-123.1
X197.75Y-125.1
X197.75Y-126.1
X197.75Y-130.1
X197.75Y-131.1
X197.75Y-133.1
X197.75Y-134.1
X197.8Y-128.1
X197.849Y-113.65
X197.849Y-115.65
X197.9Y-96.9
X198.75Y-120.1
X198.75Y-121.1
X198.75Y-122.1
X198.75Y-123.1
X198.75Y-124.1
X198.75Y-125.1
X198.75Y-126.1
X198.75Y-127.1
X198.75Y-129.1
X198.75Y-130.1
X198.75Y-131.1
X198.75Y-132.1
X198.75Y-135.1
X199.05Y-136.8
X199.05Y-138.3
X199.65Y-111.7
X199.75Y-120.1
X199.75Y-121.1
X199.75Y-122.1
X199.75Y-123.1
X199.75Y-124.1
X199.75Y-125.1
X199.75Y-126.1
X199.75Y-127.1
X199.75Y-128.1
X199.75Y-129.1
X199.75Y-130.1
X199.75Y-131.1
X199.75Y-132.1
X199.75Y-133.1
X199.75Y-135.1
X200.645Y-136.85
X200.7Y-138.65
X200.75Y-120.1
X200.75Y-121.1
X200.75Y-122.1
X200.75Y-124.1
X200.75Y-125.1
X200.75Y-128.1
X200.75Y-129.1
X200.75Y-130.1
X200.75Y-131.1
X200.75Y-132.1
X200.75Y-133.1
X200.75Y-134.1
X200.75Y-135.1
X201.4Y-108.3
X201.75Y-120.1
X201.75Y-121.1
X201.75Y-122.1
X201.75Y-123.1
X201.75Y-124.1
X201.75Y-125.1
X201.75Y-126.1
X201.75Y-127.1
X201.75Y-129.1
X201.75Y-131.1
X201.75Y-132.1
X201.75Y-134.1
X201.75Y-135.1
X201.75Y-136.2
X201.8Y-137.95
X202.003Y-138.603
X202.65Y-110.9
X202.75Y-120.1
X202.75Y-121.1
X202.75Y-122.1
X202.75Y-123.1
X202.75Y-124.1
X202.75Y-125.1
X202.75Y-126.1
X202.75Y-127.1
X202.75Y-128.1
X202.75Y-129.1
X202.75Y-130.1
X202.75Y-131.1
X202.75Y-132.1
X202.75Y-133.1
X202.75Y-134.1
X202.75Y-135.1
X202.75Y-140.45
X203.3Y-138.05
X203.4Y-108.3
X203.75Y-120.1
X203.75Y-121.1
X203.75Y-122.1
X203.75Y-123.1
X203.75Y-124.1
X203.75Y-125.1
X203.75Y-126.1
X203.75Y-128.1
X203.75Y-129.1
X203.75Y-130.1
X203.75Y-131.1
X203.75Y-132.1
X203.75Y-133.1
X203.75Y-134.1
X203.75Y-135.1
X203.75Y-136.1
X204.4Y-110.9
X204.749Y-126.1
X204.749Y-135.1
X204.75Y-120.1
X204.75Y-121.1
X204.75Y-122.1
X204.75Y-123.1
X204.75Y-124.1
X204.75Y-125.1
X204.75Y-127.1
X204.75Y-129.1
X204.75Y-130.1
X204.75Y-131.1
X204.75Y-132.1
X204.75Y-133.1
X204.75Y-134.1
X204.75Y-136.1
X205.3Y-107.5
X205.3Y-108.3
X205.3Y-109.1
X205.4Y-105.25
X205.4Y-106.15
X205.75Y-116.405
X205.75Y-118.7
X205.75Y-120.1
X205.75Y-123.1
X205.75Y-124.1
X205.75Y-125.1
X205.75Y-126.1
X205.75Y-127.1
X205.75Y-129.1
X205.75Y-130.1
X205.75Y-131.1
X205.75Y-132.1
X205.75Y-133.1
X205.75Y-134.1
X205.75Y-135.1
X205.75Y-136.1
X205.77Y-128.104
X206.1Y-109.1
X206.55Y-103.1
X206.75Y-128.1
X206.9Y-105.9
X206.9Y-107.5
X206.9Y-109.1
X207.7Y-109.1
X207.75Y-118.7
X207.779Y-116.405
X208.Y-130.05
X208.5Y-107.5
X208.5Y-108.3
X208.5Y-109.1
X208.6Y-133.3
X208.6Y-134.6
X208.85Y-130.1
X209.242Y-103.155
X209.25Y-104.6
X209.8Y-145.75
X209.95Y-128.1
X210.142Y-103.155
X210.25Y-108.3
X210.3Y-109.2
X210.65Y-130.4
X210.65Y-131.8
X210.65Y-133.2
X210.65Y-134.6
X210.65Y-136.
X210.65Y-137.6
X210.65Y-139.05
X210.65Y-140.45
X210.65Y-141.85
X211.65Y-111.6
X211.65Y-112.4
X211.65Y-113.2
X211.65Y-114.
X211.65Y-114.8
X211.65Y-115.6
X211.65Y-118.8
X211.65Y-122.
X211.656Y-117.213
X211.668Y-116.405
X211.7Y-123.55
X211.75Y-108.3
X212.4Y-129.1
X212.45Y-112.4
X212.45Y-113.2
X212.45Y-114.
X212.45Y-115.6
X212.45Y-117.2
X212.45Y-119.6
X212.45Y-120.4
X212.45Y-121.2
X212.45Y-122.
X212.45Y-122.8
X212.45Y-123.6
X212.465Y-116.405
X212.75Y-130.4
X212.75Y-131.8
X212.75Y-133.2
X212.75Y-134.6
X212.75Y-136.
X212.75Y-137.6
X212.75Y-139.05
X212.75Y-140.45
X212.75Y-141.85
X212.8Y-103.3
X213.238Y-118.005
X213.25Y-111.6
X213.25Y-112.4
X213.25Y-113.2
X213.25Y-113.995
X213.25Y-114.8
X213.25Y-115.6
X213.25Y-118.8
X213.25Y-119.6
X213.25Y-120.4
X213.25Y-121.2
X213.25Y-122.
X213.25Y-122.8
X213.25Y-116.395
X213.259Y-117.195
X213.3Y-104.55
X213.3Y-130.
X213.3Y-131.4
X213.3Y-132.8
X213.3Y-134.2
X213.3Y-135.6
X213.3Y-137.
X213.35Y-138.65
X213.35Y-140.05
X213.35Y-141.45
X213.65Y-108.35
X214.3Y-103.3
X214.3Y-111.6
X214.3Y-113.2
X214.3Y-114.8
X214.3Y-116.4
X215.2Y-129.
X215.4Y-130.
X215.4Y-131.4
X215.4Y-132.8
X215.4Y-134.2
X215.4Y-135.6
X215.4Y-137.
X215.45Y-138.65
X215.45Y-140.05
X215.45Y-141.45
X215.9Y-105.35
X215.9Y-106.45
X215.95Y-129.6
X215.95Y-131.
X215.95Y-133.8
X215.95Y-135.2
X216.Y-138.25
X216.Y-139.65
X216.Y-141.05
X216.45Y-112.4
X216.45Y-114.8
X216.45Y-116.4
X216.45Y-118.
X216.45Y-119.6
X216.45Y-120.4
X216.45Y-121.2
X216.45Y-122.
X216.45Y-122.8
X216.6Y-132.4
X217.25Y-111.6
X217.25Y-112.4
X217.25Y-113.2
X217.25Y-114.
X217.25Y-114.8
X217.25Y-115.6
X217.25Y-116.4
X217.25Y-117.2
X217.25Y-118.
X217.25Y-118.8
X217.25Y-120.4
X217.25Y-121.2
X217.25Y-122.8
X217.5Y-108.75
X217.5Y-110.3
X218.Y-129.6
X218.05Y-112.4
X218.05Y-113.2
X218.05Y-114.
X218.05Y-114.8
X218.05Y-115.6
X218.05Y-116.4
X218.05Y-117.2
X218.05Y-118.
X218.05Y-118.8
X218.05Y-122.05
X218.05Y-131.
X218.05Y-133.8
X218.05Y-135.2
X218.1Y-138.25
X218.1Y-139.65
X218.1Y-141.05
X218.5Y-106.85
X218.6Y-125.2
X218.6Y-126.1
X218.7Y-132.4
X218.85Y-111.6
X218.85Y-113.2
X218.85Y-114.8
X218.85Y-116.4
X218.85Y-118.
X218.85Y-118.8
X218.85Y-120.4
X218.85Y-122.
X219.1Y-128.3
X219.25Y-107.95
X220.009Y-143.745
X220.1Y-111.9
X220.915Y-143.745
X221.45Y-114.815
X221.45Y-116.315
X221.45Y-118.815
X221.45Y-120.35
X221.888Y-143.745
X222.5Y-109.8
X223.Y-115.15
X223.Y-116.05
X223.Y-119.1
X223.Y-120.
X224.055Y-140.95
X224.2Y-136.8
X224.2Y-138.4
X224.55Y-114.815
X224.55Y-116.315
X224.55Y-118.815
X224.55Y-120.4
X224.781Y-135.205
X224.8Y-108.7
X224.8Y-112.15
X224.8Y-134.4
X225.1Y-128.8
X225.145Y-115.448
X225.2Y-131.9
X225.65Y-140.95
X225.7Y-111.95
X225.8Y-117.
X226.Y-136.8
X226.Y-138.4
X226.6Y-128.8
X226.8Y-130.45
X226.8Y-131.95
X226.8Y-133.6
X226.8Y-135.2
X227.25Y-140.95
X228.Y-122.598
X228.Y-124.574
X228.Y-126.55
X228.Y-136.9
X228.Y-138.4
X228.2Y-116.9
X228.4Y-103.4
X228.4Y-104.3
X228.55Y-96.95
X228.55Y-145.6
X228.6Y-128.8
X228.6Y-130.45
X228.6Y-132.
X228.85Y-140.95
X228.9Y-109.9
X228.95Y-115.15
X229.55Y-115.5
X229.7Y-147.66
X229.797Y-132.005
X229.797Y-132.805
X229.797Y-133.605
X229.797Y-136.005
X229.797Y-139.205
X229.797Y-140.805
X229.8Y-128.8
X229.8Y-135.2
X229.8Y-136.8
X229.8Y-137.6
X229.8Y-140.
X230.1Y-118.1
X230.3Y-143.85
X230.55Y-122.6
X230.597Y-134.405
X230.597Y-137.605
X230.6Y-132.
X230.6Y-132.8
X230.6Y-133.6
X230.6Y-135.2
X230.6Y-136.
X230.6Y-136.8
X230.6Y-138.4
X230.6Y-139.2
X230.6Y-140.
X230.6Y-140.8
X230.7Y-121.9
X230.75Y-121.05
X230.8Y-114.8
X230.9Y-117.6
X231.1Y-145.6
X231.35Y-140.85
X231.397Y-135.205
X231.4Y-132.
X231.4Y-132.8
X231.4Y-133.6
X231.4Y-134.4
X231.4Y-136.
X231.4Y-137.603
X231.4Y-138.4
X231.4Y-139.2
X231.4Y-140.
X231.55Y-143.35
X231.7Y-148.7
X231.7Y-150.2
X232.13Y-136.805
X232.197Y-137.605
X232.197Y-139.205
X232.197Y-140.005
X232.197Y-140.805
X232.2Y-128.6
X232.2Y-132.
X232.2Y-132.8
X232.2Y-133.6
X232.2Y-134.4
X232.2Y-135.2
X232.2Y-138.4
X232.245Y-112.625
X232.45Y-115.6
X232.467Y-141.728
X232.55Y-123.6
X232.55Y-124.5
X232.7Y-145.6
X232.8Y-120.25
X232.997Y-132.005
X232.997Y-137.605
X232.997Y-138.405
X232.997Y-139.205
X232.997Y-140.005
X232.997Y-140.805
X233.Y-125.6
X233.Y-126.25
X233.Y-128.6
X233.Y-132.8
X233.Y-133.6
X233.Y-134.4
X233.Y-135.2
X233.Y-136.
X233.Y-136.8
X233.1Y-141.8
X233.15Y-110.7
X233.3Y-148.7
X233.3Y-149.8
X233.515Y-118.975
X233.55Y-113.05
X233.55Y-113.95
X233.8Y-132.005
X233.8Y-122.15
X233.8Y-123.05
X233.8Y-132.8
X233.8Y-133.6
X233.8Y-134.4
X233.8Y-135.2
X233.8Y-136.
X233.8Y-138.4
X233.8Y-139.2
X233.8Y-140.8
X233.8Y-141.75
X233.95Y-115.6
X234.53Y-136.805
X234.597Y-132.873
X234.597Y-139.205
X234.6Y-128.6
X234.6Y-130.
X234.6Y-132.
X234.6Y-134.4
X234.6Y-135.2
X234.6Y-137.6
X234.6Y-138.4
X234.6Y-140.
X234.6Y-140.75
X234.785Y-112.625
X234.8Y-117.7
X234.8Y-118.6
X234.85Y-122.35
X234.85Y-145.7
X235.1Y-151.47
X235.245Y-147.686
X235.245Y-148.956
X235.245Y-150.226
X235.397Y-136.005
X235.397Y-136.8
X235.397Y-140.805
X235.4Y-115.2
X235.4Y-128.6
X235.4Y-132.
X235.4Y-132.8
X235.4Y-133.6
X235.4Y-134.4
X235.4Y-135.2
X235.4Y-137.6
X235.4Y-138.4
X235.4Y-139.2
X235.4Y-140.
X235.5Y-125.4
X235.6Y-124.3
X236.055Y-112.625
X236.055Y-118.975
X236.1Y-126.35
X236.15Y-121.15
X236.197Y-138.405
X236.197Y-139.205
X236.2Y-130.
X236.2Y-131.2
X236.2Y-134.4
X236.2Y-135.2
X236.2Y-136.8
X236.2Y-140.
X236.5Y-115.2
X236.8Y-143.85
X236.9Y-120.4
X236.997Y-140.805
X237.Y-119.3
X237.Y-132.
X237.Y-132.8
X237.Y-133.6
X237.Y-135.2
X237.Y-136.8
X237.Y-137.6
X237.Y-138.4
X237.Y-140.
X237.1Y-116.3
X237.2Y-146.8
X237.797Y-132.005
X237.797Y-132.805
X237.797Y-134.405
X237.797Y-137.605
X237.797Y-138.405
X237.797Y-139.205
X237.8Y-133.6
X237.8Y-135.2
X237.8Y-136.
X237.8Y-140.
X237.8Y-140.8
X237.8Y-141.8
X237.865Y-136.805
X237.9Y-110.65
X238.4Y-121.9
X238.5Y-130.1
X238.597Y-132.005
X238.597Y-138.405
X238.6Y-139.2
X238.6Y-140.
X239.1Y-143.85
X239.2Y-113.5
X239.2Y-120.
X239.3Y-109.5
X239.3Y-111.9
X239.3Y-141.8
X239.65Y-107.35
X239.843Y-136.807
X239.85Y-135.4
X239.9Y-130.1
X240.Y-114.1
X240.2Y-111.9
X240.5Y-120.
X240.5Y-120.95
X240.5Y-121.9
X240.5Y-146.8
X240.6Y-114.7
X240.9Y-145.4
X240.95Y-143.75
X241.Y-107.5
X241.Y-140.65
X241.Y-142.15
X241.05Y-139.05
X241.2Y-105.4
X241.2Y-115.7
X241.3Y-135.05
X241.4Y-109.05
X241.478Y-129.265
X241.8Y-120.
X241.8Y-120.95
X241.8Y-121.9
X241.8Y-122.7
X241.8Y-145.4
X242.1Y-125.3
X242.36Y-110.961
X242.36Y-111.961
X242.36Y-112.961
X242.45Y-143.75
X242.5Y-118.2
X242.6Y-105.1
X242.65Y-139.05
X242.7Y-137.9
X242.75Y-140.65
X242.75Y-142.15
X242.9Y-130.1
X242.9Y-131.
X243.1Y-107.5
X243.1Y-111.45
X243.25Y-117.25
X243.5Y-139.8
X244.1Y-104.45
X244.2Y-109.95
X244.2Y-111.45
X244.25Y-113.
X244.3Y-118.8
X244.3Y-123.8
X244.3Y-125.3
X244.4Y-140.5
X244.5Y-128.35
X244.61Y-108.711
X245.3Y-121.9
X245.45Y-132.65
X245.6Y-105.3
X245.6Y-106.2
X245.6Y-116.8
X245.75Y-113.
X245.8Y-114.7
X245.9Y-124.9
X245.95Y-140.8
X246.11Y-115.711
X246.35Y-110.2
X246.5Y-125.85
X246.5Y-126.75
X246.55Y-96.95
X246.951Y-130.433
X247.Y-120.5
X247.11Y-108.711
X247.61Y-115.711
X247.75Y-103.75
X247.85Y-110.2
X247.9Y-122.6
X247.9Y-124.1
X248.Y-113.45
X248.051Y-130.433
X248.3Y-102.6
X248.35Y-96.95
X248.85Y-103.75
X248.85Y-121.65
X248.85Y-126.55
X249.36Y-110.961
X249.36Y-112.961
X249.36Y-113.961
X249.5Y-115.9
X249.5Y-130.3
X249.5Y-131.4
X249.512Y-123.262
X249.512Y-124.938
X249.8Y-105.25
X249.8Y-106.75
X251.Y-115.9
X251.1Y-103.55
X251.188Y-123.262
X251.188Y-124.938
X251.35Y-126.55
X251.85Y-121.65
X252.Y-105.25
X252.Y-106.75
X252.8Y-123.1
X252.8Y-124.6
X252.8Y-125.6
X253.25Y-132.7
X253.3Y-124.1
X253.35Y-125.1
X253.9Y-122.6
X253.9Y-123.6
X254.7Y-107.75
X255.2Y-110.1
X255.2Y-110.85
X255.6Y-107.75
X255.95Y-105.95
X256.85Y-105.95
X260.65Y-113.
X260.7Y-110.1
X260.7Y-110.875
X261.85Y-114.15
X264.6Y-140.5
X265.55Y-107.
X265.55Y-108.9
X265.55Y-111.05
X265.55Y-112.95
X266.25Y-140.55
X267.55Y-107.95
X267.55Y-112.
X269.15Y-108.15
X269.15Y-109.05
X269.2Y-112.2
X269.2Y-113.1
T2
X189.39Y-147.81
X189.39Y-150.35
X191.93Y-147.81
X191.93Y-150.35
X194.47Y-147.81
X194.47Y-150.35
X197.01Y-147.81
X197.01Y-150.35
X199.55Y-147.81
X199.55Y-150.35
X212.49Y-147.81
X212.49Y-150.35
X215.03Y-147.81
X215.03Y-150.35
X217.57Y-147.81
X217.57Y-150.35
X220.11Y-147.81
X220.11Y-150.35
X222.65Y-147.81
X222.65Y-150.35
X227.16Y-112.8
X229.7Y-112.8
X243.25Y-150.8
X245.79Y-150.8
T3
X105.41Y-142.73
X105.41Y-145.23
X107.41Y-142.73
X107.41Y-145.23
X109.41Y-139.73
X109.41Y-141.48
X109.41Y-143.98
X109.41Y-146.48
X109.41Y-148.23
X193.9Y-98.05
X200.Y-98.05
X262.64Y-139.25
X262.64Y-141.
X262.64Y-143.5
X262.64Y-146.
X262.64Y-147.75
X264.64Y-142.25
X264.64Y-144.75
X266.64Y-142.25
X266.64Y-144.75
T4
X257.72Y-120.33
X257.72Y-122.83
X257.72Y-124.83
X257.72Y-127.33
X260.34Y-120.33
X260.34Y-122.83
X260.34Y-124.83
X260.34Y-127.33
T5
X211.1Y-99.
X211.1Y-101.5
X213.6Y-99.
X216.1Y-99.
X216.1Y-101.5
X228.4Y-99.
X228.4Y-101.5
X230.9Y-99.
X233.4Y-99.
X233.4Y-101.5
X245.65Y-99.
X245.65Y-101.5
X248.15Y-99.
X250.65Y-99.
X250.65Y-101.5
X262.9Y-99.
X262.9Y-101.5
X265.4Y-99.
X267.9Y-99.
X267.9Y-101.5
T6
X194.95Y-102.
X198.95Y-102.
T7
X141.96Y-124.79
X141.96Y-127.33
X141.96Y-129.87
X141.96Y-132.41
X141.96Y-134.95
X141.96Y-137.49
X141.96Y-140.03
X141.96Y-142.57
X144.5Y-124.79
X144.5Y-127.33
X144.5Y-129.87
X144.5Y-132.41
X144.5Y-134.95
X144.5Y-137.49
X144.5Y-140.03
X144.5Y-142.57
T8
X171.35Y-97.6
X171.95Y-102.55
X186.45Y-102.55
X187.05Y-97.6
T9
X196.95Y-101.45
T10
X95.75Y-103.34
X95.75Y-113.25
X95.8Y-121.59
X95.8Y-131.5
X103.37Y-103.34
X103.37Y-113.25
X103.42Y-121.59
X103.42Y-131.5
X113.53Y-103.34
X113.53Y-113.25
X113.58Y-121.59
X113.58Y-131.5
X132.99Y-98.85
X132.99Y-106.47
X132.99Y-116.63
X142.9Y-98.85
X142.9Y-106.47
X142.9Y-116.63
X152.35Y-98.83
X152.35Y-106.45
X152.35Y-116.61
X162.26Y-98.83
X162.26Y-106.45
X162.26Y-116.61
T11
X257.37Y-117.26
X257.37Y-130.4
X263.05Y-117.26
X263.05Y-130.4
T12
X102.7Y-137.96
X102.7Y-150.
X269.35Y-137.48
X269.35Y-149.52
T13
X207.95Y-100.25
X219.25Y-100.25
X225.25Y-100.25
X236.55Y-100.25
X242.5Y-100.25
X253.8Y-100.25
X259.75Y-100.25
X271.05Y-100.25
T14
X108.45Y-108.5
X108.5Y-126.75
X137.74Y-111.55
X157.1Y-111.53
T0
M30
