G04 #@! TF.FileFunction,Legend,Bot*
%FSLAX46Y46*%
G04 Gerber Fmt 4.6, Leading zero omitted, Abs format (unit mm)*
G04 Created by KiCad (PCBNEW 4.0.7) date 03/05/18 20:49:43*
%MOMM*%
%LPD*%
G01*
G04 APERTURE LIST*
%ADD10C,0.125000*%
%ADD11C,0.375000*%
%ADD12C,0.200000*%
%ADD13C,0.150000*%
%ADD14C,0.254000*%
%ADD15C,0.203200*%
%ADD16C,0.127000*%
%ADD17C,0.120000*%
%ADD18C,0.063500*%
%ADD19C,0.100000*%
%ADD20C,0.075000*%
%ADD21C,0.050000*%
%ADD22C,0.152400*%
%ADD23C,2.400000*%
%ADD24R,1.650000X0.700000*%
%ADD25R,3.400000X2.400000*%
%ADD26R,1.600000X1.500000*%
%ADD27C,1.600000*%
%ADD28C,1.900000*%
%ADD29C,2.200000*%
%ADD30R,0.900000X0.900000*%
%ADD31R,1.543000X0.654000*%
%ADD32R,0.654000X1.543000*%
%ADD33R,2.099260X3.100020*%
%ADD34R,1.700480X3.100020*%
%ADD35C,4.400000*%
%ADD36C,3.400000*%
%ADD37C,3.816000*%
%ADD38C,1.708000*%
%ADD39R,3.200000X2.600000*%
%ADD40R,2.600000X3.200000*%
%ADD41R,0.800000X1.000000*%
%ADD42R,1.000000X0.800000*%
%ADD43R,1.200000X1.150000*%
%ADD44R,1.150000X1.200000*%
%ADD45R,1.400000X2.900000*%
%ADD46R,0.900000X1.000000*%
%ADD47R,1.300000X1.200000*%
%ADD48R,3.400000X1.400000*%
%ADD49R,1.950000X1.000000*%
%ADD50R,1.000000X0.900000*%
%ADD51R,1.050000X1.460000*%
%ADD52R,1.460000X1.050000*%
%ADD53R,1.400000X3.400000*%
%ADD54R,1.000000X1.200000*%
%ADD55R,1.200000X1.000000*%
%ADD56R,2.900000X1.400000*%
%ADD57R,1.400000X2.000000*%
%ADD58R,1.100000X0.650000*%
%ADD59R,0.650000X1.100000*%
%ADD60R,2.125000X2.125000*%
%ADD61R,0.999440X1.118820*%
%ADD62R,3.280360X1.520140*%
%ADD63C,3.448000*%
%ADD64R,2.150000X1.100000*%
%ADD65R,1.900000X1.700000*%
%ADD66R,1.900000X1.900000*%
%ADD67R,1.900000X1.200000*%
%ADD68R,1.200000X1.900000*%
%ADD69R,1.950000X1.400000*%
%ADD70R,1.800000X1.200000*%
%ADD71C,0.850000*%
%ADD72C,1.100000*%
G04 APERTURE END LIST*
D10*
D11*
X158678572Y-152178571D02*
X158678572Y-150678571D01*
X158321429Y-150678571D01*
X158107144Y-150750000D01*
X157964286Y-150892857D01*
X157892858Y-151035714D01*
X157821429Y-151321429D01*
X157821429Y-151535714D01*
X157892858Y-151821429D01*
X157964286Y-151964286D01*
X158107144Y-152107143D01*
X158321429Y-152178571D01*
X158678572Y-152178571D01*
X156321429Y-152178571D02*
X156821429Y-151464286D01*
X157178572Y-152178571D02*
X157178572Y-150678571D01*
X156607144Y-150678571D01*
X156464286Y-150750000D01*
X156392858Y-150821429D01*
X156321429Y-150964286D01*
X156321429Y-151178571D01*
X156392858Y-151321429D01*
X156464286Y-151392857D01*
X156607144Y-151464286D01*
X157178572Y-151464286D01*
X155750001Y-151750000D02*
X155035715Y-151750000D01*
X155892858Y-152178571D02*
X155392858Y-150678571D01*
X154892858Y-152178571D01*
X153607144Y-150750000D02*
X153750001Y-150678571D01*
X153964287Y-150678571D01*
X154178572Y-150750000D01*
X154321430Y-150892857D01*
X154392858Y-151035714D01*
X154464287Y-151321429D01*
X154464287Y-151535714D01*
X154392858Y-151821429D01*
X154321430Y-151964286D01*
X154178572Y-152107143D01*
X153964287Y-152178571D01*
X153821430Y-152178571D01*
X153607144Y-152107143D01*
X153535715Y-152035714D01*
X153535715Y-151535714D01*
X153821430Y-151535714D01*
X152607144Y-150678571D02*
X152321430Y-150678571D01*
X152178572Y-150750000D01*
X152035715Y-150892857D01*
X151964287Y-151178571D01*
X151964287Y-151678571D01*
X152035715Y-151964286D01*
X152178572Y-152107143D01*
X152321430Y-152178571D01*
X152607144Y-152178571D01*
X152750001Y-152107143D01*
X152892858Y-151964286D01*
X152964287Y-151678571D01*
X152964287Y-151178571D01*
X152892858Y-150892857D01*
X152750001Y-150750000D01*
X152607144Y-150678571D01*
X151321429Y-152178571D02*
X151321429Y-150678571D01*
X150464286Y-152178571D01*
X150464286Y-150678571D01*
X149964286Y-150678571D02*
X149107143Y-150678571D01*
X149535714Y-152178571D02*
X149535714Y-150678571D01*
X148607143Y-151392857D02*
X148107143Y-151392857D01*
X147892857Y-152178571D02*
X148607143Y-152178571D01*
X148607143Y-150678571D01*
X147892857Y-150678571D01*
X146392857Y-152035714D02*
X146464286Y-152107143D01*
X146678572Y-152178571D01*
X146821429Y-152178571D01*
X147035714Y-152107143D01*
X147178572Y-151964286D01*
X147250000Y-151821429D01*
X147321429Y-151535714D01*
X147321429Y-151321429D01*
X147250000Y-151035714D01*
X147178572Y-150892857D01*
X147035714Y-150750000D01*
X146821429Y-150678571D01*
X146678572Y-150678571D01*
X146464286Y-150750000D01*
X146392857Y-150821429D01*
X145750000Y-152178571D02*
X145750000Y-150678571D01*
X145750000Y-151392857D02*
X144892857Y-151392857D01*
X144892857Y-152178571D02*
X144892857Y-150678571D01*
X142321428Y-152178571D02*
X143035714Y-152178571D01*
X143035714Y-150678571D01*
X141107142Y-152178571D02*
X141821428Y-152178571D01*
X141821428Y-150678571D01*
X139749999Y-152035714D02*
X139821428Y-152107143D01*
X140035714Y-152178571D01*
X140178571Y-152178571D01*
X140392856Y-152107143D01*
X140535714Y-151964286D01*
X140607142Y-151821429D01*
X140678571Y-151535714D01*
X140678571Y-151321429D01*
X140607142Y-151035714D01*
X140535714Y-150892857D01*
X140392856Y-150750000D01*
X140178571Y-150678571D01*
X140035714Y-150678571D01*
X139821428Y-150750000D01*
X139749999Y-150821429D01*
D12*
X225600000Y-141700000D02*
X225600000Y-142750000D01*
X151428604Y-129640048D02*
X151428604Y-128490048D01*
X210650000Y-139850000D02*
X210650000Y-141750000D01*
X206250000Y-112800000D02*
X206250000Y-132800000D01*
X206800000Y-132800000D02*
X204100000Y-132550000D01*
D13*
X151150000Y-102050000D02*
X151150000Y-95400000D01*
X158850000Y-102050000D02*
X158850000Y-95400000D01*
X158850000Y-102050000D02*
X151150000Y-102050000D01*
X151150000Y-95400000D02*
X158850000Y-95400000D01*
X146250000Y-134030000D02*
G75*
G03X146250000Y-134030000I-100000J0D01*
G01*
D14*
X234553822Y-136360880D02*
X239553822Y-136360880D01*
X239553822Y-136360880D02*
X239553822Y-141360880D01*
X239553822Y-141360880D02*
X234553822Y-141360880D01*
X234553822Y-141360880D02*
X234553822Y-136360880D01*
X236053822Y-140360880D02*
G75*
G03X236053822Y-140360880I-500000J0D01*
G01*
D15*
X150823604Y-123965048D02*
G75*
G03X150823604Y-123965048I-1270000J0D01*
G01*
X152347604Y-129045048D02*
G75*
G03X152347604Y-129045048I-508000J0D01*
G01*
X151804044Y-126215488D02*
X151804044Y-121714608D01*
X151804044Y-121714608D02*
X147303164Y-121714608D01*
X147303164Y-121714608D02*
X147303164Y-126215488D01*
X147303164Y-126215488D02*
X151804044Y-126215488D01*
D13*
X102470000Y-116340000D02*
X102470000Y-100340000D01*
X102470000Y-100340000D02*
X136560000Y-100340000D01*
X136560000Y-100340000D02*
X136560000Y-116340000D01*
X136560000Y-116340000D02*
X102470000Y-116340000D01*
X102475000Y-132840000D02*
X102475000Y-116840000D01*
X102475000Y-116840000D02*
X136565000Y-116840000D01*
X136565000Y-116840000D02*
X136565000Y-132840000D01*
X136565000Y-132840000D02*
X102475000Y-132840000D01*
D16*
X262350000Y-113050000D02*
X262350000Y-125650000D01*
X244000000Y-125650000D02*
X244000000Y-113050000D01*
X244050000Y-113050000D02*
X250050000Y-113050000D01*
X254050000Y-113050000D02*
X262350000Y-113050000D01*
X262350000Y-125650000D02*
X254150000Y-125650000D01*
X244050000Y-125650000D02*
X250050000Y-125650000D01*
D13*
X102470000Y-149340000D02*
X102470000Y-133340000D01*
X102470000Y-133340000D02*
X136560000Y-133340000D01*
X136560000Y-133340000D02*
X136560000Y-149340000D01*
X136560000Y-149340000D02*
X102470000Y-149340000D01*
X145750000Y-95000000D02*
X145750000Y-95900000D01*
X140250000Y-97900000D02*
X140250000Y-95000000D01*
X145750000Y-105400000D02*
X145750000Y-98900000D01*
X145750000Y-108150000D02*
X145750000Y-109300000D01*
X140250000Y-95000000D02*
X145750000Y-95000000D01*
X140250000Y-100800000D02*
X140250000Y-109300000D01*
X140249131Y-109300000D02*
X145750908Y-109300000D01*
D17*
X148350000Y-128470000D02*
X148850000Y-128470000D01*
X148850000Y-129530000D02*
X148350000Y-129530000D01*
X149650000Y-118170000D02*
X150150000Y-118170000D01*
X150150000Y-119230000D02*
X149650000Y-119230000D01*
X147070000Y-117650000D02*
X147070000Y-117150000D01*
X148130000Y-117150000D02*
X148130000Y-117650000D01*
X179400000Y-129750000D02*
X178700000Y-129750000D01*
X178700000Y-130950000D02*
X179400000Y-130950000D01*
X178950000Y-126500000D02*
X178950000Y-127200000D01*
X180150000Y-127200000D02*
X180150000Y-126500000D01*
X182200000Y-129950000D02*
X182900000Y-129950000D01*
X182900000Y-128750000D02*
X182200000Y-128750000D01*
X181400000Y-131750000D02*
X180700000Y-131750000D01*
X180700000Y-132950000D02*
X181400000Y-132950000D01*
X177450000Y-113730000D02*
X175450000Y-113730000D01*
X175450000Y-110770000D02*
X177450000Y-110770000D01*
X185370000Y-111000000D02*
X185370000Y-111500000D01*
X184430000Y-111500000D02*
X184430000Y-111000000D01*
X178770000Y-108650000D02*
X178770000Y-109150000D01*
X177830000Y-109150000D02*
X177830000Y-108650000D01*
X226160000Y-140670000D02*
X226160000Y-141600000D01*
X226160000Y-143830000D02*
X226160000Y-142900000D01*
X226160000Y-143830000D02*
X224000000Y-143830000D01*
X226160000Y-140670000D02*
X224700000Y-140670000D01*
X232350000Y-125900000D02*
X231650000Y-125900000D01*
X231650000Y-127100000D02*
X232350000Y-127100000D01*
X201730000Y-146350000D02*
X201730000Y-149950000D01*
X198270000Y-149950000D02*
X198270000Y-146350000D01*
D13*
X220375000Y-134740000D02*
X220375000Y-134690000D01*
X224525000Y-134740000D02*
X224525000Y-134595000D01*
X224525000Y-129590000D02*
X224525000Y-129735000D01*
X220375000Y-129590000D02*
X220375000Y-129735000D01*
X220375000Y-134740000D02*
X224525000Y-134740000D01*
X220375000Y-129590000D02*
X224525000Y-129590000D01*
X220375000Y-134690000D02*
X218975000Y-134690000D01*
D17*
X226950000Y-129330000D02*
X226450000Y-129330000D01*
X226450000Y-128270000D02*
X226950000Y-128270000D01*
X143070000Y-128650000D02*
X143070000Y-128150000D01*
X144130000Y-128150000D02*
X144130000Y-128650000D01*
X243250000Y-137820000D02*
X243750000Y-137820000D01*
X243750000Y-138880000D02*
X243250000Y-138880000D01*
X243250000Y-138970000D02*
X243750000Y-138970000D01*
X243750000Y-140030000D02*
X243250000Y-140030000D01*
X217450000Y-114150000D02*
X217450000Y-113450000D01*
X216250000Y-113450000D02*
X216250000Y-114150000D01*
X225120000Y-121150000D02*
X225120000Y-121650000D01*
X224180000Y-121650000D02*
X224180000Y-121150000D01*
X222650000Y-113920000D02*
X222150000Y-113920000D01*
X222150000Y-112980000D02*
X222650000Y-112980000D01*
X224180000Y-115250000D02*
X224180000Y-114750000D01*
X225120000Y-114750000D02*
X225120000Y-115250000D01*
X228250000Y-116000000D02*
X228950000Y-116000000D01*
X228950000Y-114800000D02*
X228250000Y-114800000D01*
X232350000Y-121200000D02*
X231650000Y-121200000D01*
X231650000Y-122400000D02*
X232350000Y-122400000D01*
X222460000Y-140670000D02*
X222460000Y-141600000D01*
X222460000Y-143830000D02*
X222460000Y-142900000D01*
X222460000Y-143830000D02*
X220300000Y-143830000D01*
X222460000Y-140670000D02*
X221000000Y-140670000D01*
X170926931Y-149396661D02*
X170926931Y-147596661D01*
X174146931Y-147596661D02*
X174146931Y-150046661D01*
X229960000Y-98700000D02*
X229960000Y-100500000D01*
X226740000Y-100500000D02*
X226740000Y-98050000D01*
X194339541Y-149099483D02*
X194339541Y-147299483D01*
X197559541Y-147299483D02*
X197559541Y-149749483D01*
X162350000Y-147990000D02*
X164150000Y-147990000D01*
X164150000Y-151210000D02*
X161700000Y-151210000D01*
X171086931Y-142366661D02*
X174686931Y-142366661D01*
X174686931Y-145826661D02*
X171086931Y-145826661D01*
X230150000Y-105330000D02*
X226550000Y-105330000D01*
X226550000Y-101870000D02*
X230150000Y-101870000D01*
X169380000Y-147750000D02*
X169380000Y-151350000D01*
X165920000Y-151350000D02*
X165920000Y-147750000D01*
X233300000Y-124480000D02*
X233300000Y-125620000D01*
X233300000Y-125620000D02*
X231200000Y-125620000D01*
X233300000Y-124480000D02*
X231200000Y-124480000D01*
X234920000Y-125550000D02*
X233780000Y-125550000D01*
X233780000Y-125550000D02*
X233780000Y-123450000D01*
X234920000Y-125550000D02*
X234920000Y-123450000D01*
X218000000Y-127700000D02*
X217300000Y-127700000D01*
X217300000Y-128900000D02*
X218000000Y-128900000D01*
X225300000Y-119870000D02*
X224800000Y-119870000D01*
X224800000Y-118930000D02*
X225300000Y-118930000D01*
X222600000Y-118800000D02*
X221900000Y-118800000D01*
X221900000Y-120000000D02*
X222600000Y-120000000D01*
X228800000Y-113870000D02*
X228300000Y-113870000D01*
X228300000Y-112930000D02*
X228800000Y-112930000D01*
X235700000Y-114700000D02*
X235700000Y-115400000D01*
X236900000Y-115400000D02*
X236900000Y-114700000D01*
X229600000Y-124670000D02*
X229100000Y-124670000D01*
X229100000Y-123730000D02*
X229600000Y-123730000D01*
X218050000Y-113450000D02*
X218050000Y-114150000D01*
X219250000Y-114150000D02*
X219250000Y-113450000D01*
X218450000Y-116670000D02*
X217950000Y-116670000D01*
X217950000Y-115730000D02*
X218450000Y-115730000D01*
X232350000Y-122750000D02*
X231650000Y-122750000D01*
X231650000Y-123950000D02*
X232350000Y-123950000D01*
X222950000Y-108350000D02*
X222250000Y-108350000D01*
X222250000Y-109550000D02*
X222950000Y-109550000D01*
X235250000Y-123900000D02*
X235250000Y-124600000D01*
X236450000Y-124600000D02*
X236450000Y-123900000D01*
X218750000Y-118400000D02*
X219450000Y-118400000D01*
X219450000Y-117200000D02*
X218750000Y-117200000D01*
X222750000Y-127950000D02*
X222050000Y-127950000D01*
X222050000Y-129150000D02*
X222750000Y-129150000D01*
X227200000Y-118930000D02*
X227700000Y-118930000D01*
X227700000Y-119870000D02*
X227200000Y-119870000D01*
X230300000Y-122550000D02*
X230300000Y-121850000D01*
X229100000Y-121850000D02*
X229100000Y-122550000D01*
X216950000Y-117300000D02*
X216950000Y-116600000D01*
X215750000Y-116600000D02*
X215750000Y-117300000D01*
X233850000Y-127350000D02*
X233150000Y-127350000D01*
X233150000Y-128550000D02*
X233850000Y-128550000D01*
X219250000Y-110950000D02*
X218550000Y-110950000D01*
X218550000Y-112150000D02*
X219250000Y-112150000D01*
X225120000Y-117150000D02*
X225120000Y-117650000D01*
X224180000Y-117650000D02*
X224180000Y-117150000D01*
X225400000Y-127130000D02*
X225900000Y-127130000D01*
X225900000Y-128070000D02*
X225400000Y-128070000D01*
X196950000Y-141680000D02*
X194950000Y-141680000D01*
X194950000Y-138720000D02*
X196950000Y-138720000D01*
X184400000Y-123750000D02*
X183700000Y-123750000D01*
X183700000Y-124950000D02*
X184400000Y-124950000D01*
X186700000Y-125950000D02*
X187400000Y-125950000D01*
X187400000Y-124750000D02*
X186700000Y-124750000D01*
X186950000Y-127500000D02*
X186950000Y-128200000D01*
X188150000Y-128200000D02*
X188150000Y-127500000D01*
X184100000Y-127250000D02*
X184100000Y-126550000D01*
X182900000Y-126550000D02*
X182900000Y-127250000D01*
X195450000Y-132150000D02*
X195450000Y-131450000D01*
X194250000Y-131450000D02*
X194250000Y-132150000D01*
X185700000Y-122900000D02*
X186400000Y-122900000D01*
X186400000Y-121700000D02*
X185700000Y-121700000D01*
X192400000Y-125750000D02*
X191700000Y-125750000D01*
X191700000Y-126950000D02*
X192400000Y-126950000D01*
X186150000Y-130200000D02*
X186150000Y-129500000D01*
X184950000Y-129500000D02*
X184950000Y-130200000D01*
X178700000Y-134950000D02*
X179400000Y-134950000D01*
X179400000Y-133750000D02*
X178700000Y-133750000D01*
X188950000Y-129500000D02*
X188950000Y-130200000D01*
X190150000Y-130200000D02*
X190150000Y-129500000D01*
X185150000Y-133200000D02*
X185150000Y-132500000D01*
X183950000Y-132500000D02*
X183950000Y-133200000D01*
X188700000Y-134950000D02*
X189400000Y-134950000D01*
X189400000Y-133750000D02*
X188700000Y-133750000D01*
X186950000Y-131500000D02*
X186950000Y-132200000D01*
X188150000Y-132200000D02*
X188150000Y-131500000D01*
X179480000Y-136400000D02*
X179480000Y-138400000D01*
X176520000Y-138400000D02*
X176520000Y-136400000D01*
X186850000Y-137370000D02*
X188850000Y-137370000D01*
X188850000Y-140330000D02*
X186850000Y-140330000D01*
X218850000Y-126300000D02*
X218150000Y-126300000D01*
X218150000Y-127500000D02*
X218850000Y-127500000D01*
X215650000Y-108600000D02*
X214950000Y-108600000D01*
X214950000Y-109800000D02*
X215650000Y-109800000D01*
X175430000Y-133100000D02*
X175430000Y-135100000D01*
X172470000Y-135100000D02*
X172470000Y-133100000D01*
X146500000Y-113900000D02*
X146500000Y-113200000D01*
X145300000Y-113200000D02*
X145300000Y-113900000D01*
X138950000Y-127250000D02*
X138950000Y-126550000D01*
X137750000Y-126550000D02*
X137750000Y-127250000D01*
X140900000Y-129450000D02*
X140900000Y-128750000D01*
X139700000Y-128750000D02*
X139700000Y-129450000D01*
X141176406Y-124627566D02*
X141876406Y-124627566D01*
X141876406Y-123427566D02*
X141176406Y-123427566D01*
X181000000Y-105980000D02*
X183000000Y-105980000D01*
X183000000Y-108020000D02*
X181000000Y-108020000D01*
D13*
X138425000Y-114375000D02*
X138425000Y-114900000D01*
X143675000Y-119625000D02*
X143675000Y-119100000D01*
X138425000Y-119625000D02*
X138425000Y-119100000D01*
X143675000Y-114375000D02*
X143150000Y-114375000D01*
X143675000Y-119625000D02*
X143150000Y-119625000D01*
X138425000Y-119625000D02*
X138950000Y-119625000D01*
X138425000Y-114375000D02*
X138950000Y-114375000D01*
D17*
X139300000Y-143600000D02*
X139300000Y-144300000D01*
X140500000Y-144300000D02*
X140500000Y-143600000D01*
X236100000Y-132670000D02*
X236600000Y-132670000D01*
X236600000Y-133730000D02*
X236100000Y-133730000D01*
X229860000Y-140670000D02*
X229860000Y-141600000D01*
X229860000Y-143830000D02*
X229860000Y-142900000D01*
X229860000Y-143830000D02*
X227700000Y-143830000D01*
X229860000Y-140670000D02*
X228400000Y-140670000D01*
X150070000Y-130450000D02*
X150070000Y-129950000D01*
X151130000Y-129950000D02*
X151130000Y-130450000D01*
X145780000Y-125050000D02*
X145780000Y-125550000D01*
X144720000Y-125550000D02*
X144720000Y-125050000D01*
D16*
X148828560Y-133748500D02*
X148828560Y-130962120D01*
X148828560Y-130962120D02*
X148828560Y-129811500D01*
X146471440Y-133748500D02*
X146471440Y-130962120D01*
X146471440Y-130962120D02*
X146471440Y-129811500D01*
X146471440Y-133748500D02*
X148828560Y-133748500D01*
X146471440Y-129811500D02*
X148828560Y-129811500D01*
X146471440Y-130962120D02*
X148828560Y-130962120D01*
D18*
X148037947Y-133050000D02*
G75*
G03X148037947Y-133050000I-387947J0D01*
G01*
X147966105Y-130352520D02*
G75*
G03X147966105Y-130352520I-316105J0D01*
G01*
D17*
X186400000Y-118750000D02*
X185700000Y-118750000D01*
X185700000Y-119950000D02*
X186400000Y-119950000D01*
X182950000Y-121500000D02*
X182950000Y-122200000D01*
X184150000Y-122200000D02*
X184150000Y-121500000D01*
X191700000Y-122950000D02*
X192400000Y-122950000D01*
X192400000Y-121750000D02*
X191700000Y-121750000D01*
X189150000Y-121200000D02*
X189150000Y-120500000D01*
X187950000Y-120500000D02*
X187950000Y-121200000D01*
X195330000Y-106250000D02*
X195330000Y-106750000D01*
X194270000Y-106750000D02*
X194270000Y-106250000D01*
D15*
X261850280Y-145548920D02*
X261850280Y-132351080D01*
X251550580Y-145548920D02*
X261850280Y-145548920D01*
X251550580Y-132351080D02*
X261850280Y-132351080D01*
X245551100Y-132351080D02*
X249950380Y-132351080D01*
X245551100Y-145548920D02*
X249950380Y-145548920D01*
X245551100Y-138950000D02*
X245551100Y-145548920D01*
X245551100Y-138950000D02*
X245551100Y-132351080D01*
D13*
X253825000Y-109225000D02*
X242375000Y-109225000D01*
X242375000Y-109225000D02*
X242375000Y-97275000D01*
X242375000Y-97275000D02*
X253825000Y-97275000D01*
X253825000Y-109225000D02*
X253825000Y-97275000D01*
D17*
X204700000Y-136750000D02*
X205400000Y-136750000D01*
X205400000Y-135550000D02*
X204700000Y-135550000D01*
X188900000Y-136800000D02*
X189600000Y-136800000D01*
X189600000Y-135600000D02*
X188900000Y-135600000D01*
X177250000Y-132750000D02*
X177250000Y-132050000D01*
X176050000Y-132050000D02*
X176050000Y-132750000D01*
X196800000Y-137050000D02*
X196100000Y-137050000D01*
X196100000Y-138250000D02*
X196800000Y-138250000D01*
X185650000Y-116350000D02*
X184950000Y-116350000D01*
X184950000Y-117550000D02*
X185650000Y-117550000D01*
X175900000Y-122950000D02*
X176600000Y-122950000D01*
X176600000Y-121750000D02*
X175900000Y-121750000D01*
X175500000Y-130600000D02*
X176200000Y-130600000D01*
X176200000Y-129400000D02*
X175500000Y-129400000D01*
X176500000Y-125200000D02*
X175800000Y-125200000D01*
X175800000Y-126400000D02*
X176500000Y-126400000D01*
X175800000Y-120950000D02*
X176500000Y-120950000D01*
X176500000Y-119750000D02*
X175800000Y-119750000D01*
X150800000Y-111350000D02*
X150800000Y-110650000D01*
X149600000Y-110650000D02*
X149600000Y-111350000D01*
X148200000Y-113350000D02*
X148200000Y-112650000D01*
X147000000Y-112650000D02*
X147000000Y-113350000D01*
X159600000Y-149850000D02*
X159600000Y-150550000D01*
X160800000Y-150550000D02*
X160800000Y-149850000D01*
X224500000Y-99200000D02*
X224500000Y-99900000D01*
X225700000Y-99900000D02*
X225700000Y-99200000D01*
X165500000Y-144150000D02*
X165500000Y-144850000D01*
X166700000Y-144850000D02*
X166700000Y-144150000D01*
X196300000Y-150600000D02*
X195600000Y-150600000D01*
X195600000Y-151800000D02*
X196300000Y-151800000D01*
X172936931Y-150896661D02*
X172236931Y-150896661D01*
X172236931Y-152096661D02*
X172936931Y-152096661D01*
X201450000Y-140400000D02*
X201450000Y-139700000D01*
X200250000Y-139700000D02*
X200250000Y-140400000D01*
X171936931Y-140396661D02*
X171236931Y-140396661D01*
X171236931Y-141596661D02*
X171936931Y-141596661D01*
X142250000Y-136000000D02*
X142950000Y-136000000D01*
X142950000Y-134800000D02*
X142250000Y-134800000D01*
D19*
X159178571Y-123180952D02*
X159202381Y-123157142D01*
X159226190Y-123085714D01*
X159226190Y-123038095D01*
X159202381Y-122966666D01*
X159154762Y-122919047D01*
X159107143Y-122895238D01*
X159011905Y-122871428D01*
X158940476Y-122871428D01*
X158845238Y-122895238D01*
X158797619Y-122919047D01*
X158750000Y-122966666D01*
X158726190Y-123038095D01*
X158726190Y-123085714D01*
X158750000Y-123157142D01*
X158773810Y-123180952D01*
X158726190Y-123490476D02*
X158726190Y-123585714D01*
X158750000Y-123633333D01*
X158797619Y-123680952D01*
X158892857Y-123704761D01*
X159059524Y-123704761D01*
X159154762Y-123680952D01*
X159202381Y-123633333D01*
X159226190Y-123585714D01*
X159226190Y-123490476D01*
X159202381Y-123442857D01*
X159154762Y-123395238D01*
X159059524Y-123371428D01*
X158892857Y-123371428D01*
X158797619Y-123395238D01*
X158750000Y-123442857D01*
X158726190Y-123490476D01*
X159226190Y-123919048D02*
X158726190Y-123919048D01*
X159226190Y-124204762D01*
X158726190Y-124204762D01*
X159226190Y-124442858D02*
X158726190Y-124442858D01*
X159226190Y-124728572D01*
X158726190Y-124728572D01*
X158773810Y-124942858D02*
X158750000Y-124966668D01*
X158726190Y-125014287D01*
X158726190Y-125133334D01*
X158750000Y-125180953D01*
X158773810Y-125204763D01*
X158821429Y-125228572D01*
X158869048Y-125228572D01*
X158940476Y-125204763D01*
X159226190Y-124919049D01*
X159226190Y-125228572D01*
D20*
X182004761Y-107476190D02*
X181671428Y-107976190D01*
X181671428Y-107476190D02*
X182004761Y-107976190D01*
X181219048Y-107976190D02*
X181504762Y-107976190D01*
X181361905Y-107976190D02*
X181361905Y-107476190D01*
X181409524Y-107547619D01*
X181457143Y-107595238D01*
X181504762Y-107619048D01*
X144328571Y-144230952D02*
X144352381Y-144207142D01*
X144376190Y-144135714D01*
X144376190Y-144088095D01*
X144352381Y-144016666D01*
X144304762Y-143969047D01*
X144257143Y-143945238D01*
X144161905Y-143921428D01*
X144090476Y-143921428D01*
X143995238Y-143945238D01*
X143947619Y-143969047D01*
X143900000Y-144016666D01*
X143876190Y-144088095D01*
X143876190Y-144135714D01*
X143900000Y-144207142D01*
X143923810Y-144230952D01*
X143876190Y-144540476D02*
X143876190Y-144635714D01*
X143900000Y-144683333D01*
X143947619Y-144730952D01*
X144042857Y-144754761D01*
X144209524Y-144754761D01*
X144304762Y-144730952D01*
X144352381Y-144683333D01*
X144376190Y-144635714D01*
X144376190Y-144540476D01*
X144352381Y-144492857D01*
X144304762Y-144445238D01*
X144209524Y-144421428D01*
X144042857Y-144421428D01*
X143947619Y-144445238D01*
X143900000Y-144492857D01*
X143876190Y-144540476D01*
X144376190Y-144969048D02*
X143876190Y-144969048D01*
X144376190Y-145254762D01*
X143876190Y-145254762D01*
X144376190Y-145492858D02*
X143876190Y-145492858D01*
X144376190Y-145778572D01*
X143876190Y-145778572D01*
X144376190Y-146278572D02*
X144376190Y-145992858D01*
X144376190Y-146135715D02*
X143876190Y-146135715D01*
X143947619Y-146088096D01*
X143995238Y-146040477D01*
X144019048Y-145992858D01*
X155654874Y-96302381D02*
X155583445Y-96326190D01*
X155464398Y-96326190D01*
X155416779Y-96302381D01*
X155392969Y-96278571D01*
X155369160Y-96230952D01*
X155369160Y-96183333D01*
X155392969Y-96135714D01*
X155416779Y-96111905D01*
X155464398Y-96088095D01*
X155559636Y-96064286D01*
X155607255Y-96040476D01*
X155631064Y-96016667D01*
X155654874Y-95969048D01*
X155654874Y-95921429D01*
X155631064Y-95873810D01*
X155607255Y-95850000D01*
X155559636Y-95826190D01*
X155440588Y-95826190D01*
X155369160Y-95850000D01*
X155202493Y-95826190D02*
X155083446Y-96326190D01*
X154988208Y-95969048D01*
X154892970Y-96326190D01*
X154773922Y-95826190D01*
X154321541Y-96326190D02*
X154607255Y-96326190D01*
X154464398Y-96326190D02*
X154464398Y-95826190D01*
X154512017Y-95897619D01*
X154559636Y-95945238D01*
X154607255Y-95969048D01*
X155892857Y-94564286D02*
X156059523Y-94564286D01*
X156059523Y-94826190D02*
X156059523Y-94326190D01*
X155821428Y-94326190D01*
X155345238Y-94826190D02*
X155511905Y-94588095D01*
X155630952Y-94826190D02*
X155630952Y-94326190D01*
X155440476Y-94326190D01*
X155392857Y-94350000D01*
X155369048Y-94373810D01*
X155345238Y-94421429D01*
X155345238Y-94492857D01*
X155369048Y-94540476D01*
X155392857Y-94564286D01*
X155440476Y-94588095D01*
X155630952Y-94588095D01*
X155035714Y-94326190D02*
X154940476Y-94326190D01*
X154892857Y-94350000D01*
X154845238Y-94397619D01*
X154821429Y-94492857D01*
X154821429Y-94659524D01*
X154845238Y-94754762D01*
X154892857Y-94802381D01*
X154940476Y-94826190D01*
X155035714Y-94826190D01*
X155083333Y-94802381D01*
X155130952Y-94754762D01*
X155154762Y-94659524D01*
X155154762Y-94492857D01*
X155130952Y-94397619D01*
X155083333Y-94350000D01*
X155035714Y-94326190D01*
X154607142Y-94826190D02*
X154607142Y-94326190D01*
X154321428Y-94826190D01*
X154321428Y-94326190D01*
X154154761Y-94326190D02*
X153869047Y-94326190D01*
X154011904Y-94826190D02*
X154011904Y-94326190D01*
X144780952Y-127456190D02*
X144780952Y-127860952D01*
X144757143Y-127908571D01*
X144733333Y-127932381D01*
X144685714Y-127956190D01*
X144590476Y-127956190D01*
X144542857Y-127932381D01*
X144519048Y-127908571D01*
X144495238Y-127860952D01*
X144495238Y-127456190D01*
X144233333Y-127956190D02*
X144138095Y-127956190D01*
X144090476Y-127932381D01*
X144066666Y-127908571D01*
X144019047Y-127837143D01*
X143995238Y-127741905D01*
X143995238Y-127551429D01*
X144019047Y-127503810D01*
X144042857Y-127480000D01*
X144090476Y-127456190D01*
X144185714Y-127456190D01*
X144233333Y-127480000D01*
X144257142Y-127503810D01*
X144280952Y-127551429D01*
X144280952Y-127670476D01*
X144257142Y-127718095D01*
X144233333Y-127741905D01*
X144185714Y-127765714D01*
X144090476Y-127765714D01*
X144042857Y-127741905D01*
X144019047Y-127718095D01*
X143995238Y-127670476D01*
D21*
X238454474Y-138888200D02*
X238454474Y-139697724D01*
X238411617Y-139792962D01*
X238368760Y-139840581D01*
X238283046Y-139888200D01*
X238111617Y-139888200D01*
X238025903Y-139840581D01*
X237983046Y-139792962D01*
X237940189Y-139697724D01*
X237940189Y-138888200D01*
X237040189Y-139888200D02*
X237554474Y-139888200D01*
X237297332Y-139888200D02*
X237297332Y-138888200D01*
X237383046Y-139031057D01*
X237468760Y-139126295D01*
X237554474Y-139173914D01*
X236483046Y-138888200D02*
X236397331Y-138888200D01*
X236311617Y-138935819D01*
X236268760Y-138983438D01*
X236225903Y-139078676D01*
X236183046Y-139269152D01*
X236183046Y-139507248D01*
X236225903Y-139697724D01*
X236268760Y-139792962D01*
X236311617Y-139840581D01*
X236397331Y-139888200D01*
X236483046Y-139888200D01*
X236568760Y-139840581D01*
X236611617Y-139792962D01*
X236654474Y-139697724D01*
X236697331Y-139507248D01*
X236697331Y-139269152D01*
X236654474Y-139078676D01*
X236611617Y-138983438D01*
X236568760Y-138935819D01*
X236483046Y-138888200D01*
D22*
X146088318Y-123402620D02*
X145326318Y-123402620D01*
X145326318Y-123584048D01*
X145362604Y-123692905D01*
X145435175Y-123765477D01*
X145507747Y-123801762D01*
X145652890Y-123838048D01*
X145761747Y-123838048D01*
X145906890Y-123801762D01*
X145979461Y-123765477D01*
X146052033Y-123692905D01*
X146088318Y-123584048D01*
X146088318Y-123402620D01*
X145398890Y-124128334D02*
X145362604Y-124164620D01*
X145326318Y-124237191D01*
X145326318Y-124418620D01*
X145362604Y-124491191D01*
X145398890Y-124527477D01*
X145471461Y-124563762D01*
X145544033Y-124563762D01*
X145652890Y-124527477D01*
X146088318Y-124092048D01*
X146088318Y-124563762D01*
D20*
X116376190Y-108533334D02*
X116733333Y-108533334D01*
X116804762Y-108509524D01*
X116852381Y-108461905D01*
X116876190Y-108390477D01*
X116876190Y-108342858D01*
X116876190Y-109033333D02*
X116876190Y-108747619D01*
X116876190Y-108890476D02*
X116376190Y-108890476D01*
X116447619Y-108842857D01*
X116495238Y-108795238D01*
X116519048Y-108747619D01*
X117026190Y-124833334D02*
X117383333Y-124833334D01*
X117454762Y-124809524D01*
X117502381Y-124761905D01*
X117526190Y-124690477D01*
X117526190Y-124642858D01*
X117073810Y-125047619D02*
X117050000Y-125071429D01*
X117026190Y-125119048D01*
X117026190Y-125238095D01*
X117050000Y-125285714D01*
X117073810Y-125309524D01*
X117121429Y-125333333D01*
X117169048Y-125333333D01*
X117240476Y-125309524D01*
X117526190Y-125023810D01*
X117526190Y-125333333D01*
D21*
X246643333Y-111067381D02*
X246643333Y-111781667D01*
X246690953Y-111924524D01*
X246786191Y-112019762D01*
X246929048Y-112067381D01*
X247024286Y-112067381D01*
X245690952Y-111067381D02*
X246167143Y-111067381D01*
X246214762Y-111543571D01*
X246167143Y-111495952D01*
X246071905Y-111448333D01*
X245833809Y-111448333D01*
X245738571Y-111495952D01*
X245690952Y-111543571D01*
X245643333Y-111638810D01*
X245643333Y-111876905D01*
X245690952Y-111972143D01*
X245738571Y-112019762D01*
X245833809Y-112067381D01*
X246071905Y-112067381D01*
X246167143Y-112019762D01*
X246214762Y-111972143D01*
D20*
X117026190Y-141233334D02*
X117383333Y-141233334D01*
X117454762Y-141209524D01*
X117502381Y-141161905D01*
X117526190Y-141090477D01*
X117526190Y-141042858D01*
X117026190Y-141423810D02*
X117026190Y-141733333D01*
X117216667Y-141566667D01*
X117216667Y-141638095D01*
X117240476Y-141685714D01*
X117264286Y-141709524D01*
X117311905Y-141733333D01*
X117430952Y-141733333D01*
X117478571Y-141709524D01*
X117502381Y-141685714D01*
X117526190Y-141638095D01*
X117526190Y-141495238D01*
X117502381Y-141447619D01*
X117478571Y-141423810D01*
X143166666Y-101526190D02*
X143166666Y-101883333D01*
X143190476Y-101954762D01*
X143238095Y-102002381D01*
X143309523Y-102026190D01*
X143357142Y-102026190D01*
X142714286Y-101692857D02*
X142714286Y-102026190D01*
X142833333Y-101502381D02*
X142952381Y-101859524D01*
X142642857Y-101859524D01*
X147321428Y-129226190D02*
X147488095Y-128988095D01*
X147607142Y-129226190D02*
X147607142Y-128726190D01*
X147416666Y-128726190D01*
X147369047Y-128750000D01*
X147345238Y-128773810D01*
X147321428Y-128821429D01*
X147321428Y-128892857D01*
X147345238Y-128940476D01*
X147369047Y-128964286D01*
X147416666Y-128988095D01*
X147607142Y-128988095D01*
X146892857Y-128726190D02*
X146988095Y-128726190D01*
X147035714Y-128750000D01*
X147059523Y-128773810D01*
X147107142Y-128845238D01*
X147130952Y-128940476D01*
X147130952Y-129130952D01*
X147107142Y-129178571D01*
X147083333Y-129202381D01*
X147035714Y-129226190D01*
X146940476Y-129226190D01*
X146892857Y-129202381D01*
X146869047Y-129178571D01*
X146845238Y-129130952D01*
X146845238Y-129011905D01*
X146869047Y-128964286D01*
X146892857Y-128940476D01*
X146940476Y-128916667D01*
X147035714Y-128916667D01*
X147083333Y-128940476D01*
X147107142Y-128964286D01*
X147130952Y-129011905D01*
X146678571Y-128726190D02*
X146369048Y-128726190D01*
X146535714Y-128916667D01*
X146464286Y-128916667D01*
X146416667Y-128940476D01*
X146392857Y-128964286D01*
X146369048Y-129011905D01*
X146369048Y-129130952D01*
X146392857Y-129178571D01*
X146416667Y-129202381D01*
X146464286Y-129226190D01*
X146607143Y-129226190D01*
X146654762Y-129202381D01*
X146678571Y-129178571D01*
X150221428Y-117976190D02*
X150388095Y-117738095D01*
X150507142Y-117976190D02*
X150507142Y-117476190D01*
X150316666Y-117476190D01*
X150269047Y-117500000D01*
X150245238Y-117523810D01*
X150221428Y-117571429D01*
X150221428Y-117642857D01*
X150245238Y-117690476D01*
X150269047Y-117714286D01*
X150316666Y-117738095D01*
X150507142Y-117738095D01*
X149792857Y-117642857D02*
X149792857Y-117976190D01*
X149911904Y-117452381D02*
X150030952Y-117809524D01*
X149721428Y-117809524D01*
X149316667Y-117642857D02*
X149316667Y-117976190D01*
X149435714Y-117452381D02*
X149554762Y-117809524D01*
X149245238Y-117809524D01*
X146976190Y-117078572D02*
X146738095Y-116911905D01*
X146976190Y-116792858D02*
X146476190Y-116792858D01*
X146476190Y-116983334D01*
X146500000Y-117030953D01*
X146523810Y-117054762D01*
X146571429Y-117078572D01*
X146642857Y-117078572D01*
X146690476Y-117054762D01*
X146714286Y-117030953D01*
X146738095Y-116983334D01*
X146738095Y-116792858D01*
X146642857Y-117507143D02*
X146976190Y-117507143D01*
X146452381Y-117388096D02*
X146809524Y-117269048D01*
X146809524Y-117578572D01*
X146476190Y-118007143D02*
X146476190Y-117769048D01*
X146714286Y-117745238D01*
X146690476Y-117769048D01*
X146666667Y-117816667D01*
X146666667Y-117935714D01*
X146690476Y-117983333D01*
X146714286Y-118007143D01*
X146761905Y-118030952D01*
X146880952Y-118030952D01*
X146928571Y-118007143D01*
X146952381Y-117983333D01*
X146976190Y-117935714D01*
X146976190Y-117816667D01*
X146952381Y-117769048D01*
X146928571Y-117745238D01*
X179371428Y-132028571D02*
X179395238Y-132052381D01*
X179466666Y-132076190D01*
X179514285Y-132076190D01*
X179585714Y-132052381D01*
X179633333Y-132004762D01*
X179657142Y-131957143D01*
X179680952Y-131861905D01*
X179680952Y-131790476D01*
X179657142Y-131695238D01*
X179633333Y-131647619D01*
X179585714Y-131600000D01*
X179514285Y-131576190D01*
X179466666Y-131576190D01*
X179395238Y-131600000D01*
X179371428Y-131623810D01*
X178942857Y-131742857D02*
X178942857Y-132076190D01*
X179061904Y-131552381D02*
X179180952Y-131909524D01*
X178871428Y-131909524D01*
X178704762Y-131623810D02*
X178680952Y-131600000D01*
X178633333Y-131576190D01*
X178514286Y-131576190D01*
X178466667Y-131600000D01*
X178442857Y-131623810D01*
X178419048Y-131671429D01*
X178419048Y-131719048D01*
X178442857Y-131790476D01*
X178728571Y-132076190D01*
X178419048Y-132076190D01*
X180678571Y-126528572D02*
X180702381Y-126504762D01*
X180726190Y-126433334D01*
X180726190Y-126385715D01*
X180702381Y-126314286D01*
X180654762Y-126266667D01*
X180607143Y-126242858D01*
X180511905Y-126219048D01*
X180440476Y-126219048D01*
X180345238Y-126242858D01*
X180297619Y-126266667D01*
X180250000Y-126314286D01*
X180226190Y-126385715D01*
X180226190Y-126433334D01*
X180250000Y-126504762D01*
X180273810Y-126528572D01*
X180392857Y-126957143D02*
X180726190Y-126957143D01*
X180202381Y-126838096D02*
X180559524Y-126719048D01*
X180559524Y-127028572D01*
X180726190Y-127480952D02*
X180726190Y-127195238D01*
X180726190Y-127338095D02*
X180226190Y-127338095D01*
X180297619Y-127290476D01*
X180345238Y-127242857D01*
X180369048Y-127195238D01*
X182321428Y-128428571D02*
X182345238Y-128452381D01*
X182416666Y-128476190D01*
X182464285Y-128476190D01*
X182535714Y-128452381D01*
X182583333Y-128404762D01*
X182607142Y-128357143D01*
X182630952Y-128261905D01*
X182630952Y-128190476D01*
X182607142Y-128095238D01*
X182583333Y-128047619D01*
X182535714Y-128000000D01*
X182464285Y-127976190D01*
X182416666Y-127976190D01*
X182345238Y-128000000D01*
X182321428Y-128023810D01*
X181892857Y-128142857D02*
X181892857Y-128476190D01*
X182011904Y-127952381D02*
X182130952Y-128309524D01*
X181821428Y-128309524D01*
X181535714Y-127976190D02*
X181488095Y-127976190D01*
X181440476Y-128000000D01*
X181416667Y-128023810D01*
X181392857Y-128071429D01*
X181369048Y-128166667D01*
X181369048Y-128285714D01*
X181392857Y-128380952D01*
X181416667Y-128428571D01*
X181440476Y-128452381D01*
X181488095Y-128476190D01*
X181535714Y-128476190D01*
X181583333Y-128452381D01*
X181607143Y-128428571D01*
X181630952Y-128380952D01*
X181654762Y-128285714D01*
X181654762Y-128166667D01*
X181630952Y-128071429D01*
X181607143Y-128023810D01*
X181583333Y-128000000D01*
X181535714Y-127976190D01*
X181371428Y-134028571D02*
X181395238Y-134052381D01*
X181466666Y-134076190D01*
X181514285Y-134076190D01*
X181585714Y-134052381D01*
X181633333Y-134004762D01*
X181657142Y-133957143D01*
X181680952Y-133861905D01*
X181680952Y-133790476D01*
X181657142Y-133695238D01*
X181633333Y-133647619D01*
X181585714Y-133600000D01*
X181514285Y-133576190D01*
X181466666Y-133576190D01*
X181395238Y-133600000D01*
X181371428Y-133623810D01*
X181204761Y-133576190D02*
X180895238Y-133576190D01*
X181061904Y-133766667D01*
X180990476Y-133766667D01*
X180942857Y-133790476D01*
X180919047Y-133814286D01*
X180895238Y-133861905D01*
X180895238Y-133980952D01*
X180919047Y-134028571D01*
X180942857Y-134052381D01*
X180990476Y-134076190D01*
X181133333Y-134076190D01*
X181180952Y-134052381D01*
X181204761Y-134028571D01*
X180657143Y-134076190D02*
X180561905Y-134076190D01*
X180514286Y-134052381D01*
X180490476Y-134028571D01*
X180442857Y-133957143D01*
X180419048Y-133861905D01*
X180419048Y-133671429D01*
X180442857Y-133623810D01*
X180466667Y-133600000D01*
X180514286Y-133576190D01*
X180609524Y-133576190D01*
X180657143Y-133600000D01*
X180680952Y-133623810D01*
X180704762Y-133671429D01*
X180704762Y-133790476D01*
X180680952Y-133838095D01*
X180657143Y-133861905D01*
X180609524Y-133885714D01*
X180514286Y-133885714D01*
X180466667Y-133861905D01*
X180442857Y-133838095D01*
X180419048Y-133790476D01*
X176771428Y-114678571D02*
X176795238Y-114702381D01*
X176866666Y-114726190D01*
X176914285Y-114726190D01*
X176985714Y-114702381D01*
X177033333Y-114654762D01*
X177057142Y-114607143D01*
X177080952Y-114511905D01*
X177080952Y-114440476D01*
X177057142Y-114345238D01*
X177033333Y-114297619D01*
X176985714Y-114250000D01*
X176914285Y-114226190D01*
X176866666Y-114226190D01*
X176795238Y-114250000D01*
X176771428Y-114273810D01*
X176604761Y-114226190D02*
X176295238Y-114226190D01*
X176461904Y-114416667D01*
X176390476Y-114416667D01*
X176342857Y-114440476D01*
X176319047Y-114464286D01*
X176295238Y-114511905D01*
X176295238Y-114630952D01*
X176319047Y-114678571D01*
X176342857Y-114702381D01*
X176390476Y-114726190D01*
X176533333Y-114726190D01*
X176580952Y-114702381D01*
X176604761Y-114678571D01*
X175866667Y-114226190D02*
X175961905Y-114226190D01*
X176009524Y-114250000D01*
X176033333Y-114273810D01*
X176080952Y-114345238D01*
X176104762Y-114440476D01*
X176104762Y-114630952D01*
X176080952Y-114678571D01*
X176057143Y-114702381D01*
X176009524Y-114726190D01*
X175914286Y-114726190D01*
X175866667Y-114702381D01*
X175842857Y-114678571D01*
X175819048Y-114630952D01*
X175819048Y-114511905D01*
X175842857Y-114464286D01*
X175866667Y-114440476D01*
X175914286Y-114416667D01*
X176009524Y-114416667D01*
X176057143Y-114440476D01*
X176080952Y-114464286D01*
X176104762Y-114511905D01*
X185928571Y-110928572D02*
X185952381Y-110904762D01*
X185976190Y-110833334D01*
X185976190Y-110785715D01*
X185952381Y-110714286D01*
X185904762Y-110666667D01*
X185857143Y-110642858D01*
X185761905Y-110619048D01*
X185690476Y-110619048D01*
X185595238Y-110642858D01*
X185547619Y-110666667D01*
X185500000Y-110714286D01*
X185476190Y-110785715D01*
X185476190Y-110833334D01*
X185500000Y-110904762D01*
X185523810Y-110928572D01*
X185523810Y-111119048D02*
X185500000Y-111142858D01*
X185476190Y-111190477D01*
X185476190Y-111309524D01*
X185500000Y-111357143D01*
X185523810Y-111380953D01*
X185571429Y-111404762D01*
X185619048Y-111404762D01*
X185690476Y-111380953D01*
X185976190Y-111095239D01*
X185976190Y-111404762D01*
X185476190Y-111571429D02*
X185476190Y-111904762D01*
X185976190Y-111690476D01*
X179428571Y-108578572D02*
X179452381Y-108554762D01*
X179476190Y-108483334D01*
X179476190Y-108435715D01*
X179452381Y-108364286D01*
X179404762Y-108316667D01*
X179357143Y-108292858D01*
X179261905Y-108269048D01*
X179190476Y-108269048D01*
X179095238Y-108292858D01*
X179047619Y-108316667D01*
X179000000Y-108364286D01*
X178976190Y-108435715D01*
X178976190Y-108483334D01*
X179000000Y-108554762D01*
X179023810Y-108578572D01*
X179023810Y-108769048D02*
X179000000Y-108792858D01*
X178976190Y-108840477D01*
X178976190Y-108959524D01*
X179000000Y-109007143D01*
X179023810Y-109030953D01*
X179071429Y-109054762D01*
X179119048Y-109054762D01*
X179190476Y-109030953D01*
X179476190Y-108745239D01*
X179476190Y-109054762D01*
X178976190Y-109483333D02*
X178976190Y-109388095D01*
X179000000Y-109340476D01*
X179023810Y-109316667D01*
X179095238Y-109269048D01*
X179190476Y-109245238D01*
X179380952Y-109245238D01*
X179428571Y-109269048D01*
X179452381Y-109292857D01*
X179476190Y-109340476D01*
X179476190Y-109435714D01*
X179452381Y-109483333D01*
X179428571Y-109507143D01*
X179380952Y-109530952D01*
X179261905Y-109530952D01*
X179214286Y-109507143D01*
X179190476Y-109483333D01*
X179166667Y-109435714D01*
X179166667Y-109340476D01*
X179190476Y-109292857D01*
X179214286Y-109269048D01*
X179261905Y-109245238D01*
X225685714Y-145023810D02*
X225733333Y-145000000D01*
X225780952Y-144952381D01*
X225852381Y-144880952D01*
X225900000Y-144857143D01*
X225947619Y-144857143D01*
X225923809Y-144976190D02*
X225971428Y-144952381D01*
X226019047Y-144904762D01*
X226042857Y-144809524D01*
X226042857Y-144642857D01*
X226019047Y-144547619D01*
X225971428Y-144500000D01*
X225923809Y-144476190D01*
X225828571Y-144476190D01*
X225780952Y-144500000D01*
X225733333Y-144547619D01*
X225709524Y-144642857D01*
X225709524Y-144809524D01*
X225733333Y-144904762D01*
X225780952Y-144952381D01*
X225828571Y-144976190D01*
X225923809Y-144976190D01*
X225233333Y-144976190D02*
X225519047Y-144976190D01*
X225376190Y-144976190D02*
X225376190Y-144476190D01*
X225423809Y-144547619D01*
X225471428Y-144595238D01*
X225519047Y-144619048D01*
X224923809Y-144476190D02*
X224876190Y-144476190D01*
X224828571Y-144500000D01*
X224804762Y-144523810D01*
X224780952Y-144571429D01*
X224757143Y-144666667D01*
X224757143Y-144785714D01*
X224780952Y-144880952D01*
X224804762Y-144928571D01*
X224828571Y-144952381D01*
X224876190Y-144976190D01*
X224923809Y-144976190D01*
X224971428Y-144952381D01*
X224995238Y-144928571D01*
X225019047Y-144880952D01*
X225042857Y-144785714D01*
X225042857Y-144666667D01*
X225019047Y-144571429D01*
X224995238Y-144523810D01*
X224971428Y-144500000D01*
X224923809Y-144476190D01*
X233928571Y-126178572D02*
X233952381Y-126154762D01*
X233976190Y-126083334D01*
X233976190Y-126035715D01*
X233952381Y-125964286D01*
X233904762Y-125916667D01*
X233857143Y-125892858D01*
X233761905Y-125869048D01*
X233690476Y-125869048D01*
X233595238Y-125892858D01*
X233547619Y-125916667D01*
X233500000Y-125964286D01*
X233476190Y-126035715D01*
X233476190Y-126083334D01*
X233500000Y-126154762D01*
X233523810Y-126178572D01*
X233690476Y-126464286D02*
X233666667Y-126416667D01*
X233642857Y-126392858D01*
X233595238Y-126369048D01*
X233571429Y-126369048D01*
X233523810Y-126392858D01*
X233500000Y-126416667D01*
X233476190Y-126464286D01*
X233476190Y-126559524D01*
X233500000Y-126607143D01*
X233523810Y-126630953D01*
X233571429Y-126654762D01*
X233595238Y-126654762D01*
X233642857Y-126630953D01*
X233666667Y-126607143D01*
X233690476Y-126559524D01*
X233690476Y-126464286D01*
X233714286Y-126416667D01*
X233738095Y-126392858D01*
X233785714Y-126369048D01*
X233880952Y-126369048D01*
X233928571Y-126392858D01*
X233952381Y-126416667D01*
X233976190Y-126464286D01*
X233976190Y-126559524D01*
X233952381Y-126607143D01*
X233928571Y-126630953D01*
X233880952Y-126654762D01*
X233785714Y-126654762D01*
X233738095Y-126630953D01*
X233714286Y-126607143D01*
X233690476Y-126559524D01*
X233690476Y-126940476D02*
X233666667Y-126892857D01*
X233642857Y-126869048D01*
X233595238Y-126845238D01*
X233571429Y-126845238D01*
X233523810Y-126869048D01*
X233500000Y-126892857D01*
X233476190Y-126940476D01*
X233476190Y-127035714D01*
X233500000Y-127083333D01*
X233523810Y-127107143D01*
X233571429Y-127130952D01*
X233595238Y-127130952D01*
X233642857Y-127107143D01*
X233666667Y-127083333D01*
X233690476Y-127035714D01*
X233690476Y-126940476D01*
X233714286Y-126892857D01*
X233738095Y-126869048D01*
X233785714Y-126845238D01*
X233880952Y-126845238D01*
X233928571Y-126869048D01*
X233952381Y-126892857D01*
X233976190Y-126940476D01*
X233976190Y-127035714D01*
X233952381Y-127083333D01*
X233928571Y-127107143D01*
X233880952Y-127130952D01*
X233785714Y-127130952D01*
X233738095Y-127107143D01*
X233714286Y-127083333D01*
X233690476Y-127035714D01*
X200226190Y-148066667D02*
X200226190Y-147828572D01*
X199726190Y-147828572D01*
X199726190Y-148185715D02*
X199726190Y-148495238D01*
X199916667Y-148328572D01*
X199916667Y-148400000D01*
X199940476Y-148447619D01*
X199964286Y-148471429D01*
X200011905Y-148495238D01*
X200130952Y-148495238D01*
X200178571Y-148471429D01*
X200202381Y-148447619D01*
X200226190Y-148400000D01*
X200226190Y-148257143D01*
X200202381Y-148209524D01*
X200178571Y-148185715D01*
X222830952Y-135391190D02*
X222830952Y-135795952D01*
X222807143Y-135843571D01*
X222783333Y-135867381D01*
X222735714Y-135891190D01*
X222640476Y-135891190D01*
X222592857Y-135867381D01*
X222569048Y-135843571D01*
X222545238Y-135795952D01*
X222545238Y-135391190D01*
X222354761Y-135391190D02*
X222045238Y-135391190D01*
X222211904Y-135581667D01*
X222140476Y-135581667D01*
X222092857Y-135605476D01*
X222069047Y-135629286D01*
X222045238Y-135676905D01*
X222045238Y-135795952D01*
X222069047Y-135843571D01*
X222092857Y-135867381D01*
X222140476Y-135891190D01*
X222283333Y-135891190D01*
X222330952Y-135867381D01*
X222354761Y-135843571D01*
X229371428Y-129126190D02*
X229538095Y-128888095D01*
X229657142Y-129126190D02*
X229657142Y-128626190D01*
X229466666Y-128626190D01*
X229419047Y-128650000D01*
X229395238Y-128673810D01*
X229371428Y-128721429D01*
X229371428Y-128792857D01*
X229395238Y-128840476D01*
X229419047Y-128864286D01*
X229466666Y-128888095D01*
X229657142Y-128888095D01*
X228942857Y-128626190D02*
X229038095Y-128626190D01*
X229085714Y-128650000D01*
X229109523Y-128673810D01*
X229157142Y-128745238D01*
X229180952Y-128840476D01*
X229180952Y-129030952D01*
X229157142Y-129078571D01*
X229133333Y-129102381D01*
X229085714Y-129126190D01*
X228990476Y-129126190D01*
X228942857Y-129102381D01*
X228919047Y-129078571D01*
X228895238Y-129030952D01*
X228895238Y-128911905D01*
X228919047Y-128864286D01*
X228942857Y-128840476D01*
X228990476Y-128816667D01*
X229085714Y-128816667D01*
X229133333Y-128840476D01*
X229157142Y-128864286D01*
X229180952Y-128911905D01*
X228704762Y-128673810D02*
X228680952Y-128650000D01*
X228633333Y-128626190D01*
X228514286Y-128626190D01*
X228466667Y-128650000D01*
X228442857Y-128673810D01*
X228419048Y-128721429D01*
X228419048Y-128769048D01*
X228442857Y-128840476D01*
X228728571Y-129126190D01*
X228419048Y-129126190D01*
X145321428Y-129226190D02*
X145488095Y-128988095D01*
X145607142Y-129226190D02*
X145607142Y-128726190D01*
X145416666Y-128726190D01*
X145369047Y-128750000D01*
X145345238Y-128773810D01*
X145321428Y-128821429D01*
X145321428Y-128892857D01*
X145345238Y-128940476D01*
X145369047Y-128964286D01*
X145416666Y-128988095D01*
X145607142Y-128988095D01*
X144892857Y-128726190D02*
X144988095Y-128726190D01*
X145035714Y-128750000D01*
X145059523Y-128773810D01*
X145107142Y-128845238D01*
X145130952Y-128940476D01*
X145130952Y-129130952D01*
X145107142Y-129178571D01*
X145083333Y-129202381D01*
X145035714Y-129226190D01*
X144940476Y-129226190D01*
X144892857Y-129202381D01*
X144869047Y-129178571D01*
X144845238Y-129130952D01*
X144845238Y-129011905D01*
X144869047Y-128964286D01*
X144892857Y-128940476D01*
X144940476Y-128916667D01*
X145035714Y-128916667D01*
X145083333Y-128940476D01*
X145107142Y-128964286D01*
X145130952Y-129011905D01*
X144416667Y-128892857D02*
X144416667Y-129226190D01*
X144535714Y-128702381D02*
X144654762Y-129059524D01*
X144345238Y-129059524D01*
X245571428Y-138476190D02*
X245738095Y-138238095D01*
X245857142Y-138476190D02*
X245857142Y-137976190D01*
X245666666Y-137976190D01*
X245619047Y-138000000D01*
X245595238Y-138023810D01*
X245571428Y-138071429D01*
X245571428Y-138142857D01*
X245595238Y-138190476D01*
X245619047Y-138214286D01*
X245666666Y-138238095D01*
X245857142Y-138238095D01*
X245142857Y-137976190D02*
X245238095Y-137976190D01*
X245285714Y-138000000D01*
X245309523Y-138023810D01*
X245357142Y-138095238D01*
X245380952Y-138190476D01*
X245380952Y-138380952D01*
X245357142Y-138428571D01*
X245333333Y-138452381D01*
X245285714Y-138476190D01*
X245190476Y-138476190D01*
X245142857Y-138452381D01*
X245119047Y-138428571D01*
X245095238Y-138380952D01*
X245095238Y-138261905D01*
X245119047Y-138214286D01*
X245142857Y-138190476D01*
X245190476Y-138166667D01*
X245285714Y-138166667D01*
X245333333Y-138190476D01*
X245357142Y-138214286D01*
X245380952Y-138261905D01*
X244809524Y-138190476D02*
X244857143Y-138166667D01*
X244880952Y-138142857D01*
X244904762Y-138095238D01*
X244904762Y-138071429D01*
X244880952Y-138023810D01*
X244857143Y-138000000D01*
X244809524Y-137976190D01*
X244714286Y-137976190D01*
X244666667Y-138000000D01*
X244642857Y-138023810D01*
X244619048Y-138071429D01*
X244619048Y-138095238D01*
X244642857Y-138142857D01*
X244666667Y-138166667D01*
X244714286Y-138190476D01*
X244809524Y-138190476D01*
X244857143Y-138214286D01*
X244880952Y-138238095D01*
X244904762Y-138285714D01*
X244904762Y-138380952D01*
X244880952Y-138428571D01*
X244857143Y-138452381D01*
X244809524Y-138476190D01*
X244714286Y-138476190D01*
X244666667Y-138452381D01*
X244642857Y-138428571D01*
X244619048Y-138380952D01*
X244619048Y-138285714D01*
X244642857Y-138238095D01*
X244666667Y-138214286D01*
X244714286Y-138190476D01*
X245571428Y-139726190D02*
X245738095Y-139488095D01*
X245857142Y-139726190D02*
X245857142Y-139226190D01*
X245666666Y-139226190D01*
X245619047Y-139250000D01*
X245595238Y-139273810D01*
X245571428Y-139321429D01*
X245571428Y-139392857D01*
X245595238Y-139440476D01*
X245619047Y-139464286D01*
X245666666Y-139488095D01*
X245857142Y-139488095D01*
X245142857Y-139226190D02*
X245238095Y-139226190D01*
X245285714Y-139250000D01*
X245309523Y-139273810D01*
X245357142Y-139345238D01*
X245380952Y-139440476D01*
X245380952Y-139630952D01*
X245357142Y-139678571D01*
X245333333Y-139702381D01*
X245285714Y-139726190D01*
X245190476Y-139726190D01*
X245142857Y-139702381D01*
X245119047Y-139678571D01*
X245095238Y-139630952D01*
X245095238Y-139511905D01*
X245119047Y-139464286D01*
X245142857Y-139440476D01*
X245190476Y-139416667D01*
X245285714Y-139416667D01*
X245333333Y-139440476D01*
X245357142Y-139464286D01*
X245380952Y-139511905D01*
X244928571Y-139226190D02*
X244595238Y-139226190D01*
X244809524Y-139726190D01*
X215928571Y-113478572D02*
X215952381Y-113454762D01*
X215976190Y-113383334D01*
X215976190Y-113335715D01*
X215952381Y-113264286D01*
X215904762Y-113216667D01*
X215857143Y-113192858D01*
X215761905Y-113169048D01*
X215690476Y-113169048D01*
X215595238Y-113192858D01*
X215547619Y-113216667D01*
X215500000Y-113264286D01*
X215476190Y-113335715D01*
X215476190Y-113383334D01*
X215500000Y-113454762D01*
X215523810Y-113478572D01*
X215690476Y-113764286D02*
X215666667Y-113716667D01*
X215642857Y-113692858D01*
X215595238Y-113669048D01*
X215571429Y-113669048D01*
X215523810Y-113692858D01*
X215500000Y-113716667D01*
X215476190Y-113764286D01*
X215476190Y-113859524D01*
X215500000Y-113907143D01*
X215523810Y-113930953D01*
X215571429Y-113954762D01*
X215595238Y-113954762D01*
X215642857Y-113930953D01*
X215666667Y-113907143D01*
X215690476Y-113859524D01*
X215690476Y-113764286D01*
X215714286Y-113716667D01*
X215738095Y-113692858D01*
X215785714Y-113669048D01*
X215880952Y-113669048D01*
X215928571Y-113692858D01*
X215952381Y-113716667D01*
X215976190Y-113764286D01*
X215976190Y-113859524D01*
X215952381Y-113907143D01*
X215928571Y-113930953D01*
X215880952Y-113954762D01*
X215785714Y-113954762D01*
X215738095Y-113930953D01*
X215714286Y-113907143D01*
X215690476Y-113859524D01*
X215476190Y-114121429D02*
X215476190Y-114430952D01*
X215666667Y-114264286D01*
X215666667Y-114335714D01*
X215690476Y-114383333D01*
X215714286Y-114407143D01*
X215761905Y-114430952D01*
X215880952Y-114430952D01*
X215928571Y-114407143D01*
X215952381Y-114383333D01*
X215976190Y-114335714D01*
X215976190Y-114192857D01*
X215952381Y-114145238D01*
X215928571Y-114121429D01*
X226098571Y-121078572D02*
X226122381Y-121054762D01*
X226146190Y-120983334D01*
X226146190Y-120935715D01*
X226122381Y-120864286D01*
X226074762Y-120816667D01*
X226027143Y-120792858D01*
X225931905Y-120769048D01*
X225860476Y-120769048D01*
X225765238Y-120792858D01*
X225717619Y-120816667D01*
X225670000Y-120864286D01*
X225646190Y-120935715D01*
X225646190Y-120983334D01*
X225670000Y-121054762D01*
X225693810Y-121078572D01*
X225646190Y-121245239D02*
X225646190Y-121578572D01*
X226146190Y-121364286D01*
X225812857Y-121983333D02*
X226146190Y-121983333D01*
X225622381Y-121864286D02*
X225979524Y-121745238D01*
X225979524Y-122054762D01*
X222721428Y-114898571D02*
X222745238Y-114922381D01*
X222816666Y-114946190D01*
X222864285Y-114946190D01*
X222935714Y-114922381D01*
X222983333Y-114874762D01*
X223007142Y-114827143D01*
X223030952Y-114731905D01*
X223030952Y-114660476D01*
X223007142Y-114565238D01*
X222983333Y-114517619D01*
X222935714Y-114470000D01*
X222864285Y-114446190D01*
X222816666Y-114446190D01*
X222745238Y-114470000D01*
X222721428Y-114493810D01*
X222435714Y-114660476D02*
X222483333Y-114636667D01*
X222507142Y-114612857D01*
X222530952Y-114565238D01*
X222530952Y-114541429D01*
X222507142Y-114493810D01*
X222483333Y-114470000D01*
X222435714Y-114446190D01*
X222340476Y-114446190D01*
X222292857Y-114470000D01*
X222269047Y-114493810D01*
X222245238Y-114541429D01*
X222245238Y-114565238D01*
X222269047Y-114612857D01*
X222292857Y-114636667D01*
X222340476Y-114660476D01*
X222435714Y-114660476D01*
X222483333Y-114684286D01*
X222507142Y-114708095D01*
X222530952Y-114755714D01*
X222530952Y-114850952D01*
X222507142Y-114898571D01*
X222483333Y-114922381D01*
X222435714Y-114946190D01*
X222340476Y-114946190D01*
X222292857Y-114922381D01*
X222269047Y-114898571D01*
X222245238Y-114850952D01*
X222245238Y-114755714D01*
X222269047Y-114708095D01*
X222292857Y-114684286D01*
X222340476Y-114660476D01*
X221935714Y-114446190D02*
X221888095Y-114446190D01*
X221840476Y-114470000D01*
X221816667Y-114493810D01*
X221792857Y-114541429D01*
X221769048Y-114636667D01*
X221769048Y-114755714D01*
X221792857Y-114850952D01*
X221816667Y-114898571D01*
X221840476Y-114922381D01*
X221888095Y-114946190D01*
X221935714Y-114946190D01*
X221983333Y-114922381D01*
X222007143Y-114898571D01*
X222030952Y-114850952D01*
X222054762Y-114755714D01*
X222054762Y-114636667D01*
X222030952Y-114541429D01*
X222007143Y-114493810D01*
X221983333Y-114470000D01*
X221935714Y-114446190D01*
X223558571Y-114678572D02*
X223582381Y-114654762D01*
X223606190Y-114583334D01*
X223606190Y-114535715D01*
X223582381Y-114464286D01*
X223534762Y-114416667D01*
X223487143Y-114392858D01*
X223391905Y-114369048D01*
X223320476Y-114369048D01*
X223225238Y-114392858D01*
X223177619Y-114416667D01*
X223130000Y-114464286D01*
X223106190Y-114535715D01*
X223106190Y-114583334D01*
X223130000Y-114654762D01*
X223153810Y-114678572D01*
X223606190Y-114916667D02*
X223606190Y-115011905D01*
X223582381Y-115059524D01*
X223558571Y-115083334D01*
X223487143Y-115130953D01*
X223391905Y-115154762D01*
X223201429Y-115154762D01*
X223153810Y-115130953D01*
X223130000Y-115107143D01*
X223106190Y-115059524D01*
X223106190Y-114964286D01*
X223130000Y-114916667D01*
X223153810Y-114892858D01*
X223201429Y-114869048D01*
X223320476Y-114869048D01*
X223368095Y-114892858D01*
X223391905Y-114916667D01*
X223415714Y-114964286D01*
X223415714Y-115059524D01*
X223391905Y-115107143D01*
X223368095Y-115130953D01*
X223320476Y-115154762D01*
X223320476Y-115440476D02*
X223296667Y-115392857D01*
X223272857Y-115369048D01*
X223225238Y-115345238D01*
X223201429Y-115345238D01*
X223153810Y-115369048D01*
X223130000Y-115392857D01*
X223106190Y-115440476D01*
X223106190Y-115535714D01*
X223130000Y-115583333D01*
X223153810Y-115607143D01*
X223201429Y-115630952D01*
X223225238Y-115630952D01*
X223272857Y-115607143D01*
X223296667Y-115583333D01*
X223320476Y-115535714D01*
X223320476Y-115440476D01*
X223344286Y-115392857D01*
X223368095Y-115369048D01*
X223415714Y-115345238D01*
X223510952Y-115345238D01*
X223558571Y-115369048D01*
X223582381Y-115392857D01*
X223606190Y-115440476D01*
X223606190Y-115535714D01*
X223582381Y-115583333D01*
X223558571Y-115607143D01*
X223510952Y-115630952D01*
X223415714Y-115630952D01*
X223368095Y-115607143D01*
X223344286Y-115583333D01*
X223320476Y-115535714D01*
X228921428Y-114078571D02*
X228945238Y-114102381D01*
X229016666Y-114126190D01*
X229064285Y-114126190D01*
X229135714Y-114102381D01*
X229183333Y-114054762D01*
X229207142Y-114007143D01*
X229230952Y-113911905D01*
X229230952Y-113840476D01*
X229207142Y-113745238D01*
X229183333Y-113697619D01*
X229135714Y-113650000D01*
X229064285Y-113626190D01*
X229016666Y-113626190D01*
X228945238Y-113650000D01*
X228921428Y-113673810D01*
X228754761Y-113626190D02*
X228421428Y-113626190D01*
X228635714Y-114126190D01*
X227992857Y-113626190D02*
X228230952Y-113626190D01*
X228254762Y-113864286D01*
X228230952Y-113840476D01*
X228183333Y-113816667D01*
X228064286Y-113816667D01*
X228016667Y-113840476D01*
X227992857Y-113864286D01*
X227969048Y-113911905D01*
X227969048Y-114030952D01*
X227992857Y-114078571D01*
X228016667Y-114102381D01*
X228064286Y-114126190D01*
X228183333Y-114126190D01*
X228230952Y-114102381D01*
X228254762Y-114078571D01*
X232571428Y-120928571D02*
X232595238Y-120952381D01*
X232666666Y-120976190D01*
X232714285Y-120976190D01*
X232785714Y-120952381D01*
X232833333Y-120904762D01*
X232857142Y-120857143D01*
X232880952Y-120761905D01*
X232880952Y-120690476D01*
X232857142Y-120595238D01*
X232833333Y-120547619D01*
X232785714Y-120500000D01*
X232714285Y-120476190D01*
X232666666Y-120476190D01*
X232595238Y-120500000D01*
X232571428Y-120523810D01*
X232285714Y-120690476D02*
X232333333Y-120666667D01*
X232357142Y-120642857D01*
X232380952Y-120595238D01*
X232380952Y-120571429D01*
X232357142Y-120523810D01*
X232333333Y-120500000D01*
X232285714Y-120476190D01*
X232190476Y-120476190D01*
X232142857Y-120500000D01*
X232119047Y-120523810D01*
X232095238Y-120571429D01*
X232095238Y-120595238D01*
X232119047Y-120642857D01*
X232142857Y-120666667D01*
X232190476Y-120690476D01*
X232285714Y-120690476D01*
X232333333Y-120714286D01*
X232357142Y-120738095D01*
X232380952Y-120785714D01*
X232380952Y-120880952D01*
X232357142Y-120928571D01*
X232333333Y-120952381D01*
X232285714Y-120976190D01*
X232190476Y-120976190D01*
X232142857Y-120952381D01*
X232119047Y-120928571D01*
X232095238Y-120880952D01*
X232095238Y-120785714D01*
X232119047Y-120738095D01*
X232142857Y-120714286D01*
X232190476Y-120690476D01*
X231666667Y-120476190D02*
X231761905Y-120476190D01*
X231809524Y-120500000D01*
X231833333Y-120523810D01*
X231880952Y-120595238D01*
X231904762Y-120690476D01*
X231904762Y-120880952D01*
X231880952Y-120928571D01*
X231857143Y-120952381D01*
X231809524Y-120976190D01*
X231714286Y-120976190D01*
X231666667Y-120952381D01*
X231642857Y-120928571D01*
X231619048Y-120880952D01*
X231619048Y-120761905D01*
X231642857Y-120714286D01*
X231666667Y-120690476D01*
X231714286Y-120666667D01*
X231809524Y-120666667D01*
X231857143Y-120690476D01*
X231880952Y-120714286D01*
X231904762Y-120761905D01*
X221747619Y-145023810D02*
X221795238Y-145000000D01*
X221842857Y-144952381D01*
X221914286Y-144880952D01*
X221961905Y-144857143D01*
X222009524Y-144857143D01*
X221985714Y-144976190D02*
X222033333Y-144952381D01*
X222080952Y-144904762D01*
X222104762Y-144809524D01*
X222104762Y-144642857D01*
X222080952Y-144547619D01*
X222033333Y-144500000D01*
X221985714Y-144476190D01*
X221890476Y-144476190D01*
X221842857Y-144500000D01*
X221795238Y-144547619D01*
X221771429Y-144642857D01*
X221771429Y-144809524D01*
X221795238Y-144904762D01*
X221842857Y-144952381D01*
X221890476Y-144976190D01*
X221985714Y-144976190D01*
X221485714Y-144690476D02*
X221533333Y-144666667D01*
X221557142Y-144642857D01*
X221580952Y-144595238D01*
X221580952Y-144571429D01*
X221557142Y-144523810D01*
X221533333Y-144500000D01*
X221485714Y-144476190D01*
X221390476Y-144476190D01*
X221342857Y-144500000D01*
X221319047Y-144523810D01*
X221295238Y-144571429D01*
X221295238Y-144595238D01*
X221319047Y-144642857D01*
X221342857Y-144666667D01*
X221390476Y-144690476D01*
X221485714Y-144690476D01*
X221533333Y-144714286D01*
X221557142Y-144738095D01*
X221580952Y-144785714D01*
X221580952Y-144880952D01*
X221557142Y-144928571D01*
X221533333Y-144952381D01*
X221485714Y-144976190D01*
X221390476Y-144976190D01*
X221342857Y-144952381D01*
X221319047Y-144928571D01*
X221295238Y-144880952D01*
X221295238Y-144785714D01*
X221319047Y-144738095D01*
X221342857Y-144714286D01*
X221390476Y-144690476D01*
X175163121Y-148115709D02*
X175567883Y-148115709D01*
X175615502Y-148139518D01*
X175639312Y-148163328D01*
X175663121Y-148210947D01*
X175663121Y-148306185D01*
X175639312Y-148353804D01*
X175615502Y-148377613D01*
X175567883Y-148401423D01*
X175163121Y-148401423D01*
X175163121Y-148591900D02*
X175163121Y-148925233D01*
X175663121Y-148710947D01*
X225176190Y-99219048D02*
X225580952Y-99219048D01*
X225628571Y-99242857D01*
X225652381Y-99266667D01*
X225676190Y-99314286D01*
X225676190Y-99409524D01*
X225652381Y-99457143D01*
X225628571Y-99480952D01*
X225580952Y-99504762D01*
X225176190Y-99504762D01*
X225176190Y-99980953D02*
X225176190Y-99742858D01*
X225414286Y-99719048D01*
X225390476Y-99742858D01*
X225366667Y-99790477D01*
X225366667Y-99909524D01*
X225390476Y-99957143D01*
X225414286Y-99980953D01*
X225461905Y-100004762D01*
X225580952Y-100004762D01*
X225628571Y-99980953D01*
X225652381Y-99957143D01*
X225676190Y-99909524D01*
X225676190Y-99790477D01*
X225652381Y-99742858D01*
X225628571Y-99719048D01*
X196380952Y-145476190D02*
X196380952Y-145880952D01*
X196357143Y-145928571D01*
X196333333Y-145952381D01*
X196285714Y-145976190D01*
X196190476Y-145976190D01*
X196142857Y-145952381D01*
X196119048Y-145928571D01*
X196095238Y-145880952D01*
X196095238Y-145476190D01*
X195642857Y-145476190D02*
X195738095Y-145476190D01*
X195785714Y-145500000D01*
X195809523Y-145523810D01*
X195857142Y-145595238D01*
X195880952Y-145690476D01*
X195880952Y-145880952D01*
X195857142Y-145928571D01*
X195833333Y-145952381D01*
X195785714Y-145976190D01*
X195690476Y-145976190D01*
X195642857Y-145952381D01*
X195619047Y-145928571D01*
X195595238Y-145880952D01*
X195595238Y-145761905D01*
X195619047Y-145714286D01*
X195642857Y-145690476D01*
X195690476Y-145666667D01*
X195785714Y-145666667D01*
X195833333Y-145690476D01*
X195857142Y-145714286D01*
X195880952Y-145761905D01*
X163630952Y-152226190D02*
X163630952Y-152630952D01*
X163607143Y-152678571D01*
X163583333Y-152702381D01*
X163535714Y-152726190D01*
X163440476Y-152726190D01*
X163392857Y-152702381D01*
X163369048Y-152678571D01*
X163345238Y-152630952D01*
X163345238Y-152226190D01*
X162892857Y-152392857D02*
X162892857Y-152726190D01*
X163011904Y-152202381D02*
X163130952Y-152559524D01*
X162821428Y-152559524D01*
X173069790Y-144322851D02*
X173307885Y-144322851D01*
X173307885Y-143822851D01*
X172688838Y-143989518D02*
X172688838Y-144322851D01*
X172807885Y-143799042D02*
X172926933Y-144156185D01*
X172617409Y-144156185D01*
X228433333Y-106576190D02*
X228671428Y-106576190D01*
X228671428Y-106076190D01*
X228290476Y-106123810D02*
X228266666Y-106100000D01*
X228219047Y-106076190D01*
X228100000Y-106076190D01*
X228052381Y-106100000D01*
X228028571Y-106123810D01*
X228004762Y-106171429D01*
X228004762Y-106219048D01*
X228028571Y-106290476D01*
X228314285Y-106576190D01*
X228004762Y-106576190D01*
X170626190Y-149466667D02*
X170626190Y-149228572D01*
X170126190Y-149228572D01*
X170626190Y-149895238D02*
X170626190Y-149609524D01*
X170626190Y-149752381D02*
X170126190Y-149752381D01*
X170197619Y-149704762D01*
X170245238Y-149657143D01*
X170269048Y-149609524D01*
X231964286Y-124583334D02*
X231964286Y-124416668D01*
X232226190Y-124416668D02*
X231726190Y-124416668D01*
X231726190Y-124654763D01*
X231964286Y-125011905D02*
X231988095Y-125083334D01*
X232011905Y-125107143D01*
X232059524Y-125130953D01*
X232130952Y-125130953D01*
X232178571Y-125107143D01*
X232202381Y-125083334D01*
X232226190Y-125035715D01*
X232226190Y-124845239D01*
X231726190Y-124845239D01*
X231726190Y-125011905D01*
X231750000Y-125059524D01*
X231773810Y-125083334D01*
X231821429Y-125107143D01*
X231869048Y-125107143D01*
X231916667Y-125083334D01*
X231940476Y-125059524D01*
X231964286Y-125011905D01*
X231964286Y-124845239D01*
X231892857Y-125559524D02*
X232226190Y-125559524D01*
X231702381Y-125440477D02*
X232059524Y-125321429D01*
X232059524Y-125630953D01*
X234666666Y-122464286D02*
X234833332Y-122464286D01*
X234833332Y-122726190D02*
X234833332Y-122226190D01*
X234595237Y-122226190D01*
X234238095Y-122464286D02*
X234166666Y-122488095D01*
X234142857Y-122511905D01*
X234119047Y-122559524D01*
X234119047Y-122630952D01*
X234142857Y-122678571D01*
X234166666Y-122702381D01*
X234214285Y-122726190D01*
X234404761Y-122726190D01*
X234404761Y-122226190D01*
X234238095Y-122226190D01*
X234190476Y-122250000D01*
X234166666Y-122273810D01*
X234142857Y-122321429D01*
X234142857Y-122369048D01*
X234166666Y-122416667D01*
X234190476Y-122440476D01*
X234238095Y-122464286D01*
X234404761Y-122464286D01*
X233952380Y-122226190D02*
X233642857Y-122226190D01*
X233809523Y-122416667D01*
X233738095Y-122416667D01*
X233690476Y-122440476D01*
X233666666Y-122464286D01*
X233642857Y-122511905D01*
X233642857Y-122630952D01*
X233666666Y-122678571D01*
X233690476Y-122702381D01*
X233738095Y-122726190D01*
X233880952Y-122726190D01*
X233928571Y-122702381D01*
X233952380Y-122678571D01*
X218209523Y-129978571D02*
X218233333Y-130002381D01*
X218304761Y-130026190D01*
X218352380Y-130026190D01*
X218423809Y-130002381D01*
X218471428Y-129954762D01*
X218495237Y-129907143D01*
X218519047Y-129811905D01*
X218519047Y-129740476D01*
X218495237Y-129645238D01*
X218471428Y-129597619D01*
X218423809Y-129550000D01*
X218352380Y-129526190D01*
X218304761Y-129526190D01*
X218233333Y-129550000D01*
X218209523Y-129573810D01*
X217733333Y-130026190D02*
X218019047Y-130026190D01*
X217876190Y-130026190D02*
X217876190Y-129526190D01*
X217923809Y-129597619D01*
X217971428Y-129645238D01*
X218019047Y-129669048D01*
X217423809Y-129526190D02*
X217376190Y-129526190D01*
X217328571Y-129550000D01*
X217304762Y-129573810D01*
X217280952Y-129621429D01*
X217257143Y-129716667D01*
X217257143Y-129835714D01*
X217280952Y-129930952D01*
X217304762Y-129978571D01*
X217328571Y-130002381D01*
X217376190Y-130026190D01*
X217423809Y-130026190D01*
X217471428Y-130002381D01*
X217495238Y-129978571D01*
X217519047Y-129930952D01*
X217542857Y-129835714D01*
X217542857Y-129716667D01*
X217519047Y-129621429D01*
X217495238Y-129573810D01*
X217471428Y-129550000D01*
X217423809Y-129526190D01*
X217090476Y-129526190D02*
X216780953Y-129526190D01*
X216947619Y-129716667D01*
X216876191Y-129716667D01*
X216828572Y-129740476D01*
X216804762Y-129764286D01*
X216780953Y-129811905D01*
X216780953Y-129930952D01*
X216804762Y-129978571D01*
X216828572Y-130002381D01*
X216876191Y-130026190D01*
X217019048Y-130026190D01*
X217066667Y-130002381D01*
X217090476Y-129978571D01*
X225371428Y-120848571D02*
X225395238Y-120872381D01*
X225466666Y-120896190D01*
X225514285Y-120896190D01*
X225585714Y-120872381D01*
X225633333Y-120824762D01*
X225657142Y-120777143D01*
X225680952Y-120681905D01*
X225680952Y-120610476D01*
X225657142Y-120515238D01*
X225633333Y-120467619D01*
X225585714Y-120420000D01*
X225514285Y-120396190D01*
X225466666Y-120396190D01*
X225395238Y-120420000D01*
X225371428Y-120443810D01*
X225204761Y-120396190D02*
X224871428Y-120396190D01*
X225085714Y-120896190D01*
X224609524Y-120610476D02*
X224657143Y-120586667D01*
X224680952Y-120562857D01*
X224704762Y-120515238D01*
X224704762Y-120491429D01*
X224680952Y-120443810D01*
X224657143Y-120420000D01*
X224609524Y-120396190D01*
X224514286Y-120396190D01*
X224466667Y-120420000D01*
X224442857Y-120443810D01*
X224419048Y-120491429D01*
X224419048Y-120515238D01*
X224442857Y-120562857D01*
X224466667Y-120586667D01*
X224514286Y-120610476D01*
X224609524Y-120610476D01*
X224657143Y-120634286D01*
X224680952Y-120658095D01*
X224704762Y-120705714D01*
X224704762Y-120800952D01*
X224680952Y-120848571D01*
X224657143Y-120872381D01*
X224609524Y-120896190D01*
X224514286Y-120896190D01*
X224466667Y-120872381D01*
X224442857Y-120848571D01*
X224419048Y-120800952D01*
X224419048Y-120705714D01*
X224442857Y-120658095D01*
X224466667Y-120634286D01*
X224514286Y-120610476D01*
X222809523Y-121078571D02*
X222833333Y-121102381D01*
X222904761Y-121126190D01*
X222952380Y-121126190D01*
X223023809Y-121102381D01*
X223071428Y-121054762D01*
X223095237Y-121007143D01*
X223119047Y-120911905D01*
X223119047Y-120840476D01*
X223095237Y-120745238D01*
X223071428Y-120697619D01*
X223023809Y-120650000D01*
X222952380Y-120626190D01*
X222904761Y-120626190D01*
X222833333Y-120650000D01*
X222809523Y-120673810D01*
X222333333Y-121126190D02*
X222619047Y-121126190D01*
X222476190Y-121126190D02*
X222476190Y-120626190D01*
X222523809Y-120697619D01*
X222571428Y-120745238D01*
X222619047Y-120769048D01*
X222023809Y-120626190D02*
X221976190Y-120626190D01*
X221928571Y-120650000D01*
X221904762Y-120673810D01*
X221880952Y-120721429D01*
X221857143Y-120816667D01*
X221857143Y-120935714D01*
X221880952Y-121030952D01*
X221904762Y-121078571D01*
X221928571Y-121102381D01*
X221976190Y-121126190D01*
X222023809Y-121126190D01*
X222071428Y-121102381D01*
X222095238Y-121078571D01*
X222119047Y-121030952D01*
X222142857Y-120935714D01*
X222142857Y-120816667D01*
X222119047Y-120721429D01*
X222095238Y-120673810D01*
X222071428Y-120650000D01*
X222023809Y-120626190D01*
X221380953Y-121126190D02*
X221666667Y-121126190D01*
X221523810Y-121126190D02*
X221523810Y-120626190D01*
X221571429Y-120697619D01*
X221619048Y-120745238D01*
X221666667Y-120769048D01*
X228871428Y-114848571D02*
X228895238Y-114872381D01*
X228966666Y-114896190D01*
X229014285Y-114896190D01*
X229085714Y-114872381D01*
X229133333Y-114824762D01*
X229157142Y-114777143D01*
X229180952Y-114681905D01*
X229180952Y-114610476D01*
X229157142Y-114515238D01*
X229133333Y-114467619D01*
X229085714Y-114420000D01*
X229014285Y-114396190D01*
X228966666Y-114396190D01*
X228895238Y-114420000D01*
X228871428Y-114443810D01*
X228585714Y-114610476D02*
X228633333Y-114586667D01*
X228657142Y-114562857D01*
X228680952Y-114515238D01*
X228680952Y-114491429D01*
X228657142Y-114443810D01*
X228633333Y-114420000D01*
X228585714Y-114396190D01*
X228490476Y-114396190D01*
X228442857Y-114420000D01*
X228419047Y-114443810D01*
X228395238Y-114491429D01*
X228395238Y-114515238D01*
X228419047Y-114562857D01*
X228442857Y-114586667D01*
X228490476Y-114610476D01*
X228585714Y-114610476D01*
X228633333Y-114634286D01*
X228657142Y-114658095D01*
X228680952Y-114705714D01*
X228680952Y-114800952D01*
X228657142Y-114848571D01*
X228633333Y-114872381D01*
X228585714Y-114896190D01*
X228490476Y-114896190D01*
X228442857Y-114872381D01*
X228419047Y-114848571D01*
X228395238Y-114800952D01*
X228395238Y-114705714D01*
X228419047Y-114658095D01*
X228442857Y-114634286D01*
X228490476Y-114610476D01*
X228204762Y-114443810D02*
X228180952Y-114420000D01*
X228133333Y-114396190D01*
X228014286Y-114396190D01*
X227966667Y-114420000D01*
X227942857Y-114443810D01*
X227919048Y-114491429D01*
X227919048Y-114539048D01*
X227942857Y-114610476D01*
X228228571Y-114896190D01*
X227919048Y-114896190D01*
X237678571Y-114678572D02*
X237702381Y-114654762D01*
X237726190Y-114583334D01*
X237726190Y-114535715D01*
X237702381Y-114464286D01*
X237654762Y-114416667D01*
X237607143Y-114392858D01*
X237511905Y-114369048D01*
X237440476Y-114369048D01*
X237345238Y-114392858D01*
X237297619Y-114416667D01*
X237250000Y-114464286D01*
X237226190Y-114535715D01*
X237226190Y-114583334D01*
X237250000Y-114654762D01*
X237273810Y-114678572D01*
X237226190Y-114845239D02*
X237226190Y-115178572D01*
X237726190Y-114964286D01*
X237226190Y-115321429D02*
X237226190Y-115654762D01*
X237726190Y-115440476D01*
X229909523Y-125648571D02*
X229933333Y-125672381D01*
X230004761Y-125696190D01*
X230052380Y-125696190D01*
X230123809Y-125672381D01*
X230171428Y-125624762D01*
X230195237Y-125577143D01*
X230219047Y-125481905D01*
X230219047Y-125410476D01*
X230195237Y-125315238D01*
X230171428Y-125267619D01*
X230123809Y-125220000D01*
X230052380Y-125196190D01*
X230004761Y-125196190D01*
X229933333Y-125220000D01*
X229909523Y-125243810D01*
X229433333Y-125696190D02*
X229719047Y-125696190D01*
X229576190Y-125696190D02*
X229576190Y-125196190D01*
X229623809Y-125267619D01*
X229671428Y-125315238D01*
X229719047Y-125339048D01*
X229123809Y-125196190D02*
X229076190Y-125196190D01*
X229028571Y-125220000D01*
X229004762Y-125243810D01*
X228980952Y-125291429D01*
X228957143Y-125386667D01*
X228957143Y-125505714D01*
X228980952Y-125600952D01*
X229004762Y-125648571D01*
X229028571Y-125672381D01*
X229076190Y-125696190D01*
X229123809Y-125696190D01*
X229171428Y-125672381D01*
X229195238Y-125648571D01*
X229219047Y-125600952D01*
X229242857Y-125505714D01*
X229242857Y-125386667D01*
X229219047Y-125291429D01*
X229195238Y-125243810D01*
X229171428Y-125220000D01*
X229123809Y-125196190D01*
X228647619Y-125196190D02*
X228600000Y-125196190D01*
X228552381Y-125220000D01*
X228528572Y-125243810D01*
X228504762Y-125291429D01*
X228480953Y-125386667D01*
X228480953Y-125505714D01*
X228504762Y-125600952D01*
X228528572Y-125648571D01*
X228552381Y-125672381D01*
X228600000Y-125696190D01*
X228647619Y-125696190D01*
X228695238Y-125672381D01*
X228719048Y-125648571D01*
X228742857Y-125600952D01*
X228766667Y-125505714D01*
X228766667Y-125386667D01*
X228742857Y-125291429D01*
X228719048Y-125243810D01*
X228695238Y-125220000D01*
X228647619Y-125196190D01*
X219928571Y-113428572D02*
X219952381Y-113404762D01*
X219976190Y-113333334D01*
X219976190Y-113285715D01*
X219952381Y-113214286D01*
X219904762Y-113166667D01*
X219857143Y-113142858D01*
X219761905Y-113119048D01*
X219690476Y-113119048D01*
X219595238Y-113142858D01*
X219547619Y-113166667D01*
X219500000Y-113214286D01*
X219476190Y-113285715D01*
X219476190Y-113333334D01*
X219500000Y-113404762D01*
X219523810Y-113428572D01*
X219690476Y-113714286D02*
X219666667Y-113666667D01*
X219642857Y-113642858D01*
X219595238Y-113619048D01*
X219571429Y-113619048D01*
X219523810Y-113642858D01*
X219500000Y-113666667D01*
X219476190Y-113714286D01*
X219476190Y-113809524D01*
X219500000Y-113857143D01*
X219523810Y-113880953D01*
X219571429Y-113904762D01*
X219595238Y-113904762D01*
X219642857Y-113880953D01*
X219666667Y-113857143D01*
X219690476Y-113809524D01*
X219690476Y-113714286D01*
X219714286Y-113666667D01*
X219738095Y-113642858D01*
X219785714Y-113619048D01*
X219880952Y-113619048D01*
X219928571Y-113642858D01*
X219952381Y-113666667D01*
X219976190Y-113714286D01*
X219976190Y-113809524D01*
X219952381Y-113857143D01*
X219928571Y-113880953D01*
X219880952Y-113904762D01*
X219785714Y-113904762D01*
X219738095Y-113880953D01*
X219714286Y-113857143D01*
X219690476Y-113809524D01*
X219976190Y-114380952D02*
X219976190Y-114095238D01*
X219976190Y-114238095D02*
X219476190Y-114238095D01*
X219547619Y-114190476D01*
X219595238Y-114142857D01*
X219619048Y-114095238D01*
X218521428Y-117178571D02*
X218545238Y-117202381D01*
X218616666Y-117226190D01*
X218664285Y-117226190D01*
X218735714Y-117202381D01*
X218783333Y-117154762D01*
X218807142Y-117107143D01*
X218830952Y-117011905D01*
X218830952Y-116940476D01*
X218807142Y-116845238D01*
X218783333Y-116797619D01*
X218735714Y-116750000D01*
X218664285Y-116726190D01*
X218616666Y-116726190D01*
X218545238Y-116750000D01*
X218521428Y-116773810D01*
X218354761Y-116726190D02*
X218021428Y-116726190D01*
X218235714Y-117226190D01*
X217616667Y-116726190D02*
X217711905Y-116726190D01*
X217759524Y-116750000D01*
X217783333Y-116773810D01*
X217830952Y-116845238D01*
X217854762Y-116940476D01*
X217854762Y-117130952D01*
X217830952Y-117178571D01*
X217807143Y-117202381D01*
X217759524Y-117226190D01*
X217664286Y-117226190D01*
X217616667Y-117202381D01*
X217592857Y-117178571D01*
X217569048Y-117130952D01*
X217569048Y-117011905D01*
X217592857Y-116964286D01*
X217616667Y-116940476D01*
X217664286Y-116916667D01*
X217759524Y-116916667D01*
X217807143Y-116940476D01*
X217830952Y-116964286D01*
X217854762Y-117011905D01*
X232178571Y-122928572D02*
X232202381Y-122904762D01*
X232226190Y-122833334D01*
X232226190Y-122785715D01*
X232202381Y-122714286D01*
X232154762Y-122666667D01*
X232107143Y-122642858D01*
X232011905Y-122619048D01*
X231940476Y-122619048D01*
X231845238Y-122642858D01*
X231797619Y-122666667D01*
X231750000Y-122714286D01*
X231726190Y-122785715D01*
X231726190Y-122833334D01*
X231750000Y-122904762D01*
X231773810Y-122928572D01*
X231940476Y-123214286D02*
X231916667Y-123166667D01*
X231892857Y-123142858D01*
X231845238Y-123119048D01*
X231821429Y-123119048D01*
X231773810Y-123142858D01*
X231750000Y-123166667D01*
X231726190Y-123214286D01*
X231726190Y-123309524D01*
X231750000Y-123357143D01*
X231773810Y-123380953D01*
X231821429Y-123404762D01*
X231845238Y-123404762D01*
X231892857Y-123380953D01*
X231916667Y-123357143D01*
X231940476Y-123309524D01*
X231940476Y-123214286D01*
X231964286Y-123166667D01*
X231988095Y-123142858D01*
X232035714Y-123119048D01*
X232130952Y-123119048D01*
X232178571Y-123142858D01*
X232202381Y-123166667D01*
X232226190Y-123214286D01*
X232226190Y-123309524D01*
X232202381Y-123357143D01*
X232178571Y-123380953D01*
X232130952Y-123404762D01*
X232035714Y-123404762D01*
X231988095Y-123380953D01*
X231964286Y-123357143D01*
X231940476Y-123309524D01*
X231726190Y-123571429D02*
X231726190Y-123904762D01*
X232226190Y-123690476D01*
X222921428Y-110628571D02*
X222945238Y-110652381D01*
X223016666Y-110676190D01*
X223064285Y-110676190D01*
X223135714Y-110652381D01*
X223183333Y-110604762D01*
X223207142Y-110557143D01*
X223230952Y-110461905D01*
X223230952Y-110390476D01*
X223207142Y-110295238D01*
X223183333Y-110247619D01*
X223135714Y-110200000D01*
X223064285Y-110176190D01*
X223016666Y-110176190D01*
X222945238Y-110200000D01*
X222921428Y-110223810D01*
X222754761Y-110176190D02*
X222421428Y-110176190D01*
X222635714Y-110676190D01*
X222207143Y-110676190D02*
X222111905Y-110676190D01*
X222064286Y-110652381D01*
X222040476Y-110628571D01*
X221992857Y-110557143D01*
X221969048Y-110461905D01*
X221969048Y-110271429D01*
X221992857Y-110223810D01*
X222016667Y-110200000D01*
X222064286Y-110176190D01*
X222159524Y-110176190D01*
X222207143Y-110200000D01*
X222230952Y-110223810D01*
X222254762Y-110271429D01*
X222254762Y-110390476D01*
X222230952Y-110438095D01*
X222207143Y-110461905D01*
X222159524Y-110485714D01*
X222064286Y-110485714D01*
X222016667Y-110461905D01*
X221992857Y-110438095D01*
X221969048Y-110390476D01*
X237178571Y-123928572D02*
X237202381Y-123904762D01*
X237226190Y-123833334D01*
X237226190Y-123785715D01*
X237202381Y-123714286D01*
X237154762Y-123666667D01*
X237107143Y-123642858D01*
X237011905Y-123619048D01*
X236940476Y-123619048D01*
X236845238Y-123642858D01*
X236797619Y-123666667D01*
X236750000Y-123714286D01*
X236726190Y-123785715D01*
X236726190Y-123833334D01*
X236750000Y-123904762D01*
X236773810Y-123928572D01*
X237226190Y-124166667D02*
X237226190Y-124261905D01*
X237202381Y-124309524D01*
X237178571Y-124333334D01*
X237107143Y-124380953D01*
X237011905Y-124404762D01*
X236821429Y-124404762D01*
X236773810Y-124380953D01*
X236750000Y-124357143D01*
X236726190Y-124309524D01*
X236726190Y-124214286D01*
X236750000Y-124166667D01*
X236773810Y-124142858D01*
X236821429Y-124119048D01*
X236940476Y-124119048D01*
X236988095Y-124142858D01*
X237011905Y-124166667D01*
X237035714Y-124214286D01*
X237035714Y-124309524D01*
X237011905Y-124357143D01*
X236988095Y-124380953D01*
X236940476Y-124404762D01*
X236726190Y-124571429D02*
X236726190Y-124904762D01*
X237226190Y-124690476D01*
X219071428Y-118928571D02*
X219095238Y-118952381D01*
X219166666Y-118976190D01*
X219214285Y-118976190D01*
X219285714Y-118952381D01*
X219333333Y-118904762D01*
X219357142Y-118857143D01*
X219380952Y-118761905D01*
X219380952Y-118690476D01*
X219357142Y-118595238D01*
X219333333Y-118547619D01*
X219285714Y-118500000D01*
X219214285Y-118476190D01*
X219166666Y-118476190D01*
X219095238Y-118500000D01*
X219071428Y-118523810D01*
X218833333Y-118976190D02*
X218738095Y-118976190D01*
X218690476Y-118952381D01*
X218666666Y-118928571D01*
X218619047Y-118857143D01*
X218595238Y-118761905D01*
X218595238Y-118571429D01*
X218619047Y-118523810D01*
X218642857Y-118500000D01*
X218690476Y-118476190D01*
X218785714Y-118476190D01*
X218833333Y-118500000D01*
X218857142Y-118523810D01*
X218880952Y-118571429D01*
X218880952Y-118690476D01*
X218857142Y-118738095D01*
X218833333Y-118761905D01*
X218785714Y-118785714D01*
X218690476Y-118785714D01*
X218642857Y-118761905D01*
X218619047Y-118738095D01*
X218595238Y-118690476D01*
X218166667Y-118476190D02*
X218261905Y-118476190D01*
X218309524Y-118500000D01*
X218333333Y-118523810D01*
X218380952Y-118595238D01*
X218404762Y-118690476D01*
X218404762Y-118880952D01*
X218380952Y-118928571D01*
X218357143Y-118952381D01*
X218309524Y-118976190D01*
X218214286Y-118976190D01*
X218166667Y-118952381D01*
X218142857Y-118928571D01*
X218119048Y-118880952D01*
X218119048Y-118761905D01*
X218142857Y-118714286D01*
X218166667Y-118690476D01*
X218214286Y-118666667D01*
X218309524Y-118666667D01*
X218357143Y-118690476D01*
X218380952Y-118714286D01*
X218404762Y-118761905D01*
X222721428Y-127428571D02*
X222745238Y-127452381D01*
X222816666Y-127476190D01*
X222864285Y-127476190D01*
X222935714Y-127452381D01*
X222983333Y-127404762D01*
X223007142Y-127357143D01*
X223030952Y-127261905D01*
X223030952Y-127190476D01*
X223007142Y-127095238D01*
X222983333Y-127047619D01*
X222935714Y-127000000D01*
X222864285Y-126976190D01*
X222816666Y-126976190D01*
X222745238Y-127000000D01*
X222721428Y-127023810D01*
X222554761Y-126976190D02*
X222221428Y-126976190D01*
X222435714Y-127476190D01*
X222078571Y-126976190D02*
X221769048Y-126976190D01*
X221935714Y-127166667D01*
X221864286Y-127166667D01*
X221816667Y-127190476D01*
X221792857Y-127214286D01*
X221769048Y-127261905D01*
X221769048Y-127380952D01*
X221792857Y-127428571D01*
X221816667Y-127452381D01*
X221864286Y-127476190D01*
X222007143Y-127476190D01*
X222054762Y-127452381D01*
X222078571Y-127428571D01*
X227771428Y-118308571D02*
X227795238Y-118332381D01*
X227866666Y-118356190D01*
X227914285Y-118356190D01*
X227985714Y-118332381D01*
X228033333Y-118284762D01*
X228057142Y-118237143D01*
X228080952Y-118141905D01*
X228080952Y-118070476D01*
X228057142Y-117975238D01*
X228033333Y-117927619D01*
X227985714Y-117880000D01*
X227914285Y-117856190D01*
X227866666Y-117856190D01*
X227795238Y-117880000D01*
X227771428Y-117903810D01*
X227604761Y-117856190D02*
X227271428Y-117856190D01*
X227485714Y-118356190D01*
X227104762Y-117903810D02*
X227080952Y-117880000D01*
X227033333Y-117856190D01*
X226914286Y-117856190D01*
X226866667Y-117880000D01*
X226842857Y-117903810D01*
X226819048Y-117951429D01*
X226819048Y-117999048D01*
X226842857Y-118070476D01*
X227128571Y-118356190D01*
X226819048Y-118356190D01*
X228378571Y-121878572D02*
X228402381Y-121854762D01*
X228426190Y-121783334D01*
X228426190Y-121735715D01*
X228402381Y-121664286D01*
X228354762Y-121616667D01*
X228307143Y-121592858D01*
X228211905Y-121569048D01*
X228140476Y-121569048D01*
X228045238Y-121592858D01*
X227997619Y-121616667D01*
X227950000Y-121664286D01*
X227926190Y-121735715D01*
X227926190Y-121783334D01*
X227950000Y-121854762D01*
X227973810Y-121878572D01*
X227926190Y-122045239D02*
X227926190Y-122378572D01*
X228426190Y-122164286D01*
X228426190Y-122830952D02*
X228426190Y-122545238D01*
X228426190Y-122688095D02*
X227926190Y-122688095D01*
X227997619Y-122640476D01*
X228045238Y-122592857D01*
X228069048Y-122545238D01*
X215428571Y-116628572D02*
X215452381Y-116604762D01*
X215476190Y-116533334D01*
X215476190Y-116485715D01*
X215452381Y-116414286D01*
X215404762Y-116366667D01*
X215357143Y-116342858D01*
X215261905Y-116319048D01*
X215190476Y-116319048D01*
X215095238Y-116342858D01*
X215047619Y-116366667D01*
X215000000Y-116414286D01*
X214976190Y-116485715D01*
X214976190Y-116533334D01*
X215000000Y-116604762D01*
X215023810Y-116628572D01*
X215476190Y-116866667D02*
X215476190Y-116961905D01*
X215452381Y-117009524D01*
X215428571Y-117033334D01*
X215357143Y-117080953D01*
X215261905Y-117104762D01*
X215071429Y-117104762D01*
X215023810Y-117080953D01*
X215000000Y-117057143D01*
X214976190Y-117009524D01*
X214976190Y-116914286D01*
X215000000Y-116866667D01*
X215023810Y-116842858D01*
X215071429Y-116819048D01*
X215190476Y-116819048D01*
X215238095Y-116842858D01*
X215261905Y-116866667D01*
X215285714Y-116914286D01*
X215285714Y-117009524D01*
X215261905Y-117057143D01*
X215238095Y-117080953D01*
X215190476Y-117104762D01*
X214976190Y-117271429D02*
X214976190Y-117580952D01*
X215166667Y-117414286D01*
X215166667Y-117485714D01*
X215190476Y-117533333D01*
X215214286Y-117557143D01*
X215261905Y-117580952D01*
X215380952Y-117580952D01*
X215428571Y-117557143D01*
X215452381Y-117533333D01*
X215476190Y-117485714D01*
X215476190Y-117342857D01*
X215452381Y-117295238D01*
X215428571Y-117271429D01*
X233821428Y-129628571D02*
X233845238Y-129652381D01*
X233916666Y-129676190D01*
X233964285Y-129676190D01*
X234035714Y-129652381D01*
X234083333Y-129604762D01*
X234107142Y-129557143D01*
X234130952Y-129461905D01*
X234130952Y-129390476D01*
X234107142Y-129295238D01*
X234083333Y-129247619D01*
X234035714Y-129200000D01*
X233964285Y-129176190D01*
X233916666Y-129176190D01*
X233845238Y-129200000D01*
X233821428Y-129223810D01*
X233583333Y-129676190D02*
X233488095Y-129676190D01*
X233440476Y-129652381D01*
X233416666Y-129628571D01*
X233369047Y-129557143D01*
X233345238Y-129461905D01*
X233345238Y-129271429D01*
X233369047Y-129223810D01*
X233392857Y-129200000D01*
X233440476Y-129176190D01*
X233535714Y-129176190D01*
X233583333Y-129200000D01*
X233607142Y-129223810D01*
X233630952Y-129271429D01*
X233630952Y-129390476D01*
X233607142Y-129438095D01*
X233583333Y-129461905D01*
X233535714Y-129485714D01*
X233440476Y-129485714D01*
X233392857Y-129461905D01*
X233369047Y-129438095D01*
X233345238Y-129390476D01*
X233154762Y-129223810D02*
X233130952Y-129200000D01*
X233083333Y-129176190D01*
X232964286Y-129176190D01*
X232916667Y-129200000D01*
X232892857Y-129223810D01*
X232869048Y-129271429D01*
X232869048Y-129319048D01*
X232892857Y-129390476D01*
X233178571Y-129676190D01*
X232869048Y-129676190D01*
X219221428Y-110678571D02*
X219245238Y-110702381D01*
X219316666Y-110726190D01*
X219364285Y-110726190D01*
X219435714Y-110702381D01*
X219483333Y-110654762D01*
X219507142Y-110607143D01*
X219530952Y-110511905D01*
X219530952Y-110440476D01*
X219507142Y-110345238D01*
X219483333Y-110297619D01*
X219435714Y-110250000D01*
X219364285Y-110226190D01*
X219316666Y-110226190D01*
X219245238Y-110250000D01*
X219221428Y-110273810D01*
X218983333Y-110726190D02*
X218888095Y-110726190D01*
X218840476Y-110702381D01*
X218816666Y-110678571D01*
X218769047Y-110607143D01*
X218745238Y-110511905D01*
X218745238Y-110321429D01*
X218769047Y-110273810D01*
X218792857Y-110250000D01*
X218840476Y-110226190D01*
X218935714Y-110226190D01*
X218983333Y-110250000D01*
X219007142Y-110273810D01*
X219030952Y-110321429D01*
X219030952Y-110440476D01*
X219007142Y-110488095D01*
X218983333Y-110511905D01*
X218935714Y-110535714D01*
X218840476Y-110535714D01*
X218792857Y-110511905D01*
X218769047Y-110488095D01*
X218745238Y-110440476D01*
X218269048Y-110726190D02*
X218554762Y-110726190D01*
X218411905Y-110726190D02*
X218411905Y-110226190D01*
X218459524Y-110297619D01*
X218507143Y-110345238D01*
X218554762Y-110369048D01*
X226098571Y-117078572D02*
X226122381Y-117054762D01*
X226146190Y-116983334D01*
X226146190Y-116935715D01*
X226122381Y-116864286D01*
X226074762Y-116816667D01*
X226027143Y-116792858D01*
X225931905Y-116769048D01*
X225860476Y-116769048D01*
X225765238Y-116792858D01*
X225717619Y-116816667D01*
X225670000Y-116864286D01*
X225646190Y-116935715D01*
X225646190Y-116983334D01*
X225670000Y-117054762D01*
X225693810Y-117078572D01*
X226146190Y-117316667D02*
X226146190Y-117411905D01*
X226122381Y-117459524D01*
X226098571Y-117483334D01*
X226027143Y-117530953D01*
X225931905Y-117554762D01*
X225741429Y-117554762D01*
X225693810Y-117530953D01*
X225670000Y-117507143D01*
X225646190Y-117459524D01*
X225646190Y-117364286D01*
X225670000Y-117316667D01*
X225693810Y-117292858D01*
X225741429Y-117269048D01*
X225860476Y-117269048D01*
X225908095Y-117292858D01*
X225931905Y-117316667D01*
X225955714Y-117364286D01*
X225955714Y-117459524D01*
X225931905Y-117507143D01*
X225908095Y-117530953D01*
X225860476Y-117554762D01*
X225646190Y-117864286D02*
X225646190Y-117911905D01*
X225670000Y-117959524D01*
X225693810Y-117983333D01*
X225741429Y-118007143D01*
X225836667Y-118030952D01*
X225955714Y-118030952D01*
X226050952Y-118007143D01*
X226098571Y-117983333D01*
X226122381Y-117959524D01*
X226146190Y-117911905D01*
X226146190Y-117864286D01*
X226122381Y-117816667D01*
X226098571Y-117792857D01*
X226050952Y-117769048D01*
X225955714Y-117745238D01*
X225836667Y-117745238D01*
X225741429Y-117769048D01*
X225693810Y-117792857D01*
X225670000Y-117816667D01*
X225646190Y-117864286D01*
X225971428Y-126508571D02*
X225995238Y-126532381D01*
X226066666Y-126556190D01*
X226114285Y-126556190D01*
X226185714Y-126532381D01*
X226233333Y-126484762D01*
X226257142Y-126437143D01*
X226280952Y-126341905D01*
X226280952Y-126270476D01*
X226257142Y-126175238D01*
X226233333Y-126127619D01*
X226185714Y-126080000D01*
X226114285Y-126056190D01*
X226066666Y-126056190D01*
X225995238Y-126080000D01*
X225971428Y-126103810D01*
X225542857Y-126056190D02*
X225638095Y-126056190D01*
X225685714Y-126080000D01*
X225709523Y-126103810D01*
X225757142Y-126175238D01*
X225780952Y-126270476D01*
X225780952Y-126460952D01*
X225757142Y-126508571D01*
X225733333Y-126532381D01*
X225685714Y-126556190D01*
X225590476Y-126556190D01*
X225542857Y-126532381D01*
X225519047Y-126508571D01*
X225495238Y-126460952D01*
X225495238Y-126341905D01*
X225519047Y-126294286D01*
X225542857Y-126270476D01*
X225590476Y-126246667D01*
X225685714Y-126246667D01*
X225733333Y-126270476D01*
X225757142Y-126294286D01*
X225780952Y-126341905D01*
X225066667Y-126056190D02*
X225161905Y-126056190D01*
X225209524Y-126080000D01*
X225233333Y-126103810D01*
X225280952Y-126175238D01*
X225304762Y-126270476D01*
X225304762Y-126460952D01*
X225280952Y-126508571D01*
X225257143Y-126532381D01*
X225209524Y-126556190D01*
X225114286Y-126556190D01*
X225066667Y-126532381D01*
X225042857Y-126508571D01*
X225019048Y-126460952D01*
X225019048Y-126341905D01*
X225042857Y-126294286D01*
X225066667Y-126270476D01*
X225114286Y-126246667D01*
X225209524Y-126246667D01*
X225257143Y-126270476D01*
X225280952Y-126294286D01*
X225304762Y-126341905D01*
X196128571Y-139928572D02*
X196152381Y-139904762D01*
X196176190Y-139833334D01*
X196176190Y-139785715D01*
X196152381Y-139714286D01*
X196104762Y-139666667D01*
X196057143Y-139642858D01*
X195961905Y-139619048D01*
X195890476Y-139619048D01*
X195795238Y-139642858D01*
X195747619Y-139666667D01*
X195700000Y-139714286D01*
X195676190Y-139785715D01*
X195676190Y-139833334D01*
X195700000Y-139904762D01*
X195723810Y-139928572D01*
X196176190Y-140404762D02*
X196176190Y-140119048D01*
X196176190Y-140261905D02*
X195676190Y-140261905D01*
X195747619Y-140214286D01*
X195795238Y-140166667D01*
X195819048Y-140119048D01*
X195676190Y-140833333D02*
X195676190Y-140738095D01*
X195700000Y-140690476D01*
X195723810Y-140666667D01*
X195795238Y-140619048D01*
X195890476Y-140595238D01*
X196080952Y-140595238D01*
X196128571Y-140619048D01*
X196152381Y-140642857D01*
X196176190Y-140690476D01*
X196176190Y-140785714D01*
X196152381Y-140833333D01*
X196128571Y-140857143D01*
X196080952Y-140880952D01*
X195961905Y-140880952D01*
X195914286Y-140857143D01*
X195890476Y-140833333D01*
X195866667Y-140785714D01*
X195866667Y-140690476D01*
X195890476Y-140642857D01*
X195914286Y-140619048D01*
X195961905Y-140595238D01*
X182321428Y-124678571D02*
X182345238Y-124702381D01*
X182416666Y-124726190D01*
X182464285Y-124726190D01*
X182535714Y-124702381D01*
X182583333Y-124654762D01*
X182607142Y-124607143D01*
X182630952Y-124511905D01*
X182630952Y-124440476D01*
X182607142Y-124345238D01*
X182583333Y-124297619D01*
X182535714Y-124250000D01*
X182464285Y-124226190D01*
X182416666Y-124226190D01*
X182345238Y-124250000D01*
X182321428Y-124273810D01*
X181845238Y-124726190D02*
X182130952Y-124726190D01*
X181988095Y-124726190D02*
X181988095Y-124226190D01*
X182035714Y-124297619D01*
X182083333Y-124345238D01*
X182130952Y-124369048D01*
X181392857Y-124226190D02*
X181630952Y-124226190D01*
X181654762Y-124464286D01*
X181630952Y-124440476D01*
X181583333Y-124416667D01*
X181464286Y-124416667D01*
X181416667Y-124440476D01*
X181392857Y-124464286D01*
X181369048Y-124511905D01*
X181369048Y-124630952D01*
X181392857Y-124678571D01*
X181416667Y-124702381D01*
X181464286Y-124726190D01*
X181583333Y-124726190D01*
X181630952Y-124702381D01*
X181654762Y-124678571D01*
X186321428Y-126678571D02*
X186345238Y-126702381D01*
X186416666Y-126726190D01*
X186464285Y-126726190D01*
X186535714Y-126702381D01*
X186583333Y-126654762D01*
X186607142Y-126607143D01*
X186630952Y-126511905D01*
X186630952Y-126440476D01*
X186607142Y-126345238D01*
X186583333Y-126297619D01*
X186535714Y-126250000D01*
X186464285Y-126226190D01*
X186416666Y-126226190D01*
X186345238Y-126250000D01*
X186321428Y-126273810D01*
X186130952Y-126273810D02*
X186107142Y-126250000D01*
X186059523Y-126226190D01*
X185940476Y-126226190D01*
X185892857Y-126250000D01*
X185869047Y-126273810D01*
X185845238Y-126321429D01*
X185845238Y-126369048D01*
X185869047Y-126440476D01*
X186154761Y-126726190D01*
X185845238Y-126726190D01*
X185369048Y-126726190D02*
X185654762Y-126726190D01*
X185511905Y-126726190D02*
X185511905Y-126226190D01*
X185559524Y-126297619D01*
X185607143Y-126345238D01*
X185654762Y-126369048D01*
X189228571Y-127528572D02*
X189252381Y-127504762D01*
X189276190Y-127433334D01*
X189276190Y-127385715D01*
X189252381Y-127314286D01*
X189204762Y-127266667D01*
X189157143Y-127242858D01*
X189061905Y-127219048D01*
X188990476Y-127219048D01*
X188895238Y-127242858D01*
X188847619Y-127266667D01*
X188800000Y-127314286D01*
X188776190Y-127385715D01*
X188776190Y-127433334D01*
X188800000Y-127504762D01*
X188823810Y-127528572D01*
X188823810Y-127719048D02*
X188800000Y-127742858D01*
X188776190Y-127790477D01*
X188776190Y-127909524D01*
X188800000Y-127957143D01*
X188823810Y-127980953D01*
X188871429Y-128004762D01*
X188919048Y-128004762D01*
X188990476Y-127980953D01*
X189276190Y-127695239D01*
X189276190Y-128004762D01*
X188776190Y-128314286D02*
X188776190Y-128361905D01*
X188800000Y-128409524D01*
X188823810Y-128433333D01*
X188871429Y-128457143D01*
X188966667Y-128480952D01*
X189085714Y-128480952D01*
X189180952Y-128457143D01*
X189228571Y-128433333D01*
X189252381Y-128409524D01*
X189276190Y-128361905D01*
X189276190Y-128314286D01*
X189252381Y-128266667D01*
X189228571Y-128242857D01*
X189180952Y-128219048D01*
X189085714Y-128195238D01*
X188966667Y-128195238D01*
X188871429Y-128219048D01*
X188823810Y-128242857D01*
X188800000Y-128266667D01*
X188776190Y-128314286D01*
X182678571Y-126178572D02*
X182702381Y-126154762D01*
X182726190Y-126083334D01*
X182726190Y-126035715D01*
X182702381Y-125964286D01*
X182654762Y-125916667D01*
X182607143Y-125892858D01*
X182511905Y-125869048D01*
X182440476Y-125869048D01*
X182345238Y-125892858D01*
X182297619Y-125916667D01*
X182250000Y-125964286D01*
X182226190Y-126035715D01*
X182226190Y-126083334D01*
X182250000Y-126154762D01*
X182273810Y-126178572D01*
X182726190Y-126654762D02*
X182726190Y-126369048D01*
X182726190Y-126511905D02*
X182226190Y-126511905D01*
X182297619Y-126464286D01*
X182345238Y-126416667D01*
X182369048Y-126369048D01*
X182726190Y-126892857D02*
X182726190Y-126988095D01*
X182702381Y-127035714D01*
X182678571Y-127059524D01*
X182607143Y-127107143D01*
X182511905Y-127130952D01*
X182321429Y-127130952D01*
X182273810Y-127107143D01*
X182250000Y-127083333D01*
X182226190Y-127035714D01*
X182226190Y-126940476D01*
X182250000Y-126892857D01*
X182273810Y-126869048D01*
X182321429Y-126845238D01*
X182440476Y-126845238D01*
X182488095Y-126869048D01*
X182511905Y-126892857D01*
X182535714Y-126940476D01*
X182535714Y-127035714D01*
X182511905Y-127083333D01*
X182488095Y-127107143D01*
X182440476Y-127130952D01*
X193928571Y-131478572D02*
X193952381Y-131454762D01*
X193976190Y-131383334D01*
X193976190Y-131335715D01*
X193952381Y-131264286D01*
X193904762Y-131216667D01*
X193857143Y-131192858D01*
X193761905Y-131169048D01*
X193690476Y-131169048D01*
X193595238Y-131192858D01*
X193547619Y-131216667D01*
X193500000Y-131264286D01*
X193476190Y-131335715D01*
X193476190Y-131383334D01*
X193500000Y-131454762D01*
X193523810Y-131478572D01*
X193976190Y-131954762D02*
X193976190Y-131669048D01*
X193976190Y-131811905D02*
X193476190Y-131811905D01*
X193547619Y-131764286D01*
X193595238Y-131716667D01*
X193619048Y-131669048D01*
X193976190Y-132430952D02*
X193976190Y-132145238D01*
X193976190Y-132288095D02*
X193476190Y-132288095D01*
X193547619Y-132240476D01*
X193595238Y-132192857D01*
X193619048Y-132145238D01*
X186371428Y-120978571D02*
X186395238Y-121002381D01*
X186466666Y-121026190D01*
X186514285Y-121026190D01*
X186585714Y-121002381D01*
X186633333Y-120954762D01*
X186657142Y-120907143D01*
X186680952Y-120811905D01*
X186680952Y-120740476D01*
X186657142Y-120645238D01*
X186633333Y-120597619D01*
X186585714Y-120550000D01*
X186514285Y-120526190D01*
X186466666Y-120526190D01*
X186395238Y-120550000D01*
X186371428Y-120573810D01*
X185895238Y-121026190D02*
X186180952Y-121026190D01*
X186038095Y-121026190D02*
X186038095Y-120526190D01*
X186085714Y-120597619D01*
X186133333Y-120645238D01*
X186180952Y-120669048D01*
X185609524Y-120740476D02*
X185657143Y-120716667D01*
X185680952Y-120692857D01*
X185704762Y-120645238D01*
X185704762Y-120621429D01*
X185680952Y-120573810D01*
X185657143Y-120550000D01*
X185609524Y-120526190D01*
X185514286Y-120526190D01*
X185466667Y-120550000D01*
X185442857Y-120573810D01*
X185419048Y-120621429D01*
X185419048Y-120645238D01*
X185442857Y-120692857D01*
X185466667Y-120716667D01*
X185514286Y-120740476D01*
X185609524Y-120740476D01*
X185657143Y-120764286D01*
X185680952Y-120788095D01*
X185704762Y-120835714D01*
X185704762Y-120930952D01*
X185680952Y-120978571D01*
X185657143Y-121002381D01*
X185609524Y-121026190D01*
X185514286Y-121026190D01*
X185466667Y-121002381D01*
X185442857Y-120978571D01*
X185419048Y-120930952D01*
X185419048Y-120835714D01*
X185442857Y-120788095D01*
X185466667Y-120764286D01*
X185514286Y-120740476D01*
X190728571Y-127878572D02*
X190752381Y-127854762D01*
X190776190Y-127783334D01*
X190776190Y-127735715D01*
X190752381Y-127664286D01*
X190704762Y-127616667D01*
X190657143Y-127592858D01*
X190561905Y-127569048D01*
X190490476Y-127569048D01*
X190395238Y-127592858D01*
X190347619Y-127616667D01*
X190300000Y-127664286D01*
X190276190Y-127735715D01*
X190276190Y-127783334D01*
X190300000Y-127854762D01*
X190323810Y-127878572D01*
X190776190Y-128354762D02*
X190776190Y-128069048D01*
X190776190Y-128211905D02*
X190276190Y-128211905D01*
X190347619Y-128164286D01*
X190395238Y-128116667D01*
X190419048Y-128069048D01*
X190276190Y-128664286D02*
X190276190Y-128711905D01*
X190300000Y-128759524D01*
X190323810Y-128783333D01*
X190371429Y-128807143D01*
X190466667Y-128830952D01*
X190585714Y-128830952D01*
X190680952Y-128807143D01*
X190728571Y-128783333D01*
X190752381Y-128759524D01*
X190776190Y-128711905D01*
X190776190Y-128664286D01*
X190752381Y-128616667D01*
X190728571Y-128592857D01*
X190680952Y-128569048D01*
X190585714Y-128545238D01*
X190466667Y-128545238D01*
X190371429Y-128569048D01*
X190323810Y-128592857D01*
X190300000Y-128616667D01*
X190276190Y-128664286D01*
X184228571Y-129528572D02*
X184252381Y-129504762D01*
X184276190Y-129433334D01*
X184276190Y-129385715D01*
X184252381Y-129314286D01*
X184204762Y-129266667D01*
X184157143Y-129242858D01*
X184061905Y-129219048D01*
X183990476Y-129219048D01*
X183895238Y-129242858D01*
X183847619Y-129266667D01*
X183800000Y-129314286D01*
X183776190Y-129385715D01*
X183776190Y-129433334D01*
X183800000Y-129504762D01*
X183823810Y-129528572D01*
X184276190Y-130004762D02*
X184276190Y-129719048D01*
X184276190Y-129861905D02*
X183776190Y-129861905D01*
X183847619Y-129814286D01*
X183895238Y-129766667D01*
X183919048Y-129719048D01*
X183776190Y-130171429D02*
X183776190Y-130504762D01*
X184276190Y-130290476D01*
X176633333Y-134478571D02*
X176657143Y-134502381D01*
X176728571Y-134526190D01*
X176776190Y-134526190D01*
X176847619Y-134502381D01*
X176895238Y-134454762D01*
X176919047Y-134407143D01*
X176942857Y-134311905D01*
X176942857Y-134240476D01*
X176919047Y-134145238D01*
X176895238Y-134097619D01*
X176847619Y-134050000D01*
X176776190Y-134026190D01*
X176728571Y-134026190D01*
X176657143Y-134050000D01*
X176633333Y-134073810D01*
X176395238Y-134526190D02*
X176300000Y-134526190D01*
X176252381Y-134502381D01*
X176228571Y-134478571D01*
X176180952Y-134407143D01*
X176157143Y-134311905D01*
X176157143Y-134121429D01*
X176180952Y-134073810D01*
X176204762Y-134050000D01*
X176252381Y-134026190D01*
X176347619Y-134026190D01*
X176395238Y-134050000D01*
X176419047Y-134073810D01*
X176442857Y-134121429D01*
X176442857Y-134240476D01*
X176419047Y-134288095D01*
X176395238Y-134311905D01*
X176347619Y-134335714D01*
X176252381Y-134335714D01*
X176204762Y-134311905D01*
X176180952Y-134288095D01*
X176157143Y-134240476D01*
X191228571Y-129766667D02*
X191252381Y-129742857D01*
X191276190Y-129671429D01*
X191276190Y-129623810D01*
X191252381Y-129552381D01*
X191204762Y-129504762D01*
X191157143Y-129480953D01*
X191061905Y-129457143D01*
X190990476Y-129457143D01*
X190895238Y-129480953D01*
X190847619Y-129504762D01*
X190800000Y-129552381D01*
X190776190Y-129623810D01*
X190776190Y-129671429D01*
X190800000Y-129742857D01*
X190823810Y-129766667D01*
X190990476Y-130052381D02*
X190966667Y-130004762D01*
X190942857Y-129980953D01*
X190895238Y-129957143D01*
X190871429Y-129957143D01*
X190823810Y-129980953D01*
X190800000Y-130004762D01*
X190776190Y-130052381D01*
X190776190Y-130147619D01*
X190800000Y-130195238D01*
X190823810Y-130219048D01*
X190871429Y-130242857D01*
X190895238Y-130242857D01*
X190942857Y-130219048D01*
X190966667Y-130195238D01*
X190990476Y-130147619D01*
X190990476Y-130052381D01*
X191014286Y-130004762D01*
X191038095Y-129980953D01*
X191085714Y-129957143D01*
X191180952Y-129957143D01*
X191228571Y-129980953D01*
X191252381Y-130004762D01*
X191276190Y-130052381D01*
X191276190Y-130147619D01*
X191252381Y-130195238D01*
X191228571Y-130219048D01*
X191180952Y-130242857D01*
X191085714Y-130242857D01*
X191038095Y-130219048D01*
X191014286Y-130195238D01*
X190990476Y-130147619D01*
X183228571Y-132766667D02*
X183252381Y-132742857D01*
X183276190Y-132671429D01*
X183276190Y-132623810D01*
X183252381Y-132552381D01*
X183204762Y-132504762D01*
X183157143Y-132480953D01*
X183061905Y-132457143D01*
X182990476Y-132457143D01*
X182895238Y-132480953D01*
X182847619Y-132504762D01*
X182800000Y-132552381D01*
X182776190Y-132623810D01*
X182776190Y-132671429D01*
X182800000Y-132742857D01*
X182823810Y-132766667D01*
X182776190Y-132933334D02*
X182776190Y-133266667D01*
X183276190Y-133052381D01*
X189133333Y-133428571D02*
X189157143Y-133452381D01*
X189228571Y-133476190D01*
X189276190Y-133476190D01*
X189347619Y-133452381D01*
X189395238Y-133404762D01*
X189419047Y-133357143D01*
X189442857Y-133261905D01*
X189442857Y-133190476D01*
X189419047Y-133095238D01*
X189395238Y-133047619D01*
X189347619Y-133000000D01*
X189276190Y-132976190D01*
X189228571Y-132976190D01*
X189157143Y-133000000D01*
X189133333Y-133023810D01*
X188704762Y-132976190D02*
X188800000Y-132976190D01*
X188847619Y-133000000D01*
X188871428Y-133023810D01*
X188919047Y-133095238D01*
X188942857Y-133190476D01*
X188942857Y-133380952D01*
X188919047Y-133428571D01*
X188895238Y-133452381D01*
X188847619Y-133476190D01*
X188752381Y-133476190D01*
X188704762Y-133452381D01*
X188680952Y-133428571D01*
X188657143Y-133380952D01*
X188657143Y-133261905D01*
X188680952Y-133214286D01*
X188704762Y-133190476D01*
X188752381Y-133166667D01*
X188847619Y-133166667D01*
X188895238Y-133190476D01*
X188919047Y-133214286D01*
X188942857Y-133261905D01*
X188678571Y-131766667D02*
X188702381Y-131742857D01*
X188726190Y-131671429D01*
X188726190Y-131623810D01*
X188702381Y-131552381D01*
X188654762Y-131504762D01*
X188607143Y-131480953D01*
X188511905Y-131457143D01*
X188440476Y-131457143D01*
X188345238Y-131480953D01*
X188297619Y-131504762D01*
X188250000Y-131552381D01*
X188226190Y-131623810D01*
X188226190Y-131671429D01*
X188250000Y-131742857D01*
X188273810Y-131766667D01*
X188226190Y-132219048D02*
X188226190Y-131980953D01*
X188464286Y-131957143D01*
X188440476Y-131980953D01*
X188416667Y-132028572D01*
X188416667Y-132147619D01*
X188440476Y-132195238D01*
X188464286Y-132219048D01*
X188511905Y-132242857D01*
X188630952Y-132242857D01*
X188678571Y-132219048D01*
X188702381Y-132195238D01*
X188726190Y-132147619D01*
X188726190Y-132028572D01*
X188702381Y-131980953D01*
X188678571Y-131957143D01*
X178133333Y-137578571D02*
X178157143Y-137602381D01*
X178228571Y-137626190D01*
X178276190Y-137626190D01*
X178347619Y-137602381D01*
X178395238Y-137554762D01*
X178419047Y-137507143D01*
X178442857Y-137411905D01*
X178442857Y-137340476D01*
X178419047Y-137245238D01*
X178395238Y-137197619D01*
X178347619Y-137150000D01*
X178276190Y-137126190D01*
X178228571Y-137126190D01*
X178157143Y-137150000D01*
X178133333Y-137173810D01*
X177942857Y-137173810D02*
X177919047Y-137150000D01*
X177871428Y-137126190D01*
X177752381Y-137126190D01*
X177704762Y-137150000D01*
X177680952Y-137173810D01*
X177657143Y-137221429D01*
X177657143Y-137269048D01*
X177680952Y-137340476D01*
X177966666Y-137626190D01*
X177657143Y-137626190D01*
X187978571Y-138766667D02*
X188002381Y-138742857D01*
X188026190Y-138671429D01*
X188026190Y-138623810D01*
X188002381Y-138552381D01*
X187954762Y-138504762D01*
X187907143Y-138480953D01*
X187811905Y-138457143D01*
X187740476Y-138457143D01*
X187645238Y-138480953D01*
X187597619Y-138504762D01*
X187550000Y-138552381D01*
X187526190Y-138623810D01*
X187526190Y-138671429D01*
X187550000Y-138742857D01*
X187573810Y-138766667D01*
X188026190Y-139242857D02*
X188026190Y-138957143D01*
X188026190Y-139100000D02*
X187526190Y-139100000D01*
X187597619Y-139052381D01*
X187645238Y-139004762D01*
X187669048Y-138957143D01*
X218821428Y-128578571D02*
X218845238Y-128602381D01*
X218916666Y-128626190D01*
X218964285Y-128626190D01*
X219035714Y-128602381D01*
X219083333Y-128554762D01*
X219107142Y-128507143D01*
X219130952Y-128411905D01*
X219130952Y-128340476D01*
X219107142Y-128245238D01*
X219083333Y-128197619D01*
X219035714Y-128150000D01*
X218964285Y-128126190D01*
X218916666Y-128126190D01*
X218845238Y-128150000D01*
X218821428Y-128173810D01*
X218583333Y-128626190D02*
X218488095Y-128626190D01*
X218440476Y-128602381D01*
X218416666Y-128578571D01*
X218369047Y-128507143D01*
X218345238Y-128411905D01*
X218345238Y-128221429D01*
X218369047Y-128173810D01*
X218392857Y-128150000D01*
X218440476Y-128126190D01*
X218535714Y-128126190D01*
X218583333Y-128150000D01*
X218607142Y-128173810D01*
X218630952Y-128221429D01*
X218630952Y-128340476D01*
X218607142Y-128388095D01*
X218583333Y-128411905D01*
X218535714Y-128435714D01*
X218440476Y-128435714D01*
X218392857Y-128411905D01*
X218369047Y-128388095D01*
X218345238Y-128340476D01*
X217892857Y-128126190D02*
X218130952Y-128126190D01*
X218154762Y-128364286D01*
X218130952Y-128340476D01*
X218083333Y-128316667D01*
X217964286Y-128316667D01*
X217916667Y-128340476D01*
X217892857Y-128364286D01*
X217869048Y-128411905D01*
X217869048Y-128530952D01*
X217892857Y-128578571D01*
X217916667Y-128602381D01*
X217964286Y-128626190D01*
X218083333Y-128626190D01*
X218130952Y-128602381D01*
X218154762Y-128578571D01*
X215621428Y-110678571D02*
X215645238Y-110702381D01*
X215716666Y-110726190D01*
X215764285Y-110726190D01*
X215835714Y-110702381D01*
X215883333Y-110654762D01*
X215907142Y-110607143D01*
X215930952Y-110511905D01*
X215930952Y-110440476D01*
X215907142Y-110345238D01*
X215883333Y-110297619D01*
X215835714Y-110250000D01*
X215764285Y-110226190D01*
X215716666Y-110226190D01*
X215645238Y-110250000D01*
X215621428Y-110273810D01*
X215383333Y-110726190D02*
X215288095Y-110726190D01*
X215240476Y-110702381D01*
X215216666Y-110678571D01*
X215169047Y-110607143D01*
X215145238Y-110511905D01*
X215145238Y-110321429D01*
X215169047Y-110273810D01*
X215192857Y-110250000D01*
X215240476Y-110226190D01*
X215335714Y-110226190D01*
X215383333Y-110250000D01*
X215407142Y-110273810D01*
X215430952Y-110321429D01*
X215430952Y-110440476D01*
X215407142Y-110488095D01*
X215383333Y-110511905D01*
X215335714Y-110535714D01*
X215240476Y-110535714D01*
X215192857Y-110511905D01*
X215169047Y-110488095D01*
X215145238Y-110440476D01*
X214716667Y-110392857D02*
X214716667Y-110726190D01*
X214835714Y-110202381D02*
X214954762Y-110559524D01*
X214645238Y-110559524D01*
X174021428Y-134378571D02*
X174045238Y-134402381D01*
X174116666Y-134426190D01*
X174164285Y-134426190D01*
X174235714Y-134402381D01*
X174283333Y-134354762D01*
X174307142Y-134307143D01*
X174330952Y-134211905D01*
X174330952Y-134140476D01*
X174307142Y-134045238D01*
X174283333Y-133997619D01*
X174235714Y-133950000D01*
X174164285Y-133926190D01*
X174116666Y-133926190D01*
X174045238Y-133950000D01*
X174021428Y-133973810D01*
X173545238Y-134426190D02*
X173830952Y-134426190D01*
X173688095Y-134426190D02*
X173688095Y-133926190D01*
X173735714Y-133997619D01*
X173783333Y-134045238D01*
X173830952Y-134069048D01*
X173116667Y-134092857D02*
X173116667Y-134426190D01*
X173235714Y-133902381D02*
X173354762Y-134259524D01*
X173045238Y-134259524D01*
X144928571Y-113221910D02*
X144952381Y-113198100D01*
X144976190Y-113126672D01*
X144976190Y-113079053D01*
X144952381Y-113007624D01*
X144904762Y-112960005D01*
X144857143Y-112936196D01*
X144761905Y-112912386D01*
X144690476Y-112912386D01*
X144595238Y-112936196D01*
X144547619Y-112960005D01*
X144500000Y-113007624D01*
X144476190Y-113079053D01*
X144476190Y-113126672D01*
X144500000Y-113198100D01*
X144523810Y-113221910D01*
X144642857Y-113650481D02*
X144976190Y-113650481D01*
X144452381Y-113531434D02*
X144809524Y-113412386D01*
X144809524Y-113721910D01*
X144476190Y-114150481D02*
X144476190Y-113912386D01*
X144714286Y-113888576D01*
X144690476Y-113912386D01*
X144666667Y-113960005D01*
X144666667Y-114079052D01*
X144690476Y-114126671D01*
X144714286Y-114150481D01*
X144761905Y-114174290D01*
X144880952Y-114174290D01*
X144928571Y-114150481D01*
X144952381Y-114126671D01*
X144976190Y-114079052D01*
X144976190Y-113960005D01*
X144952381Y-113912386D01*
X144928571Y-113888576D01*
X138628571Y-123578572D02*
X138652381Y-123554762D01*
X138676190Y-123483334D01*
X138676190Y-123435715D01*
X138652381Y-123364286D01*
X138604762Y-123316667D01*
X138557143Y-123292858D01*
X138461905Y-123269048D01*
X138390476Y-123269048D01*
X138295238Y-123292858D01*
X138247619Y-123316667D01*
X138200000Y-123364286D01*
X138176190Y-123435715D01*
X138176190Y-123483334D01*
X138200000Y-123554762D01*
X138223810Y-123578572D01*
X138176190Y-124030953D02*
X138176190Y-123792858D01*
X138414286Y-123769048D01*
X138390476Y-123792858D01*
X138366667Y-123840477D01*
X138366667Y-123959524D01*
X138390476Y-124007143D01*
X138414286Y-124030953D01*
X138461905Y-124054762D01*
X138580952Y-124054762D01*
X138628571Y-124030953D01*
X138652381Y-124007143D01*
X138676190Y-123959524D01*
X138676190Y-123840477D01*
X138652381Y-123792858D01*
X138628571Y-123769048D01*
X138342857Y-124483333D02*
X138676190Y-124483333D01*
X138152381Y-124364286D02*
X138509524Y-124245238D01*
X138509524Y-124554762D01*
X138978571Y-128778572D02*
X139002381Y-128754762D01*
X139026190Y-128683334D01*
X139026190Y-128635715D01*
X139002381Y-128564286D01*
X138954762Y-128516667D01*
X138907143Y-128492858D01*
X138811905Y-128469048D01*
X138740476Y-128469048D01*
X138645238Y-128492858D01*
X138597619Y-128516667D01*
X138550000Y-128564286D01*
X138526190Y-128635715D01*
X138526190Y-128683334D01*
X138550000Y-128754762D01*
X138573810Y-128778572D01*
X138526190Y-129230953D02*
X138526190Y-128992858D01*
X138764286Y-128969048D01*
X138740476Y-128992858D01*
X138716667Y-129040477D01*
X138716667Y-129159524D01*
X138740476Y-129207143D01*
X138764286Y-129230953D01*
X138811905Y-129254762D01*
X138930952Y-129254762D01*
X138978571Y-129230953D01*
X139002381Y-129207143D01*
X139026190Y-129159524D01*
X139026190Y-129040477D01*
X139002381Y-128992858D01*
X138978571Y-128969048D01*
X138526190Y-129421429D02*
X138526190Y-129730952D01*
X138716667Y-129564286D01*
X138716667Y-129635714D01*
X138740476Y-129683333D01*
X138764286Y-129707143D01*
X138811905Y-129730952D01*
X138930952Y-129730952D01*
X138978571Y-129707143D01*
X139002381Y-129683333D01*
X139026190Y-129635714D01*
X139026190Y-129492857D01*
X139002381Y-129445238D01*
X138978571Y-129421429D01*
X141871428Y-126428571D02*
X141895238Y-126452381D01*
X141966666Y-126476190D01*
X142014285Y-126476190D01*
X142085714Y-126452381D01*
X142133333Y-126404762D01*
X142157142Y-126357143D01*
X142180952Y-126261905D01*
X142180952Y-126190476D01*
X142157142Y-126095238D01*
X142133333Y-126047619D01*
X142085714Y-126000000D01*
X142014285Y-125976190D01*
X141966666Y-125976190D01*
X141895238Y-126000000D01*
X141871428Y-126023810D01*
X141442857Y-126142857D02*
X141442857Y-126476190D01*
X141561904Y-125952381D02*
X141680952Y-126309524D01*
X141371428Y-126309524D01*
X140966667Y-125976190D02*
X141061905Y-125976190D01*
X141109524Y-126000000D01*
X141133333Y-126023810D01*
X141180952Y-126095238D01*
X141204762Y-126190476D01*
X141204762Y-126380952D01*
X141180952Y-126428571D01*
X141157143Y-126452381D01*
X141109524Y-126476190D01*
X141014286Y-126476190D01*
X140966667Y-126452381D01*
X140942857Y-126428571D01*
X140919048Y-126380952D01*
X140919048Y-126261905D01*
X140942857Y-126214286D01*
X140966667Y-126190476D01*
X141014286Y-126166667D01*
X141109524Y-126166667D01*
X141157143Y-126190476D01*
X141180952Y-126214286D01*
X141204762Y-126261905D01*
X182178571Y-106528572D02*
X182202381Y-106504762D01*
X182226190Y-106433334D01*
X182226190Y-106385715D01*
X182202381Y-106314286D01*
X182154762Y-106266667D01*
X182107143Y-106242858D01*
X182011905Y-106219048D01*
X181940476Y-106219048D01*
X181845238Y-106242858D01*
X181797619Y-106266667D01*
X181750000Y-106314286D01*
X181726190Y-106385715D01*
X181726190Y-106433334D01*
X181750000Y-106504762D01*
X181773810Y-106528572D01*
X181773810Y-106719048D02*
X181750000Y-106742858D01*
X181726190Y-106790477D01*
X181726190Y-106909524D01*
X181750000Y-106957143D01*
X181773810Y-106980953D01*
X181821429Y-107004762D01*
X181869048Y-107004762D01*
X181940476Y-106980953D01*
X182226190Y-106695239D01*
X182226190Y-107004762D01*
X181726190Y-107457143D02*
X181726190Y-107219048D01*
X181964286Y-107195238D01*
X181940476Y-107219048D01*
X181916667Y-107266667D01*
X181916667Y-107385714D01*
X181940476Y-107433333D01*
X181964286Y-107457143D01*
X182011905Y-107480952D01*
X182130952Y-107480952D01*
X182178571Y-107457143D01*
X182202381Y-107433333D01*
X182226190Y-107385714D01*
X182226190Y-107266667D01*
X182202381Y-107219048D01*
X182178571Y-107195238D01*
X141430952Y-112976190D02*
X141430952Y-113380952D01*
X141407143Y-113428571D01*
X141383333Y-113452381D01*
X141335714Y-113476190D01*
X141240476Y-113476190D01*
X141192857Y-113452381D01*
X141169048Y-113428571D01*
X141145238Y-113380952D01*
X141145238Y-112976190D01*
X140930952Y-113023810D02*
X140907142Y-113000000D01*
X140859523Y-112976190D01*
X140740476Y-112976190D01*
X140692857Y-113000000D01*
X140669047Y-113023810D01*
X140645238Y-113071429D01*
X140645238Y-113119048D01*
X140669047Y-113190476D01*
X140954761Y-113476190D01*
X140645238Y-113476190D01*
X138928571Y-143653572D02*
X138952381Y-143629762D01*
X138976190Y-143558334D01*
X138976190Y-143510715D01*
X138952381Y-143439286D01*
X138904762Y-143391667D01*
X138857143Y-143367858D01*
X138761905Y-143344048D01*
X138690476Y-143344048D01*
X138595238Y-143367858D01*
X138547619Y-143391667D01*
X138500000Y-143439286D01*
X138476190Y-143510715D01*
X138476190Y-143558334D01*
X138500000Y-143629762D01*
X138523810Y-143653572D01*
X138476190Y-143820239D02*
X138476190Y-144129762D01*
X138666667Y-143963096D01*
X138666667Y-144034524D01*
X138690476Y-144082143D01*
X138714286Y-144105953D01*
X138761905Y-144129762D01*
X138880952Y-144129762D01*
X138928571Y-144105953D01*
X138952381Y-144082143D01*
X138976190Y-144034524D01*
X138976190Y-143891667D01*
X138952381Y-143844048D01*
X138928571Y-143820239D01*
X138476190Y-144439286D02*
X138476190Y-144486905D01*
X138500000Y-144534524D01*
X138523810Y-144558333D01*
X138571429Y-144582143D01*
X138666667Y-144605952D01*
X138785714Y-144605952D01*
X138880952Y-144582143D01*
X138928571Y-144558333D01*
X138952381Y-144534524D01*
X138976190Y-144486905D01*
X138976190Y-144439286D01*
X138952381Y-144391667D01*
X138928571Y-144367857D01*
X138880952Y-144344048D01*
X138785714Y-144320238D01*
X138666667Y-144320238D01*
X138571429Y-144344048D01*
X138523810Y-144367857D01*
X138500000Y-144391667D01*
X138476190Y-144439286D01*
X236671428Y-132076190D02*
X236838095Y-131838095D01*
X236957142Y-132076190D02*
X236957142Y-131576190D01*
X236766666Y-131576190D01*
X236719047Y-131600000D01*
X236695238Y-131623810D01*
X236671428Y-131671429D01*
X236671428Y-131742857D01*
X236695238Y-131790476D01*
X236719047Y-131814286D01*
X236766666Y-131838095D01*
X236957142Y-131838095D01*
X236242857Y-131576190D02*
X236338095Y-131576190D01*
X236385714Y-131600000D01*
X236409523Y-131623810D01*
X236457142Y-131695238D01*
X236480952Y-131790476D01*
X236480952Y-131980952D01*
X236457142Y-132028571D01*
X236433333Y-132052381D01*
X236385714Y-132076190D01*
X236290476Y-132076190D01*
X236242857Y-132052381D01*
X236219047Y-132028571D01*
X236195238Y-131980952D01*
X236195238Y-131861905D01*
X236219047Y-131814286D01*
X236242857Y-131790476D01*
X236290476Y-131766667D01*
X236385714Y-131766667D01*
X236433333Y-131790476D01*
X236457142Y-131814286D01*
X236480952Y-131861905D01*
X235766667Y-131576190D02*
X235861905Y-131576190D01*
X235909524Y-131600000D01*
X235933333Y-131623810D01*
X235980952Y-131695238D01*
X236004762Y-131790476D01*
X236004762Y-131980952D01*
X235980952Y-132028571D01*
X235957143Y-132052381D01*
X235909524Y-132076190D01*
X235814286Y-132076190D01*
X235766667Y-132052381D01*
X235742857Y-132028571D01*
X235719048Y-131980952D01*
X235719048Y-131861905D01*
X235742857Y-131814286D01*
X235766667Y-131790476D01*
X235814286Y-131766667D01*
X235909524Y-131766667D01*
X235957143Y-131790476D01*
X235980952Y-131814286D01*
X236004762Y-131861905D01*
X229147619Y-145023810D02*
X229195238Y-145000000D01*
X229242857Y-144952381D01*
X229314286Y-144880952D01*
X229361905Y-144857143D01*
X229409524Y-144857143D01*
X229385714Y-144976190D02*
X229433333Y-144952381D01*
X229480952Y-144904762D01*
X229504762Y-144809524D01*
X229504762Y-144642857D01*
X229480952Y-144547619D01*
X229433333Y-144500000D01*
X229385714Y-144476190D01*
X229290476Y-144476190D01*
X229242857Y-144500000D01*
X229195238Y-144547619D01*
X229171429Y-144642857D01*
X229171429Y-144809524D01*
X229195238Y-144904762D01*
X229242857Y-144952381D01*
X229290476Y-144976190D01*
X229385714Y-144976190D01*
X228933333Y-144976190D02*
X228838095Y-144976190D01*
X228790476Y-144952381D01*
X228766666Y-144928571D01*
X228719047Y-144857143D01*
X228695238Y-144761905D01*
X228695238Y-144571429D01*
X228719047Y-144523810D01*
X228742857Y-144500000D01*
X228790476Y-144476190D01*
X228885714Y-144476190D01*
X228933333Y-144500000D01*
X228957142Y-144523810D01*
X228980952Y-144571429D01*
X228980952Y-144690476D01*
X228957142Y-144738095D01*
X228933333Y-144761905D01*
X228885714Y-144785714D01*
X228790476Y-144785714D01*
X228742857Y-144761905D01*
X228719047Y-144738095D01*
X228695238Y-144690476D01*
X149726190Y-129878572D02*
X149488095Y-129711905D01*
X149726190Y-129592858D02*
X149226190Y-129592858D01*
X149226190Y-129783334D01*
X149250000Y-129830953D01*
X149273810Y-129854762D01*
X149321429Y-129878572D01*
X149392857Y-129878572D01*
X149440476Y-129854762D01*
X149464286Y-129830953D01*
X149488095Y-129783334D01*
X149488095Y-129592858D01*
X149392857Y-130307143D02*
X149726190Y-130307143D01*
X149202381Y-130188096D02*
X149559524Y-130069048D01*
X149559524Y-130378572D01*
X149226190Y-130783333D02*
X149226190Y-130688095D01*
X149250000Y-130640476D01*
X149273810Y-130616667D01*
X149345238Y-130569048D01*
X149440476Y-130545238D01*
X149630952Y-130545238D01*
X149678571Y-130569048D01*
X149702381Y-130592857D01*
X149726190Y-130640476D01*
X149726190Y-130735714D01*
X149702381Y-130783333D01*
X149678571Y-130807143D01*
X149630952Y-130830952D01*
X149511905Y-130830952D01*
X149464286Y-130807143D01*
X149440476Y-130783333D01*
X149416667Y-130735714D01*
X149416667Y-130640476D01*
X149440476Y-130592857D01*
X149464286Y-130569048D01*
X149511905Y-130545238D01*
X144476190Y-124978572D02*
X144238095Y-124811905D01*
X144476190Y-124692858D02*
X143976190Y-124692858D01*
X143976190Y-124883334D01*
X144000000Y-124930953D01*
X144023810Y-124954762D01*
X144071429Y-124978572D01*
X144142857Y-124978572D01*
X144190476Y-124954762D01*
X144214286Y-124930953D01*
X144238095Y-124883334D01*
X144238095Y-124692858D01*
X144142857Y-125407143D02*
X144476190Y-125407143D01*
X143952381Y-125288096D02*
X144309524Y-125169048D01*
X144309524Y-125478572D01*
X144190476Y-125740476D02*
X144166667Y-125692857D01*
X144142857Y-125669048D01*
X144095238Y-125645238D01*
X144071429Y-125645238D01*
X144023810Y-125669048D01*
X144000000Y-125692857D01*
X143976190Y-125740476D01*
X143976190Y-125835714D01*
X144000000Y-125883333D01*
X144023810Y-125907143D01*
X144071429Y-125930952D01*
X144095238Y-125930952D01*
X144142857Y-125907143D01*
X144166667Y-125883333D01*
X144190476Y-125835714D01*
X144190476Y-125740476D01*
X144214286Y-125692857D01*
X144238095Y-125669048D01*
X144285714Y-125645238D01*
X144380952Y-125645238D01*
X144428571Y-125669048D01*
X144452381Y-125692857D01*
X144476190Y-125740476D01*
X144476190Y-125835714D01*
X144452381Y-125883333D01*
X144428571Y-125907143D01*
X144380952Y-125930952D01*
X144285714Y-125930952D01*
X144238095Y-125907143D01*
X144214286Y-125883333D01*
X144190476Y-125835714D01*
D19*
X186609523Y-121028571D02*
X186633333Y-121052381D01*
X186704761Y-121076190D01*
X186752380Y-121076190D01*
X186823809Y-121052381D01*
X186871428Y-121004762D01*
X186895237Y-120957143D01*
X186919047Y-120861905D01*
X186919047Y-120790476D01*
X186895237Y-120695238D01*
X186871428Y-120647619D01*
X186823809Y-120600000D01*
X186752380Y-120576190D01*
X186704761Y-120576190D01*
X186633333Y-120600000D01*
X186609523Y-120623810D01*
X186133333Y-121076190D02*
X186419047Y-121076190D01*
X186276190Y-121076190D02*
X186276190Y-120576190D01*
X186323809Y-120647619D01*
X186371428Y-120695238D01*
X186419047Y-120719048D01*
X185966666Y-120576190D02*
X185657143Y-120576190D01*
X185823809Y-120766667D01*
X185752381Y-120766667D01*
X185704762Y-120790476D01*
X185680952Y-120814286D01*
X185657143Y-120861905D01*
X185657143Y-120980952D01*
X185680952Y-121028571D01*
X185704762Y-121052381D01*
X185752381Y-121076190D01*
X185895238Y-121076190D01*
X185942857Y-121052381D01*
X185966666Y-121028571D01*
X185347619Y-120576190D02*
X185300000Y-120576190D01*
X185252381Y-120600000D01*
X185228572Y-120623810D01*
X185204762Y-120671429D01*
X185180953Y-120766667D01*
X185180953Y-120885714D01*
X185204762Y-120980952D01*
X185228572Y-121028571D01*
X185252381Y-121052381D01*
X185300000Y-121076190D01*
X185347619Y-121076190D01*
X185395238Y-121052381D01*
X185419048Y-121028571D01*
X185442857Y-120980952D01*
X185466667Y-120885714D01*
X185466667Y-120766667D01*
X185442857Y-120671429D01*
X185419048Y-120623810D01*
X185395238Y-120600000D01*
X185347619Y-120576190D01*
X185228571Y-121290477D02*
X185252381Y-121266667D01*
X185276190Y-121195239D01*
X185276190Y-121147620D01*
X185252381Y-121076191D01*
X185204762Y-121028572D01*
X185157143Y-121004763D01*
X185061905Y-120980953D01*
X184990476Y-120980953D01*
X184895238Y-121004763D01*
X184847619Y-121028572D01*
X184800000Y-121076191D01*
X184776190Y-121147620D01*
X184776190Y-121195239D01*
X184800000Y-121266667D01*
X184823810Y-121290477D01*
X185276190Y-121766667D02*
X185276190Y-121480953D01*
X185276190Y-121623810D02*
X184776190Y-121623810D01*
X184847619Y-121576191D01*
X184895238Y-121528572D01*
X184919048Y-121480953D01*
X184776190Y-121933334D02*
X184776190Y-122242857D01*
X184966667Y-122076191D01*
X184966667Y-122147619D01*
X184990476Y-122195238D01*
X185014286Y-122219048D01*
X185061905Y-122242857D01*
X185180952Y-122242857D01*
X185228571Y-122219048D01*
X185252381Y-122195238D01*
X185276190Y-122147619D01*
X185276190Y-122004762D01*
X185252381Y-121957143D01*
X185228571Y-121933334D01*
X185276190Y-122719047D02*
X185276190Y-122433333D01*
X185276190Y-122576190D02*
X184776190Y-122576190D01*
X184847619Y-122528571D01*
X184895238Y-122480952D01*
X184919048Y-122433333D01*
X192609523Y-121028571D02*
X192633333Y-121052381D01*
X192704761Y-121076190D01*
X192752380Y-121076190D01*
X192823809Y-121052381D01*
X192871428Y-121004762D01*
X192895237Y-120957143D01*
X192919047Y-120861905D01*
X192919047Y-120790476D01*
X192895237Y-120695238D01*
X192871428Y-120647619D01*
X192823809Y-120600000D01*
X192752380Y-120576190D01*
X192704761Y-120576190D01*
X192633333Y-120600000D01*
X192609523Y-120623810D01*
X192133333Y-121076190D02*
X192419047Y-121076190D01*
X192276190Y-121076190D02*
X192276190Y-120576190D01*
X192323809Y-120647619D01*
X192371428Y-120695238D01*
X192419047Y-120719048D01*
X191966666Y-120576190D02*
X191657143Y-120576190D01*
X191823809Y-120766667D01*
X191752381Y-120766667D01*
X191704762Y-120790476D01*
X191680952Y-120814286D01*
X191657143Y-120861905D01*
X191657143Y-120980952D01*
X191680952Y-121028571D01*
X191704762Y-121052381D01*
X191752381Y-121076190D01*
X191895238Y-121076190D01*
X191942857Y-121052381D01*
X191966666Y-121028571D01*
X191466667Y-120623810D02*
X191442857Y-120600000D01*
X191395238Y-120576190D01*
X191276191Y-120576190D01*
X191228572Y-120600000D01*
X191204762Y-120623810D01*
X191180953Y-120671429D01*
X191180953Y-120719048D01*
X191204762Y-120790476D01*
X191490476Y-121076190D01*
X191180953Y-121076190D01*
X187228571Y-120290477D02*
X187252381Y-120266667D01*
X187276190Y-120195239D01*
X187276190Y-120147620D01*
X187252381Y-120076191D01*
X187204762Y-120028572D01*
X187157143Y-120004763D01*
X187061905Y-119980953D01*
X186990476Y-119980953D01*
X186895238Y-120004763D01*
X186847619Y-120028572D01*
X186800000Y-120076191D01*
X186776190Y-120147620D01*
X186776190Y-120195239D01*
X186800000Y-120266667D01*
X186823810Y-120290477D01*
X187276190Y-120766667D02*
X187276190Y-120480953D01*
X187276190Y-120623810D02*
X186776190Y-120623810D01*
X186847619Y-120576191D01*
X186895238Y-120528572D01*
X186919048Y-120480953D01*
X186776190Y-120933334D02*
X186776190Y-121242857D01*
X186966667Y-121076191D01*
X186966667Y-121147619D01*
X186990476Y-121195238D01*
X187014286Y-121219048D01*
X187061905Y-121242857D01*
X187180952Y-121242857D01*
X187228571Y-121219048D01*
X187252381Y-121195238D01*
X187276190Y-121147619D01*
X187276190Y-121004762D01*
X187252381Y-120957143D01*
X187228571Y-120933334D01*
X186776190Y-121409524D02*
X186776190Y-121719047D01*
X186966667Y-121552381D01*
X186966667Y-121623809D01*
X186990476Y-121671428D01*
X187014286Y-121695238D01*
X187061905Y-121719047D01*
X187180952Y-121719047D01*
X187228571Y-121695238D01*
X187252381Y-121671428D01*
X187276190Y-121623809D01*
X187276190Y-121480952D01*
X187252381Y-121433333D01*
X187228571Y-121409524D01*
X196376190Y-106178572D02*
X196138095Y-106011905D01*
X196376190Y-105892858D02*
X195876190Y-105892858D01*
X195876190Y-106083334D01*
X195900000Y-106130953D01*
X195923810Y-106154762D01*
X195971429Y-106178572D01*
X196042857Y-106178572D01*
X196090476Y-106154762D01*
X196114286Y-106130953D01*
X196138095Y-106083334D01*
X196138095Y-105892858D01*
X195876190Y-106345239D02*
X195876190Y-106678572D01*
X196376190Y-106464286D01*
X195876190Y-106821429D02*
X195876190Y-107154762D01*
X196376190Y-106940476D01*
D15*
X247104733Y-146302695D02*
X247104733Y-146883267D01*
X247143437Y-146999381D01*
X247220847Y-147076790D01*
X247336961Y-147115495D01*
X247414371Y-147115495D01*
X246795095Y-146302695D02*
X246253228Y-146302695D01*
X246601571Y-147115495D01*
D19*
X254021429Y-103050000D02*
X254450000Y-103050000D01*
X254535714Y-103021428D01*
X254592857Y-102964285D01*
X254621429Y-102878571D01*
X254621429Y-102821428D01*
X254021429Y-103592857D02*
X254021429Y-103478571D01*
X254050000Y-103421428D01*
X254078571Y-103392857D01*
X254164286Y-103335714D01*
X254278571Y-103307143D01*
X254507143Y-103307143D01*
X254564286Y-103335714D01*
X254592857Y-103364286D01*
X254621429Y-103421428D01*
X254621429Y-103535714D01*
X254592857Y-103592857D01*
X254564286Y-103621428D01*
X254507143Y-103650000D01*
X254364286Y-103650000D01*
X254307143Y-103621428D01*
X254278571Y-103592857D01*
X254250000Y-103535714D01*
X254250000Y-103421428D01*
X254278571Y-103364286D01*
X254307143Y-103335714D01*
X254364286Y-103307143D01*
X205133333Y-135428571D02*
X205157143Y-135452381D01*
X205228571Y-135476190D01*
X205276190Y-135476190D01*
X205347619Y-135452381D01*
X205395238Y-135404762D01*
X205419047Y-135357143D01*
X205442857Y-135261905D01*
X205442857Y-135190476D01*
X205419047Y-135095238D01*
X205395238Y-135047619D01*
X205347619Y-135000000D01*
X205276190Y-134976190D01*
X205228571Y-134976190D01*
X205157143Y-135000000D01*
X205133333Y-135023810D01*
X204966666Y-134976190D02*
X204657143Y-134976190D01*
X204823809Y-135166667D01*
X204752381Y-135166667D01*
X204704762Y-135190476D01*
X204680952Y-135214286D01*
X204657143Y-135261905D01*
X204657143Y-135380952D01*
X204680952Y-135428571D01*
X204704762Y-135452381D01*
X204752381Y-135476190D01*
X204895238Y-135476190D01*
X204942857Y-135452381D01*
X204966666Y-135428571D01*
X189333333Y-136428571D02*
X189357143Y-136452381D01*
X189428571Y-136476190D01*
X189476190Y-136476190D01*
X189547619Y-136452381D01*
X189595238Y-136404762D01*
X189619047Y-136357143D01*
X189642857Y-136261905D01*
X189642857Y-136190476D01*
X189619047Y-136095238D01*
X189595238Y-136047619D01*
X189547619Y-136000000D01*
X189476190Y-135976190D01*
X189428571Y-135976190D01*
X189357143Y-136000000D01*
X189333333Y-136023810D01*
X188904762Y-136142857D02*
X188904762Y-136476190D01*
X189023809Y-135952381D02*
X189142857Y-136309524D01*
X188833333Y-136309524D01*
X175328571Y-132078572D02*
X175352381Y-132054762D01*
X175376190Y-131983334D01*
X175376190Y-131935715D01*
X175352381Y-131864286D01*
X175304762Y-131816667D01*
X175257143Y-131792858D01*
X175161905Y-131769048D01*
X175090476Y-131769048D01*
X174995238Y-131792858D01*
X174947619Y-131816667D01*
X174900000Y-131864286D01*
X174876190Y-131935715D01*
X174876190Y-131983334D01*
X174900000Y-132054762D01*
X174923810Y-132078572D01*
X175376190Y-132554762D02*
X175376190Y-132269048D01*
X175376190Y-132411905D02*
X174876190Y-132411905D01*
X174947619Y-132364286D01*
X174995238Y-132316667D01*
X175019048Y-132269048D01*
X174923810Y-132745238D02*
X174900000Y-132769048D01*
X174876190Y-132816667D01*
X174876190Y-132935714D01*
X174900000Y-132983333D01*
X174923810Y-133007143D01*
X174971429Y-133030952D01*
X175019048Y-133030952D01*
X175090476Y-133007143D01*
X175376190Y-132721429D01*
X175376190Y-133030952D01*
X199071428Y-137928571D02*
X199095238Y-137952381D01*
X199166666Y-137976190D01*
X199214285Y-137976190D01*
X199285714Y-137952381D01*
X199333333Y-137904762D01*
X199357142Y-137857143D01*
X199380952Y-137761905D01*
X199380952Y-137690476D01*
X199357142Y-137595238D01*
X199333333Y-137547619D01*
X199285714Y-137500000D01*
X199214285Y-137476190D01*
X199166666Y-137476190D01*
X199095238Y-137500000D01*
X199071428Y-137523810D01*
X198595238Y-137976190D02*
X198880952Y-137976190D01*
X198738095Y-137976190D02*
X198738095Y-137476190D01*
X198785714Y-137547619D01*
X198833333Y-137595238D01*
X198880952Y-137619048D01*
X198428571Y-137476190D02*
X198119048Y-137476190D01*
X198285714Y-137666667D01*
X198214286Y-137666667D01*
X198166667Y-137690476D01*
X198142857Y-137714286D01*
X198119048Y-137761905D01*
X198119048Y-137880952D01*
X198142857Y-137928571D01*
X198166667Y-137952381D01*
X198214286Y-137976190D01*
X198357143Y-137976190D01*
X198404762Y-137952381D01*
X198428571Y-137928571D01*
X185621428Y-118628571D02*
X185645238Y-118652381D01*
X185716666Y-118676190D01*
X185764285Y-118676190D01*
X185835714Y-118652381D01*
X185883333Y-118604762D01*
X185907142Y-118557143D01*
X185930952Y-118461905D01*
X185930952Y-118390476D01*
X185907142Y-118295238D01*
X185883333Y-118247619D01*
X185835714Y-118200000D01*
X185764285Y-118176190D01*
X185716666Y-118176190D01*
X185645238Y-118200000D01*
X185621428Y-118223810D01*
X185430952Y-118223810D02*
X185407142Y-118200000D01*
X185359523Y-118176190D01*
X185240476Y-118176190D01*
X185192857Y-118200000D01*
X185169047Y-118223810D01*
X185145238Y-118271429D01*
X185145238Y-118319048D01*
X185169047Y-118390476D01*
X185454761Y-118676190D01*
X185145238Y-118676190D01*
X184954762Y-118223810D02*
X184930952Y-118200000D01*
X184883333Y-118176190D01*
X184764286Y-118176190D01*
X184716667Y-118200000D01*
X184692857Y-118223810D01*
X184669048Y-118271429D01*
X184669048Y-118319048D01*
X184692857Y-118390476D01*
X184978571Y-118676190D01*
X184669048Y-118676190D01*
X178228571Y-122028572D02*
X178252381Y-122004762D01*
X178276190Y-121933334D01*
X178276190Y-121885715D01*
X178252381Y-121814286D01*
X178204762Y-121766667D01*
X178157143Y-121742858D01*
X178061905Y-121719048D01*
X177990476Y-121719048D01*
X177895238Y-121742858D01*
X177847619Y-121766667D01*
X177800000Y-121814286D01*
X177776190Y-121885715D01*
X177776190Y-121933334D01*
X177800000Y-122004762D01*
X177823810Y-122028572D01*
X177823810Y-122219048D02*
X177800000Y-122242858D01*
X177776190Y-122290477D01*
X177776190Y-122409524D01*
X177800000Y-122457143D01*
X177823810Y-122480953D01*
X177871429Y-122504762D01*
X177919048Y-122504762D01*
X177990476Y-122480953D01*
X178276190Y-122195239D01*
X178276190Y-122504762D01*
X177776190Y-122671429D02*
X177776190Y-122980952D01*
X177966667Y-122814286D01*
X177966667Y-122885714D01*
X177990476Y-122933333D01*
X178014286Y-122957143D01*
X178061905Y-122980952D01*
X178180952Y-122980952D01*
X178228571Y-122957143D01*
X178252381Y-122933333D01*
X178276190Y-122885714D01*
X178276190Y-122742857D01*
X178252381Y-122695238D01*
X178228571Y-122671429D01*
X176171428Y-128678571D02*
X176195238Y-128702381D01*
X176266666Y-128726190D01*
X176314285Y-128726190D01*
X176385714Y-128702381D01*
X176433333Y-128654762D01*
X176457142Y-128607143D01*
X176480952Y-128511905D01*
X176480952Y-128440476D01*
X176457142Y-128345238D01*
X176433333Y-128297619D01*
X176385714Y-128250000D01*
X176314285Y-128226190D01*
X176266666Y-128226190D01*
X176195238Y-128250000D01*
X176171428Y-128273810D01*
X175980952Y-128273810D02*
X175957142Y-128250000D01*
X175909523Y-128226190D01*
X175790476Y-128226190D01*
X175742857Y-128250000D01*
X175719047Y-128273810D01*
X175695238Y-128321429D01*
X175695238Y-128369048D01*
X175719047Y-128440476D01*
X176004761Y-128726190D01*
X175695238Y-128726190D01*
X175266667Y-128392857D02*
X175266667Y-128726190D01*
X175385714Y-128202381D02*
X175504762Y-128559524D01*
X175195238Y-128559524D01*
X174528571Y-125328572D02*
X174552381Y-125304762D01*
X174576190Y-125233334D01*
X174576190Y-125185715D01*
X174552381Y-125114286D01*
X174504762Y-125066667D01*
X174457143Y-125042858D01*
X174361905Y-125019048D01*
X174290476Y-125019048D01*
X174195238Y-125042858D01*
X174147619Y-125066667D01*
X174100000Y-125114286D01*
X174076190Y-125185715D01*
X174076190Y-125233334D01*
X174100000Y-125304762D01*
X174123810Y-125328572D01*
X174076190Y-125495239D02*
X174076190Y-125804762D01*
X174266667Y-125638096D01*
X174266667Y-125709524D01*
X174290476Y-125757143D01*
X174314286Y-125780953D01*
X174361905Y-125804762D01*
X174480952Y-125804762D01*
X174528571Y-125780953D01*
X174552381Y-125757143D01*
X174576190Y-125709524D01*
X174576190Y-125566667D01*
X174552381Y-125519048D01*
X174528571Y-125495239D01*
X174076190Y-125971429D02*
X174076190Y-126304762D01*
X174576190Y-126090476D01*
X176471428Y-119428571D02*
X176495238Y-119452381D01*
X176566666Y-119476190D01*
X176614285Y-119476190D01*
X176685714Y-119452381D01*
X176733333Y-119404762D01*
X176757142Y-119357143D01*
X176780952Y-119261905D01*
X176780952Y-119190476D01*
X176757142Y-119095238D01*
X176733333Y-119047619D01*
X176685714Y-119000000D01*
X176614285Y-118976190D01*
X176566666Y-118976190D01*
X176495238Y-119000000D01*
X176471428Y-119023810D01*
X176304761Y-118976190D02*
X175995238Y-118976190D01*
X176161904Y-119166667D01*
X176090476Y-119166667D01*
X176042857Y-119190476D01*
X176019047Y-119214286D01*
X175995238Y-119261905D01*
X175995238Y-119380952D01*
X176019047Y-119428571D01*
X176042857Y-119452381D01*
X176090476Y-119476190D01*
X176233333Y-119476190D01*
X176280952Y-119452381D01*
X176304761Y-119428571D01*
X175709524Y-119190476D02*
X175757143Y-119166667D01*
X175780952Y-119142857D01*
X175804762Y-119095238D01*
X175804762Y-119071429D01*
X175780952Y-119023810D01*
X175757143Y-119000000D01*
X175709524Y-118976190D01*
X175614286Y-118976190D01*
X175566667Y-119000000D01*
X175542857Y-119023810D01*
X175519048Y-119071429D01*
X175519048Y-119095238D01*
X175542857Y-119142857D01*
X175566667Y-119166667D01*
X175614286Y-119190476D01*
X175709524Y-119190476D01*
X175757143Y-119214286D01*
X175780952Y-119238095D01*
X175804762Y-119285714D01*
X175804762Y-119380952D01*
X175780952Y-119428571D01*
X175757143Y-119452381D01*
X175709524Y-119476190D01*
X175614286Y-119476190D01*
X175566667Y-119452381D01*
X175542857Y-119428571D01*
X175519048Y-119380952D01*
X175519048Y-119285714D01*
X175542857Y-119238095D01*
X175566667Y-119214286D01*
X175614286Y-119190476D01*
X148878571Y-110678572D02*
X148902381Y-110654762D01*
X148926190Y-110583334D01*
X148926190Y-110535715D01*
X148902381Y-110464286D01*
X148854762Y-110416667D01*
X148807143Y-110392858D01*
X148711905Y-110369048D01*
X148640476Y-110369048D01*
X148545238Y-110392858D01*
X148497619Y-110416667D01*
X148450000Y-110464286D01*
X148426190Y-110535715D01*
X148426190Y-110583334D01*
X148450000Y-110654762D01*
X148473810Y-110678572D01*
X148592857Y-111107143D02*
X148926190Y-111107143D01*
X148402381Y-110988096D02*
X148759524Y-110869048D01*
X148759524Y-111178572D01*
X148592857Y-111583333D02*
X148926190Y-111583333D01*
X148402381Y-111464286D02*
X148759524Y-111345238D01*
X148759524Y-111654762D01*
X148928571Y-112678572D02*
X148952381Y-112654762D01*
X148976190Y-112583334D01*
X148976190Y-112535715D01*
X148952381Y-112464286D01*
X148904762Y-112416667D01*
X148857143Y-112392858D01*
X148761905Y-112369048D01*
X148690476Y-112369048D01*
X148595238Y-112392858D01*
X148547619Y-112416667D01*
X148500000Y-112464286D01*
X148476190Y-112535715D01*
X148476190Y-112583334D01*
X148500000Y-112654762D01*
X148523810Y-112678572D01*
X148476190Y-113130953D02*
X148476190Y-112892858D01*
X148714286Y-112869048D01*
X148690476Y-112892858D01*
X148666667Y-112940477D01*
X148666667Y-113059524D01*
X148690476Y-113107143D01*
X148714286Y-113130953D01*
X148761905Y-113154762D01*
X148880952Y-113154762D01*
X148928571Y-113130953D01*
X148952381Y-113107143D01*
X148976190Y-113059524D01*
X148976190Y-112940477D01*
X148952381Y-112892858D01*
X148928571Y-112869048D01*
X148523810Y-113345238D02*
X148500000Y-113369048D01*
X148476190Y-113416667D01*
X148476190Y-113535714D01*
X148500000Y-113583333D01*
X148523810Y-113607143D01*
X148571429Y-113630952D01*
X148619048Y-113630952D01*
X148690476Y-113607143D01*
X148976190Y-113321429D01*
X148976190Y-113630952D01*
X161878571Y-149640477D02*
X161902381Y-149616667D01*
X161926190Y-149545239D01*
X161926190Y-149497620D01*
X161902381Y-149426191D01*
X161854762Y-149378572D01*
X161807143Y-149354763D01*
X161711905Y-149330953D01*
X161640476Y-149330953D01*
X161545238Y-149354763D01*
X161497619Y-149378572D01*
X161450000Y-149426191D01*
X161426190Y-149497620D01*
X161426190Y-149545239D01*
X161450000Y-149616667D01*
X161473810Y-149640477D01*
X161926190Y-150116667D02*
X161926190Y-149830953D01*
X161926190Y-149973810D02*
X161426190Y-149973810D01*
X161497619Y-149926191D01*
X161545238Y-149878572D01*
X161569048Y-149830953D01*
X161426190Y-150426191D02*
X161426190Y-150473810D01*
X161450000Y-150521429D01*
X161473810Y-150545238D01*
X161521429Y-150569048D01*
X161616667Y-150592857D01*
X161735714Y-150592857D01*
X161830952Y-150569048D01*
X161878571Y-150545238D01*
X161902381Y-150521429D01*
X161926190Y-150473810D01*
X161926190Y-150426191D01*
X161902381Y-150378572D01*
X161878571Y-150354762D01*
X161830952Y-150330953D01*
X161735714Y-150307143D01*
X161616667Y-150307143D01*
X161521429Y-150330953D01*
X161473810Y-150354762D01*
X161450000Y-150378572D01*
X161426190Y-150426191D01*
X161592857Y-151021428D02*
X161926190Y-151021428D01*
X161402381Y-150902381D02*
X161759524Y-150783333D01*
X161759524Y-151092857D01*
X226778571Y-98990477D02*
X226802381Y-98966667D01*
X226826190Y-98895239D01*
X226826190Y-98847620D01*
X226802381Y-98776191D01*
X226754762Y-98728572D01*
X226707143Y-98704763D01*
X226611905Y-98680953D01*
X226540476Y-98680953D01*
X226445238Y-98704763D01*
X226397619Y-98728572D01*
X226350000Y-98776191D01*
X226326190Y-98847620D01*
X226326190Y-98895239D01*
X226350000Y-98966667D01*
X226373810Y-98990477D01*
X226826190Y-99466667D02*
X226826190Y-99180953D01*
X226826190Y-99323810D02*
X226326190Y-99323810D01*
X226397619Y-99276191D01*
X226445238Y-99228572D01*
X226469048Y-99180953D01*
X226326190Y-99776191D02*
X226326190Y-99823810D01*
X226350000Y-99871429D01*
X226373810Y-99895238D01*
X226421429Y-99919048D01*
X226516667Y-99942857D01*
X226635714Y-99942857D01*
X226730952Y-99919048D01*
X226778571Y-99895238D01*
X226802381Y-99871429D01*
X226826190Y-99823810D01*
X226826190Y-99776191D01*
X226802381Y-99728572D01*
X226778571Y-99704762D01*
X226730952Y-99680953D01*
X226635714Y-99657143D01*
X226516667Y-99657143D01*
X226421429Y-99680953D01*
X226373810Y-99704762D01*
X226350000Y-99728572D01*
X226326190Y-99776191D01*
X226326190Y-100395238D02*
X226326190Y-100157143D01*
X226564286Y-100133333D01*
X226540476Y-100157143D01*
X226516667Y-100204762D01*
X226516667Y-100323809D01*
X226540476Y-100371428D01*
X226564286Y-100395238D01*
X226611905Y-100419047D01*
X226730952Y-100419047D01*
X226778571Y-100395238D01*
X226802381Y-100371428D01*
X226826190Y-100323809D01*
X226826190Y-100204762D01*
X226802381Y-100157143D01*
X226778571Y-100133333D01*
X167778571Y-143940477D02*
X167802381Y-143916667D01*
X167826190Y-143845239D01*
X167826190Y-143797620D01*
X167802381Y-143726191D01*
X167754762Y-143678572D01*
X167707143Y-143654763D01*
X167611905Y-143630953D01*
X167540476Y-143630953D01*
X167445238Y-143654763D01*
X167397619Y-143678572D01*
X167350000Y-143726191D01*
X167326190Y-143797620D01*
X167326190Y-143845239D01*
X167350000Y-143916667D01*
X167373810Y-143940477D01*
X167826190Y-144416667D02*
X167826190Y-144130953D01*
X167826190Y-144273810D02*
X167326190Y-144273810D01*
X167397619Y-144226191D01*
X167445238Y-144178572D01*
X167469048Y-144130953D01*
X167326190Y-144726191D02*
X167326190Y-144773810D01*
X167350000Y-144821429D01*
X167373810Y-144845238D01*
X167421429Y-144869048D01*
X167516667Y-144892857D01*
X167635714Y-144892857D01*
X167730952Y-144869048D01*
X167778571Y-144845238D01*
X167802381Y-144821429D01*
X167826190Y-144773810D01*
X167826190Y-144726191D01*
X167802381Y-144678572D01*
X167778571Y-144654762D01*
X167730952Y-144630953D01*
X167635714Y-144607143D01*
X167516667Y-144607143D01*
X167421429Y-144630953D01*
X167373810Y-144654762D01*
X167350000Y-144678572D01*
X167326190Y-144726191D01*
X167326190Y-145321428D02*
X167326190Y-145226190D01*
X167350000Y-145178571D01*
X167373810Y-145154762D01*
X167445238Y-145107143D01*
X167540476Y-145083333D01*
X167730952Y-145083333D01*
X167778571Y-145107143D01*
X167802381Y-145130952D01*
X167826190Y-145178571D01*
X167826190Y-145273809D01*
X167802381Y-145321428D01*
X167778571Y-145345238D01*
X167730952Y-145369047D01*
X167611905Y-145369047D01*
X167564286Y-145345238D01*
X167540476Y-145321428D01*
X167516667Y-145273809D01*
X167516667Y-145178571D01*
X167540476Y-145130952D01*
X167564286Y-145107143D01*
X167611905Y-145083333D01*
X196509523Y-152878571D02*
X196533333Y-152902381D01*
X196604761Y-152926190D01*
X196652380Y-152926190D01*
X196723809Y-152902381D01*
X196771428Y-152854762D01*
X196795237Y-152807143D01*
X196819047Y-152711905D01*
X196819047Y-152640476D01*
X196795237Y-152545238D01*
X196771428Y-152497619D01*
X196723809Y-152450000D01*
X196652380Y-152426190D01*
X196604761Y-152426190D01*
X196533333Y-152450000D01*
X196509523Y-152473810D01*
X196033333Y-152926190D02*
X196319047Y-152926190D01*
X196176190Y-152926190D02*
X196176190Y-152426190D01*
X196223809Y-152497619D01*
X196271428Y-152545238D01*
X196319047Y-152569048D01*
X195723809Y-152426190D02*
X195676190Y-152426190D01*
X195628571Y-152450000D01*
X195604762Y-152473810D01*
X195580952Y-152521429D01*
X195557143Y-152616667D01*
X195557143Y-152735714D01*
X195580952Y-152830952D01*
X195604762Y-152878571D01*
X195628571Y-152902381D01*
X195676190Y-152926190D01*
X195723809Y-152926190D01*
X195771428Y-152902381D01*
X195795238Y-152878571D01*
X195819047Y-152830952D01*
X195842857Y-152735714D01*
X195842857Y-152616667D01*
X195819047Y-152521429D01*
X195795238Y-152473810D01*
X195771428Y-152450000D01*
X195723809Y-152426190D01*
X195271429Y-152640476D02*
X195319048Y-152616667D01*
X195342857Y-152592857D01*
X195366667Y-152545238D01*
X195366667Y-152521429D01*
X195342857Y-152473810D01*
X195319048Y-152450000D01*
X195271429Y-152426190D01*
X195176191Y-152426190D01*
X195128572Y-152450000D01*
X195104762Y-152473810D01*
X195080953Y-152521429D01*
X195080953Y-152545238D01*
X195104762Y-152592857D01*
X195128572Y-152616667D01*
X195176191Y-152640476D01*
X195271429Y-152640476D01*
X195319048Y-152664286D01*
X195342857Y-152688095D01*
X195366667Y-152735714D01*
X195366667Y-152830952D01*
X195342857Y-152878571D01*
X195319048Y-152902381D01*
X195271429Y-152926190D01*
X195176191Y-152926190D01*
X195128572Y-152902381D01*
X195104762Y-152878571D01*
X195080953Y-152830952D01*
X195080953Y-152735714D01*
X195104762Y-152688095D01*
X195128572Y-152664286D01*
X195176191Y-152640476D01*
X173146454Y-153175232D02*
X173170264Y-153199042D01*
X173241692Y-153222851D01*
X173289311Y-153222851D01*
X173360740Y-153199042D01*
X173408359Y-153151423D01*
X173432168Y-153103804D01*
X173455978Y-153008566D01*
X173455978Y-152937137D01*
X173432168Y-152841899D01*
X173408359Y-152794280D01*
X173360740Y-152746661D01*
X173289311Y-152722851D01*
X173241692Y-152722851D01*
X173170264Y-152746661D01*
X173146454Y-152770471D01*
X172670264Y-153222851D02*
X172955978Y-153222851D01*
X172813121Y-153222851D02*
X172813121Y-152722851D01*
X172860740Y-152794280D01*
X172908359Y-152841899D01*
X172955978Y-152865709D01*
X172360740Y-152722851D02*
X172313121Y-152722851D01*
X172265502Y-152746661D01*
X172241693Y-152770471D01*
X172217883Y-152818090D01*
X172194074Y-152913328D01*
X172194074Y-153032375D01*
X172217883Y-153127613D01*
X172241693Y-153175232D01*
X172265502Y-153199042D01*
X172313121Y-153222851D01*
X172360740Y-153222851D01*
X172408359Y-153199042D01*
X172432169Y-153175232D01*
X172455978Y-153127613D01*
X172479788Y-153032375D01*
X172479788Y-152913328D01*
X172455978Y-152818090D01*
X172432169Y-152770471D01*
X172408359Y-152746661D01*
X172360740Y-152722851D01*
X171955979Y-153222851D02*
X171860741Y-153222851D01*
X171813122Y-153199042D01*
X171789312Y-153175232D01*
X171741693Y-153103804D01*
X171717884Y-153008566D01*
X171717884Y-152818090D01*
X171741693Y-152770471D01*
X171765503Y-152746661D01*
X171813122Y-152722851D01*
X171908360Y-152722851D01*
X171955979Y-152746661D01*
X171979788Y-152770471D01*
X172003598Y-152818090D01*
X172003598Y-152937137D01*
X171979788Y-152984756D01*
X171955979Y-153008566D01*
X171908360Y-153032375D01*
X171813122Y-153032375D01*
X171765503Y-153008566D01*
X171741693Y-152984756D01*
X171717884Y-152937137D01*
X199928571Y-139440477D02*
X199952381Y-139416667D01*
X199976190Y-139345239D01*
X199976190Y-139297620D01*
X199952381Y-139226191D01*
X199904762Y-139178572D01*
X199857143Y-139154763D01*
X199761905Y-139130953D01*
X199690476Y-139130953D01*
X199595238Y-139154763D01*
X199547619Y-139178572D01*
X199500000Y-139226191D01*
X199476190Y-139297620D01*
X199476190Y-139345239D01*
X199500000Y-139416667D01*
X199523810Y-139440477D01*
X199976190Y-139916667D02*
X199976190Y-139630953D01*
X199976190Y-139773810D02*
X199476190Y-139773810D01*
X199547619Y-139726191D01*
X199595238Y-139678572D01*
X199619048Y-139630953D01*
X199976190Y-140392857D02*
X199976190Y-140107143D01*
X199976190Y-140250000D02*
X199476190Y-140250000D01*
X199547619Y-140202381D01*
X199595238Y-140154762D01*
X199619048Y-140107143D01*
X199476190Y-140702381D02*
X199476190Y-140750000D01*
X199500000Y-140797619D01*
X199523810Y-140821428D01*
X199571429Y-140845238D01*
X199666667Y-140869047D01*
X199785714Y-140869047D01*
X199880952Y-140845238D01*
X199928571Y-140821428D01*
X199952381Y-140797619D01*
X199976190Y-140750000D01*
X199976190Y-140702381D01*
X199952381Y-140654762D01*
X199928571Y-140630952D01*
X199880952Y-140607143D01*
X199785714Y-140583333D01*
X199666667Y-140583333D01*
X199571429Y-140607143D01*
X199523810Y-140630952D01*
X199500000Y-140654762D01*
X199476190Y-140702381D01*
X172146454Y-140178571D02*
X172170264Y-140202381D01*
X172241692Y-140226190D01*
X172289311Y-140226190D01*
X172360740Y-140202381D01*
X172408359Y-140154762D01*
X172432168Y-140107143D01*
X172455978Y-140011905D01*
X172455978Y-139940476D01*
X172432168Y-139845238D01*
X172408359Y-139797619D01*
X172360740Y-139750000D01*
X172289311Y-139726190D01*
X172241692Y-139726190D01*
X172170264Y-139750000D01*
X172146454Y-139773810D01*
X171670264Y-140226190D02*
X171955978Y-140226190D01*
X171813121Y-140226190D02*
X171813121Y-139726190D01*
X171860740Y-139797619D01*
X171908359Y-139845238D01*
X171955978Y-139869048D01*
X171194074Y-140226190D02*
X171479788Y-140226190D01*
X171336931Y-140226190D02*
X171336931Y-139726190D01*
X171384550Y-139797619D01*
X171432169Y-139845238D01*
X171479788Y-139869048D01*
X170717884Y-140226190D02*
X171003598Y-140226190D01*
X170860741Y-140226190D02*
X170860741Y-139726190D01*
X170908360Y-139797619D01*
X170955979Y-139845238D01*
X171003598Y-139869048D01*
X143159523Y-134078571D02*
X143183333Y-134102381D01*
X143254761Y-134126190D01*
X143302380Y-134126190D01*
X143373809Y-134102381D01*
X143421428Y-134054762D01*
X143445237Y-134007143D01*
X143469047Y-133911905D01*
X143469047Y-133840476D01*
X143445237Y-133745238D01*
X143421428Y-133697619D01*
X143373809Y-133650000D01*
X143302380Y-133626190D01*
X143254761Y-133626190D01*
X143183333Y-133650000D01*
X143159523Y-133673810D01*
X142683333Y-134126190D02*
X142969047Y-134126190D01*
X142826190Y-134126190D02*
X142826190Y-133626190D01*
X142873809Y-133697619D01*
X142921428Y-133745238D01*
X142969047Y-133769048D01*
X142207143Y-134126190D02*
X142492857Y-134126190D01*
X142350000Y-134126190D02*
X142350000Y-133626190D01*
X142397619Y-133697619D01*
X142445238Y-133745238D01*
X142492857Y-133769048D01*
X141754762Y-133626190D02*
X141992857Y-133626190D01*
X142016667Y-133864286D01*
X141992857Y-133840476D01*
X141945238Y-133816667D01*
X141826191Y-133816667D01*
X141778572Y-133840476D01*
X141754762Y-133864286D01*
X141730953Y-133911905D01*
X141730953Y-134030952D01*
X141754762Y-134078571D01*
X141778572Y-134102381D01*
X141826191Y-134126190D01*
X141945238Y-134126190D01*
X141992857Y-134102381D01*
X142016667Y-134078571D01*
%LPC*%
D23*
X180470000Y-149540000D03*
X180470000Y-147000000D03*
X183010000Y-147000000D03*
X183010000Y-149540000D03*
X188090000Y-149540000D03*
X190630000Y-149540000D03*
X190630000Y-147000000D03*
X188090000Y-147000000D03*
X185550000Y-147000000D03*
X185550000Y-149540000D03*
D24*
X156400000Y-124250000D03*
X156400000Y-124750000D03*
X156400000Y-125250000D03*
X156400000Y-125750000D03*
X156400000Y-126250000D03*
X156400000Y-126750000D03*
X156400000Y-127250000D03*
X156400000Y-127750000D03*
X156400000Y-128250000D03*
X156400000Y-128750000D03*
X156400000Y-129250000D03*
X156400000Y-129750000D03*
X156400000Y-130250000D03*
X156400000Y-130750000D03*
X156400000Y-131250000D03*
X156400000Y-131750000D03*
X156400000Y-132250000D03*
X156400000Y-132750000D03*
X156400000Y-133250000D03*
X156400000Y-133750000D03*
X156400000Y-134250000D03*
X156400000Y-134750000D03*
X156400000Y-135250000D03*
X156400000Y-135750000D03*
X156400000Y-136250000D03*
X156400000Y-113250000D03*
X156400000Y-111750000D03*
X156400000Y-112250000D03*
X156400000Y-112750000D03*
X156400000Y-113750000D03*
X156400000Y-115750000D03*
X156400000Y-114250000D03*
X156400000Y-114750000D03*
X156400000Y-115250000D03*
X156400000Y-116250000D03*
X156400000Y-118250000D03*
X156400000Y-116750000D03*
X156400000Y-117250000D03*
X156400000Y-117750000D03*
X156400000Y-118750000D03*
X156400000Y-120750000D03*
X156400000Y-119250000D03*
X156400000Y-119750000D03*
X156400000Y-120250000D03*
X156400000Y-121250000D03*
X156400000Y-123250000D03*
X156400000Y-121750000D03*
X156400000Y-122250000D03*
X156400000Y-122750000D03*
X156400000Y-123750000D03*
D25*
X159025000Y-110210000D03*
X159025000Y-137790000D03*
D26*
X182870000Y-111900000D03*
X180330000Y-111900000D03*
X182870000Y-109600000D03*
X180330000Y-109600000D03*
D24*
X141550000Y-145300000D03*
X141550000Y-143800000D03*
X141550000Y-144300000D03*
X141550000Y-144800000D03*
X141550000Y-145800000D03*
X141550000Y-146300000D03*
D25*
X144175000Y-142260000D03*
X144175000Y-147840000D03*
D27*
X151950000Y-100400000D03*
X158050000Y-100400000D03*
D28*
X153000000Y-97450000D03*
D29*
X155000000Y-98000000D03*
D28*
X157000000Y-97450000D03*
D30*
X145200000Y-130130000D03*
X145200000Y-130930000D03*
X145200000Y-131730000D03*
X145200000Y-132530000D03*
X145200000Y-133330000D03*
X144400000Y-133330000D03*
X143600000Y-133330000D03*
X143600000Y-132530000D03*
X143600000Y-131730000D03*
X143600000Y-130930000D03*
X143600000Y-130130000D03*
X144400000Y-130130000D03*
D31*
X233553822Y-140610880D03*
X233553822Y-140110880D03*
X233553822Y-139610880D03*
X233553822Y-139110880D03*
X233553822Y-138610880D03*
X233553822Y-138110880D03*
X233553822Y-137610880D03*
X233553822Y-137110880D03*
D32*
X235303822Y-135360880D03*
X235803822Y-135360880D03*
X236303822Y-135360880D03*
X236803822Y-135360880D03*
X237303822Y-135360880D03*
X237803822Y-135360880D03*
X238303822Y-135360880D03*
X238803822Y-135360880D03*
D31*
X240553822Y-137110880D03*
X240553822Y-137610880D03*
X240553822Y-138110880D03*
X240553822Y-138610880D03*
X240553822Y-139110880D03*
X240553822Y-139610880D03*
X240553822Y-140110880D03*
X240553822Y-140610880D03*
D32*
X238803822Y-142360880D03*
X238303822Y-142360880D03*
X237803822Y-142360880D03*
X237303822Y-142360880D03*
X236803822Y-142360880D03*
X236303822Y-142360880D03*
X235803822Y-142360880D03*
X235303822Y-142360880D03*
D33*
X151529724Y-126715868D03*
D34*
X149553604Y-126715868D03*
D33*
X147577484Y-126715868D03*
X147577484Y-121214228D03*
D34*
X149553604Y-121214228D03*
D33*
X151529724Y-121214228D03*
D35*
X126900000Y-108500000D03*
D36*
X114200000Y-113250000D03*
X121820000Y-113250000D03*
X131980000Y-113250000D03*
X131980000Y-103340000D03*
X121820000Y-103340000D03*
X114200000Y-103340000D03*
D35*
X126905000Y-125000000D03*
D36*
X114205000Y-129750000D03*
X121825000Y-129750000D03*
X131985000Y-129750000D03*
X131985000Y-119840000D03*
X121825000Y-119840000D03*
X114205000Y-119840000D03*
D37*
X252050000Y-113330000D03*
X252050000Y-125370000D03*
D38*
X247340000Y-120600000D03*
X247340000Y-118100000D03*
X249340000Y-118100000D03*
X249340000Y-120600000D03*
X245340000Y-115100000D03*
X245340000Y-116850000D03*
X245340000Y-119350000D03*
X245340000Y-121850000D03*
X245340000Y-123600000D03*
D35*
X126900000Y-141500000D03*
D36*
X114200000Y-146250000D03*
X121820000Y-146250000D03*
X131980000Y-146250000D03*
X131980000Y-136340000D03*
X121820000Y-136340000D03*
X114200000Y-136340000D03*
D39*
X146700000Y-97400000D03*
X139300000Y-99400000D03*
X146700000Y-106800000D03*
D40*
X142250000Y-110700000D03*
D23*
X143000000Y-98500000D03*
X143000000Y-105700000D03*
D41*
X149050000Y-129000000D03*
X148150000Y-129000000D03*
X150350000Y-118700000D03*
X149450000Y-118700000D03*
D42*
X147600000Y-116950000D03*
X147600000Y-117850000D03*
D43*
X179800000Y-130350000D03*
X178300000Y-130350000D03*
D44*
X179550000Y-126100000D03*
X179550000Y-127600000D03*
D43*
X181800000Y-129350000D03*
X183300000Y-129350000D03*
X181800000Y-132350000D03*
X180300000Y-132350000D03*
D45*
X174950000Y-112250000D03*
X177950000Y-112250000D03*
D46*
X184900000Y-111800000D03*
X184900000Y-110700000D03*
X178300000Y-109450000D03*
X178300000Y-108350000D03*
D47*
X224400000Y-143200000D03*
X224400000Y-141300000D03*
X226400000Y-142250000D03*
D43*
X232750000Y-126500000D03*
X231250000Y-126500000D03*
D48*
X200000000Y-150450000D03*
X200000000Y-145850000D03*
D49*
X219750000Y-134070000D03*
X219750000Y-132800000D03*
X219750000Y-131530000D03*
X219750000Y-130260000D03*
X225150000Y-130260000D03*
X225150000Y-131530000D03*
X225150000Y-132800000D03*
X225150000Y-134070000D03*
D41*
X226250000Y-128800000D03*
X227150000Y-128800000D03*
D42*
X143600000Y-127950000D03*
X143600000Y-128850000D03*
D41*
X243950000Y-138350000D03*
X243050000Y-138350000D03*
X243950000Y-139500000D03*
X243050000Y-139500000D03*
D44*
X216850000Y-114550000D03*
X216850000Y-113050000D03*
D46*
X224650000Y-121950000D03*
X224650000Y-120850000D03*
D50*
X221850000Y-113450000D03*
X222950000Y-113450000D03*
D46*
X224650000Y-114450000D03*
X224650000Y-115550000D03*
D43*
X227850000Y-115400000D03*
X229350000Y-115400000D03*
X232750000Y-121800000D03*
X231250000Y-121800000D03*
D47*
X220700000Y-143200000D03*
X220700000Y-141300000D03*
X222700000Y-142250000D03*
D51*
X173486931Y-149596661D03*
X172536931Y-149596661D03*
X171586931Y-149596661D03*
X171586931Y-147396661D03*
X173486931Y-147396661D03*
X227400000Y-98500000D03*
X228350000Y-98500000D03*
X229300000Y-98500000D03*
X229300000Y-100700000D03*
X227400000Y-100700000D03*
X196899541Y-149299483D03*
X195949541Y-149299483D03*
X194999541Y-149299483D03*
X194999541Y-147099483D03*
X196899541Y-147099483D03*
D52*
X162150000Y-150550000D03*
X162150000Y-149600000D03*
X162150000Y-148650000D03*
X164350000Y-148650000D03*
X164350000Y-150550000D03*
D53*
X175186931Y-144096661D03*
X170586931Y-144096661D03*
X226050000Y-103600000D03*
X230650000Y-103600000D03*
D48*
X167650000Y-151850000D03*
X167650000Y-147250000D03*
D54*
X232850000Y-125050000D03*
X231150000Y-125050000D03*
D55*
X234350000Y-125100000D03*
X234350000Y-123400000D03*
D43*
X218400000Y-128300000D03*
X216900000Y-128300000D03*
D50*
X224500000Y-119400000D03*
X225600000Y-119400000D03*
D43*
X223000000Y-119400000D03*
X221500000Y-119400000D03*
D50*
X228000000Y-113400000D03*
X229100000Y-113400000D03*
D44*
X236300000Y-114300000D03*
X236300000Y-115800000D03*
D50*
X228800000Y-124200000D03*
X229900000Y-124200000D03*
D44*
X218650000Y-113050000D03*
X218650000Y-114550000D03*
D50*
X217650000Y-116200000D03*
X218750000Y-116200000D03*
D43*
X232750000Y-123350000D03*
X231250000Y-123350000D03*
X223350000Y-108950000D03*
X221850000Y-108950000D03*
D44*
X235850000Y-123500000D03*
X235850000Y-125000000D03*
D43*
X218350000Y-117800000D03*
X219850000Y-117800000D03*
X223150000Y-128550000D03*
X221650000Y-128550000D03*
D50*
X228000000Y-119400000D03*
X226900000Y-119400000D03*
D44*
X229700000Y-122950000D03*
X229700000Y-121450000D03*
X216350000Y-117700000D03*
X216350000Y-116200000D03*
D43*
X234250000Y-127950000D03*
X232750000Y-127950000D03*
X219650000Y-111550000D03*
X218150000Y-111550000D03*
D46*
X224650000Y-117950000D03*
X224650000Y-116850000D03*
D50*
X226200000Y-127600000D03*
X225100000Y-127600000D03*
D45*
X194450000Y-140200000D03*
X197450000Y-140200000D03*
D43*
X184800000Y-124350000D03*
X183300000Y-124350000D03*
X186300000Y-125350000D03*
X187800000Y-125350000D03*
D44*
X187550000Y-127100000D03*
X187550000Y-128600000D03*
X183500000Y-127650000D03*
X183500000Y-126150000D03*
X194850000Y-132550000D03*
X194850000Y-131050000D03*
D43*
X185300000Y-122300000D03*
X186800000Y-122300000D03*
X192800000Y-126350000D03*
X191300000Y-126350000D03*
D44*
X185550000Y-130600000D03*
X185550000Y-129100000D03*
D43*
X178300000Y-134350000D03*
X179800000Y-134350000D03*
D44*
X189550000Y-129100000D03*
X189550000Y-130600000D03*
X184550000Y-133600000D03*
X184550000Y-132100000D03*
D43*
X188300000Y-134350000D03*
X189800000Y-134350000D03*
D44*
X187550000Y-131100000D03*
X187550000Y-132600000D03*
D56*
X178000000Y-138900000D03*
X178000000Y-135900000D03*
D45*
X189350000Y-138850000D03*
X186350000Y-138850000D03*
D43*
X219250000Y-126900000D03*
X217750000Y-126900000D03*
X216050000Y-109200000D03*
X214550000Y-109200000D03*
D56*
X173950000Y-135600000D03*
X173950000Y-132600000D03*
D44*
X145900000Y-114300000D03*
X145900000Y-112800000D03*
X138350000Y-127650000D03*
X138350000Y-126150000D03*
X140300000Y-129850000D03*
X140300000Y-128350000D03*
D43*
X140776406Y-124027566D03*
X142276406Y-124027566D03*
D57*
X183500000Y-107000000D03*
X180500000Y-107000000D03*
D58*
X143450000Y-115250000D03*
X143450000Y-115750000D03*
X143450000Y-116250000D03*
X143450000Y-116750000D03*
X143450000Y-117250000D03*
X143450000Y-117750000D03*
X143450000Y-118250000D03*
X143450000Y-118750000D03*
D59*
X142800000Y-119400000D03*
X142300000Y-119400000D03*
X141800000Y-119400000D03*
X141300000Y-119400000D03*
X140800000Y-119400000D03*
X140300000Y-119400000D03*
X139800000Y-119400000D03*
X139300000Y-119400000D03*
D58*
X138650000Y-118750000D03*
X138650000Y-118250000D03*
X138650000Y-117750000D03*
X138650000Y-117250000D03*
X138650000Y-116750000D03*
X138650000Y-116250000D03*
X138650000Y-115750000D03*
X138650000Y-115250000D03*
D59*
X139300000Y-114600000D03*
X139800000Y-114600000D03*
X140300000Y-114600000D03*
X140800000Y-114600000D03*
X141300000Y-114600000D03*
X141800000Y-114600000D03*
X142300000Y-114600000D03*
X142800000Y-114600000D03*
D60*
X140187500Y-117862500D03*
X140187500Y-116137500D03*
X141912500Y-117862500D03*
X141912500Y-116137500D03*
D44*
X139900000Y-143200000D03*
X139900000Y-144700000D03*
D41*
X236800000Y-133200000D03*
X235900000Y-133200000D03*
D47*
X228100000Y-143200000D03*
X228100000Y-141300000D03*
X230100000Y-142250000D03*
D42*
X150600000Y-129750000D03*
X150600000Y-130650000D03*
X145250000Y-125750000D03*
X145250000Y-124850000D03*
D61*
X148348500Y-133232880D03*
X148348500Y-132262600D03*
X148348500Y-131297400D03*
X148348500Y-130327120D03*
X146951500Y-130327120D03*
X146951500Y-131297400D03*
X146951500Y-132262600D03*
X146951500Y-133232880D03*
D43*
X186800000Y-119350000D03*
X185300000Y-119350000D03*
D44*
X183550000Y-121100000D03*
X183550000Y-122600000D03*
D43*
X191300000Y-122350000D03*
X192800000Y-122350000D03*
D44*
X188550000Y-121600000D03*
X188550000Y-120100000D03*
D42*
X194800000Y-106950000D03*
X194800000Y-106050000D03*
D62*
X248009820Y-135449880D03*
X248009820Y-137949240D03*
X248009820Y-139950760D03*
X248009820Y-142450120D03*
D63*
X251591220Y-132379020D03*
X251591220Y-145520980D03*
D23*
X215230000Y-147060000D03*
X215230000Y-149600000D03*
X212690000Y-149600000D03*
X212690000Y-147060000D03*
X207610000Y-147060000D03*
X205070000Y-147060000D03*
X205070000Y-149600000D03*
X207610000Y-149600000D03*
X210150000Y-149600000D03*
X210150000Y-147060000D03*
X207900000Y-110510000D03*
X207900000Y-113050000D03*
X207900000Y-115550000D03*
D64*
X242800000Y-100050000D03*
X242800000Y-101150000D03*
X242800000Y-102250000D03*
X242800000Y-103350000D03*
X242800000Y-104450000D03*
X242800000Y-105550000D03*
X242800000Y-106650000D03*
X242800000Y-107750000D03*
D65*
X242925000Y-109050000D03*
D66*
X242925000Y-97600000D03*
D67*
X250525000Y-109225000D03*
D68*
X252025000Y-108900000D03*
D69*
X253600000Y-97750000D03*
D70*
X251175000Y-97275000D03*
D43*
X204300000Y-136150000D03*
X205800000Y-136150000D03*
X188500000Y-136200000D03*
X190000000Y-136200000D03*
D44*
X176650000Y-133150000D03*
X176650000Y-131650000D03*
D43*
X197200000Y-137650000D03*
X195700000Y-137650000D03*
X186050000Y-116950000D03*
X184550000Y-116950000D03*
X175500000Y-122350000D03*
X177000000Y-122350000D03*
X175100000Y-130000000D03*
X176600000Y-130000000D03*
X176900000Y-125800000D03*
X175400000Y-125800000D03*
X175400000Y-120350000D03*
X176900000Y-120350000D03*
D44*
X150200000Y-111750000D03*
X150200000Y-110250000D03*
X147600000Y-113750000D03*
X147600000Y-112250000D03*
X160200000Y-149450000D03*
X160200000Y-150950000D03*
X225100000Y-98800000D03*
X225100000Y-100300000D03*
X166100000Y-143750000D03*
X166100000Y-145250000D03*
D43*
X196700000Y-151200000D03*
X195200000Y-151200000D03*
X173336931Y-151496661D03*
X171836931Y-151496661D03*
D44*
X200850000Y-140800000D03*
X200850000Y-139300000D03*
D43*
X172336931Y-140996661D03*
X170836931Y-140996661D03*
X141850000Y-135400000D03*
X143350000Y-135400000D03*
D71*
X184550000Y-132350000D03*
X189600000Y-134350000D03*
X183550000Y-129350000D03*
D72*
X154500000Y-130900000D03*
X150200000Y-113900000D03*
X150200000Y-110250000D03*
X209400000Y-102850000D03*
X137272680Y-130017552D03*
X132000000Y-117250000D03*
X182275000Y-115250000D03*
X187825000Y-107050000D03*
D71*
X232269117Y-140080883D03*
X228000000Y-113400000D03*
X143850000Y-127350000D03*
X149050000Y-129000000D03*
X221650000Y-128550000D03*
X228550000Y-130450000D03*
X227150000Y-128800000D03*
X227300000Y-132150000D03*
X227300000Y-134050000D03*
D72*
X174950000Y-112250000D03*
D71*
X176900000Y-120350000D03*
X178300000Y-109450000D03*
X229350000Y-115400000D03*
X217650000Y-116200000D03*
D72*
X236300000Y-115800000D03*
X218650000Y-114550000D03*
X216850000Y-113050000D03*
X231900000Y-136250000D03*
X237800000Y-139000000D03*
X206050000Y-136150000D03*
D71*
X224650000Y-119400000D03*
X224650000Y-121800000D03*
D72*
X145900000Y-112800000D03*
X210000000Y-113950000D03*
X211950000Y-109650000D03*
X206000000Y-123050000D03*
X203650000Y-107300000D03*
X188500000Y-100500000D03*
X203700000Y-101300000D03*
X206300000Y-101300000D03*
X154700000Y-127600000D03*
D71*
X194850000Y-131300000D03*
X191550000Y-126350000D03*
X185550000Y-119350000D03*
X183550000Y-122350000D03*
X179550000Y-134350000D03*
X164400000Y-113350000D03*
X163150000Y-113850000D03*
X180330000Y-109600000D03*
X180330000Y-111900000D03*
X225150000Y-134070000D03*
X150250000Y-97450000D03*
X236400000Y-112800000D03*
X235900000Y-133200000D03*
X140776406Y-124027566D03*
X142800000Y-113650000D03*
X144500000Y-118250000D03*
X225450000Y-116200000D03*
X227850000Y-114600000D03*
X185550000Y-124350000D03*
X191550000Y-130350000D03*
X184550000Y-121350000D03*
X179550000Y-127350000D03*
X188562505Y-129341249D03*
X189550000Y-130350000D03*
X188550000Y-131350000D03*
X192550000Y-133350000D03*
X188550000Y-130350000D03*
X219850000Y-121800000D03*
X188550000Y-127350000D03*
X227050000Y-123400000D03*
X188550000Y-124350000D03*
X192550000Y-122350000D03*
X191550000Y-119350000D03*
X200400000Y-107700000D03*
X197200000Y-105300000D03*
X201992010Y-108055492D03*
X190562505Y-127341249D03*
X194550000Y-129350000D03*
X195600000Y-107700000D03*
X190800000Y-101300000D03*
X196400000Y-107700000D03*
X200400000Y-105300000D03*
X196400000Y-101300000D03*
X200400000Y-101300000D03*
X193550000Y-125350000D03*
X202000000Y-101300000D03*
X183550000Y-118350000D03*
X194550000Y-118350000D03*
X197200000Y-102900000D03*
X178550000Y-123350000D03*
X192407990Y-107760617D03*
X188550000Y-120350000D03*
X189562505Y-128341249D03*
X194800000Y-101300000D03*
X180550000Y-119350000D03*
X198807990Y-107729241D03*
X181550000Y-122350000D03*
X200400000Y-102900000D03*
X198800000Y-101300000D03*
X222250000Y-123400000D03*
D72*
X176600000Y-130000000D03*
X177000000Y-122350000D03*
D71*
X184550000Y-116950000D03*
D72*
X194450000Y-140200000D03*
X200850000Y-139050000D03*
X200000000Y-145850000D03*
X194999541Y-147099483D03*
D71*
X183500000Y-107000000D03*
X185550000Y-129350000D03*
X183550000Y-126350000D03*
X184550000Y-123350000D03*
X183550000Y-124350000D03*
X189550000Y-123350000D03*
X187550000Y-125350000D03*
X188550000Y-122350000D03*
X187550000Y-123350000D03*
X187550000Y-128350000D03*
X186550000Y-122350000D03*
D72*
X147250000Y-144250000D03*
X147600000Y-112250000D03*
X138350000Y-127650000D03*
X140300000Y-128350000D03*
X160700000Y-132150000D03*
X150500000Y-132600000D03*
X143350000Y-135400000D03*
D71*
X229650000Y-111000000D03*
X235700000Y-108800000D03*
X229700000Y-108200000D03*
X231950000Y-107000000D03*
X229600000Y-107000000D03*
D72*
X139900000Y-144700000D03*
X152500000Y-131375000D03*
X154700000Y-132750000D03*
D71*
X132900000Y-143600000D03*
D72*
X240600000Y-135200000D03*
X241900000Y-140100000D03*
X233700000Y-142250000D03*
X221150000Y-140050000D03*
X135250000Y-118250000D03*
X146350000Y-135350000D03*
X221850000Y-108950000D03*
X135100000Y-123100000D03*
X138350000Y-122550000D03*
X142000000Y-130800000D03*
X142000000Y-127100000D03*
D71*
X146951500Y-133232880D03*
D72*
X242800000Y-103350000D03*
X166100000Y-145500000D03*
D71*
X141550000Y-146300000D03*
X140300000Y-108150000D03*
X161950000Y-113750000D03*
X161950000Y-112450000D03*
X160150000Y-113000000D03*
X160150000Y-111800000D03*
X137250000Y-115250000D03*
X139300000Y-113100000D03*
X223850000Y-114600000D03*
X220750000Y-111750000D03*
X221450000Y-114600000D03*
X130925000Y-141650000D03*
X135350000Y-111900000D03*
X157900000Y-107600000D03*
X223050000Y-117800000D03*
X204275000Y-98114021D03*
X138672680Y-130667552D03*
X222250000Y-118600000D03*
X221450000Y-116200000D03*
X144925000Y-108875000D03*
X208450000Y-101100000D03*
D72*
X154450000Y-122900000D03*
X223800000Y-131650000D03*
D71*
X225450000Y-123400000D03*
X223650000Y-139325000D03*
D72*
X194950000Y-151200000D03*
D71*
X150350000Y-118700000D03*
D72*
X147600000Y-116300000D03*
X149400000Y-100400000D03*
D71*
X153103604Y-121215048D03*
D72*
X248000000Y-131300000D03*
X229300000Y-98500000D03*
X227400000Y-98500000D03*
X225100000Y-100550000D03*
X196899541Y-149299483D03*
X194999541Y-149299483D03*
X171586931Y-151496661D03*
X160200000Y-151200000D03*
X171586931Y-149596661D03*
X173486931Y-149596661D03*
X162150000Y-150550000D03*
X162150000Y-148650000D03*
D71*
X244050000Y-133700000D03*
X225450000Y-139375000D03*
X229200000Y-139375000D03*
D72*
X215750000Y-130000000D03*
D71*
X224650000Y-117800000D03*
X224650000Y-114450000D03*
X222850000Y-130150000D03*
X221450000Y-119400000D03*
X219850000Y-117800000D03*
X222250000Y-114600000D03*
X220650000Y-119400000D03*
D72*
X214550000Y-109200000D03*
D71*
X231450000Y-112600000D03*
X217300000Y-109450000D03*
X216350000Y-116200000D03*
X228800000Y-124200000D03*
D72*
X217750000Y-126900000D03*
X216900000Y-128300000D03*
X235850000Y-125000000D03*
X218150000Y-111550000D03*
X232750000Y-127950000D03*
X230650000Y-103600000D03*
D71*
X221450000Y-123400000D03*
X223850000Y-123400000D03*
X225450000Y-121800000D03*
X227850000Y-122600000D03*
X234350000Y-125100000D03*
X232850000Y-125050000D03*
X226250000Y-117000000D03*
D72*
X233575000Y-113025000D03*
D71*
X227850000Y-119400000D03*
X145200000Y-116250000D03*
X184550000Y-134350000D03*
X144650000Y-115750000D03*
X183550000Y-133350000D03*
X145423434Y-117069047D03*
X185550000Y-134350000D03*
X144550000Y-116750000D03*
X186500000Y-134400000D03*
X144250000Y-119800000D03*
X226650000Y-130030000D03*
X143578410Y-134109012D03*
X144030000Y-144800000D03*
X225150000Y-131530000D03*
X226250000Y-121800000D03*
X142740000Y-133350000D03*
X142800000Y-121600000D03*
X226250000Y-128800000D03*
X145600000Y-134370000D03*
X145560000Y-145320000D03*
X225150000Y-130260000D03*
X226250000Y-122600000D03*
X238300000Y-134050000D03*
X227050000Y-116200000D03*
X237300000Y-134000000D03*
X226250000Y-117800000D03*
X238849273Y-133995073D03*
X226250000Y-118600000D03*
X242000000Y-137125000D03*
X225450000Y-114600000D03*
X237800000Y-137000000D03*
X225450000Y-117800000D03*
X238250000Y-137600000D03*
X223062331Y-137942055D03*
X221400000Y-135575000D03*
X225450000Y-118600000D03*
X151800000Y-116075000D03*
X144600000Y-128850000D03*
X203450000Y-97200000D03*
X227050000Y-117000000D03*
X223850000Y-120200000D03*
X197618452Y-128147437D03*
X223807990Y-121000000D03*
X200700000Y-130392010D03*
X223807990Y-121800000D03*
X199450000Y-125750000D03*
X223842010Y-122592291D03*
X200700000Y-126300000D03*
X197650000Y-130250000D03*
X223050000Y-118600000D03*
X206000000Y-128430988D03*
X214480988Y-119950000D03*
X223050000Y-120200000D03*
X197250000Y-135807990D03*
X223050000Y-121000000D03*
X200667794Y-128757990D03*
X211300000Y-124850000D03*
X223050000Y-121800000D03*
X223023979Y-122600000D03*
X221100000Y-126700000D03*
X197750000Y-126850000D03*
X203292354Y-124965980D03*
X214650000Y-118200000D03*
X222250000Y-117800000D03*
X217879473Y-120157173D03*
X222250000Y-120200000D03*
X200650000Y-132600000D03*
X217477193Y-123877193D03*
X208150000Y-133200000D03*
X222250000Y-121000000D03*
X200650000Y-133700000D03*
X211872821Y-128167754D03*
X222250000Y-121800000D03*
X203950000Y-128200000D03*
X204082408Y-125357990D03*
X222250000Y-122600000D03*
X200642001Y-127407990D03*
X206750000Y-127100000D03*
X221450000Y-117800000D03*
X203500000Y-129700000D03*
X221450000Y-118600000D03*
X207777193Y-131277194D03*
X217947329Y-121857058D03*
X203550000Y-131100000D03*
X221450000Y-120200000D03*
X221450000Y-121000000D03*
X194550000Y-136200000D03*
X209197806Y-129897807D03*
X198300000Y-129450000D03*
X221450000Y-121800000D03*
X209900000Y-130400000D03*
X221450000Y-122600000D03*
X206100000Y-130400000D03*
X188550000Y-126350000D03*
X220650000Y-117800000D03*
X220650000Y-120200000D03*
X203650000Y-132050000D03*
X220650000Y-121000000D03*
X197750000Y-134650000D03*
X219118633Y-124457990D03*
X206550000Y-134550000D03*
X220650000Y-121800000D03*
X197750000Y-133550000D03*
X220650000Y-122642010D03*
X206700000Y-133100000D03*
X197750000Y-132450000D03*
X220650000Y-123426021D03*
X209100000Y-131400000D03*
X197750000Y-131350000D03*
X204927193Y-134127193D03*
X219850000Y-122642010D03*
X188550000Y-128350000D03*
X203900000Y-123650000D03*
X226250000Y-115400000D03*
X182870000Y-111900000D03*
X190550000Y-122350000D03*
X227050000Y-114600000D03*
X187550000Y-129350000D03*
X184550000Y-129350000D03*
X185550000Y-131350000D03*
X184550000Y-131350000D03*
X184550000Y-130350000D03*
X220745614Y-138400000D03*
X223850000Y-119400000D03*
X227050000Y-122600000D03*
X225450000Y-120200000D03*
X227850000Y-123400000D03*
X225450000Y-121000000D03*
X177300000Y-109750000D03*
X162150000Y-100450000D03*
X182550000Y-127350000D03*
X188550000Y-133350000D03*
X200300000Y-124942010D03*
X190550000Y-128350000D03*
X203549041Y-130492010D03*
X190550000Y-130350000D03*
X198212530Y-130355012D03*
X192550000Y-130350000D03*
X198293899Y-126429314D03*
X191550000Y-127350000D03*
X190550000Y-129350000D03*
X204300000Y-127100000D03*
X201100000Y-134100000D03*
X193550000Y-132350000D03*
X200620804Y-128198656D03*
X191550000Y-129350000D03*
X198192307Y-127407990D03*
X191550000Y-128350000D03*
X198209302Y-128843799D03*
X192550000Y-129350000D03*
X202900000Y-129050000D03*
X190550000Y-131350000D03*
X186550000Y-123350000D03*
X200703100Y-129557990D03*
X192550000Y-131350000D03*
X200940885Y-131257990D03*
X191550000Y-131350000D03*
X198273998Y-133723617D03*
X188550000Y-132350000D03*
X198389188Y-132715199D03*
X191550000Y-132350000D03*
X201092717Y-132091943D03*
X189550000Y-132350000D03*
X226200000Y-127600000D03*
X226242010Y-119410000D03*
X228360000Y-126210000D03*
X227050000Y-120200000D03*
X232675000Y-113025000D03*
X227050000Y-117800000D03*
X233850000Y-120675000D03*
X227050000Y-121000000D03*
X227850000Y-118600000D03*
X231150000Y-125050000D03*
X231150000Y-119900000D03*
X230070000Y-116675000D03*
X230070000Y-117325000D03*
D72*
X147600000Y-113750000D03*
D71*
X240000000Y-127000000D03*
X240000000Y-126500000D03*
X240000000Y-126000000D03*
X240000000Y-125500000D03*
X240500000Y-125500000D03*
X240500000Y-126000000D03*
X241000000Y-126500000D03*
X240500000Y-126500000D03*
X240500000Y-127000000D03*
X241000000Y-127000000D03*
X241500000Y-127000000D03*
X242000000Y-127000000D03*
X242000000Y-126500000D03*
X242000000Y-126000000D03*
X242000000Y-125500000D03*
X241500000Y-125500000D03*
X241000000Y-125500000D03*
X241000000Y-126000000D03*
X241500000Y-126000000D03*
X241500000Y-126500000D03*
D72*
X136200000Y-120800000D03*
X135100000Y-125100000D03*
X136850000Y-122550000D03*
X138350000Y-126150000D03*
X144600000Y-120900000D03*
X140650000Y-125260000D03*
X142350000Y-125260000D03*
X142000000Y-129100000D03*
X140300000Y-129850000D03*
D71*
X146700000Y-97400000D03*
X134900000Y-141650000D03*
X137200000Y-118750000D03*
X135850000Y-116750000D03*
X139800000Y-113650000D03*
X223050000Y-117000000D03*
X222250000Y-117000000D03*
X142850000Y-108500000D03*
D72*
X226050000Y-103600000D03*
X176650000Y-133150000D03*
X175100000Y-130000000D03*
X175500000Y-122350000D03*
X176900000Y-125800000D03*
X188500000Y-136200000D03*
X197200000Y-137650000D03*
X172336931Y-140996661D03*
X148750000Y-144250000D03*
X154500000Y-129400000D03*
X154450000Y-121400000D03*
X150200000Y-115400000D03*
X150200000Y-111750000D03*
X209400000Y-104350000D03*
D71*
X186025000Y-116950000D03*
D72*
X183775000Y-115250000D03*
X187825000Y-105550000D03*
X217250000Y-130000000D03*
X160700000Y-133650000D03*
X150500000Y-134100000D03*
X141850000Y-135400000D03*
D71*
X250525000Y-109225000D03*
X156400000Y-110900000D03*
X158200000Y-132750000D03*
X158200000Y-135750000D03*
X157650000Y-136250000D03*
X157650000Y-135250000D03*
X229700000Y-109450000D03*
X222300000Y-131650000D03*
X225100000Y-127600000D03*
X231712008Y-139572981D03*
X216350000Y-117792010D03*
X224650000Y-117000000D03*
X224650000Y-115400000D03*
X221750000Y-130150000D03*
X223050000Y-119400000D03*
X218350000Y-117800000D03*
X229100000Y-113400000D03*
D72*
X216050000Y-109200000D03*
X196950000Y-151200000D03*
X141912500Y-117862500D03*
X140187500Y-117862500D03*
X141912500Y-116137500D03*
X140187500Y-116137500D03*
X240600000Y-133700000D03*
X232200000Y-142250000D03*
D71*
X242000000Y-131500000D03*
X241500000Y-131500000D03*
X241000000Y-131500000D03*
X240500000Y-131500000D03*
X240000000Y-131500000D03*
X240000000Y-131000000D03*
X240000000Y-130500000D03*
X240000000Y-130000000D03*
X242000000Y-131000000D03*
X242000000Y-130500000D03*
X241000000Y-130000000D03*
X242000000Y-130000000D03*
X241000000Y-130500000D03*
X240500000Y-130000000D03*
X240500000Y-130500000D03*
X240500000Y-131000000D03*
X241000000Y-131000000D03*
X241500000Y-131000000D03*
X241500000Y-130500000D03*
X241500000Y-130000000D03*
X222950000Y-113450000D03*
D72*
X139900000Y-143200000D03*
X144850000Y-135350000D03*
D71*
X223150000Y-128550000D03*
X218400000Y-109450000D03*
X228400000Y-132150000D03*
X227300000Y-135550000D03*
D72*
X177950000Y-112250000D03*
D71*
X175400000Y-120350000D03*
X184900000Y-110700000D03*
X178300000Y-108350000D03*
X229900000Y-124200000D03*
X218750000Y-116200000D03*
D72*
X219250000Y-126900000D03*
X218400000Y-128300000D03*
X235850000Y-123500000D03*
X223350000Y-108950000D03*
X236300000Y-114300000D03*
X219650000Y-111550000D03*
X216850000Y-114550000D03*
X218650000Y-113050000D03*
X234250000Y-127950000D03*
X246100000Y-131300000D03*
X247050000Y-131300000D03*
X248009820Y-142450120D03*
X231900000Y-134750000D03*
X236300000Y-139000000D03*
X186350000Y-138850000D03*
X173950000Y-132600000D03*
X178000000Y-135900000D03*
X204050000Y-136150000D03*
D71*
X224650000Y-121000000D03*
D72*
X229700000Y-122950000D03*
X142000000Y-132300000D03*
X145900000Y-114300000D03*
D71*
X146951500Y-131297400D03*
X144400000Y-133330000D03*
X144400000Y-130130000D03*
X145200000Y-130930000D03*
X145200000Y-131730000D03*
X145200000Y-132530000D03*
D72*
X152600000Y-123850000D03*
X152500000Y-129550000D03*
X145250000Y-127850000D03*
X242925000Y-109050000D03*
X242800000Y-105550000D03*
X228350000Y-98500000D03*
X225100000Y-98550000D03*
X211950000Y-106650000D03*
X208000000Y-123050000D03*
X205150000Y-107300000D03*
X188500000Y-102000000D03*
X206300000Y-105800000D03*
X203700000Y-105800000D03*
D71*
X188550000Y-121350000D03*
D72*
X152500000Y-132850000D03*
X154700000Y-134250000D03*
X154700000Y-126100000D03*
X197450000Y-140200000D03*
X200850000Y-141050000D03*
X195949541Y-149299483D03*
D71*
X180500000Y-107000000D03*
X194850000Y-132350000D03*
X192550000Y-126350000D03*
X185550000Y-122350000D03*
X186550000Y-119350000D03*
X183550000Y-121350000D03*
X191550000Y-122350000D03*
X179550000Y-126350000D03*
X193550000Y-129350000D03*
X188550000Y-134350000D03*
X183550000Y-127350000D03*
D72*
X166950000Y-113700000D03*
X165650000Y-113700000D03*
X166100000Y-143500000D03*
X173586931Y-151496661D03*
X160200000Y-149200000D03*
X172536931Y-149596661D03*
X162150000Y-149600000D03*
D71*
X227450000Y-148200000D03*
X244400000Y-148200000D03*
X144907990Y-117750000D03*
X182870000Y-109600000D03*
X219750000Y-130260000D03*
X141550000Y-143800000D03*
X224400000Y-141300000D03*
X220700000Y-141300000D03*
X234750000Y-120675000D03*
X219850000Y-123426021D03*
X162150000Y-98550000D03*
X234750000Y-115750000D03*
X232750000Y-126500000D03*
X232750000Y-123350000D03*
X232250000Y-119900000D03*
X234450000Y-114300000D03*
X231950000Y-116000000D03*
X229890000Y-127300000D03*
X241690000Y-138110000D03*
X219850000Y-118617010D03*
X227050000Y-119400000D03*
X228100000Y-141300000D03*
X251175000Y-97275000D03*
X252025000Y-108900000D03*
X185550000Y-130350000D03*
X187550000Y-131350000D03*
X183550000Y-134350000D03*
X181550000Y-133350000D03*
X182550000Y-131350000D03*
X179550000Y-132350000D03*
X135350000Y-110400000D03*
X179550000Y-121350000D03*
X192400000Y-101300000D03*
X182550000Y-120350000D03*
X198000000Y-102100000D03*
X142276406Y-124027566D03*
X195600000Y-102900000D03*
X195600000Y-106900000D03*
X198000000Y-102900000D03*
X201200000Y-102900000D03*
X202000000Y-102900000D03*
X178550000Y-118350000D03*
X225450000Y-119400000D03*
X179550000Y-133350000D03*
X201200000Y-102100000D03*
X181550000Y-131350000D03*
X185550000Y-123350000D03*
X195600000Y-106100000D03*
X190772807Y-107672807D03*
X194550000Y-134350000D03*
X219850000Y-115400000D03*
X194550000Y-123350000D03*
X185550000Y-128350000D03*
X200400000Y-106100000D03*
X187550000Y-122350000D03*
X178550000Y-132350000D03*
X189562505Y-129341249D03*
X188550000Y-123350000D03*
X189550000Y-118350000D03*
X138672680Y-129167552D03*
X190550000Y-121350000D03*
X189550000Y-124350000D03*
X183550000Y-123350000D03*
X183550000Y-131350000D03*
X190550000Y-124350000D03*
X180550000Y-124350000D03*
X184550000Y-125350000D03*
X186550000Y-125350000D03*
X192550000Y-128350000D03*
X183550000Y-125350000D03*
X184550000Y-128350000D03*
X220650000Y-116200000D03*
X193200000Y-106100000D03*
X181550000Y-129350000D03*
X179550000Y-130350000D03*
X184550000Y-126350000D03*
X187550000Y-127350000D03*
X190550000Y-132350000D03*
X186550000Y-124350000D03*
X228650000Y-121000000D03*
X189562505Y-127341249D03*
X185550000Y-126350000D03*
X227850000Y-121000000D03*
X198800000Y-102900000D03*
X227850000Y-115400000D03*
X184550000Y-122350000D03*
X199600000Y-106100000D03*
X193550000Y-131350000D03*
X227850000Y-117000000D03*
X181550000Y-128350000D03*
X187550000Y-133350000D03*
X227850000Y-120200000D03*
D72*
X242925000Y-97450000D03*
D71*
X181550000Y-130350000D03*
X178550000Y-129350000D03*
X195600000Y-102100000D03*
X199600000Y-102100000D03*
X180550000Y-130350000D03*
X223050000Y-114600000D03*
X228650000Y-114600000D03*
X219823978Y-114600000D03*
X223050000Y-123400000D03*
X178550000Y-134350000D03*
X181550000Y-132350000D03*
X226250000Y-121000000D03*
X220650000Y-117000000D03*
X184550000Y-133350000D03*
X183550000Y-130350000D03*
X182550000Y-132350000D03*
X227850000Y-121800000D03*
X193550000Y-120350000D03*
X202000000Y-106100000D03*
X187550000Y-130350000D03*
X198800000Y-105300000D03*
X197200000Y-106100000D03*
X225450000Y-115400000D03*
X184550000Y-124350000D03*
X219850000Y-116200000D03*
X237750000Y-143900000D03*
X240550000Y-141800000D03*
X226350000Y-142250000D03*
X222750000Y-142200000D03*
X224400000Y-143400000D03*
X220700000Y-143400000D03*
X233575000Y-135350000D03*
X224400000Y-144300000D03*
X220700000Y-144300000D03*
X233375000Y-134800000D03*
X150600000Y-130650000D03*
X180550000Y-129350000D03*
X154800000Y-124750000D03*
X179550000Y-129350000D03*
X179550000Y-128350000D03*
X145250000Y-124850000D03*
X140800000Y-113650000D03*
X142300000Y-113025000D03*
X205025000Y-97125000D03*
X226250000Y-116200000D03*
X141300000Y-113100000D03*
X142350000Y-122800000D03*
X139800000Y-119400000D03*
X151550000Y-127550000D03*
X149553604Y-126715868D03*
X147250000Y-126900000D03*
X152203604Y-121215048D03*
X141800000Y-113650000D03*
X140300000Y-113100000D03*
X138850000Y-102400000D03*
X137250000Y-116250000D03*
X139300000Y-99400000D03*
X146300000Y-103700000D03*
X137250000Y-117250000D03*
X146700000Y-106800000D03*
X143400000Y-145300000D03*
X222250000Y-116200000D03*
X221456055Y-111505769D03*
X139875000Y-145825000D03*
X223850000Y-115400000D03*
X158800000Y-124250000D03*
X181550000Y-123350000D03*
X158200000Y-124750000D03*
X179550000Y-123350000D03*
X158800000Y-125250000D03*
X180550000Y-123350000D03*
X158200000Y-125750000D03*
X181550000Y-124350000D03*
X158800000Y-126250000D03*
X178550000Y-124350000D03*
X158200000Y-126750000D03*
X179550000Y-124350000D03*
X178550000Y-125350000D03*
X158800000Y-127250000D03*
X158200000Y-128750000D03*
X181550000Y-127350000D03*
X158800000Y-129250000D03*
X178550000Y-127350000D03*
X158200000Y-129750000D03*
X180550000Y-127350000D03*
X158800000Y-130250000D03*
X180550000Y-128350000D03*
X158550000Y-113000000D03*
X158550000Y-111800000D03*
X161050000Y-112450000D03*
X161050000Y-113750000D03*
X158800000Y-116250000D03*
X181550000Y-119350000D03*
X158800000Y-118250000D03*
X178550000Y-119350000D03*
X158200000Y-116750000D03*
X180550000Y-118350000D03*
X158800000Y-117250000D03*
X179550000Y-118350000D03*
X158200000Y-117750000D03*
X179550000Y-119350000D03*
X158200000Y-118750000D03*
X180550000Y-120350000D03*
X158200000Y-120750000D03*
X182550000Y-121350000D03*
X158800000Y-119250000D03*
X178550000Y-120350000D03*
X179550000Y-120350000D03*
X158200000Y-119750000D03*
X158800000Y-120250000D03*
X181550000Y-120350000D03*
X181550000Y-121350000D03*
X158800000Y-121250000D03*
X158800000Y-123250000D03*
X178550000Y-122350000D03*
X158200000Y-121750000D03*
X180550000Y-121350000D03*
X178550000Y-121350000D03*
X158800000Y-122250000D03*
X158200000Y-122750000D03*
X180550000Y-122350000D03*
X179550000Y-122350000D03*
X158200000Y-123750000D03*
X166950000Y-115750000D03*
X158200000Y-115750000D03*
X181550000Y-118350000D03*
X164400000Y-114250000D03*
X158800000Y-114250000D03*
X183550000Y-119350000D03*
X163150000Y-114750000D03*
X158200000Y-114750000D03*
X183550000Y-120350000D03*
X165650000Y-115250000D03*
X182550000Y-118350000D03*
X158800000Y-115250000D03*
X230100000Y-142250000D03*
X228100000Y-144300000D03*
X234175000Y-135850000D03*
X228100000Y-143400000D03*
X141300000Y-119400000D03*
X137700000Y-120800000D03*
X203700000Y-102800000D03*
X195600000Y-101300000D03*
X226250000Y-114600000D03*
X191550000Y-133350000D03*
X224650000Y-118600000D03*
X190550000Y-133350000D03*
X150600000Y-129750000D03*
X145250000Y-125750000D03*
X195600000Y-105300000D03*
X195500000Y-119800000D03*
X189550000Y-121350000D03*
X196400000Y-108600000D03*
X196400000Y-102100000D03*
X193550000Y-122350000D03*
X198800000Y-106100000D03*
X193550000Y-121350000D03*
X198800000Y-108500000D03*
X191550000Y-123350000D03*
X200400000Y-106900000D03*
X190550000Y-126350000D03*
X200400000Y-102100000D03*
X194550000Y-126350000D03*
X191550000Y-124350000D03*
X201200000Y-106900000D03*
X199600000Y-106900000D03*
X191550000Y-125350000D03*
X201200000Y-106100000D03*
X192550000Y-124350000D03*
X199600000Y-102900000D03*
X192550000Y-125350000D03*
X198000000Y-101300000D03*
X194550000Y-122350000D03*
X196200000Y-110900000D03*
X196400000Y-106900000D03*
X189550000Y-122350000D03*
X196400000Y-100500000D03*
X194550000Y-121350000D03*
X192550000Y-121350000D03*
X198000000Y-106100000D03*
X197450000Y-118650000D03*
X196400000Y-106100000D03*
X190550000Y-123350000D03*
X193550000Y-123350000D03*
X197200000Y-102100000D03*
X201200000Y-101300000D03*
X194550000Y-125350000D03*
X189050000Y-113950000D03*
X190800000Y-102900000D03*
X189550000Y-119350000D03*
X193550000Y-126350000D03*
X201207990Y-107701494D03*
X189550000Y-125350000D03*
X199600000Y-105300000D03*
X190800000Y-106100000D03*
X186550000Y-120350000D03*
X186550000Y-118350000D03*
X190800000Y-102100000D03*
X191600000Y-102100000D03*
X191550000Y-118350000D03*
X199600000Y-101300000D03*
X194550000Y-124350000D03*
X186550000Y-121350000D03*
X190789685Y-105304420D03*
X188550000Y-119350000D03*
X191600000Y-102900000D03*
X187550000Y-119350000D03*
X194800000Y-106900000D03*
X187550000Y-118350000D03*
X194800000Y-106100000D03*
X193150000Y-102850000D03*
X192550000Y-118350000D03*
X192400000Y-105300000D03*
X190550000Y-120350000D03*
X194000000Y-105300000D03*
X192550000Y-120350000D03*
X190550000Y-118350000D03*
X191592010Y-106105948D03*
X191400000Y-111100000D03*
X192400000Y-102100000D03*
X190550000Y-119350000D03*
X185550000Y-118350000D03*
X190000000Y-102100000D03*
X187550000Y-120350000D03*
X191592010Y-105300000D03*
X192400000Y-106100000D03*
X192400000Y-113200000D03*
X189550000Y-120350000D03*
X194000000Y-102900000D03*
X193550000Y-119350000D03*
X194000000Y-102100000D03*
X193550000Y-118350000D03*
X191550000Y-121350000D03*
X193800000Y-107900000D03*
X194750000Y-112250000D03*
X192550000Y-119350000D03*
X194800000Y-102900000D03*
X145200000Y-115250000D03*
X182550000Y-134350000D03*
X194550000Y-119350000D03*
X194800000Y-102100000D03*
X194550000Y-120350000D03*
X194800000Y-105300000D03*
X226950000Y-111000000D03*
X223850000Y-117000000D03*
X231950000Y-110427990D03*
X242800000Y-104450000D03*
X223050000Y-115400000D03*
X227000000Y-109450000D03*
X221450000Y-115400000D03*
X233000000Y-108850000D03*
X221450000Y-117000000D03*
X227296978Y-106327800D03*
X220650000Y-114600000D03*
X227000000Y-108200000D03*
X220650000Y-115400000D03*
X235700000Y-110950000D03*
X253600000Y-97750000D03*
X223850000Y-116200000D03*
X180550000Y-125350000D03*
X158200000Y-127750000D03*
X179550000Y-125350000D03*
X158800000Y-128250000D03*
X158202193Y-130747807D03*
X178550000Y-128350000D03*
D72*
X248000000Y-135440060D03*
D71*
X134700000Y-134850000D03*
X142300000Y-121050000D03*
X125850000Y-136350000D03*
X141800000Y-120400000D03*
X242800000Y-100050000D03*
X229046978Y-106327800D03*
X242800000Y-101150000D03*
X228800000Y-109450000D03*
X242800000Y-102250000D03*
X228750000Y-111000000D03*
X227850000Y-111000000D03*
X228800000Y-108200000D03*
X242800000Y-106650000D03*
X234800000Y-108800000D03*
X242800000Y-107750000D03*
M02*
