G04 #@! TF.FileFunction,Soldermask,Bot*
%FSLAX46Y46*%
G04 Gerber Fmt 4.6, Leading zero omitted, Abs format (unit mm)*
G04 Created by KiCad (PCBNEW 4.0.7-e2-6376~58~ubuntu16.04.1) date Tue Mar 20 12:56:02 2018*
%MOMM*%
%LPD*%
G01*
G04 APERTURE LIST*
%ADD10C,0.125000*%
G04 APERTURE END LIST*
D10*
G36*
X169165000Y-152365000D02*
X166135000Y-152365000D01*
X166135000Y-151335000D01*
X169165000Y-151335000D01*
X169165000Y-152365000D01*
X169165000Y-152365000D01*
G37*
G36*
X173751931Y-151886661D02*
X172921931Y-151886661D01*
X172921931Y-151106661D01*
X173751931Y-151106661D01*
X173751931Y-151886661D01*
X173751931Y-151886661D01*
G37*
G36*
X172251931Y-151886661D02*
X171421931Y-151886661D01*
X171421931Y-151106661D01*
X172251931Y-151106661D01*
X172251931Y-151886661D01*
X172251931Y-151886661D01*
G37*
G36*
X197115000Y-151590000D02*
X196285000Y-151590000D01*
X196285000Y-150810000D01*
X197115000Y-150810000D01*
X197115000Y-151590000D01*
X197115000Y-151590000D01*
G37*
G36*
X195615000Y-151590000D02*
X194785000Y-151590000D01*
X194785000Y-150810000D01*
X195615000Y-150810000D01*
X195615000Y-151590000D01*
X195615000Y-151590000D01*
G37*
G36*
X160590000Y-151365000D02*
X159810000Y-151365000D01*
X159810000Y-150535000D01*
X160590000Y-150535000D01*
X160590000Y-151365000D01*
X160590000Y-151365000D01*
G37*
G36*
X201515000Y-150965000D02*
X198485000Y-150965000D01*
X198485000Y-149935000D01*
X201515000Y-149935000D01*
X201515000Y-150965000D01*
X201515000Y-150965000D01*
G37*
G36*
X164895000Y-150890000D02*
X163805000Y-150890000D01*
X163805000Y-150210000D01*
X164895000Y-150210000D01*
X164895000Y-150890000D01*
X164895000Y-150890000D01*
G37*
G36*
X162695000Y-150890000D02*
X161605000Y-150890000D01*
X161605000Y-150210000D01*
X162695000Y-150210000D01*
X162695000Y-150890000D01*
X162695000Y-150890000D01*
G37*
G36*
X215336610Y-148585671D02*
X215531596Y-148625696D01*
X215715096Y-148702832D01*
X215880118Y-148814141D01*
X216020378Y-148955383D01*
X216130534Y-149121182D01*
X216206386Y-149305211D01*
X216244891Y-149499681D01*
X216244891Y-149499705D01*
X216245043Y-149500474D01*
X216241869Y-149727829D01*
X216241695Y-149728594D01*
X216241695Y-149728614D01*
X216197772Y-149921938D01*
X216116813Y-150103777D01*
X216002070Y-150266435D01*
X215857925Y-150403703D01*
X215689858Y-150510361D01*
X215504271Y-150582346D01*
X215308250Y-150616910D01*
X215109239Y-150612742D01*
X214914827Y-150569997D01*
X214732425Y-150490308D01*
X214568973Y-150376705D01*
X214430699Y-150233518D01*
X214322870Y-150066202D01*
X214249593Y-149881124D01*
X214213661Y-149685347D01*
X214216441Y-149486310D01*
X214257826Y-149291607D01*
X214336239Y-149108656D01*
X214448702Y-148944407D01*
X214590914Y-148805143D01*
X214757479Y-148696146D01*
X214942036Y-148621580D01*
X215137561Y-148584281D01*
X215336610Y-148585671D01*
X215336610Y-148585671D01*
G37*
G36*
X212796610Y-148585671D02*
X212991596Y-148625696D01*
X213175096Y-148702832D01*
X213340118Y-148814141D01*
X213480378Y-148955383D01*
X213590534Y-149121182D01*
X213666386Y-149305211D01*
X213704891Y-149499681D01*
X213704891Y-149499705D01*
X213705043Y-149500474D01*
X213701869Y-149727829D01*
X213701695Y-149728594D01*
X213701695Y-149728614D01*
X213657772Y-149921938D01*
X213576813Y-150103777D01*
X213462070Y-150266435D01*
X213317925Y-150403703D01*
X213149858Y-150510361D01*
X212964271Y-150582346D01*
X212768250Y-150616910D01*
X212569239Y-150612742D01*
X212374827Y-150569997D01*
X212192425Y-150490308D01*
X212028973Y-150376705D01*
X211890699Y-150233518D01*
X211782870Y-150066202D01*
X211709593Y-149881124D01*
X211673661Y-149685347D01*
X211676441Y-149486310D01*
X211717826Y-149291607D01*
X211796239Y-149108656D01*
X211908702Y-148944407D01*
X212050914Y-148805143D01*
X212217479Y-148696146D01*
X212402036Y-148621580D01*
X212597561Y-148584281D01*
X212796610Y-148585671D01*
X212796610Y-148585671D01*
G37*
G36*
X205176610Y-148585671D02*
X205371596Y-148625696D01*
X205555096Y-148702832D01*
X205720118Y-148814141D01*
X205860378Y-148955383D01*
X205970534Y-149121182D01*
X206046386Y-149305211D01*
X206084891Y-149499681D01*
X206084891Y-149499705D01*
X206085043Y-149500474D01*
X206081869Y-149727829D01*
X206081695Y-149728594D01*
X206081695Y-149728614D01*
X206037772Y-149921938D01*
X205956813Y-150103777D01*
X205842070Y-150266435D01*
X205697925Y-150403703D01*
X205529858Y-150510361D01*
X205344271Y-150582346D01*
X205148250Y-150616910D01*
X204949239Y-150612742D01*
X204754827Y-150569997D01*
X204572425Y-150490308D01*
X204408973Y-150376705D01*
X204270699Y-150233518D01*
X204162870Y-150066202D01*
X204089593Y-149881124D01*
X204053661Y-149685347D01*
X204056441Y-149486310D01*
X204097826Y-149291607D01*
X204176239Y-149108656D01*
X204288702Y-148944407D01*
X204430914Y-148805143D01*
X204597479Y-148696146D01*
X204782036Y-148621580D01*
X204977561Y-148584281D01*
X205176610Y-148585671D01*
X205176610Y-148585671D01*
G37*
G36*
X207716610Y-148585671D02*
X207911596Y-148625696D01*
X208095096Y-148702832D01*
X208260118Y-148814141D01*
X208400378Y-148955383D01*
X208510534Y-149121182D01*
X208586386Y-149305211D01*
X208624891Y-149499681D01*
X208624891Y-149499705D01*
X208625043Y-149500474D01*
X208621869Y-149727829D01*
X208621695Y-149728594D01*
X208621695Y-149728614D01*
X208577772Y-149921938D01*
X208496813Y-150103777D01*
X208382070Y-150266435D01*
X208237925Y-150403703D01*
X208069858Y-150510361D01*
X207884271Y-150582346D01*
X207688250Y-150616910D01*
X207489239Y-150612742D01*
X207294827Y-150569997D01*
X207112425Y-150490308D01*
X206948973Y-150376705D01*
X206810699Y-150233518D01*
X206702870Y-150066202D01*
X206629593Y-149881124D01*
X206593661Y-149685347D01*
X206596441Y-149486310D01*
X206637826Y-149291607D01*
X206716239Y-149108656D01*
X206828702Y-148944407D01*
X206970914Y-148805143D01*
X207137479Y-148696146D01*
X207322036Y-148621580D01*
X207517561Y-148584281D01*
X207716610Y-148585671D01*
X207716610Y-148585671D01*
G37*
G36*
X210256610Y-148585671D02*
X210451596Y-148625696D01*
X210635096Y-148702832D01*
X210800118Y-148814141D01*
X210940378Y-148955383D01*
X211050534Y-149121182D01*
X211126386Y-149305211D01*
X211164891Y-149499681D01*
X211164891Y-149499705D01*
X211165043Y-149500474D01*
X211161869Y-149727829D01*
X211161695Y-149728594D01*
X211161695Y-149728614D01*
X211117772Y-149921938D01*
X211036813Y-150103777D01*
X210922070Y-150266435D01*
X210777925Y-150403703D01*
X210609858Y-150510361D01*
X210424271Y-150582346D01*
X210228250Y-150616910D01*
X210029239Y-150612742D01*
X209834827Y-150569997D01*
X209652425Y-150490308D01*
X209488973Y-150376705D01*
X209350699Y-150233518D01*
X209242870Y-150066202D01*
X209169593Y-149881124D01*
X209133661Y-149685347D01*
X209136441Y-149486310D01*
X209177826Y-149291607D01*
X209256239Y-149108656D01*
X209368702Y-148944407D01*
X209510914Y-148805143D01*
X209677479Y-148696146D01*
X209862036Y-148621580D01*
X210057561Y-148584281D01*
X210256610Y-148585671D01*
X210256610Y-148585671D01*
G37*
G36*
X185656610Y-148525671D02*
X185851596Y-148565696D01*
X186035096Y-148642832D01*
X186200118Y-148754141D01*
X186340378Y-148895383D01*
X186450534Y-149061182D01*
X186526386Y-149245211D01*
X186564891Y-149439681D01*
X186564891Y-149439705D01*
X186565043Y-149440474D01*
X186561869Y-149667829D01*
X186561695Y-149668594D01*
X186561695Y-149668614D01*
X186517772Y-149861938D01*
X186436813Y-150043777D01*
X186322070Y-150206435D01*
X186177925Y-150343703D01*
X186009858Y-150450361D01*
X185824271Y-150522346D01*
X185628250Y-150556910D01*
X185429239Y-150552742D01*
X185234827Y-150509997D01*
X185052425Y-150430308D01*
X184888973Y-150316705D01*
X184750699Y-150173518D01*
X184642870Y-150006202D01*
X184569593Y-149821124D01*
X184533661Y-149625347D01*
X184536441Y-149426310D01*
X184577826Y-149231607D01*
X184656239Y-149048656D01*
X184768702Y-148884407D01*
X184910914Y-148745143D01*
X185077479Y-148636146D01*
X185262036Y-148561580D01*
X185457561Y-148524281D01*
X185656610Y-148525671D01*
X185656610Y-148525671D01*
G37*
G36*
X180576610Y-148525671D02*
X180771596Y-148565696D01*
X180955096Y-148642832D01*
X181120118Y-148754141D01*
X181260378Y-148895383D01*
X181370534Y-149061182D01*
X181446386Y-149245211D01*
X181484891Y-149439681D01*
X181484891Y-149439705D01*
X181485043Y-149440474D01*
X181481869Y-149667829D01*
X181481695Y-149668594D01*
X181481695Y-149668614D01*
X181437772Y-149861938D01*
X181356813Y-150043777D01*
X181242070Y-150206435D01*
X181097925Y-150343703D01*
X180929858Y-150450361D01*
X180744271Y-150522346D01*
X180548250Y-150556910D01*
X180349239Y-150552742D01*
X180154827Y-150509997D01*
X179972425Y-150430308D01*
X179808973Y-150316705D01*
X179670699Y-150173518D01*
X179562870Y-150006202D01*
X179489593Y-149821124D01*
X179453661Y-149625347D01*
X179456441Y-149426310D01*
X179497826Y-149231607D01*
X179576239Y-149048656D01*
X179688702Y-148884407D01*
X179830914Y-148745143D01*
X179997479Y-148636146D01*
X180182036Y-148561580D01*
X180377561Y-148524281D01*
X180576610Y-148525671D01*
X180576610Y-148525671D01*
G37*
G36*
X183116610Y-148525671D02*
X183311596Y-148565696D01*
X183495096Y-148642832D01*
X183660118Y-148754141D01*
X183800378Y-148895383D01*
X183910534Y-149061182D01*
X183986386Y-149245211D01*
X184024891Y-149439681D01*
X184024891Y-149439705D01*
X184025043Y-149440474D01*
X184021869Y-149667829D01*
X184021695Y-149668594D01*
X184021695Y-149668614D01*
X183977772Y-149861938D01*
X183896813Y-150043777D01*
X183782070Y-150206435D01*
X183637925Y-150343703D01*
X183469858Y-150450361D01*
X183284271Y-150522346D01*
X183088250Y-150556910D01*
X182889239Y-150552742D01*
X182694827Y-150509997D01*
X182512425Y-150430308D01*
X182348973Y-150316705D01*
X182210699Y-150173518D01*
X182102870Y-150006202D01*
X182029593Y-149821124D01*
X181993661Y-149625347D01*
X181996441Y-149426310D01*
X182037826Y-149231607D01*
X182116239Y-149048656D01*
X182228702Y-148884407D01*
X182370914Y-148745143D01*
X182537479Y-148636146D01*
X182722036Y-148561580D01*
X182917561Y-148524281D01*
X183116610Y-148525671D01*
X183116610Y-148525671D01*
G37*
G36*
X188196610Y-148525671D02*
X188391596Y-148565696D01*
X188575096Y-148642832D01*
X188740118Y-148754141D01*
X188880378Y-148895383D01*
X188990534Y-149061182D01*
X189066386Y-149245211D01*
X189104891Y-149439681D01*
X189104891Y-149439705D01*
X189105043Y-149440474D01*
X189101869Y-149667829D01*
X189101695Y-149668594D01*
X189101695Y-149668614D01*
X189057772Y-149861938D01*
X188976813Y-150043777D01*
X188862070Y-150206435D01*
X188717925Y-150343703D01*
X188549858Y-150450361D01*
X188364271Y-150522346D01*
X188168250Y-150556910D01*
X187969239Y-150552742D01*
X187774827Y-150509997D01*
X187592425Y-150430308D01*
X187428973Y-150316705D01*
X187290699Y-150173518D01*
X187182870Y-150006202D01*
X187109593Y-149821124D01*
X187073661Y-149625347D01*
X187076441Y-149426310D01*
X187117826Y-149231607D01*
X187196239Y-149048656D01*
X187308702Y-148884407D01*
X187450914Y-148745143D01*
X187617479Y-148636146D01*
X187802036Y-148561580D01*
X187997561Y-148524281D01*
X188196610Y-148525671D01*
X188196610Y-148525671D01*
G37*
G36*
X190736610Y-148525671D02*
X190931596Y-148565696D01*
X191115096Y-148642832D01*
X191280118Y-148754141D01*
X191420378Y-148895383D01*
X191530534Y-149061182D01*
X191606386Y-149245211D01*
X191644891Y-149439681D01*
X191644891Y-149439705D01*
X191645043Y-149440474D01*
X191641869Y-149667829D01*
X191641695Y-149668594D01*
X191641695Y-149668614D01*
X191597772Y-149861938D01*
X191516813Y-150043777D01*
X191402070Y-150206435D01*
X191257925Y-150343703D01*
X191089858Y-150450361D01*
X190904271Y-150522346D01*
X190708250Y-150556910D01*
X190509239Y-150552742D01*
X190314827Y-150509997D01*
X190132425Y-150430308D01*
X189968973Y-150316705D01*
X189830699Y-150173518D01*
X189722870Y-150006202D01*
X189649593Y-149821124D01*
X189613661Y-149625347D01*
X189616441Y-149426310D01*
X189657826Y-149231607D01*
X189736239Y-149048656D01*
X189848702Y-148884407D01*
X189990914Y-148745143D01*
X190157479Y-148636146D01*
X190342036Y-148561580D01*
X190537561Y-148524281D01*
X190736610Y-148525671D01*
X190736610Y-148525671D01*
G37*
G36*
X171926931Y-150141661D02*
X171246931Y-150141661D01*
X171246931Y-149051661D01*
X171926931Y-149051661D01*
X171926931Y-150141661D01*
X171926931Y-150141661D01*
G37*
G36*
X173826931Y-150141661D02*
X173146931Y-150141661D01*
X173146931Y-149051661D01*
X173826931Y-149051661D01*
X173826931Y-150141661D01*
X173826931Y-150141661D01*
G37*
G36*
X172876931Y-150141661D02*
X172196931Y-150141661D01*
X172196931Y-149051661D01*
X172876931Y-149051661D01*
X172876931Y-150141661D01*
X172876931Y-150141661D01*
G37*
G36*
X162695000Y-149940000D02*
X161605000Y-149940000D01*
X161605000Y-149260000D01*
X162695000Y-149260000D01*
X162695000Y-149940000D01*
X162695000Y-149940000D01*
G37*
G36*
X160590000Y-149865000D02*
X159810000Y-149865000D01*
X159810000Y-149035000D01*
X160590000Y-149035000D01*
X160590000Y-149865000D01*
X160590000Y-149865000D01*
G37*
G36*
X195339541Y-149844483D02*
X194659541Y-149844483D01*
X194659541Y-148754483D01*
X195339541Y-148754483D01*
X195339541Y-149844483D01*
X195339541Y-149844483D01*
G37*
G36*
X197239541Y-149844483D02*
X196559541Y-149844483D01*
X196559541Y-148754483D01*
X197239541Y-148754483D01*
X197239541Y-149844483D01*
X197239541Y-149844483D01*
G37*
G36*
X196289541Y-149844483D02*
X195609541Y-149844483D01*
X195609541Y-148754483D01*
X196289541Y-148754483D01*
X196289541Y-149844483D01*
X196289541Y-149844483D01*
G37*
G36*
X162695000Y-148990000D02*
X161605000Y-148990000D01*
X161605000Y-148310000D01*
X162695000Y-148310000D01*
X162695000Y-148990000D01*
X162695000Y-148990000D01*
G37*
G36*
X164895000Y-148990000D02*
X163805000Y-148990000D01*
X163805000Y-148310000D01*
X164895000Y-148310000D01*
X164895000Y-148990000D01*
X164895000Y-148990000D01*
G37*
G36*
X145690000Y-148855000D02*
X142660000Y-148855000D01*
X142660000Y-146825000D01*
X145690000Y-146825000D01*
X145690000Y-148855000D01*
X145690000Y-148855000D01*
G37*
G36*
X205176610Y-146045671D02*
X205371596Y-146085696D01*
X205555096Y-146162832D01*
X205720118Y-146274141D01*
X205860378Y-146415383D01*
X205970534Y-146581182D01*
X206046386Y-146765211D01*
X206084891Y-146959681D01*
X206084891Y-146959705D01*
X206085043Y-146960474D01*
X206081869Y-147187829D01*
X206081695Y-147188594D01*
X206081695Y-147188614D01*
X206037772Y-147381938D01*
X205956813Y-147563777D01*
X205842070Y-147726435D01*
X205697925Y-147863703D01*
X205529858Y-147970361D01*
X205344271Y-148042346D01*
X205148250Y-148076910D01*
X204949239Y-148072742D01*
X204754827Y-148029997D01*
X204572425Y-147950308D01*
X204408973Y-147836705D01*
X204270699Y-147693518D01*
X204162870Y-147526202D01*
X204089593Y-147341124D01*
X204053661Y-147145347D01*
X204056441Y-146946310D01*
X204097826Y-146751607D01*
X204176239Y-146568656D01*
X204288702Y-146404407D01*
X204430914Y-146265143D01*
X204597479Y-146156146D01*
X204782036Y-146081580D01*
X204977561Y-146044281D01*
X205176610Y-146045671D01*
X205176610Y-146045671D01*
G37*
G36*
X207716610Y-146045671D02*
X207911596Y-146085696D01*
X208095096Y-146162832D01*
X208260118Y-146274141D01*
X208400378Y-146415383D01*
X208510534Y-146581182D01*
X208586386Y-146765211D01*
X208624891Y-146959681D01*
X208624891Y-146959705D01*
X208625043Y-146960474D01*
X208621869Y-147187829D01*
X208621695Y-147188594D01*
X208621695Y-147188614D01*
X208577772Y-147381938D01*
X208496813Y-147563777D01*
X208382070Y-147726435D01*
X208237925Y-147863703D01*
X208069858Y-147970361D01*
X207884271Y-148042346D01*
X207688250Y-148076910D01*
X207489239Y-148072742D01*
X207294827Y-148029997D01*
X207112425Y-147950308D01*
X206948973Y-147836705D01*
X206810699Y-147693518D01*
X206702870Y-147526202D01*
X206629593Y-147341124D01*
X206593661Y-147145347D01*
X206596441Y-146946310D01*
X206637826Y-146751607D01*
X206716239Y-146568656D01*
X206828702Y-146404407D01*
X206970914Y-146265143D01*
X207137479Y-146156146D01*
X207322036Y-146081580D01*
X207517561Y-146044281D01*
X207716610Y-146045671D01*
X207716610Y-146045671D01*
G37*
G36*
X210256610Y-146045671D02*
X210451596Y-146085696D01*
X210635096Y-146162832D01*
X210800118Y-146274141D01*
X210940378Y-146415383D01*
X211050534Y-146581182D01*
X211126386Y-146765211D01*
X211164891Y-146959681D01*
X211164891Y-146959705D01*
X211165043Y-146960474D01*
X211161869Y-147187829D01*
X211161695Y-147188594D01*
X211161695Y-147188614D01*
X211117772Y-147381938D01*
X211036813Y-147563777D01*
X210922070Y-147726435D01*
X210777925Y-147863703D01*
X210609858Y-147970361D01*
X210424271Y-148042346D01*
X210228250Y-148076910D01*
X210029239Y-148072742D01*
X209834827Y-148029997D01*
X209652425Y-147950308D01*
X209488973Y-147836705D01*
X209350699Y-147693518D01*
X209242870Y-147526202D01*
X209169593Y-147341124D01*
X209133661Y-147145347D01*
X209136441Y-146946310D01*
X209177826Y-146751607D01*
X209256239Y-146568656D01*
X209368702Y-146404407D01*
X209510914Y-146265143D01*
X209677479Y-146156146D01*
X209862036Y-146081580D01*
X210057561Y-146044281D01*
X210256610Y-146045671D01*
X210256610Y-146045671D01*
G37*
G36*
X212796610Y-146045671D02*
X212991596Y-146085696D01*
X213175096Y-146162832D01*
X213340118Y-146274141D01*
X213480378Y-146415383D01*
X213590534Y-146581182D01*
X213666386Y-146765211D01*
X213704891Y-146959681D01*
X213704891Y-146959705D01*
X213705043Y-146960474D01*
X213701869Y-147187829D01*
X213701695Y-147188594D01*
X213701695Y-147188614D01*
X213657772Y-147381938D01*
X213576813Y-147563777D01*
X213462070Y-147726435D01*
X213317925Y-147863703D01*
X213149858Y-147970361D01*
X212964271Y-148042346D01*
X212768250Y-148076910D01*
X212569239Y-148072742D01*
X212374827Y-148029997D01*
X212192425Y-147950308D01*
X212028973Y-147836705D01*
X211890699Y-147693518D01*
X211782870Y-147526202D01*
X211709593Y-147341124D01*
X211673661Y-147145347D01*
X211676441Y-146946310D01*
X211717826Y-146751607D01*
X211796239Y-146568656D01*
X211908702Y-146404407D01*
X212050914Y-146265143D01*
X212217479Y-146156146D01*
X212402036Y-146081580D01*
X212597561Y-146044281D01*
X212796610Y-146045671D01*
X212796610Y-146045671D01*
G37*
G36*
X215336610Y-146045671D02*
X215531596Y-146085696D01*
X215715096Y-146162832D01*
X215880118Y-146274141D01*
X216020378Y-146415383D01*
X216130534Y-146581182D01*
X216206386Y-146765211D01*
X216244891Y-146959681D01*
X216244891Y-146959705D01*
X216245043Y-146960474D01*
X216241869Y-147187829D01*
X216241695Y-147188594D01*
X216241695Y-147188614D01*
X216197772Y-147381938D01*
X216116813Y-147563777D01*
X216002070Y-147726435D01*
X215857925Y-147863703D01*
X215689858Y-147970361D01*
X215504271Y-148042346D01*
X215308250Y-148076910D01*
X215109239Y-148072742D01*
X214914827Y-148029997D01*
X214732425Y-147950308D01*
X214568973Y-147836705D01*
X214430699Y-147693518D01*
X214322870Y-147526202D01*
X214249593Y-147341124D01*
X214213661Y-147145347D01*
X214216441Y-146946310D01*
X214257826Y-146751607D01*
X214336239Y-146568656D01*
X214448702Y-146404407D01*
X214590914Y-146265143D01*
X214757479Y-146156146D01*
X214942036Y-146081580D01*
X215137561Y-146044281D01*
X215336610Y-146045671D01*
X215336610Y-146045671D01*
G37*
G36*
X188196610Y-145985671D02*
X188391596Y-146025696D01*
X188575096Y-146102832D01*
X188740118Y-146214141D01*
X188880378Y-146355383D01*
X188990534Y-146521182D01*
X189066386Y-146705211D01*
X189104891Y-146899681D01*
X189104891Y-146899705D01*
X189105043Y-146900474D01*
X189101869Y-147127829D01*
X189101695Y-147128594D01*
X189101695Y-147128614D01*
X189057772Y-147321938D01*
X188976813Y-147503777D01*
X188862070Y-147666435D01*
X188717925Y-147803703D01*
X188549858Y-147910361D01*
X188364271Y-147982346D01*
X188168250Y-148016910D01*
X187969239Y-148012742D01*
X187774827Y-147969997D01*
X187592425Y-147890308D01*
X187428973Y-147776705D01*
X187290699Y-147633518D01*
X187182870Y-147466202D01*
X187109593Y-147281124D01*
X187073661Y-147085347D01*
X187076441Y-146886310D01*
X187117826Y-146691607D01*
X187196239Y-146508656D01*
X187308702Y-146344407D01*
X187450914Y-146205143D01*
X187617479Y-146096146D01*
X187802036Y-146021580D01*
X187997561Y-145984281D01*
X188196610Y-145985671D01*
X188196610Y-145985671D01*
G37*
G36*
X180576610Y-145985671D02*
X180771596Y-146025696D01*
X180955096Y-146102832D01*
X181120118Y-146214141D01*
X181260378Y-146355383D01*
X181370534Y-146521182D01*
X181446386Y-146705211D01*
X181484891Y-146899681D01*
X181484891Y-146899705D01*
X181485043Y-146900474D01*
X181481869Y-147127829D01*
X181481695Y-147128594D01*
X181481695Y-147128614D01*
X181437772Y-147321938D01*
X181356813Y-147503777D01*
X181242070Y-147666435D01*
X181097925Y-147803703D01*
X180929858Y-147910361D01*
X180744271Y-147982346D01*
X180548250Y-148016910D01*
X180349239Y-148012742D01*
X180154827Y-147969997D01*
X179972425Y-147890308D01*
X179808973Y-147776705D01*
X179670699Y-147633518D01*
X179562870Y-147466202D01*
X179489593Y-147281124D01*
X179453661Y-147085347D01*
X179456441Y-146886310D01*
X179497826Y-146691607D01*
X179576239Y-146508656D01*
X179688702Y-146344407D01*
X179830914Y-146205143D01*
X179997479Y-146096146D01*
X180182036Y-146021580D01*
X180377561Y-145984281D01*
X180576610Y-145985671D01*
X180576610Y-145985671D01*
G37*
G36*
X183116610Y-145985671D02*
X183311596Y-146025696D01*
X183495096Y-146102832D01*
X183660118Y-146214141D01*
X183800378Y-146355383D01*
X183910534Y-146521182D01*
X183986386Y-146705211D01*
X184024891Y-146899681D01*
X184024891Y-146899705D01*
X184025043Y-146900474D01*
X184021869Y-147127829D01*
X184021695Y-147128594D01*
X184021695Y-147128614D01*
X183977772Y-147321938D01*
X183896813Y-147503777D01*
X183782070Y-147666435D01*
X183637925Y-147803703D01*
X183469858Y-147910361D01*
X183284271Y-147982346D01*
X183088250Y-148016910D01*
X182889239Y-148012742D01*
X182694827Y-147969997D01*
X182512425Y-147890308D01*
X182348973Y-147776705D01*
X182210699Y-147633518D01*
X182102870Y-147466202D01*
X182029593Y-147281124D01*
X181993661Y-147085347D01*
X181996441Y-146886310D01*
X182037826Y-146691607D01*
X182116239Y-146508656D01*
X182228702Y-146344407D01*
X182370914Y-146205143D01*
X182537479Y-146096146D01*
X182722036Y-146021580D01*
X182917561Y-145984281D01*
X183116610Y-145985671D01*
X183116610Y-145985671D01*
G37*
G36*
X190736610Y-145985671D02*
X190931596Y-146025696D01*
X191115096Y-146102832D01*
X191280118Y-146214141D01*
X191420378Y-146355383D01*
X191530534Y-146521182D01*
X191606386Y-146705211D01*
X191644891Y-146899681D01*
X191644891Y-146899705D01*
X191645043Y-146900474D01*
X191641869Y-147127829D01*
X191641695Y-147128594D01*
X191641695Y-147128614D01*
X191597772Y-147321938D01*
X191516813Y-147503777D01*
X191402070Y-147666435D01*
X191257925Y-147803703D01*
X191089858Y-147910361D01*
X190904271Y-147982346D01*
X190708250Y-148016910D01*
X190509239Y-148012742D01*
X190314827Y-147969997D01*
X190132425Y-147890308D01*
X189968973Y-147776705D01*
X189830699Y-147633518D01*
X189722870Y-147466202D01*
X189649593Y-147281124D01*
X189613661Y-147085347D01*
X189616441Y-146886310D01*
X189657826Y-146691607D01*
X189736239Y-146508656D01*
X189848702Y-146344407D01*
X189990914Y-146205143D01*
X190157479Y-146096146D01*
X190342036Y-146021580D01*
X190537561Y-145984281D01*
X190736610Y-145985671D01*
X190736610Y-145985671D01*
G37*
G36*
X185656610Y-145985671D02*
X185851596Y-146025696D01*
X186035096Y-146102832D01*
X186200118Y-146214141D01*
X186340378Y-146355383D01*
X186450534Y-146521182D01*
X186526386Y-146705211D01*
X186564891Y-146899681D01*
X186564891Y-146899705D01*
X186565043Y-146900474D01*
X186561869Y-147127829D01*
X186561695Y-147128594D01*
X186561695Y-147128614D01*
X186517772Y-147321938D01*
X186436813Y-147503777D01*
X186322070Y-147666435D01*
X186177925Y-147803703D01*
X186009858Y-147910361D01*
X185824271Y-147982346D01*
X185628250Y-148016910D01*
X185429239Y-148012742D01*
X185234827Y-147969997D01*
X185052425Y-147890308D01*
X184888973Y-147776705D01*
X184750699Y-147633518D01*
X184642870Y-147466202D01*
X184569593Y-147281124D01*
X184533661Y-147085347D01*
X184536441Y-146886310D01*
X184577826Y-146691607D01*
X184656239Y-146508656D01*
X184768702Y-146344407D01*
X184910914Y-146205143D01*
X185077479Y-146096146D01*
X185262036Y-146021580D01*
X185457561Y-145984281D01*
X185656610Y-145985671D01*
X185656610Y-145985671D01*
G37*
G36*
X171926931Y-147941661D02*
X171246931Y-147941661D01*
X171246931Y-146851661D01*
X171926931Y-146851661D01*
X171926931Y-147941661D01*
X171926931Y-147941661D01*
G37*
G36*
X173826931Y-147941661D02*
X173146931Y-147941661D01*
X173146931Y-146851661D01*
X173826931Y-146851661D01*
X173826931Y-147941661D01*
X173826931Y-147941661D01*
G37*
G36*
X132139128Y-144736005D02*
X132430164Y-144795746D01*
X132704059Y-144910880D01*
X132950372Y-145077021D01*
X133159725Y-145287840D01*
X133324142Y-145535307D01*
X133437361Y-145809999D01*
X133494912Y-146100654D01*
X133494912Y-146100673D01*
X133495065Y-146101447D01*
X133490326Y-146440799D01*
X133490152Y-146441564D01*
X133490152Y-146441584D01*
X133424506Y-146730526D01*
X133303663Y-147001943D01*
X133132400Y-147244724D01*
X132917242Y-147449617D01*
X132666387Y-147608813D01*
X132389381Y-147716257D01*
X132096795Y-147767848D01*
X131799751Y-147761626D01*
X131509571Y-147697826D01*
X131237312Y-147578879D01*
X130993346Y-147409319D01*
X130786956Y-147195596D01*
X130626010Y-146945855D01*
X130516638Y-146669613D01*
X130463004Y-146377388D01*
X130467153Y-146080304D01*
X130528923Y-145789693D01*
X130645967Y-145516612D01*
X130813825Y-145271461D01*
X131026101Y-145063585D01*
X131274707Y-144900903D01*
X131550184Y-144789601D01*
X131842025Y-144733930D01*
X132139128Y-144736005D01*
X132139128Y-144736005D01*
G37*
G36*
X121979128Y-144736005D02*
X122270164Y-144795746D01*
X122544059Y-144910880D01*
X122790372Y-145077021D01*
X122999725Y-145287840D01*
X123164142Y-145535307D01*
X123277361Y-145809999D01*
X123334912Y-146100654D01*
X123334912Y-146100673D01*
X123335065Y-146101447D01*
X123330326Y-146440799D01*
X123330152Y-146441564D01*
X123330152Y-146441584D01*
X123264506Y-146730526D01*
X123143663Y-147001943D01*
X122972400Y-147244724D01*
X122757242Y-147449617D01*
X122506387Y-147608813D01*
X122229381Y-147716257D01*
X121936795Y-147767848D01*
X121639751Y-147761626D01*
X121349571Y-147697826D01*
X121077312Y-147578879D01*
X120833346Y-147409319D01*
X120626956Y-147195596D01*
X120466010Y-146945855D01*
X120356638Y-146669613D01*
X120303004Y-146377388D01*
X120307153Y-146080304D01*
X120368923Y-145789693D01*
X120485967Y-145516612D01*
X120653825Y-145271461D01*
X120866101Y-145063585D01*
X121114707Y-144900903D01*
X121390184Y-144789601D01*
X121682025Y-144733930D01*
X121979128Y-144736005D01*
X121979128Y-144736005D01*
G37*
G36*
X114359128Y-144736005D02*
X114650164Y-144795746D01*
X114924059Y-144910880D01*
X115170372Y-145077021D01*
X115379725Y-145287840D01*
X115544142Y-145535307D01*
X115657361Y-145809999D01*
X115714912Y-146100654D01*
X115714912Y-146100673D01*
X115715065Y-146101447D01*
X115710326Y-146440799D01*
X115710152Y-146441564D01*
X115710152Y-146441584D01*
X115644506Y-146730526D01*
X115523663Y-147001943D01*
X115352400Y-147244724D01*
X115137242Y-147449617D01*
X114886387Y-147608813D01*
X114609381Y-147716257D01*
X114316795Y-147767848D01*
X114019751Y-147761626D01*
X113729571Y-147697826D01*
X113457312Y-147578879D01*
X113213346Y-147409319D01*
X113006956Y-147195596D01*
X112846010Y-146945855D01*
X112736638Y-146669613D01*
X112683004Y-146377388D01*
X112687153Y-146080304D01*
X112748923Y-145789693D01*
X112865967Y-145516612D01*
X113033825Y-145271461D01*
X113246101Y-145063585D01*
X113494707Y-144900903D01*
X113770184Y-144789601D01*
X114062025Y-144733930D01*
X114359128Y-144736005D01*
X114359128Y-144736005D01*
G37*
G36*
X169165000Y-147765000D02*
X166135000Y-147765000D01*
X166135000Y-146735000D01*
X169165000Y-146735000D01*
X169165000Y-147765000D01*
X169165000Y-147765000D01*
G37*
G36*
X195339541Y-147644483D02*
X194659541Y-147644483D01*
X194659541Y-146554483D01*
X195339541Y-146554483D01*
X195339541Y-147644483D01*
X195339541Y-147644483D01*
G37*
G36*
X197239541Y-147644483D02*
X196559541Y-147644483D01*
X196559541Y-146554483D01*
X197239541Y-146554483D01*
X197239541Y-147644483D01*
X197239541Y-147644483D01*
G37*
G36*
X251752869Y-143983000D02*
X252048516Y-144043687D01*
X252326749Y-144160646D01*
X252576964Y-144329418D01*
X252789634Y-144543578D01*
X252956656Y-144794965D01*
X253071669Y-145074008D01*
X253130134Y-145369281D01*
X253130134Y-145369304D01*
X253130286Y-145370073D01*
X253125473Y-145714801D01*
X253125299Y-145715566D01*
X253125299Y-145715587D01*
X253058610Y-146009119D01*
X252935853Y-146284836D01*
X252761875Y-146531465D01*
X252543313Y-146739599D01*
X252288481Y-146901320D01*
X252007091Y-147010464D01*
X251709860Y-147062874D01*
X251408115Y-147056554D01*
X251113338Y-146991742D01*
X250836770Y-146870913D01*
X250588933Y-146698662D01*
X250379276Y-146481556D01*
X250215780Y-146227859D01*
X250104675Y-145947240D01*
X250050191Y-145650385D01*
X250054406Y-145348597D01*
X250117155Y-145053381D01*
X250236053Y-144775974D01*
X250406573Y-144526936D01*
X250622204Y-144315774D01*
X250874757Y-144150508D01*
X251154593Y-144037447D01*
X251451060Y-143980892D01*
X251752869Y-143983000D01*
X251752869Y-143983000D01*
G37*
G36*
X142190000Y-146435000D02*
X140910000Y-146435000D01*
X140910000Y-146165000D01*
X142190000Y-146165000D01*
X142190000Y-146435000D01*
X142190000Y-146435000D01*
G37*
G36*
X201515000Y-146365000D02*
X198485000Y-146365000D01*
X198485000Y-145335000D01*
X201515000Y-145335000D01*
X201515000Y-146365000D01*
X201515000Y-146365000D01*
G37*
G36*
X142190000Y-145935000D02*
X140910000Y-145935000D01*
X140910000Y-145665000D01*
X142190000Y-145665000D01*
X142190000Y-145935000D01*
X142190000Y-145935000D01*
G37*
G36*
X166490000Y-145665000D02*
X165710000Y-145665000D01*
X165710000Y-144835000D01*
X166490000Y-144835000D01*
X166490000Y-145665000D01*
X166490000Y-145665000D01*
G37*
G36*
X171101931Y-145611661D02*
X170071931Y-145611661D01*
X170071931Y-142581661D01*
X171101931Y-142581661D01*
X171101931Y-145611661D01*
X171101931Y-145611661D01*
G37*
G36*
X175701931Y-145611661D02*
X174671931Y-145611661D01*
X174671931Y-142581661D01*
X175701931Y-142581661D01*
X175701931Y-145611661D01*
X175701931Y-145611661D01*
G37*
G36*
X142190000Y-145435000D02*
X140910000Y-145435000D01*
X140910000Y-145165000D01*
X142190000Y-145165000D01*
X142190000Y-145435000D01*
X142190000Y-145435000D01*
G37*
G36*
X140290000Y-145115000D02*
X139510000Y-145115000D01*
X139510000Y-144285000D01*
X140290000Y-144285000D01*
X140290000Y-145115000D01*
X140290000Y-145115000D01*
G37*
G36*
X142190000Y-144935000D02*
X140910000Y-144935000D01*
X140910000Y-144665000D01*
X142190000Y-144665000D01*
X142190000Y-144935000D01*
X142190000Y-144935000D01*
G37*
G36*
X142190000Y-144435000D02*
X140910000Y-144435000D01*
X140910000Y-144165000D01*
X142190000Y-144165000D01*
X142190000Y-144435000D01*
X142190000Y-144435000D01*
G37*
G36*
X166490000Y-144165000D02*
X165710000Y-144165000D01*
X165710000Y-143335000D01*
X166490000Y-143335000D01*
X166490000Y-144165000D01*
X166490000Y-144165000D01*
G37*
G36*
X142190000Y-143935000D02*
X140910000Y-143935000D01*
X140910000Y-143665000D01*
X142190000Y-143665000D01*
X142190000Y-143935000D01*
X142190000Y-143935000D01*
G37*
G36*
X228565000Y-143615000D02*
X227635000Y-143615000D01*
X227635000Y-142785000D01*
X228565000Y-142785000D01*
X228565000Y-143615000D01*
X228565000Y-143615000D01*
G37*
G36*
X140290000Y-143615000D02*
X139510000Y-143615000D01*
X139510000Y-142785000D01*
X140290000Y-142785000D01*
X140290000Y-143615000D01*
X140290000Y-143615000D01*
G37*
G36*
X221165000Y-143615000D02*
X220235000Y-143615000D01*
X220235000Y-142785000D01*
X221165000Y-142785000D01*
X221165000Y-143615000D01*
X221165000Y-143615000D01*
G37*
G36*
X224865000Y-143615000D02*
X223935000Y-143615000D01*
X223935000Y-142785000D01*
X224865000Y-142785000D01*
X224865000Y-143615000D01*
X224865000Y-143615000D01*
G37*
G36*
X127111645Y-139486337D02*
X127498734Y-139565795D01*
X127863022Y-139718927D01*
X128190626Y-139939900D01*
X128469073Y-140220296D01*
X128687752Y-140549435D01*
X128838338Y-140914784D01*
X128914935Y-141301626D01*
X128914935Y-141301650D01*
X128915087Y-141302419D01*
X128908784Y-141753768D01*
X128908611Y-141754528D01*
X128908611Y-141754553D01*
X128821240Y-142139115D01*
X128660515Y-142500109D01*
X128432728Y-142823018D01*
X128146566Y-143095527D01*
X127812917Y-143307266D01*
X127444497Y-143450168D01*
X127055335Y-143518787D01*
X126660263Y-143510512D01*
X126274314Y-143425655D01*
X125912204Y-143267454D01*
X125587716Y-143041929D01*
X125313213Y-142757673D01*
X125099149Y-142425510D01*
X124953681Y-142058099D01*
X124882346Y-141669429D01*
X124887864Y-141274300D01*
X124970021Y-140887776D01*
X125125695Y-140524565D01*
X125348946Y-140198515D01*
X125631282Y-139922032D01*
X125961941Y-139705654D01*
X126328328Y-139557624D01*
X126716490Y-139483578D01*
X127111645Y-139486337D01*
X127111645Y-139486337D01*
G37*
G36*
X145690000Y-143275000D02*
X142660000Y-143275000D01*
X142660000Y-141245000D01*
X145690000Y-141245000D01*
X145690000Y-143275000D01*
X145690000Y-143275000D01*
G37*
G36*
X239130822Y-143132380D02*
X234976822Y-143132380D01*
X234976822Y-141589380D01*
X239130822Y-141589380D01*
X239130822Y-143132380D01*
X239130822Y-143132380D01*
G37*
G36*
X249465000Y-143025190D02*
X246554640Y-143025190D01*
X246554640Y-141875050D01*
X249465000Y-141875050D01*
X249465000Y-143025190D01*
X249465000Y-143025190D01*
G37*
G36*
X230565000Y-142665000D02*
X229635000Y-142665000D01*
X229635000Y-141835000D01*
X230565000Y-141835000D01*
X230565000Y-142665000D01*
X230565000Y-142665000D01*
G37*
G36*
X223165000Y-142665000D02*
X222235000Y-142665000D01*
X222235000Y-141835000D01*
X223165000Y-141835000D01*
X223165000Y-142665000D01*
X223165000Y-142665000D01*
G37*
G36*
X226865000Y-142665000D02*
X225935000Y-142665000D01*
X225935000Y-141835000D01*
X226865000Y-141835000D01*
X226865000Y-142665000D01*
X226865000Y-142665000D01*
G37*
G36*
X221165000Y-141715000D02*
X220235000Y-141715000D01*
X220235000Y-140885000D01*
X221165000Y-140885000D01*
X221165000Y-141715000D01*
X221165000Y-141715000D01*
G37*
G36*
X224865000Y-141715000D02*
X223935000Y-141715000D01*
X223935000Y-140885000D01*
X224865000Y-140885000D01*
X224865000Y-141715000D01*
X224865000Y-141715000D01*
G37*
G36*
X228565000Y-141715000D02*
X227635000Y-141715000D01*
X227635000Y-140885000D01*
X228565000Y-140885000D01*
X228565000Y-141715000D01*
X228565000Y-141715000D01*
G37*
G36*
X194965000Y-141465000D02*
X193935000Y-141465000D01*
X193935000Y-138935000D01*
X194965000Y-138935000D01*
X194965000Y-141465000D01*
X194965000Y-141465000D01*
G37*
G36*
X197965000Y-141465000D02*
X196935000Y-141465000D01*
X196935000Y-138935000D01*
X197965000Y-138935000D01*
X197965000Y-141465000D01*
X197965000Y-141465000D01*
G37*
G36*
X171251931Y-141386661D02*
X170421931Y-141386661D01*
X170421931Y-140606661D01*
X171251931Y-140606661D01*
X171251931Y-141386661D01*
X171251931Y-141386661D01*
G37*
G36*
X172751931Y-141386661D02*
X171921931Y-141386661D01*
X171921931Y-140606661D01*
X172751931Y-140606661D01*
X172751931Y-141386661D01*
X172751931Y-141386661D01*
G37*
G36*
X201240000Y-141215000D02*
X200460000Y-141215000D01*
X200460000Y-140385000D01*
X201240000Y-140385000D01*
X201240000Y-141215000D01*
X201240000Y-141215000D01*
G37*
G36*
X234325322Y-140937880D02*
X232782322Y-140937880D01*
X232782322Y-136783880D01*
X234325322Y-136783880D01*
X234325322Y-140937880D01*
X234325322Y-140937880D01*
G37*
G36*
X241325322Y-140937880D02*
X239782322Y-140937880D01*
X239782322Y-136783880D01*
X241325322Y-136783880D01*
X241325322Y-140937880D01*
X241325322Y-140937880D01*
G37*
G36*
X249465000Y-140525830D02*
X246554640Y-140525830D01*
X246554640Y-139375690D01*
X249465000Y-139375690D01*
X249465000Y-140525830D01*
X249465000Y-140525830D01*
G37*
G36*
X186865000Y-140115000D02*
X185835000Y-140115000D01*
X185835000Y-137585000D01*
X186865000Y-137585000D01*
X186865000Y-140115000D01*
X186865000Y-140115000D01*
G37*
G36*
X189865000Y-140115000D02*
X188835000Y-140115000D01*
X188835000Y-137585000D01*
X189865000Y-137585000D01*
X189865000Y-140115000D01*
X189865000Y-140115000D01*
G37*
G36*
X243265000Y-139815000D02*
X242835000Y-139815000D01*
X242835000Y-139185000D01*
X243265000Y-139185000D01*
X243265000Y-139815000D01*
X243265000Y-139815000D01*
G37*
G36*
X244165000Y-139815000D02*
X243735000Y-139815000D01*
X243735000Y-139185000D01*
X244165000Y-139185000D01*
X244165000Y-139815000D01*
X244165000Y-139815000D01*
G37*
G36*
X201240000Y-139715000D02*
X200460000Y-139715000D01*
X200460000Y-138885000D01*
X201240000Y-138885000D01*
X201240000Y-139715000D01*
X201240000Y-139715000D01*
G37*
G36*
X179265000Y-139415000D02*
X176735000Y-139415000D01*
X176735000Y-138385000D01*
X179265000Y-138385000D01*
X179265000Y-139415000D01*
X179265000Y-139415000D01*
G37*
G36*
X160540000Y-138805000D02*
X157510000Y-138805000D01*
X157510000Y-136775000D01*
X160540000Y-136775000D01*
X160540000Y-138805000D01*
X160540000Y-138805000D01*
G37*
G36*
X243265000Y-138665000D02*
X242835000Y-138665000D01*
X242835000Y-138035000D01*
X243265000Y-138035000D01*
X243265000Y-138665000D01*
X243265000Y-138665000D01*
G37*
G36*
X244165000Y-138665000D02*
X243735000Y-138665000D01*
X243735000Y-138035000D01*
X244165000Y-138035000D01*
X244165000Y-138665000D01*
X244165000Y-138665000D01*
G37*
G36*
X249465000Y-138524310D02*
X246554640Y-138524310D01*
X246554640Y-137374170D01*
X249465000Y-137374170D01*
X249465000Y-138524310D01*
X249465000Y-138524310D01*
G37*
G36*
X197615000Y-138040000D02*
X196785000Y-138040000D01*
X196785000Y-137260000D01*
X197615000Y-137260000D01*
X197615000Y-138040000D01*
X197615000Y-138040000D01*
G37*
G36*
X196115000Y-138040000D02*
X195285000Y-138040000D01*
X195285000Y-137260000D01*
X196115000Y-137260000D01*
X196115000Y-138040000D01*
X196115000Y-138040000D01*
G37*
G36*
X121979128Y-134826005D02*
X122270164Y-134885746D01*
X122544059Y-135000880D01*
X122790372Y-135167021D01*
X122999725Y-135377840D01*
X123164142Y-135625307D01*
X123277361Y-135899999D01*
X123334912Y-136190654D01*
X123334912Y-136190673D01*
X123335065Y-136191447D01*
X123330326Y-136530799D01*
X123330152Y-136531564D01*
X123330152Y-136531584D01*
X123264506Y-136820526D01*
X123143663Y-137091943D01*
X122972400Y-137334724D01*
X122757242Y-137539617D01*
X122506387Y-137698813D01*
X122229381Y-137806257D01*
X121936795Y-137857848D01*
X121639751Y-137851626D01*
X121349571Y-137787826D01*
X121077312Y-137668879D01*
X120833346Y-137499319D01*
X120626956Y-137285596D01*
X120466010Y-137035855D01*
X120356638Y-136759613D01*
X120303004Y-136467388D01*
X120307153Y-136170304D01*
X120368923Y-135879693D01*
X120485967Y-135606612D01*
X120653825Y-135361461D01*
X120866101Y-135153585D01*
X121114707Y-134990903D01*
X121390184Y-134879601D01*
X121682025Y-134823930D01*
X121979128Y-134826005D01*
X121979128Y-134826005D01*
G37*
G36*
X114359128Y-134826005D02*
X114650164Y-134885746D01*
X114924059Y-135000880D01*
X115170372Y-135167021D01*
X115379725Y-135377840D01*
X115544142Y-135625307D01*
X115657361Y-135899999D01*
X115714912Y-136190654D01*
X115714912Y-136190673D01*
X115715065Y-136191447D01*
X115710326Y-136530799D01*
X115710152Y-136531564D01*
X115710152Y-136531584D01*
X115644506Y-136820526D01*
X115523663Y-137091943D01*
X115352400Y-137334724D01*
X115137242Y-137539617D01*
X114886387Y-137698813D01*
X114609381Y-137806257D01*
X114316795Y-137857848D01*
X114019751Y-137851626D01*
X113729571Y-137787826D01*
X113457312Y-137668879D01*
X113213346Y-137499319D01*
X113006956Y-137285596D01*
X112846010Y-137035855D01*
X112736638Y-136759613D01*
X112683004Y-136467388D01*
X112687153Y-136170304D01*
X112748923Y-135879693D01*
X112865967Y-135606612D01*
X113033825Y-135361461D01*
X113246101Y-135153585D01*
X113494707Y-134990903D01*
X113770184Y-134879601D01*
X114062025Y-134823930D01*
X114359128Y-134826005D01*
X114359128Y-134826005D01*
G37*
G36*
X132139128Y-134826005D02*
X132430164Y-134885746D01*
X132704059Y-135000880D01*
X132950372Y-135167021D01*
X133159725Y-135377840D01*
X133324142Y-135625307D01*
X133437361Y-135899999D01*
X133494912Y-136190654D01*
X133494912Y-136190673D01*
X133495065Y-136191447D01*
X133490326Y-136530799D01*
X133490152Y-136531564D01*
X133490152Y-136531584D01*
X133424506Y-136820526D01*
X133303663Y-137091943D01*
X133132400Y-137334724D01*
X132917242Y-137539617D01*
X132666387Y-137698813D01*
X132389381Y-137806257D01*
X132096795Y-137857848D01*
X131799751Y-137851626D01*
X131509571Y-137787826D01*
X131237312Y-137668879D01*
X130993346Y-137499319D01*
X130786956Y-137285596D01*
X130626010Y-137035855D01*
X130516638Y-136759613D01*
X130463004Y-136467388D01*
X130467153Y-136170304D01*
X130528923Y-135879693D01*
X130645967Y-135606612D01*
X130813825Y-135361461D01*
X131026101Y-135153585D01*
X131274707Y-134990903D01*
X131550184Y-134879601D01*
X131842025Y-134823930D01*
X132139128Y-134826005D01*
X132139128Y-134826005D01*
G37*
G36*
X188915000Y-136590000D02*
X188085000Y-136590000D01*
X188085000Y-135810000D01*
X188915000Y-135810000D01*
X188915000Y-136590000D01*
X188915000Y-136590000D01*
G37*
G36*
X190415000Y-136590000D02*
X189585000Y-136590000D01*
X189585000Y-135810000D01*
X190415000Y-135810000D01*
X190415000Y-136590000D01*
X190415000Y-136590000D01*
G37*
G36*
X206215000Y-136540000D02*
X205385000Y-136540000D01*
X205385000Y-135760000D01*
X206215000Y-135760000D01*
X206215000Y-136540000D01*
X206215000Y-136540000D01*
G37*
G36*
X204715000Y-136540000D02*
X203885000Y-136540000D01*
X203885000Y-135760000D01*
X204715000Y-135760000D01*
X204715000Y-136540000D01*
X204715000Y-136540000D01*
G37*
G36*
X157040000Y-136415000D02*
X155760000Y-136415000D01*
X155760000Y-111585000D01*
X157040000Y-111585000D01*
X157040000Y-136415000D01*
X157040000Y-136415000D01*
G37*
G36*
X179265000Y-136415000D02*
X176735000Y-136415000D01*
X176735000Y-135385000D01*
X179265000Y-135385000D01*
X179265000Y-136415000D01*
X179265000Y-136415000D01*
G37*
G36*
X239130822Y-136132380D02*
X234976822Y-136132380D01*
X234976822Y-134589380D01*
X239130822Y-134589380D01*
X239130822Y-136132380D01*
X239130822Y-136132380D01*
G37*
G36*
X175215000Y-136115000D02*
X172685000Y-136115000D01*
X172685000Y-135085000D01*
X175215000Y-135085000D01*
X175215000Y-136115000D01*
X175215000Y-136115000D01*
G37*
G36*
X249465000Y-136024950D02*
X246554640Y-136024950D01*
X246554640Y-134874810D01*
X249465000Y-134874810D01*
X249465000Y-136024950D01*
X249465000Y-136024950D01*
G37*
G36*
X143765000Y-135790000D02*
X142935000Y-135790000D01*
X142935000Y-135010000D01*
X143765000Y-135010000D01*
X143765000Y-135790000D01*
X143765000Y-135790000D01*
G37*
G36*
X142265000Y-135790000D02*
X141435000Y-135790000D01*
X141435000Y-135010000D01*
X142265000Y-135010000D01*
X142265000Y-135790000D01*
X142265000Y-135790000D01*
G37*
G36*
X178715000Y-134740000D02*
X177885000Y-134740000D01*
X177885000Y-133960000D01*
X178715000Y-133960000D01*
X178715000Y-134740000D01*
X178715000Y-134740000D01*
G37*
G36*
X190215000Y-134740000D02*
X189385000Y-134740000D01*
X189385000Y-133960000D01*
X190215000Y-133960000D01*
X190215000Y-134740000D01*
X190215000Y-134740000D01*
G37*
G36*
X188715000Y-134740000D02*
X187885000Y-134740000D01*
X187885000Y-133960000D01*
X188715000Y-133960000D01*
X188715000Y-134740000D01*
X188715000Y-134740000D01*
G37*
G36*
X180215000Y-134740000D02*
X179385000Y-134740000D01*
X179385000Y-133960000D01*
X180215000Y-133960000D01*
X180215000Y-134740000D01*
X180215000Y-134740000D01*
G37*
G36*
X220540000Y-134385000D02*
X218960000Y-134385000D01*
X218960000Y-133755000D01*
X220540000Y-133755000D01*
X220540000Y-134385000D01*
X220540000Y-134385000D01*
G37*
G36*
X225940000Y-134385000D02*
X224360000Y-134385000D01*
X224360000Y-133755000D01*
X225940000Y-133755000D01*
X225940000Y-134385000D01*
X225940000Y-134385000D01*
G37*
G36*
X184940000Y-134015000D02*
X184160000Y-134015000D01*
X184160000Y-133185000D01*
X184940000Y-133185000D01*
X184940000Y-134015000D01*
X184940000Y-134015000D01*
G37*
G36*
X251752869Y-130841040D02*
X252048516Y-130901727D01*
X252326749Y-131018686D01*
X252576964Y-131187458D01*
X252789634Y-131401618D01*
X252956656Y-131653005D01*
X253071669Y-131932048D01*
X253130134Y-132227321D01*
X253130134Y-132227344D01*
X253130286Y-132228113D01*
X253125473Y-132572841D01*
X253125299Y-132573606D01*
X253125299Y-132573627D01*
X253058610Y-132867159D01*
X252935853Y-133142876D01*
X252761875Y-133389505D01*
X252543313Y-133597639D01*
X252288481Y-133759360D01*
X252007091Y-133868504D01*
X251709860Y-133920914D01*
X251408115Y-133914594D01*
X251113338Y-133849782D01*
X250836770Y-133728953D01*
X250588933Y-133556702D01*
X250379276Y-133339596D01*
X250215780Y-133085899D01*
X250104675Y-132805280D01*
X250050191Y-132508425D01*
X250054406Y-132206637D01*
X250117155Y-131911421D01*
X250236053Y-131634014D01*
X250406573Y-131384976D01*
X250622204Y-131173814D01*
X250874757Y-131008548D01*
X251154593Y-130895487D01*
X251451060Y-130838932D01*
X251752869Y-130841040D01*
X251752869Y-130841040D01*
G37*
G36*
X148663220Y-133607290D02*
X148033780Y-133607290D01*
X148033780Y-129952710D01*
X148663220Y-129952710D01*
X148663220Y-133607290D01*
X148663220Y-133607290D01*
G37*
G36*
X147266220Y-133607290D02*
X146636780Y-133607290D01*
X146636780Y-129952710D01*
X147266220Y-129952710D01*
X147266220Y-133607290D01*
X147266220Y-133607290D01*
G37*
G36*
X143865000Y-133595000D02*
X143335000Y-133595000D01*
X143335000Y-133065000D01*
X143865000Y-133065000D01*
X143865000Y-133595000D01*
X143865000Y-133595000D01*
G37*
G36*
X145465000Y-133595000D02*
X144935000Y-133595000D01*
X144935000Y-133065000D01*
X145465000Y-133065000D01*
X145465000Y-133595000D01*
X145465000Y-133595000D01*
G37*
G36*
X144665000Y-133595000D02*
X144135000Y-133595000D01*
X144135000Y-133065000D01*
X144665000Y-133065000D01*
X144665000Y-133595000D01*
X144665000Y-133595000D01*
G37*
G36*
X177040000Y-133565000D02*
X176260000Y-133565000D01*
X176260000Y-132735000D01*
X177040000Y-132735000D01*
X177040000Y-133565000D01*
X177040000Y-133565000D01*
G37*
G36*
X236115000Y-133515000D02*
X235685000Y-133515000D01*
X235685000Y-132885000D01*
X236115000Y-132885000D01*
X236115000Y-133515000D01*
X236115000Y-133515000D01*
G37*
G36*
X237015000Y-133515000D02*
X236585000Y-133515000D01*
X236585000Y-132885000D01*
X237015000Y-132885000D01*
X237015000Y-133515000D01*
X237015000Y-133515000D01*
G37*
G36*
X175215000Y-133115000D02*
X172685000Y-133115000D01*
X172685000Y-132085000D01*
X175215000Y-132085000D01*
X175215000Y-133115000D01*
X175215000Y-133115000D01*
G37*
G36*
X220540000Y-133115000D02*
X218960000Y-133115000D01*
X218960000Y-132485000D01*
X220540000Y-132485000D01*
X220540000Y-133115000D01*
X220540000Y-133115000D01*
G37*
G36*
X225940000Y-133115000D02*
X224360000Y-133115000D01*
X224360000Y-132485000D01*
X225940000Y-132485000D01*
X225940000Y-133115000D01*
X225940000Y-133115000D01*
G37*
G36*
X187940000Y-133015000D02*
X187160000Y-133015000D01*
X187160000Y-132185000D01*
X187940000Y-132185000D01*
X187940000Y-133015000D01*
X187940000Y-133015000D01*
G37*
G36*
X195240000Y-132965000D02*
X194460000Y-132965000D01*
X194460000Y-132135000D01*
X195240000Y-132135000D01*
X195240000Y-132965000D01*
X195240000Y-132965000D01*
G37*
G36*
X143865000Y-132795000D02*
X143335000Y-132795000D01*
X143335000Y-132265000D01*
X143865000Y-132265000D01*
X143865000Y-132795000D01*
X143865000Y-132795000D01*
G37*
G36*
X145465000Y-132795000D02*
X144935000Y-132795000D01*
X144935000Y-132265000D01*
X145465000Y-132265000D01*
X145465000Y-132795000D01*
X145465000Y-132795000D01*
G37*
G36*
X182215000Y-132740000D02*
X181385000Y-132740000D01*
X181385000Y-131960000D01*
X182215000Y-131960000D01*
X182215000Y-132740000D01*
X182215000Y-132740000D01*
G37*
G36*
X180715000Y-132740000D02*
X179885000Y-132740000D01*
X179885000Y-131960000D01*
X180715000Y-131960000D01*
X180715000Y-132740000D01*
X180715000Y-132740000D01*
G37*
G36*
X184940000Y-132515000D02*
X184160000Y-132515000D01*
X184160000Y-131685000D01*
X184940000Y-131685000D01*
X184940000Y-132515000D01*
X184940000Y-132515000D01*
G37*
G36*
X177040000Y-132065000D02*
X176260000Y-132065000D01*
X176260000Y-131235000D01*
X177040000Y-131235000D01*
X177040000Y-132065000D01*
X177040000Y-132065000D01*
G37*
G36*
X145465000Y-131995000D02*
X144935000Y-131995000D01*
X144935000Y-131465000D01*
X145465000Y-131465000D01*
X145465000Y-131995000D01*
X145465000Y-131995000D01*
G37*
G36*
X143865000Y-131995000D02*
X143335000Y-131995000D01*
X143335000Y-131465000D01*
X143865000Y-131465000D01*
X143865000Y-131995000D01*
X143865000Y-131995000D01*
G37*
G36*
X225940000Y-131845000D02*
X224360000Y-131845000D01*
X224360000Y-131215000D01*
X225940000Y-131215000D01*
X225940000Y-131845000D01*
X225940000Y-131845000D01*
G37*
G36*
X220540000Y-131845000D02*
X218960000Y-131845000D01*
X218960000Y-131215000D01*
X220540000Y-131215000D01*
X220540000Y-131845000D01*
X220540000Y-131845000D01*
G37*
G36*
X187940000Y-131515000D02*
X187160000Y-131515000D01*
X187160000Y-130685000D01*
X187940000Y-130685000D01*
X187940000Y-131515000D01*
X187940000Y-131515000D01*
G37*
G36*
X195240000Y-131465000D02*
X194460000Y-131465000D01*
X194460000Y-130635000D01*
X195240000Y-130635000D01*
X195240000Y-131465000D01*
X195240000Y-131465000D01*
G37*
G36*
X132144128Y-128236005D02*
X132435164Y-128295746D01*
X132709059Y-128410880D01*
X132955372Y-128577021D01*
X133164725Y-128787840D01*
X133329142Y-129035307D01*
X133442361Y-129309999D01*
X133499912Y-129600654D01*
X133499912Y-129600673D01*
X133500065Y-129601447D01*
X133495326Y-129940799D01*
X133495152Y-129941564D01*
X133495152Y-129941584D01*
X133429506Y-130230526D01*
X133308663Y-130501943D01*
X133137400Y-130744724D01*
X132922242Y-130949617D01*
X132671387Y-131108813D01*
X132394381Y-131216257D01*
X132101795Y-131267848D01*
X131804751Y-131261626D01*
X131514571Y-131197826D01*
X131242312Y-131078879D01*
X130998346Y-130909319D01*
X130791956Y-130695596D01*
X130631010Y-130445855D01*
X130521638Y-130169613D01*
X130468004Y-129877388D01*
X130472153Y-129580304D01*
X130533923Y-129289693D01*
X130650967Y-129016612D01*
X130818825Y-128771461D01*
X131031101Y-128563585D01*
X131279707Y-128400903D01*
X131555184Y-128289601D01*
X131847025Y-128233930D01*
X132144128Y-128236005D01*
X132144128Y-128236005D01*
G37*
G36*
X121984128Y-128236005D02*
X122275164Y-128295746D01*
X122549059Y-128410880D01*
X122795372Y-128577021D01*
X123004725Y-128787840D01*
X123169142Y-129035307D01*
X123282361Y-129309999D01*
X123339912Y-129600654D01*
X123339912Y-129600673D01*
X123340065Y-129601447D01*
X123335326Y-129940799D01*
X123335152Y-129941564D01*
X123335152Y-129941584D01*
X123269506Y-130230526D01*
X123148663Y-130501943D01*
X122977400Y-130744724D01*
X122762242Y-130949617D01*
X122511387Y-131108813D01*
X122234381Y-131216257D01*
X121941795Y-131267848D01*
X121644751Y-131261626D01*
X121354571Y-131197826D01*
X121082312Y-131078879D01*
X120838346Y-130909319D01*
X120631956Y-130695596D01*
X120471010Y-130445855D01*
X120361638Y-130169613D01*
X120308004Y-129877388D01*
X120312153Y-129580304D01*
X120373923Y-129289693D01*
X120490967Y-129016612D01*
X120658825Y-128771461D01*
X120871101Y-128563585D01*
X121119707Y-128400903D01*
X121395184Y-128289601D01*
X121687025Y-128233930D01*
X121984128Y-128236005D01*
X121984128Y-128236005D01*
G37*
G36*
X114364128Y-128236005D02*
X114655164Y-128295746D01*
X114929059Y-128410880D01*
X115175372Y-128577021D01*
X115384725Y-128787840D01*
X115549142Y-129035307D01*
X115662361Y-129309999D01*
X115719912Y-129600654D01*
X115719912Y-129600673D01*
X115720065Y-129601447D01*
X115715326Y-129940799D01*
X115715152Y-129941564D01*
X115715152Y-129941584D01*
X115649506Y-130230526D01*
X115528663Y-130501943D01*
X115357400Y-130744724D01*
X115142242Y-130949617D01*
X114891387Y-131108813D01*
X114614381Y-131216257D01*
X114321795Y-131267848D01*
X114024751Y-131261626D01*
X113734571Y-131197826D01*
X113462312Y-131078879D01*
X113218346Y-130909319D01*
X113011956Y-130695596D01*
X112851010Y-130445855D01*
X112741638Y-130169613D01*
X112688004Y-129877388D01*
X112692153Y-129580304D01*
X112753923Y-129289693D01*
X112870967Y-129016612D01*
X113038825Y-128771461D01*
X113251101Y-128563585D01*
X113499707Y-128400903D01*
X113775184Y-128289601D01*
X114067025Y-128233930D01*
X114364128Y-128236005D01*
X114364128Y-128236005D01*
G37*
G36*
X143865000Y-131195000D02*
X143335000Y-131195000D01*
X143335000Y-130665000D01*
X143865000Y-130665000D01*
X143865000Y-131195000D01*
X143865000Y-131195000D01*
G37*
G36*
X145465000Y-131195000D02*
X144935000Y-131195000D01*
X144935000Y-130665000D01*
X145465000Y-130665000D01*
X145465000Y-131195000D01*
X145465000Y-131195000D01*
G37*
G36*
X185940000Y-131015000D02*
X185160000Y-131015000D01*
X185160000Y-130185000D01*
X185940000Y-130185000D01*
X185940000Y-131015000D01*
X185940000Y-131015000D01*
G37*
G36*
X189940000Y-131015000D02*
X189160000Y-131015000D01*
X189160000Y-130185000D01*
X189940000Y-130185000D01*
X189940000Y-131015000D01*
X189940000Y-131015000D01*
G37*
G36*
X150915000Y-130865000D02*
X150285000Y-130865000D01*
X150285000Y-130435000D01*
X150915000Y-130435000D01*
X150915000Y-130865000D01*
X150915000Y-130865000D01*
G37*
G36*
X180215000Y-130740000D02*
X179385000Y-130740000D01*
X179385000Y-129960000D01*
X180215000Y-129960000D01*
X180215000Y-130740000D01*
X180215000Y-130740000D01*
G37*
G36*
X178715000Y-130740000D02*
X177885000Y-130740000D01*
X177885000Y-129960000D01*
X178715000Y-129960000D01*
X178715000Y-130740000D01*
X178715000Y-130740000D01*
G37*
G36*
X225940000Y-130575000D02*
X224360000Y-130575000D01*
X224360000Y-129945000D01*
X225940000Y-129945000D01*
X225940000Y-130575000D01*
X225940000Y-130575000D01*
G37*
G36*
X220540000Y-130575000D02*
X218960000Y-130575000D01*
X218960000Y-129945000D01*
X220540000Y-129945000D01*
X220540000Y-130575000D01*
X220540000Y-130575000D01*
G37*
G36*
X144665000Y-130395000D02*
X144135000Y-130395000D01*
X144135000Y-129865000D01*
X144665000Y-129865000D01*
X144665000Y-130395000D01*
X144665000Y-130395000D01*
G37*
G36*
X145465000Y-130395000D02*
X144935000Y-130395000D01*
X144935000Y-129865000D01*
X145465000Y-129865000D01*
X145465000Y-130395000D01*
X145465000Y-130395000D01*
G37*
G36*
X143865000Y-130395000D02*
X143335000Y-130395000D01*
X143335000Y-129865000D01*
X143865000Y-129865000D01*
X143865000Y-130395000D01*
X143865000Y-130395000D01*
G37*
G36*
X175515000Y-130390000D02*
X174685000Y-130390000D01*
X174685000Y-129610000D01*
X175515000Y-129610000D01*
X175515000Y-130390000D01*
X175515000Y-130390000D01*
G37*
G36*
X177015000Y-130390000D02*
X176185000Y-130390000D01*
X176185000Y-129610000D01*
X177015000Y-129610000D01*
X177015000Y-130390000D01*
X177015000Y-130390000D01*
G37*
G36*
X140690000Y-130265000D02*
X139910000Y-130265000D01*
X139910000Y-129435000D01*
X140690000Y-129435000D01*
X140690000Y-130265000D01*
X140690000Y-130265000D01*
G37*
G36*
X150915000Y-129965000D02*
X150285000Y-129965000D01*
X150285000Y-129535000D01*
X150915000Y-129535000D01*
X150915000Y-129965000D01*
X150915000Y-129965000D01*
G37*
G36*
X183715000Y-129740000D02*
X182885000Y-129740000D01*
X182885000Y-128960000D01*
X183715000Y-128960000D01*
X183715000Y-129740000D01*
X183715000Y-129740000D01*
G37*
G36*
X182215000Y-129740000D02*
X181385000Y-129740000D01*
X181385000Y-128960000D01*
X182215000Y-128960000D01*
X182215000Y-129740000D01*
X182215000Y-129740000D01*
G37*
G36*
X189940000Y-129515000D02*
X189160000Y-129515000D01*
X189160000Y-128685000D01*
X189940000Y-128685000D01*
X189940000Y-129515000D01*
X189940000Y-129515000D01*
G37*
G36*
X185940000Y-129515000D02*
X185160000Y-129515000D01*
X185160000Y-128685000D01*
X185940000Y-128685000D01*
X185940000Y-129515000D01*
X185940000Y-129515000D01*
G37*
G36*
X149265000Y-129315000D02*
X148835000Y-129315000D01*
X148835000Y-128685000D01*
X149265000Y-128685000D01*
X149265000Y-129315000D01*
X149265000Y-129315000D01*
G37*
G36*
X148365000Y-129315000D02*
X147935000Y-129315000D01*
X147935000Y-128685000D01*
X148365000Y-128685000D01*
X148365000Y-129315000D01*
X148365000Y-129315000D01*
G37*
G36*
X227365000Y-129115000D02*
X226935000Y-129115000D01*
X226935000Y-128485000D01*
X227365000Y-128485000D01*
X227365000Y-129115000D01*
X227365000Y-129115000D01*
G37*
G36*
X226465000Y-129115000D02*
X226035000Y-129115000D01*
X226035000Y-128485000D01*
X226465000Y-128485000D01*
X226465000Y-129115000D01*
X226465000Y-129115000D01*
G37*
G36*
X143915000Y-129065000D02*
X143285000Y-129065000D01*
X143285000Y-128635000D01*
X143915000Y-128635000D01*
X143915000Y-129065000D01*
X143915000Y-129065000D01*
G37*
G36*
X187940000Y-129015000D02*
X187160000Y-129015000D01*
X187160000Y-128185000D01*
X187940000Y-128185000D01*
X187940000Y-129015000D01*
X187940000Y-129015000D01*
G37*
G36*
X222065000Y-128940000D02*
X221235000Y-128940000D01*
X221235000Y-128160000D01*
X222065000Y-128160000D01*
X222065000Y-128940000D01*
X222065000Y-128940000D01*
G37*
G36*
X223565000Y-128940000D02*
X222735000Y-128940000D01*
X222735000Y-128160000D01*
X223565000Y-128160000D01*
X223565000Y-128940000D01*
X223565000Y-128940000D01*
G37*
G36*
X140690000Y-128765000D02*
X139910000Y-128765000D01*
X139910000Y-127935000D01*
X140690000Y-127935000D01*
X140690000Y-128765000D01*
X140690000Y-128765000D01*
G37*
G36*
X217315000Y-128690000D02*
X216485000Y-128690000D01*
X216485000Y-127910000D01*
X217315000Y-127910000D01*
X217315000Y-128690000D01*
X217315000Y-128690000D01*
G37*
G36*
X218815000Y-128690000D02*
X217985000Y-128690000D01*
X217985000Y-127910000D01*
X218815000Y-127910000D01*
X218815000Y-128690000D01*
X218815000Y-128690000D01*
G37*
G36*
X233165000Y-128340000D02*
X232335000Y-128340000D01*
X232335000Y-127560000D01*
X233165000Y-127560000D01*
X233165000Y-128340000D01*
X233165000Y-128340000D01*
G37*
G36*
X234665000Y-128340000D02*
X233835000Y-128340000D01*
X233835000Y-127560000D01*
X234665000Y-127560000D01*
X234665000Y-128340000D01*
X234665000Y-128340000D01*
G37*
G36*
X143915000Y-128165000D02*
X143285000Y-128165000D01*
X143285000Y-127735000D01*
X143915000Y-127735000D01*
X143915000Y-128165000D01*
X143915000Y-128165000D01*
G37*
G36*
X148442114Y-128080878D02*
X146712854Y-128080878D01*
X146712854Y-125350858D01*
X148442114Y-125350858D01*
X148442114Y-128080878D01*
X148442114Y-128080878D01*
G37*
G36*
X152394354Y-128080878D02*
X150665094Y-128080878D01*
X150665094Y-125350858D01*
X152394354Y-125350858D01*
X152394354Y-128080878D01*
X152394354Y-128080878D01*
G37*
G36*
X150218844Y-128080878D02*
X148888364Y-128080878D01*
X148888364Y-125350858D01*
X150218844Y-125350858D01*
X150218844Y-128080878D01*
X150218844Y-128080878D01*
G37*
G36*
X183890000Y-128065000D02*
X183110000Y-128065000D01*
X183110000Y-127235000D01*
X183890000Y-127235000D01*
X183890000Y-128065000D01*
X183890000Y-128065000D01*
G37*
G36*
X138740000Y-128065000D02*
X137960000Y-128065000D01*
X137960000Y-127235000D01*
X138740000Y-127235000D01*
X138740000Y-128065000D01*
X138740000Y-128065000D01*
G37*
G36*
X179940000Y-128015000D02*
X179160000Y-128015000D01*
X179160000Y-127185000D01*
X179940000Y-127185000D01*
X179940000Y-128015000D01*
X179940000Y-128015000D01*
G37*
G36*
X226515000Y-127865000D02*
X225885000Y-127865000D01*
X225885000Y-127335000D01*
X226515000Y-127335000D01*
X226515000Y-127865000D01*
X226515000Y-127865000D01*
G37*
G36*
X225415000Y-127865000D02*
X224785000Y-127865000D01*
X224785000Y-127335000D01*
X225415000Y-127335000D01*
X225415000Y-127865000D01*
X225415000Y-127865000D01*
G37*
G36*
X187940000Y-127515000D02*
X187160000Y-127515000D01*
X187160000Y-126685000D01*
X187940000Y-126685000D01*
X187940000Y-127515000D01*
X187940000Y-127515000D01*
G37*
G36*
X218165000Y-127290000D02*
X217335000Y-127290000D01*
X217335000Y-126510000D01*
X218165000Y-126510000D01*
X218165000Y-127290000D01*
X218165000Y-127290000D01*
G37*
G36*
X219665000Y-127290000D02*
X218835000Y-127290000D01*
X218835000Y-126510000D01*
X219665000Y-126510000D01*
X219665000Y-127290000D01*
X219665000Y-127290000D01*
G37*
G36*
X252250407Y-123463266D02*
X252616940Y-123538504D01*
X252961884Y-123683505D01*
X253272092Y-123892744D01*
X253535752Y-124158251D01*
X253742820Y-124469912D01*
X253885409Y-124815860D01*
X253957930Y-125182118D01*
X253957930Y-125182142D01*
X253958082Y-125182911D01*
X253952114Y-125610293D01*
X253951940Y-125611058D01*
X253951940Y-125611079D01*
X253869219Y-125975177D01*
X253717029Y-126317002D01*
X253501339Y-126622760D01*
X253230368Y-126880804D01*
X252914439Y-127081297D01*
X252565583Y-127216610D01*
X252197087Y-127281586D01*
X251822993Y-127273750D01*
X251457539Y-127193400D01*
X251114656Y-127043598D01*
X250807403Y-126830052D01*
X250547474Y-126560888D01*
X250344778Y-126246366D01*
X250207033Y-125898460D01*
X250139487Y-125530432D01*
X250144712Y-125156286D01*
X250222508Y-124790285D01*
X250369912Y-124446365D01*
X250581310Y-124137626D01*
X250848653Y-123875825D01*
X251161752Y-123670938D01*
X251508687Y-123530767D01*
X251876235Y-123460653D01*
X252250407Y-123463266D01*
X252250407Y-123463266D01*
G37*
G36*
X127116645Y-122986337D02*
X127503734Y-123065795D01*
X127868022Y-123218927D01*
X128195626Y-123439900D01*
X128474073Y-123720296D01*
X128692752Y-124049435D01*
X128843338Y-124414784D01*
X128919935Y-124801626D01*
X128919935Y-124801650D01*
X128920087Y-124802419D01*
X128913784Y-125253768D01*
X128913611Y-125254528D01*
X128913611Y-125254553D01*
X128826240Y-125639115D01*
X128665515Y-126000109D01*
X128437728Y-126323018D01*
X128151566Y-126595527D01*
X127817917Y-126807266D01*
X127449497Y-126950168D01*
X127060335Y-127018787D01*
X126665263Y-127010512D01*
X126279314Y-126925655D01*
X125917204Y-126767454D01*
X125592716Y-126541929D01*
X125318213Y-126257673D01*
X125104149Y-125925510D01*
X124958681Y-125558099D01*
X124887346Y-125169429D01*
X124892864Y-124774300D01*
X124975021Y-124387776D01*
X125130695Y-124024565D01*
X125353946Y-123698515D01*
X125636282Y-123422032D01*
X125966941Y-123205654D01*
X126333328Y-123057624D01*
X126721490Y-122983578D01*
X127116645Y-122986337D01*
X127116645Y-122986337D01*
G37*
G36*
X233165000Y-126890000D02*
X232335000Y-126890000D01*
X232335000Y-126110000D01*
X233165000Y-126110000D01*
X233165000Y-126890000D01*
X233165000Y-126890000D01*
G37*
G36*
X231665000Y-126890000D02*
X230835000Y-126890000D01*
X230835000Y-126110000D01*
X231665000Y-126110000D01*
X231665000Y-126890000D01*
X231665000Y-126890000D01*
G37*
G36*
X191715000Y-126740000D02*
X190885000Y-126740000D01*
X190885000Y-125960000D01*
X191715000Y-125960000D01*
X191715000Y-126740000D01*
X191715000Y-126740000D01*
G37*
G36*
X193215000Y-126740000D02*
X192385000Y-126740000D01*
X192385000Y-125960000D01*
X193215000Y-125960000D01*
X193215000Y-126740000D01*
X193215000Y-126740000D01*
G37*
G36*
X183890000Y-126565000D02*
X183110000Y-126565000D01*
X183110000Y-125735000D01*
X183890000Y-125735000D01*
X183890000Y-126565000D01*
X183890000Y-126565000D01*
G37*
G36*
X138740000Y-126565000D02*
X137960000Y-126565000D01*
X137960000Y-125735000D01*
X138740000Y-125735000D01*
X138740000Y-126565000D01*
X138740000Y-126565000D01*
G37*
G36*
X179940000Y-126515000D02*
X179160000Y-126515000D01*
X179160000Y-125685000D01*
X179940000Y-125685000D01*
X179940000Y-126515000D01*
X179940000Y-126515000D01*
G37*
G36*
X177315000Y-126190000D02*
X176485000Y-126190000D01*
X176485000Y-125410000D01*
X177315000Y-125410000D01*
X177315000Y-126190000D01*
X177315000Y-126190000D01*
G37*
G36*
X175815000Y-126190000D02*
X174985000Y-126190000D01*
X174985000Y-125410000D01*
X175815000Y-125410000D01*
X175815000Y-126190000D01*
X175815000Y-126190000D01*
G37*
G36*
X145565000Y-125965000D02*
X144935000Y-125965000D01*
X144935000Y-125535000D01*
X145565000Y-125535000D01*
X145565000Y-125965000D01*
X145565000Y-125965000D01*
G37*
G36*
X186715000Y-125740000D02*
X185885000Y-125740000D01*
X185885000Y-124960000D01*
X186715000Y-124960000D01*
X186715000Y-125740000D01*
X186715000Y-125740000D01*
G37*
G36*
X188215000Y-125740000D02*
X187385000Y-125740000D01*
X187385000Y-124960000D01*
X188215000Y-124960000D01*
X188215000Y-125740000D01*
X188215000Y-125740000D01*
G37*
G36*
X233165000Y-125465000D02*
X232535000Y-125465000D01*
X232535000Y-124635000D01*
X233165000Y-124635000D01*
X233165000Y-125465000D01*
X233165000Y-125465000D01*
G37*
G36*
X231465000Y-125465000D02*
X230835000Y-125465000D01*
X230835000Y-124635000D01*
X231465000Y-124635000D01*
X231465000Y-125465000D01*
X231465000Y-125465000D01*
G37*
G36*
X236240000Y-125415000D02*
X235460000Y-125415000D01*
X235460000Y-124585000D01*
X236240000Y-124585000D01*
X236240000Y-125415000D01*
X236240000Y-125415000D01*
G37*
G36*
X234765000Y-125415000D02*
X233935000Y-125415000D01*
X233935000Y-124785000D01*
X234765000Y-124785000D01*
X234765000Y-125415000D01*
X234765000Y-125415000D01*
G37*
G36*
X145565000Y-125065000D02*
X144935000Y-125065000D01*
X144935000Y-124635000D01*
X145565000Y-124635000D01*
X145565000Y-125065000D01*
X145565000Y-125065000D01*
G37*
G36*
X185215000Y-124740000D02*
X184385000Y-124740000D01*
X184385000Y-123960000D01*
X185215000Y-123960000D01*
X185215000Y-124740000D01*
X185215000Y-124740000D01*
G37*
G36*
X183715000Y-124740000D02*
X182885000Y-124740000D01*
X182885000Y-123960000D01*
X183715000Y-123960000D01*
X183715000Y-124740000D01*
X183715000Y-124740000D01*
G37*
G36*
X229115000Y-124465000D02*
X228485000Y-124465000D01*
X228485000Y-123935000D01*
X229115000Y-123935000D01*
X229115000Y-124465000D01*
X229115000Y-124465000D01*
G37*
G36*
X230215000Y-124465000D02*
X229585000Y-124465000D01*
X229585000Y-123935000D01*
X230215000Y-123935000D01*
X230215000Y-124465000D01*
X230215000Y-124465000D01*
G37*
G36*
X245429701Y-120996564D02*
X245593755Y-121030239D01*
X245748150Y-121095141D01*
X245886996Y-121188794D01*
X246005008Y-121307633D01*
X246097689Y-121447128D01*
X246161513Y-121601974D01*
X246193884Y-121765468D01*
X246193884Y-121765492D01*
X246194036Y-121766261D01*
X246191365Y-121957552D01*
X246191192Y-121958312D01*
X246191192Y-121958338D01*
X246154264Y-122120873D01*
X246086145Y-122273872D01*
X245989609Y-122410720D01*
X245868320Y-122526222D01*
X245726913Y-122615962D01*
X245718162Y-122619356D01*
X245690110Y-122635090D01*
X245667552Y-122658016D01*
X245652274Y-122686318D01*
X245645486Y-122717757D01*
X245647725Y-122749842D01*
X245658815Y-122780033D01*
X245677876Y-122805939D01*
X245715200Y-122831290D01*
X245748151Y-122845142D01*
X245886996Y-122938794D01*
X246005008Y-123057633D01*
X246097689Y-123197128D01*
X246161513Y-123351974D01*
X246193884Y-123515468D01*
X246193884Y-123515492D01*
X246194036Y-123516261D01*
X246191365Y-123707552D01*
X246191192Y-123708312D01*
X246191192Y-123708338D01*
X246154264Y-123870873D01*
X246086145Y-124023872D01*
X245989609Y-124160720D01*
X245868320Y-124276222D01*
X245726915Y-124365960D01*
X245570770Y-124426525D01*
X245405833Y-124455607D01*
X245238395Y-124452101D01*
X245074819Y-124416136D01*
X244921351Y-124349087D01*
X244783825Y-124253504D01*
X244667484Y-124133029D01*
X244576760Y-123992255D01*
X244515105Y-123836531D01*
X244484873Y-123671808D01*
X244487212Y-123504342D01*
X244522031Y-123340527D01*
X244588009Y-123186589D01*
X244682630Y-123048398D01*
X244802285Y-122931224D01*
X244942428Y-122839517D01*
X244965280Y-122830284D01*
X244993110Y-122814160D01*
X245015345Y-122790921D01*
X245030227Y-122762407D01*
X245036575Y-122730877D01*
X245033888Y-122698826D01*
X245022378Y-122668793D01*
X245002957Y-122643155D01*
X244968225Y-122619566D01*
X244921349Y-122599086D01*
X244783825Y-122503504D01*
X244667484Y-122383029D01*
X244576760Y-122242255D01*
X244515105Y-122086531D01*
X244484873Y-121921808D01*
X244487212Y-121754342D01*
X244522031Y-121590527D01*
X244588009Y-121436589D01*
X244682630Y-121298398D01*
X244802285Y-121181224D01*
X244942431Y-121089515D01*
X245097713Y-121026777D01*
X245262224Y-120995394D01*
X245429701Y-120996564D01*
X245429701Y-120996564D01*
G37*
G36*
X141191406Y-124417566D02*
X140361406Y-124417566D01*
X140361406Y-123637566D01*
X141191406Y-123637566D01*
X141191406Y-124417566D01*
X141191406Y-124417566D01*
G37*
G36*
X142691406Y-124417566D02*
X141861406Y-124417566D01*
X141861406Y-123637566D01*
X142691406Y-123637566D01*
X142691406Y-124417566D01*
X142691406Y-124417566D01*
G37*
G36*
X236240000Y-123915000D02*
X235460000Y-123915000D01*
X235460000Y-123085000D01*
X236240000Y-123085000D01*
X236240000Y-123915000D01*
X236240000Y-123915000D01*
G37*
G36*
X233165000Y-123740000D02*
X232335000Y-123740000D01*
X232335000Y-122960000D01*
X233165000Y-122960000D01*
X233165000Y-123740000D01*
X233165000Y-123740000D01*
G37*
G36*
X231665000Y-123740000D02*
X230835000Y-123740000D01*
X230835000Y-122960000D01*
X231665000Y-122960000D01*
X231665000Y-123740000D01*
X231665000Y-123740000D01*
G37*
G36*
X234765000Y-123715000D02*
X233935000Y-123715000D01*
X233935000Y-123085000D01*
X234765000Y-123085000D01*
X234765000Y-123715000D01*
X234765000Y-123715000D01*
G37*
G36*
X230090000Y-123365000D02*
X229310000Y-123365000D01*
X229310000Y-122535000D01*
X230090000Y-122535000D01*
X230090000Y-123365000D01*
X230090000Y-123365000D01*
G37*
G36*
X183940000Y-123015000D02*
X183160000Y-123015000D01*
X183160000Y-122185000D01*
X183940000Y-122185000D01*
X183940000Y-123015000D01*
X183940000Y-123015000D01*
G37*
G36*
X175915000Y-122740000D02*
X175085000Y-122740000D01*
X175085000Y-121960000D01*
X175915000Y-121960000D01*
X175915000Y-122740000D01*
X175915000Y-122740000D01*
G37*
G36*
X177415000Y-122740000D02*
X176585000Y-122740000D01*
X176585000Y-121960000D01*
X177415000Y-121960000D01*
X177415000Y-122740000D01*
X177415000Y-122740000D01*
G37*
G36*
X191715000Y-122740000D02*
X190885000Y-122740000D01*
X190885000Y-121960000D01*
X191715000Y-121960000D01*
X191715000Y-122740000D01*
X191715000Y-122740000D01*
G37*
G36*
X193215000Y-122740000D02*
X192385000Y-122740000D01*
X192385000Y-121960000D01*
X193215000Y-121960000D01*
X193215000Y-122740000D01*
X193215000Y-122740000D01*
G37*
G36*
X185715000Y-122690000D02*
X184885000Y-122690000D01*
X184885000Y-121910000D01*
X185715000Y-121910000D01*
X185715000Y-122690000D01*
X185715000Y-122690000D01*
G37*
G36*
X187215000Y-122690000D02*
X186385000Y-122690000D01*
X186385000Y-121910000D01*
X187215000Y-121910000D01*
X187215000Y-122690000D01*
X187215000Y-122690000D01*
G37*
G36*
X152394354Y-122579238D02*
X150665094Y-122579238D01*
X150665094Y-119849218D01*
X152394354Y-119849218D01*
X152394354Y-122579238D01*
X152394354Y-122579238D01*
G37*
G36*
X150218844Y-122579238D02*
X148888364Y-122579238D01*
X148888364Y-119849218D01*
X150218844Y-119849218D01*
X150218844Y-122579238D01*
X150218844Y-122579238D01*
G37*
G36*
X148442114Y-122579238D02*
X146712854Y-122579238D01*
X146712854Y-119849218D01*
X148442114Y-119849218D01*
X148442114Y-122579238D01*
X148442114Y-122579238D01*
G37*
G36*
X224915000Y-122265000D02*
X224385000Y-122265000D01*
X224385000Y-121635000D01*
X224915000Y-121635000D01*
X224915000Y-122265000D01*
X224915000Y-122265000D01*
G37*
G36*
X233165000Y-122190000D02*
X232335000Y-122190000D01*
X232335000Y-121410000D01*
X233165000Y-121410000D01*
X233165000Y-122190000D01*
X233165000Y-122190000D01*
G37*
G36*
X231665000Y-122190000D02*
X230835000Y-122190000D01*
X230835000Y-121410000D01*
X231665000Y-121410000D01*
X231665000Y-122190000D01*
X231665000Y-122190000D01*
G37*
G36*
X188940000Y-122015000D02*
X188160000Y-122015000D01*
X188160000Y-121185000D01*
X188940000Y-121185000D01*
X188940000Y-122015000D01*
X188940000Y-122015000D01*
G37*
G36*
X230090000Y-121865000D02*
X229310000Y-121865000D01*
X229310000Y-121035000D01*
X230090000Y-121035000D01*
X230090000Y-121865000D01*
X230090000Y-121865000D01*
G37*
G36*
X183940000Y-121515000D02*
X183160000Y-121515000D01*
X183160000Y-120685000D01*
X183940000Y-120685000D01*
X183940000Y-121515000D01*
X183940000Y-121515000D01*
G37*
G36*
X247429701Y-119746564D02*
X247593755Y-119780239D01*
X247748150Y-119845141D01*
X247886996Y-119938794D01*
X248005008Y-120057633D01*
X248097689Y-120197128D01*
X248161513Y-120351974D01*
X248193884Y-120515468D01*
X248193884Y-120515492D01*
X248194036Y-120516261D01*
X248191365Y-120707552D01*
X248191192Y-120708312D01*
X248191192Y-120708338D01*
X248154264Y-120870873D01*
X248086145Y-121023872D01*
X247989609Y-121160720D01*
X247868320Y-121276222D01*
X247726915Y-121365960D01*
X247570770Y-121426525D01*
X247405833Y-121455607D01*
X247238395Y-121452101D01*
X247074819Y-121416136D01*
X246921351Y-121349087D01*
X246783825Y-121253504D01*
X246667484Y-121133029D01*
X246576760Y-120992255D01*
X246515105Y-120836531D01*
X246484873Y-120671808D01*
X246487212Y-120504342D01*
X246522031Y-120340527D01*
X246588009Y-120186589D01*
X246682630Y-120048398D01*
X246802285Y-119931224D01*
X246942431Y-119839515D01*
X247097713Y-119776777D01*
X247262224Y-119745394D01*
X247429701Y-119746564D01*
X247429701Y-119746564D01*
G37*
G36*
X249429701Y-119746564D02*
X249593755Y-119780239D01*
X249748150Y-119845141D01*
X249886996Y-119938794D01*
X250005008Y-120057633D01*
X250097689Y-120197128D01*
X250161513Y-120351974D01*
X250193884Y-120515468D01*
X250193884Y-120515492D01*
X250194036Y-120516261D01*
X250191365Y-120707552D01*
X250191192Y-120708312D01*
X250191192Y-120708338D01*
X250154264Y-120870873D01*
X250086145Y-121023872D01*
X249989609Y-121160720D01*
X249868320Y-121276222D01*
X249726915Y-121365960D01*
X249570770Y-121426525D01*
X249405833Y-121455607D01*
X249238395Y-121452101D01*
X249074819Y-121416136D01*
X248921351Y-121349087D01*
X248783825Y-121253504D01*
X248667484Y-121133029D01*
X248576760Y-120992255D01*
X248515105Y-120836531D01*
X248484873Y-120671808D01*
X248487212Y-120504342D01*
X248522031Y-120340527D01*
X248588009Y-120186589D01*
X248682630Y-120048398D01*
X248802285Y-119931224D01*
X248942431Y-119839515D01*
X249097713Y-119776777D01*
X249262224Y-119745394D01*
X249429701Y-119746564D01*
X249429701Y-119746564D01*
G37*
G36*
X121984128Y-118326005D02*
X122275164Y-118385746D01*
X122549059Y-118500880D01*
X122795372Y-118667021D01*
X123004725Y-118877840D01*
X123169142Y-119125307D01*
X123282361Y-119399999D01*
X123339912Y-119690654D01*
X123339912Y-119690673D01*
X123340065Y-119691447D01*
X123335326Y-120030799D01*
X123335152Y-120031564D01*
X123335152Y-120031584D01*
X123269506Y-120320526D01*
X123148663Y-120591943D01*
X122977400Y-120834724D01*
X122762242Y-121039617D01*
X122511387Y-121198813D01*
X122234381Y-121306257D01*
X121941795Y-121357848D01*
X121644751Y-121351626D01*
X121354571Y-121287826D01*
X121082312Y-121168879D01*
X120838346Y-120999319D01*
X120631956Y-120785596D01*
X120471010Y-120535855D01*
X120361638Y-120259613D01*
X120308004Y-119967388D01*
X120312153Y-119670304D01*
X120373923Y-119379693D01*
X120490967Y-119106612D01*
X120658825Y-118861461D01*
X120871101Y-118653585D01*
X121119707Y-118490903D01*
X121395184Y-118379601D01*
X121687025Y-118323930D01*
X121984128Y-118326005D01*
X121984128Y-118326005D01*
G37*
G36*
X114364128Y-118326005D02*
X114655164Y-118385746D01*
X114929059Y-118500880D01*
X115175372Y-118667021D01*
X115384725Y-118877840D01*
X115549142Y-119125307D01*
X115662361Y-119399999D01*
X115719912Y-119690654D01*
X115719912Y-119690673D01*
X115720065Y-119691447D01*
X115715326Y-120030799D01*
X115715152Y-120031564D01*
X115715152Y-120031584D01*
X115649506Y-120320526D01*
X115528663Y-120591943D01*
X115357400Y-120834724D01*
X115142242Y-121039617D01*
X114891387Y-121198813D01*
X114614381Y-121306257D01*
X114321795Y-121357848D01*
X114024751Y-121351626D01*
X113734571Y-121287826D01*
X113462312Y-121168879D01*
X113218346Y-120999319D01*
X113011956Y-120785596D01*
X112851010Y-120535855D01*
X112741638Y-120259613D01*
X112688004Y-119967388D01*
X112692153Y-119670304D01*
X112753923Y-119379693D01*
X112870967Y-119106612D01*
X113038825Y-118861461D01*
X113251101Y-118653585D01*
X113499707Y-118490903D01*
X113775184Y-118379601D01*
X114067025Y-118323930D01*
X114364128Y-118326005D01*
X114364128Y-118326005D01*
G37*
G36*
X132144128Y-118326005D02*
X132435164Y-118385746D01*
X132709059Y-118500880D01*
X132955372Y-118667021D01*
X133164725Y-118877840D01*
X133329142Y-119125307D01*
X133442361Y-119399999D01*
X133499912Y-119690654D01*
X133499912Y-119690673D01*
X133500065Y-119691447D01*
X133495326Y-120030799D01*
X133495152Y-120031564D01*
X133495152Y-120031584D01*
X133429506Y-120320526D01*
X133308663Y-120591943D01*
X133137400Y-120834724D01*
X132922242Y-121039617D01*
X132671387Y-121198813D01*
X132394381Y-121306257D01*
X132101795Y-121357848D01*
X131804751Y-121351626D01*
X131514571Y-121287826D01*
X131242312Y-121168879D01*
X130998346Y-120999319D01*
X130791956Y-120785596D01*
X130631010Y-120535855D01*
X130521638Y-120259613D01*
X130468004Y-119967388D01*
X130472153Y-119670304D01*
X130533923Y-119379693D01*
X130650967Y-119106612D01*
X130818825Y-118861461D01*
X131031101Y-118653585D01*
X131279707Y-118490903D01*
X131555184Y-118379601D01*
X131847025Y-118323930D01*
X132144128Y-118326005D01*
X132144128Y-118326005D01*
G37*
G36*
X224915000Y-121165000D02*
X224385000Y-121165000D01*
X224385000Y-120535000D01*
X224915000Y-120535000D01*
X224915000Y-121165000D01*
X224915000Y-121165000D01*
G37*
G36*
X175815000Y-120740000D02*
X174985000Y-120740000D01*
X174985000Y-119960000D01*
X175815000Y-119960000D01*
X175815000Y-120740000D01*
X175815000Y-120740000D01*
G37*
G36*
X177315000Y-120740000D02*
X176485000Y-120740000D01*
X176485000Y-119960000D01*
X177315000Y-119960000D01*
X177315000Y-120740000D01*
X177315000Y-120740000D01*
G37*
G36*
X188940000Y-120515000D02*
X188160000Y-120515000D01*
X188160000Y-119685000D01*
X188940000Y-119685000D01*
X188940000Y-120515000D01*
X188940000Y-120515000D01*
G37*
G36*
X245429701Y-118496564D02*
X245593755Y-118530239D01*
X245748150Y-118595141D01*
X245886996Y-118688794D01*
X246005008Y-118807633D01*
X246097689Y-118947128D01*
X246161513Y-119101974D01*
X246193884Y-119265468D01*
X246193884Y-119265492D01*
X246194036Y-119266261D01*
X246191365Y-119457552D01*
X246191192Y-119458312D01*
X246191192Y-119458338D01*
X246154264Y-119620873D01*
X246086145Y-119773872D01*
X245989609Y-119910720D01*
X245868320Y-120026222D01*
X245726915Y-120115960D01*
X245570770Y-120176525D01*
X245405833Y-120205607D01*
X245238395Y-120202101D01*
X245074819Y-120166136D01*
X244921351Y-120099087D01*
X244783825Y-120003504D01*
X244667484Y-119883029D01*
X244576760Y-119742255D01*
X244515105Y-119586531D01*
X244484873Y-119421808D01*
X244487212Y-119254342D01*
X244522031Y-119090527D01*
X244588009Y-118936589D01*
X244682630Y-118798398D01*
X244802285Y-118681224D01*
X244942431Y-118589515D01*
X245097713Y-118526777D01*
X245262224Y-118495394D01*
X245429701Y-118496564D01*
X245429701Y-118496564D01*
G37*
G36*
X221915000Y-119790000D02*
X221085000Y-119790000D01*
X221085000Y-119010000D01*
X221915000Y-119010000D01*
X221915000Y-119790000D01*
X221915000Y-119790000D01*
G37*
G36*
X223415000Y-119790000D02*
X222585000Y-119790000D01*
X222585000Y-119010000D01*
X223415000Y-119010000D01*
X223415000Y-119790000D01*
X223415000Y-119790000D01*
G37*
G36*
X142940000Y-119765000D02*
X139160000Y-119765000D01*
X139160000Y-119035000D01*
X142940000Y-119035000D01*
X142940000Y-119765000D01*
X142940000Y-119765000D01*
G37*
G36*
X187215000Y-119740000D02*
X186385000Y-119740000D01*
X186385000Y-118960000D01*
X187215000Y-118960000D01*
X187215000Y-119740000D01*
X187215000Y-119740000D01*
G37*
G36*
X185715000Y-119740000D02*
X184885000Y-119740000D01*
X184885000Y-118960000D01*
X185715000Y-118960000D01*
X185715000Y-119740000D01*
X185715000Y-119740000D01*
G37*
G36*
X224815000Y-119665000D02*
X224185000Y-119665000D01*
X224185000Y-119135000D01*
X224815000Y-119135000D01*
X224815000Y-119665000D01*
X224815000Y-119665000D01*
G37*
G36*
X227215000Y-119665000D02*
X226585000Y-119665000D01*
X226585000Y-119135000D01*
X227215000Y-119135000D01*
X227215000Y-119665000D01*
X227215000Y-119665000D01*
G37*
G36*
X228315000Y-119665000D02*
X227685000Y-119665000D01*
X227685000Y-119135000D01*
X228315000Y-119135000D01*
X228315000Y-119665000D01*
X228315000Y-119665000D01*
G37*
G36*
X225915000Y-119665000D02*
X225285000Y-119665000D01*
X225285000Y-119135000D01*
X225915000Y-119135000D01*
X225915000Y-119665000D01*
X225915000Y-119665000D01*
G37*
G36*
X149665000Y-119015000D02*
X149235000Y-119015000D01*
X149235000Y-118385000D01*
X149665000Y-118385000D01*
X149665000Y-119015000D01*
X149665000Y-119015000D01*
G37*
G36*
X150565000Y-119015000D02*
X150135000Y-119015000D01*
X150135000Y-118385000D01*
X150565000Y-118385000D01*
X150565000Y-119015000D01*
X150565000Y-119015000D01*
G37*
G36*
X249429701Y-117246564D02*
X249593755Y-117280239D01*
X249748150Y-117345141D01*
X249886996Y-117438794D01*
X250005008Y-117557633D01*
X250097689Y-117697128D01*
X250161513Y-117851974D01*
X250193884Y-118015468D01*
X250193884Y-118015492D01*
X250194036Y-118016261D01*
X250191365Y-118207552D01*
X250191192Y-118208312D01*
X250191192Y-118208338D01*
X250154264Y-118370873D01*
X250086145Y-118523872D01*
X249989609Y-118660720D01*
X249868320Y-118776222D01*
X249726915Y-118865960D01*
X249570770Y-118926525D01*
X249405833Y-118955607D01*
X249238395Y-118952101D01*
X249074819Y-118916136D01*
X248921351Y-118849087D01*
X248783825Y-118753504D01*
X248667484Y-118633029D01*
X248576760Y-118492255D01*
X248515105Y-118336531D01*
X248484873Y-118171808D01*
X248487212Y-118004342D01*
X248522031Y-117840527D01*
X248588009Y-117686589D01*
X248682630Y-117548398D01*
X248802285Y-117431224D01*
X248942431Y-117339515D01*
X249097713Y-117276777D01*
X249262224Y-117245394D01*
X249429701Y-117246564D01*
X249429701Y-117246564D01*
G37*
G36*
X247429701Y-117246564D02*
X247593755Y-117280239D01*
X247748150Y-117345141D01*
X247886996Y-117438794D01*
X248005008Y-117557633D01*
X248097689Y-117697128D01*
X248161513Y-117851974D01*
X248193884Y-118015468D01*
X248193884Y-118015492D01*
X248194036Y-118016261D01*
X248191365Y-118207552D01*
X248191192Y-118208312D01*
X248191192Y-118208338D01*
X248154264Y-118370873D01*
X248086145Y-118523872D01*
X247989609Y-118660720D01*
X247868320Y-118776222D01*
X247726915Y-118865960D01*
X247570770Y-118926525D01*
X247405833Y-118955607D01*
X247238395Y-118952101D01*
X247074819Y-118916136D01*
X246921351Y-118849087D01*
X246783825Y-118753504D01*
X246667484Y-118633029D01*
X246576760Y-118492255D01*
X246515105Y-118336531D01*
X246484873Y-118171808D01*
X246487212Y-118004342D01*
X246522031Y-117840527D01*
X246588009Y-117686589D01*
X246682630Y-117548398D01*
X246802285Y-117431224D01*
X246942431Y-117339515D01*
X247097713Y-117276777D01*
X247262224Y-117245394D01*
X247429701Y-117246564D01*
X247429701Y-117246564D01*
G37*
G36*
X143815000Y-118890000D02*
X143085000Y-118890000D01*
X143085000Y-115110000D01*
X143815000Y-115110000D01*
X143815000Y-118890000D01*
X143815000Y-118890000D01*
G37*
G36*
X139015000Y-118890000D02*
X138285000Y-118890000D01*
X138285000Y-115110000D01*
X139015000Y-115110000D01*
X139015000Y-118890000D01*
X139015000Y-118890000D01*
G37*
G36*
X142790000Y-118740000D02*
X139310000Y-118740000D01*
X139310000Y-115260000D01*
X142790000Y-115260000D01*
X142790000Y-118740000D01*
X142790000Y-118740000D01*
G37*
G36*
X224915000Y-118265000D02*
X224385000Y-118265000D01*
X224385000Y-117635000D01*
X224915000Y-117635000D01*
X224915000Y-118265000D01*
X224915000Y-118265000D01*
G37*
G36*
X220265000Y-118190000D02*
X219435000Y-118190000D01*
X219435000Y-117410000D01*
X220265000Y-117410000D01*
X220265000Y-118190000D01*
X220265000Y-118190000D01*
G37*
G36*
X218765000Y-118190000D02*
X217935000Y-118190000D01*
X217935000Y-117410000D01*
X218765000Y-117410000D01*
X218765000Y-118190000D01*
X218765000Y-118190000D01*
G37*
G36*
X216740000Y-118115000D02*
X215960000Y-118115000D01*
X215960000Y-117285000D01*
X216740000Y-117285000D01*
X216740000Y-118115000D01*
X216740000Y-118115000D01*
G37*
G36*
X147915000Y-118065000D02*
X147285000Y-118065000D01*
X147285000Y-117635000D01*
X147915000Y-117635000D01*
X147915000Y-118065000D01*
X147915000Y-118065000D01*
G37*
G36*
X245429701Y-114246564D02*
X245593755Y-114280239D01*
X245748150Y-114345141D01*
X245886996Y-114438794D01*
X246005008Y-114557633D01*
X246097689Y-114697128D01*
X246161513Y-114851974D01*
X246193884Y-115015468D01*
X246193884Y-115015492D01*
X246194036Y-115016261D01*
X246191365Y-115207552D01*
X246191192Y-115208312D01*
X246191192Y-115208338D01*
X246154264Y-115370873D01*
X246086145Y-115523872D01*
X245989609Y-115660720D01*
X245868320Y-115776222D01*
X245726913Y-115865962D01*
X245718162Y-115869356D01*
X245690110Y-115885090D01*
X245667552Y-115908016D01*
X245652274Y-115936318D01*
X245645486Y-115967757D01*
X245647725Y-115999842D01*
X245658815Y-116030033D01*
X245677876Y-116055939D01*
X245715200Y-116081290D01*
X245748151Y-116095142D01*
X245886996Y-116188794D01*
X246005008Y-116307633D01*
X246097689Y-116447128D01*
X246161513Y-116601974D01*
X246193884Y-116765468D01*
X246193884Y-116765492D01*
X246194036Y-116766261D01*
X246191365Y-116957552D01*
X246191192Y-116958312D01*
X246191192Y-116958338D01*
X246154264Y-117120873D01*
X246086145Y-117273872D01*
X245989609Y-117410720D01*
X245868320Y-117526222D01*
X245726915Y-117615960D01*
X245570770Y-117676525D01*
X245405833Y-117705607D01*
X245238395Y-117702101D01*
X245074819Y-117666136D01*
X244921351Y-117599087D01*
X244783825Y-117503504D01*
X244667484Y-117383029D01*
X244576760Y-117242255D01*
X244515105Y-117086531D01*
X244484873Y-116921808D01*
X244487212Y-116754342D01*
X244522031Y-116590527D01*
X244588009Y-116436589D01*
X244682630Y-116298398D01*
X244802285Y-116181224D01*
X244942428Y-116089517D01*
X244965280Y-116080284D01*
X244993110Y-116064160D01*
X245015345Y-116040921D01*
X245030227Y-116012407D01*
X245036575Y-115980877D01*
X245033888Y-115948826D01*
X245022378Y-115918793D01*
X245002957Y-115893155D01*
X244968225Y-115869566D01*
X244921349Y-115849086D01*
X244783825Y-115753504D01*
X244667484Y-115633029D01*
X244576760Y-115492255D01*
X244515105Y-115336531D01*
X244484873Y-115171808D01*
X244487212Y-115004342D01*
X244522031Y-114840527D01*
X244588009Y-114686589D01*
X244682630Y-114548398D01*
X244802285Y-114431224D01*
X244942431Y-114339515D01*
X245097713Y-114276777D01*
X245262224Y-114245394D01*
X245429701Y-114246564D01*
X245429701Y-114246564D01*
G37*
G36*
X186465000Y-117340000D02*
X185635000Y-117340000D01*
X185635000Y-116560000D01*
X186465000Y-116560000D01*
X186465000Y-117340000D01*
X186465000Y-117340000D01*
G37*
G36*
X184965000Y-117340000D02*
X184135000Y-117340000D01*
X184135000Y-116560000D01*
X184965000Y-116560000D01*
X184965000Y-117340000D01*
X184965000Y-117340000D01*
G37*
G36*
X224915000Y-117165000D02*
X224385000Y-117165000D01*
X224385000Y-116535000D01*
X224915000Y-116535000D01*
X224915000Y-117165000D01*
X224915000Y-117165000D01*
G37*
G36*
X147915000Y-117165000D02*
X147285000Y-117165000D01*
X147285000Y-116735000D01*
X147915000Y-116735000D01*
X147915000Y-117165000D01*
X147915000Y-117165000D01*
G37*
G36*
X216740000Y-116615000D02*
X215960000Y-116615000D01*
X215960000Y-115785000D01*
X216740000Y-115785000D01*
X216740000Y-116615000D01*
X216740000Y-116615000D01*
G37*
G36*
X208006610Y-114535671D02*
X208201596Y-114575696D01*
X208385096Y-114652832D01*
X208550118Y-114764141D01*
X208690378Y-114905383D01*
X208800534Y-115071182D01*
X208876386Y-115255211D01*
X208914891Y-115449681D01*
X208914891Y-115449705D01*
X208915043Y-115450474D01*
X208911869Y-115677829D01*
X208911695Y-115678594D01*
X208911695Y-115678614D01*
X208867772Y-115871938D01*
X208786813Y-116053777D01*
X208672070Y-116216435D01*
X208527925Y-116353703D01*
X208359858Y-116460361D01*
X208174271Y-116532346D01*
X207978250Y-116566910D01*
X207779239Y-116562742D01*
X207584827Y-116519997D01*
X207402425Y-116440308D01*
X207238973Y-116326705D01*
X207100699Y-116183518D01*
X206992870Y-116016202D01*
X206919593Y-115831124D01*
X206883661Y-115635347D01*
X206886441Y-115436310D01*
X206927826Y-115241607D01*
X207006239Y-115058656D01*
X207118702Y-114894407D01*
X207260914Y-114755143D01*
X207427479Y-114646146D01*
X207612036Y-114571580D01*
X207807561Y-114534281D01*
X208006610Y-114535671D01*
X208006610Y-114535671D01*
G37*
G36*
X219065000Y-116465000D02*
X218435000Y-116465000D01*
X218435000Y-115935000D01*
X219065000Y-115935000D01*
X219065000Y-116465000D01*
X219065000Y-116465000D01*
G37*
G36*
X217965000Y-116465000D02*
X217335000Y-116465000D01*
X217335000Y-115935000D01*
X217965000Y-115935000D01*
X217965000Y-116465000D01*
X217965000Y-116465000D01*
G37*
G36*
X236690000Y-116215000D02*
X235910000Y-116215000D01*
X235910000Y-115385000D01*
X236690000Y-115385000D01*
X236690000Y-116215000D01*
X236690000Y-116215000D01*
G37*
G36*
X224915000Y-115865000D02*
X224385000Y-115865000D01*
X224385000Y-115235000D01*
X224915000Y-115235000D01*
X224915000Y-115865000D01*
X224915000Y-115865000D01*
G37*
G36*
X228265000Y-115790000D02*
X227435000Y-115790000D01*
X227435000Y-115010000D01*
X228265000Y-115010000D01*
X228265000Y-115790000D01*
X228265000Y-115790000D01*
G37*
G36*
X229765000Y-115790000D02*
X228935000Y-115790000D01*
X228935000Y-115010000D01*
X229765000Y-115010000D01*
X229765000Y-115790000D01*
X229765000Y-115790000D01*
G37*
G36*
X252250407Y-111423266D02*
X252616940Y-111498504D01*
X252961884Y-111643505D01*
X253272092Y-111852744D01*
X253535752Y-112118251D01*
X253742820Y-112429912D01*
X253885409Y-112775860D01*
X253957930Y-113142118D01*
X253957930Y-113142142D01*
X253958082Y-113142911D01*
X253952114Y-113570293D01*
X253951940Y-113571058D01*
X253951940Y-113571079D01*
X253869219Y-113935177D01*
X253717029Y-114277002D01*
X253501339Y-114582760D01*
X253230368Y-114840804D01*
X252914439Y-115041297D01*
X252565583Y-115176610D01*
X252197087Y-115241586D01*
X251822993Y-115233750D01*
X251457539Y-115153400D01*
X251114656Y-115003598D01*
X250807403Y-114790052D01*
X250547474Y-114520888D01*
X250344778Y-114206366D01*
X250207033Y-113858460D01*
X250139487Y-113490432D01*
X250144712Y-113116286D01*
X250222508Y-112750285D01*
X250369912Y-112406365D01*
X250581310Y-112097626D01*
X250848653Y-111835825D01*
X251161752Y-111630938D01*
X251508687Y-111490767D01*
X251876235Y-111420653D01*
X252250407Y-111423266D01*
X252250407Y-111423266D01*
G37*
G36*
X217240000Y-114965000D02*
X216460000Y-114965000D01*
X216460000Y-114135000D01*
X217240000Y-114135000D01*
X217240000Y-114965000D01*
X217240000Y-114965000D01*
G37*
G36*
X142940000Y-114965000D02*
X139160000Y-114965000D01*
X139160000Y-114235000D01*
X142940000Y-114235000D01*
X142940000Y-114965000D01*
X142940000Y-114965000D01*
G37*
G36*
X219040000Y-114965000D02*
X218260000Y-114965000D01*
X218260000Y-114135000D01*
X219040000Y-114135000D01*
X219040000Y-114965000D01*
X219040000Y-114965000D01*
G37*
G36*
X132139128Y-111736005D02*
X132430164Y-111795746D01*
X132704059Y-111910880D01*
X132950372Y-112077021D01*
X133159725Y-112287840D01*
X133324142Y-112535307D01*
X133437361Y-112809999D01*
X133494912Y-113100654D01*
X133494912Y-113100673D01*
X133495065Y-113101447D01*
X133490326Y-113440799D01*
X133490152Y-113441564D01*
X133490152Y-113441584D01*
X133424506Y-113730526D01*
X133303663Y-114001943D01*
X133132400Y-114244724D01*
X132917242Y-114449617D01*
X132666387Y-114608813D01*
X132389381Y-114716257D01*
X132096795Y-114767848D01*
X131799751Y-114761626D01*
X131509571Y-114697826D01*
X131237312Y-114578879D01*
X130993346Y-114409319D01*
X130786956Y-114195596D01*
X130626010Y-113945855D01*
X130516638Y-113669613D01*
X130463004Y-113377388D01*
X130467153Y-113080304D01*
X130528923Y-112789693D01*
X130645967Y-112516612D01*
X130813825Y-112271461D01*
X131026101Y-112063585D01*
X131274707Y-111900903D01*
X131550184Y-111789601D01*
X131842025Y-111733930D01*
X132139128Y-111736005D01*
X132139128Y-111736005D01*
G37*
G36*
X121979128Y-111736005D02*
X122270164Y-111795746D01*
X122544059Y-111910880D01*
X122790372Y-112077021D01*
X122999725Y-112287840D01*
X123164142Y-112535307D01*
X123277361Y-112809999D01*
X123334912Y-113100654D01*
X123334912Y-113100673D01*
X123335065Y-113101447D01*
X123330326Y-113440799D01*
X123330152Y-113441564D01*
X123330152Y-113441584D01*
X123264506Y-113730526D01*
X123143663Y-114001943D01*
X122972400Y-114244724D01*
X122757242Y-114449617D01*
X122506387Y-114608813D01*
X122229381Y-114716257D01*
X121936795Y-114767848D01*
X121639751Y-114761626D01*
X121349571Y-114697826D01*
X121077312Y-114578879D01*
X120833346Y-114409319D01*
X120626956Y-114195596D01*
X120466010Y-113945855D01*
X120356638Y-113669613D01*
X120303004Y-113377388D01*
X120307153Y-113080304D01*
X120368923Y-112789693D01*
X120485967Y-112516612D01*
X120653825Y-112271461D01*
X120866101Y-112063585D01*
X121114707Y-111900903D01*
X121390184Y-111789601D01*
X121682025Y-111733930D01*
X121979128Y-111736005D01*
X121979128Y-111736005D01*
G37*
G36*
X114359128Y-111736005D02*
X114650164Y-111795746D01*
X114924059Y-111910880D01*
X115170372Y-112077021D01*
X115379725Y-112287840D01*
X115544142Y-112535307D01*
X115657361Y-112809999D01*
X115714912Y-113100654D01*
X115714912Y-113100673D01*
X115715065Y-113101447D01*
X115710326Y-113440799D01*
X115710152Y-113441564D01*
X115710152Y-113441584D01*
X115644506Y-113730526D01*
X115523663Y-114001943D01*
X115352400Y-114244724D01*
X115137242Y-114449617D01*
X114886387Y-114608813D01*
X114609381Y-114716257D01*
X114316795Y-114767848D01*
X114019751Y-114761626D01*
X113729571Y-114697826D01*
X113457312Y-114578879D01*
X113213346Y-114409319D01*
X113006956Y-114195596D01*
X112846010Y-113945855D01*
X112736638Y-113669613D01*
X112683004Y-113377388D01*
X112687153Y-113080304D01*
X112748923Y-112789693D01*
X112865967Y-112516612D01*
X113033825Y-112271461D01*
X113246101Y-112063585D01*
X113494707Y-111900903D01*
X113770184Y-111789601D01*
X114062025Y-111733930D01*
X114359128Y-111736005D01*
X114359128Y-111736005D01*
G37*
G36*
X224915000Y-114765000D02*
X224385000Y-114765000D01*
X224385000Y-114135000D01*
X224915000Y-114135000D01*
X224915000Y-114765000D01*
X224915000Y-114765000D01*
G37*
G36*
X236690000Y-114715000D02*
X235910000Y-114715000D01*
X235910000Y-113885000D01*
X236690000Y-113885000D01*
X236690000Y-114715000D01*
X236690000Y-114715000D01*
G37*
G36*
X146290000Y-114715000D02*
X145510000Y-114715000D01*
X145510000Y-113885000D01*
X146290000Y-113885000D01*
X146290000Y-114715000D01*
X146290000Y-114715000D01*
G37*
G36*
X147990000Y-114165000D02*
X147210000Y-114165000D01*
X147210000Y-113335000D01*
X147990000Y-113335000D01*
X147990000Y-114165000D01*
X147990000Y-114165000D01*
G37*
G36*
X208006610Y-112035671D02*
X208201596Y-112075696D01*
X208385096Y-112152832D01*
X208550118Y-112264141D01*
X208690378Y-112405383D01*
X208800534Y-112571182D01*
X208876386Y-112755211D01*
X208914891Y-112949681D01*
X208914891Y-112949705D01*
X208915043Y-112950474D01*
X208911869Y-113177829D01*
X208911695Y-113178594D01*
X208911695Y-113178614D01*
X208867772Y-113371938D01*
X208786813Y-113553777D01*
X208672070Y-113716435D01*
X208527925Y-113853703D01*
X208359858Y-113960361D01*
X208174271Y-114032346D01*
X207978250Y-114066910D01*
X207779239Y-114062742D01*
X207584827Y-114019997D01*
X207402425Y-113940308D01*
X207238973Y-113826705D01*
X207100699Y-113683518D01*
X206992870Y-113516202D01*
X206919593Y-113331124D01*
X206883661Y-113135347D01*
X206886441Y-112936310D01*
X206927826Y-112741607D01*
X207006239Y-112558656D01*
X207118702Y-112394407D01*
X207260914Y-112255143D01*
X207427479Y-112146146D01*
X207612036Y-112071580D01*
X207807561Y-112034281D01*
X208006610Y-112035671D01*
X208006610Y-112035671D01*
G37*
G36*
X222165000Y-113715000D02*
X221535000Y-113715000D01*
X221535000Y-113185000D01*
X222165000Y-113185000D01*
X222165000Y-113715000D01*
X222165000Y-113715000D01*
G37*
G36*
X223265000Y-113715000D02*
X222635000Y-113715000D01*
X222635000Y-113185000D01*
X223265000Y-113185000D01*
X223265000Y-113715000D01*
X223265000Y-113715000D01*
G37*
G36*
X229415000Y-113665000D02*
X228785000Y-113665000D01*
X228785000Y-113135000D01*
X229415000Y-113135000D01*
X229415000Y-113665000D01*
X229415000Y-113665000D01*
G37*
G36*
X228315000Y-113665000D02*
X227685000Y-113665000D01*
X227685000Y-113135000D01*
X228315000Y-113135000D01*
X228315000Y-113665000D01*
X228315000Y-113665000D01*
G37*
G36*
X175465000Y-113515000D02*
X174435000Y-113515000D01*
X174435000Y-110985000D01*
X175465000Y-110985000D01*
X175465000Y-113515000D01*
X175465000Y-113515000D01*
G37*
G36*
X178465000Y-113515000D02*
X177435000Y-113515000D01*
X177435000Y-110985000D01*
X178465000Y-110985000D01*
X178465000Y-113515000D01*
X178465000Y-113515000D01*
G37*
G36*
X219040000Y-113465000D02*
X218260000Y-113465000D01*
X218260000Y-112635000D01*
X219040000Y-112635000D01*
X219040000Y-113465000D01*
X219040000Y-113465000D01*
G37*
G36*
X217240000Y-113465000D02*
X216460000Y-113465000D01*
X216460000Y-112635000D01*
X217240000Y-112635000D01*
X217240000Y-113465000D01*
X217240000Y-113465000D01*
G37*
G36*
X146290000Y-113215000D02*
X145510000Y-113215000D01*
X145510000Y-112385000D01*
X146290000Y-112385000D01*
X146290000Y-113215000D01*
X146290000Y-113215000D01*
G37*
G36*
X147990000Y-112665000D02*
X147210000Y-112665000D01*
X147210000Y-111835000D01*
X147990000Y-111835000D01*
X147990000Y-112665000D01*
X147990000Y-112665000D01*
G37*
G36*
X183485000Y-112465000D02*
X182255000Y-112465000D01*
X182255000Y-111335000D01*
X183485000Y-111335000D01*
X183485000Y-112465000D01*
X183485000Y-112465000D01*
G37*
G36*
X180945000Y-112465000D02*
X179715000Y-112465000D01*
X179715000Y-111335000D01*
X180945000Y-111335000D01*
X180945000Y-112465000D01*
X180945000Y-112465000D01*
G37*
G36*
X150590000Y-112165000D02*
X149810000Y-112165000D01*
X149810000Y-111335000D01*
X150590000Y-111335000D01*
X150590000Y-112165000D01*
X150590000Y-112165000D01*
G37*
G36*
X143365000Y-112115000D02*
X141135000Y-112115000D01*
X141135000Y-109285000D01*
X143365000Y-109285000D01*
X143365000Y-112115000D01*
X143365000Y-112115000D01*
G37*
G36*
X185165000Y-112115000D02*
X184635000Y-112115000D01*
X184635000Y-111485000D01*
X185165000Y-111485000D01*
X185165000Y-112115000D01*
X185165000Y-112115000D01*
G37*
G36*
X220065000Y-111940000D02*
X219235000Y-111940000D01*
X219235000Y-111160000D01*
X220065000Y-111160000D01*
X220065000Y-111940000D01*
X220065000Y-111940000D01*
G37*
G36*
X218565000Y-111940000D02*
X217735000Y-111940000D01*
X217735000Y-111160000D01*
X218565000Y-111160000D01*
X218565000Y-111940000D01*
X218565000Y-111940000D01*
G37*
G36*
X208006610Y-109495671D02*
X208201596Y-109535696D01*
X208385096Y-109612832D01*
X208550118Y-109724141D01*
X208690378Y-109865383D01*
X208800534Y-110031182D01*
X208876386Y-110215211D01*
X208914891Y-110409681D01*
X208914891Y-110409705D01*
X208915043Y-110410474D01*
X208911869Y-110637829D01*
X208911695Y-110638594D01*
X208911695Y-110638614D01*
X208867772Y-110831938D01*
X208786813Y-111013777D01*
X208672070Y-111176435D01*
X208527925Y-111313703D01*
X208359858Y-111420361D01*
X208174271Y-111492346D01*
X207978250Y-111526910D01*
X207779239Y-111522742D01*
X207584827Y-111479997D01*
X207402425Y-111400308D01*
X207238973Y-111286705D01*
X207100699Y-111143518D01*
X206992870Y-110976202D01*
X206919593Y-110791124D01*
X206883661Y-110595347D01*
X206886441Y-110396310D01*
X206927826Y-110201607D01*
X207006239Y-110018656D01*
X207118702Y-109854407D01*
X207260914Y-109715143D01*
X207427479Y-109606146D01*
X207612036Y-109531580D01*
X207807561Y-109494281D01*
X208006610Y-109495671D01*
X208006610Y-109495671D01*
G37*
G36*
X160540000Y-111225000D02*
X157510000Y-111225000D01*
X157510000Y-109195000D01*
X160540000Y-109195000D01*
X160540000Y-111225000D01*
X160540000Y-111225000D01*
G37*
G36*
X185165000Y-111015000D02*
X184635000Y-111015000D01*
X184635000Y-110385000D01*
X185165000Y-110385000D01*
X185165000Y-111015000D01*
X185165000Y-111015000D01*
G37*
G36*
X150590000Y-110665000D02*
X149810000Y-110665000D01*
X149810000Y-109835000D01*
X150590000Y-109835000D01*
X150590000Y-110665000D01*
X150590000Y-110665000D01*
G37*
G36*
X127111645Y-106486337D02*
X127498734Y-106565795D01*
X127863022Y-106718927D01*
X128190626Y-106939900D01*
X128469073Y-107220296D01*
X128687752Y-107549435D01*
X128838338Y-107914784D01*
X128914935Y-108301626D01*
X128914935Y-108301650D01*
X128915087Y-108302419D01*
X128908784Y-108753768D01*
X128908611Y-108754528D01*
X128908611Y-108754553D01*
X128821240Y-109139115D01*
X128660515Y-109500109D01*
X128432728Y-109823018D01*
X128146566Y-110095527D01*
X127812917Y-110307266D01*
X127444497Y-110450168D01*
X127055335Y-110518787D01*
X126660263Y-110510512D01*
X126274314Y-110425655D01*
X125912204Y-110267454D01*
X125587716Y-110041929D01*
X125313213Y-109757673D01*
X125099149Y-109425510D01*
X124953681Y-109058099D01*
X124882346Y-108669429D01*
X124887864Y-108274300D01*
X124970021Y-107887776D01*
X125125695Y-107524565D01*
X125348946Y-107198515D01*
X125631282Y-106922032D01*
X125961941Y-106705654D01*
X126328328Y-106557624D01*
X126716490Y-106483578D01*
X127111645Y-106486337D01*
X127111645Y-106486337D01*
G37*
G36*
X183485000Y-110165000D02*
X182255000Y-110165000D01*
X182255000Y-109035000D01*
X183485000Y-109035000D01*
X183485000Y-110165000D01*
X183485000Y-110165000D01*
G37*
G36*
X180945000Y-110165000D02*
X179715000Y-110165000D01*
X179715000Y-109035000D01*
X180945000Y-109035000D01*
X180945000Y-110165000D01*
X180945000Y-110165000D01*
G37*
G36*
X178565000Y-109765000D02*
X178035000Y-109765000D01*
X178035000Y-109135000D01*
X178565000Y-109135000D01*
X178565000Y-109765000D01*
X178565000Y-109765000D01*
G37*
G36*
X243690000Y-109715000D02*
X242160000Y-109715000D01*
X242160000Y-108385000D01*
X243690000Y-108385000D01*
X243690000Y-109715000D01*
X243690000Y-109715000D01*
G37*
G36*
X252440000Y-109665000D02*
X251610000Y-109665000D01*
X251610000Y-108135000D01*
X252440000Y-108135000D01*
X252440000Y-109665000D01*
X252440000Y-109665000D01*
G37*
G36*
X251290000Y-109640000D02*
X249760000Y-109640000D01*
X249760000Y-108810000D01*
X251290000Y-108810000D01*
X251290000Y-109640000D01*
X251290000Y-109640000D01*
G37*
G36*
X216465000Y-109590000D02*
X215635000Y-109590000D01*
X215635000Y-108810000D01*
X216465000Y-108810000D01*
X216465000Y-109590000D01*
X216465000Y-109590000D01*
G37*
G36*
X214965000Y-109590000D02*
X214135000Y-109590000D01*
X214135000Y-108810000D01*
X214965000Y-108810000D01*
X214965000Y-109590000D01*
X214965000Y-109590000D01*
G37*
G36*
X222265000Y-109340000D02*
X221435000Y-109340000D01*
X221435000Y-108560000D01*
X222265000Y-108560000D01*
X222265000Y-109340000D01*
X222265000Y-109340000D01*
G37*
G36*
X223765000Y-109340000D02*
X222935000Y-109340000D01*
X222935000Y-108560000D01*
X223765000Y-108560000D01*
X223765000Y-109340000D01*
X223765000Y-109340000D01*
G37*
G36*
X178565000Y-108665000D02*
X178035000Y-108665000D01*
X178035000Y-108035000D01*
X178565000Y-108035000D01*
X178565000Y-108665000D01*
X178565000Y-108665000D01*
G37*
G36*
X243690000Y-108115000D02*
X241910000Y-108115000D01*
X241910000Y-107385000D01*
X243690000Y-107385000D01*
X243690000Y-108115000D01*
X243690000Y-108115000D01*
G37*
G36*
X148115000Y-107915000D02*
X145285000Y-107915000D01*
X145285000Y-105685000D01*
X148115000Y-105685000D01*
X148115000Y-107915000D01*
X148115000Y-107915000D01*
G37*
G36*
X181015000Y-107815000D02*
X179985000Y-107815000D01*
X179985000Y-106185000D01*
X181015000Y-106185000D01*
X181015000Y-107815000D01*
X181015000Y-107815000D01*
G37*
G36*
X184015000Y-107815000D02*
X182985000Y-107815000D01*
X182985000Y-106185000D01*
X184015000Y-106185000D01*
X184015000Y-107815000D01*
X184015000Y-107815000D01*
G37*
G36*
X195115000Y-107165000D02*
X194485000Y-107165000D01*
X194485000Y-106735000D01*
X195115000Y-106735000D01*
X195115000Y-107165000D01*
X195115000Y-107165000D01*
G37*
G36*
X243690000Y-107015000D02*
X241910000Y-107015000D01*
X241910000Y-106285000D01*
X243690000Y-106285000D01*
X243690000Y-107015000D01*
X243690000Y-107015000D01*
G37*
G36*
X143106610Y-104685671D02*
X143301596Y-104725696D01*
X143485096Y-104802832D01*
X143650118Y-104914141D01*
X143790378Y-105055383D01*
X143900534Y-105221182D01*
X143976386Y-105405211D01*
X144014891Y-105599681D01*
X144014891Y-105599705D01*
X144015043Y-105600474D01*
X144011869Y-105827829D01*
X144011695Y-105828594D01*
X144011695Y-105828614D01*
X143967772Y-106021938D01*
X143886813Y-106203777D01*
X143772070Y-106366435D01*
X143627925Y-106503703D01*
X143459858Y-106610361D01*
X143274271Y-106682346D01*
X143078250Y-106716910D01*
X142879239Y-106712742D01*
X142684827Y-106669997D01*
X142502425Y-106590308D01*
X142338973Y-106476705D01*
X142200699Y-106333518D01*
X142092870Y-106166202D01*
X142019593Y-105981124D01*
X141983661Y-105785347D01*
X141986441Y-105586310D01*
X142027826Y-105391607D01*
X142106239Y-105208656D01*
X142218702Y-105044407D01*
X142360914Y-104905143D01*
X142527479Y-104796146D01*
X142712036Y-104721580D01*
X142907561Y-104684281D01*
X143106610Y-104685671D01*
X143106610Y-104685671D01*
G37*
G36*
X195115000Y-106265000D02*
X194485000Y-106265000D01*
X194485000Y-105835000D01*
X195115000Y-105835000D01*
X195115000Y-106265000D01*
X195115000Y-106265000D01*
G37*
G36*
X243690000Y-105915000D02*
X241910000Y-105915000D01*
X241910000Y-105185000D01*
X243690000Y-105185000D01*
X243690000Y-105915000D01*
X243690000Y-105915000D01*
G37*
G36*
X226565000Y-105115000D02*
X225535000Y-105115000D01*
X225535000Y-102085000D01*
X226565000Y-102085000D01*
X226565000Y-105115000D01*
X226565000Y-105115000D01*
G37*
G36*
X231165000Y-105115000D02*
X230135000Y-105115000D01*
X230135000Y-102085000D01*
X231165000Y-102085000D01*
X231165000Y-105115000D01*
X231165000Y-105115000D01*
G37*
G36*
X114359128Y-101826005D02*
X114650164Y-101885746D01*
X114924059Y-102000880D01*
X115170372Y-102167021D01*
X115379725Y-102377840D01*
X115544142Y-102625307D01*
X115657361Y-102899999D01*
X115714912Y-103190654D01*
X115714912Y-103190673D01*
X115715065Y-103191447D01*
X115710326Y-103530799D01*
X115710152Y-103531564D01*
X115710152Y-103531584D01*
X115644506Y-103820526D01*
X115523663Y-104091943D01*
X115352400Y-104334724D01*
X115137242Y-104539617D01*
X114886387Y-104698813D01*
X114609381Y-104806257D01*
X114316795Y-104857848D01*
X114019751Y-104851626D01*
X113729571Y-104787826D01*
X113457312Y-104668879D01*
X113213346Y-104499319D01*
X113006956Y-104285596D01*
X112846010Y-104035855D01*
X112736638Y-103759613D01*
X112683004Y-103467388D01*
X112687153Y-103170304D01*
X112748923Y-102879693D01*
X112865967Y-102606612D01*
X113033825Y-102361461D01*
X113246101Y-102153585D01*
X113494707Y-101990903D01*
X113770184Y-101879601D01*
X114062025Y-101823930D01*
X114359128Y-101826005D01*
X114359128Y-101826005D01*
G37*
G36*
X121979128Y-101826005D02*
X122270164Y-101885746D01*
X122544059Y-102000880D01*
X122790372Y-102167021D01*
X122999725Y-102377840D01*
X123164142Y-102625307D01*
X123277361Y-102899999D01*
X123334912Y-103190654D01*
X123334912Y-103190673D01*
X123335065Y-103191447D01*
X123330326Y-103530799D01*
X123330152Y-103531564D01*
X123330152Y-103531584D01*
X123264506Y-103820526D01*
X123143663Y-104091943D01*
X122972400Y-104334724D01*
X122757242Y-104539617D01*
X122506387Y-104698813D01*
X122229381Y-104806257D01*
X121936795Y-104857848D01*
X121639751Y-104851626D01*
X121349571Y-104787826D01*
X121077312Y-104668879D01*
X120833346Y-104499319D01*
X120626956Y-104285596D01*
X120466010Y-104035855D01*
X120356638Y-103759613D01*
X120303004Y-103467388D01*
X120307153Y-103170304D01*
X120368923Y-102879693D01*
X120485967Y-102606612D01*
X120653825Y-102361461D01*
X120866101Y-102153585D01*
X121114707Y-101990903D01*
X121390184Y-101879601D01*
X121682025Y-101823930D01*
X121979128Y-101826005D01*
X121979128Y-101826005D01*
G37*
G36*
X132139128Y-101826005D02*
X132430164Y-101885746D01*
X132704059Y-102000880D01*
X132950372Y-102167021D01*
X133159725Y-102377840D01*
X133324142Y-102625307D01*
X133437361Y-102899999D01*
X133494912Y-103190654D01*
X133494912Y-103190673D01*
X133495065Y-103191447D01*
X133490326Y-103530799D01*
X133490152Y-103531564D01*
X133490152Y-103531584D01*
X133424506Y-103820526D01*
X133303663Y-104091943D01*
X133132400Y-104334724D01*
X132917242Y-104539617D01*
X132666387Y-104698813D01*
X132389381Y-104806257D01*
X132096795Y-104857848D01*
X131799751Y-104851626D01*
X131509571Y-104787826D01*
X131237312Y-104668879D01*
X130993346Y-104499319D01*
X130786956Y-104285596D01*
X130626010Y-104035855D01*
X130516638Y-103759613D01*
X130463004Y-103467388D01*
X130467153Y-103170304D01*
X130528923Y-102879693D01*
X130645967Y-102606612D01*
X130813825Y-102361461D01*
X131026101Y-102153585D01*
X131274707Y-101990903D01*
X131550184Y-101879601D01*
X131842025Y-101823930D01*
X132139128Y-101826005D01*
X132139128Y-101826005D01*
G37*
G36*
X243690000Y-104815000D02*
X241910000Y-104815000D01*
X241910000Y-104085000D01*
X243690000Y-104085000D01*
X243690000Y-104815000D01*
X243690000Y-104815000D01*
G37*
G36*
X243690000Y-103715000D02*
X241910000Y-103715000D01*
X241910000Y-102985000D01*
X243690000Y-102985000D01*
X243690000Y-103715000D01*
X243690000Y-103715000D01*
G37*
G36*
X243690000Y-102615000D02*
X241910000Y-102615000D01*
X241910000Y-101885000D01*
X243690000Y-101885000D01*
X243690000Y-102615000D01*
X243690000Y-102615000D01*
G37*
G36*
X243690000Y-101515000D02*
X241910000Y-101515000D01*
X241910000Y-100785000D01*
X243690000Y-100785000D01*
X243690000Y-101515000D01*
X243690000Y-101515000D01*
G37*
G36*
X229640000Y-101245000D02*
X228960000Y-101245000D01*
X228960000Y-100155000D01*
X229640000Y-100155000D01*
X229640000Y-101245000D01*
X229640000Y-101245000D01*
G37*
G36*
X227740000Y-101245000D02*
X227060000Y-101245000D01*
X227060000Y-100155000D01*
X227740000Y-100155000D01*
X227740000Y-101245000D01*
X227740000Y-101245000D01*
G37*
G36*
X158114593Y-99785405D02*
X158232744Y-99809657D01*
X158343926Y-99856394D01*
X158443915Y-99923838D01*
X158528901Y-100009419D01*
X158595645Y-100109876D01*
X158641605Y-100221385D01*
X158664875Y-100338904D01*
X158664875Y-100338927D01*
X158665027Y-100339696D01*
X158663103Y-100477453D01*
X158662929Y-100478218D01*
X158662929Y-100478239D01*
X158636386Y-100595068D01*
X158587332Y-100705245D01*
X158517807Y-100803803D01*
X158430470Y-100886974D01*
X158328633Y-100951601D01*
X158216184Y-100995217D01*
X158097414Y-101016159D01*
X157976829Y-101013634D01*
X157859031Y-100987734D01*
X157748513Y-100939450D01*
X157649475Y-100870616D01*
X157565695Y-100783859D01*
X157500357Y-100682476D01*
X157455959Y-100570337D01*
X157434186Y-100451713D01*
X157435871Y-100331112D01*
X157460945Y-100213143D01*
X157508458Y-100102288D01*
X157576600Y-100002769D01*
X157662772Y-99918384D01*
X157763694Y-99852342D01*
X157875518Y-99807162D01*
X157993990Y-99784562D01*
X158114593Y-99785405D01*
X158114593Y-99785405D01*
G37*
G36*
X152014593Y-99785405D02*
X152132744Y-99809657D01*
X152243926Y-99856394D01*
X152343915Y-99923838D01*
X152428901Y-100009419D01*
X152495645Y-100109876D01*
X152541605Y-100221385D01*
X152564875Y-100338904D01*
X152564875Y-100338927D01*
X152565027Y-100339696D01*
X152563103Y-100477453D01*
X152562929Y-100478218D01*
X152562929Y-100478239D01*
X152536386Y-100595068D01*
X152487332Y-100705245D01*
X152417807Y-100803803D01*
X152330470Y-100886974D01*
X152228633Y-100951601D01*
X152116184Y-100995217D01*
X151997414Y-101016159D01*
X151876829Y-101013634D01*
X151759031Y-100987734D01*
X151648513Y-100939450D01*
X151549475Y-100870616D01*
X151465695Y-100783859D01*
X151400357Y-100682476D01*
X151355959Y-100570337D01*
X151334186Y-100451713D01*
X151335871Y-100331112D01*
X151360945Y-100213143D01*
X151408458Y-100102288D01*
X151476600Y-100002769D01*
X151562772Y-99918384D01*
X151663694Y-99852342D01*
X151775518Y-99807162D01*
X151893990Y-99784562D01*
X152014593Y-99785405D01*
X152014593Y-99785405D01*
G37*
G36*
X225490000Y-100715000D02*
X224710000Y-100715000D01*
X224710000Y-99885000D01*
X225490000Y-99885000D01*
X225490000Y-100715000D01*
X225490000Y-100715000D01*
G37*
G36*
X140715000Y-100515000D02*
X137885000Y-100515000D01*
X137885000Y-98285000D01*
X140715000Y-98285000D01*
X140715000Y-100515000D01*
X140715000Y-100515000D01*
G37*
G36*
X243690000Y-100415000D02*
X241910000Y-100415000D01*
X241910000Y-99685000D01*
X243690000Y-99685000D01*
X243690000Y-100415000D01*
X243690000Y-100415000D01*
G37*
G36*
X143106610Y-97485671D02*
X143301596Y-97525696D01*
X143485096Y-97602832D01*
X143650118Y-97714141D01*
X143790378Y-97855383D01*
X143900534Y-98021182D01*
X143976386Y-98205211D01*
X144014891Y-98399681D01*
X144014891Y-98399705D01*
X144015043Y-98400474D01*
X144011869Y-98627829D01*
X144011695Y-98628594D01*
X144011695Y-98628614D01*
X143967772Y-98821938D01*
X143886813Y-99003777D01*
X143772070Y-99166435D01*
X143627925Y-99303703D01*
X143459858Y-99410361D01*
X143274271Y-99482346D01*
X143078250Y-99516910D01*
X142879239Y-99512742D01*
X142684827Y-99469997D01*
X142502425Y-99390308D01*
X142338973Y-99276705D01*
X142200699Y-99133518D01*
X142092870Y-98966202D01*
X142019593Y-98781124D01*
X141983661Y-98585347D01*
X141986441Y-98386310D01*
X142027826Y-98191607D01*
X142106239Y-98008656D01*
X142218702Y-97844407D01*
X142360914Y-97705143D01*
X142527479Y-97596146D01*
X142712036Y-97521580D01*
X142907561Y-97484281D01*
X143106610Y-97485671D01*
X143106610Y-97485671D01*
G37*
G36*
X225490000Y-99215000D02*
X224710000Y-99215000D01*
X224710000Y-98385000D01*
X225490000Y-98385000D01*
X225490000Y-99215000D01*
X225490000Y-99215000D01*
G37*
G36*
X228690000Y-99045000D02*
X228010000Y-99045000D01*
X228010000Y-97955000D01*
X228690000Y-97955000D01*
X228690000Y-99045000D01*
X228690000Y-99045000D01*
G37*
G36*
X229640000Y-99045000D02*
X228960000Y-99045000D01*
X228960000Y-97955000D01*
X229640000Y-97955000D01*
X229640000Y-99045000D01*
X229640000Y-99045000D01*
G37*
G36*
X227740000Y-99045000D02*
X227060000Y-99045000D01*
X227060000Y-97955000D01*
X227740000Y-97955000D01*
X227740000Y-99045000D01*
X227740000Y-99045000D01*
G37*
G36*
X155096108Y-97085605D02*
X155271881Y-97121686D01*
X155437304Y-97191223D01*
X155586067Y-97291566D01*
X155712509Y-97418893D01*
X155811810Y-97568353D01*
X155880190Y-97734257D01*
X155914887Y-97909487D01*
X155914887Y-97909511D01*
X155915039Y-97910280D01*
X155912177Y-98115235D01*
X155912003Y-98116000D01*
X155912003Y-98116020D01*
X155872425Y-98290220D01*
X155799442Y-98454144D01*
X155696004Y-98600777D01*
X155566060Y-98724521D01*
X155414551Y-98820672D01*
X155247255Y-98885562D01*
X155070536Y-98916722D01*
X154891137Y-98912964D01*
X154715878Y-98874431D01*
X154551447Y-98802593D01*
X154404099Y-98700183D01*
X154279448Y-98571103D01*
X154182241Y-98420269D01*
X154116185Y-98253430D01*
X154083792Y-98076938D01*
X154086299Y-97897510D01*
X154123605Y-97721993D01*
X154194297Y-97557059D01*
X154295674Y-97409002D01*
X154423883Y-97283449D01*
X154574030Y-97185196D01*
X154740406Y-97117976D01*
X154916669Y-97084352D01*
X155096108Y-97085605D01*
X155096108Y-97085605D01*
G37*
G36*
X148115000Y-98515000D02*
X145285000Y-98515000D01*
X145285000Y-96285000D01*
X148115000Y-96285000D01*
X148115000Y-98515000D01*
X148115000Y-98515000D01*
G37*
G36*
X243690000Y-98365000D02*
X242160000Y-98365000D01*
X242160000Y-96835000D01*
X243690000Y-96835000D01*
X243690000Y-98365000D01*
X243690000Y-98365000D01*
G37*
G36*
X254390000Y-98265000D02*
X252810000Y-98265000D01*
X252810000Y-97235000D01*
X254390000Y-97235000D01*
X254390000Y-98265000D01*
X254390000Y-98265000D01*
G37*
G36*
X157080353Y-96685504D02*
X157227310Y-96715670D01*
X157365615Y-96773808D01*
X157489992Y-96857701D01*
X157595705Y-96964155D01*
X157678728Y-97089114D01*
X157735898Y-97227822D01*
X157764881Y-97374195D01*
X157764881Y-97374219D01*
X157765033Y-97374988D01*
X157762641Y-97546344D01*
X157762467Y-97547109D01*
X157762467Y-97547129D01*
X157729406Y-97692645D01*
X157668388Y-97829695D01*
X157581908Y-97952288D01*
X157473262Y-98055750D01*
X157346592Y-98136137D01*
X157206722Y-98190389D01*
X157058972Y-98216441D01*
X156908984Y-98213300D01*
X156762454Y-98181083D01*
X156624979Y-98121022D01*
X156501786Y-98035400D01*
X156397570Y-97927481D01*
X156316299Y-97801372D01*
X156261071Y-97661885D01*
X156233989Y-97514326D01*
X156236084Y-97364312D01*
X156267276Y-97217565D01*
X156326377Y-97079673D01*
X156411135Y-96955886D01*
X156518326Y-96850917D01*
X156643863Y-96768768D01*
X156782963Y-96712568D01*
X156930329Y-96684456D01*
X157080353Y-96685504D01*
X157080353Y-96685504D01*
G37*
G36*
X153080353Y-96685504D02*
X153227310Y-96715670D01*
X153365615Y-96773808D01*
X153489992Y-96857701D01*
X153595705Y-96964155D01*
X153678728Y-97089114D01*
X153735898Y-97227822D01*
X153764881Y-97374195D01*
X153764881Y-97374219D01*
X153765033Y-97374988D01*
X153762641Y-97546344D01*
X153762467Y-97547109D01*
X153762467Y-97547129D01*
X153729406Y-97692645D01*
X153668388Y-97829695D01*
X153581908Y-97952288D01*
X153473262Y-98055750D01*
X153346592Y-98136137D01*
X153206722Y-98190389D01*
X153058972Y-98216441D01*
X152908984Y-98213300D01*
X152762454Y-98181083D01*
X152624979Y-98121022D01*
X152501786Y-98035400D01*
X152397570Y-97927481D01*
X152316299Y-97801372D01*
X152261071Y-97661885D01*
X152233989Y-97514326D01*
X152236084Y-97364312D01*
X152267276Y-97217565D01*
X152326377Y-97079673D01*
X152411135Y-96955886D01*
X152518326Y-96850917D01*
X152643863Y-96768768D01*
X152782963Y-96712568D01*
X152930329Y-96684456D01*
X153080353Y-96685504D01*
X153080353Y-96685504D01*
G37*
G36*
X251890000Y-97690000D02*
X250460000Y-97690000D01*
X250460000Y-96860000D01*
X251890000Y-96860000D01*
X251890000Y-97690000D01*
X251890000Y-97690000D01*
G37*
M02*
