M48
;DRILL file {KiCad 4.0.4-stable} date 03/06/17 10:00:24
;FORMAT={-:-/ absolute / metric / decimal}
FMAT,2
METRIC,TZ
T1C0.220
T2C0.300
T3C0.500
T4C0.762
T5C0.800
T6C0.920
T7C1.000
T8C1.100
T9C1.200
T10C1.300
T11C1.400
T12C2.080
T13C2.300
T14C3.000
T15C3.250
T16C2.200
%
G90
G05
M71
T1
X107.4Y-139.
X114.Y-133.85
X115.9Y-132.1
X116.8Y-135.1
X118.5Y-125.9
X119.Y-108.9
X119.Y-110.4
X119.7Y-117.65
X119.9Y-144.85
X120.Y-107.1
X120.4Y-125.85
X120.6Y-138.85
X121.2Y-136.8
X121.75Y-128.15
X122.6Y-138.85
X122.7Y-136.8
X123.1Y-111.45
X123.45Y-108.8
X123.7Y-104.8
X123.7Y-106.8
X123.8Y-134.85
X123.9Y-141.
X124.3Y-138.7
X125.8Y-138.7
X125.855Y-136.494
X125.893Y-118.432
X125.9Y-128.7
X125.9Y-130.
X125.9Y-130.65
X125.9Y-131.3
X125.9Y-131.95
X125.9Y-133.9
X125.9Y-134.55
X125.9Y-135.2
X125.9Y-135.85
X125.9Y-137.15
X125.9Y-141.
X126.2Y-123.95
X127.Y-145.5
X127.3Y-123.95
X127.55Y-126.35
X127.6Y-151.3
X128.5Y-132.96
X128.65Y-126.35
X128.95Y-118.5
X129.Y-140.15
X129.Y-142.25
X129.25Y-148.6
X130.Y-126.5
X130.2Y-132.96
X130.55Y-114.
X130.85Y-139.25
X131.Y-141.3
X131.05Y-144.15
X131.05Y-145.05
X131.4Y-124.85
X131.4Y-125.75
X133.1Y-129.35
X133.1Y-130.
X133.1Y-130.65
X133.1Y-131.3
X133.1Y-131.95
X133.1Y-132.6
X133.1Y-133.9
X133.1Y-134.55
X133.1Y-135.2
X133.1Y-135.85
X133.1Y-137.15
X134.7Y-121.9
X134.7Y-122.8
X134.75Y-124.5
X135.35Y-130.9
X135.432Y-127.927
X136.2Y-137.9
X136.3Y-103.7
X136.551Y-121.797
X136.75Y-124.5
X136.8Y-133.25
X136.8Y-134.75
X137.15Y-115.
X137.432Y-127.927
X137.8Y-103.7
X138.Y-105.3
X138.Y-106.2
X138.051Y-121.797
X138.2Y-137.9
X139.Y-142.6
X139.4Y-136.45
X140.Y-140.45
X140.778Y-99.5
X140.95Y-127.85
X141.Y-106.75
X143.2Y-109.975
X148.375Y-124.1
X148.75Y-121.95
X152.Y-124.05
X152.Y-125.95
X152.Y-131.2
X153.6Y-131.2
X154.Y-125.
X156.3Y-114.8
X157.748Y-129.1
X157.748Y-134.602
X158.1Y-113.9
X158.1Y-115.4
X158.35Y-119.8
X158.5Y-106.4
X159.25Y-119.8
X159.724Y-129.1
X159.724Y-134.602
X159.95Y-124.85
X161.7Y-129.1
X161.7Y-134.602
X165.4Y-121.4
X165.4Y-126.15
X166.55Y-121.4
X166.75Y-103.425
X168.25Y-103.425
X168.875Y-112.025
X169.15Y-134.7
X169.15Y-142.5
X169.7Y-107.49
X169.7Y-108.14
X169.7Y-108.79
X169.7Y-109.44
X169.775Y-112.025
X171.5Y-111.85
X171.65Y-106.65
X171.65Y-108.15
X172.05Y-109.65
X172.373Y-127.3
X172.4Y-111.85
X173.8Y-138.8
X174.Y-107.49
X174.Y-108.79
X174.Y-109.44
X174.349Y-127.3
X174.35Y-132.85
X174.65Y-101.1
X175.5Y-97.9
X175.55Y-101.1
X175.9Y-102.45
X175.95Y-107.25
X176.3Y-111.8
X176.325Y-127.3
X176.65Y-131.1
X176.7Y-148.4
X176.7Y-149.4
X176.75Y-144.7
X176.9Y-103.4
X177.1Y-111.
X177.1Y-124.05
X177.4Y-102.45
X177.609Y-147.883
X177.609Y-148.883
X177.65Y-107.25
X177.85Y-121.4
X177.9Y-99.9
X177.9Y-100.8
X177.9Y-104.
X177.9Y-143.5
X177.95Y-131.7
X177.95Y-133.9
X178.05Y-146.95
X178.4Y-103.4
X178.5Y-128.45
X178.509Y-150.283
X178.6Y-108.7
X178.6Y-126.55
X178.69Y-150.86
X178.7Y-145.4
X178.9Y-102.45
X178.9Y-131.7
X179.25Y-124.3
X179.4Y-103.8
X179.4Y-143.5
X179.5Y-126.55
X179.5Y-145.5
X179.5Y-146.35
X179.509Y-148.383
X179.509Y-150.783
X179.85Y-131.7
X179.85Y-133.9
X179.95Y-150.35
X180.4Y-102.45
X180.75Y-124.3
X180.75Y-138.5
X180.9Y-103.4
X180.9Y-146.95
X181.4Y-105.4
X181.45Y-150.2
X181.5Y-144.1
X181.55Y-147.883
X181.65Y-149.25
X181.9Y-103.4
X182.25Y-151.7
X182.4Y-102.45
X182.55Y-104.5
X183.Y-144.1
X183.3Y-127.2
X183.4Y-102.45
X183.4Y-148.4
X183.45Y-145.75
X183.7Y-121.45
X183.75Y-151.7
X183.95Y-107.
X184.1Y-133.8
X184.15Y-136.05
X184.15Y-138.05
X184.161Y-131.8
X184.376Y-127.205
X184.75Y-124.15
X184.9Y-102.45
X184.95Y-140.7
X185.05Y-103.8
X185.2Y-129.55
X186.1Y-132.
X186.1Y-133.455
X186.7Y-121.45
X186.75Y-116.1
X186.75Y-118.1
X186.798Y-145.85
X186.798Y-147.35
X186.9Y-149.25
X187.15Y-135.1
X187.15Y-138.1
X187.9Y-122.2
X187.929Y-132.011
X187.929Y-133.511
X187.95Y-140.7
X188.15Y-124.5
X188.15Y-126.5
X188.2Y-129.55
X188.65Y-144.8
X188.65Y-145.75
X188.65Y-146.7
X188.75Y-120.1
X188.8Y-121.4
X188.8Y-122.15
X188.9Y-149.25
X189.7Y-137.55
X189.7Y-140.55
X189.75Y-120.1
X189.75Y-121.1
X189.75Y-122.1
X189.75Y-124.1
X189.75Y-125.1
X189.75Y-126.1
X189.75Y-127.1
X189.75Y-130.1
X189.75Y-131.1
X189.75Y-134.1
X189.75Y-135.1
X189.75Y-136.1
X190.036Y-116.445
X190.2Y-118.25
X190.4Y-151.95
X190.75Y-120.1
X190.75Y-121.1
X190.75Y-122.1
X190.75Y-123.1
X190.75Y-124.1
X190.75Y-126.1
X190.75Y-127.1
X190.75Y-128.1
X190.75Y-129.1
X190.75Y-130.1
X190.75Y-131.1
X190.75Y-132.1
X190.75Y-134.1
X190.75Y-135.1
X190.75Y-136.1
X191.25Y-137.95
X191.25Y-139.45
X191.5Y-143.8
X191.75Y-120.1
X191.75Y-121.1
X191.75Y-122.1
X191.75Y-123.1
X191.75Y-125.1
X191.75Y-126.1
X191.75Y-127.1
X191.75Y-128.1
X191.75Y-129.1
X191.75Y-131.1
X191.75Y-132.1
X191.75Y-133.1
X191.75Y-135.1
X192.35Y-96.5
X192.4Y-151.95
X192.7Y-140.55
X192.75Y-120.1
X192.75Y-121.1
X192.75Y-122.1
X192.75Y-123.1
X192.75Y-124.1
X192.75Y-125.1
X192.75Y-126.1
X192.75Y-127.1
X192.75Y-129.1
X192.75Y-130.1
X192.75Y-131.1
X192.75Y-132.1
X192.75Y-133.1
X192.75Y-134.1
X192.75Y-135.1
X192.8Y-137.55
X192.8Y-146.1
X193.25Y-142.7
X193.7Y-128.1
X193.75Y-120.1
X193.75Y-121.1
X193.75Y-122.1
X193.75Y-123.1
X193.75Y-124.1
X193.75Y-125.1
X193.75Y-126.1
X193.75Y-127.1
X193.75Y-129.1
X193.75Y-131.1
X193.75Y-133.1
X193.75Y-134.1
X193.75Y-135.1
X193.75Y-136.195
X194.2Y-138.8
X194.2Y-139.85
X194.25Y-140.75
X194.75Y-120.1
X194.75Y-121.1
X194.75Y-122.1
X194.75Y-123.1
X194.75Y-124.1
X194.75Y-125.1
X194.75Y-126.1
X194.75Y-127.1
X194.75Y-128.1
X194.75Y-129.1
X194.75Y-130.1
X194.75Y-131.1
X194.75Y-132.1
X194.75Y-133.1
X194.75Y-134.1
X194.75Y-135.1
X194.75Y-136.1
X195.75Y-120.1
X195.75Y-121.1
X195.75Y-122.1
X195.75Y-123.1
X195.75Y-124.1
X195.75Y-125.1
X195.75Y-126.1
X195.75Y-127.1
X195.75Y-129.1
X195.75Y-130.1
X195.75Y-131.1
X195.75Y-132.1
X195.75Y-133.1
X195.75Y-134.1
X195.75Y-135.1
X196.75Y-122.1
X196.75Y-123.1
X196.75Y-124.1
X196.75Y-125.1
X196.75Y-126.1
X196.75Y-127.1
X196.75Y-128.1
X196.75Y-129.1
X196.75Y-130.1
X196.75Y-131.1
X196.75Y-132.1
X196.75Y-133.1
X196.75Y-134.1
X196.75Y-135.1
X197.3Y-144.3
X197.55Y-136.85
X197.75Y-120.1
X197.75Y-121.1
X197.75Y-122.1
X197.75Y-123.1
X197.75Y-125.1
X197.75Y-126.1
X197.75Y-130.1
X197.75Y-131.1
X197.8Y-139.5
X197.849Y-113.65
X197.849Y-115.65
X198.049Y-141.551
X198.75Y-120.1
X198.75Y-121.1
X198.75Y-122.1
X198.75Y-123.1
X198.75Y-124.1
X198.75Y-125.1
X198.75Y-126.1
X198.75Y-127.1
X198.75Y-128.1
X198.75Y-129.1
X198.75Y-130.1
X198.75Y-131.1
X198.75Y-132.1
X198.75Y-133.1
X198.75Y-134.1
X198.75Y-135.1
X198.75Y-136.1
X199.1Y-109.6
X199.3Y-139.5
X199.75Y-120.1
X199.75Y-121.1
X199.75Y-122.1
X199.75Y-123.1
X199.75Y-124.1
X199.75Y-125.1
X199.75Y-126.1
X199.75Y-127.1
X199.75Y-129.1
X199.75Y-130.1
X199.75Y-131.1
X199.75Y-132.1
X199.75Y-133.1
X199.75Y-134.1
X199.75Y-135.1
X199.75Y-136.1
X200.049Y-141.551
X200.05Y-138.65
X200.75Y-120.1
X200.75Y-121.1
X200.75Y-122.1
X200.75Y-124.1
X200.75Y-125.1
X200.75Y-126.1
X200.75Y-129.1
X200.75Y-130.1
X200.75Y-131.1
X200.75Y-132.1
X200.75Y-133.1
X200.75Y-134.1
X200.75Y-135.1
X200.75Y-136.1
X201.05Y-110.3
X201.4Y-108.3
X201.75Y-120.1
X201.75Y-121.1
X201.75Y-122.1
X201.75Y-123.1
X201.75Y-124.1
X201.75Y-125.1
X201.75Y-126.1
X201.75Y-127.1
X201.75Y-129.1
X201.75Y-130.1
X201.75Y-131.1
X201.75Y-132.1
X201.75Y-133.1
X201.75Y-134.1
X201.75Y-135.1
X201.75Y-136.2
X201.8Y-137.95
X202.003Y-138.603
X202.4Y-106.9
X202.65Y-110.9
X202.75Y-120.1
X202.75Y-121.1
X202.75Y-122.1
X202.75Y-123.1
X202.75Y-124.1
X202.75Y-125.1
X202.75Y-126.1
X202.75Y-127.1
X202.75Y-128.1
X202.75Y-129.1
X202.75Y-130.1
X202.75Y-131.1
X202.75Y-132.1
X202.75Y-133.1
X202.75Y-134.1
X202.75Y-135.1
X202.75Y-140.45
X203.3Y-138.05
X203.4Y-108.3
X203.6Y-110.9
X203.75Y-120.1
X203.75Y-121.1
X203.75Y-122.1
X203.75Y-123.1
X203.75Y-124.1
X203.75Y-125.1
X203.75Y-126.1
X203.75Y-128.1
X203.75Y-129.1
X203.75Y-130.1
X203.75Y-131.1
X203.75Y-132.1
X203.75Y-133.1
X203.75Y-134.1
X203.75Y-135.1
X203.75Y-136.1
X204.2Y-97.7
X204.2Y-99.6
X204.749Y-126.1
X204.749Y-135.1
X204.75Y-120.1
X204.75Y-121.1
X204.75Y-122.1
X204.75Y-123.1
X204.75Y-124.1
X204.75Y-125.1
X204.75Y-127.1
X204.75Y-129.1
X204.75Y-130.1
X204.75Y-131.1
X204.75Y-132.1
X204.75Y-133.1
X204.75Y-134.1
X204.75Y-136.1
X205.3Y-107.5
X205.3Y-108.3
X205.3Y-109.1
X205.4Y-105.25
X205.4Y-106.15
X205.75Y-116.405
X205.75Y-118.7
X205.75Y-120.1
X205.75Y-123.1
X205.75Y-124.1
X205.75Y-125.1
X205.75Y-126.1
X205.75Y-127.1
X205.75Y-129.1
X205.75Y-130.1
X205.75Y-131.1
X205.75Y-132.1
X205.75Y-133.1
X205.75Y-134.1
X205.75Y-135.1
X205.75Y-136.1
X205.77Y-128.104
X206.1Y-109.1
X206.55Y-103.1
X206.75Y-128.1
X206.9Y-105.9
X206.9Y-107.5
X206.9Y-109.1
X206.9Y-114.95
X207.4Y-112.4
X207.7Y-107.5
X207.7Y-109.1
X207.75Y-118.7
X207.779Y-116.405
X208.35Y-129.1
X208.5Y-107.5
X208.5Y-108.3
X208.5Y-109.1
X208.6Y-133.3
X208.6Y-134.6
X208.85Y-130.1
X208.9Y-114.95
X209.25Y-104.6
X209.4Y-112.4
X210.25Y-108.3
X210.65Y-130.4
X210.65Y-131.8
X210.65Y-133.2
X210.65Y-134.6
X210.65Y-136.
X210.65Y-137.6
X210.65Y-139.05
X210.65Y-140.45
X210.65Y-141.85
X211.65Y-111.6
X211.65Y-112.4
X211.65Y-113.2
X211.65Y-114.
X211.65Y-114.8
X211.65Y-115.6
X211.65Y-118.8
X211.65Y-122.
X211.656Y-117.205
X211.668Y-116.405
X211.709Y-123.595
X211.75Y-108.3
X212.4Y-129.1
X212.45Y-112.4
X212.45Y-113.2
X212.45Y-114.
X212.45Y-115.6
X212.45Y-117.2
X212.45Y-119.6
X212.45Y-120.4
X212.45Y-121.2
X212.45Y-122.
X212.45Y-122.8
X212.45Y-123.6
X212.465Y-116.405
X212.75Y-130.4
X212.75Y-131.8
X212.75Y-133.2
X212.75Y-134.6
X212.75Y-136.
X212.75Y-137.6
X212.75Y-139.05
X212.75Y-140.45
X212.75Y-141.85
X212.8Y-103.3
X213.238Y-118.005
X213.25Y-111.6
X213.25Y-112.4
X213.25Y-113.2
X213.25Y-113.995
X213.25Y-114.8
X213.25Y-115.6
X213.25Y-118.8
X213.25Y-119.6
X213.25Y-120.4
X213.25Y-121.2
X213.25Y-122.
X213.25Y-122.8
X213.25Y-116.395
X213.259Y-117.195
X213.3Y-104.55
X213.3Y-130.
X213.3Y-131.4
X213.3Y-132.8
X213.3Y-134.2
X213.3Y-135.6
X213.3Y-137.
X213.35Y-138.65
X213.35Y-140.05
X213.35Y-141.45
X213.65Y-108.35
X214.1Y-106.
X214.3Y-103.3
X214.3Y-111.6
X214.3Y-113.2
X214.3Y-114.8
X214.3Y-116.4
X215.Y-106.
X215.2Y-129.
X215.4Y-130.
X215.4Y-131.4
X215.4Y-132.8
X215.4Y-134.2
X215.4Y-135.6
X215.4Y-137.
X215.45Y-138.65
X215.45Y-140.05
X215.45Y-141.45
X215.9Y-105.35
X215.9Y-106.45
X215.95Y-129.6
X215.95Y-131.
X215.95Y-133.8
X215.95Y-135.2
X216.Y-132.4
X216.Y-138.25
X216.Y-139.65
X216.Y-141.05
X216.45Y-112.4
X216.45Y-114.8
X216.45Y-116.4
X216.45Y-118.
X216.45Y-119.6
X216.45Y-120.4
X216.45Y-121.2
X216.45Y-122.
X216.45Y-122.8
X217.25Y-111.6
X217.25Y-112.4
X217.25Y-113.2
X217.25Y-114.
X217.25Y-114.8
X217.25Y-115.6
X217.25Y-116.4
X217.25Y-117.2
X217.25Y-118.
X217.25Y-118.8
X217.25Y-120.4
X217.25Y-121.2
X217.25Y-122.8
X217.5Y-108.75
X218.Y-129.6
X218.05Y-112.4
X218.05Y-113.2
X218.05Y-114.
X218.05Y-114.8
X218.05Y-115.6
X218.05Y-116.4
X218.05Y-117.2
X218.05Y-118.
X218.05Y-118.8
X218.05Y-120.4
X218.05Y-122.05
X218.05Y-131.
X218.05Y-133.8
X218.05Y-135.2
X218.1Y-138.25
X218.1Y-139.65
X218.1Y-141.05
X218.5Y-106.85
X218.6Y-125.2
X218.6Y-126.1
X218.6Y-132.4
X218.85Y-111.6
X218.85Y-113.2
X218.85Y-114.8
X218.85Y-116.4
X218.85Y-118.
X218.85Y-119.6
X218.85Y-120.4
X218.85Y-122.
X219.5Y-107.9
X220.009Y-143.745
X220.1Y-116.1
X220.55Y-124.65
X220.8Y-107.9
X220.915Y-143.745
X221.45Y-114.815
X221.45Y-116.315
X221.45Y-118.815
X221.45Y-120.35
X221.888Y-143.745
X222.9Y-117.8
X223.Y-115.15
X223.Y-116.05
X223.Y-119.1
X223.Y-120.
X223.65Y-128.35
X223.65Y-129.45
X224.055Y-140.95
X224.2Y-136.8
X224.2Y-138.4
X224.55Y-114.815
X224.55Y-116.315
X224.55Y-118.815
X224.55Y-120.4
X224.75Y-143.75
X224.8Y-108.7
X225.1Y-128.8
X225.2Y-131.9
X225.5Y-111.75
X225.5Y-116.7
X225.65Y-140.95
X225.8Y-111.
X226.Y-136.8
X226.Y-138.4
X226.1Y-119.
X226.2Y-114.05
X226.25Y-143.75
X226.35Y-106.8
X226.35Y-121.25
X226.6Y-128.8
X226.8Y-130.45
X226.8Y-131.95
X226.8Y-133.6
X226.8Y-135.2
X227.2Y-147.2
X227.25Y-140.95
X227.4Y-116.1
X227.826Y-143.75
X228.Y-122.598
X228.Y-124.574
X228.Y-126.55
X228.Y-136.9
X228.Y-138.4
X228.4Y-103.4
X228.4Y-104.3
X228.5Y-133.7
X228.5Y-135.2
X228.55Y-96.95
X228.6Y-128.8
X228.6Y-130.45
X228.6Y-132.
X228.85Y-140.95
X228.9Y-109.9
X228.95Y-115.15
X229.326Y-143.75
X229.55Y-115.5
X229.7Y-147.66
X229.797Y-132.005
X229.797Y-132.805
X229.797Y-133.605
X229.797Y-136.005
X229.797Y-139.205
X229.797Y-140.805
X229.8Y-128.8
X229.8Y-135.2
X229.8Y-136.8
X229.8Y-137.6
X229.8Y-140.
X230.1Y-107.5
X230.1Y-118.1
X230.25Y-113.45
X230.3Y-143.85
X230.55Y-122.6
X230.597Y-134.405
X230.597Y-137.605
X230.6Y-132.
X230.6Y-132.8
X230.6Y-133.6
X230.6Y-135.2
X230.6Y-136.
X230.6Y-136.8
X230.6Y-138.4
X230.6Y-139.2
X230.6Y-140.
X230.6Y-140.8
X230.7Y-121.9
X230.8Y-114.8
X230.9Y-117.6
X231.1Y-145.6
X231.35Y-140.85
X231.397Y-135.205
X231.4Y-132.
X231.4Y-132.8
X231.4Y-133.6
X231.4Y-134.4
X231.4Y-136.
X231.4Y-137.603
X231.4Y-138.4
X231.4Y-139.2
X231.4Y-140.
X231.55Y-143.35
X231.7Y-148.7
X231.7Y-150.2
X232.Y-111.235
X232.Y-112.505
X232.Y-113.775
X232.Y-115.07
X232.197Y-137.605
X232.197Y-139.205
X232.197Y-140.005
X232.197Y-140.805
X232.2Y-128.6
X232.2Y-132.
X232.2Y-132.8
X232.2Y-133.6
X232.2Y-134.4
X232.2Y-135.2
X232.2Y-136.8
X232.2Y-138.4
X232.467Y-141.728
X232.55Y-123.6
X232.55Y-124.5
X232.7Y-145.6
X232.997Y-132.005
X232.997Y-137.605
X232.997Y-138.405
X232.997Y-139.205
X232.997Y-140.005
X232.997Y-140.805
X233.Y-128.6
X233.Y-132.8
X233.Y-133.6
X233.Y-134.4
X233.Y-135.2
X233.Y-136.
X233.Y-136.8
X233.1Y-141.8
X233.1Y-147.2
X233.2Y-124.
X233.3Y-148.7
X233.3Y-149.8
X233.525Y-117.116
X233.525Y-118.016
X233.75Y-112.525
X233.75Y-114.025
X233.8Y-132.005
X233.8Y-122.15
X233.8Y-123.05
X233.8Y-132.8
X233.8Y-133.6
X233.8Y-134.4
X233.8Y-135.2
X233.8Y-136.
X233.8Y-138.4
X233.8Y-139.2
X233.8Y-140.8
X233.8Y-141.75
X233.9Y-103.2
X234.597Y-139.205
X234.6Y-128.6
X234.6Y-132.
X234.6Y-132.8
X234.6Y-134.4
X234.6Y-135.2
X234.6Y-136.8
X234.6Y-137.6
X234.6Y-138.4
X234.6Y-140.
X234.6Y-140.8
X234.8Y-103.2
X234.85Y-122.35
X234.85Y-145.7
X235.1Y-115.2
X235.1Y-151.47
X235.2Y-112.7
X235.245Y-147.686
X235.245Y-148.956
X235.245Y-150.226
X235.397Y-136.005
X235.397Y-136.8
X235.4Y-128.6
X235.4Y-132.
X235.4Y-132.8
X235.4Y-133.6
X235.4Y-134.4
X235.4Y-135.2
X235.4Y-137.6
X235.4Y-138.4
X235.4Y-139.2
X235.4Y-140.
X235.4Y-140.8
X235.5Y-124.25
X235.55Y-125.4
X236.05Y-145.5
X236.1Y-126.35
X236.125Y-103.95
X236.15Y-121.15
X236.197Y-138.405
X236.197Y-139.205
X236.2Y-115.2
X236.2Y-131.2
X236.2Y-132.
X236.2Y-134.4
X236.2Y-135.2
X236.2Y-136.8
X236.2Y-140.
X236.6Y-120.5
X236.9Y-114.3
X236.997Y-140.805
X237.Y-119.3
X237.Y-132.
X237.Y-132.8
X237.Y-133.6
X237.Y-135.2
X237.Y-136.8
X237.Y-137.6
X237.Y-138.4
X237.Y-139.2
X237.Y-140.
X237.Y-141.75
X237.15Y-145.5
X237.25Y-111.4
X237.25Y-112.3
X237.525Y-103.15
X237.797Y-132.005
X237.797Y-132.805
X237.797Y-134.405
X237.797Y-137.605
X237.797Y-138.405
X237.797Y-139.205
X237.8Y-123.15
X237.8Y-133.6
X237.8Y-135.2
X237.8Y-136.
X237.8Y-136.805
X237.8Y-140.8
X238.065Y-109.299
X238.3Y-143.65
X238.45Y-125.6
X238.5Y-130.1
X238.5Y-141.8
X238.597Y-138.405
X238.6Y-132.
X238.6Y-133.6
X238.6Y-134.4
X238.625Y-103.15
X238.965Y-109.299
X239.1Y-116.525
X239.3Y-111.26
X239.3Y-113.775
X239.5Y-137.2
X239.5Y-138.3
X239.6Y-143.65
X239.65Y-107.35
X239.9Y-130.1
X240.05Y-135.2
X240.239Y-109.064
X240.5Y-120.
X240.5Y-120.95
X240.5Y-121.9
X240.9Y-145.4
X241.Y-107.5
X241.1Y-139.15
X241.2Y-105.4
X241.2Y-115.7
X241.25Y-113.45
X241.3Y-112.5
X241.3Y-135.05
X241.478Y-128.6
X241.525Y-114.65
X241.75Y-142.1
X241.75Y-143.8
X241.8Y-120.
X241.8Y-120.95
X241.8Y-121.9
X241.8Y-122.7
X241.8Y-145.4
X242.1Y-107.5
X242.364Y-110.95
X242.364Y-111.95
X242.364Y-112.95
X242.364Y-113.95
X242.4Y-125.3
X242.6Y-105.1
X242.65Y-139.05
X243.15Y-111.45
X243.25Y-117.25
X243.45Y-143.65
X243.45Y-145.15
X244.1Y-104.45
X244.2Y-109.95
X244.2Y-111.45
X244.25Y-113.
X244.3Y-118.8
X244.3Y-123.8
X244.3Y-125.3
X244.4Y-138.15
X244.5Y-128.35
X244.509Y-140.6
X244.614Y-108.7
X245.3Y-121.9
X245.45Y-132.65
X245.6Y-105.3
X245.6Y-106.2
X245.6Y-116.8
X245.75Y-113.
X245.9Y-124.9
X245.9Y-138.15
X246.Y-143.15
X246.114Y-115.7
X246.3Y-128.35
X246.3Y-129.45
X246.35Y-110.2
X246.5Y-125.85
X246.5Y-126.75
X246.55Y-96.95
X246.65Y-116.3
X246.9Y-132.4
X247.Y-120.5
X247.1Y-116.8
X247.114Y-108.7
X247.614Y-115.7
X247.75Y-103.75
X247.8Y-132.4
X247.85Y-110.2
X247.9Y-122.6
X247.9Y-124.1
X248.15Y-113.45
X248.3Y-102.6
X248.35Y-96.95
X248.65Y-108.7
X248.85Y-103.75
X248.85Y-126.55
X249.364Y-110.95
X249.364Y-112.95
X249.364Y-113.95
X249.5Y-115.9
X249.512Y-123.262
X249.512Y-124.938
X249.65Y-117.25
X249.8Y-105.25
X249.8Y-106.75
X250.35Y-110.45
X251.Y-115.9
X251.Y-118.2
X251.1Y-103.55
X251.188Y-123.262
X251.188Y-124.938
X251.35Y-126.55
X251.85Y-121.65
X252.Y-105.25
X252.Y-106.75
X252.75Y-127.2
X252.8Y-124.6
X253.35Y-124.1
X253.375Y-125.1
X253.65Y-127.2
X253.85Y-125.6
X253.875Y-123.6
X254.4Y-122.
X254.8Y-130.9
X254.8Y-132.
X255.8Y-122.
X257.45Y-111.3
X257.45Y-113.2
X259.05Y-103.2
X259.45Y-112.25
X259.65Y-107.65
X259.95Y-103.2
X260.5Y-107.65
X261.95Y-102.95
X261.95Y-103.85
X262.1Y-109.05
X263.95Y-105.75
X263.95Y-106.6
X264.45Y-111.25
X264.45Y-113.15
X266.45Y-112.2
X268.05Y-111.1
X268.05Y-112.
T2
X113.25Y-138.75
X113.25Y-139.5
X113.25Y-140.25
X113.25Y-141.
X113.25Y-142.75
X113.25Y-143.5
X114.Y-138.75
X114.Y-139.5
X114.Y-140.25
X114.Y-141.
X114.Y-142.
X114.Y-142.75
X114.Y-143.5
X114.75Y-138.75
X114.75Y-139.5
X114.75Y-140.25
X114.75Y-141.
X114.75Y-142.
X114.75Y-142.75
X114.75Y-143.5
X115.5Y-138.75
X115.5Y-139.5
X115.5Y-140.25
X115.5Y-141.
X115.5Y-142.
X115.5Y-142.75
X115.5Y-143.5
X116.25Y-142.
X116.25Y-142.75
X116.25Y-143.5
X118.Y-149.
X118.Y-149.75
X118.Y-150.5
X118.Y-151.25
X118.75Y-149.
X118.75Y-151.186
X118.819Y-149.686
X118.819Y-150.436
X119.569Y-148.936
X119.569Y-149.686
X119.569Y-150.436
X119.569Y-151.186
X120.319Y-148.936
X120.319Y-149.686
X120.319Y-150.436
X120.319Y-151.186
X122.25Y-148.936
X122.25Y-149.686
X122.25Y-150.5
X122.25Y-151.25
X123.Y-148.936
X123.Y-149.686
X123.Y-150.486
X123.Y-151.25
X123.75Y-148.936
X123.75Y-149.75
X123.75Y-150.486
X123.75Y-151.25
X124.5Y-148.936
X124.5Y-149.75
X124.5Y-150.5
X124.5Y-151.25
X165.75Y-131.
X165.75Y-131.75
X166.25Y-145.75
X166.5Y-131.
X166.5Y-131.75
X167.Y-145.75
X167.Y-146.5
X167.25Y-131.
X167.25Y-131.75
X167.75Y-145.75
X167.75Y-146.5
X168.Y-130.25
X168.Y-142.5
X168.Y-143.25
X168.Y-144.
X168.Y-144.75
X168.75Y-130.25
X168.75Y-131.
X169.Y-145.5
X169.5Y-130.25
X169.5Y-131.
X169.5Y-131.75
X169.75Y-145.5
X170.25Y-130.25
X170.25Y-131.
X171.Y-130.25
X171.Y-131.
X171.75Y-130.25
X171.75Y-131.
X173.25Y-143.25
X173.25Y-144.
X173.25Y-144.75
X173.25Y-145.75
X177.3Y-134.9
X177.8Y-135.4
X177.9Y-132.8
X178.3Y-135.9
X178.6Y-132.8
X179.3Y-132.8
X179.6Y-135.1
X179.6Y-137.
X180.Y-132.8
X180.3Y-135.1
X180.3Y-135.8
X181.25Y-136.5
X182.Y-136.5
X185.Y-104.5
X185.75Y-102.5
X194.5Y-146.
X194.5Y-146.75
X194.5Y-147.5
X194.5Y-148.25
X195.25Y-146.
X195.25Y-146.75
X195.25Y-147.5
X195.25Y-148.25
X196.Y-146.
X196.Y-146.75
X196.75Y-146.
X196.75Y-146.75
X247.5Y-145.
X247.5Y-145.75
X247.5Y-146.5
X247.5Y-147.25
X248.25Y-145.
X248.25Y-145.75
X248.25Y-146.5
X248.25Y-147.25
X249.Y-145.
X249.Y-145.75
X249.Y-146.5
X249.Y-147.25
X249.75Y-145.
X249.75Y-145.75
X249.75Y-146.5
X249.75Y-147.25
X251.75Y-145.
X251.75Y-145.75
X251.75Y-146.5
X251.75Y-147.25
X252.5Y-145.
X252.5Y-145.75
X252.5Y-146.5
X252.5Y-147.25
X253.25Y-145.
X253.25Y-145.75
X253.25Y-146.5
X253.25Y-147.25
X254.Y-145.
X254.Y-145.75
X254.Y-146.5
X254.Y-147.25
X254.35Y-126.15
X255.05Y-123.05
X257.Y-143.75
X257.Y-144.5
X257.Y-145.25
X257.Y-146.
X257.Y-146.75
X257.75Y-144.5
X257.75Y-145.25
X257.75Y-146.
X257.75Y-146.75
X258.5Y-145.25
X258.5Y-146.
X259.25Y-146.
X259.75Y-142.25
X259.75Y-143.
X260.Y-143.75
X260.5Y-142.25
X260.5Y-143.
X260.75Y-143.75
X260.75Y-144.5
X261.25Y-142.25
X261.25Y-143.
T3
X111.5Y-137.
X115.25Y-148.6
X116.5Y-139.5
X118.5Y-139.5
X138.Y-140.45
X148.25Y-98.
X150.25Y-121.25
X152.2Y-119.85
X164.9Y-138.75
X166.9Y-138.75
X166.95Y-134.7
X166.95Y-135.65
X166.95Y-136.6
X166.95Y-142.5
X166.95Y-143.45
X166.95Y-144.4
X169.15Y-136.6
X169.15Y-144.4
X170.05Y-139.2
X170.05Y-147.05
X171.1Y-135.95
X171.1Y-137.95
X171.1Y-143.75
X171.1Y-145.75
X172.02Y-124.05
X172.373Y-121.798
X173.25Y-119.85
X174.349Y-121.798
X176.025Y-119.85
X176.325Y-121.798
X190.85Y-146.7
X192.8Y-148.1
X259.25Y-149.
X262.Y-150.
T4
X198.84Y-148.
X198.84Y-150.54
X201.38Y-148.
X201.38Y-150.54
X203.92Y-148.
X203.92Y-150.54
X206.46Y-148.
X206.46Y-150.54
X209.Y-148.
X209.Y-150.54
X214.84Y-148.
X214.84Y-150.54
X217.38Y-148.
X217.38Y-150.54
X219.92Y-148.
X219.92Y-150.54
X222.46Y-148.
X222.46Y-150.54
X225.Y-148.
X225.Y-150.54
X227.11Y-112.
X229.65Y-112.
X238.71Y-127.05
X241.25Y-127.05
X243.25Y-150.8
X245.79Y-150.8
T5
X109.41Y-138.77
X109.41Y-140.52
X109.41Y-143.02
X109.41Y-145.52
X109.41Y-147.27
X195.2Y-96.2
X201.3Y-96.2
X265.965Y-138.27
X265.965Y-140.02
X265.965Y-142.52
X265.965Y-145.02
X265.965Y-146.77
T6
X105.41Y-141.77
X105.41Y-144.27
X107.41Y-141.77
X107.41Y-144.27
X260.695Y-120.23
X260.695Y-122.73
X260.695Y-124.73
X260.695Y-127.23
X263.315Y-120.23
X263.315Y-122.73
X263.315Y-124.73
X263.315Y-127.23
X267.965Y-141.27
X267.965Y-143.77
X269.965Y-141.27
X269.965Y-143.77
T7
X211.1Y-99.
X211.1Y-101.5
X213.6Y-99.
X216.1Y-99.
X216.1Y-101.5
X228.4Y-99.
X228.4Y-101.5
X230.9Y-99.
X233.4Y-99.
X233.4Y-101.5
X245.65Y-99.
X245.65Y-101.5
X248.15Y-99.
X250.65Y-99.
X250.65Y-101.5
X262.9Y-99.
X262.9Y-101.5
X265.4Y-99.
X267.9Y-99.
X267.9Y-101.5
T8
X196.25Y-100.15
X200.25Y-100.15
T9
X144.41Y-126.52
X144.41Y-129.06
X144.41Y-131.6
X144.41Y-134.14
X144.41Y-136.68
X144.41Y-139.22
X144.41Y-141.76
X144.41Y-144.3
X146.95Y-126.52
X146.95Y-129.06
X146.95Y-131.6
X146.95Y-134.14
X146.95Y-136.68
X146.95Y-139.22
X146.95Y-141.76
X146.95Y-144.3
T10
X172.3Y-96.5
X172.9Y-101.45
X187.4Y-101.45
X188.Y-96.5
T11
X198.25Y-99.6
T12
X102.3Y-103.34
X102.3Y-113.25
X102.3Y-121.09
X102.3Y-131.
X109.92Y-103.34
X109.92Y-113.25
X109.92Y-121.09
X109.92Y-131.
X120.08Y-103.34
X120.08Y-113.25
X120.08Y-121.09
X120.08Y-131.
X133.34Y-97.25
X133.34Y-104.87
X133.34Y-115.03
X143.25Y-97.25
X143.25Y-104.87
X143.25Y-115.03
X152.25Y-97.25
X152.25Y-104.87
X152.25Y-115.03
X162.16Y-97.25
X162.16Y-104.87
X162.16Y-115.03
T13
X102.7Y-137.
X102.7Y-149.04
X260.345Y-117.16
X260.345Y-130.3
X266.025Y-117.16
X266.025Y-130.3
X272.675Y-136.5
X272.675Y-148.54
T14
X207.95Y-100.25
X219.25Y-100.25
X225.25Y-100.25
X236.55Y-100.25
X242.5Y-100.25
X253.8Y-100.25
X259.75Y-100.25
X271.05Y-100.25
T15
X115.Y-108.5
X115.Y-126.25
X138.09Y-109.95
X157.Y-109.95
T16
X102.5Y-97.5
X107.5Y-152.5
X267.5Y-152.5
X272.5Y-107.
T0
M30
