G04 #@! TF.FileFunction,Legend,Bot*
%FSLAX46Y46*%
G04 Gerber Fmt 4.6, Leading zero omitted, Abs format (unit mm)*
G04 Created by KiCad (PCBNEW 4.0.4-stable) date 03/06/17 10:02:19*
%MOMM*%
%LPD*%
G01*
G04 APERTURE LIST*
%ADD10C,0.125000*%
%ADD11C,0.200000*%
%ADD12C,0.120000*%
%ADD13C,0.127000*%
%ADD14C,0.150000*%
%ADD15C,0.203200*%
G04 APERTURE END LIST*
D10*
D11*
X265650000Y-111650000D02*
X265650000Y-112700000D01*
X130450000Y-140550000D02*
X131600000Y-140550000D01*
X188900000Y-136550000D02*
X188900000Y-138450000D01*
X215000000Y-115000000D02*
X215000000Y-135000000D01*
X197200000Y-132900000D02*
X130000000Y-125000000D01*
X250000000Y-127100000D02*
X250000000Y-129300000D01*
X208450000Y-115850000D02*
X213600000Y-115200000D01*
X211150000Y-134600000D02*
X209200000Y-134400000D01*
X208100000Y-134200000D02*
X198500000Y-133100000D01*
X190900000Y-117800000D02*
X204950000Y-116200000D01*
X246000000Y-112400000D02*
X250000000Y-110000000D01*
X250000000Y-130900000D02*
X250000000Y-140000000D01*
X240400000Y-134300000D02*
X229500000Y-127700000D01*
X226400000Y-125900000D02*
X225000000Y-125000000D01*
X229641688Y-122214987D02*
X244000000Y-113600000D01*
X130000000Y-125000000D02*
X182000000Y-118800000D01*
X215000000Y-135000000D02*
X212300000Y-134750000D01*
X225000000Y-125000000D02*
X227100000Y-123600000D01*
X250000000Y-140000000D02*
X242000000Y-135200000D01*
X250000000Y-110000000D02*
X250000000Y-120950000D01*
D12*
X192250000Y-138570000D02*
X190250000Y-138570000D01*
X190250000Y-136530000D02*
X192250000Y-136530000D01*
X211945000Y-132330000D02*
X211445000Y-132330000D01*
X211445000Y-131270000D02*
X211945000Y-131270000D01*
X214595000Y-130530000D02*
X214095000Y-130530000D01*
X214095000Y-129470000D02*
X214595000Y-129470000D01*
X211945000Y-138130000D02*
X211445000Y-138130000D01*
X211445000Y-137070000D02*
X211945000Y-137070000D01*
X214645000Y-141980000D02*
X214145000Y-141980000D01*
X214145000Y-140920000D02*
X214645000Y-140920000D01*
X217245000Y-134330000D02*
X216745000Y-134330000D01*
X216745000Y-133270000D02*
X217245000Y-133270000D01*
X217250000Y-131530000D02*
X216750000Y-131530000D01*
X216750000Y-130470000D02*
X217250000Y-130470000D01*
X211955000Y-135130000D02*
X211455000Y-135130000D01*
X211455000Y-134070000D02*
X211955000Y-134070000D01*
X211950000Y-140980000D02*
X211450000Y-140980000D01*
X211450000Y-139920000D02*
X211950000Y-139920000D01*
X214600000Y-133330000D02*
X214100000Y-133330000D01*
X214100000Y-132270000D02*
X214600000Y-132270000D01*
X214600000Y-136130000D02*
X214100000Y-136130000D01*
X214100000Y-135070000D02*
X214600000Y-135070000D01*
X214645000Y-139180000D02*
X214145000Y-139180000D01*
X214145000Y-138120000D02*
X214645000Y-138120000D01*
X217300000Y-140180000D02*
X216800000Y-140180000D01*
X216800000Y-139120000D02*
X217300000Y-139120000D01*
D13*
X92400000Y-149320000D02*
X92400000Y-136720000D01*
X110750000Y-136720000D02*
X110750000Y-149320000D01*
X110700000Y-149320000D02*
X104700000Y-149320000D01*
X100700000Y-149320000D02*
X92400000Y-149320000D01*
X92400000Y-136720000D02*
X100600000Y-136720000D01*
X110700000Y-136720000D02*
X104700000Y-136720000D01*
X282975000Y-136220000D02*
X282975000Y-148820000D01*
X264625000Y-148820000D02*
X264625000Y-136220000D01*
X264675000Y-136220000D02*
X270675000Y-136220000D01*
X274675000Y-136220000D02*
X282975000Y-136220000D01*
X282975000Y-148820000D02*
X274775000Y-148820000D01*
X264675000Y-148820000D02*
X270675000Y-148820000D01*
D12*
X130930000Y-127850000D02*
X130930000Y-127350000D01*
X131870000Y-127350000D02*
X131870000Y-127850000D01*
X125400000Y-138100000D02*
X124700000Y-138100000D01*
X124700000Y-139300000D02*
X125400000Y-139300000D01*
X122300000Y-136200000D02*
X121600000Y-136200000D01*
X121600000Y-137400000D02*
X122300000Y-137400000D01*
D14*
X254000000Y-122600000D02*
G75*
G03X254000000Y-122600000I-150000J0D01*
G01*
X247725000Y-121475000D02*
X247725000Y-122225000D01*
X252975000Y-126725000D02*
X252975000Y-125975000D01*
X247725000Y-126725000D02*
X247725000Y-125975000D01*
X252975000Y-121475000D02*
X252225000Y-121475000D01*
X252975000Y-126725000D02*
X252225000Y-126725000D01*
X247725000Y-126725000D02*
X248475000Y-126725000D01*
X247725000Y-121475000D02*
X248475000Y-121475000D01*
X239712096Y-104068230D02*
X239712096Y-95068230D01*
X256712096Y-104068230D02*
X239712096Y-104068230D01*
X256712096Y-95068230D02*
X256712096Y-104068230D01*
X239712096Y-95068230D02*
X256712096Y-95068230D01*
D12*
X239030000Y-138000000D02*
X239030000Y-137500000D01*
X239970000Y-137500000D02*
X239970000Y-138000000D01*
D14*
X203330000Y-103410000D02*
X193170000Y-103410000D01*
X203330000Y-93250000D02*
X203330000Y-103410000D01*
X193170000Y-93250000D02*
X203330000Y-93250000D01*
X193170000Y-103410000D02*
X193170000Y-93250000D01*
D12*
X190200000Y-139070000D02*
X192200000Y-139070000D01*
X192200000Y-142030000D02*
X190200000Y-142030000D01*
D15*
X160993880Y-131850820D02*
G75*
G03X160993880Y-131850820I-1270000J0D01*
G01*
X162517880Y-136930820D02*
G75*
G03X162517880Y-136930820I-508000J0D01*
G01*
X161974320Y-134101260D02*
X161974320Y-129600380D01*
X161974320Y-129600380D02*
X157473440Y-129600380D01*
X157473440Y-129600380D02*
X157473440Y-134101260D01*
X157473440Y-134101260D02*
X161974320Y-134101260D01*
X226519180Y-124573880D02*
G75*
G03X226519180Y-124573880I-1270000J0D01*
G01*
X220677180Y-126859880D02*
G75*
G03X220677180Y-126859880I-508000J0D01*
G01*
X222998740Y-126824320D02*
X227499620Y-126824320D01*
X227499620Y-126824320D02*
X227499620Y-122323440D01*
X227499620Y-122323440D02*
X222998740Y-122323440D01*
X222998740Y-122323440D02*
X222998740Y-126824320D01*
D12*
X234054514Y-117316066D02*
X234054514Y-117816066D01*
X232994514Y-117816066D02*
X232994514Y-117316066D01*
X227400000Y-137300000D02*
X227400000Y-138000000D01*
X228600000Y-138000000D02*
X228600000Y-137300000D01*
X228225669Y-144350000D02*
X228925669Y-144350000D01*
X228925669Y-143150000D02*
X228225669Y-143150000D01*
X187450000Y-142180000D02*
X185450000Y-142180000D01*
X185450000Y-139220000D02*
X187450000Y-139220000D01*
X198200000Y-135370000D02*
X200200000Y-135370000D01*
X200200000Y-138330000D02*
X198200000Y-138330000D01*
X198548810Y-140701092D02*
X199548810Y-140701092D01*
X199548810Y-142401092D02*
X198548810Y-142401092D01*
X207250000Y-117350000D02*
X206250000Y-117350000D01*
X206250000Y-115650000D02*
X207250000Y-115650000D01*
X206600000Y-127503571D02*
X205900000Y-127503571D01*
X205900000Y-128703571D02*
X206600000Y-128703571D01*
X209200000Y-134300000D02*
X209200000Y-133600000D01*
X208000000Y-133600000D02*
X208000000Y-134300000D01*
X195950000Y-134700000D02*
X196650000Y-134700000D01*
X196650000Y-133500000D02*
X195950000Y-133500000D01*
X198350000Y-122950000D02*
X198350000Y-122250000D01*
X197150000Y-122250000D02*
X197150000Y-122950000D01*
X202900000Y-128700000D02*
X203600000Y-128700000D01*
X203600000Y-127500000D02*
X202900000Y-127500000D01*
X198350000Y-125950000D02*
X198350000Y-125250000D01*
X197150000Y-125250000D02*
X197150000Y-125950000D01*
X191600000Y-127500000D02*
X190900000Y-127500000D01*
X190900000Y-128700000D02*
X191600000Y-128700000D01*
X199150000Y-133250000D02*
X199150000Y-133950000D01*
X200350000Y-133950000D02*
X200350000Y-133250000D01*
X193900000Y-128700000D02*
X194600000Y-128700000D01*
X194600000Y-127500000D02*
X193900000Y-127500000D01*
X196999390Y-115149974D02*
X196999390Y-114149974D01*
X198699390Y-114149974D02*
X198699390Y-115149974D01*
X195150000Y-125250000D02*
X195150000Y-125950000D01*
X196350000Y-125950000D02*
X196350000Y-125250000D01*
X207250000Y-119550000D02*
X206250000Y-119550000D01*
X206250000Y-117850000D02*
X207250000Y-117850000D01*
X199150000Y-124250000D02*
X199150000Y-124950000D01*
X200350000Y-124950000D02*
X200350000Y-124250000D01*
X193300000Y-131850000D02*
X192300000Y-131850000D01*
X192300000Y-130150000D02*
X193300000Y-130150000D01*
X193300000Y-136000000D02*
X192300000Y-136000000D01*
X192300000Y-134300000D02*
X193300000Y-134300000D01*
X193300000Y-134000000D02*
X192300000Y-134000000D01*
X192300000Y-132300000D02*
X193300000Y-132300000D01*
X197150000Y-130250000D02*
X197150000Y-130950000D01*
X198350000Y-130950000D02*
X198350000Y-130250000D01*
X188630000Y-135600000D02*
X188630000Y-137600000D01*
X185670000Y-137600000D02*
X185670000Y-135600000D01*
X129250000Y-129350000D02*
X128250000Y-129350000D01*
X128250000Y-127650000D02*
X129250000Y-127650000D01*
X235900000Y-115670000D02*
X235400000Y-115670000D01*
X235400000Y-114730000D02*
X235900000Y-114730000D01*
X234350000Y-113625000D02*
X234350000Y-112925000D01*
X233150000Y-112925000D02*
X233150000Y-113625000D01*
X236850000Y-145970000D02*
X236350000Y-145970000D01*
X236350000Y-145030000D02*
X236850000Y-145030000D01*
X239300000Y-144120000D02*
X238800000Y-144120000D01*
X238800000Y-143180000D02*
X239300000Y-143180000D01*
X235070000Y-134550000D02*
X235070000Y-135050000D01*
X234130000Y-135050000D02*
X234130000Y-134550000D01*
X226200000Y-134000000D02*
X226200000Y-134700000D01*
X227400000Y-134700000D02*
X227400000Y-134000000D01*
X225150000Y-144350000D02*
X225850000Y-144350000D01*
X225850000Y-143150000D02*
X225150000Y-143150000D01*
X225400000Y-137250000D02*
X225400000Y-137950000D01*
X226600000Y-137950000D02*
X226600000Y-137250000D01*
X238800000Y-130700000D02*
X239500000Y-130700000D01*
X239500000Y-129500000D02*
X238800000Y-129500000D01*
X237150000Y-136330000D02*
X237650000Y-136330000D01*
X237650000Y-137270000D02*
X237150000Y-137270000D01*
X231550000Y-146200000D02*
X232250000Y-146200000D01*
X232250000Y-145000000D02*
X231550000Y-145000000D01*
X237400000Y-142400000D02*
X238100000Y-142400000D01*
X238100000Y-141200000D02*
X237400000Y-141200000D01*
X227700000Y-141550000D02*
X228400000Y-141550000D01*
X228400000Y-140350000D02*
X227700000Y-140350000D01*
X228850000Y-129400000D02*
X229550000Y-129400000D01*
X229550000Y-128200000D02*
X228850000Y-128200000D01*
X224120000Y-128650000D02*
X224120000Y-129150000D01*
X223180000Y-129150000D02*
X223180000Y-128650000D01*
X242200000Y-138600000D02*
X241500000Y-138600000D01*
X241500000Y-139800000D02*
X242200000Y-139800000D01*
X230450000Y-137270000D02*
X229950000Y-137270000D01*
X229950000Y-136330000D02*
X230450000Y-136330000D01*
X229200000Y-131550000D02*
X229200000Y-130850000D01*
X228000000Y-130850000D02*
X228000000Y-131550000D01*
X232850000Y-137270000D02*
X232350000Y-137270000D01*
X232350000Y-136330000D02*
X232850000Y-136330000D01*
X225500000Y-129400000D02*
X226200000Y-129400000D01*
X226200000Y-128200000D02*
X225500000Y-128200000D01*
X235250000Y-129070000D02*
X234750000Y-129070000D01*
X234750000Y-128130000D02*
X235250000Y-128130000D01*
X229100000Y-134800000D02*
X229100000Y-134100000D01*
X227900000Y-134100000D02*
X227900000Y-134800000D01*
X244050000Y-144750000D02*
X244050000Y-144050000D01*
X242850000Y-144050000D02*
X242850000Y-144750000D01*
X235250000Y-137270000D02*
X234750000Y-137270000D01*
X234750000Y-136330000D02*
X235250000Y-136330000D01*
X234270000Y-140950000D02*
X234270000Y-141450000D01*
X233330000Y-141450000D02*
X233330000Y-140950000D01*
X224550000Y-141550000D02*
X225250000Y-141550000D01*
X225250000Y-140350000D02*
X224550000Y-140350000D01*
X244650000Y-113600000D02*
X245350000Y-113600000D01*
X245350000Y-112400000D02*
X244650000Y-112400000D01*
X243600000Y-110350000D02*
X243600000Y-111050000D01*
X244800000Y-111050000D02*
X244800000Y-110350000D01*
X246750000Y-110800000D02*
X247450000Y-110800000D01*
X247450000Y-109600000D02*
X246750000Y-109600000D01*
X171050000Y-107050000D02*
X171050000Y-107750000D01*
X172250000Y-107750000D02*
X172250000Y-107050000D01*
X167850000Y-102825000D02*
X167150000Y-102825000D01*
X167150000Y-104025000D02*
X167850000Y-104025000D01*
X184200000Y-119970000D02*
X186200000Y-119970000D01*
X186200000Y-122930000D02*
X184200000Y-122930000D01*
X192600000Y-123600000D02*
X192600000Y-124600000D01*
X190900000Y-124600000D02*
X190900000Y-123600000D01*
X187600000Y-116600000D02*
X187600000Y-117600000D01*
X185900000Y-117600000D02*
X185900000Y-116600000D01*
X191600000Y-120500000D02*
X190900000Y-120500000D01*
X190900000Y-121700000D02*
X191600000Y-121700000D01*
X189050000Y-117100000D02*
X189750000Y-117100000D01*
X189750000Y-115900000D02*
X189050000Y-115900000D01*
X189100000Y-118850000D02*
X189800000Y-118850000D01*
X189800000Y-117650000D02*
X189100000Y-117650000D01*
X188150000Y-120250000D02*
X188150000Y-120950000D01*
X189350000Y-120950000D02*
X189350000Y-120250000D01*
X241300000Y-107030000D02*
X241800000Y-107030000D01*
X241800000Y-107970000D02*
X241300000Y-107970000D01*
X130550000Y-140850000D02*
X131550000Y-140850000D01*
X131550000Y-140850000D02*
X131550000Y-142950000D01*
X130550000Y-140850000D02*
X130550000Y-142950000D01*
D15*
X175618880Y-124549180D02*
G75*
G03X175618880Y-124549180I-1270000J0D01*
G01*
X177142880Y-129629180D02*
G75*
G03X177142880Y-129629180I-508000J0D01*
G01*
X176599320Y-126799620D02*
X176599320Y-122298740D01*
X176599320Y-122298740D02*
X172098440Y-122298740D01*
X172098440Y-122298740D02*
X172098440Y-126799620D01*
X172098440Y-126799620D02*
X176599320Y-126799620D01*
D12*
X241850000Y-135500000D02*
X240750000Y-135500000D01*
X240750000Y-135500000D02*
X240750000Y-133400000D01*
X241850000Y-135500000D02*
X241850000Y-133400000D01*
X246550000Y-143600000D02*
X245450000Y-143600000D01*
X245450000Y-143600000D02*
X245450000Y-141500000D01*
X246550000Y-143600000D02*
X246550000Y-141500000D01*
X168320000Y-138700000D02*
X168320000Y-135100000D01*
X171780000Y-135100000D02*
X171780000Y-138700000D01*
X189770000Y-147900000D02*
X189770000Y-144300000D01*
X193230000Y-144300000D02*
X193230000Y-147900000D01*
X168320000Y-146550000D02*
X168320000Y-142950000D01*
X171780000Y-142950000D02*
X171780000Y-146550000D01*
D14*
X127711803Y-129430000D02*
G75*
G03X127711803Y-129430000I-111803J0D01*
G01*
X127800000Y-133680000D02*
X127800000Y-129730000D01*
X130900000Y-133680000D02*
X127800000Y-133680000D01*
X130900000Y-129730000D02*
X130900000Y-133680000D01*
X127800000Y-129730000D02*
X130900000Y-129730000D01*
D12*
X259210000Y-110670000D02*
X259210000Y-111600000D01*
X259210000Y-113830000D02*
X259210000Y-112900000D01*
X259210000Y-113830000D02*
X257050000Y-113830000D01*
X259210000Y-110670000D02*
X257750000Y-110670000D01*
X243800000Y-139400000D02*
X243800000Y-140100000D01*
X245000000Y-140100000D02*
X245000000Y-139400000D01*
X224800000Y-137950000D02*
X224800000Y-137250000D01*
X223600000Y-137250000D02*
X223600000Y-137950000D01*
X235070000Y-132150000D02*
X235070000Y-132650000D01*
X234130000Y-132650000D02*
X234130000Y-132150000D01*
X232800000Y-129070000D02*
X232300000Y-129070000D01*
X232300000Y-128130000D02*
X232800000Y-128130000D01*
X234270000Y-138550000D02*
X234270000Y-139050000D01*
X233330000Y-139050000D02*
X233330000Y-138550000D01*
X208900000Y-113250000D02*
X207900000Y-113250000D01*
X207900000Y-111550000D02*
X208900000Y-111550000D01*
X222050000Y-119915254D02*
X222050000Y-119215254D01*
X220850000Y-119215254D02*
X220850000Y-119915254D01*
X222050000Y-115915254D02*
X222050000Y-115215254D01*
X220850000Y-115215254D02*
X220850000Y-115915254D01*
X213700000Y-115250000D02*
X213700000Y-115950000D01*
X214900000Y-115950000D02*
X214900000Y-115250000D01*
X213700000Y-112050000D02*
X213700000Y-112750000D01*
X214900000Y-112750000D02*
X214900000Y-112050000D01*
X225150000Y-119915254D02*
X225150000Y-119215254D01*
X223950000Y-119215254D02*
X223950000Y-119915254D01*
X225150000Y-115915254D02*
X225150000Y-115215254D01*
X223950000Y-115215254D02*
X223950000Y-115915254D01*
X187700000Y-131030000D02*
X185700000Y-131030000D01*
X185700000Y-128070000D02*
X187700000Y-128070000D01*
X189000000Y-125000000D02*
X189000000Y-126000000D01*
X187300000Y-126000000D02*
X187300000Y-125000000D01*
X198250000Y-128950000D02*
X197250000Y-128950000D01*
X197250000Y-127250000D02*
X198250000Y-127250000D01*
X201350000Y-129950000D02*
X201350000Y-129250000D01*
X200150000Y-129250000D02*
X200150000Y-129950000D01*
X226200000Y-130850000D02*
X226200000Y-131550000D01*
X227400000Y-131550000D02*
X227400000Y-130850000D01*
X246280000Y-118050000D02*
X246280000Y-117050000D01*
X244920000Y-117050000D02*
X244920000Y-118050000D01*
X241720000Y-124050000D02*
X241720000Y-125050000D01*
X243080000Y-125050000D02*
X243080000Y-124050000D01*
X243620000Y-124050000D02*
X243620000Y-125050000D01*
X244980000Y-125050000D02*
X244980000Y-124050000D01*
X236720000Y-112100000D02*
X236720000Y-111600000D01*
X237780000Y-111600000D02*
X237780000Y-112100000D01*
X223530000Y-119300000D02*
X223530000Y-119800000D01*
X222470000Y-119800000D02*
X222470000Y-119300000D01*
X223530000Y-115350000D02*
X223530000Y-115850000D01*
X222470000Y-115850000D02*
X222470000Y-115350000D01*
X245370000Y-124700000D02*
X245370000Y-124200000D01*
X246430000Y-124200000D02*
X246430000Y-124700000D01*
D14*
X205162096Y-104068230D02*
X205162096Y-95068230D01*
X222162096Y-104068230D02*
X205162096Y-104068230D01*
X222162096Y-95068230D02*
X222162096Y-104068230D01*
X205162096Y-95068230D02*
X222162096Y-95068230D01*
D12*
X179000000Y-149030000D02*
X180000000Y-149030000D01*
X180000000Y-147670000D02*
X179000000Y-147670000D01*
X124400000Y-140150000D02*
X125400000Y-140150000D01*
X125400000Y-141850000D02*
X124400000Y-141850000D01*
X131930000Y-125050000D02*
X131930000Y-125550000D01*
X130870000Y-125550000D02*
X130870000Y-125050000D01*
X129530000Y-139450000D02*
X129530000Y-139950000D01*
X128470000Y-139950000D02*
X128470000Y-139450000D01*
X178800000Y-126020000D02*
X179300000Y-126020000D01*
X179300000Y-127080000D02*
X178800000Y-127080000D01*
X207430000Y-106800000D02*
X207430000Y-107300000D01*
X206370000Y-107300000D02*
X206370000Y-106800000D01*
X148175000Y-124630000D02*
X147675000Y-124630000D01*
X147675000Y-123570000D02*
X148175000Y-123570000D01*
X239850000Y-135730000D02*
X239350000Y-135730000D01*
X239350000Y-134670000D02*
X239850000Y-134670000D01*
X181930000Y-104700000D02*
X181930000Y-105200000D01*
X180870000Y-105200000D02*
X180870000Y-104700000D01*
X172750000Y-110180000D02*
X172250000Y-110180000D01*
X172250000Y-109120000D02*
X172750000Y-109120000D01*
X176150000Y-106720000D02*
X176650000Y-106720000D01*
X176650000Y-107780000D02*
X176150000Y-107780000D01*
D14*
X230325000Y-152140000D02*
X230325000Y-152090000D01*
X234475000Y-152140000D02*
X234475000Y-151995000D01*
X234475000Y-146990000D02*
X234475000Y-147135000D01*
X230325000Y-146990000D02*
X230325000Y-147135000D01*
X230325000Y-152140000D02*
X234475000Y-152140000D01*
X230325000Y-146990000D02*
X234475000Y-146990000D01*
X230325000Y-152090000D02*
X228925000Y-152090000D01*
X95300000Y-116340000D02*
X95300000Y-100340000D01*
X95300000Y-100340000D02*
X125300000Y-100340000D01*
X125300000Y-100340000D02*
X125300000Y-116340000D01*
X125300000Y-116340000D02*
X95300000Y-116340000D01*
X222462096Y-104068230D02*
X222462096Y-95068230D01*
X239462096Y-104068230D02*
X222462096Y-104068230D01*
X239462096Y-95068230D02*
X239462096Y-104068230D01*
X222462096Y-95068230D02*
X239462096Y-95068230D01*
X210540555Y-151790000D02*
G75*
G03X210540555Y-151790000I-360555J0D01*
G01*
X211540000Y-153080000D02*
X196300000Y-153080000D01*
X211540000Y-145460000D02*
X211540000Y-153080000D01*
X196300000Y-145460000D02*
X211540000Y-145460000D01*
X196300000Y-145460000D02*
X196300000Y-153080000D01*
X226540555Y-151790000D02*
G75*
G03X226540555Y-151790000I-360555J0D01*
G01*
X227540000Y-153080000D02*
X212300000Y-153080000D01*
X227540000Y-145460000D02*
X227540000Y-153080000D01*
X212300000Y-145460000D02*
X227540000Y-145460000D01*
X212300000Y-145460000D02*
X212300000Y-153080000D01*
D12*
X179020000Y-138000000D02*
X179020000Y-134400000D01*
X182480000Y-134400000D02*
X182480000Y-138000000D01*
D14*
X256962096Y-104068230D02*
X256962096Y-95068230D01*
X273962096Y-104068230D02*
X256962096Y-104068230D01*
X273962096Y-95068230D02*
X273962096Y-104068230D01*
X256962096Y-95068230D02*
X273962096Y-95068230D01*
X95300000Y-134090000D02*
X95300000Y-118090000D01*
X95300000Y-118090000D02*
X125300000Y-118090000D01*
X125300000Y-118090000D02*
X125300000Y-134090000D01*
X125300000Y-134090000D02*
X95300000Y-134090000D01*
X258025000Y-133300000D02*
X258025000Y-114300000D01*
X283025000Y-133300000D02*
X258025000Y-133300000D01*
X283025000Y-114300000D02*
X283025000Y-133300000D01*
X258025000Y-114300000D02*
X283025000Y-114300000D01*
D12*
X122100000Y-139700000D02*
X121100000Y-139700000D01*
X121100000Y-138000000D02*
X122100000Y-138000000D01*
X183600000Y-126730000D02*
X184100000Y-126730000D01*
X184100000Y-127670000D02*
X183600000Y-127670000D01*
D14*
X130250000Y-90250000D02*
X146250000Y-90250000D01*
X146250000Y-90250000D02*
X146250000Y-120250000D01*
X146250000Y-120250000D02*
X130250000Y-120250000D01*
X130250000Y-120250000D02*
X130250000Y-90250000D01*
X149160000Y-90250000D02*
X165160000Y-90250000D01*
X165160000Y-90250000D02*
X165160000Y-120250000D01*
X165160000Y-120250000D02*
X149160000Y-120250000D01*
X149160000Y-120250000D02*
X149160000Y-90250000D01*
D12*
X266210000Y-110620000D02*
X266210000Y-111550000D01*
X266210000Y-113780000D02*
X266210000Y-112850000D01*
X266210000Y-113780000D02*
X264050000Y-113780000D01*
X266210000Y-110620000D02*
X264750000Y-110620000D01*
X268580000Y-111300000D02*
X268580000Y-111800000D01*
X267520000Y-111800000D02*
X267520000Y-111300000D01*
D14*
X189650000Y-94000000D02*
X170650000Y-94000000D01*
X170650000Y-103500000D02*
X170650000Y-94000000D01*
X189650000Y-103500000D02*
X189650000Y-94000000D01*
X170650000Y-103500000D02*
X189650000Y-103500000D01*
M02*
