G04 #@! TF.FileFunction,Soldermask,Bot*
%FSLAX46Y46*%
G04 Gerber Fmt 4.6, Leading zero omitted, Abs format (unit mm)*
G04 Created by KiCad (PCBNEW 4.0.7) date 03/05/18 20:49:43*
%MOMM*%
%LPD*%
G01*
G04 APERTURE LIST*
%ADD10C,0.125000*%
%ADD11C,2.400000*%
%ADD12R,1.650000X0.700000*%
%ADD13R,3.400000X2.400000*%
%ADD14R,1.600000X1.500000*%
%ADD15C,1.600000*%
%ADD16C,1.900000*%
%ADD17C,2.200000*%
%ADD18R,0.900000X0.900000*%
%ADD19R,1.543000X0.654000*%
%ADD20R,0.654000X1.543000*%
%ADD21R,2.099260X3.100020*%
%ADD22R,1.700480X3.100020*%
%ADD23C,4.400000*%
%ADD24C,3.400000*%
%ADD25C,3.816000*%
%ADD26C,1.708000*%
%ADD27R,3.200000X2.600000*%
%ADD28R,2.600000X3.200000*%
%ADD29R,0.800000X1.000000*%
%ADD30R,1.000000X0.800000*%
%ADD31R,1.200000X1.150000*%
%ADD32R,1.150000X1.200000*%
%ADD33R,1.400000X2.900000*%
%ADD34R,0.900000X1.000000*%
%ADD35R,1.300000X1.200000*%
%ADD36R,3.400000X1.400000*%
%ADD37R,1.950000X1.000000*%
%ADD38R,1.000000X0.900000*%
%ADD39R,1.050000X1.460000*%
%ADD40R,1.460000X1.050000*%
%ADD41R,1.400000X3.400000*%
%ADD42R,1.000000X1.200000*%
%ADD43R,1.200000X1.000000*%
%ADD44R,2.900000X1.400000*%
%ADD45R,1.400000X2.000000*%
%ADD46R,1.100000X0.650000*%
%ADD47R,0.650000X1.100000*%
%ADD48R,2.125000X2.125000*%
%ADD49R,0.999440X1.118820*%
%ADD50R,3.280360X1.520140*%
%ADD51C,3.448000*%
%ADD52R,2.150000X1.100000*%
%ADD53R,1.900000X1.700000*%
%ADD54R,1.900000X1.900000*%
%ADD55R,1.900000X1.200000*%
%ADD56R,1.200000X1.900000*%
%ADD57R,1.950000X1.400000*%
%ADD58R,1.800000X1.200000*%
%ADD59C,0.850000*%
%ADD60C,1.100000*%
G04 APERTURE END LIST*
D10*
D11*
X180470000Y-149540000D03*
X180470000Y-147000000D03*
X183010000Y-147000000D03*
X183010000Y-149540000D03*
X188090000Y-149540000D03*
X190630000Y-149540000D03*
X190630000Y-147000000D03*
X188090000Y-147000000D03*
X185550000Y-147000000D03*
X185550000Y-149540000D03*
D12*
X156400000Y-124250000D03*
X156400000Y-124750000D03*
X156400000Y-125250000D03*
X156400000Y-125750000D03*
X156400000Y-126250000D03*
X156400000Y-126750000D03*
X156400000Y-127250000D03*
X156400000Y-127750000D03*
X156400000Y-128250000D03*
X156400000Y-128750000D03*
X156400000Y-129250000D03*
X156400000Y-129750000D03*
X156400000Y-130250000D03*
X156400000Y-130750000D03*
X156400000Y-131250000D03*
X156400000Y-131750000D03*
X156400000Y-132250000D03*
X156400000Y-132750000D03*
X156400000Y-133250000D03*
X156400000Y-133750000D03*
X156400000Y-134250000D03*
X156400000Y-134750000D03*
X156400000Y-135250000D03*
X156400000Y-135750000D03*
X156400000Y-136250000D03*
X156400000Y-113250000D03*
X156400000Y-111750000D03*
X156400000Y-112250000D03*
X156400000Y-112750000D03*
X156400000Y-113750000D03*
X156400000Y-115750000D03*
X156400000Y-114250000D03*
X156400000Y-114750000D03*
X156400000Y-115250000D03*
X156400000Y-116250000D03*
X156400000Y-118250000D03*
X156400000Y-116750000D03*
X156400000Y-117250000D03*
X156400000Y-117750000D03*
X156400000Y-118750000D03*
X156400000Y-120750000D03*
X156400000Y-119250000D03*
X156400000Y-119750000D03*
X156400000Y-120250000D03*
X156400000Y-121250000D03*
X156400000Y-123250000D03*
X156400000Y-121750000D03*
X156400000Y-122250000D03*
X156400000Y-122750000D03*
X156400000Y-123750000D03*
D13*
X159025000Y-110210000D03*
X159025000Y-137790000D03*
D14*
X182870000Y-111900000D03*
X180330000Y-111900000D03*
X182870000Y-109600000D03*
X180330000Y-109600000D03*
D12*
X141550000Y-145300000D03*
X141550000Y-143800000D03*
X141550000Y-144300000D03*
X141550000Y-144800000D03*
X141550000Y-145800000D03*
X141550000Y-146300000D03*
D13*
X144175000Y-142260000D03*
X144175000Y-147840000D03*
D15*
X151950000Y-100400000D03*
X158050000Y-100400000D03*
D16*
X153000000Y-97450000D03*
D17*
X155000000Y-98000000D03*
D16*
X157000000Y-97450000D03*
D18*
X145200000Y-130130000D03*
X145200000Y-130930000D03*
X145200000Y-131730000D03*
X145200000Y-132530000D03*
X145200000Y-133330000D03*
X144400000Y-133330000D03*
X143600000Y-133330000D03*
X143600000Y-132530000D03*
X143600000Y-131730000D03*
X143600000Y-130930000D03*
X143600000Y-130130000D03*
X144400000Y-130130000D03*
D19*
X233553822Y-140610880D03*
X233553822Y-140110880D03*
X233553822Y-139610880D03*
X233553822Y-139110880D03*
X233553822Y-138610880D03*
X233553822Y-138110880D03*
X233553822Y-137610880D03*
X233553822Y-137110880D03*
D20*
X235303822Y-135360880D03*
X235803822Y-135360880D03*
X236303822Y-135360880D03*
X236803822Y-135360880D03*
X237303822Y-135360880D03*
X237803822Y-135360880D03*
X238303822Y-135360880D03*
X238803822Y-135360880D03*
D19*
X240553822Y-137110880D03*
X240553822Y-137610880D03*
X240553822Y-138110880D03*
X240553822Y-138610880D03*
X240553822Y-139110880D03*
X240553822Y-139610880D03*
X240553822Y-140110880D03*
X240553822Y-140610880D03*
D20*
X238803822Y-142360880D03*
X238303822Y-142360880D03*
X237803822Y-142360880D03*
X237303822Y-142360880D03*
X236803822Y-142360880D03*
X236303822Y-142360880D03*
X235803822Y-142360880D03*
X235303822Y-142360880D03*
D21*
X151529724Y-126715868D03*
D22*
X149553604Y-126715868D03*
D21*
X147577484Y-126715868D03*
X147577484Y-121214228D03*
D22*
X149553604Y-121214228D03*
D21*
X151529724Y-121214228D03*
D23*
X126900000Y-108500000D03*
D24*
X114200000Y-113250000D03*
X121820000Y-113250000D03*
X131980000Y-113250000D03*
X131980000Y-103340000D03*
X121820000Y-103340000D03*
X114200000Y-103340000D03*
D23*
X126905000Y-125000000D03*
D24*
X114205000Y-129750000D03*
X121825000Y-129750000D03*
X131985000Y-129750000D03*
X131985000Y-119840000D03*
X121825000Y-119840000D03*
X114205000Y-119840000D03*
D25*
X252050000Y-113330000D03*
X252050000Y-125370000D03*
D26*
X247340000Y-120600000D03*
X247340000Y-118100000D03*
X249340000Y-118100000D03*
X249340000Y-120600000D03*
X245340000Y-115100000D03*
X245340000Y-116850000D03*
X245340000Y-119350000D03*
X245340000Y-121850000D03*
X245340000Y-123600000D03*
D23*
X126900000Y-141500000D03*
D24*
X114200000Y-146250000D03*
X121820000Y-146250000D03*
X131980000Y-146250000D03*
X131980000Y-136340000D03*
X121820000Y-136340000D03*
X114200000Y-136340000D03*
D27*
X146700000Y-97400000D03*
X139300000Y-99400000D03*
X146700000Y-106800000D03*
D28*
X142250000Y-110700000D03*
D11*
X143000000Y-98500000D03*
X143000000Y-105700000D03*
D29*
X149050000Y-129000000D03*
X148150000Y-129000000D03*
X150350000Y-118700000D03*
X149450000Y-118700000D03*
D30*
X147600000Y-116950000D03*
X147600000Y-117850000D03*
D31*
X179800000Y-130350000D03*
X178300000Y-130350000D03*
D32*
X179550000Y-126100000D03*
X179550000Y-127600000D03*
D31*
X181800000Y-129350000D03*
X183300000Y-129350000D03*
X181800000Y-132350000D03*
X180300000Y-132350000D03*
D33*
X174950000Y-112250000D03*
X177950000Y-112250000D03*
D34*
X184900000Y-111800000D03*
X184900000Y-110700000D03*
X178300000Y-109450000D03*
X178300000Y-108350000D03*
D35*
X224400000Y-143200000D03*
X224400000Y-141300000D03*
X226400000Y-142250000D03*
D31*
X232750000Y-126500000D03*
X231250000Y-126500000D03*
D36*
X200000000Y-150450000D03*
X200000000Y-145850000D03*
D37*
X219750000Y-134070000D03*
X219750000Y-132800000D03*
X219750000Y-131530000D03*
X219750000Y-130260000D03*
X225150000Y-130260000D03*
X225150000Y-131530000D03*
X225150000Y-132800000D03*
X225150000Y-134070000D03*
D29*
X226250000Y-128800000D03*
X227150000Y-128800000D03*
D30*
X143600000Y-127950000D03*
X143600000Y-128850000D03*
D29*
X243950000Y-138350000D03*
X243050000Y-138350000D03*
X243950000Y-139500000D03*
X243050000Y-139500000D03*
D32*
X216850000Y-114550000D03*
X216850000Y-113050000D03*
D34*
X224650000Y-121950000D03*
X224650000Y-120850000D03*
D38*
X221850000Y-113450000D03*
X222950000Y-113450000D03*
D34*
X224650000Y-114450000D03*
X224650000Y-115550000D03*
D31*
X227850000Y-115400000D03*
X229350000Y-115400000D03*
X232750000Y-121800000D03*
X231250000Y-121800000D03*
D35*
X220700000Y-143200000D03*
X220700000Y-141300000D03*
X222700000Y-142250000D03*
D39*
X173486931Y-149596661D03*
X172536931Y-149596661D03*
X171586931Y-149596661D03*
X171586931Y-147396661D03*
X173486931Y-147396661D03*
X227400000Y-98500000D03*
X228350000Y-98500000D03*
X229300000Y-98500000D03*
X229300000Y-100700000D03*
X227400000Y-100700000D03*
X196899541Y-149299483D03*
X195949541Y-149299483D03*
X194999541Y-149299483D03*
X194999541Y-147099483D03*
X196899541Y-147099483D03*
D40*
X162150000Y-150550000D03*
X162150000Y-149600000D03*
X162150000Y-148650000D03*
X164350000Y-148650000D03*
X164350000Y-150550000D03*
D41*
X175186931Y-144096661D03*
X170586931Y-144096661D03*
X226050000Y-103600000D03*
X230650000Y-103600000D03*
D36*
X167650000Y-151850000D03*
X167650000Y-147250000D03*
D42*
X232850000Y-125050000D03*
X231150000Y-125050000D03*
D43*
X234350000Y-125100000D03*
X234350000Y-123400000D03*
D31*
X218400000Y-128300000D03*
X216900000Y-128300000D03*
D38*
X224500000Y-119400000D03*
X225600000Y-119400000D03*
D31*
X223000000Y-119400000D03*
X221500000Y-119400000D03*
D38*
X228000000Y-113400000D03*
X229100000Y-113400000D03*
D32*
X236300000Y-114300000D03*
X236300000Y-115800000D03*
D38*
X228800000Y-124200000D03*
X229900000Y-124200000D03*
D32*
X218650000Y-113050000D03*
X218650000Y-114550000D03*
D38*
X217650000Y-116200000D03*
X218750000Y-116200000D03*
D31*
X232750000Y-123350000D03*
X231250000Y-123350000D03*
X223350000Y-108950000D03*
X221850000Y-108950000D03*
D32*
X235850000Y-123500000D03*
X235850000Y-125000000D03*
D31*
X218350000Y-117800000D03*
X219850000Y-117800000D03*
X223150000Y-128550000D03*
X221650000Y-128550000D03*
D38*
X228000000Y-119400000D03*
X226900000Y-119400000D03*
D32*
X229700000Y-122950000D03*
X229700000Y-121450000D03*
X216350000Y-117700000D03*
X216350000Y-116200000D03*
D31*
X234250000Y-127950000D03*
X232750000Y-127950000D03*
X219650000Y-111550000D03*
X218150000Y-111550000D03*
D34*
X224650000Y-117950000D03*
X224650000Y-116850000D03*
D38*
X226200000Y-127600000D03*
X225100000Y-127600000D03*
D33*
X194450000Y-140200000D03*
X197450000Y-140200000D03*
D31*
X184800000Y-124350000D03*
X183300000Y-124350000D03*
X186300000Y-125350000D03*
X187800000Y-125350000D03*
D32*
X187550000Y-127100000D03*
X187550000Y-128600000D03*
X183500000Y-127650000D03*
X183500000Y-126150000D03*
X194850000Y-132550000D03*
X194850000Y-131050000D03*
D31*
X185300000Y-122300000D03*
X186800000Y-122300000D03*
X192800000Y-126350000D03*
X191300000Y-126350000D03*
D32*
X185550000Y-130600000D03*
X185550000Y-129100000D03*
D31*
X178300000Y-134350000D03*
X179800000Y-134350000D03*
D32*
X189550000Y-129100000D03*
X189550000Y-130600000D03*
X184550000Y-133600000D03*
X184550000Y-132100000D03*
D31*
X188300000Y-134350000D03*
X189800000Y-134350000D03*
D32*
X187550000Y-131100000D03*
X187550000Y-132600000D03*
D44*
X178000000Y-138900000D03*
X178000000Y-135900000D03*
D33*
X189350000Y-138850000D03*
X186350000Y-138850000D03*
D31*
X219250000Y-126900000D03*
X217750000Y-126900000D03*
X216050000Y-109200000D03*
X214550000Y-109200000D03*
D44*
X173950000Y-135600000D03*
X173950000Y-132600000D03*
D32*
X145900000Y-114300000D03*
X145900000Y-112800000D03*
X138350000Y-127650000D03*
X138350000Y-126150000D03*
X140300000Y-129850000D03*
X140300000Y-128350000D03*
D31*
X140776406Y-124027566D03*
X142276406Y-124027566D03*
D45*
X183500000Y-107000000D03*
X180500000Y-107000000D03*
D46*
X143450000Y-115250000D03*
X143450000Y-115750000D03*
X143450000Y-116250000D03*
X143450000Y-116750000D03*
X143450000Y-117250000D03*
X143450000Y-117750000D03*
X143450000Y-118250000D03*
X143450000Y-118750000D03*
D47*
X142800000Y-119400000D03*
X142300000Y-119400000D03*
X141800000Y-119400000D03*
X141300000Y-119400000D03*
X140800000Y-119400000D03*
X140300000Y-119400000D03*
X139800000Y-119400000D03*
X139300000Y-119400000D03*
D46*
X138650000Y-118750000D03*
X138650000Y-118250000D03*
X138650000Y-117750000D03*
X138650000Y-117250000D03*
X138650000Y-116750000D03*
X138650000Y-116250000D03*
X138650000Y-115750000D03*
X138650000Y-115250000D03*
D47*
X139300000Y-114600000D03*
X139800000Y-114600000D03*
X140300000Y-114600000D03*
X140800000Y-114600000D03*
X141300000Y-114600000D03*
X141800000Y-114600000D03*
X142300000Y-114600000D03*
X142800000Y-114600000D03*
D48*
X140187500Y-117862500D03*
X140187500Y-116137500D03*
X141912500Y-117862500D03*
X141912500Y-116137500D03*
D32*
X139900000Y-143200000D03*
X139900000Y-144700000D03*
D29*
X236800000Y-133200000D03*
X235900000Y-133200000D03*
D35*
X228100000Y-143200000D03*
X228100000Y-141300000D03*
X230100000Y-142250000D03*
D30*
X150600000Y-129750000D03*
X150600000Y-130650000D03*
X145250000Y-125750000D03*
X145250000Y-124850000D03*
D49*
X148348500Y-133232880D03*
X148348500Y-132262600D03*
X148348500Y-131297400D03*
X148348500Y-130327120D03*
X146951500Y-130327120D03*
X146951500Y-131297400D03*
X146951500Y-132262600D03*
X146951500Y-133232880D03*
D31*
X186800000Y-119350000D03*
X185300000Y-119350000D03*
D32*
X183550000Y-121100000D03*
X183550000Y-122600000D03*
D31*
X191300000Y-122350000D03*
X192800000Y-122350000D03*
D32*
X188550000Y-121600000D03*
X188550000Y-120100000D03*
D30*
X194800000Y-106950000D03*
X194800000Y-106050000D03*
D50*
X248009820Y-135449880D03*
X248009820Y-137949240D03*
X248009820Y-139950760D03*
X248009820Y-142450120D03*
D51*
X251591220Y-132379020D03*
X251591220Y-145520980D03*
D11*
X215230000Y-147060000D03*
X215230000Y-149600000D03*
X212690000Y-149600000D03*
X212690000Y-147060000D03*
X207610000Y-147060000D03*
X205070000Y-147060000D03*
X205070000Y-149600000D03*
X207610000Y-149600000D03*
X210150000Y-149600000D03*
X210150000Y-147060000D03*
X207900000Y-110510000D03*
X207900000Y-113050000D03*
X207900000Y-115550000D03*
D52*
X242800000Y-100050000D03*
X242800000Y-101150000D03*
X242800000Y-102250000D03*
X242800000Y-103350000D03*
X242800000Y-104450000D03*
X242800000Y-105550000D03*
X242800000Y-106650000D03*
X242800000Y-107750000D03*
D53*
X242925000Y-109050000D03*
D54*
X242925000Y-97600000D03*
D55*
X250525000Y-109225000D03*
D56*
X252025000Y-108900000D03*
D57*
X253600000Y-97750000D03*
D58*
X251175000Y-97275000D03*
D31*
X204300000Y-136150000D03*
X205800000Y-136150000D03*
X188500000Y-136200000D03*
X190000000Y-136200000D03*
D32*
X176650000Y-133150000D03*
X176650000Y-131650000D03*
D31*
X197200000Y-137650000D03*
X195700000Y-137650000D03*
X186050000Y-116950000D03*
X184550000Y-116950000D03*
X175500000Y-122350000D03*
X177000000Y-122350000D03*
X175100000Y-130000000D03*
X176600000Y-130000000D03*
X176900000Y-125800000D03*
X175400000Y-125800000D03*
X175400000Y-120350000D03*
X176900000Y-120350000D03*
D32*
X150200000Y-111750000D03*
X150200000Y-110250000D03*
X147600000Y-113750000D03*
X147600000Y-112250000D03*
X160200000Y-149450000D03*
X160200000Y-150950000D03*
X225100000Y-98800000D03*
X225100000Y-100300000D03*
X166100000Y-143750000D03*
X166100000Y-145250000D03*
D31*
X196700000Y-151200000D03*
X195200000Y-151200000D03*
X173336931Y-151496661D03*
X171836931Y-151496661D03*
D32*
X200850000Y-140800000D03*
X200850000Y-139300000D03*
D31*
X172336931Y-140996661D03*
X170836931Y-140996661D03*
X141850000Y-135400000D03*
X143350000Y-135400000D03*
D59*
X184550000Y-132350000D03*
X189600000Y-134350000D03*
X183550000Y-129350000D03*
D60*
X154500000Y-130900000D03*
X150200000Y-113900000D03*
X150200000Y-110250000D03*
X209400000Y-102850000D03*
X137272680Y-130017552D03*
X132000000Y-117250000D03*
X182275000Y-115250000D03*
X187825000Y-107050000D03*
D59*
X232269117Y-140080883D03*
X228000000Y-113400000D03*
X143850000Y-127350000D03*
X149050000Y-129000000D03*
X221650000Y-128550000D03*
X228550000Y-130450000D03*
X227150000Y-128800000D03*
X227300000Y-132150000D03*
X227300000Y-134050000D03*
D60*
X174950000Y-112250000D03*
D59*
X176900000Y-120350000D03*
X178300000Y-109450000D03*
X229350000Y-115400000D03*
X217650000Y-116200000D03*
D60*
X236300000Y-115800000D03*
X218650000Y-114550000D03*
X216850000Y-113050000D03*
X231900000Y-136250000D03*
X237800000Y-139000000D03*
X206050000Y-136150000D03*
D59*
X224650000Y-119400000D03*
X224650000Y-121800000D03*
D60*
X145900000Y-112800000D03*
X210000000Y-113950000D03*
X211950000Y-109650000D03*
X206000000Y-123050000D03*
X203650000Y-107300000D03*
X188500000Y-100500000D03*
X203700000Y-101300000D03*
X206300000Y-101300000D03*
X154700000Y-127600000D03*
D59*
X194850000Y-131300000D03*
X191550000Y-126350000D03*
X185550000Y-119350000D03*
X183550000Y-122350000D03*
X179550000Y-134350000D03*
X164400000Y-113350000D03*
X163150000Y-113850000D03*
X180330000Y-109600000D03*
X180330000Y-111900000D03*
X225150000Y-134070000D03*
X150250000Y-97450000D03*
X236400000Y-112800000D03*
X235900000Y-133200000D03*
X140776406Y-124027566D03*
X142800000Y-113650000D03*
X144500000Y-118250000D03*
X225450000Y-116200000D03*
X227850000Y-114600000D03*
X185550000Y-124350000D03*
X191550000Y-130350000D03*
X184550000Y-121350000D03*
X179550000Y-127350000D03*
X188562505Y-129341249D03*
X189550000Y-130350000D03*
X188550000Y-131350000D03*
X192550000Y-133350000D03*
X188550000Y-130350000D03*
X219850000Y-121800000D03*
X188550000Y-127350000D03*
X227050000Y-123400000D03*
X188550000Y-124350000D03*
X192550000Y-122350000D03*
X191550000Y-119350000D03*
X200400000Y-107700000D03*
X197200000Y-105300000D03*
X201992010Y-108055492D03*
X190562505Y-127341249D03*
X194550000Y-129350000D03*
X195600000Y-107700000D03*
X190800000Y-101300000D03*
X196400000Y-107700000D03*
X200400000Y-105300000D03*
X196400000Y-101300000D03*
X200400000Y-101300000D03*
X193550000Y-125350000D03*
X202000000Y-101300000D03*
X183550000Y-118350000D03*
X194550000Y-118350000D03*
X197200000Y-102900000D03*
X178550000Y-123350000D03*
X192407990Y-107760617D03*
X188550000Y-120350000D03*
X189562505Y-128341249D03*
X194800000Y-101300000D03*
X180550000Y-119350000D03*
X198807990Y-107729241D03*
X181550000Y-122350000D03*
X200400000Y-102900000D03*
X198800000Y-101300000D03*
X222250000Y-123400000D03*
D60*
X176600000Y-130000000D03*
X177000000Y-122350000D03*
D59*
X184550000Y-116950000D03*
D60*
X194450000Y-140200000D03*
X200850000Y-139050000D03*
X200000000Y-145850000D03*
X194999541Y-147099483D03*
D59*
X183500000Y-107000000D03*
X185550000Y-129350000D03*
X183550000Y-126350000D03*
X184550000Y-123350000D03*
X183550000Y-124350000D03*
X189550000Y-123350000D03*
X187550000Y-125350000D03*
X188550000Y-122350000D03*
X187550000Y-123350000D03*
X187550000Y-128350000D03*
X186550000Y-122350000D03*
D60*
X147250000Y-144250000D03*
X147600000Y-112250000D03*
X138350000Y-127650000D03*
X140300000Y-128350000D03*
X160700000Y-132150000D03*
X150500000Y-132600000D03*
X143350000Y-135400000D03*
D59*
X229650000Y-111000000D03*
X235700000Y-108800000D03*
X229700000Y-108200000D03*
X231950000Y-107000000D03*
X229600000Y-107000000D03*
D60*
X139900000Y-144700000D03*
X152500000Y-131375000D03*
X154700000Y-132750000D03*
D59*
X132900000Y-143600000D03*
D60*
X240600000Y-135200000D03*
X241900000Y-140100000D03*
X233700000Y-142250000D03*
X221150000Y-140050000D03*
X135250000Y-118250000D03*
X146350000Y-135350000D03*
X221850000Y-108950000D03*
X135100000Y-123100000D03*
X138350000Y-122550000D03*
X142000000Y-130800000D03*
X142000000Y-127100000D03*
D59*
X146951500Y-133232880D03*
D60*
X242800000Y-103350000D03*
X166100000Y-145500000D03*
D59*
X141550000Y-146300000D03*
X140300000Y-108150000D03*
X161950000Y-113750000D03*
X161950000Y-112450000D03*
X160150000Y-113000000D03*
X160150000Y-111800000D03*
X137250000Y-115250000D03*
X139300000Y-113100000D03*
X223850000Y-114600000D03*
X220750000Y-111750000D03*
X221450000Y-114600000D03*
X130925000Y-141650000D03*
X135350000Y-111900000D03*
X157900000Y-107600000D03*
X223050000Y-117800000D03*
X204275000Y-98114021D03*
X138672680Y-130667552D03*
X222250000Y-118600000D03*
X221450000Y-116200000D03*
X144925000Y-108875000D03*
X208450000Y-101100000D03*
D60*
X154450000Y-122900000D03*
X223800000Y-131650000D03*
D59*
X225450000Y-123400000D03*
X223650000Y-139325000D03*
D60*
X194950000Y-151200000D03*
D59*
X150350000Y-118700000D03*
D60*
X147600000Y-116300000D03*
X149400000Y-100400000D03*
D59*
X153103604Y-121215048D03*
D60*
X248000000Y-131300000D03*
X229300000Y-98500000D03*
X227400000Y-98500000D03*
X225100000Y-100550000D03*
X196899541Y-149299483D03*
X194999541Y-149299483D03*
X171586931Y-151496661D03*
X160200000Y-151200000D03*
X171586931Y-149596661D03*
X173486931Y-149596661D03*
X162150000Y-150550000D03*
X162150000Y-148650000D03*
D59*
X244050000Y-133700000D03*
X225450000Y-139375000D03*
X229200000Y-139375000D03*
D60*
X215750000Y-130000000D03*
D59*
X224650000Y-117800000D03*
X224650000Y-114450000D03*
X222850000Y-130150000D03*
X221450000Y-119400000D03*
X219850000Y-117800000D03*
X222250000Y-114600000D03*
X220650000Y-119400000D03*
D60*
X214550000Y-109200000D03*
D59*
X231450000Y-112600000D03*
X217300000Y-109450000D03*
X216350000Y-116200000D03*
X228800000Y-124200000D03*
D60*
X217750000Y-126900000D03*
X216900000Y-128300000D03*
X235850000Y-125000000D03*
X218150000Y-111550000D03*
X232750000Y-127950000D03*
X230650000Y-103600000D03*
D59*
X221450000Y-123400000D03*
X223850000Y-123400000D03*
X225450000Y-121800000D03*
X227850000Y-122600000D03*
X234350000Y-125100000D03*
X232850000Y-125050000D03*
X226250000Y-117000000D03*
D60*
X233575000Y-113025000D03*
D59*
X227850000Y-119400000D03*
X145200000Y-116250000D03*
X184550000Y-134350000D03*
X144650000Y-115750000D03*
X183550000Y-133350000D03*
X145423434Y-117069047D03*
X185550000Y-134350000D03*
X144550000Y-116750000D03*
X186500000Y-134400000D03*
X144250000Y-119800000D03*
X226650000Y-130030000D03*
X143578410Y-134109012D03*
X144030000Y-144800000D03*
X225150000Y-131530000D03*
X226250000Y-121800000D03*
X142740000Y-133350000D03*
X142800000Y-121600000D03*
X226250000Y-128800000D03*
X145600000Y-134370000D03*
X145560000Y-145320000D03*
X225150000Y-130260000D03*
X226250000Y-122600000D03*
X238300000Y-134050000D03*
X227050000Y-116200000D03*
X237300000Y-134000000D03*
X226250000Y-117800000D03*
X238849273Y-133995073D03*
X226250000Y-118600000D03*
X242000000Y-137125000D03*
X225450000Y-114600000D03*
X237800000Y-137000000D03*
X225450000Y-117800000D03*
X238250000Y-137600000D03*
X223062331Y-137942055D03*
X221400000Y-135575000D03*
X225450000Y-118600000D03*
X151800000Y-116075000D03*
X144600000Y-128850000D03*
X203450000Y-97200000D03*
X227050000Y-117000000D03*
X223850000Y-120200000D03*
X197618452Y-128147437D03*
X223807990Y-121000000D03*
X200700000Y-130392010D03*
X223807990Y-121800000D03*
X199450000Y-125750000D03*
X223842010Y-122592291D03*
X200700000Y-126300000D03*
X197650000Y-130250000D03*
X223050000Y-118600000D03*
X206000000Y-128430988D03*
X214480988Y-119950000D03*
X223050000Y-120200000D03*
X197250000Y-135807990D03*
X223050000Y-121000000D03*
X200667794Y-128757990D03*
X211300000Y-124850000D03*
X223050000Y-121800000D03*
X223023979Y-122600000D03*
X221100000Y-126700000D03*
X197750000Y-126850000D03*
X203292354Y-124965980D03*
X214650000Y-118200000D03*
X222250000Y-117800000D03*
X217879473Y-120157173D03*
X222250000Y-120200000D03*
X200650000Y-132600000D03*
X217477193Y-123877193D03*
X208150000Y-133200000D03*
X222250000Y-121000000D03*
X200650000Y-133700000D03*
X211872821Y-128167754D03*
X222250000Y-121800000D03*
X203950000Y-128200000D03*
X204082408Y-125357990D03*
X222250000Y-122600000D03*
X200642001Y-127407990D03*
X206750000Y-127100000D03*
X221450000Y-117800000D03*
X203500000Y-129700000D03*
X221450000Y-118600000D03*
X207777193Y-131277194D03*
X217947329Y-121857058D03*
X203550000Y-131100000D03*
X221450000Y-120200000D03*
X221450000Y-121000000D03*
X194550000Y-136200000D03*
X209197806Y-129897807D03*
X198300000Y-129450000D03*
X221450000Y-121800000D03*
X209900000Y-130400000D03*
X221450000Y-122600000D03*
X206100000Y-130400000D03*
X188550000Y-126350000D03*
X220650000Y-117800000D03*
X220650000Y-120200000D03*
X203650000Y-132050000D03*
X220650000Y-121000000D03*
X197750000Y-134650000D03*
X219118633Y-124457990D03*
X206550000Y-134550000D03*
X220650000Y-121800000D03*
X197750000Y-133550000D03*
X220650000Y-122642010D03*
X206700000Y-133100000D03*
X197750000Y-132450000D03*
X220650000Y-123426021D03*
X209100000Y-131400000D03*
X197750000Y-131350000D03*
X204927193Y-134127193D03*
X219850000Y-122642010D03*
X188550000Y-128350000D03*
X203900000Y-123650000D03*
X226250000Y-115400000D03*
X182870000Y-111900000D03*
X190550000Y-122350000D03*
X227050000Y-114600000D03*
X187550000Y-129350000D03*
X184550000Y-129350000D03*
X185550000Y-131350000D03*
X184550000Y-131350000D03*
X184550000Y-130350000D03*
X220745614Y-138400000D03*
X223850000Y-119400000D03*
X227050000Y-122600000D03*
X225450000Y-120200000D03*
X227850000Y-123400000D03*
X225450000Y-121000000D03*
X177300000Y-109750000D03*
X162150000Y-100450000D03*
X182550000Y-127350000D03*
X188550000Y-133350000D03*
X200300000Y-124942010D03*
X190550000Y-128350000D03*
X203549041Y-130492010D03*
X190550000Y-130350000D03*
X198212530Y-130355012D03*
X192550000Y-130350000D03*
X198293899Y-126429314D03*
X191550000Y-127350000D03*
X190550000Y-129350000D03*
X204300000Y-127100000D03*
X201100000Y-134100000D03*
X193550000Y-132350000D03*
X200620804Y-128198656D03*
X191550000Y-129350000D03*
X198192307Y-127407990D03*
X191550000Y-128350000D03*
X198209302Y-128843799D03*
X192550000Y-129350000D03*
X202900000Y-129050000D03*
X190550000Y-131350000D03*
X186550000Y-123350000D03*
X200703100Y-129557990D03*
X192550000Y-131350000D03*
X200940885Y-131257990D03*
X191550000Y-131350000D03*
X198273998Y-133723617D03*
X188550000Y-132350000D03*
X198389188Y-132715199D03*
X191550000Y-132350000D03*
X201092717Y-132091943D03*
X189550000Y-132350000D03*
X226200000Y-127600000D03*
X226242010Y-119410000D03*
X228360000Y-126210000D03*
X227050000Y-120200000D03*
X232675000Y-113025000D03*
X227050000Y-117800000D03*
X233850000Y-120675000D03*
X227050000Y-121000000D03*
X227850000Y-118600000D03*
X231150000Y-125050000D03*
X231150000Y-119900000D03*
X230070000Y-116675000D03*
X230070000Y-117325000D03*
D60*
X147600000Y-113750000D03*
D59*
X240000000Y-127000000D03*
X240000000Y-126500000D03*
X240000000Y-126000000D03*
X240000000Y-125500000D03*
X240500000Y-125500000D03*
X240500000Y-126000000D03*
X241000000Y-126500000D03*
X240500000Y-126500000D03*
X240500000Y-127000000D03*
X241000000Y-127000000D03*
X241500000Y-127000000D03*
X242000000Y-127000000D03*
X242000000Y-126500000D03*
X242000000Y-126000000D03*
X242000000Y-125500000D03*
X241500000Y-125500000D03*
X241000000Y-125500000D03*
X241000000Y-126000000D03*
X241500000Y-126000000D03*
X241500000Y-126500000D03*
D60*
X136200000Y-120800000D03*
X135100000Y-125100000D03*
X136850000Y-122550000D03*
X138350000Y-126150000D03*
X144600000Y-120900000D03*
X140650000Y-125260000D03*
X142350000Y-125260000D03*
X142000000Y-129100000D03*
X140300000Y-129850000D03*
D59*
X146700000Y-97400000D03*
X134900000Y-141650000D03*
X137200000Y-118750000D03*
X135850000Y-116750000D03*
X139800000Y-113650000D03*
X223050000Y-117000000D03*
X222250000Y-117000000D03*
X142850000Y-108500000D03*
D60*
X226050000Y-103600000D03*
X176650000Y-133150000D03*
X175100000Y-130000000D03*
X175500000Y-122350000D03*
X176900000Y-125800000D03*
X188500000Y-136200000D03*
X197200000Y-137650000D03*
X172336931Y-140996661D03*
X148750000Y-144250000D03*
X154500000Y-129400000D03*
X154450000Y-121400000D03*
X150200000Y-115400000D03*
X150200000Y-111750000D03*
X209400000Y-104350000D03*
D59*
X186025000Y-116950000D03*
D60*
X183775000Y-115250000D03*
X187825000Y-105550000D03*
X217250000Y-130000000D03*
X160700000Y-133650000D03*
X150500000Y-134100000D03*
X141850000Y-135400000D03*
D59*
X250525000Y-109225000D03*
X156400000Y-110900000D03*
X158200000Y-132750000D03*
X158200000Y-135750000D03*
X157650000Y-136250000D03*
X157650000Y-135250000D03*
X229700000Y-109450000D03*
X222300000Y-131650000D03*
X225100000Y-127600000D03*
X231712008Y-139572981D03*
X216350000Y-117792010D03*
X224650000Y-117000000D03*
X224650000Y-115400000D03*
X221750000Y-130150000D03*
X223050000Y-119400000D03*
X218350000Y-117800000D03*
X229100000Y-113400000D03*
D60*
X216050000Y-109200000D03*
X196950000Y-151200000D03*
X141912500Y-117862500D03*
X140187500Y-117862500D03*
X141912500Y-116137500D03*
X140187500Y-116137500D03*
X240600000Y-133700000D03*
X232200000Y-142250000D03*
D59*
X242000000Y-131500000D03*
X241500000Y-131500000D03*
X241000000Y-131500000D03*
X240500000Y-131500000D03*
X240000000Y-131500000D03*
X240000000Y-131000000D03*
X240000000Y-130500000D03*
X240000000Y-130000000D03*
X242000000Y-131000000D03*
X242000000Y-130500000D03*
X241000000Y-130000000D03*
X242000000Y-130000000D03*
X241000000Y-130500000D03*
X240500000Y-130000000D03*
X240500000Y-130500000D03*
X240500000Y-131000000D03*
X241000000Y-131000000D03*
X241500000Y-131000000D03*
X241500000Y-130500000D03*
X241500000Y-130000000D03*
X222950000Y-113450000D03*
D60*
X139900000Y-143200000D03*
X144850000Y-135350000D03*
D59*
X223150000Y-128550000D03*
X218400000Y-109450000D03*
X228400000Y-132150000D03*
X227300000Y-135550000D03*
D60*
X177950000Y-112250000D03*
D59*
X175400000Y-120350000D03*
X184900000Y-110700000D03*
X178300000Y-108350000D03*
X229900000Y-124200000D03*
X218750000Y-116200000D03*
D60*
X219250000Y-126900000D03*
X218400000Y-128300000D03*
X235850000Y-123500000D03*
X223350000Y-108950000D03*
X236300000Y-114300000D03*
X219650000Y-111550000D03*
X216850000Y-114550000D03*
X218650000Y-113050000D03*
X234250000Y-127950000D03*
X246100000Y-131300000D03*
X247050000Y-131300000D03*
X248009820Y-142450120D03*
X231900000Y-134750000D03*
X236300000Y-139000000D03*
X186350000Y-138850000D03*
X173950000Y-132600000D03*
X178000000Y-135900000D03*
X204050000Y-136150000D03*
D59*
X224650000Y-121000000D03*
D60*
X229700000Y-122950000D03*
X142000000Y-132300000D03*
X145900000Y-114300000D03*
D59*
X146951500Y-131297400D03*
X144400000Y-133330000D03*
X144400000Y-130130000D03*
X145200000Y-130930000D03*
X145200000Y-131730000D03*
X145200000Y-132530000D03*
D60*
X152600000Y-123850000D03*
X152500000Y-129550000D03*
X145250000Y-127850000D03*
X242925000Y-109050000D03*
X242800000Y-105550000D03*
X228350000Y-98500000D03*
X225100000Y-98550000D03*
X211950000Y-106650000D03*
X208000000Y-123050000D03*
X205150000Y-107300000D03*
X188500000Y-102000000D03*
X206300000Y-105800000D03*
X203700000Y-105800000D03*
D59*
X188550000Y-121350000D03*
D60*
X152500000Y-132850000D03*
X154700000Y-134250000D03*
X154700000Y-126100000D03*
X197450000Y-140200000D03*
X200850000Y-141050000D03*
X195949541Y-149299483D03*
D59*
X180500000Y-107000000D03*
X194850000Y-132350000D03*
X192550000Y-126350000D03*
X185550000Y-122350000D03*
X186550000Y-119350000D03*
X183550000Y-121350000D03*
X191550000Y-122350000D03*
X179550000Y-126350000D03*
X193550000Y-129350000D03*
X188550000Y-134350000D03*
X183550000Y-127350000D03*
D60*
X166950000Y-113700000D03*
X165650000Y-113700000D03*
X166100000Y-143500000D03*
X173586931Y-151496661D03*
X160200000Y-149200000D03*
X172536931Y-149596661D03*
X162150000Y-149600000D03*
D59*
X227450000Y-148200000D03*
X244400000Y-148200000D03*
X144907990Y-117750000D03*
X182870000Y-109600000D03*
X219750000Y-130260000D03*
X141550000Y-143800000D03*
X224400000Y-141300000D03*
X220700000Y-141300000D03*
X234750000Y-120675000D03*
X219850000Y-123426021D03*
X162150000Y-98550000D03*
X234750000Y-115750000D03*
X232750000Y-126500000D03*
X232750000Y-123350000D03*
X232250000Y-119900000D03*
X234450000Y-114300000D03*
X231950000Y-116000000D03*
X229890000Y-127300000D03*
X241690000Y-138110000D03*
X219850000Y-118617010D03*
X227050000Y-119400000D03*
X228100000Y-141300000D03*
X251175000Y-97275000D03*
X252025000Y-108900000D03*
X185550000Y-130350000D03*
X187550000Y-131350000D03*
X183550000Y-134350000D03*
X181550000Y-133350000D03*
X182550000Y-131350000D03*
X179550000Y-132350000D03*
X135350000Y-110400000D03*
X179550000Y-121350000D03*
X192400000Y-101300000D03*
X182550000Y-120350000D03*
X198000000Y-102100000D03*
X142276406Y-124027566D03*
X195600000Y-102900000D03*
X195600000Y-106900000D03*
X198000000Y-102900000D03*
X201200000Y-102900000D03*
X202000000Y-102900000D03*
X178550000Y-118350000D03*
X225450000Y-119400000D03*
X179550000Y-133350000D03*
X201200000Y-102100000D03*
X181550000Y-131350000D03*
X185550000Y-123350000D03*
X195600000Y-106100000D03*
X190772807Y-107672807D03*
X194550000Y-134350000D03*
X219850000Y-115400000D03*
X194550000Y-123350000D03*
X185550000Y-128350000D03*
X200400000Y-106100000D03*
X187550000Y-122350000D03*
X178550000Y-132350000D03*
X189562505Y-129341249D03*
X188550000Y-123350000D03*
X189550000Y-118350000D03*
X138672680Y-129167552D03*
X190550000Y-121350000D03*
X189550000Y-124350000D03*
X183550000Y-123350000D03*
X183550000Y-131350000D03*
X190550000Y-124350000D03*
X180550000Y-124350000D03*
X184550000Y-125350000D03*
X186550000Y-125350000D03*
X192550000Y-128350000D03*
X183550000Y-125350000D03*
X184550000Y-128350000D03*
X220650000Y-116200000D03*
X193200000Y-106100000D03*
X181550000Y-129350000D03*
X179550000Y-130350000D03*
X184550000Y-126350000D03*
X187550000Y-127350000D03*
X190550000Y-132350000D03*
X186550000Y-124350000D03*
X228650000Y-121000000D03*
X189562505Y-127341249D03*
X185550000Y-126350000D03*
X227850000Y-121000000D03*
X198800000Y-102900000D03*
X227850000Y-115400000D03*
X184550000Y-122350000D03*
X199600000Y-106100000D03*
X193550000Y-131350000D03*
X227850000Y-117000000D03*
X181550000Y-128350000D03*
X187550000Y-133350000D03*
X227850000Y-120200000D03*
D60*
X242925000Y-97450000D03*
D59*
X181550000Y-130350000D03*
X178550000Y-129350000D03*
X195600000Y-102100000D03*
X199600000Y-102100000D03*
X180550000Y-130350000D03*
X223050000Y-114600000D03*
X228650000Y-114600000D03*
X219823978Y-114600000D03*
X223050000Y-123400000D03*
X178550000Y-134350000D03*
X181550000Y-132350000D03*
X226250000Y-121000000D03*
X220650000Y-117000000D03*
X184550000Y-133350000D03*
X183550000Y-130350000D03*
X182550000Y-132350000D03*
X227850000Y-121800000D03*
X193550000Y-120350000D03*
X202000000Y-106100000D03*
X187550000Y-130350000D03*
X198800000Y-105300000D03*
X197200000Y-106100000D03*
X225450000Y-115400000D03*
X184550000Y-124350000D03*
X219850000Y-116200000D03*
X237750000Y-143900000D03*
X240550000Y-141800000D03*
X226350000Y-142250000D03*
X222750000Y-142200000D03*
X224400000Y-143400000D03*
X220700000Y-143400000D03*
X233575000Y-135350000D03*
X224400000Y-144300000D03*
X220700000Y-144300000D03*
X233375000Y-134800000D03*
X150600000Y-130650000D03*
X180550000Y-129350000D03*
X154800000Y-124750000D03*
X179550000Y-129350000D03*
X179550000Y-128350000D03*
X145250000Y-124850000D03*
X140800000Y-113650000D03*
X142300000Y-113025000D03*
X205025000Y-97125000D03*
X226250000Y-116200000D03*
X141300000Y-113100000D03*
X142350000Y-122800000D03*
X139800000Y-119400000D03*
X151550000Y-127550000D03*
X149553604Y-126715868D03*
X147250000Y-126900000D03*
X152203604Y-121215048D03*
X141800000Y-113650000D03*
X140300000Y-113100000D03*
X138850000Y-102400000D03*
X137250000Y-116250000D03*
X139300000Y-99400000D03*
X146300000Y-103700000D03*
X137250000Y-117250000D03*
X146700000Y-106800000D03*
X143400000Y-145300000D03*
X222250000Y-116200000D03*
X221456055Y-111505769D03*
X139875000Y-145825000D03*
X223850000Y-115400000D03*
X158800000Y-124250000D03*
X181550000Y-123350000D03*
X158200000Y-124750000D03*
X179550000Y-123350000D03*
X158800000Y-125250000D03*
X180550000Y-123350000D03*
X158200000Y-125750000D03*
X181550000Y-124350000D03*
X158800000Y-126250000D03*
X178550000Y-124350000D03*
X158200000Y-126750000D03*
X179550000Y-124350000D03*
X178550000Y-125350000D03*
X158800000Y-127250000D03*
X158200000Y-128750000D03*
X181550000Y-127350000D03*
X158800000Y-129250000D03*
X178550000Y-127350000D03*
X158200000Y-129750000D03*
X180550000Y-127350000D03*
X158800000Y-130250000D03*
X180550000Y-128350000D03*
X158550000Y-113000000D03*
X158550000Y-111800000D03*
X161050000Y-112450000D03*
X161050000Y-113750000D03*
X158800000Y-116250000D03*
X181550000Y-119350000D03*
X158800000Y-118250000D03*
X178550000Y-119350000D03*
X158200000Y-116750000D03*
X180550000Y-118350000D03*
X158800000Y-117250000D03*
X179550000Y-118350000D03*
X158200000Y-117750000D03*
X179550000Y-119350000D03*
X158200000Y-118750000D03*
X180550000Y-120350000D03*
X158200000Y-120750000D03*
X182550000Y-121350000D03*
X158800000Y-119250000D03*
X178550000Y-120350000D03*
X179550000Y-120350000D03*
X158200000Y-119750000D03*
X158800000Y-120250000D03*
X181550000Y-120350000D03*
X181550000Y-121350000D03*
X158800000Y-121250000D03*
X158800000Y-123250000D03*
X178550000Y-122350000D03*
X158200000Y-121750000D03*
X180550000Y-121350000D03*
X178550000Y-121350000D03*
X158800000Y-122250000D03*
X158200000Y-122750000D03*
X180550000Y-122350000D03*
X179550000Y-122350000D03*
X158200000Y-123750000D03*
X166950000Y-115750000D03*
X158200000Y-115750000D03*
X181550000Y-118350000D03*
X164400000Y-114250000D03*
X158800000Y-114250000D03*
X183550000Y-119350000D03*
X163150000Y-114750000D03*
X158200000Y-114750000D03*
X183550000Y-120350000D03*
X165650000Y-115250000D03*
X182550000Y-118350000D03*
X158800000Y-115250000D03*
X230100000Y-142250000D03*
X228100000Y-144300000D03*
X234175000Y-135850000D03*
X228100000Y-143400000D03*
X141300000Y-119400000D03*
X137700000Y-120800000D03*
X203700000Y-102800000D03*
X195600000Y-101300000D03*
X226250000Y-114600000D03*
X191550000Y-133350000D03*
X224650000Y-118600000D03*
X190550000Y-133350000D03*
X150600000Y-129750000D03*
X145250000Y-125750000D03*
X195600000Y-105300000D03*
X195500000Y-119800000D03*
X189550000Y-121350000D03*
X196400000Y-108600000D03*
X196400000Y-102100000D03*
X193550000Y-122350000D03*
X198800000Y-106100000D03*
X193550000Y-121350000D03*
X198800000Y-108500000D03*
X191550000Y-123350000D03*
X200400000Y-106900000D03*
X190550000Y-126350000D03*
X200400000Y-102100000D03*
X194550000Y-126350000D03*
X191550000Y-124350000D03*
X201200000Y-106900000D03*
X199600000Y-106900000D03*
X191550000Y-125350000D03*
X201200000Y-106100000D03*
X192550000Y-124350000D03*
X199600000Y-102900000D03*
X192550000Y-125350000D03*
X198000000Y-101300000D03*
X194550000Y-122350000D03*
X196200000Y-110900000D03*
X196400000Y-106900000D03*
X189550000Y-122350000D03*
X196400000Y-100500000D03*
X194550000Y-121350000D03*
X192550000Y-121350000D03*
X198000000Y-106100000D03*
X197450000Y-118650000D03*
X196400000Y-106100000D03*
X190550000Y-123350000D03*
X193550000Y-123350000D03*
X197200000Y-102100000D03*
X201200000Y-101300000D03*
X194550000Y-125350000D03*
X189050000Y-113950000D03*
X190800000Y-102900000D03*
X189550000Y-119350000D03*
X193550000Y-126350000D03*
X201207990Y-107701494D03*
X189550000Y-125350000D03*
X199600000Y-105300000D03*
X190800000Y-106100000D03*
X186550000Y-120350000D03*
X186550000Y-118350000D03*
X190800000Y-102100000D03*
X191600000Y-102100000D03*
X191550000Y-118350000D03*
X199600000Y-101300000D03*
X194550000Y-124350000D03*
X186550000Y-121350000D03*
X190789685Y-105304420D03*
X188550000Y-119350000D03*
X191600000Y-102900000D03*
X187550000Y-119350000D03*
X194800000Y-106900000D03*
X187550000Y-118350000D03*
X194800000Y-106100000D03*
X193150000Y-102850000D03*
X192550000Y-118350000D03*
X192400000Y-105300000D03*
X190550000Y-120350000D03*
X194000000Y-105300000D03*
X192550000Y-120350000D03*
X190550000Y-118350000D03*
X191592010Y-106105948D03*
X191400000Y-111100000D03*
X192400000Y-102100000D03*
X190550000Y-119350000D03*
X185550000Y-118350000D03*
X190000000Y-102100000D03*
X187550000Y-120350000D03*
X191592010Y-105300000D03*
X192400000Y-106100000D03*
X192400000Y-113200000D03*
X189550000Y-120350000D03*
X194000000Y-102900000D03*
X193550000Y-119350000D03*
X194000000Y-102100000D03*
X193550000Y-118350000D03*
X191550000Y-121350000D03*
X193800000Y-107900000D03*
X194750000Y-112250000D03*
X192550000Y-119350000D03*
X194800000Y-102900000D03*
X145200000Y-115250000D03*
X182550000Y-134350000D03*
X194550000Y-119350000D03*
X194800000Y-102100000D03*
X194550000Y-120350000D03*
X194800000Y-105300000D03*
X226950000Y-111000000D03*
X223850000Y-117000000D03*
X231950000Y-110427990D03*
X242800000Y-104450000D03*
X223050000Y-115400000D03*
X227000000Y-109450000D03*
X221450000Y-115400000D03*
X233000000Y-108850000D03*
X221450000Y-117000000D03*
X227296978Y-106327800D03*
X220650000Y-114600000D03*
X227000000Y-108200000D03*
X220650000Y-115400000D03*
X235700000Y-110950000D03*
X253600000Y-97750000D03*
X223850000Y-116200000D03*
X180550000Y-125350000D03*
X158200000Y-127750000D03*
X179550000Y-125350000D03*
X158800000Y-128250000D03*
X158202193Y-130747807D03*
X178550000Y-128350000D03*
D60*
X248000000Y-135440060D03*
D59*
X134700000Y-134850000D03*
X142300000Y-121050000D03*
X125850000Y-136350000D03*
X141800000Y-120400000D03*
X242800000Y-100050000D03*
X229046978Y-106327800D03*
X242800000Y-101150000D03*
X228800000Y-109450000D03*
X242800000Y-102250000D03*
X228750000Y-111000000D03*
X227850000Y-111000000D03*
X228800000Y-108200000D03*
X242800000Y-106650000D03*
X234800000Y-108800000D03*
X242800000Y-107750000D03*
M02*
