M48
;DRILL file {KiCad (5.0.1)-rc2} date 3/3/2021 9:19:24 AM
;FORMAT={-:-/ absolute / metric / decimal}
FMAT,2
METRIC,TZ
T1C0.250
T2C0.800
T3C0.920
T4C1.016
T5C1.100
T6C1.200
T7C1.300
T8C1.400
T9C1.700
T10C2.080
T11C2.330
T12C2.388
T13C3.250
%
G90
G05
M71
T1
X110.9Y-137.7
X111.8Y-148.5
X111.815Y-136.2
X112.785Y-136.2
X114.3Y-146.512
X114.3Y-148.088
X115.615Y-147.7
X115.812Y-146.4
X115.915Y-144.9
X116.585Y-147.7
X116.6Y-137.6
X116.885Y-144.9
X116.915Y-132.1
X117.1Y-139.6
X117.387Y-146.4
X117.885Y-132.1
X118.Y-135.3
X118.Y-141.3
X118.4Y-142.5
X118.75Y-134.45
X119.25Y-134.
X119.5Y-136.5
X119.5Y-137.5
X119.5Y-138.5
X119.75Y-134.575
X119.8Y-143.4
X120.25Y-134.175
X120.5Y-136.5
X120.5Y-137.5
X120.5Y-138.5
X120.75Y-133.
X121.25Y-134.15
X121.5Y-136.5
X121.5Y-137.5
X121.5Y-138.5
X121.8Y-133.7
X122.3Y-134.3
X123.012Y-149.4
X123.387Y-132.7
X123.848Y-137.186
X123.884Y-135.962
X123.893Y-138.058
X123.987Y-136.62
X124.2Y-138.558
X124.372Y-137.728
X124.587Y-149.4
X124.6Y-139.1
X124.6Y-146.4
X125.1Y-131.6
X125.3Y-114.9
X125.685Y-138.041
X125.7Y-132.5
X125.772Y-139.684
X125.8Y-148.4
X126.1Y-130.5
X126.394Y-140.306
X126.4Y-113.2
X126.8Y-146.7
X127.1Y-112.2
X127.207Y-139.314
X128.347Y-138.609
X128.659Y-135.585
X129.031Y-137.069
X129.4Y-136.
X129.4Y-138.05
X129.5Y-131.1
X129.5Y-131.7
X129.5Y-145.
X129.69Y-126.05
X130.915Y-137.1
X131.Y-135.
X131.2Y-141.3
X131.3Y-151.3
X131.6Y-140.
X131.722Y-134.422
X131.8Y-138.7
X131.885Y-137.1
X132.Y-127.
X132.197Y-127.548
X132.4Y-138.2
X132.5Y-149.9
X132.75Y-128.95
X133.3Y-135.6
X133.5Y-143.4
X133.5Y-149.8
X133.6Y-132.5
X133.924Y-145.307
X134.Y-138.1
X134.4Y-126.
X134.4Y-130.7
X134.6Y-140.8
X134.7Y-129.3
X134.7Y-134.4
X134.7Y-149.7
X135.Y-137.4
X135.5Y-139.5
X135.6Y-129.25
X135.6Y-133.5
X135.6Y-149.6
X135.7Y-146.3
X135.9Y-116.45
X136.05Y-121.8
X136.1Y-111.2
X136.172Y-144.528
X136.2Y-124.
X136.3Y-106.7
X136.6Y-139.5
X136.687Y-116.363
X136.7Y-118.05
X136.7Y-118.85
X136.7Y-119.65
X136.7Y-121.45
X136.7Y-149.6
X136.8Y-111.2
X136.95Y-130.8
X137.4Y-140.2
X137.4Y-140.8
X137.586Y-116.5
X137.8Y-106.7
X137.8Y-149.6
X137.8Y-154.4
X137.9Y-111.2
X137.972Y-129.728
X138.Y-130.9
X138.1Y-143.4
X138.1Y-144.983
X138.2Y-124.
X138.315Y-136.8
X138.4Y-145.5
X138.5Y-111.4
X138.535Y-121.55
X138.65Y-135.5
X138.9Y-130.8
X139.Y-145.25
X139.Y-149.607
X139.1Y-124.
X139.2Y-111.4
X139.285Y-136.8
X139.3Y-106.7
X139.45Y-140.2
X139.5Y-121.6
X139.6Y-133.6
X139.6Y-149.1
X139.692Y-129.988
X139.7Y-123.7
X139.779Y-111.46
X139.85Y-145.6
X139.95Y-141.7
X140.3Y-111.2
X140.6Y-129.715
X140.6Y-130.685
X140.6Y-143.4
X140.7Y-106.7
X141.1Y-129.007
X141.3Y-111.2
X141.3Y-149.6
X141.45Y-139.95
X141.5Y-148.4
X141.8Y-136.912
X141.8Y-138.487
X141.9Y-112.
X142.1Y-126.5
X142.3Y-111.2
X142.3Y-141.7
X142.4Y-115.45
X142.459Y-132.7
X142.8Y-134.6
X143.Y-141.816
X143.05Y-146.6
X143.25Y-110.55
X143.4Y-126.4
X143.7Y-106.7
X143.8Y-124.6
X144.242Y-107.1
X144.4Y-137.5
X144.8Y-111.
X144.8Y-126.1
X144.8Y-139.8
X145.2Y-133.6
X145.4Y-133.
X145.6Y-113.8
X145.6Y-126.2
X145.7Y-111.5
X145.9Y-146.1
X146.Y-134.963
X146.Y-135.9
X146.Y-136.838
X146.1Y-132.615
X146.1Y-133.585
X146.2Y-114.8
X146.225Y-141.725
X146.3Y-114.
X146.4Y-143.8
X146.45Y-138.8
X146.7Y-150.2
X147.2Y-142.7
X147.4Y-143.7
X147.8Y-116.887
X147.8Y-128.6
X148.Y-134.4
X148.1Y-155.9
X148.2Y-129.1
X148.312Y-154.5
X148.5Y-139.1
X148.6Y-129.7
X148.7Y-124.2
X148.7Y-134.7
X148.747Y-114.9
X149.Y-139.4
X149.1Y-149.9
X149.1Y-152.7
X149.14Y-116.895
X149.4Y-141.4
X149.515Y-110.4
X149.6Y-121.8
X149.6Y-122.4
X149.887Y-154.5
X150.Y-148.137
X150.4Y-112.4
X150.4Y-114.
X150.412Y-116.2
X150.412Y-117.7
X150.485Y-110.4
X150.5Y-133.342
X150.7Y-122.2
X150.84Y-113.21
X151.Y-155.3
X151.1Y-119.3
X151.4Y-112.4
X151.4Y-114.
X151.5Y-138.
X151.75Y-146.25
X151.8Y-110.5
X151.887Y-128.5
X151.9Y-120.5
X151.9Y-125.715
X151.9Y-126.685
X152.3Y-146.
X152.5Y-120.2
X152.5Y-138.
X152.5Y-139.
X152.55Y-123.85
X152.6Y-148.7
X153.3Y-146.107
X153.4Y-138.4
X153.4Y-140.6
X153.4Y-141.6
X153.465Y-115.2
X153.6Y-110.215
X153.6Y-111.185
X153.719Y-151.381
X153.8Y-116.412
X153.8Y-117.987
X153.8Y-152.6
X153.84Y-112.422
X153.84Y-113.997
X154.1Y-123.4
X154.1Y-146.
X155.Y-149.8
X155.8Y-139.8
X156.Y-142.6
X156.1Y-146.
X156.4Y-110.9
X156.4Y-112.5
X156.4Y-117.3
X156.4Y-118.1
X156.4Y-118.9
X156.4Y-119.7
X156.4Y-122.1
X156.4Y-125.938
X156.402Y-120.453
X156.407Y-121.293
X156.485Y-122.922
X156.7Y-133.6
X156.8Y-139.2
X156.9Y-140.4
X156.9Y-148.
X157.2Y-110.9
X157.2Y-111.7
X157.2Y-112.5
X157.2Y-113.3
X157.2Y-114.1
X157.2Y-115.7
X157.2Y-116.5
X157.2Y-118.1
X157.2Y-118.9
X157.2Y-119.7
X157.2Y-120.5
X157.2Y-121.3
X157.2Y-122.1
X157.2Y-134.
X157.2Y-134.8
X157.2Y-135.6
X157.2Y-136.4
X157.2Y-137.2
X157.2Y-138.
X157.2Y-143.6
X157.2Y-144.4
X157.2Y-145.2
X157.2Y-146.8
X157.2Y-149.2
X157.966Y-147.6
X158.Y-110.9
X158.Y-114.1
X158.Y-114.9
X158.Y-115.7
X158.Y-116.5
X158.Y-117.3
X158.Y-118.1
X158.Y-118.9
X158.Y-120.5
X158.Y-122.1
X158.Y-122.9
X158.Y-133.2
X158.Y-134.
X158.Y-134.8
X158.Y-135.6
X158.Y-136.4
X158.Y-137.2
X158.Y-138.
X158.Y-138.8
X158.Y-139.6
X158.Y-140.4
X158.Y-143.6
X158.Y-144.4
X158.Y-145.2
X158.Y-148.4
X158.Y-149.2
X158.793Y-112.498
X158.8Y-111.7
X158.8Y-113.3
X158.8Y-121.3
X158.8Y-122.1
X158.8Y-134.
X158.8Y-134.8
X158.8Y-135.6
X158.8Y-136.4
X158.8Y-137.2
X158.8Y-138.
X158.8Y-138.8
X158.8Y-139.6
X158.8Y-140.4
X158.8Y-142.8
X158.8Y-143.6
X158.8Y-144.4
X158.8Y-145.2
X158.8Y-146.025
X158.8Y-146.8
X158.8Y-147.6
X158.8Y-148.4
X158.8Y-150.
X158.8Y-150.8
X158.807Y-117.293
X158.85Y-118.9
X158.9Y-131.2
X158.927Y-114.587
X159.4Y-156.715
X159.4Y-157.685
X159.6Y-133.2
X159.6Y-134.
X159.6Y-134.8
X159.6Y-135.6
X159.6Y-136.4
X159.6Y-139.6
X159.6Y-141.2
X159.6Y-142.8
X159.6Y-143.625
X159.6Y-144.4
X159.6Y-145.2
X159.6Y-146.8
X159.6Y-148.4
X159.6Y-149.2
X160.4Y-133.2
X160.4Y-134.
X160.4Y-134.8
X160.4Y-135.6
X160.4Y-136.4
X160.4Y-137.2
X160.4Y-138.
X160.4Y-141.2
X160.4Y-142.
X160.4Y-142.8
X160.4Y-146.
X160.4Y-149.2
X160.4Y-150.
X160.8Y-132.6
X161.Y-121.3
X161.2Y-113.3
X161.2Y-118.1
X161.2Y-120.5
X161.2Y-122.1
X161.2Y-122.9
X161.2Y-133.2
X161.2Y-134.
X161.2Y-134.8
X161.2Y-138.8
X161.2Y-139.6
X161.2Y-140.4
X161.2Y-142.
X161.2Y-143.6
X161.2Y-144.4
X161.2Y-146.
X161.2Y-147.6
X161.237Y-117.307
X161.974Y-114.093
X161.993Y-120.507
X161.993Y-121.368
X162.Y-110.1
X162.Y-110.9
X162.Y-111.7
X162.Y-113.3
X162.Y-114.925
X162.Y-118.1
X162.Y-119.7
X162.Y-122.1
X162.Y-122.9
X162.Y-133.2
X162.Y-134.
X162.Y-134.8
X162.Y-136.4
X162.Y-137.2
X162.Y-138.
X162.Y-138.8
X162.Y-139.6
X162.Y-140.4
X162.Y-141.2
X162.Y-143.6
X162.Y-144.4
X162.Y-146.
X162.Y-147.6
X162.Y-148.4
X162.Y-149.2
X162.004Y-115.693
X162.093Y-156.8
X162.78Y-119.106
X162.799Y-115.693
X162.8Y-110.1
X162.8Y-110.9
X162.8Y-111.699
X162.8Y-113.293
X162.8Y-114.893
X162.8Y-118.05
X162.8Y-133.2
X162.8Y-134.
X162.8Y-134.8
X162.8Y-135.6
X162.8Y-136.4
X162.8Y-137.2
X162.8Y-138.
X162.8Y-138.8
X162.8Y-139.6
X162.8Y-140.4
X162.8Y-141.2
X162.8Y-142.8
X162.8Y-143.6
X162.8Y-144.4
X162.8Y-149.2
X162.8Y-150.
X162.801Y-112.493
X162.807Y-114.088
X163.593Y-120.526
X163.598Y-116.493
X163.6Y-113.293
X163.6Y-110.1
X163.6Y-111.699
X163.6Y-115.7
X163.6Y-119.7
X163.6Y-121.3
X163.6Y-122.1
X163.6Y-122.9
X163.6Y-133.2
X163.6Y-134.
X163.6Y-134.8
X163.6Y-135.6
X163.6Y-136.4
X163.6Y-137.2
X163.6Y-138.8
X163.6Y-139.6
X163.6Y-140.4
X163.6Y-141.2
X163.6Y-142.8
X163.6Y-143.6
X163.6Y-144.4
X163.6Y-146.
X163.7Y-117.5
X163.8Y-118.1
X163.925Y-118.825
X164.2Y-126.695
X164.315Y-125.85
X164.341Y-127.726
X164.4Y-133.2
X164.4Y-134.
X164.4Y-134.8
X164.4Y-135.6
X164.4Y-136.4
X164.4Y-137.2
X164.4Y-138.
X164.4Y-138.8
X164.4Y-139.6
X164.4Y-140.4
X164.4Y-141.2
X164.4Y-142.8
X164.4Y-143.6
X164.4Y-144.4
X164.4Y-146.
X164.485Y-109.095
X165.2Y-133.2
X165.2Y-134.
X165.2Y-134.8
X165.2Y-136.4
X165.2Y-137.2
X165.2Y-138.
X165.2Y-139.634
X165.2Y-140.4
X165.2Y-141.2
X165.2Y-142.8
X165.2Y-143.6
X165.2Y-144.4
X165.2Y-147.6
X165.2Y-149.2
X165.205Y-135.607
X165.9Y-108.3
X166.Y-136.4
X166.Y-137.2
X166.Y-138.8
X166.Y-139.6
X166.Y-140.4
X166.Y-141.2
X166.Y-142.8
X166.Y-147.6
X166.8Y-133.2
X166.8Y-134.
X166.8Y-134.8
X166.8Y-135.6
X166.8Y-136.4
X166.8Y-137.2
X166.8Y-138.
X166.8Y-138.8
X166.8Y-139.6
X166.8Y-140.4
X166.8Y-141.2
X166.8Y-142.
X166.8Y-142.825
X166.8Y-143.6
X166.8Y-144.4
X166.8Y-145.2
X167.4Y-113.3
X167.6Y-133.2
X167.6Y-134.
X167.6Y-134.8
X167.6Y-135.6
X167.6Y-136.4
X167.6Y-137.2
X167.6Y-138.
X167.6Y-138.8
X167.6Y-139.6
X167.6Y-140.4
X167.6Y-141.2
X167.6Y-142.
X167.6Y-142.8
X167.6Y-143.6
X167.6Y-144.4
X167.6Y-146.
X167.6Y-148.4
X167.6Y-149.2
X167.6Y-150.
X167.7Y-111.7
X168.4Y-110.9
X168.4Y-113.3
X168.4Y-115.7
X168.4Y-117.3
X168.4Y-118.894
X168.4Y-119.696
X168.4Y-120.482
X168.4Y-121.3
X168.4Y-122.1
X168.4Y-122.9
X168.4Y-132.3
X168.4Y-133.2
X168.4Y-134.
X168.4Y-134.8
X168.4Y-135.6
X168.4Y-136.4
X168.4Y-137.2
X168.4Y-138.
X168.4Y-138.8
X168.4Y-139.6
X168.4Y-140.4
X168.4Y-141.2
X168.4Y-142.
X168.4Y-142.8
X168.4Y-143.6
X168.4Y-144.4
X168.4Y-148.4
X168.4Y-149.2
X168.404Y-112.501
X168.407Y-118.096
X168.407Y-111.7
X169.2Y-110.9
X169.2Y-111.7
X169.2Y-112.5
X169.2Y-113.3
X169.2Y-114.9
X169.2Y-115.7
X169.2Y-116.5
X169.2Y-117.3
X169.2Y-118.1
X169.2Y-118.9
X169.2Y-119.7
X169.2Y-120.5
X169.2Y-121.3
X169.2Y-122.1
X169.2Y-122.9
X169.2Y-134.
X169.2Y-134.8
X169.2Y-135.6
X169.2Y-136.4
X169.2Y-137.2
X169.2Y-138.
X169.2Y-138.8
X169.2Y-139.6
X169.2Y-140.4
X169.2Y-142.
X169.2Y-142.8
X169.2Y-143.6
X169.2Y-146.
X169.989Y-136.399
X169.995Y-135.6
X170.Y-143.6
X170.Y-110.9
X170.Y-112.5
X170.Y-115.7
X170.Y-116.5
X170.Y-118.1
X170.Y-118.9
X170.Y-120.5
X170.Y-121.3
X170.Y-122.1
X170.Y-122.9
X170.Y-133.2
X170.Y-134.
X170.Y-134.8
X170.Y-137.2
X170.Y-138.
X170.Y-138.8
X170.Y-139.6
X170.Y-140.4
X170.Y-142.
X170.Y-142.8
X170.8Y-110.9
X170.8Y-112.5
X170.8Y-117.3
X170.8Y-133.2
X170.8Y-134.
X170.8Y-134.8
X170.8Y-137.2
X170.8Y-138.
X170.8Y-138.8
X170.8Y-139.6
X170.8Y-140.4
X170.8Y-141.2
X170.8Y-149.2
X170.8Y-150.
X170.8Y-143.6
X170.811Y-135.595
X170.999Y-119.181
X171.Y-113.3
X171.6Y-137.193
X171.6Y-114.5
X171.6Y-133.2
X171.6Y-134.8
X171.6Y-135.6
X171.6Y-136.4
X171.6Y-138.
X171.6Y-138.8
X171.6Y-139.6
X171.6Y-140.4
X171.6Y-141.2
X171.6Y-142.
X171.6Y-142.8
X171.6Y-143.6
X171.6Y-144.4
X171.6Y-146.8
X171.6Y-147.6
X172.396Y-133.2
X172.4Y-120.5
X172.4Y-121.3
X172.4Y-134.
X172.4Y-134.8
X172.4Y-136.4
X172.4Y-137.2
X172.4Y-138.
X172.4Y-138.8
X172.4Y-139.6
X172.4Y-140.4
X172.4Y-141.2
X172.4Y-142.
X172.4Y-142.8
X172.4Y-143.6
X172.4Y-144.4
X172.4Y-145.2
X172.4Y-150.
X173.182Y-133.198
X173.2Y-111.7
X173.2Y-113.3
X173.2Y-114.1
X173.2Y-114.9
X173.2Y-115.7
X173.2Y-118.1
X173.2Y-118.9
X173.2Y-121.3
X173.2Y-122.1
X173.2Y-122.9
X173.2Y-134.
X173.2Y-135.6
X173.2Y-136.4
X173.2Y-137.2
X173.2Y-138.8
X173.2Y-139.6
X173.2Y-141.2
X173.2Y-142.
X173.2Y-142.8
X173.2Y-143.6
X173.2Y-147.6
X173.202Y-138.
X173.983Y-138.
X173.995Y-122.107
X174.Y-110.9
X174.Y-111.7
X174.Y-114.1
X174.Y-115.7
X174.Y-116.5
X174.Y-118.1
X174.Y-122.9
X174.Y-134.
X174.Y-134.8
X174.Y-135.6
X174.Y-137.2
X174.Y-138.8
X174.Y-139.6
X174.Y-142.
X174.Y-143.6
X174.Y-144.4
X174.Y-147.6
X174.Y-150.
X174.017Y-133.197
X174.793Y-120.513
X174.8Y-110.9
X174.8Y-111.7
X174.8Y-112.5
X174.8Y-113.3
X174.8Y-114.1
X174.8Y-114.9
X174.8Y-116.5
X174.8Y-117.3
X174.8Y-118.1
X174.8Y-118.9
X174.8Y-119.7
X174.8Y-134.8
X174.8Y-135.6
X174.8Y-138.
X174.8Y-138.8
X174.8Y-142.
X174.8Y-142.8
X174.8Y-143.6
X174.8Y-145.2
X174.8Y-150.
X175.275Y-140.825
X175.5Y-136.4
X175.6Y-110.1
X175.6Y-110.9
X175.6Y-112.5
X175.6Y-113.3
X175.6Y-114.1
X175.6Y-115.7
X175.6Y-117.3
X175.6Y-118.1
X175.6Y-118.9
X175.6Y-119.7
X175.6Y-120.5
X175.6Y-121.3
X175.6Y-122.1
X175.6Y-122.9
X175.607Y-135.482
X175.7Y-142.243
X176.9Y-139.6
X176.901Y-142.243
X177.1Y-134.1
X177.103Y-145.003
X177.3Y-138.786
X177.553Y-146.753
X177.6Y-108.3
X178.315Y-141.2
X178.7Y-139.586
X179.Y-129.2
X179.Y-131.5
X179.Y-136.8
X179.4Y-148.1
X179.4Y-150.855
X179.6Y-129.2
X180.2Y-127.2
X180.3Y-136.685
X180.3Y-143.2
X180.519Y-133.419
X180.8Y-135.1
X180.807Y-131.8
X180.85Y-138.694
X181.1Y-109.1
X181.1Y-111.9
X181.66Y-131.048
X181.676Y-132.269
X181.75Y-120.1
X182.Y-117.8
X182.312Y-134.194
X182.7Y-148.1
X182.7Y-150.9
X183.015Y-142.1
X183.25Y-119.25
X183.65Y-139.95
X183.985Y-142.1
X184.3Y-117.75
X184.3Y-119.75
X184.35Y-139.95
X184.55Y-124.05
X184.6Y-121.415
X184.6Y-122.385
X184.7Y-118.75
X184.75Y-120.25
X184.8Y-128.
X184.905Y-140.893
X184.95Y-139.95
X184.95Y-143.75
X185.5Y-115.1
X185.6Y-131.7
X185.6Y-134.4
X185.6Y-135.8
X185.85Y-142.25
X185.9Y-116.55
X185.9Y-139.95
X185.95Y-121.4
X186.55Y-137.3
X186.65Y-122.45
X186.75Y-137.8
X186.8Y-136.7
X187.015Y-114.093
X187.11Y-122.866
X187.215Y-111.45
X187.5Y-118.
X187.5Y-120.
X187.6Y-143.7
X187.65Y-115.067
X187.65Y-122.65
X187.749Y-128.024
X187.749Y-130.
X187.749Y-131.976
X187.985Y-114.093
X188.065Y-134.7
X188.15Y-115.5
X188.185Y-111.45
X188.25Y-139.25
X188.25Y-141.25
X188.4Y-119.
X188.5Y-136.8
X188.5Y-143.75
X188.65Y-115.1
X189.Y-134.
X189.Y-134.7
X189.Y-136.5
X189.015Y-123.5
X189.15Y-115.5
X189.15Y-122.55
X189.165Y-135.75
X189.25Y-118.
X189.25Y-120.
X189.25Y-140.25
X189.4Y-104.6
X189.465Y-111.45
X189.5Y-136.8
X189.5Y-143.8
X189.985Y-123.5
X190.Y-136.5
X190.135Y-135.75
X190.2Y-134.7
X190.2Y-143.75
X190.25Y-139.25
X190.25Y-141.25
X190.3Y-134.
X190.4Y-131.
X190.435Y-111.45
X191.115Y-114.7
X191.2Y-134.7
X191.3Y-132.3
X191.6Y-122.1
X191.6Y-122.7
X191.6Y-123.3
X191.9Y-117.75
X191.9Y-118.75
X192.085Y-114.7
X192.2Y-122.1
X192.2Y-122.7
X192.2Y-123.3
X192.5Y-140.
X192.5Y-141.5
X193.Y-141.
X193.Y-143.015
X193.Y-143.985
X193.2Y-111.8
X194.Y-143.015
X194.Y-143.985
X194.4Y-133.65
X194.5Y-117.2
X194.7Y-119.3
X194.7Y-137.5
X194.7Y-138.5
X194.7Y-139.5
X195.115Y-135.
X195.2Y-112.1
X195.2Y-129.1
X195.8Y-122.215
X195.8Y-123.185
X196.085Y-135.
X196.3Y-106.7
X196.8Y-122.
X196.8Y-123.4
X197.3Y-129.1
X197.4Y-130.
X197.4Y-133.
X197.8Y-128.6
X198.Y-132.7
X199.7Y-128.1
X201.Y-142.985
X201.6Y-104.6
X201.6Y-105.6
X201.6Y-106.6
X202.1Y-111.5
X202.6Y-125.2
X202.8Y-111.3
X203.1Y-129.8
X203.415Y-143.9
X203.6Y-104.6
X203.6Y-105.6
X203.6Y-106.6
X204.1Y-104.6
X204.1Y-105.6
X204.1Y-106.6
X204.385Y-143.9
X204.7Y-112.2
X209.5Y-116.5
X209.5Y-117.5
X209.5Y-121.4
X209.5Y-122.4
X209.872Y-115.116
X210.5Y-116.5
X210.5Y-117.5
X210.5Y-121.4
X210.5Y-122.4
X211.5Y-116.5
X211.5Y-117.5
X211.5Y-121.4
X211.5Y-122.4
X212.5Y-116.5
X212.5Y-117.5
X212.5Y-121.4
X212.5Y-122.4
T2
X193.95Y-105.025
X200.05Y-105.025
T3
X203.5Y-138.
X203.5Y-140.5
X205.5Y-138.
X205.5Y-140.5
T4
X178.9Y-145.5
X181.44Y-145.5
X183.98Y-145.5
X186.52Y-145.5
X189.06Y-145.5
X191.6Y-145.5
X152.Y-105.54
X152.Y-153.8
X154.54Y-105.54
X154.54Y-153.8
X157.08Y-105.54
X157.08Y-153.8
X159.62Y-105.54
X159.62Y-153.8
X162.16Y-105.54
X162.16Y-153.8
X164.7Y-105.54
X164.7Y-153.8
X167.24Y-153.8
X169.78Y-105.54
X169.78Y-153.8
X172.32Y-105.54
X173.844Y-153.8
X174.86Y-105.54
X176.384Y-153.8
X177.4Y-105.54
X178.924Y-153.8
X179.94Y-105.54
X181.464Y-153.8
X182.48Y-105.54
X184.004Y-153.8
X185.02Y-105.54
X186.544Y-153.8
X187.56Y-105.54
X189.084Y-153.8
X191.624Y-153.8
X194.164Y-153.8
X196.704Y-153.8
T5
X195.Y-102.075
X199.Y-102.075
T6
X151.96Y-157.
X154.5Y-157.
X157.Y-157.
X189.12Y-148.23
X189.12Y-150.77
X191.66Y-148.23
X191.66Y-150.77
X194.2Y-148.23
X194.2Y-150.77
X196.74Y-148.23
X196.74Y-150.77
X199.28Y-148.23
X199.28Y-150.77
T7
X132.65Y-102.6
X133.25Y-107.55
X147.75Y-107.55
X148.35Y-102.6
T8
X197.Y-102.625
T9
X144.4Y-149.3
X144.4Y-156.5
T10
X108.Y-108.25
X108.Y-118.16
X115.62Y-108.25
X115.62Y-118.16
X125.78Y-108.25
X125.78Y-118.16
X108.Y-142.09
X108.Y-152.
X115.62Y-142.09
X115.62Y-152.
X125.78Y-142.09
X125.78Y-152.
X108.Y-125.09
X108.Y-135.
X115.62Y-125.09
X115.62Y-135.
X125.78Y-125.09
X125.78Y-135.
T11
X208.21Y-133.23
X208.21Y-145.27
T12
X209.641Y-112.429
X209.641Y-125.571
T13
X120.7Y-113.
X120.7Y-146.84
X120.7Y-129.84
T0
M30
