G04 #@! TF.FileFunction,Profile,NP*
%FSLAX46Y46*%
G04 Gerber Fmt 4.6, Leading zero omitted, Abs format (unit mm)*
G04 Created by KiCad (PCBNEW 4.0.7-e2-6376~58~ubuntu16.04.1) date Fri Mar 23 14:58:26 2018*
%MOMM*%
%LPD*%
G01*
G04 APERTURE LIST*
%ADD10C,0.125000*%
%ADD11C,0.130000*%
G04 APERTURE END LIST*
D10*
D11*
X225000000Y-93000000D02*
X136500000Y-93000000D01*
X225000000Y-95000000D02*
X225000000Y-93000000D01*
X235000000Y-95000000D02*
X225000000Y-95000000D01*
X235000000Y-93000000D02*
X235000000Y-95000000D01*
X136500000Y-153000000D02*
X136500000Y-155000000D01*
X255000000Y-155000000D02*
X255000000Y-93000000D01*
X106500000Y-93000000D02*
X106500000Y-155000000D01*
X126500000Y-93000000D02*
X106500000Y-93000000D01*
X126500000Y-95000000D02*
X126500000Y-93000000D01*
X136500000Y-95000000D02*
X126500000Y-95000000D01*
X136500000Y-93000000D02*
X136500000Y-95000000D01*
X255000000Y-93000000D02*
X235000000Y-93000000D01*
X235000000Y-155000000D02*
X255000000Y-155000000D01*
X235000000Y-153000000D02*
X235000000Y-155000000D01*
X225000000Y-153000000D02*
X235000000Y-153000000D01*
X225000000Y-155000000D02*
X225000000Y-153000000D01*
X136500000Y-155000000D02*
X225000000Y-155000000D01*
X126500000Y-153000000D02*
X136500000Y-153000000D01*
X126500000Y-155000000D02*
X126500000Y-153000000D01*
X106500000Y-155000000D02*
X126500000Y-155000000D01*
M02*
