M48
; DRILL file {KiCad 5.1.5-52549c5~84~ubuntu18.04.1} date Tue 10 Dec 2019 10:53:07 PM EST
; FORMAT={-:-/ absolute / inch / decimal}
; #@! TF.CreationDate,2019-12-10T22:53:07-05:00
; #@! TF.GenerationSoftware,Kicad,Pcbnew,5.1.5-52549c5~84~ubuntu18.04.1
; #@! TF.FileFunction,Plated,1,8,PTH
FMAT,2
INCH
T1C0.0098
T2C0.0315
T3C0.0362
T4C0.0400
T5C0.0433
T6C0.0472
T7C0.0512
T8C0.0551
T9C0.0669
T10C0.0819
T11C0.0917
T12C0.0940
T13C0.1280
%
G90
G05
T1
X4.3661Y-5.4213
X4.4016Y-5.8465
X4.4022Y-5.3622
X4.4404Y-5.3622
X4.5Y-5.7682
X4.5Y-5.8302
X4.5518Y-5.815
X4.5595Y-5.7638
X4.5636Y-5.7047
X4.59Y-5.815
X4.5906Y-5.4173
X4.6018Y-5.7047
X4.603Y-5.2008
X4.6102Y-5.4961
X4.6216Y-5.7638
X4.6411Y-5.2008
X4.6457Y-5.3268
X4.6457Y-5.563
X4.6614Y-5.6102
X4.6752Y-5.2933
X4.6949Y-5.2756
X4.7047Y-5.374
X4.7047Y-5.4134
X4.7047Y-5.4528
X4.7146Y-5.2982
X4.7165Y-5.6457
X4.7343Y-5.2825
X4.7441Y-5.374
X4.7441Y-5.4134
X4.7441Y-5.4528
X4.7539Y-5.2362
X4.7736Y-5.2815
X4.7835Y-5.374
X4.7835Y-5.4134
X4.7835Y-5.4528
X4.7953Y-5.2638
X4.815Y-5.2874
X4.843Y-5.8819
X4.8578Y-5.2244
X4.8759Y-5.401
X4.8773Y-5.3528
X4.8777Y-5.4354
X4.8814Y-5.3788
X4.8898Y-5.455
X4.8965Y-5.4224
X4.905Y-5.8819
X4.9055Y-5.4764
X4.9055Y-5.7638
X4.9252Y-5.1811
X4.9331Y-4.5236
X4.9488Y-5.2165
X4.9511Y-5.4319
X4.9517Y-5.4994
X4.9528Y-5.8425
X4.9646Y-5.1378
X4.9762Y-5.5238
X4.9764Y-4.4567
X4.9921Y-5.7756
X5.0039Y-4.4173
X5.0157Y-5.4803
X5.0653Y-5.338
X5.08Y-5.3964
X5.0827Y-5.4291
X5.0906Y-5.4606
X5.0945Y-5.3543
X5.0984Y-5.1614
X5.0984Y-5.185
X5.0984Y-5.7087
X5.1059Y-4.9626
X5.1541Y-5.3976
X5.1575Y-5.315
X5.1654Y-5.563
X5.1693Y-5.9567
X5.1811Y-5.5118
X5.1859Y-5.2922
X5.189Y-5.4606
X5.1923Y-5.3976
X5.1969Y-5.0
X5.2046Y-5.0216
X5.2126Y-5.4409
X5.2165Y-5.9016
X5.2264Y-5.0768
X5.2559Y-5.6457
X5.2559Y-5.8976
X5.2598Y-5.2165
X5.2657Y-5.3996
X5.2726Y-5.7207
X5.2795Y-5.4409
X5.2913Y-4.9606
X5.2913Y-5.1457
X5.2992Y-5.5433
X5.3031Y-5.0906
X5.3031Y-5.2913
X5.3031Y-5.8937
X5.315Y-5.4094
X5.3346Y-5.4921
X5.3386Y-5.0886
X5.3386Y-5.2559
X5.3386Y-5.8898
X5.3425Y-5.7598
X5.3504Y-4.5846
X5.3563Y-4.7953
X5.3583Y-4.378
X5.3611Y-5.6901
X5.3622Y-4.8819
X5.3661Y-4.2008
X5.378Y-5.4921
X5.3814Y-4.5812
X5.3819Y-4.6476
X5.3819Y-4.6791
X5.3819Y-4.7106
X5.3819Y-4.7815
X5.3819Y-5.8898
X5.3858Y-4.378
X5.3917Y-5.1496
X5.4094Y-5.5197
X5.4094Y-5.5433
X5.4168Y-4.5866
X5.4252Y-4.2008
X5.4252Y-5.8898
X5.4252Y-6.0787
X5.4291Y-4.378
X5.432Y-5.1074
X5.4331Y-5.1535
X5.437Y-5.6457
X5.437Y-5.708
X5.4409Y-4.8819
X5.4455Y-5.3858
X5.4488Y-5.7283
X5.4528Y-4.3858
X5.4541Y-4.7854
X5.4587Y-5.3346
X5.4685Y-5.1496
X5.4724Y-5.7185
X5.4724Y-5.89
X5.4764Y-4.8819
X5.4803Y-4.3858
X5.4837Y-5.3858
X5.4843Y-4.2008
X5.4902Y-5.5197
X5.4921Y-4.7874
X5.4961Y-5.2598
X5.4961Y-5.8701
X5.4997Y-5.1176
X5.5Y-4.8701
X5.5031Y-4.3882
X5.5059Y-5.7323
X5.5098Y-5.5787
X5.5236Y-4.378
X5.5354Y-5.1069
X5.5354Y-5.1451
X5.5354Y-5.6457
X5.5394Y-4.2008
X5.5551Y-5.079
X5.563Y-4.378
X5.563Y-5.8898
X5.5689Y-5.5098
X5.5709Y-5.8425
X5.5827Y-5.3903
X5.5827Y-5.4523
X5.5866Y-4.4094
X5.5945Y-4.9803
X5.6024Y-4.378
X5.6024Y-5.5787
X5.6063Y-4.5453
X5.6086Y-5.2244
X5.622Y-5.2992
X5.6299Y-5.5833
X5.6319Y-5.7717
X5.6398Y-4.3524
X5.6457Y-4.9764
X5.6575Y-4.2008
X5.6614Y-4.9055
X5.6788Y-4.2165
X5.685Y-5.4134
X5.7008Y-4.3701
X5.7008Y-4.9646
X5.7008Y-5.5039
X5.7165Y-5.2598
X5.7244Y-5.2362
X5.7323Y-4.4803
X5.7323Y-4.9685
X5.7362Y-4.3898
X5.7441Y-5.752
X5.748Y-5.3135
X5.748Y-5.3504
X5.748Y-5.3873
X5.752Y-5.2211
X5.752Y-5.2593
X5.7559Y-4.5197
X5.7569Y-5.5797
X5.7598Y-4.4882
X5.7638Y-5.6614
X5.7657Y-5.4646
X5.7756Y-5.9134
X5.7953Y-5.6181
X5.8031Y-5.6575
X5.8189Y-4.6019
X5.8189Y-5.063
X5.8268Y-5.2913
X5.8307Y-6.1378
X5.8346Y-5.0827
X5.8391Y-6.0827
X5.8465Y-5.4764
X5.8504Y-5.1063
X5.8543Y-4.8898
X5.8543Y-5.3031
X5.8562Y-4.5236
X5.8661Y-5.4882
X5.8701Y-5.9016
X5.8701Y-6.0118
X5.8717Y-4.6022
X5.8819Y-5.5669
X5.8864Y-4.3465
X5.8898Y-4.7953
X5.8898Y-4.8189
X5.9011Y-6.0827
X5.9055Y-5.8322
X5.9213Y-4.4252
X5.9213Y-4.4882
X5.9218Y-4.5748
X5.9218Y-4.6339
X5.9246Y-4.3465
X5.9252Y-5.2497
X5.9331Y-4.811
X5.9386Y-4.4571
X5.9449Y-6.1142
X5.9488Y-4.6969
X5.9606Y-4.4252
X5.9606Y-4.4882
X5.9646Y-5.4331
X5.9744Y-5.7579
X5.9764Y-4.3504
X5.9798Y-5.0591
X5.9803Y-4.7441
X5.9803Y-4.9494
X5.9803Y-4.9876
X5.9961Y-5.748
X6.0039Y-4.7323
X6.0039Y-5.4331
X6.0039Y-5.4724
X6.0059Y-4.876
X6.0079Y-5.8543
X6.0354Y-5.7522
X6.0394Y-5.4488
X6.0394Y-5.5354
X6.0394Y-5.5748
X6.0419Y-4.5354
X6.0472Y-4.3392
X6.0472Y-4.3774
X6.0519Y-5.9599
X6.0551Y-4.5832
X6.0551Y-4.6452
X6.0551Y-6.0079
X6.0567Y-4.4261
X6.0567Y-4.4881
X6.0669Y-4.8583
X6.0669Y-5.748
X6.1024Y-5.8976
X6.1339Y-5.5039
X6.1417Y-5.6142
X6.1457Y-5.748
X6.1575Y-4.3661
X6.1575Y-4.4291
X6.1575Y-4.6181
X6.1575Y-4.6496
X6.1575Y-4.6811
X6.1575Y-4.7126
X6.1575Y-4.8071
X6.1575Y-4.9582
X6.1576Y-4.7423
X6.1578Y-4.7753
X6.1608Y-4.8394
X6.1693Y-5.2598
X6.1732Y-5.4803
X6.1772Y-5.5276
X6.1772Y-5.8268
X6.189Y-4.3661
X6.189Y-4.3976
X6.189Y-4.4291
X6.189Y-4.4606
X6.189Y-4.4921
X6.189Y-4.5551
X6.189Y-4.5866
X6.189Y-4.6496
X6.189Y-4.6811
X6.189Y-4.7126
X6.189Y-4.7441
X6.189Y-4.7756
X6.189Y-4.8071
X6.189Y-5.2756
X6.189Y-5.3071
X6.189Y-5.3386
X6.189Y-5.3701
X6.189Y-5.4016
X6.189Y-5.4331
X6.189Y-5.6535
X6.189Y-5.685
X6.189Y-5.7165
X6.189Y-5.7795
X6.189Y-5.874
X6.2191Y-5.811
X6.2205Y-4.3661
X6.2205Y-4.4921
X6.2205Y-4.5236
X6.2205Y-4.5551
X6.2205Y-4.5866
X6.2205Y-4.6181
X6.2205Y-4.6496
X6.2205Y-4.6811
X6.2205Y-4.7441
X6.2205Y-4.8071
X6.2205Y-4.8386
X6.2205Y-5.2441
X6.2205Y-5.2756
X6.2205Y-5.3071
X6.2205Y-5.3386
X6.2205Y-5.3701
X6.2205Y-5.4016
X6.2205Y-5.4331
X6.2205Y-5.4646
X6.2205Y-5.4961
X6.2205Y-5.5276
X6.2205Y-5.6535
X6.2205Y-5.685
X6.2205Y-5.7165
X6.2205Y-5.8425
X6.2205Y-5.874
X6.2517Y-4.4291
X6.252Y-4.3976
X6.252Y-4.4606
X6.252Y-4.7756
X6.252Y-4.8071
X6.252Y-5.2756
X6.252Y-5.3071
X6.252Y-5.3386
X6.252Y-5.3701
X6.252Y-5.4016
X6.252Y-5.4331
X6.252Y-5.4646
X6.252Y-5.4961
X6.252Y-5.5276
X6.252Y-5.622
X6.252Y-5.6535
X6.252Y-5.685
X6.252Y-5.7165
X6.252Y-5.749
X6.252Y-5.7795
X6.252Y-5.811
X6.252Y-5.8425
X6.252Y-5.9055
X6.252Y-5.937
X6.2522Y-4.6178
X6.2539Y-4.6811
X6.2559Y-5.1654
X6.257Y-4.5113
X6.2756Y-6.1699
X6.2756Y-6.2081
X6.2835Y-5.2441
X6.2835Y-5.2756
X6.2835Y-5.3071
X6.2835Y-5.3386
X6.2835Y-5.3701
X6.2835Y-5.4961
X6.2835Y-5.5591
X6.2835Y-5.622
X6.2835Y-5.6545
X6.2835Y-5.685
X6.2835Y-5.7165
X6.2835Y-5.7795
X6.2835Y-5.8425
X6.2835Y-5.874
X6.315Y-5.2441
X6.315Y-5.2756
X6.315Y-5.3071
X6.315Y-5.3386
X6.315Y-5.3701
X6.315Y-5.4016
X6.315Y-5.4331
X6.315Y-5.5591
X6.315Y-5.5906
X6.315Y-5.622
X6.315Y-5.748
X6.315Y-5.874
X6.315Y-5.9055
X6.3307Y-5.2205
X6.3386Y-4.7756
X6.3465Y-4.4606
X6.3465Y-4.6496
X6.3465Y-4.7441
X6.3465Y-4.8071
X6.3465Y-4.8386
X6.3465Y-5.2441
X6.3465Y-5.2756
X6.3465Y-5.3071
X6.3465Y-5.4646
X6.3465Y-5.4961
X6.3465Y-5.5276
X6.3465Y-5.5906
X6.3465Y-5.6535
X6.3465Y-5.685
X6.3465Y-5.748
X6.3465Y-5.811
X6.3479Y-4.6184
X6.3769Y-4.4919
X6.3777Y-4.7444
X6.3777Y-4.7783
X6.378Y-4.3346
X6.378Y-4.3661
X6.378Y-4.3976
X6.378Y-4.4606
X6.378Y-4.5246
X6.378Y-4.6496
X6.378Y-4.7126
X6.378Y-4.8071
X6.378Y-4.8386
X6.378Y-5.2441
X6.378Y-5.2756
X6.378Y-5.3071
X6.378Y-5.3701
X6.378Y-5.4016
X6.378Y-5.4331
X6.378Y-5.4646
X6.378Y-5.4961
X6.378Y-5.5276
X6.378Y-5.5591
X6.378Y-5.6535
X6.378Y-5.685
X6.378Y-5.748
X6.378Y-5.811
X6.378Y-5.8425
X6.378Y-5.874
X6.3781Y-4.5548
X6.3816Y-6.1732
X6.4086Y-4.6892
X6.4094Y-4.5548
X6.4094Y-4.3346
X6.4094Y-4.3661
X6.4094Y-4.3976
X6.4094Y-4.4604
X6.4094Y-4.5233
X6.4094Y-4.6476
X6.4094Y-5.2441
X6.4094Y-5.2756
X6.4094Y-5.3071
X6.4094Y-5.3386
X6.4094Y-5.3701
X6.4094Y-5.4016
X6.4094Y-5.4331
X6.4094Y-5.4646
X6.4094Y-5.4961
X6.4094Y-5.5276
X6.4094Y-5.5591
X6.4094Y-5.622
X6.4094Y-5.6535
X6.4094Y-5.685
X6.4094Y-5.874
X6.4094Y-5.9055
X6.4095Y-4.4289
X6.4097Y-4.4916
X6.4407Y-4.7451
X6.4409Y-4.5863
X6.4409Y-4.4604
X6.4409Y-4.3346
X6.4409Y-4.3976
X6.4409Y-4.5551
X6.4409Y-4.7126
X6.4409Y-4.7756
X6.4409Y-4.8071
X6.4409Y-4.8386
X6.4409Y-5.2441
X6.4409Y-5.2756
X6.4409Y-5.3071
X6.4409Y-5.3386
X6.4409Y-5.3701
X6.4409Y-5.4016
X6.4409Y-5.4646
X6.4409Y-5.4961
X6.4409Y-5.5276
X6.4409Y-5.5591
X6.4409Y-5.622
X6.4409Y-5.6535
X6.4409Y-5.685
X6.4409Y-5.748
X6.4449Y-4.626
X6.4488Y-4.6496
X6.4537Y-4.6781
X6.4646Y-4.988
X6.4691Y-4.9547
X6.4701Y-5.0286
X6.4724Y-5.2441
X6.4724Y-5.2756
X6.4724Y-5.3071
X6.4724Y-5.3386
X6.4724Y-5.3701
X6.4724Y-5.4016
X6.4724Y-5.4331
X6.4724Y-5.4646
X6.4724Y-5.4961
X6.4724Y-5.5276
X6.4724Y-5.5591
X6.4724Y-5.622
X6.4724Y-5.6535
X6.4724Y-5.685
X6.4724Y-5.748
X6.4758Y-4.2951
X6.5039Y-5.2441
X6.5039Y-5.2756
X6.5039Y-5.3071
X6.5039Y-5.3701
X6.5039Y-5.4016
X6.5039Y-5.4331
X6.5039Y-5.4974
X6.5039Y-5.5276
X6.5039Y-5.5591
X6.5039Y-5.622
X6.5039Y-5.6535
X6.5039Y-5.685
X6.5039Y-5.811
X6.5039Y-5.874
X6.5041Y-5.3389
X6.5315Y-4.2638
X6.5354Y-5.3701
X6.5354Y-5.4016
X6.5354Y-5.4646
X6.5354Y-5.4961
X6.5354Y-5.5276
X6.5354Y-5.5591
X6.5354Y-5.622
X6.5354Y-5.811
X6.5669Y-5.2441
X6.5669Y-5.2756
X6.5669Y-5.3071
X6.5669Y-5.3386
X6.5669Y-5.3701
X6.5669Y-5.4016
X6.5669Y-5.4331
X6.5669Y-5.4646
X6.5669Y-5.4961
X6.5669Y-5.5276
X6.5669Y-5.5591
X6.5669Y-5.5906
X6.5669Y-5.623
X6.5669Y-5.6535
X6.5669Y-5.685
X6.5669Y-5.7165
X6.5906Y-4.4606
X6.5984Y-5.2441
X6.5984Y-5.2756
X6.5984Y-5.3071
X6.5984Y-5.3386
X6.5984Y-5.3701
X6.5984Y-5.4016
X6.5984Y-5.4331
X6.5984Y-5.4646
X6.5984Y-5.4961
X6.5984Y-5.5276
X6.5984Y-5.5591
X6.5984Y-5.5906
X6.5984Y-5.622
X6.5984Y-5.6535
X6.5984Y-5.685
X6.5984Y-5.748
X6.5984Y-5.8425
X6.5984Y-5.874
X6.5984Y-5.9055
X6.6024Y-4.3976
X6.6299Y-4.3661
X6.6299Y-4.4606
X6.6299Y-4.5551
X6.6299Y-4.6181
X6.6299Y-4.6809
X6.6299Y-4.7124
X6.6299Y-4.7434
X6.6299Y-4.7756
X6.6299Y-4.8071
X6.6299Y-4.8386
X6.6299Y-5.2087
X6.6299Y-5.2441
X6.6299Y-5.2756
X6.6299Y-5.3071
X6.6299Y-5.3386
X6.6299Y-5.3701
X6.6299Y-5.4016
X6.6299Y-5.4331
X6.6299Y-5.4646
X6.6299Y-5.4961
X6.6299Y-5.5276
X6.6299Y-5.5591
X6.6299Y-5.5906
X6.6299Y-5.622
X6.6299Y-5.6535
X6.6299Y-5.685
X6.6299Y-5.8425
X6.6299Y-5.874
X6.6301Y-4.4292
X6.6302Y-4.6494
X6.6302Y-4.3976
X6.6614Y-4.3661
X6.6614Y-4.3976
X6.6614Y-4.4291
X6.6614Y-4.4606
X6.6614Y-4.5236
X6.6614Y-4.5551
X6.6614Y-4.5866
X6.6614Y-4.6181
X6.6614Y-4.6496
X6.6614Y-4.6811
X6.6614Y-4.7126
X6.6614Y-4.7441
X6.6614Y-4.7756
X6.6614Y-4.8071
X6.6614Y-4.8386
X6.6614Y-5.2756
X6.6614Y-5.3071
X6.6614Y-5.3386
X6.6614Y-5.3701
X6.6614Y-5.4016
X6.6614Y-5.4331
X6.6614Y-5.4646
X6.6614Y-5.4961
X6.6614Y-5.5276
X6.6614Y-5.5906
X6.6614Y-5.622
X6.6614Y-5.6535
X6.6614Y-5.748
X6.6925Y-5.3701
X6.6927Y-5.3386
X6.6929Y-5.6535
X6.6929Y-4.3661
X6.6929Y-4.4291
X6.6929Y-4.5551
X6.6929Y-4.5866
X6.6929Y-4.6496
X6.6929Y-4.6811
X6.6929Y-4.7441
X6.6929Y-4.7756
X6.6929Y-4.8071
X6.6929Y-4.8386
X6.6929Y-5.2441
X6.6929Y-5.2756
X6.6929Y-5.3071
X6.6929Y-5.4016
X6.6929Y-5.4331
X6.6929Y-5.4646
X6.6929Y-5.4961
X6.6929Y-5.5276
X6.6929Y-5.5906
X6.6929Y-5.622
X6.7244Y-4.3661
X6.7244Y-4.4291
X6.7244Y-4.6181
X6.7244Y-5.2441
X6.7244Y-5.2756
X6.7244Y-5.3071
X6.7244Y-5.4016
X6.7244Y-5.4331
X6.7244Y-5.4646
X6.7244Y-5.4961
X6.7244Y-5.5276
X6.7244Y-5.5591
X6.7244Y-5.874
X6.7244Y-5.9055
X6.7244Y-5.6535
X6.7249Y-5.3384
X6.7322Y-4.6922
X6.7323Y-4.4606
X6.7559Y-5.4013
X6.7559Y-4.5079
X6.7559Y-5.2441
X6.7559Y-5.3071
X6.7559Y-5.3386
X6.7559Y-5.3701
X6.7559Y-5.4331
X6.7559Y-5.4646
X6.7559Y-5.4961
X6.7559Y-5.5276
X6.7559Y-5.5591
X6.7559Y-5.5906
X6.7559Y-5.622
X6.7559Y-5.6535
X6.7559Y-5.685
X6.7559Y-5.7795
X6.7559Y-5.811
X6.7872Y-5.2441
X6.7874Y-4.7441
X6.7874Y-4.7756
X6.7874Y-5.2756
X6.7874Y-5.3071
X6.7874Y-5.3701
X6.7874Y-5.4016
X6.7874Y-5.4331
X6.7874Y-5.4646
X6.7874Y-5.4961
X6.7874Y-5.5276
X6.7874Y-5.5591
X6.7874Y-5.5906
X6.7874Y-5.622
X6.7874Y-5.6535
X6.7874Y-5.685
X6.7874Y-5.7165
X6.7874Y-5.9055
X6.8182Y-5.244
X6.8189Y-4.3976
X6.8189Y-4.4606
X6.8189Y-4.4921
X6.8189Y-4.5236
X6.8189Y-4.5551
X6.8189Y-4.6496
X6.8189Y-4.6811
X6.8189Y-4.7756
X6.8189Y-4.8071
X6.8189Y-4.8386
X6.8189Y-5.2756
X6.8189Y-5.3386
X6.8189Y-5.3701
X6.8189Y-5.4016
X6.8189Y-5.4646
X6.8189Y-5.4961
X6.8189Y-5.5591
X6.8189Y-5.5906
X6.8189Y-5.622
X6.8189Y-5.6535
X6.8189Y-5.811
X6.819Y-5.4331
X6.8497Y-5.4331
X6.8502Y-4.8074
X6.8504Y-4.3661
X6.8504Y-4.3976
X6.8504Y-4.4921
X6.8504Y-4.5551
X6.8504Y-4.5866
X6.8504Y-4.6496
X6.8504Y-4.8386
X6.8504Y-5.2756
X6.8504Y-5.3071
X6.8504Y-5.3386
X6.8504Y-5.4016
X6.8504Y-5.4646
X6.8504Y-5.4961
X6.8504Y-5.5906
X6.8504Y-5.6535
X6.8504Y-5.685
X6.8504Y-5.811
X6.8504Y-5.9055
X6.8511Y-5.244
X6.8816Y-4.7446
X6.8819Y-4.3661
X6.8819Y-4.3976
X6.8819Y-4.4291
X6.8819Y-4.4606
X6.8819Y-4.4921
X6.8819Y-4.5236
X6.8819Y-4.5866
X6.8819Y-4.6181
X6.8819Y-4.6496
X6.8819Y-4.6811
X6.8819Y-4.7126
X6.8819Y-5.3071
X6.8819Y-5.3386
X6.8819Y-5.4331
X6.8819Y-5.4646
X6.8819Y-5.5906
X6.8819Y-5.622
X6.8819Y-5.6535
X6.8819Y-5.7165
X6.8819Y-5.9055
X6.9006Y-5.5443
X6.9094Y-5.3701
X6.9134Y-4.3346
X6.9134Y-4.3661
X6.9134Y-4.4291
X6.9134Y-4.4606
X6.9134Y-4.4921
X6.9134Y-4.5551
X6.9134Y-4.6181
X6.9134Y-4.6496
X6.9134Y-4.6811
X6.9134Y-4.7126
X6.9134Y-4.7441
X6.9134Y-4.7756
X6.9134Y-4.8071
X6.9134Y-4.8386
X6.9137Y-5.3339
X6.9173Y-5.6001
X6.9646Y-5.315
X6.9646Y-5.4961
X6.9646Y-5.6001
X6.9724Y-5.2795
X6.9726Y-5.7088
X6.9803Y-5.464
X6.9903Y-5.7777
X6.9921Y-4.2638
X7.0203Y-5.5591
X7.0354Y-5.4955
X7.0472Y-5.0866
X7.0472Y-5.1772
X7.063Y-5.2362
X7.063Y-5.8307
X7.063Y-5.9392
X7.0669Y-5.378
X7.0709Y-5.0866
X7.0945Y-5.0079
X7.0984Y-5.3813
X7.0984Y-5.6378
X7.107Y-5.2527
X7.1181Y-5.3189
X7.1184Y-5.189
X7.1185Y-5.4619
X7.1299Y-4.2953
X7.1299Y-4.4055
X7.152Y-5.1594
X7.1526Y-5.2074
X7.1555Y-4.7283
X7.1654Y-4.6378
X7.1693Y-5.2677
X7.1929Y-5.8307
X7.1929Y-5.9409
X7.2053Y-5.5945
X7.2146Y-4.6949
X7.2435Y-5.5945
X7.2441Y-5.5079
X7.2559Y-4.6358
X7.2559Y-4.7146
X7.2657Y-4.8839
X7.2677Y-4.7801
X7.2677Y-4.8183
X7.2717Y-4.6752
X7.2736Y-4.7343
X7.2756Y-5.0394
X7.2795Y-5.3189
X7.2835Y-5.3858
X7.2972Y-5.4921
X7.3031Y-4.5315
X7.3071Y-5.3465
X7.3071Y-5.4528
X7.3071Y-5.5315
X7.3071Y-5.5906
X7.3189Y-4.5886
X7.3209Y-4.7795
X7.3209Y-5.4724
X7.3307Y-5.4094
X7.3484Y-4.8209
X7.3524Y-5.4252
X7.3628Y-4.4919
X7.3665Y-4.8373
X7.3707Y-4.3878
X7.3819Y-4.6457
X7.3819Y-4.7244
X7.3858Y-5.6575
X7.3878Y-4.5302
X7.3878Y-4.8287
X7.3917Y-5.0403
X7.3917Y-5.1181
X7.3917Y-5.1959
X7.401Y-4.4919
X7.4041Y-5.3031
X7.4075Y-4.5472
X7.4089Y-4.3878
X7.4114Y-5.4823
X7.4114Y-5.561
X7.4173Y-4.685
X7.4213Y-5.3858
X7.4213Y-5.6594
X7.4272Y-4.5315
X7.4409Y-5.2756
X7.4409Y-5.3031
X7.4409Y-5.374
X7.4415Y-4.8622
X7.4469Y-4.5472
X7.4469Y-4.8248
X7.4474Y-5.3445
X7.4508Y-4.6457
X7.4508Y-4.7244
X7.4508Y-5.5217
X7.4567Y-4.1181
X7.4593Y-4.3878
X7.4606Y-5.3858
X7.4606Y-5.6614
X7.4797Y-4.8622
X7.4803Y-5.374
X7.4856Y-5.3445
X7.4882Y-5.3031
X7.4882Y-5.6594
X7.4902Y-5.4823
X7.4902Y-5.561
X7.4921Y-5.2756
X7.4961Y-5.1575
X7.4974Y-4.3878
X7.5242Y-4.5157
X7.5276Y-5.3031
X7.5315Y-5.2087
X7.5433Y-4.8071
X7.5433Y-4.8307
X7.5433Y-4.8543
X7.5551Y-4.6358
X7.5551Y-4.6752
X7.5624Y-4.5157
X7.5669Y-4.8071
X7.5669Y-4.8307
X7.5669Y-4.8543
X7.5787Y-5.5118
X7.5787Y-5.5709
X7.5984Y-5.5512
X7.5984Y-5.6305
X7.5984Y-5.6687
X7.6063Y-4.4016
X7.6378Y-5.6305
X7.6378Y-5.6687
X7.6535Y-5.2618
X7.6575Y-4.6142
X7.6654Y-4.6969
X7.6654Y-5.4134
X7.6654Y-5.4528
X7.6654Y-5.4921
X7.6817Y-5.315
X7.685Y-4.4134
X7.685Y-5.0827
X7.7087Y-4.8116
X7.7087Y-4.8498
X7.7199Y-5.315
X7.7283Y-4.2008
X7.748Y-4.8031
X7.748Y-4.8583
X7.7677Y-5.0827
X7.7717Y-5.1181
X7.7717Y-5.2362
X7.7874Y-5.063
X7.7953Y-5.2244
X7.8622Y-5.0433
X7.9134Y-5.6293
X7.937Y-4.1181
X7.937Y-4.1575
X7.937Y-4.1969
X7.9567Y-4.3898
X7.9764Y-4.9291
X7.9843Y-4.3819
X7.9961Y-5.1102
X8.0085Y-5.6654
X8.0157Y-4.1181
X8.0157Y-4.1575
X8.0157Y-4.1969
X8.0354Y-4.1181
X8.0354Y-4.1575
X8.0354Y-4.1969
X8.0467Y-5.6654
X8.0591Y-4.4173
X8.248Y-4.5866
X8.248Y-4.626
X8.248Y-4.7795
X8.248Y-4.8189
X8.2627Y-4.5321
X8.2874Y-4.5866
X8.2874Y-4.626
X8.2874Y-4.7795
X8.2874Y-4.8189
X8.3268Y-4.5866
X8.3268Y-4.626
X8.3268Y-4.7795
X8.3268Y-4.8189
X8.3661Y-4.5866
X8.3661Y-4.626
X8.3661Y-4.7795
X8.3661Y-4.8189
T2
X7.6358Y-4.1348
X7.876Y-4.1348
T3
X8.0118Y-5.4331
X8.0118Y-5.5315
X8.0906Y-5.4331
X8.0906Y-5.5315
T4
X5.9843Y-4.1551
X5.9843Y-6.0551
X6.0843Y-4.1551
X6.0843Y-6.0551
X6.1843Y-4.1551
X6.1843Y-6.0551
X6.2843Y-4.1551
X6.2843Y-6.0551
X6.3843Y-4.1551
X6.3843Y-6.0551
X6.4843Y-4.1551
X6.4843Y-6.0551
X6.5843Y-6.0551
X6.6843Y-4.1551
X6.6843Y-6.0551
X6.7843Y-4.1551
X6.8443Y-6.0551
X6.8843Y-4.1551
X6.9443Y-6.0551
X6.9843Y-4.1551
X7.0443Y-6.0551
X7.0843Y-4.1551
X7.1443Y-6.0551
X7.1843Y-4.1551
X7.2443Y-6.0551
X7.2843Y-4.1551
X7.3443Y-6.0551
X7.3843Y-4.1551
X7.4443Y-6.0551
X7.5443Y-6.0551
X7.6443Y-6.0551
X7.7443Y-6.0551
X7.0433Y-5.7283
X7.1433Y-5.7283
X7.2433Y-5.7283
X7.3433Y-5.7283
X7.4433Y-5.7283
X7.5433Y-5.7283
T5
X7.6772Y-4.0187
X7.8346Y-4.0187
T6
X5.9827Y-6.1811
X6.0827Y-6.1811
X6.1811Y-6.1811
X7.4457Y-5.8358
X7.4457Y-5.9358
X7.5457Y-5.8358
X7.5457Y-5.9358
X7.6457Y-5.8358
X7.6457Y-5.9358
X7.7457Y-5.8358
X7.7457Y-5.9358
X7.8457Y-5.8358
X7.8457Y-5.9358
T7
X5.2224Y-4.0394
X5.2461Y-4.2343
X5.8169Y-4.2343
X5.8406Y-4.0394
T8
X7.7559Y-4.0404
T9
X5.685Y-5.878
X5.685Y-6.1614
T10
X4.252Y-4.9248
X4.252Y-5.315
X4.552Y-4.9248
X4.552Y-5.315
X4.952Y-4.9248
X4.952Y-5.315
X4.252Y-4.2618
X4.252Y-4.652
X4.552Y-4.2618
X4.552Y-4.652
X4.952Y-4.2618
X4.952Y-4.652
X4.252Y-5.5941
X4.252Y-5.9843
X4.552Y-5.5941
X4.552Y-5.9843
X4.952Y-5.5941
X4.952Y-5.9843
T11
X8.1972Y-5.2453
X8.1972Y-5.7193
T12
X8.2536Y-4.4263
X8.2536Y-4.9437
T13
X4.752Y-5.1118
X4.752Y-4.4488
X4.752Y-5.7811
T0
M30
